# Blender 4.4.0
# www.blender.org
mtllib Coin.mtl
o テキスト.001
v -0.038213 -0.696368 -0.042511
v 0.054729 -0.696368 -0.042511
v 0.054729 -0.520339 -0.042511
v 0.102111 -0.514341 -0.042511
v 0.146271 -0.504862 -0.042511
v 0.187037 -0.491999 -0.042511
v 0.224238 -0.475850 -0.042511
v 0.257704 -0.456513 -0.042511
v 0.287263 -0.434086 -0.042511
v 0.312744 -0.408666 -0.042511
v 0.333975 -0.380351 -0.042511
v 0.350787 -0.349240 -0.042511
v 0.363007 -0.315430 -0.042511
v 0.370465 -0.279018 -0.042511
v 0.372988 -0.240102 -0.042511
v 0.361406 -0.162225 -0.042511
v 0.329386 -0.098811 -0.042511
v 0.281014 -0.047484 -0.042511
v 0.220378 -0.005868 -0.042511
v 0.151568 0.028414 -0.042511
v 0.078669 0.057737 -0.042511
v 0.005771 0.084479 -0.042511
v -0.063040 0.111015 -0.042511
v -0.123675 0.139722 -0.042511
v -0.172047 0.172977 -0.042511
v -0.204068 0.213155 -0.042511
v -0.215650 0.262634 -0.042511
v -0.213830 0.286390 -0.042511
v -0.208485 0.308336 -0.042511
v -0.199785 0.328425 -0.042511
v -0.187903 0.346606 -0.042511
v -0.173008 0.362832 -0.042511
v -0.155272 0.377052 -0.042511
v -0.134867 0.389220 -0.042511
v -0.111963 0.399284 -0.042511
v -0.086731 0.407197 -0.042511
v -0.059343 0.412910 -0.042511
v -0.029970 0.416374 -0.042511
v 0.001217 0.417539 -0.042511
v 0.030721 0.416558 -0.042511
v 0.058758 0.413679 -0.042511
v 0.085446 0.409002 -0.042511
v 0.110902 0.402622 -0.042511
v 0.135243 0.394639 -0.042511
v 0.158586 0.385150 -0.042511
v 0.181049 0.374252 -0.042511
v 0.202750 0.362044 -0.042511
v 0.223804 0.348624 -0.042511
v 0.244331 0.334088 -0.042511
v 0.264447 0.318536 -0.042511
v 0.284270 0.302064 -0.042511
v 0.353273 0.380925 -0.042511
v 0.333684 0.397949 -0.042511
v 0.313556 0.414436 -0.042511
v 0.292764 0.430257 -0.042511
v 0.271179 0.445286 -0.042511
v 0.248675 0.459396 -0.042511
v 0.225125 0.472460 -0.042511
v 0.200401 0.484350 -0.042511
v 0.174376 0.494939 -0.042511
v 0.146924 0.504101 -0.042511
v 0.117917 0.511707 -0.042511
v 0.087228 0.517632 -0.042511
v 0.054729 0.521748 -0.042511
v 0.054729 0.696368 -0.042511
v -0.038213 0.696368 -0.042511
v -0.038213 0.523156 -0.042511
v -0.081445 0.518159 -0.042511
v -0.122251 0.509589 -0.042511
v -0.160377 0.497566 -0.042511
v -0.195570 0.482213 -0.042511
v -0.227574 0.463653 -0.042511
v -0.256136 0.442007 -0.042511
v -0.281002 0.417398 -0.042511
v -0.301917 0.389948 -0.042511
v -0.318626 0.359780 -0.042511
v -0.330877 0.327015 -0.042511
v -0.338413 0.291776 -0.042511
v -0.340982 0.254185 -0.042511
v -0.329428 0.180850 -0.042511
v -0.297484 0.121192 -0.042511
v -0.249227 0.072810 -0.042511
v -0.188737 0.033302 -0.042511
v -0.120091 0.000268 -0.042511
v -0.047367 -0.028693 -0.042511
v 0.025357 -0.055981 -0.042511
v 0.094003 -0.083998 -0.042511
v 0.154493 -0.115144 -0.042511
v 0.202750 -0.151821 -0.042511
v 0.234694 -0.196429 -0.042511
v 0.246248 -0.251368 -0.042511
v 0.244517 -0.276473 -0.042511
v 0.239324 -0.299652 -0.042511
v 0.230670 -0.320855 -0.042511
v 0.218553 -0.340034 -0.042511
v 0.202974 -0.357140 -0.042511
v 0.183934 -0.372124 -0.042511
v 0.161432 -0.384936 -0.042511
v 0.135468 -0.395529 -0.042511
v 0.106042 -0.403853 -0.042511
v 0.073154 -0.409859 -0.042511
v 0.036804 -0.413498 -0.042511
v -0.003008 -0.414722 -0.042511
v -0.033827 -0.413682 -0.042511
v -0.064259 -0.410622 -0.042511
v -0.094212 -0.405635 -0.042511
v -0.123594 -0.398815 -0.042511
v -0.152310 -0.390254 -0.042511
v -0.180268 -0.380045 -0.042511
v -0.207376 -0.368281 -0.042511
v -0.233540 -0.355055 -0.042511
v -0.258667 -0.340461 -0.042511
v -0.282665 -0.324589 -0.042511
v -0.305440 -0.307535 -0.042511
v -0.326900 -0.289390 -0.042511
v -0.388862 -0.378109 -0.042511
v -0.367252 -0.397635 -0.042511
v -0.343427 -0.416033 -0.042511
v -0.317636 -0.433227 -0.042511
v -0.290129 -0.449146 -0.042511
v -0.261156 -0.463715 -0.042511
v -0.230964 -0.476860 -0.042511
v -0.199805 -0.488510 -0.042511
v -0.167927 -0.498590 -0.042511
v -0.135579 -0.507027 -0.042511
v -0.103011 -0.513748 -0.042511
v -0.070473 -0.518679 -0.042511
v -0.038213 -0.521748 -0.042511
v -0.038213 -0.696368 -0.082125
v 0.054729 -0.696368 -0.082125
v 0.054729 -0.520339 -0.082125
v 0.102111 -0.514341 -0.082125
v 0.146271 -0.504862 -0.082125
v 0.187037 -0.491999 -0.082125
v 0.224238 -0.475850 -0.082125
v 0.257704 -0.456513 -0.082125
v 0.287263 -0.434086 -0.082125
v 0.312744 -0.408666 -0.082125
v 0.333975 -0.380351 -0.082125
v 0.350787 -0.349240 -0.082125
v 0.363007 -0.315430 -0.082125
v 0.370465 -0.279018 -0.082125
v 0.372988 -0.240102 -0.082125
v 0.361406 -0.162225 -0.082125
v 0.329386 -0.098811 -0.082125
v 0.281014 -0.047484 -0.082125
v 0.220378 -0.005868 -0.082125
v 0.151568 0.028414 -0.082125
v 0.078669 0.057737 -0.082125
v 0.005771 0.084479 -0.082125
v -0.063040 0.111015 -0.082125
v -0.123675 0.139722 -0.082125
v -0.172047 0.172977 -0.082125
v -0.204068 0.213155 -0.082125
v -0.215650 0.262634 -0.082125
v -0.213830 0.286390 -0.082125
v -0.208485 0.308336 -0.082125
v -0.199785 0.328425 -0.082125
v -0.187903 0.346606 -0.082125
v -0.173008 0.362832 -0.082125
v -0.155272 0.377052 -0.082125
v -0.134867 0.389220 -0.082125
v -0.111963 0.399284 -0.082125
v -0.086731 0.407197 -0.082125
v -0.059343 0.412910 -0.082125
v -0.029970 0.416374 -0.082125
v 0.001217 0.417539 -0.082125
v 0.030721 0.416558 -0.082125
v 0.058758 0.413679 -0.082125
v 0.085446 0.409002 -0.082125
v 0.110902 0.402622 -0.082125
v 0.135243 0.394639 -0.082125
v 0.158586 0.385150 -0.082125
v 0.181049 0.374252 -0.082125
v 0.202750 0.362044 -0.082125
v 0.223804 0.348624 -0.082125
v 0.244331 0.334088 -0.082125
v 0.264447 0.318536 -0.082125
v 0.284270 0.302064 -0.082125
v 0.353273 0.380925 -0.082125
v 0.333684 0.397949 -0.082125
v 0.313556 0.414436 -0.082125
v 0.292764 0.430257 -0.082125
v 0.271179 0.445286 -0.082125
v 0.248675 0.459396 -0.082125
v 0.225125 0.472460 -0.082125
v 0.200401 0.484350 -0.082125
v 0.174376 0.494939 -0.082125
v 0.146924 0.504101 -0.082125
v 0.117917 0.511707 -0.082125
v 0.087228 0.517632 -0.082125
v 0.054729 0.521748 -0.082125
v 0.054729 0.696368 -0.082125
v -0.038213 0.696368 -0.082125
v -0.038213 0.523156 -0.082125
v -0.081445 0.518159 -0.082125
v -0.122251 0.509589 -0.082125
v -0.160377 0.497566 -0.082125
v -0.195570 0.482213 -0.082125
v -0.227574 0.463653 -0.082125
v -0.256136 0.442007 -0.082125
v -0.281002 0.417398 -0.082125
v -0.301917 0.389948 -0.082125
v -0.318626 0.359780 -0.082125
v -0.330877 0.327015 -0.082125
v -0.338413 0.291776 -0.082125
v -0.340982 0.254185 -0.082125
v -0.329428 0.180850 -0.082125
v -0.297484 0.121192 -0.082125
v -0.249227 0.072810 -0.082125
v -0.188737 0.033302 -0.082125
v -0.120091 0.000268 -0.082125
v -0.047367 -0.028693 -0.082125
v 0.025357 -0.055981 -0.082125
v 0.094003 -0.083998 -0.082125
v 0.154493 -0.115144 -0.082125
v 0.202750 -0.151821 -0.082125
v 0.234694 -0.196429 -0.082125
v 0.246248 -0.251368 -0.082125
v 0.244517 -0.276473 -0.082125
v 0.239324 -0.299652 -0.082125
v 0.230670 -0.320855 -0.082125
v 0.218553 -0.340034 -0.082125
v 0.202974 -0.357140 -0.082125
v 0.183934 -0.372124 -0.082125
v 0.161432 -0.384936 -0.082125
v 0.135468 -0.395529 -0.082125
v 0.106042 -0.403853 -0.082125
v 0.073154 -0.409859 -0.082125
v 0.036804 -0.413498 -0.082125
v -0.003008 -0.414722 -0.082125
v -0.033827 -0.413682 -0.082125
v -0.064259 -0.410622 -0.082125
v -0.094212 -0.405635 -0.082125
v -0.123594 -0.398815 -0.082125
v -0.152310 -0.390254 -0.082125
v -0.180268 -0.380045 -0.082125
v -0.207376 -0.368281 -0.082125
v -0.233540 -0.355055 -0.082125
v -0.258667 -0.340461 -0.082125
v -0.282665 -0.324589 -0.082125
v -0.305440 -0.307535 -0.082125
v -0.326900 -0.289390 -0.082125
v -0.388862 -0.378109 -0.082125
v -0.367252 -0.397635 -0.082125
v -0.343427 -0.416033 -0.082125
v -0.317636 -0.433227 -0.082125
v -0.290129 -0.449146 -0.082125
v -0.261156 -0.463715 -0.082125
v -0.230964 -0.476860 -0.082125
v -0.199805 -0.488510 -0.082125
v -0.167927 -0.498590 -0.082125
v -0.135579 -0.507027 -0.082125
v -0.103011 -0.513748 -0.082125
v -0.070473 -0.518679 -0.082125
v -0.038213 -0.521748 -0.082125
v 0.000000 0.917099 -0.062670
v 0.000000 0.917099 0.062670
v 0.000000 1.000000 0.081127
v 0.000000 1.000000 -0.081127
v 0.178917 0.899477 0.062670
v 0.195090 0.980785 0.081127
v 0.178917 0.899477 -0.062670
v 0.350959 0.847289 0.062670
v 0.382683 0.923880 0.081127
v 0.195090 0.980785 -0.081127
v 0.509513 0.762540 0.062670
v 0.555570 0.831470 0.081127
v 0.350959 0.847289 -0.062670
v 0.648487 0.648487 0.062670
v 0.707107 0.707107 0.081127
v 0.382683 0.923880 -0.081127
v 0.762540 0.509513 0.062670
v 0.831470 0.555570 0.081127
v 0.509513 0.762540 -0.062670
v 0.847289 0.350959 0.062670
v 0.923880 0.382683 0.081127
v 0.555570 0.831470 -0.081127
v 0.899477 0.178917 0.062670
v 0.980785 0.195090 0.081127
v 0.648487 0.648487 -0.062670
v 0.917099 -0.000000 0.062670
v 1.000000 -0.000000 0.081127
v 0.707107 0.707107 -0.081127
v 0.899477 -0.178917 0.062670
v 0.980785 -0.195090 0.081127
v 0.847289 -0.350959 0.062670
v 0.762540 0.509513 -0.062670
v 0.923880 -0.382683 0.081127
v 0.831470 0.555570 -0.081127
v 0.762540 -0.509513 0.062670
v 0.831470 -0.555570 0.081127
v 0.847289 0.350959 -0.062670
v 0.648487 -0.648487 0.062670
v 0.707107 -0.707107 0.081127
v 0.923880 0.382683 -0.081127
v 0.509513 -0.762540 0.062670
v 0.555570 -0.831470 0.081127
v 0.899477 0.178917 -0.062670
v 0.350959 -0.847289 0.062670
v 0.382683 -0.923880 0.081127
v 0.178917 -0.899477 0.062670
v 0.980785 0.195090 -0.081127
v 0.195090 -0.980785 0.081127
v 0.917099 0.000000 -0.062670
v 0.000000 -0.917099 0.062670
v 0.000000 -1.000000 0.081127
v 1.000000 0.000000 -0.081127
v -0.178917 -0.899477 0.062670
v -0.195090 -0.980785 0.081127
v 0.899477 -0.178917 -0.062670
v -0.350959 -0.847289 0.062670
v -0.382684 -0.923880 0.081127
v 0.980785 -0.195090 -0.081127
v -0.509513 -0.762540 0.062670
v -0.555570 -0.831470 0.081127
v 0.847289 -0.350959 -0.062670
v -0.648487 -0.648487 0.062670
v -0.707107 -0.707107 0.081127
v 0.923880 -0.382683 -0.081127
v -0.762540 -0.509513 0.062670
v -0.831470 -0.555570 0.081127
v 0.762540 -0.509513 -0.062670
v -0.847289 -0.350959 0.062670
v -0.923880 -0.382683 0.081127
v 0.831470 -0.555570 -0.081127
v -0.899477 -0.178917 0.062670
v -0.980785 -0.195090 0.081127
v 0.648487 -0.648487 -0.062670
v -0.917099 -0.000000 0.062670
v -1.000000 -0.000000 0.081127
v 0.707107 -0.707107 -0.081127
v -0.899477 0.178917 0.062670
v -0.980785 0.195090 0.081127
v 0.509513 -0.762540 -0.062670
v -0.847289 0.350959 0.062670
v -0.923880 0.382683 0.081127
v 0.555570 -0.831470 -0.081127
v -0.762540 0.509513 0.062670
v -0.831470 0.555570 0.081127
v 0.350959 -0.847289 -0.062670
v -0.648487 0.648487 0.062670
v -0.707107 0.707107 0.081127
v 0.382683 -0.923880 -0.081127
v -0.509513 0.762540 0.062670
v -0.555570 0.831470 0.081127
v 0.178917 -0.899477 -0.062670
v -0.350959 0.847289 0.062670
v -0.382684 0.923880 0.081127
v 0.195090 -0.980785 -0.081127
v -0.178917 0.899477 0.062670
v -0.195090 0.980785 0.081127
v -0.762540 0.509513 0.081127
v -0.509513 0.762540 0.081127
v -0.648487 0.648487 0.081127
v -0.178917 0.899477 0.081127
v 0.178917 0.899477 0.081127
v 0.000000 0.917099 0.081127
v -0.350959 0.847289 0.081127
v -0.917099 -0.000000 0.081127
v -0.899477 -0.178917 0.081127
v -0.899477 0.178917 0.081127
v -0.762540 -0.509513 0.081127
v -0.847289 -0.350959 0.081127
v -0.509513 -0.762540 0.081127
v -0.648487 -0.648487 0.081127
v -0.178917 -0.899477 0.081127
v 0.178917 -0.899477 0.081127
v 0.000000 -0.917099 0.081127
v 0.509513 -0.762540 0.081127
v 0.350959 -0.847289 0.081127
v 0.762540 -0.509513 0.081127
v 0.648487 -0.648487 0.081127
v 0.509513 0.762540 0.081127
v 0.762540 0.509513 0.081127
v 0.648487 0.648487 0.081127
v 0.917099 -0.000000 0.081127
v 0.899477 -0.178917 0.081127
v 0.899477 0.178917 0.081127
v 0.847289 0.350959 0.081127
v -0.847289 0.350959 0.081127
v -0.350959 -0.847289 0.081127
v 0.350959 0.847289 0.081127
v 0.847289 -0.350959 0.081127
v 0.000000 1.000000 0.000000
v 0.195090 0.980785 0.000000
v 0.382683 0.923880 0.000000
v 0.555570 0.831470 0.000000
v 0.707107 0.707107 0.000000
v 0.831470 0.555570 0.000000
v 0.923880 0.382683 0.000000
v 0.980785 0.195090 0.000000
v 1.000000 0.000000 0.000000
v 0.980785 -0.195090 -0.000000
v 0.923880 -0.382683 -0.000000
v 0.831470 -0.555570 -0.000000
v 0.707107 -0.707107 -0.000000
v 0.555570 -0.831470 -0.000000
v 0.382683 -0.923880 -0.000000
v 0.195090 -0.980785 -0.000000
v 0.000000 -1.000000 -0.000000
v -0.195090 -0.980785 -0.000000
v -0.382684 -0.923880 -0.000000
v -0.555570 -0.831470 -0.000000
v -0.707107 -0.707107 -0.000000
v -0.831470 -0.555570 -0.000000
v -0.923880 -0.382683 -0.000000
v -0.980785 -0.195090 -0.000000
v -1.000000 0.000000 0.000000
v -0.980785 0.195090 0.000000
v -0.923880 0.382683 0.000000
v -0.831470 0.555570 0.000000
v -0.707107 0.707107 0.000000
v -0.555570 0.831470 0.000000
v -0.382684 0.923880 0.000000
v -0.195090 0.980785 0.000000
v 0.000000 -0.917099 -0.062670
v 0.000000 -1.000000 -0.081127
v -0.178917 -0.899477 -0.062670
v -0.195090 -0.980785 -0.081127
v -0.350959 -0.847289 -0.062670
v -0.382684 -0.923880 -0.081127
v -0.509513 -0.762540 -0.062670
v -0.555570 -0.831470 -0.081127
v -0.648487 -0.648487 -0.062670
v -0.707107 -0.707107 -0.081127
v -0.762540 -0.509513 -0.062670
v -0.831470 -0.555570 -0.081127
v -0.847289 -0.350959 -0.062670
v -0.923880 -0.382683 -0.081127
v -0.899477 -0.178917 -0.062670
v -0.980785 -0.195090 -0.081127
v -0.917099 0.000000 -0.062670
v -1.000000 0.000000 -0.081127
v -0.899477 0.178917 -0.062670
v -0.980785 0.195090 -0.081127
v -0.847289 0.350959 -0.062670
v -0.923880 0.382683 -0.081127
v -0.762540 0.509513 -0.062670
v -0.831470 0.555570 -0.081127
v -0.648487 0.648487 -0.062670
v -0.707107 0.707107 -0.081127
v -0.509513 0.762540 -0.062670
v -0.555570 0.831470 -0.081127
v -0.350959 0.847289 -0.062670
v -0.382684 0.923880 -0.081127
v -0.178917 0.899477 -0.062670
v -0.195090 0.980785 -0.081127
v -0.762540 0.509513 -0.081127
v -0.509513 0.762540 -0.081127
v -0.648487 0.648487 -0.081127
v -0.178917 0.899477 -0.081127
v 0.178917 0.899477 -0.081127
v 0.000000 0.917099 -0.081127
v -0.350959 0.847289 -0.081127
v -0.917099 0.000000 -0.081127
v -0.899477 -0.178917 -0.081127
v -0.899477 0.178917 -0.081127
v -0.762540 -0.509513 -0.081127
v -0.847289 -0.350959 -0.081127
v -0.509513 -0.762540 -0.081127
v -0.648487 -0.648487 -0.081127
v -0.178917 -0.899477 -0.081127
v 0.178917 -0.899477 -0.081127
v 0.000000 -0.917099 -0.081127
v 0.509513 -0.762540 -0.081127
v 0.350959 -0.847289 -0.081127
v 0.762540 -0.509513 -0.081127
v 0.648487 -0.648487 -0.081127
v 0.509513 0.762540 -0.081127
v 0.762540 0.509513 -0.081127
v 0.648487 0.648487 -0.081127
v 0.917099 0.000000 -0.081127
v 0.899477 -0.178917 -0.081127
v 0.899477 0.178917 -0.081127
v 0.847289 0.350959 -0.081127
v -0.847289 0.350959 -0.081127
v -0.350959 -0.847289 -0.081127
v 0.350959 0.847289 -0.081127
v 0.847289 -0.350959 -0.081127
v -0.038213 -0.696368 0.032668
v 0.054729 -0.696368 0.032668
v 0.054729 -0.520339 0.032668
v 0.102111 -0.514341 0.032668
v 0.146271 -0.504862 0.032668
v 0.187037 -0.491999 0.032668
v 0.224238 -0.475850 0.032668
v 0.257704 -0.456513 0.032668
v 0.287263 -0.434086 0.032668
v 0.312744 -0.408666 0.032668
v 0.333975 -0.380351 0.032668
v 0.350787 -0.349240 0.032668
v 0.363007 -0.315430 0.032668
v 0.370465 -0.279018 0.032668
v 0.372988 -0.240103 0.032668
v 0.361406 -0.162225 0.032668
v 0.329386 -0.098811 0.032668
v 0.281014 -0.047484 0.032668
v 0.220378 -0.005868 0.032668
v 0.151568 0.028414 0.032668
v 0.078669 0.057737 0.032668
v 0.005771 0.084479 0.032668
v -0.063040 0.111015 0.032668
v -0.123675 0.139722 0.032668
v -0.172047 0.172977 0.032668
v -0.204068 0.213155 0.032668
v -0.215650 0.262634 0.032668
v -0.213830 0.286390 0.032668
v -0.208485 0.308336 0.032668
v -0.199785 0.328425 0.032668
v -0.187903 0.346606 0.032668
v -0.173008 0.362832 0.032668
v -0.155272 0.377052 0.032668
v -0.134867 0.389220 0.032668
v -0.111963 0.399284 0.032668
v -0.086731 0.407197 0.032668
v -0.059343 0.412910 0.032668
v -0.029970 0.416374 0.032668
v 0.001217 0.417539 0.032668
v 0.030721 0.416558 0.032668
v 0.058758 0.413679 0.032668
v 0.085446 0.409002 0.032668
v 0.110902 0.402622 0.032668
v 0.135243 0.394639 0.032668
v 0.158586 0.385150 0.032668
v 0.181049 0.374252 0.032668
v 0.202750 0.362044 0.032668
v 0.223805 0.348624 0.032668
v 0.244331 0.334088 0.032668
v 0.264447 0.318536 0.032668
v 0.284270 0.302064 0.032668
v 0.353273 0.380925 0.032668
v 0.333684 0.397949 0.032668
v 0.313556 0.414436 0.032668
v 0.292764 0.430257 0.032668
v 0.271179 0.445286 0.032668
v 0.248675 0.459396 0.032668
v 0.225125 0.472460 0.032668
v 0.200401 0.484350 0.032668
v 0.174376 0.494939 0.032668
v 0.146924 0.504101 0.032668
v 0.117917 0.511708 0.032668
v 0.087228 0.517632 0.032668
v 0.054729 0.521748 0.032668
v 0.054729 0.696368 0.032668
v -0.038213 0.696368 0.032668
v -0.038213 0.523156 0.032668
v -0.081445 0.518159 0.032668
v -0.122251 0.509589 0.032668
v -0.160377 0.497566 0.032668
v -0.195570 0.482213 0.032668
v -0.227574 0.463653 0.032668
v -0.256136 0.442007 0.032668
v -0.281002 0.417398 0.032668
v -0.301917 0.389948 0.032668
v -0.318626 0.359780 0.032668
v -0.330877 0.327015 0.032668
v -0.338413 0.291776 0.032668
v -0.340982 0.254185 0.032668
v -0.329428 0.180850 0.032668
v -0.297484 0.121192 0.032668
v -0.249227 0.072810 0.032668
v -0.188737 0.033302 0.032668
v -0.120091 0.000268 0.032668
v -0.047367 -0.028693 0.032668
v 0.025357 -0.055981 0.032668
v 0.094003 -0.083998 0.032668
v 0.154493 -0.115144 0.032668
v 0.202750 -0.151821 0.032668
v 0.234694 -0.196429 0.032668
v 0.246248 -0.251368 0.032668
v 0.244517 -0.276474 0.032668
v 0.239324 -0.299652 0.032668
v 0.230670 -0.320855 0.032668
v 0.218553 -0.340034 0.032668
v 0.202975 -0.357140 0.032668
v 0.183934 -0.372124 0.032668
v 0.161432 -0.384936 0.032668
v 0.135468 -0.395529 0.032668
v 0.106042 -0.403853 0.032668
v 0.073154 -0.409859 0.032668
v 0.036804 -0.413498 0.032668
v -0.003008 -0.414723 0.032668
v -0.033827 -0.413682 0.032668
v -0.064259 -0.410622 0.032668
v -0.094212 -0.405635 0.032668
v -0.123594 -0.398815 0.032668
v -0.152310 -0.390254 0.032668
v -0.180268 -0.380045 0.032668
v -0.207376 -0.368281 0.032668
v -0.233540 -0.355055 0.032668
v -0.258667 -0.340461 0.032668
v -0.282665 -0.324590 0.032668
v -0.305440 -0.307535 0.032668
v -0.326900 -0.289390 0.032668
v -0.388862 -0.378109 0.032668
v -0.367252 -0.397636 0.032668
v -0.343427 -0.416033 0.032668
v -0.317636 -0.433227 0.032668
v -0.290129 -0.449146 0.032668
v -0.261156 -0.463715 0.032668
v -0.230964 -0.476860 0.032668
v -0.199805 -0.488510 0.032668
v -0.167927 -0.498590 0.032668
v -0.135579 -0.507027 0.032668
v -0.103011 -0.513748 0.032668
v -0.070473 -0.518679 0.032668
v -0.038213 -0.521748 0.032668
v -0.038213 -0.696368 0.087554
v 0.054729 -0.696368 0.087554
v 0.054729 -0.520339 0.087554
v 0.102111 -0.514341 0.087554
v 0.146271 -0.504862 0.087554
v 0.187037 -0.491999 0.087554
v 0.224238 -0.475850 0.087554
v 0.257704 -0.456513 0.087554
v 0.287263 -0.434086 0.087554
v 0.312744 -0.408666 0.087554
v 0.333975 -0.380351 0.087554
v 0.350787 -0.349240 0.087554
v 0.363007 -0.315430 0.087554
v 0.370465 -0.279018 0.087554
v 0.372988 -0.240103 0.087554
v 0.361406 -0.162225 0.087554
v 0.329386 -0.098811 0.087554
v 0.281014 -0.047484 0.087554
v 0.220378 -0.005868 0.087554
v 0.151568 0.028414 0.087554
v 0.078669 0.057737 0.087554
v 0.005771 0.084479 0.087554
v -0.063040 0.111015 0.087554
v -0.123675 0.139722 0.087554
v -0.172047 0.172977 0.087554
v -0.204068 0.213155 0.087554
v -0.215650 0.262634 0.087554
v -0.213830 0.286390 0.087554
v -0.208485 0.308336 0.087554
v -0.199785 0.328425 0.087554
v -0.187903 0.346606 0.087554
v -0.173008 0.362832 0.087554
v -0.155272 0.377052 0.087554
v -0.134867 0.389220 0.087554
v -0.111963 0.399284 0.087554
v -0.086731 0.407197 0.087554
v -0.059343 0.412910 0.087554
v -0.029970 0.416374 0.087554
v 0.001217 0.417539 0.087554
v 0.030721 0.416558 0.087554
v 0.058758 0.413679 0.087554
v 0.085446 0.409002 0.087554
v 0.110902 0.402622 0.087554
v 0.135243 0.394639 0.087554
v 0.158586 0.385150 0.087554
v 0.181049 0.374252 0.087554
v 0.202750 0.362044 0.087554
v 0.223805 0.348624 0.087554
v 0.244331 0.334088 0.087554
v 0.264447 0.318536 0.087554
v 0.284270 0.302064 0.087554
v 0.353273 0.380925 0.087554
v 0.333684 0.397949 0.087554
v 0.313556 0.414436 0.087554
v 0.292764 0.430257 0.087554
v 0.271179 0.445286 0.087554
v 0.248675 0.459396 0.087554
v 0.225125 0.472460 0.087554
v 0.200401 0.484350 0.087554
v 0.174376 0.494939 0.087554
v 0.146924 0.504101 0.087554
v 0.117917 0.511708 0.087554
v 0.087228 0.517632 0.087554
v 0.054729 0.521748 0.087554
v 0.054729 0.696368 0.087554
v -0.038213 0.696368 0.087554
v -0.038213 0.523156 0.087554
v -0.081445 0.518159 0.087554
v -0.122251 0.509589 0.087554
v -0.160377 0.497566 0.087554
v -0.195570 0.482213 0.087554
v -0.227574 0.463653 0.087554
v -0.256136 0.442007 0.087554
v -0.281002 0.417398 0.087554
v -0.301917 0.389948 0.087554
v -0.318626 0.359780 0.087554
v -0.330877 0.327015 0.087554
v -0.338413 0.291776 0.087554
v -0.340982 0.254185 0.087554
v -0.329428 0.180850 0.087554
v -0.297484 0.121192 0.087554
v -0.249227 0.072810 0.087554
v -0.188737 0.033302 0.087554
v -0.120091 0.000268 0.087554
v -0.047367 -0.028693 0.087554
v 0.025357 -0.055981 0.087554
v 0.094003 -0.083998 0.087554
v 0.154493 -0.115144 0.087554
v 0.202750 -0.151821 0.087554
v 0.234694 -0.196429 0.087554
v 0.246248 -0.251368 0.087554
v 0.244517 -0.276474 0.087554
v 0.239324 -0.299652 0.087554
v 0.230670 -0.320855 0.087554
v 0.218553 -0.340034 0.087554
v 0.202975 -0.357140 0.087554
v 0.183934 -0.372124 0.087554
v 0.161432 -0.384936 0.087554
v 0.135468 -0.395529 0.087554
v 0.106042 -0.403853 0.087554
v 0.073154 -0.409859 0.087554
v 0.036804 -0.413498 0.087554
v -0.003008 -0.414723 0.087554
v -0.033827 -0.413682 0.087554
v -0.064259 -0.410622 0.087554
v -0.094212 -0.405635 0.087554
v -0.123594 -0.398815 0.087554
v -0.152310 -0.390254 0.087554
v -0.180268 -0.380045 0.087554
v -0.207376 -0.368281 0.087554
v -0.233540 -0.355055 0.087554
v -0.258667 -0.340461 0.087554
v -0.282665 -0.324590 0.087554
v -0.305440 -0.307535 0.087554
v -0.326900 -0.289390 0.087554
v -0.388862 -0.378109 0.087554
v -0.367252 -0.397636 0.087554
v -0.343427 -0.416033 0.087554
v -0.317636 -0.433227 0.087554
v -0.290129 -0.449146 0.087554
v -0.261156 -0.463715 0.087554
v -0.230964 -0.476860 0.087554
v -0.199805 -0.488510 0.087554
v -0.167927 -0.498590 0.087554
v -0.135579 -0.507027 0.087554
v -0.103011 -0.513748 0.087554
v -0.070473 -0.518679 0.087554
v -0.038213 -0.521748 0.087554
vn -0.0000 -0.0000 -1.0000
vn -0.0000 -0.0000 1.0000
vn -0.7367 0.6763 -0.0000
vn -0.8001 0.5999 -0.0000
vn 0.1498 0.9887 -0.0000
vn 0.9367 -0.3502 -0.0000
vn 0.3777 -0.9259 -0.0000
vn -0.8927 -0.4507 -0.0000
vn -0.6055 -0.7958 -0.0000
vn 0.6051 0.7961 -0.0000
vn -0.1256 0.9921 -0.0000
vn -0.8371 0.5471 -0.0000
vn -0.2857 -0.9583 -0.0000
vn 0.0947 0.9955 -0.0000
vn 0.2722 -0.9622 -0.0000
vn -0.0373 0.9993 -0.0000
vn 0.8130 0.5822 -0.0000
vn -0.9176 0.3974 -0.0000
vn 0.0332 0.9994 -0.0000
vn 0.9779 -0.2091 -0.0000
vn 0.6112 0.7915 -0.0000
vn -1.0000 -0.0000 -0.0000
vn 0.7954 -0.6061 -0.0000
vn -0.9891 -0.1471 -0.0000
vn 1.0000 -0.0000 -0.0000
vn 0.9786 0.2058 -0.0000
vn -0.0000 1.0000 -0.0000
vn -0.9716 0.2366 -0.0000
vn -0.2261 -0.9741 -0.0000
vn 0.1021 0.9948 -0.0000
vn 0.9977 -0.0682 -0.0000
vn 0.1797 -0.9837 -0.0000
vn -0.9979 0.0647 -0.0000
vn -0.1171 0.9931 -0.0000
vn 0.9976 -0.0688 -0.0000
vn -0.9971 0.0764 -0.0000
vn -0.1642 -0.9864 -0.0000
vn -0.6337 -0.7736 -0.0000
vn 0.9758 -0.2186 -0.0000
vn -0.9737 -0.2279 -0.0000
vn -0.7063 0.7080 -0.0000
vn 0.1726 0.9850 -0.0000
vn -0.0000 -1.0000 -0.0000
vn 0.9878 0.1556 -0.0000
vn 0.0996 -0.9950 -0.0000
vn -0.9797 0.2006 -0.0000
vn -0.2042 0.9789 -0.0000
vn 0.8198 -0.5726 -0.0000
vn 0.1148 -0.9934 -0.0000
vn -0.7820 -0.6232 -0.0000
vn -0.1000 -0.9950 -0.0000
vn 0.2431 0.9700 -0.0000
vn 0.8816 0.4720 -0.0000
vn 0.0307 -0.9995 -0.0000
vn -0.6457 -0.7636 -0.0000
vn 0.9258 -0.3779 -0.0000
vn -0.1256 -0.9921 -0.0000
vn -0.2992 0.9542 -0.0000
vn 0.2056 -0.9786 -0.0000
vn -0.5665 -0.8240 -0.0000
vn -0.0337 -0.9994 -0.0000
vn 0.3116 0.9502 -0.0000
vn -0.5994 -0.8005 -0.0000
vn -0.4279 -0.9038 -0.0000
vn 0.5547 0.8320 -0.0000
vn -0.1896 -0.9819 -0.0000
vn 0.7080 0.7062 -0.0000
vn -0.4023 0.9155 -0.0000
vn -0.9405 0.3399 -0.0000
vn 0.5009 0.8655 -0.0000
vn 0.8454 -0.5341 -0.0000
vn -0.2537 -0.9673 -0.0000
vn -0.6560 -0.7548 -0.0000
vn 0.3007 -0.9537 -0.0000
vn -0.3598 -0.9330 -0.0000
vn 0.3766 0.9264 -0.0000
vn -0.6044 0.7966 -0.0000
vn -0.5516 -0.8341 -0.0000
vn -0.3444 -0.9388 -0.0000
vn 0.4492 0.8934 -0.0000
vn 0.8748 -0.4845 -0.0000
vn 0.7393 -0.6733 -0.0000
vn -0.3166 -0.9486 -0.0000
vn 0.5468 0.8372 -0.0000
vn 0.3999 -0.9166 -0.0000
vn -0.5003 0.8659 -0.0000
vn -0.5121 0.8589 -0.0000
vn -0.5023 -0.8647 -0.0000
vn -0.3732 -0.9278 -0.0000
vn 0.3992 0.9169 -0.0000
vn 0.4365 0.8997 -0.0000
vn -0.3769 -0.9263 -0.0000
vn 0.4336 0.9011 -0.0000
vn -0.8798 0.4754 -0.0000
vn 0.4903 0.8716 -0.0000
vn -0.4334 -0.9012 -0.0000
vn -0.3982 0.9173 -0.0000
vn -0.4511 -0.8925 -0.0000
vn 0.5017 -0.8651 -0.0000
vn -0.4459 -0.8951 -0.0000
vn 0.3502 0.9367 -0.0000
vn 0.5375 0.8433 -0.0000
vn 0.6184 -0.7859 -0.0000
vn 0.3700 0.9290 -0.0000
vn 0.3015 0.9535 -0.0000
vn 0.5779 0.8161 -0.0000
vn -0.4851 -0.8745 -0.0000
vn -0.3981 -0.9173 -0.0000
vn 0.6040 -0.7970 -0.0000
vn -0.5659 -0.8245 -0.0000
vn 0.6116 0.7911 -0.0000
vn 0.4948 -0.8690 -0.0000
vn 0.3513 0.9363 -0.0000
vn -0.3009 0.9537 -0.0000
vn 0.2524 0.9676 -0.0000
vn 0.6391 0.7691 -0.0000
vn 0.6704 0.7420 -0.0000
vn -0.5312 -0.8472 -0.0000
vn -0.7526 0.6585 -0.0000
vn -0.7277 -0.6858 -0.0000
vn -0.5714 -0.8207 -0.0000
vn 0.3779 0.9259 -0.0000
vn -0.2099 0.9777 -0.0000
vn -0.6256 0.7802 -0.0000
vn -0.3430 -0.9393 -0.0000
vn 0.7034 -0.7108 -0.0000
vn 0.2021 0.9794 -0.0000
vn 0.4578 0.8891 -0.0000
vn 0.0980 0.9952 -0.0000
vn 0.2903 0.9569 -0.0000
vn 0.4714 0.8819 -0.0000
vn 0.6344 0.7730 -0.0000
vn 0.7730 0.6344 -0.0000
vn 0.8819 0.4714 -0.0000
vn 0.9569 0.2903 -0.0000
vn 0.9952 0.0980 -0.0000
vn 0.9952 -0.0980 -0.0000
vn 0.9569 -0.2903 -0.0000
vn 0.8819 -0.4714 -0.0000
vn 0.7730 -0.6344 -0.0000
vn 0.6344 -0.7730 -0.0000
vn 0.4714 -0.8819 -0.0000
vn 0.2903 -0.9569 -0.0000
vn 0.0980 -0.9952 -0.0000
vn -0.0980 -0.9952 -0.0000
vn -0.2903 -0.9569 -0.0000
vn -0.4714 -0.8819 -0.0000
vn -0.6344 -0.7730 -0.0000
vn -0.7730 -0.6344 -0.0000
vn -0.8819 -0.4714 -0.0000
vn -0.9569 -0.2903 -0.0000
vn -0.9952 -0.0980 -0.0000
vn -0.9952 0.0980 -0.0000
vn -0.9569 0.2903 -0.0000
vn -0.8819 0.4714 -0.0000
vn -0.7730 0.6344 -0.0000
vn -0.6344 0.7730 -0.0000
vn -0.4714 0.8819 -0.0000
vn -0.2903 0.9569 -0.0000
vn -0.0980 0.9952 -0.0000
vn 0.2992 -0.9542 -0.0000
vn -0.2056 0.9786 -0.0000
vn 0.5665 0.8240 -0.0000
vn 0.0337 0.9994 -0.0000
vn -0.3116 -0.9502 -0.0000
vn 0.5994 0.8005 -0.0000
vn 0.4279 0.9038 -0.0000
vn -0.5547 -0.8320 -0.0000
vn 0.1896 0.9819 -0.0000
vn -0.7080 -0.7062 -0.0000
vn 0.4023 -0.9155 -0.0000
vn 0.9405 -0.3399 -0.0000
vn -0.5009 -0.8655 -0.0000
vn -0.8454 0.5341 -0.0000
vn 0.2537 0.9673 -0.0000
vn 0.6560 0.7548 -0.0000
vn -0.3007 0.9537 -0.0000
vn 0.3598 0.9330 -0.0000
vn -0.3766 -0.9264 -0.0000
vn 0.6044 -0.7966 -0.0000
vn 0.5516 0.8341 -0.0000
vn 0.3444 0.9388 -0.0000
vn -0.4492 -0.8934 -0.0000
vn -0.8748 0.4845 -0.0000
vn -0.7393 0.6733 -0.0000
vn 0.3166 0.9486 -0.0000
vn -0.5468 -0.8372 -0.0000
vn -0.3999 0.9166 -0.0000
vn 0.5003 -0.8659 -0.0000
vn 0.5121 -0.8589 -0.0000
vn 0.5023 0.8647 -0.0000
vn 0.3732 0.9278 -0.0000
vn -0.3992 -0.9169 -0.0000
vn -0.4365 -0.8997 -0.0000
vn 0.3769 0.9263 -0.0000
vn -0.4336 -0.9011 -0.0000
vn 0.8798 -0.4754 -0.0000
vn -0.4903 -0.8716 -0.0000
vn 0.4334 0.9012 -0.0000
vn 0.3982 -0.9173 -0.0000
vn 0.4511 0.8925 -0.0000
vn -0.5017 0.8651 -0.0000
vn 0.4459 0.8951 -0.0000
vn -0.3502 -0.9367 -0.0000
vn -0.5375 -0.8433 -0.0000
vn -0.6184 0.7859 -0.0000
vn -0.3700 -0.9290 -0.0000
vn -0.3015 -0.9535 -0.0000
vn -0.5779 -0.8161 -0.0000
vn 0.4851 0.8745 -0.0000
vn 0.3981 0.9173 -0.0000
vn -0.6040 0.7970 -0.0000
vn 0.5659 0.8245 -0.0000
vn -0.6116 -0.7911 -0.0000
vn -0.4948 0.8690 -0.0000
vn -0.3513 -0.9363 -0.0000
vn 0.3009 -0.9537 -0.0000
vn -0.2524 -0.9676 -0.0000
vn -0.6391 -0.7691 -0.0000
vn -0.6704 -0.7420 -0.0000
vn 0.5312 0.8472 -0.0000
vn 0.7526 -0.6585 -0.0000
vn 0.7277 0.6858 -0.0000
vn 0.5714 0.8207 -0.0000
vn -0.3779 -0.9259 -0.0000
vn 0.2099 -0.9777 -0.0000
vn 0.6256 -0.7802 -0.0000
vn 0.3430 0.9393 -0.0000
vn -0.7034 0.7108 -0.0000
vn -0.2021 -0.9794 -0.0000
vn -0.4578 -0.8891 -0.0000
vn 0.7367 -0.6763 -0.0000
vn 0.8001 -0.5999 -0.0000
vn -0.1498 -0.9887 -0.0000
vn -0.9367 0.3502 -0.0000
vn -0.3777 0.9259 -0.0000
vn 0.8927 0.4507 -0.0000
vn 0.6055 0.7958 -0.0000
vn -0.6051 -0.7961 -0.0000
vn 0.1256 -0.9921 -0.0000
vn 0.8371 -0.5471 -0.0000
vn 0.2857 0.9583 -0.0000
vn -0.0947 -0.9955 -0.0000
vn -0.2722 0.9622 -0.0000
vn 0.0373 -0.9993 -0.0000
vn -0.8130 -0.5822 -0.0000
vn 0.9176 -0.3974 -0.0000
vn -0.0332 -0.9994 -0.0000
vn -0.9779 0.2091 -0.0000
vn -0.6112 -0.7915 -0.0000
vn -0.7954 0.6061 -0.0000
vn 0.9891 0.1471 -0.0000
vn -0.9786 -0.2058 -0.0000
vn 0.9716 -0.2366 -0.0000
vn 0.2261 0.9741 -0.0000
vn -0.1021 -0.9948 -0.0000
vn -0.9977 0.0682 -0.0000
vn -0.1797 0.9837 -0.0000
vn 0.9979 -0.0647 -0.0000
vn 0.1171 -0.9931 -0.0000
vn -0.9976 0.0688 -0.0000
vn 0.9971 -0.0764 -0.0000
vn 0.1642 0.9864 -0.0000
vn 0.6337 0.7736 -0.0000
vn -0.9758 0.2186 -0.0000
vn 0.9737 0.2279 -0.0000
vn 0.7063 -0.7080 -0.0000
vn -0.1726 -0.9850 -0.0000
vn -0.9878 -0.1556 -0.0000
vn -0.0996 0.9950 -0.0000
vn 0.9797 -0.2006 -0.0000
vn 0.2042 -0.9789 -0.0000
vn -0.8198 0.5726 -0.0000
vn -0.1148 0.9934 -0.0000
vn 0.7820 0.6232 -0.0000
vn 0.1000 0.9950 -0.0000
vn -0.2431 -0.9700 -0.0000
vn -0.8816 -0.4720 -0.0000
vn -0.0307 0.9995 -0.0000
vn 0.6457 0.7636 -0.0000
vn -0.9258 0.3779 -0.0000
vn 0.1256 0.9921 -0.0000
vt 0.519685 0.000000
vt 0.511811 0.000000
vt 0.503937 0.000000
vt 0.496063 0.000000
vt 0.527559 0.000000
vt 0.488189 0.000000
vt 0.535433 0.000000
vt 0.480315 0.000000
vt 0.472441 0.000000
vt 0.543307 0.000000
vt 0.464567 0.000000
vt 0.551181 0.000000
vt 0.456693 0.000000
vt 0.448819 0.000000
vt 0.559055 0.000000
vt 0.440945 0.000000
vt 0.566929 0.000000
vt 0.433071 0.000000
vt 0.425197 0.000000
vt 0.574803 0.000000
vt 0.299213 0.000000
vt 0.417323 0.000000
vt 0.291339 0.000000
vt 0.307087 0.000000
vt 0.582677 0.000000
vt 0.314961 0.000000
vt 0.283465 0.000000
vt 0.409449 0.000000
vt 0.322835 0.000000
vt 0.275591 0.000000
vt 0.330709 0.000000
vt 0.267717 0.000000
vt 0.338583 0.000000
vt 0.259843 0.000000
vt 0.401575 0.000000
vt 0.346457 0.000000
vt 0.590551 0.000000
vt 0.251969 0.000000
vt 0.354331 0.000000
vt 0.362205 0.000000
vt 0.370079 0.000000
vt 0.377953 0.000000
vt 0.385827 0.000000
vt 0.393701 0.000000
vt 0.244094 0.000000
vt 0.236220 0.000000
vt 0.598425 0.000000
vt 0.228346 0.000000
vt 0.220472 0.000000
vt 0.606299 0.000000
vt 0.212598 0.000000
vt 0.614173 0.000000
vt 0.204724 0.000000
vt 0.196850 0.000000
vt 0.622047 0.000000
vt 0.188976 0.000000
vt 0.629921 0.000000
vt 0.181102 0.000000
vt 0.173228 0.000000
vt 0.637795 0.000000
vt 0.165354 0.000000
vt 0.157480 0.000000
vt 0.645669 0.000000
vt 0.149606 0.000000
vt 0.653543 0.000000
vt 0.141732 0.000000
vt 0.661417 0.000000
vt 0.133858 0.000000
vt 0.669291 0.000000
vt 0.125984 0.000000
vt 0.677165 0.000000
vt 0.685039 0.000000
vt 0.118110 0.000000
vt 0.692913 0.000000
vt 0.700787 0.000000
vt 0.110236 0.000000
vt 0.708661 0.000000
vt 0.102362 0.000000
vt 0.716535 0.000000
vt 0.724409 0.000000
vt 0.094488 0.000000
vt 0.905512 0.000000
vt 0.897638 0.000000
vt 0.889764 0.000000
vt 0.732283 0.000000
vt 0.881890 0.000000
vt 0.086614 0.000000
vt 0.740157 0.000000
vt 0.874016 0.000000
vt 0.748031 0.000000
vt 0.866142 0.000000
vt 0.078740 0.000000
vt 0.858268 0.000000
vt 0.755906 0.000000
vt 0.850394 0.000000
vt 0.763780 0.000000
vt 0.913386 0.000000
vt 0.842520 0.000000
vt 0.070866 0.000000
vt 0.771654 0.000000
vt 0.834646 0.000000
vt 0.779528 0.000000
vt 0.921260 0.000000
vt 0.826772 0.000000
vt 0.787402 0.000000
vt 0.818898 0.000000
vt 0.062992 0.000000
vt 0.795276 0.000000
vt 0.811024 0.000000
vt 0.803150 0.000000
vt 0.929134 0.000000
vt 0.937008 0.000000
vt 0.055118 0.000000
vt 0.944882 0.000000
vt 0.047244 0.000000
vt 0.952756 0.000000
vt 0.039370 0.000000
vt 0.960630 0.000000
vt 0.968504 0.000000
vt 0.031496 0.000000
vt 0.976378 0.000000
vt 0.023622 0.000000
vt 0.984252 0.000000
vt 0.992126 0.000000
vt 0.015748 0.000000
vt 1.000000 0.000000
vt 0.007874 0.000000
vt 0.000000 0.000000
vt 1.000000 0.750000
vt 1.000000 1.000000
vt 0.968750 1.000000
vt 0.968750 0.750000
vt 0.937500 1.000000
vt 0.937500 0.750000
vt 0.906250 1.000000
vt 0.906250 0.750000
vt 0.875000 1.000000
vt 0.875000 0.750000
vt 0.843750 1.000000
vt 0.843750 0.750000
vt 0.812500 1.000000
vt 0.812500 0.750000
vt 0.781250 1.000000
vt 0.781250 0.750000
vt 0.750000 1.000000
vt 0.750000 0.750000
vt 0.718750 1.000000
vt 0.718750 0.750000
vt 0.687500 1.000000
vt 0.687500 0.750000
vt 0.656250 1.000000
vt 0.656250 0.750000
vt 0.625000 1.000000
vt 0.625000 0.750000
vt 0.593750 1.000000
vt 0.593750 0.750000
vt 0.562500 1.000000
vt 0.562500 0.750000
vt 0.531250 1.000000
vt 0.531250 0.750000
vt 0.500000 1.000000
vt 0.500000 0.750000
vt 0.468750 1.000000
vt 0.468750 0.750000
vt 0.437500 1.000000
vt 0.437500 0.750000
vt 0.406250 1.000000
vt 0.406250 0.750000
vt 0.375000 1.000000
vt 0.375000 0.750000
vt 0.343750 1.000000
vt 0.343750 0.750000
vt 0.312500 1.000000
vt 0.312500 0.750000
vt 0.281250 1.000000
vt 0.281250 0.750000
vt 0.250000 1.000000
vt 0.250000 0.750000
vt 0.218750 1.000000
vt 0.218750 0.750000
vt 0.187500 1.000000
vt 0.187500 0.750000
vt 0.156250 1.000000
vt 0.156250 0.750000
vt 0.125000 1.000000
vt 0.125000 0.750000
vt 0.093750 1.000000
vt 0.093750 0.750000
vt 0.062500 1.000000
vt 0.062500 0.750000
vt 0.471731 0.158156
vt 0.485388 0.203178
vt 0.490000 0.250000
vt 0.485388 0.296822
vt 0.471731 0.341844
vt 0.449553 0.383337
vt 0.419706 0.419706
vt 0.383337 0.449553
vt 0.341844 0.471731
vt 0.334230 0.453349
vt 0.372283 0.433010
vt 0.405637 0.405637
vt 0.433010 0.372283
vt 0.453349 0.334230
vt 0.465874 0.292940
vt 0.470104 0.250000
vt 0.465875 0.207060
vt 0.453349 0.165770
vt 0.296822 0.485388
vt 0.250000 0.490000
vt 0.203178 0.485388
vt 0.158156 0.471731
vt 0.116663 0.449553
vt 0.080294 0.419706
vt 0.050447 0.383337
vt 0.028269 0.341844
vt 0.014612 0.296822
vt 0.010000 0.250000
vt 0.014612 0.203178
vt 0.028269 0.158156
vt 0.050447 0.116663
vt 0.080294 0.080294
vt 0.116663 0.050447
vt 0.158156 0.028269
vt 0.203178 0.014612
vt 0.250000 0.010000
vt 0.296822 0.014612
vt 0.341844 0.028269
vt 0.383337 0.050447
vt 0.419706 0.080294
vt 0.449553 0.116663
vt 0.433010 0.127717
vt 0.405637 0.094363
vt 0.372283 0.066990
vt 0.334230 0.046651
vt 0.292940 0.034126
vt 0.250000 0.029896
vt 0.207060 0.034126
vt 0.165770 0.046651
vt 0.127717 0.066990
vt 0.094363 0.094363
vt 0.066990 0.127717
vt 0.046651 0.165770
vt 0.034126 0.207060
vt 0.029896 0.250000
vt 0.034126 0.292940
vt 0.046651 0.334230
vt 0.066990 0.372283
vt 0.094363 0.405637
vt 0.127717 0.433010
vt 0.165770 0.453349
vt 0.207060 0.465874
vt 0.250000 0.470104
vt 0.292940 0.465874
vt 0.031250 1.000000
vt 0.031250 0.750000
vt 0.000000 1.000000
vt 0.000000 0.750000
vt 1.000000 0.562017
vt 1.000000 0.500000
vt 0.968750 0.500000
vt 0.968750 0.562017
vt 0.937500 0.500000
vt 0.937500 0.562017
vt 0.906250 0.500000
vt 0.906250 0.562017
vt 0.875000 0.500000
vt 0.875000 0.562017
vt 0.843750 0.500000
vt 0.843750 0.562017
vt 0.812500 0.500000
vt 0.812500 0.562017
vt 0.781250 0.500000
vt 0.781250 0.562017
vt 0.750000 0.500000
vt 0.750000 0.562017
vt 0.718750 0.500000
vt 0.718750 0.562017
vt 0.687500 0.500000
vt 0.687500 0.562017
vt 0.656250 0.500000
vt 0.656250 0.562017
vt 0.625000 0.500000
vt 0.625000 0.562017
vt 0.593750 0.500000
vt 0.593750 0.562017
vt 0.562500 0.500000
vt 0.562500 0.562017
vt 0.531250 0.500000
vt 0.531250 0.562017
vt 0.500000 0.500000
vt 0.500000 0.562017
vt 0.468750 0.500000
vt 0.468750 0.562017
vt 0.437500 0.500000
vt 0.437500 0.562017
vt 0.406250 0.500000
vt 0.406250 0.562017
vt 0.375000 0.500000
vt 0.375000 0.562017
vt 0.343750 0.500000
vt 0.343750 0.562017
vt 0.312500 0.500000
vt 0.312500 0.562017
vt 0.281250 0.500000
vt 0.281250 0.562017
vt 0.250000 0.500000
vt 0.250000 0.562017
vt 0.218750 0.500000
vt 0.218750 0.562017
vt 0.187500 0.500000
vt 0.187500 0.562017
vt 0.156250 0.500000
vt 0.156250 0.562017
vt 0.125000 0.500000
vt 0.125000 0.562017
vt 0.093750 0.500000
vt 0.093750 0.562017
vt 0.062500 0.500000
vt 0.062500 0.562017
vt 0.031250 0.500000
vt 0.031250 0.562017
vt 0.000000 0.500000
vt 0.000000 0.562017
vt 0.580294 0.419706
vt 0.550447 0.383337
vt 0.528269 0.341844
vt 0.514612 0.296822
vt 0.510000 0.250000
vt 0.514612 0.203178
vt 0.528269 0.158156
vt 0.550447 0.116663
vt 0.580294 0.080294
vt 0.616663 0.050447
vt 0.658156 0.028269
vt 0.703178 0.014612
vt 0.750000 0.010000
vt 0.796822 0.014612
vt 0.841844 0.028269
vt 0.883337 0.050447
vt 0.919706 0.080294
vt 0.949553 0.116663
vt 0.971731 0.158156
vt 0.985388 0.203178
vt 0.990000 0.250000
vt 0.985388 0.296822
vt 0.971731 0.341844
vt 0.949553 0.383337
vt 0.919706 0.419706
vt 0.883337 0.449553
vt 0.841844 0.471731
vt 0.796822 0.485388
vt 0.750000 0.490000
vt 0.703178 0.485388
vt 0.658156 0.471731
vt 0.616663 0.449553
s 0
usemtl マテリアル
f 67/1/1 66/2/1 65/3/1
f 67/1/1 65/3/1 64/4/1
f 68/5/1 67/1/1 64/4/1
f 68/5/1 64/4/1 63/6/1
f 69/7/1 68/5/1 63/6/1
f 69/7/1 63/6/1 62/8/1
f 69/7/1 62/8/1 61/9/1
f 70/10/1 69/7/1 61/9/1
f 70/10/1 61/9/1 60/11/1
f 71/12/1 70/10/1 60/11/1
f 71/12/1 60/11/1 59/13/1
f 71/12/1 59/13/1 58/14/1
f 72/15/1 71/12/1 58/14/1
f 72/15/1 58/14/1 57/16/1
f 73/17/1 72/15/1 57/16/1
f 73/17/1 57/16/1 56/18/1
f 73/17/1 56/18/1 55/19/1
f 74/20/1 73/17/1 55/19/1
f 74/20/1 55/19/1 39/21/1
f 39/21/1 55/19/1 54/22/1
f 74/20/1 39/21/1 38/23/1
f 40/24/1 39/21/1 54/22/1
f 75/25/1 74/20/1 38/23/1
f 41/26/1 40/24/1 54/22/1
f 75/25/1 38/23/1 37/27/1
f 41/26/1 54/22/1 53/28/1
f 42/29/1 41/26/1 53/28/1
f 75/25/1 37/27/1 36/30/1
f 43/31/1 42/29/1 53/28/1
f 75/25/1 36/30/1 35/32/1
f 44/33/1 43/31/1 53/28/1
f 75/25/1 35/32/1 34/34/1
f 44/33/1 53/28/1 52/35/1
f 45/36/1 44/33/1 52/35/1
f 76/37/1 75/25/1 34/34/1
f 76/37/1 34/34/1 33/38/1
f 46/39/1 45/36/1 52/35/1
f 46/39/1 52/35/1 47/40/1
f 47/40/1 52/35/1 48/41/1
f 48/41/1 52/35/1 49/42/1
f 49/42/1 52/35/1 50/43/1
f 50/43/1 52/35/1 51/44/1
f 76/37/1 33/38/1 32/45/1
f 76/37/1 32/45/1 31/46/1
f 77/47/1 76/37/1 31/46/1
f 77/47/1 31/46/1 30/48/1
f 77/47/1 30/48/1 29/49/1
f 78/50/1 77/47/1 29/49/1
f 78/50/1 29/49/1 28/51/1
f 79/52/1 78/50/1 28/51/1
f 79/52/1 28/51/1 27/53/1
f 79/52/1 27/53/1 26/54/1
f 80/55/1 79/52/1 26/54/1
f 80/55/1 26/54/1 25/56/1
f 81/57/1 80/55/1 25/56/1
f 81/57/1 25/56/1 24/58/1
f 81/57/1 24/58/1 23/59/1
f 82/60/1 81/57/1 23/59/1
f 82/60/1 23/59/1 22/61/1
f 82/60/1 22/61/1 21/62/1
f 83/63/1 82/60/1 21/62/1
f 83/63/1 21/62/1 20/64/1
f 84/65/1 83/63/1 20/64/1
f 84/65/1 20/64/1 19/66/1
f 85/67/1 84/65/1 19/66/1
f 85/67/1 19/66/1 18/68/1
f 86/69/1 85/67/1 18/68/1
f 86/69/1 18/68/1 17/70/1
f 87/71/1 86/69/1 17/70/1
f 88/72/1 87/71/1 17/70/1
f 88/72/1 17/70/1 16/73/1
f 89/74/1 88/72/1 16/73/1
f 90/75/1 89/74/1 16/73/1
f 90/75/1 16/73/1 15/76/1
f 91/77/1 90/75/1 15/76/1
f 91/77/1 15/76/1 14/78/1
f 92/79/1 91/77/1 14/78/1
f 93/80/1 92/79/1 14/78/1
f 93/80/1 14/78/1 13/81/1
f 116/82/1 115/83/1 114/84/1
f 94/85/1 93/80/1 13/81/1
f 116/82/1 114/84/1 113/86/1
f 94/85/1 13/81/1 12/87/1
f 95/88/1 94/85/1 12/87/1
f 116/82/1 113/86/1 112/89/1
f 96/90/1 95/88/1 12/87/1
f 116/82/1 112/89/1 111/91/1
f 96/90/1 12/87/1 11/92/1
f 116/82/1 111/91/1 110/93/1
f 97/94/1 96/90/1 11/92/1
f 116/82/1 110/93/1 109/95/1
f 98/96/1 97/94/1 11/92/1
f 117/97/1 116/82/1 109/95/1
f 117/97/1 109/95/1 108/98/1
f 98/96/1 11/92/1 10/99/1
f 99/100/1 98/96/1 10/99/1
f 117/97/1 108/98/1 107/101/1
f 100/102/1 99/100/1 10/99/1
f 118/103/1 117/97/1 107/101/1
f 118/103/1 107/101/1 106/104/1
f 101/105/1 100/102/1 10/99/1
f 118/103/1 106/104/1 105/106/1
f 101/105/1 10/99/1 9/107/1
f 102/108/1 101/105/1 9/107/1
f 118/103/1 105/106/1 104/109/1
f 103/110/1 102/108/1 9/107/1
f 118/103/1 104/109/1 103/110/1
f 118/103/1 103/110/1 9/107/1
f 119/111/1 118/103/1 9/107/1
f 120/112/1 119/111/1 9/107/1
f 120/112/1 9/107/1 8/113/1
f 121/114/1 120/112/1 8/113/1
f 121/114/1 8/113/1 7/115/1
f 122/116/1 121/114/1 7/115/1
f 122/116/1 7/115/1 6/117/1
f 123/118/1 122/116/1 6/117/1
f 124/119/1 123/118/1 6/117/1
f 124/119/1 6/117/1 5/120/1
f 125/121/1 124/119/1 5/120/1
f 125/121/1 5/120/1 4/122/1
f 126/123/1 125/121/1 4/122/1
f 127/124/1 126/123/1 4/122/1
f 127/124/1 4/122/1 3/125/1
f 128/126/1 127/124/1 3/125/1
f 128/126/1 3/125/1 2/127/1
f 1/128/1 128/126/1 2/127/1
f 195/1/2 193/3/2 194/2/2
f 195/1/2 192/4/2 193/3/2
f 196/5/2 192/4/2 195/1/2
f 196/5/2 191/6/2 192/4/2
f 197/7/2 191/6/2 196/5/2
f 197/7/2 190/8/2 191/6/2
f 197/7/2 189/9/2 190/8/2
f 198/10/2 189/9/2 197/7/2
f 198/10/2 188/11/2 189/9/2
f 199/12/2 188/11/2 198/10/2
f 199/12/2 187/13/2 188/11/2
f 199/12/2 186/14/2 187/13/2
f 200/15/2 186/14/2 199/12/2
f 200/15/2 185/16/2 186/14/2
f 201/17/2 185/16/2 200/15/2
f 201/17/2 184/18/2 185/16/2
f 201/17/2 183/19/2 184/18/2
f 202/20/2 183/19/2 201/17/2
f 202/20/2 167/21/2 183/19/2
f 167/21/2 182/22/2 183/19/2
f 202/20/2 166/23/2 167/21/2
f 168/24/2 182/22/2 167/21/2
f 203/25/2 166/23/2 202/20/2
f 169/26/2 182/22/2 168/24/2
f 203/25/2 165/27/2 166/23/2
f 169/26/2 181/28/2 182/22/2
f 170/29/2 181/28/2 169/26/2
f 203/25/2 164/30/2 165/27/2
f 171/31/2 181/28/2 170/29/2
f 203/25/2 163/32/2 164/30/2
f 172/33/2 181/28/2 171/31/2
f 203/25/2 162/34/2 163/32/2
f 172/33/2 180/35/2 181/28/2
f 173/36/2 180/35/2 172/33/2
f 204/37/2 162/34/2 203/25/2
f 204/37/2 161/38/2 162/34/2
f 174/39/2 180/35/2 173/36/2
f 174/39/2 175/40/2 180/35/2
f 175/40/2 176/41/2 180/35/2
f 176/41/2 177/42/2 180/35/2
f 177/42/2 178/43/2 180/35/2
f 178/43/2 179/44/2 180/35/2
f 204/37/2 160/45/2 161/38/2
f 204/37/2 159/46/2 160/45/2
f 205/47/2 159/46/2 204/37/2
f 205/47/2 158/48/2 159/46/2
f 205/47/2 157/49/2 158/48/2
f 206/50/2 157/49/2 205/47/2
f 206/50/2 156/51/2 157/49/2
f 207/52/2 156/51/2 206/50/2
f 207/52/2 155/53/2 156/51/2
f 207/52/2 154/54/2 155/53/2
f 208/55/2 154/54/2 207/52/2
f 208/55/2 153/56/2 154/54/2
f 209/57/2 153/56/2 208/55/2
f 209/57/2 152/58/2 153/56/2
f 209/57/2 151/59/2 152/58/2
f 210/60/2 151/59/2 209/57/2
f 210/60/2 150/61/2 151/59/2
f 210/60/2 149/62/2 150/61/2
f 211/63/2 149/62/2 210/60/2
f 211/63/2 148/64/2 149/62/2
f 212/65/2 148/64/2 211/63/2
f 212/65/2 147/66/2 148/64/2
f 213/67/2 147/66/2 212/65/2
f 213/67/2 146/68/2 147/66/2
f 214/69/2 146/68/2 213/67/2
f 214/69/2 145/70/2 146/68/2
f 215/71/2 145/70/2 214/69/2
f 216/72/2 145/70/2 215/71/2
f 216/72/2 144/73/2 145/70/2
f 217/74/2 144/73/2 216/72/2
f 218/75/2 144/73/2 217/74/2
f 218/75/2 143/76/2 144/73/2
f 219/77/2 143/76/2 218/75/2
f 219/77/2 142/78/2 143/76/2
f 220/79/2 142/78/2 219/77/2
f 221/80/2 142/78/2 220/79/2
f 221/80/2 141/81/2 142/78/2
f 244/82/2 242/84/2 243/83/2
f 222/85/2 141/81/2 221/80/2
f 244/82/2 241/86/2 242/84/2
f 222/85/2 140/87/2 141/81/2
f 223/88/2 140/87/2 222/85/2
f 244/82/2 240/89/2 241/86/2
f 224/90/2 140/87/2 223/88/2
f 244/82/2 239/91/2 240/89/2
f 224/90/2 139/92/2 140/87/2
f 244/82/2 238/93/2 239/91/2
f 225/94/2 139/92/2 224/90/2
f 244/82/2 237/95/2 238/93/2
f 226/96/2 139/92/2 225/94/2
f 245/97/2 237/95/2 244/82/2
f 245/97/2 236/98/2 237/95/2
f 226/96/2 138/99/2 139/92/2
f 227/100/2 138/99/2 226/96/2
f 245/97/2 235/101/2 236/98/2
f 228/102/2 138/99/2 227/100/2
f 246/103/2 235/101/2 245/97/2
f 246/103/2 234/104/2 235/101/2
f 229/105/2 138/99/2 228/102/2
f 246/103/2 233/106/2 234/104/2
f 229/105/2 137/107/2 138/99/2
f 230/108/2 137/107/2 229/105/2
f 246/103/2 232/109/2 233/106/2
f 231/110/2 137/107/2 230/108/2
f 246/103/2 231/110/2 232/109/2
f 246/103/2 137/107/2 231/110/2
f 247/111/2 137/107/2 246/103/2
f 248/112/2 137/107/2 247/111/2
f 248/112/2 136/113/2 137/107/2
f 249/114/2 136/113/2 248/112/2
f 249/114/2 135/115/2 136/113/2
f 250/116/2 135/115/2 249/114/2
f 250/116/2 134/117/2 135/115/2
f 251/118/2 134/117/2 250/116/2
f 252/119/2 134/117/2 251/118/2
f 252/119/2 133/120/2 134/117/2
f 253/121/2 133/120/2 252/119/2
f 253/121/2 132/122/2 133/120/2
f 254/123/2 132/122/2 253/121/2
f 255/124/2 132/122/2 254/123/2
f 255/124/2 131/125/2 132/122/2
f 256/126/2 131/125/2 255/124/2
f 256/126/2 130/127/2 131/125/2
f 129/128/2 130/127/2 256/126/2
f 31/46/3 32/45/3 160/45/3 159/46/3
f 10/99/4 11/92/4 139/92/4 138/99/4
f 126/123/5 127/124/5 255/124/5 254/123/5
f 76/37/6 77/47/6 205/47/6 204/37/6
f 98/96/7 99/100/7 227/100/7 226/96/7
f 16/73/8 17/70/8 145/70/8 144/73/8
f 54/22/9 55/19/9 183/19/9 182/22/9
f 88/72/10 89/74/10 217/74/10 216/72/10
f 3/125/11 4/122/11 132/122/11 131/125/11
f 30/48/12 31/46/12 159/46/12 158/48/12
f 107/101/13 108/98/13 236/98/13 235/101/13
f 127/124/14 128/126/14 256/126/14 255/124/14
f 99/100/15 100/102/15 228/102/15 227/100/15
f 38/23/16 39/21/16 167/21/16 166/23/16
f 89/74/17 90/75/17 218/75/17 217/74/17
f 29/49/18 30/48/18 158/48/18 157/49/18
f 39/21/19 40/24/19 168/24/19 167/21/19
f 77/47/20 78/50/20 206/50/20 205/47/20
f 117/97/21 118/103/21 246/103/21 245/97/21
f 2/127/22 3/125/22 131/125/22 130/127/22
f 74/20/23 75/25/23 203/25/23 202/20/23
f 15/76/24 16/73/24 144/73/24 143/76/24
f 128/126/25 1/128/25 129/128/25 256/126/25
f 90/75/26 91/77/26 219/77/26 218/75/26
f 1/128/27 2/127/27 130/127/27 129/128/27
f 28/51/28 29/49/28 157/49/28 156/51/28
f 106/104/29 107/101/29 235/101/29 234/104/29
f 40/24/30 41/26/30 169/26/30 168/24/30
f 78/50/31 79/52/31 207/52/31 206/50/31
f 100/102/32 101/105/32 229/105/32 228/102/32
f 14/78/33 15/76/33 143/76/33 142/78/33
f 37/27/34 38/23/34 166/23/34 165/27/34
f 91/77/35 92/79/35 220/79/35 219/77/35
f 27/53/36 28/51/36 156/51/36 155/53/36
f 105/106/37 106/104/37 234/104/37 233/106/37
f 66/2/25 67/1/25 195/1/25 194/2/25
f 53/28/38 54/22/38 182/22/38 181/28/38
f 92/79/39 93/80/39 221/80/39 220/79/39
f 26/54/40 27/53/40 155/53/40 154/54/40
f 9/107/41 10/99/41 138/99/41 137/107/41
f 41/26/42 42/29/42 170/29/42 169/26/42
f 65/3/43 66/2/43 194/2/43 193/3/43
f 79/52/44 80/55/44 208/55/44 207/52/44
f 101/105/45 102/108/45 230/108/45 229/105/45
f 13/81/46 14/78/46 142/78/46 141/81/46
f 64/4/22 65/3/22 193/3/22 192/4/22
f 36/30/47 37/27/47 165/27/47 164/30/47
f 115/83/48 116/82/48 244/82/48 243/83/48
f 67/1/49 68/5/49 196/5/49 195/1/49
f 25/56/50 26/54/50 154/54/50 153/56/50
f 104/109/51 105/106/51 233/106/51 232/109/51
f 42/29/52 43/31/52 171/31/52 170/29/52
f 80/55/53 81/57/53 209/57/53 208/55/53
f 102/108/54 103/110/54 231/110/54 230/108/54
f 114/84/55 115/83/55 243/83/55 242/84/55
f 93/80/56 94/85/56 222/85/56 221/80/56
f 63/6/57 64/4/57 192/4/57 191/6/57
f 35/32/58 36/30/58 164/30/58 163/32/58
f 68/5/59 69/7/59 197/7/59 196/5/59
f 24/58/60 25/56/60 153/56/60 152/58/60
f 103/110/61 104/109/61 232/109/61 231/110/61
f 43/31/62 44/33/62 172/33/62 171/31/62
f 113/86/63 114/84/63 242/84/63 241/86/63
f 23/59/64 24/58/64 152/58/64 151/59/64
f 118/103/65 119/111/65 247/111/65 246/103/65
f 62/8/66 63/6/66 191/6/66 190/8/66
f 81/57/67 82/60/67 210/60/67 209/57/67
f 34/34/68 35/32/68 163/32/68 162/34/68
f 12/87/69 13/81/69 141/81/69 140/87/69
f 119/111/70 120/112/70 248/112/70 247/111/70
f 94/85/71 95/88/71 223/88/71 222/85/71
f 61/9/72 62/8/72 190/8/72 189/9/72
f 52/35/73 53/28/73 181/28/73 180/35/73
f 69/7/74 70/10/74 198/10/74 197/7/74
f 22/61/75 23/59/75 151/59/75 150/61/75
f 44/33/76 45/36/76 173/36/76 172/33/76
f 8/113/77 9/107/77 137/107/77 136/113/77
f 112/89/78 113/86/78 241/86/78 240/89/78
f 21/62/79 22/61/79 150/61/79 149/62/79
f 120/112/80 121/114/80 249/114/80 248/112/80
f 75/25/81 76/37/81 204/37/81 203/25/81
f 95/88/82 96/90/82 224/90/82 223/88/82
f 60/11/83 61/9/83 189/9/83 188/11/83
f 82/60/84 83/63/84 211/63/84 210/60/84
f 70/10/85 71/12/85 199/12/85 198/10/85
f 7/115/86 8/113/86 136/113/86 135/115/86
f 33/38/87 34/34/87 162/34/87 161/38/87
f 111/91/88 112/89/88 240/89/88 239/91/88
f 20/64/89 21/62/89 149/62/89 148/64/89
f 121/114/90 122/116/90 250/116/90 249/114/90
f 45/36/91 46/39/91 174/39/91 173/36/91
f 59/13/92 60/11/92 188/11/92 187/13/92
f 83/63/93 84/65/93 212/65/93 211/63/93
f 11/92/94 12/87/94 140/87/94 139/92/94
f 46/39/95 47/40/95 175/40/95 174/39/95
f 58/14/96 59/13/96 187/13/96 186/14/96
f 6/117/97 7/115/97 135/115/97 134/117/97
f 110/93/98 111/91/98 239/91/98 238/93/98
f 71/12/99 72/15/99 200/15/99 199/12/99
f 19/66/100 20/64/100 148/64/100 147/66/100
f 122/116/101 123/118/101 251/118/101 250/116/101
f 47/40/102 48/41/102 176/41/102 175/40/102
f 96/90/103 97/94/103 225/94/103 224/90/103
f 84/65/104 85/67/104 213/67/104 212/65/104
f 123/118/105 124/119/105 252/119/105 251/118/105
f 48/41/106 49/42/106 177/42/106 176/41/106
f 57/16/107 58/14/107 186/14/107 185/16/107
f 109/95/108 110/93/108 238/93/108 237/95/108
f 72/15/109 73/17/109 201/17/109 200/15/109
f 18/68/110 19/66/110 147/66/110 146/68/110
f 49/42/111 50/43/111 178/43/111 177/42/111
f 97/94/112 98/96/112 226/96/112 225/94/112
f 85/67/113 86/69/113 214/69/113 213/67/113
f 5/120/114 6/117/114 134/117/114 133/120/114
f 124/119/115 125/121/115 253/121/115 252/119/115
f 50/43/116 51/44/116 179/44/116 178/43/116
f 116/82/117 117/97/117 245/97/117 244/82/117
f 56/18/118 57/16/118 185/16/118 184/18/118
f 51/44/119 52/35/119 180/35/119 179/44/119
f 17/70/120 18/68/120 146/68/120 145/70/120
f 55/19/121 56/18/121 184/18/121 183/19/121
f 86/69/122 87/71/122 215/71/122 214/69/122
f 4/122/123 5/120/123 133/120/123 132/122/123
f 32/45/124 33/38/124 161/38/124 160/45/124
f 108/98/125 109/95/125 237/95/125 236/98/125
f 73/17/126 74/20/126 202/20/126 201/17/126
f 125/121/127 126/123/127 254/123/127 253/121/127
f 87/71/128 88/72/128 216/72/128 215/71/128
f 385/129/129 259/130/129 262/131/129 386/132/129
f 386/132/130 262/131/130 265/133/130 387/134/130
f 387/134/131 265/133/131 268/135/131 388/136/131
f 388/136/132 268/135/132 271/137/132 389/138/132
f 389/138/133 271/137/133 274/139/133 390/140/133
f 390/140/134 274/139/134 277/141/134 391/142/134
f 391/142/135 277/141/135 280/143/135 392/144/135
f 392/144/136 280/143/136 283/145/136 393/146/136
f 393/146/137 283/145/137 286/147/137 394/148/137
f 394/148/138 286/147/138 289/149/138 395/150/138
f 395/150/139 289/149/139 292/151/139 396/152/139
f 396/152/140 292/151/140 295/153/140 397/154/140
f 397/154/141 295/153/141 298/155/141 398/156/141
f 398/156/142 298/155/142 301/157/142 399/158/142
f 399/158/143 301/157/143 304/159/143 400/160/143
f 400/160/144 304/159/144 307/161/144 401/162/144
f 401/162/145 307/161/145 310/163/145 402/164/145
f 402/164/146 310/163/146 313/165/146 403/166/146
f 403/166/147 313/165/147 316/167/147 404/168/147
f 404/168/148 316/167/148 319/169/148 405/170/148
f 405/170/149 319/169/149 322/171/149 406/172/149
f 406/172/150 322/171/150 325/173/150 407/174/150
f 407/174/151 325/173/151 328/175/151 408/176/151
f 408/176/152 328/175/152 331/177/152 409/178/152
f 409/178/153 331/177/153 334/179/153 410/180/153
f 410/180/154 334/179/154 337/181/154 411/182/154
f 411/182/155 337/181/155 340/183/155 412/184/155
f 412/184/156 340/183/156 343/185/156 413/186/156
f 413/186/157 343/185/157 346/187/157 414/188/157
f 414/188/158 346/187/158 349/189/158 415/190/158
f 289/191/2 286/192/2 283/193/2 280/194/2 277/195/2 274/196/2 271/197/2 268/198/2 265/199/2 383/200/2 374/201/2 376/202/2 375/203/2 380/204/2 379/205/2 377/206/2 378/207/2 384/208/2
f 383/200/2 265/199/2 262/209/2 259/210/2 352/211/2 349/212/2 346/213/2 343/214/2 340/215/2 337/216/2 334/217/2 331/218/2 328/219/2 325/220/2 322/221/2 319/222/2 316/223/2 313/224/2 310/225/2 307/226/2 304/227/2 301/228/2 298/229/2 295/230/2 292/231/2 289/191/2 384/208/2 372/232/2 373/233/2 370/234/2 371/235/2 368/236/2 369/237/2 367/238/2 382/239/2 365/240/2 366/241/2 363/242/2 364/243/2 361/244/2 360/245/2 362/246/2 381/247/2 353/248/2 355/249/2 354/250/2 359/251/2 356/252/2 358/253/2 357/254/2
f 415/190/159 349/189/159 352/255/159 416/256/159
f 416/256/160 352/255/160 259/257/160 385/258/160
f 415/190/159 416/256/159 448/255/159 446/189/159
f 358/259/145 258/260/145 261/261/145 357/262/145
f 357/262/146 261/261/146 264/263/146 383/264/146
f 383/264/147 264/263/147 267/265/147 374/266/147
f 374/266/148 267/265/148 270/267/148 376/268/148
f 270/267/149 273/269/149 375/270/149 376/268/149
f 273/269/150 276/271/150 380/272/150 375/270/150
f 276/271/151 279/273/151 379/274/151 380/272/151
f 279/273/152 282/275/152 377/276/152 379/274/152
f 282/275/153 285/277/153 378/278/153 377/276/153
f 285/277/154 287/279/154 384/280/154 378/278/154
f 287/279/155 291/281/155 372/282/155 384/280/155
f 291/281/156 294/283/156 373/284/156 372/282/156
f 294/283/157 297/285/157 370/286/157 373/284/157
f 297/285/158 300/287/158 371/288/158 370/286/158
f 300/287/159 302/289/159 368/290/159 371/288/159
f 302/289/160 306/291/160 369/292/160 368/290/160
f 306/291/129 309/293/129 367/294/129 369/292/129
f 309/293/130 312/295/130 382/296/130 367/294/130
f 312/295/131 315/297/131 365/298/131 382/296/131
f 315/297/132 318/299/132 366/300/132 365/298/132
f 366/300/133 318/299/133 321/301/133 363/302/133
f 363/302/134 321/301/134 324/303/134 364/304/134
f 364/304/135 324/303/135 327/305/135 361/306/135
f 361/306/136 327/305/136 330/307/136 360/308/136
f 360/308/137 330/307/137 333/309/137 362/310/137
f 362/310/138 333/309/138 336/311/138 381/312/138
f 381/312/139 336/311/139 339/313/139 353/314/139
f 353/314/140 339/313/140 342/315/140 355/316/140
f 355/316/141 342/315/141 345/317/141 354/318/141
f 354/318/142 345/317/142 348/319/142 359/320/142
f 359/320/143 348/319/143 351/321/143 356/322/143
f 356/322/144 351/321/144 258/323/144 358/324/144
f 342/325/2 339/326/2 336/327/2 333/328/2 330/329/2 327/330/2 324/331/2 321/332/2 318/333/2 315/334/2 312/335/2 309/336/2 306/337/2 302/338/2 300/339/2 297/340/2 294/341/2 291/342/2 287/343/2 285/344/2 282/345/2 279/346/2 276/347/2 273/348/2 270/349/2 267/350/2 264/351/2 261/352/2 258/353/2 351/354/2 348/355/2 345/356/2
f 479/200/1 453/254/1 454/253/1 452/252/1 455/251/1 450/250/1 451/249/1 449/248/1 477/247/1 458/246/1 456/245/1 457/244/1 460/243/1 459/242/1 462/241/1 461/240/1 478/239/1 463/238/1 465/237/1 464/236/1 467/235/1 466/234/1 469/233/1 468/232/1 480/208/1 320/191/1 326/231/1 332/230/1 338/229/1 344/228/1 350/227/1 418/226/1 420/225/1 422/224/1 424/223/1 426/222/1 428/221/1 430/220/1 432/219/1 434/218/1 436/217/1 438/216/1 440/215/1 442/214/1 444/213/1 446/212/1 448/211/1 260/210/1 266/209/1 272/199/1
f 414/188/158 415/190/158 446/189/158 444/187/158
f 413/186/157 414/188/157 444/187/157 442/185/157
f 412/184/156 413/186/156 442/185/156 440/183/156
f 411/182/155 412/184/155 440/183/155 438/181/155
f 410/180/154 411/182/154 438/181/154 436/179/154
f 409/178/153 410/180/153 436/179/153 434/177/153
f 408/176/152 409/178/152 434/177/152 432/175/152
f 407/174/151 408/176/151 432/175/151 430/173/151
f 406/172/150 407/174/150 430/173/150 428/171/150
f 405/170/149 406/172/149 428/171/149 426/169/149
f 404/168/148 405/170/148 426/169/148 424/167/148
f 403/166/147 404/168/147 424/167/147 422/165/147
f 402/164/146 403/166/146 422/165/146 420/163/146
f 401/162/145 402/164/145 420/163/145 418/161/145
f 400/160/144 401/162/144 418/161/144 350/159/144
f 399/158/143 400/160/143 350/159/143 344/157/143
f 398/156/142 399/158/142 344/157/142 338/155/142
f 397/154/141 398/156/141 338/155/141 332/153/141
f 396/152/140 397/154/140 332/153/140 326/151/140
f 395/150/139 396/152/139 326/151/139 320/149/139
f 394/148/138 395/150/138 320/149/138 314/147/138
f 393/146/137 394/148/137 314/147/137 308/145/137
f 392/144/136 393/146/136 308/145/136 303/143/136
f 391/142/135 392/144/135 303/143/135 296/141/135
f 390/140/134 391/142/134 296/141/134 290/139/134
f 389/138/133 390/140/133 290/139/133 284/137/133
f 388/136/132 389/138/132 284/137/132 278/135/132
f 387/134/131 388/136/131 278/135/131 272/133/131
f 386/132/130 387/134/130 272/133/130 266/131/130
f 385/129/129 386/132/129 266/131/129 260/130/129
f 320/191/1 480/208/1 474/207/1 473/206/1 475/205/1 476/204/1 471/203/1 472/202/1 470/201/1 479/200/1 272/199/1 278/198/1 284/197/1 290/196/1 296/195/1 303/194/1 308/193/1 314/192/1
f 416/256/160 385/258/160 260/257/160 448/255/160
f 454/259/145 453/262/145 263/261/145 257/260/145
f 453/262/146 479/264/146 269/263/146 263/261/146
f 479/264/147 470/266/147 275/265/147 269/263/147
f 470/266/148 472/268/148 281/267/148 275/265/148
f 281/267/149 472/268/149 471/270/149 288/269/149
f 288/269/150 471/270/150 476/272/150 293/271/150
f 293/271/151 476/272/151 475/274/151 299/273/151
f 299/273/152 475/274/152 473/276/152 305/275/152
f 305/275/153 473/276/153 474/278/153 311/277/153
f 311/277/154 474/278/154 480/280/154 317/279/154
f 317/279/155 480/280/155 468/282/155 323/281/155
f 323/281/156 468/282/156 469/284/156 329/283/156
f 329/283/157 469/284/157 466/286/157 335/285/157
f 335/285/158 466/286/158 467/288/158 341/287/158
f 341/287/159 467/288/159 464/290/159 347/289/159
f 347/289/160 464/290/160 465/292/160 417/291/160
f 417/291/129 465/292/129 463/294/129 419/293/129
f 419/293/130 463/294/130 478/296/130 421/295/130
f 421/295/131 478/296/131 461/298/131 423/297/131
f 423/297/132 461/298/132 462/300/132 425/299/132
f 462/300/133 459/302/133 427/301/133 425/299/133
f 459/302/134 460/304/134 429/303/134 427/301/134
f 460/304/135 457/306/135 431/305/135 429/303/135
f 457/306/136 456/308/136 433/307/136 431/305/136
f 456/308/137 458/310/137 435/309/137 433/307/137
f 458/310/138 477/312/138 437/311/138 435/309/138
f 477/312/139 449/314/139 439/313/139 437/311/139
f 449/314/140 451/316/140 441/315/140 439/313/140
f 451/316/141 450/318/141 443/317/141 441/315/141
f 450/318/142 455/320/142 445/319/142 443/317/142
f 455/320/143 452/322/143 447/321/143 445/319/143
f 452/322/144 454/324/144 257/323/144 447/321/144
f 441/325/1 443/356/1 445/355/1 447/354/1 257/353/1 263/352/1 269/351/1 275/350/1 281/349/1 288/348/1 293/347/1 299/346/1 305/345/1 311/344/1 317/343/1 323/342/1 329/341/1 335/340/1 341/339/1 347/338/1 417/337/1 419/336/1 421/335/1 423/334/1 425/333/1 427/332/1 429/331/1 431/330/1 433/329/1 435/328/1 437/327/1 439/326/1
f 547/1/1 546/2/1 545/3/1
f 547/1/1 545/3/1 544/4/1
f 548/5/1 547/1/1 544/4/1
f 548/5/1 544/4/1 543/6/1
f 549/7/1 548/5/1 543/6/1
f 549/7/1 543/6/1 542/8/1
f 549/7/1 542/8/1 541/9/1
f 550/10/1 549/7/1 541/9/1
f 550/10/1 541/9/1 540/11/1
f 551/12/1 550/10/1 540/11/1
f 551/12/1 540/11/1 539/13/1
f 551/12/1 539/13/1 538/14/1
f 552/15/1 551/12/1 538/14/1
f 552/15/1 538/14/1 537/16/1
f 553/17/1 552/15/1 537/16/1
f 553/17/1 537/16/1 536/18/1
f 553/17/1 536/18/1 535/19/1
f 554/20/1 553/17/1 535/19/1
f 554/20/1 535/19/1 519/21/1
f 519/21/1 535/19/1 534/22/1
f 554/20/1 519/21/1 518/23/1
f 520/24/1 519/21/1 534/22/1
f 555/25/1 554/20/1 518/23/1
f 521/26/1 520/24/1 534/22/1
f 555/25/1 518/23/1 517/27/1
f 521/26/1 534/22/1 533/28/1
f 522/29/1 521/26/1 533/28/1
f 555/25/1 517/27/1 516/30/1
f 523/31/1 522/29/1 533/28/1
f 555/25/1 516/30/1 515/32/1
f 524/33/1 523/31/1 533/28/1
f 555/25/1 515/32/1 514/34/1
f 524/33/1 533/28/1 532/35/1
f 525/36/1 524/33/1 532/35/1
f 556/37/1 555/25/1 514/34/1
f 556/37/1 514/34/1 513/38/1
f 526/39/1 525/36/1 532/35/1
f 526/39/1 532/35/1 527/40/1
f 527/40/1 532/35/1 528/41/1
f 528/41/1 532/35/1 529/42/1
f 529/42/1 532/35/1 530/43/1
f 530/43/1 532/35/1 531/44/1
f 556/37/1 513/38/1 512/45/1
f 556/37/1 512/45/1 511/46/1
f 557/47/1 556/37/1 511/46/1
f 557/47/1 511/46/1 510/48/1
f 557/47/1 510/48/1 509/49/1
f 558/50/1 557/47/1 509/49/1
f 558/50/1 509/49/1 508/51/1
f 559/52/1 558/50/1 508/51/1
f 559/52/1 508/51/1 507/53/1
f 559/52/1 507/53/1 506/54/1
f 560/55/1 559/52/1 506/54/1
f 560/55/1 506/54/1 505/56/1
f 561/57/1 560/55/1 505/56/1
f 561/57/1 505/56/1 504/58/1
f 561/57/1 504/58/1 503/59/1
f 562/60/1 561/57/1 503/59/1
f 562/60/1 503/59/1 502/61/1
f 562/60/1 502/61/1 501/62/1
f 563/63/1 562/60/1 501/62/1
f 563/63/1 501/62/1 500/64/1
f 564/65/1 563/63/1 500/64/1
f 564/65/1 500/64/1 499/66/1
f 565/67/1 564/65/1 499/66/1
f 565/67/1 499/66/1 498/68/1
f 566/69/1 565/67/1 498/68/1
f 566/69/1 498/68/1 497/70/1
f 567/71/1 566/69/1 497/70/1
f 568/72/1 567/71/1 497/70/1
f 568/72/1 497/70/1 496/73/1
f 569/74/1 568/72/1 496/73/1
f 570/75/1 569/74/1 496/73/1
f 570/75/1 496/73/1 495/76/1
f 571/77/1 570/75/1 495/76/1
f 571/77/1 495/76/1 494/78/1
f 572/79/1 571/77/1 494/78/1
f 573/80/1 572/79/1 494/78/1
f 573/80/1 494/78/1 493/81/1
f 596/82/1 595/83/1 594/84/1
f 574/85/1 573/80/1 493/81/1
f 596/82/1 594/84/1 593/86/1
f 574/85/1 493/81/1 492/87/1
f 575/88/1 574/85/1 492/87/1
f 596/82/1 593/86/1 592/89/1
f 576/90/1 575/88/1 492/87/1
f 596/82/1 592/89/1 591/91/1
f 576/90/1 492/87/1 491/92/1
f 596/82/1 591/91/1 590/93/1
f 577/94/1 576/90/1 491/92/1
f 596/82/1 590/93/1 589/95/1
f 578/96/1 577/94/1 491/92/1
f 597/97/1 596/82/1 589/95/1
f 597/97/1 589/95/1 588/98/1
f 578/96/1 491/92/1 490/99/1
f 579/100/1 578/96/1 490/99/1
f 597/97/1 588/98/1 587/101/1
f 580/102/1 579/100/1 490/99/1
f 598/103/1 597/97/1 587/101/1
f 598/103/1 587/101/1 586/104/1
f 581/105/1 580/102/1 490/99/1
f 598/103/1 586/104/1 585/106/1
f 581/105/1 490/99/1 489/107/1
f 582/108/1 581/105/1 489/107/1
f 598/103/1 585/106/1 584/109/1
f 583/110/1 582/108/1 489/107/1
f 598/103/1 584/109/1 583/110/1
f 598/103/1 583/110/1 489/107/1
f 599/111/1 598/103/1 489/107/1
f 600/112/1 599/111/1 489/107/1
f 600/112/1 489/107/1 488/113/1
f 601/114/1 600/112/1 488/113/1
f 601/114/1 488/113/1 487/115/1
f 602/116/1 601/114/1 487/115/1
f 602/116/1 487/115/1 486/117/1
f 603/118/1 602/116/1 486/117/1
f 604/119/1 603/118/1 486/117/1
f 604/119/1 486/117/1 485/120/1
f 605/121/1 604/119/1 485/120/1
f 605/121/1 485/120/1 484/122/1
f 606/123/1 605/121/1 484/122/1
f 607/124/1 606/123/1 484/122/1
f 607/124/1 484/122/1 483/125/1
f 608/126/1 607/124/1 483/125/1
f 608/126/1 483/125/1 482/127/1
f 481/128/1 608/126/1 482/127/1
f 675/1/2 673/3/2 674/2/2
f 675/1/2 672/4/2 673/3/2
f 676/5/2 672/4/2 675/1/2
f 676/5/2 671/6/2 672/4/2
f 677/7/2 671/6/2 676/5/2
f 677/7/2 670/8/2 671/6/2
f 677/7/2 669/9/2 670/8/2
f 678/10/2 669/9/2 677/7/2
f 678/10/2 668/11/2 669/9/2
f 679/12/2 668/11/2 678/10/2
f 679/12/2 667/13/2 668/11/2
f 679/12/2 666/14/2 667/13/2
f 680/15/2 666/14/2 679/12/2
f 680/15/2 665/16/2 666/14/2
f 681/17/2 665/16/2 680/15/2
f 681/17/2 664/18/2 665/16/2
f 681/17/2 663/19/2 664/18/2
f 682/20/2 663/19/2 681/17/2
f 682/20/2 647/21/2 663/19/2
f 647/21/2 662/22/2 663/19/2
f 682/20/2 646/23/2 647/21/2
f 648/24/2 662/22/2 647/21/2
f 683/25/2 646/23/2 682/20/2
f 649/26/2 662/22/2 648/24/2
f 683/25/2 645/27/2 646/23/2
f 649/26/2 661/28/2 662/22/2
f 650/29/2 661/28/2 649/26/2
f 683/25/2 644/30/2 645/27/2
f 651/31/2 661/28/2 650/29/2
f 683/25/2 643/32/2 644/30/2
f 652/33/2 661/28/2 651/31/2
f 683/25/2 642/34/2 643/32/2
f 652/33/2 660/35/2 661/28/2
f 653/36/2 660/35/2 652/33/2
f 684/37/2 642/34/2 683/25/2
f 684/37/2 641/38/2 642/34/2
f 654/39/2 660/35/2 653/36/2
f 654/39/2 655/40/2 660/35/2
f 655/40/2 656/41/2 660/35/2
f 656/41/2 657/42/2 660/35/2
f 657/42/2 658/43/2 660/35/2
f 658/43/2 659/44/2 660/35/2
f 684/37/2 640/45/2 641/38/2
f 684/37/2 639/46/2 640/45/2
f 685/47/2 639/46/2 684/37/2
f 685/47/2 638/48/2 639/46/2
f 685/47/2 637/49/2 638/48/2
f 686/50/2 637/49/2 685/47/2
f 686/50/2 636/51/2 637/49/2
f 687/52/2 636/51/2 686/50/2
f 687/52/2 635/53/2 636/51/2
f 687/52/2 634/54/2 635/53/2
f 688/55/2 634/54/2 687/52/2
f 688/55/2 633/56/2 634/54/2
f 689/57/2 633/56/2 688/55/2
f 689/57/2 632/58/2 633/56/2
f 689/57/2 631/59/2 632/58/2
f 690/60/2 631/59/2 689/57/2
f 690/60/2 630/61/2 631/59/2
f 690/60/2 629/62/2 630/61/2
f 691/63/2 629/62/2 690/60/2
f 691/63/2 628/64/2 629/62/2
f 692/65/2 628/64/2 691/63/2
f 692/65/2 627/66/2 628/64/2
f 693/67/2 627/66/2 692/65/2
f 693/67/2 626/68/2 627/66/2
f 694/69/2 626/68/2 693/67/2
f 694/69/2 625/70/2 626/68/2
f 695/71/2 625/70/2 694/69/2
f 696/72/2 625/70/2 695/71/2
f 696/72/2 624/73/2 625/70/2
f 697/74/2 624/73/2 696/72/2
f 698/75/2 624/73/2 697/74/2
f 698/75/2 623/76/2 624/73/2
f 699/77/2 623/76/2 698/75/2
f 699/77/2 622/78/2 623/76/2
f 700/79/2 622/78/2 699/77/2
f 701/80/2 622/78/2 700/79/2
f 701/80/2 621/81/2 622/78/2
f 724/82/2 722/84/2 723/83/2
f 702/85/2 621/81/2 701/80/2
f 724/82/2 721/86/2 722/84/2
f 702/85/2 620/87/2 621/81/2
f 703/88/2 620/87/2 702/85/2
f 724/82/2 720/89/2 721/86/2
f 704/90/2 620/87/2 703/88/2
f 724/82/2 719/91/2 720/89/2
f 704/90/2 619/92/2 620/87/2
f 724/82/2 718/93/2 719/91/2
f 705/94/2 619/92/2 704/90/2
f 724/82/2 717/95/2 718/93/2
f 706/96/2 619/92/2 705/94/2
f 725/97/2 717/95/2 724/82/2
f 725/97/2 716/98/2 717/95/2
f 706/96/2 618/99/2 619/92/2
f 707/100/2 618/99/2 706/96/2
f 725/97/2 715/101/2 716/98/2
f 708/102/2 618/99/2 707/100/2
f 726/103/2 715/101/2 725/97/2
f 726/103/2 714/104/2 715/101/2
f 709/105/2 618/99/2 708/102/2
f 726/103/2 713/106/2 714/104/2
f 709/105/2 617/107/2 618/99/2
f 710/108/2 617/107/2 709/105/2
f 726/103/2 712/109/2 713/106/2
f 711/110/2 617/107/2 710/108/2
f 726/103/2 711/110/2 712/109/2
f 726/103/2 617/107/2 711/110/2
f 727/111/2 617/107/2 726/103/2
f 728/112/2 617/107/2 727/111/2
f 728/112/2 616/113/2 617/107/2
f 729/114/2 616/113/2 728/112/2
f 729/114/2 615/115/2 616/113/2
f 730/116/2 615/115/2 729/114/2
f 730/116/2 614/117/2 615/115/2
f 731/118/2 614/117/2 730/116/2
f 732/119/2 614/117/2 731/118/2
f 732/119/2 613/120/2 614/117/2
f 733/121/2 613/120/2 732/119/2
f 733/121/2 612/122/2 613/120/2
f 734/123/2 612/122/2 733/121/2
f 735/124/2 612/122/2 734/123/2
f 735/124/2 611/125/2 612/122/2
f 736/126/2 611/125/2 735/124/2
f 736/126/2 610/127/2 611/125/2
f 609/128/2 610/127/2 736/126/2
f 515/32/161 516/30/161 644/30/161 643/32/161
f 548/5/162 549/7/162 677/7/162 676/5/162
f 504/58/163 505/56/163 633/56/163 632/58/163
f 583/110/164 584/109/164 712/109/164 711/110/164
f 523/31/165 524/33/165 652/33/165 651/31/165
f 593/86/166 594/84/166 722/84/166 721/86/166
f 503/59/167 504/58/167 632/58/167 631/59/167
f 598/103/168 599/111/168 727/111/168 726/103/168
f 542/8/169 543/6/169 671/6/169 670/8/169
f 561/57/170 562/60/170 690/60/170 689/57/170
f 514/34/171 515/32/171 643/32/171 642/34/171
f 492/87/172 493/81/172 621/81/172 620/87/172
f 599/111/173 600/112/173 728/112/173 727/111/173
f 574/85/174 575/88/174 703/88/174 702/85/174
f 541/9/175 542/8/175 670/8/175 669/9/175
f 532/35/176 533/28/176 661/28/176 660/35/176
f 549/7/177 550/10/177 678/10/177 677/7/177
f 502/61/178 503/59/178 631/59/178 630/61/178
f 524/33/179 525/36/179 653/36/179 652/33/179
f 488/113/180 489/107/180 617/107/180 616/113/180
f 592/89/181 593/86/181 721/86/181 720/89/181
f 501/62/182 502/61/182 630/61/182 629/62/182
f 600/112/183 601/114/183 729/114/183 728/112/183
f 555/25/184 556/37/184 684/37/184 683/25/184
f 575/88/185 576/90/185 704/90/185 703/88/185
f 540/11/186 541/9/186 669/9/186 668/11/186
f 562/60/187 563/63/187 691/63/187 690/60/187
f 550/10/188 551/12/188 679/12/188 678/10/188
f 487/115/189 488/113/189 616/113/189 615/115/189
f 513/38/190 514/34/190 642/34/190 641/38/190
f 591/91/191 592/89/191 720/89/191 719/91/191
f 500/64/192 501/62/192 629/62/192 628/64/192
f 601/114/193 602/116/193 730/116/193 729/114/193
f 525/36/194 526/39/194 654/39/194 653/36/194
f 539/13/195 540/11/195 668/11/195 667/13/195
f 563/63/196 564/65/196 692/65/196 691/63/196
f 491/92/197 492/87/197 620/87/197 619/92/197
f 526/39/198 527/40/198 655/40/198 654/39/198
f 538/14/199 539/13/199 667/13/199 666/14/199
f 486/117/200 487/115/200 615/115/200 614/117/200
f 590/93/201 591/91/201 719/91/201 718/93/201
f 551/12/202 552/15/202 680/15/202 679/12/202
f 499/66/203 500/64/203 628/64/203 627/66/203
f 602/116/204 603/118/204 731/118/204 730/116/204
f 527/40/205 528/41/205 656/41/205 655/40/205
f 576/90/206 577/94/206 705/94/206 704/90/206
f 564/65/207 565/67/207 693/67/207 692/65/207
f 603/118/208 604/119/208 732/119/208 731/118/208
f 528/41/209 529/42/209 657/42/209 656/41/209
f 537/16/210 538/14/210 666/14/210 665/16/210
f 589/95/211 590/93/211 718/93/211 717/95/211
f 552/15/212 553/17/212 681/17/212 680/15/212
f 498/68/213 499/66/213 627/66/213 626/68/213
f 529/42/214 530/43/214 658/43/214 657/42/214
f 577/94/215 578/96/215 706/96/215 705/94/215
f 565/67/216 566/69/216 694/69/216 693/67/216
f 485/120/217 486/117/217 614/117/217 613/120/217
f 604/119/218 605/121/218 733/121/218 732/119/218
f 530/43/219 531/44/219 659/44/219 658/43/219
f 596/82/220 597/97/220 725/97/220 724/82/220
f 536/18/221 537/16/221 665/16/221 664/18/221
f 531/44/222 532/35/222 660/35/222 659/44/222
f 497/70/223 498/68/223 626/68/223 625/70/223
f 535/19/224 536/18/224 664/18/224 663/19/224
f 566/69/225 567/71/225 695/71/225 694/69/225
f 484/122/226 485/120/226 613/120/226 612/122/226
f 512/45/227 513/38/227 641/38/227 640/45/227
f 588/98/228 589/95/228 717/95/228 716/98/228
f 553/17/229 554/20/229 682/20/229 681/17/229
f 605/121/230 606/123/230 734/123/230 733/121/230
f 567/71/231 568/72/231 696/72/231 695/71/231
f 511/46/232 512/45/232 640/45/232 639/46/232
f 490/99/233 491/92/233 619/92/233 618/99/233
f 606/123/234 607/124/234 735/124/234 734/123/234
f 556/37/235 557/47/235 685/47/235 684/37/235
f 578/96/236 579/100/236 707/100/236 706/96/236
f 496/73/237 497/70/237 625/70/237 624/73/237
f 534/22/238 535/19/238 663/19/238 662/22/238
f 568/72/239 569/74/239 697/74/239 696/72/239
f 483/125/240 484/122/240 612/122/240 611/125/240
f 510/48/241 511/46/241 639/46/241 638/48/241
f 587/101/242 588/98/242 716/98/242 715/101/242
f 607/124/243 608/126/243 736/126/243 735/124/243
f 579/100/244 580/102/244 708/102/244 707/100/244
f 518/23/245 519/21/245 647/21/245 646/23/245
f 569/74/246 570/75/246 698/75/246 697/74/246
f 509/49/247 510/48/247 638/48/247 637/49/247
f 519/21/248 520/24/248 648/24/248 647/21/248
f 557/47/249 558/50/249 686/50/249 685/47/249
f 597/97/250 598/103/250 726/103/250 725/97/250
f 482/127/25 483/125/25 611/125/25 610/127/25
f 554/20/251 555/25/251 683/25/251 682/20/251
f 495/76/252 496/73/252 624/73/252 623/76/252
f 608/126/22 481/128/22 609/128/22 736/126/22
f 570/75/253 571/77/253 699/77/253 698/75/253
f 481/128/43 482/127/43 610/127/43 609/128/43
f 508/51/254 509/49/254 637/49/254 636/51/254
f 586/104/255 587/101/255 715/101/255 714/104/255
f 520/24/256 521/26/256 649/26/256 648/24/256
f 558/50/257 559/52/257 687/52/257 686/50/257
f 580/102/258 581/105/258 709/105/258 708/102/258
f 494/78/259 495/76/259 623/76/259 622/78/259
f 517/27/260 518/23/260 646/23/260 645/27/260
f 571/77/261 572/79/261 700/79/261 699/77/261
f 507/53/262 508/51/262 636/51/262 635/53/262
f 585/106/263 586/104/263 714/104/263 713/106/263
f 546/2/22 547/1/22 675/1/22 674/2/22
f 533/28/264 534/22/264 662/22/264 661/28/264
f 572/79/265 573/80/265 701/80/265 700/79/265
f 506/54/266 507/53/266 635/53/266 634/54/266
f 489/107/267 490/99/267 618/99/267 617/107/267
f 521/26/268 522/29/268 650/29/268 649/26/268
f 545/3/27 546/2/27 674/2/27 673/3/27
f 559/52/269 560/55/269 688/55/269 687/52/269
f 581/105/270 582/108/270 710/108/270 709/105/270
f 493/81/271 494/78/271 622/78/271 621/81/271
f 544/4/25 545/3/25 673/3/25 672/4/25
f 516/30/272 517/27/272 645/27/272 644/30/272
f 595/83/273 596/82/273 724/82/273 723/83/273
f 547/1/274 548/5/274 676/5/274 675/1/274
f 505/56/275 506/54/275 634/54/275 633/56/275
f 584/109/276 585/106/276 713/106/276 712/109/276
f 522/29/277 523/31/277 651/31/277 650/29/277
f 560/55/278 561/57/278 689/57/278 688/55/278
f 582/108/279 583/110/279 711/110/279 710/108/279
f 594/84/280 595/83/280 723/83/280 722/84/280
f 573/80/281 574/85/281 702/85/281 701/80/281
f 543/6/282 544/4/282 672/4/282 671/6/282
