# Blender 4.4.1
# www.blender.org
mtllib Whiskey.mtl
o Whiskey
v -0.105212 -0.263205 0.062457
v -0.028011 0.012938 0.022134
v -0.105212 -0.263205 -0.062457
v -0.028011 0.012938 -0.022134
v 0.105212 -0.263205 0.062457
v 0.028011 0.012938 0.022134
v 0.105212 -0.263205 -0.062457
v 0.028011 0.012938 -0.022134
v -0.116229 -0.030747 0.068997
v -0.116229 -0.030747 -0.068997
v 0.116229 -0.030747 -0.068997
v 0.116229 -0.030747 0.068997
v -0.092099 0.012938 0.038772
v -0.092099 0.012938 -0.038772
v 0.092099 0.012938 -0.038772
v 0.092099 0.012938 0.038772
v -0.023456 0.115424 0.018534
v -0.023456 0.115424 -0.018534
v 0.023456 0.115424 -0.018534
v 0.023456 0.115424 0.018534
v -0.025432 0.115686 0.020095
v -0.025432 0.115686 -0.020095
v 0.025432 0.115686 -0.020095
v 0.025432 0.115686 0.020095
v -0.029706 0.171237 0.023473
v -0.029706 0.171237 -0.023473
v 0.029706 0.171237 -0.023473
v 0.029706 0.171237 0.023473
v -0.116229 -0.239625 0.068997
v -0.116229 -0.239625 -0.068997
v 0.116229 -0.239625 -0.068997
v 0.116229 -0.239625 0.068997
vn -1.0000 -0.0000 -0.0000
vn -0.0000 -0.0000 -1.0000
vn 1.0000 -0.0000 -0.0000
vn -0.0000 -0.0000 1.0000
vn -0.0000 -1.0000 -0.0000
vn 0.9990 0.0444 -0.0000
vn -0.8753 0.4835 -0.0000
vn -0.0000 0.5690 -0.8224
vn 0.8753 0.4835 -0.0000
vn -0.0000 0.5690 0.8224
vn -0.0000 1.0000 -0.0000
vn 0.1316 -0.9913 -0.0000
vn -0.9990 0.0444 -0.0000
vn -0.0000 0.0351 0.9994
vn -0.0000 0.0351 -0.9994
vn -0.0000 -0.0607 0.9982
vn -0.1316 -0.9913 -0.0000
vn -0.0000 -0.9862 0.1656
vn -0.0000 -0.9862 -0.1656
vn -0.0000 -0.0607 -0.9982
vn 0.9971 -0.0767 -0.0000
vn -0.9971 -0.0767 -0.0000
vn -0.0000 -0.2673 0.9636
vn 0.9060 -0.4233 -0.0000
vn -0.0000 -0.2673 -0.9636
vn -0.9060 -0.4233 -0.0000
vt 0.000167 0.686188
vt 0.281997 0.500000
vt 0.281997 0.686188
vt 0.000167 0.500000
vt 0.281997 0.186355
vt 0.000167 0.186355
vt 0.281997 0.000167
vt 0.000167 0.999833
vt 0.281997 0.999833
vt 0.598071 0.626309
vt 0.848692 0.459017
vt 0.858960 0.622393
vt 0.728381 0.832932
vt 0.624992 0.806142
vt 0.723088 0.790417
vt 0.841425 0.261303
vt 0.905934 0.425304
vt 0.832273 0.357829
vt 0.624709 0.252204
vt 0.908018 0.184729
vt 0.615558 0.348730
vt 0.551048 0.184729
vt 0.548964 0.425304
vt 0.635434 0.742200
vt 0.548964 0.660022
vt 0.635434 0.682472
vt 0.711023 0.742200
vt 0.548964 0.764649
vt 0.711023 0.682472
vt 0.797493 0.764649
vt 0.797493 0.660022
vt 0.797111 0.070757
vt 0.822576 0.073239
vt 0.821359 0.074390
vt 0.729285 0.929916
vt 0.631440 0.887099
vt 0.730788 0.887099
vt 0.723088 0.983781
vt 0.630182 0.922952
vt 0.629425 0.841742
vt 0.808589 0.145336
vt 0.732545 0.124909
vt 0.777181 0.113538
vt 0.778786 0.113179
vt 0.775769 0.089008
vt 0.777109 0.089326
vt 0.808290 0.142480
vt 0.796983 0.069540
vt 0.736828 0.076049
vt 0.670710 0.119489
vt 0.674993 0.070629
vt 0.772940 0.033441
vt 0.819072 0.021778
vt 0.548964 0.425637
vt 0.587802 0.462933
vt 0.555836 0.659689
vt 0.897799 0.659689
vt 0.890926 0.425637
vt 0.000167 0.000167
vt 0.624992 0.968056
vt 0.762128 0.176780
s 0
usemtl マテリアル.002
f 9/1/1 30/2/1 29/3/1
f 10/4/2 31/5/2 30/2/2
f 11/6/3 32/7/3 31/5/3
f 12/8/4 29/3/4 32/9/4
f 7/10/5 1/11/5 3/12/5
f 8/13/6 20/14/6 6/15/6
f 14/16/7 9/17/7 13/18/7
f 15/19/8 10/20/8 14/16/8
f 16/21/9 11/22/9 15/19/9
f 13/18/10 12/23/10 16/21/10
f 4/24/11 13/25/11 2/26/11
f 8/27/11 14/28/11 4/24/11
f 6/29/11 15/30/11 8/27/11
f 2/26/11 16/31/11 6/29/11
f 19/32/12 24/33/12 20/34/12
f 2/35/13 18/36/13 4/37/13
f 6/38/14 17/39/14 2/35/14
f 4/37/15 19/40/15 8/13/15
f 24/41/16 25/42/16 21/43/16
f 17/44/17 22/45/17 18/46/17
f 20/47/18 21/43/18 17/44/18
f 18/46/19 23/48/19 19/32/19
f 26/49/11 28/50/11 27/51/11
f 22/45/20 27/52/20 23/48/20
f 23/48/21 28/53/21 24/33/21
f 21/43/22 26/49/22 22/45/22
f 32/54/23 1/11/23 5/55/23
f 31/56/24 5/55/24 7/10/24
f 30/57/25 7/10/25 3/12/25
f 29/58/26 3/12/26 1/11/26
f 9/1/1 10/4/1 30/2/1
f 10/4/2 11/6/2 31/5/2
f 11/6/3 12/59/3 32/7/3
f 12/8/4 9/1/4 29/3/4
f 7/10/5 5/55/5 1/11/5
f 8/13/6 19/40/6 20/14/6
f 14/16/7 10/20/7 9/17/7
f 15/19/8 11/22/8 10/20/8
f 16/21/9 12/23/9 11/22/9
f 13/18/10 9/17/10 12/23/10
f 4/24/11 14/28/11 13/25/11
f 8/27/11 15/30/11 14/28/11
f 6/29/11 16/31/11 15/30/11
f 2/26/11 13/25/11 16/31/11
f 19/32/12 23/48/12 24/33/12
f 2/35/13 17/39/13 18/36/13
f 6/38/14 20/60/14 17/39/14
f 4/37/15 18/36/15 19/40/15
f 24/41/16 28/61/16 25/42/16
f 17/44/17 21/43/17 22/45/17
f 20/47/18 24/41/18 21/43/18
f 18/46/19 22/45/19 23/48/19
f 26/49/11 25/42/11 28/50/11
f 22/45/20 26/49/20 27/52/20
f 23/48/21 27/52/21 28/53/21
f 21/43/22 25/42/22 26/49/22
f 32/54/23 29/58/23 1/11/23
f 31/56/24 32/54/24 5/55/24
f 30/57/25 31/56/25 7/10/25
f 29/58/26 30/57/26 3/12/26
