# Blender 4.4.1
# www.blender.org
mtllib Title_Ice9.mtl
o 9.ら
v -0.394565 0.000000 -0.446636
v -0.539044 0.000000 -0.465556
v -0.542281 0.000000 -0.416866
v -0.546737 0.000000 -0.361989
v -0.552267 0.000000 -0.302263
v -0.558729 0.000000 -0.239025
v -0.565979 0.000000 -0.173613
v -0.573874 0.000000 -0.107366
v -0.582272 0.000000 -0.041619
v -0.591026 0.000000 0.022287
v -0.599997 0.000000 0.083017
v -0.609038 0.000000 0.139232
v -0.618009 0.000000 0.189593
v -0.626763 0.000000 0.232764
v -0.499484 0.000000 0.263724
v -0.496794 0.000000 0.256810
v -0.493871 0.000000 0.249829
v -0.490697 0.000000 0.242789
v -0.487254 0.000000 0.235695
v -0.483524 0.000000 0.228553
v -0.479490 0.000000 0.221370
v -0.475134 0.000000 0.214150
v -0.470437 0.000000 0.206901
v -0.465382 0.000000 0.199628
v -0.459950 0.000000 0.192337
v -0.454124 0.000000 0.185034
v -0.447885 0.000000 0.177724
v -0.416437 0.000000 0.142839
v -0.382350 0.000000 0.110485
v -0.345706 0.000000 0.080760
v -0.306590 0.000000 0.053757
v -0.265085 0.000000 0.029574
v -0.221275 0.000000 0.008305
v -0.175243 0.000000 -0.009955
v -0.127073 0.000000 -0.025108
v -0.076849 0.000000 -0.037060
v -0.024653 0.000000 -0.045716
v 0.029429 0.000000 -0.050980
v 0.085316 0.000000 -0.052756
v 0.128127 0.000000 -0.050747
v 0.168656 0.000000 -0.044856
v 0.206630 0.000000 -0.035287
v 0.241773 0.000000 -0.022241
v 0.273809 0.000000 -0.005923
v 0.302466 0.000000 0.013464
v 0.327468 0.000000 0.035719
v 0.348539 0.000000 0.060637
v 0.365407 0.000000 0.088016
v 0.377795 0.000000 0.117652
v 0.385429 0.000000 0.149342
v 0.388035 0.000000 0.182884
v 0.382508 0.000000 0.240063
v 0.365897 0.000000 0.293442
v 0.338155 0.000000 0.342522
v 0.299233 0.000000 0.386800
v 0.249082 0.000000 0.425775
v 0.187655 0.000000 0.458944
v 0.114906 0.000000 0.485807
v 0.030786 0.000000 0.505862
v -0.064754 0.000000 0.518607
v -0.171760 0.000000 0.523540
v -0.290280 0.000000 0.520160
v -0.420363 0.000000 0.507964
v -0.379084 0.000000 0.649004
v -0.226736 0.000000 0.656981
v -0.089391 0.000000 0.654626
v 0.033287 0.000000 0.642501
v 0.141631 0.000000 0.621166
v 0.235976 0.000000 0.591183
v 0.316657 0.000000 0.553114
v 0.384007 0.000000 0.507521
v 0.438363 0.000000 0.454963
v 0.480057 0.000000 0.396003
v 0.509424 0.000000 0.331203
v 0.526799 0.000000 0.261123
v 0.532516 0.000000 0.186324
v 0.528913 0.000000 0.136977
v 0.518303 0.000000 0.089821
v 0.500993 0.000000 0.045258
v 0.477286 0.000000 0.003686
v 0.447488 0.000000 -0.034493
v 0.411902 0.000000 -0.068880
v 0.370834 0.000000 -0.099075
v 0.324589 0.000000 -0.124677
v 0.273470 0.000000 -0.145286
v 0.217782 0.000000 -0.160502
v 0.157830 0.000000 -0.169926
v 0.093916 0.000000 -0.173156
v 0.042678 0.000000 -0.171786
v -0.007819 0.000000 -0.167645
v -0.057552 0.000000 -0.160685
v -0.106497 0.000000 -0.150859
v -0.154629 0.000000 -0.138118
v -0.201925 0.000000 -0.122415
v -0.248362 0.000000 -0.103703
v -0.293914 0.000000 -0.081932
v -0.338558 0.000000 -0.057056
v -0.382271 0.000000 -0.029026
v -0.425028 0.000000 0.002205
v -0.466804 0.000000 0.036684
v -0.461868 0.000000 0.006284
v -0.456556 0.000000 -0.029217
v -0.450922 0.000000 -0.068827
v -0.445019 0.000000 -0.111554
v -0.438900 0.000000 -0.156407
v -0.432620 0.000000 -0.202396
v -0.426232 0.000000 -0.248527
v -0.419791 0.000000 -0.293810
v -0.413350 0.000000 -0.337254
v -0.406962 0.000000 -0.377867
v -0.400682 0.000000 -0.414658
v -0.356724 -0.000000 -0.759676
v -0.391125 0.000000 -0.628956
v -0.353654 0.000000 -0.619155
v -0.307649 0.000000 -0.608029
v -0.254680 0.000000 -0.595899
v -0.196318 0.000000 -0.583089
v -0.134134 0.000000 -0.569920
v -0.069699 0.000000 -0.556716
v -0.004583 0.000000 -0.543798
v 0.059643 0.000000 -0.531489
v 0.121408 0.000000 -0.520112
v 0.179143 0.000000 -0.509989
v 0.231276 0.000000 -0.501443
v 0.276236 0.000000 -0.494796
v 0.308916 0.000000 -0.627236
v 0.266848 0.000000 -0.631845
v 0.217326 0.000000 -0.638599
v 0.161857 0.000000 -0.647204
v 0.101943 0.000000 -0.657367
v 0.039091 0.000000 -0.668797
v -0.025194 0.000000 -0.681201
v -0.089407 0.000000 -0.694285
v -0.152043 0.000000 -0.707757
v -0.211598 0.000000 -0.721325
v -0.266566 0.000000 -0.734696
v -0.315443 0.000000 -0.747577
v -0.391125 0.199906 -0.628956
v -0.315443 0.199906 -0.747577
v -0.356724 0.199906 -0.759676
v -0.266566 0.199906 -0.734696
v -0.211598 0.199906 -0.721325
v -0.152043 0.199906 -0.707757
v -0.089407 0.199906 -0.694285
v -0.025194 0.199906 -0.681201
v 0.039091 0.199906 -0.668797
v 0.101943 0.199906 -0.657367
v 0.161857 0.199906 -0.647204
v 0.217326 0.199906 -0.638599
v 0.266848 0.199906 -0.631845
v 0.308916 0.199906 -0.627236
v -0.353654 0.199906 -0.619155
v 0.276236 0.199906 -0.494796
v -0.307649 0.199906 -0.608029
v -0.254680 0.199906 -0.595899
v -0.196318 0.199906 -0.583089
v -0.134134 0.199906 -0.569920
v -0.069699 0.199906 -0.556716
v -0.004583 0.199906 -0.543798
v 0.059643 0.199906 -0.531489
v 0.121408 0.199906 -0.520112
v 0.179143 0.199906 -0.509989
v 0.231276 0.199906 -0.501443
v -0.542281 0.199906 -0.416866
v -0.394565 0.199906 -0.446636
v -0.539044 0.199906 -0.465556
v -0.400682 0.199906 -0.414658
v -0.546737 0.199906 -0.361989
v -0.406962 0.199906 -0.377867
v -0.413350 0.199906 -0.337254
v -0.552267 0.199906 -0.302263
v -0.419791 0.199906 -0.293810
v -0.558729 0.199906 -0.239025
v -0.426232 0.199906 -0.248527
v -0.432620 0.199906 -0.202396
v -0.565979 0.199906 -0.173614
v -0.438900 0.199906 -0.156407
v -0.573874 0.199906 -0.107366
v 0.042678 0.199906 -0.171786
v 0.157830 0.199906 -0.169926
v 0.093916 0.199906 -0.173156
v -0.007819 0.199906 -0.167645
v 0.217782 0.199906 -0.160502
v -0.057552 0.199906 -0.160686
v -0.106497 0.199906 -0.150859
v 0.273470 0.199906 -0.145286
v -0.445019 0.199906 -0.111554
v -0.154629 0.199906 -0.138119
v 0.324589 0.199906 -0.124677
v -0.201925 0.199906 -0.122416
v 0.370834 0.199906 -0.099075
v -0.248362 0.199906 -0.103703
v -0.450922 0.199906 -0.068827
v -0.582272 0.199906 -0.041619
v -0.293914 0.199906 -0.081932
v 0.411902 0.199906 -0.068881
v -0.338558 0.199906 -0.057056
v 0.085316 0.199906 -0.052756
v 0.128127 0.199906 -0.050747
v 0.447488 0.199906 -0.034493
v -0.456556 0.199906 -0.029217
v -0.382271 0.199906 -0.029026
v 0.029429 0.199906 -0.050980
v -0.024653 0.199906 -0.045716
v 0.168656 0.199906 -0.044856
v -0.076849 0.199906 -0.037061
v 0.206630 0.199906 -0.035287
v -0.591026 0.199907 0.022287
v -0.127073 0.199906 -0.025108
v 0.241773 0.199906 -0.022242
v 0.477286 0.199906 0.003686
v -0.461868 0.199906 0.006284
v -0.425028 0.199906 0.002205
v -0.175243 0.199906 -0.009955
v 0.273809 0.199906 -0.005923
v -0.221275 0.199906 0.008304
v 0.302466 0.199906 0.013464
v -0.466804 0.199907 0.036684
v 0.500993 0.199907 0.045258
v -0.265085 0.199907 0.029574
v 0.327468 0.199907 0.035719
v -0.599997 0.199907 0.083017
v -0.306590 0.199907 0.053757
v 0.348539 0.199907 0.060637
v 0.518303 0.199907 0.089821
v -0.345706 0.199907 0.080759
v 0.365407 0.199907 0.088016
v -0.382350 0.199907 0.110485
v -0.609038 0.199907 0.139231
v 0.377795 0.199907 0.117652
v 0.528913 0.199907 0.136977
v -0.416437 0.199907 0.142839
v 0.385429 0.199907 0.149342
v 0.532516 0.199907 0.186324
v -0.618009 0.199907 0.189593
v -0.447885 0.199907 0.177724
v 0.388035 0.199907 0.182884
v -0.454124 0.199907 0.185033
v 0.382508 0.199907 0.240062
v -0.459950 0.199907 0.192336
v 0.526799 0.199907 0.261123
v -0.626763 0.199907 0.232764
v -0.465382 0.199907 0.199628
v -0.470437 0.199907 0.206901
v -0.475134 0.199907 0.214150
v -0.479490 0.199907 0.221369
v -0.483524 0.199907 0.228553
v -0.487254 0.199907 0.235695
v -0.499484 0.199907 0.263724
v -0.496794 0.199907 0.256810
v -0.493871 0.199907 0.249829
v -0.490697 0.199907 0.242789
v 0.365897 0.199907 0.293442
v 0.509424 0.199907 0.331203
v 0.338155 0.199907 0.342522
v 0.480057 0.199907 0.396003
v 0.299233 0.199907 0.386800
v 0.249082 0.199907 0.425775
v 0.438363 0.199907 0.454963
v 0.187655 0.199907 0.458944
v 0.384007 0.199907 0.507521
v 0.114906 0.199907 0.485807
v 0.030786 0.199907 0.505862
v -0.064754 0.199907 0.518607
v 0.316657 0.199907 0.553114
v -0.379084 0.199907 0.649004
v -0.290280 0.199907 0.520160
v -0.420363 0.199907 0.507964
v -0.171760 0.199907 0.523540
v 0.235976 0.199907 0.591183
v 0.141631 0.199907 0.621166
v 0.033287 0.199907 0.642501
v -0.089391 0.199907 0.654626
v -0.226736 0.199907 0.656981
v -1.000000 -1.000000 1.000000
v -1.000000 1.000000 1.000000
v -1.000000 -1.000000 -1.000000
v -1.000000 1.000000 -1.000000
v 1.000000 -1.000000 1.000000
v 1.000000 1.000000 1.000000
v 1.000000 -1.000000 -1.000000
v 1.000000 1.000000 -1.000000
vn -0.7051 -0.5772 0.4120
vn -0.4021 -0.5759 -0.7118
vn 0.1887 -0.7102 -0.6782
vn 0.1731 -0.7093 -0.6834
vn 0.1617 -0.7088 -0.6867
vn 0.1526 -0.7085 -0.6890
vn 0.1447 -0.7083 -0.6909
vn 0.1373 -0.7083 -0.6924
vn 0.1300 -0.7083 -0.6938
vn 0.1222 -0.7085 -0.6951
vn 0.1131 -0.7087 -0.6964
vn 0.1017 -0.7092 -0.6977
vn 0.0859 -0.7101 -0.6988
vn 0.6731 -0.5707 -0.4703
vn -0.1731 -0.7050 0.6877
vn 0.4529 -0.5825 0.6749
vn -0.1623 -0.7057 0.6896
vn -0.1549 -0.7061 0.6910
vn -0.1492 -0.7063 0.6920
vn -0.1444 -0.7064 0.6930
vn -0.1399 -0.7064 0.6938
vn -0.1355 -0.7064 0.6947
vn -0.1307 -0.7063 0.6957
vn -0.1253 -0.7062 0.6969
vn -0.1185 -0.7059 0.6984
vn -0.1092 -0.7054 0.7004
vn -0.7035 -0.7087 -0.0519
vn -0.5193 -0.5741 -0.6330
vn 0.6635 -0.5743 -0.4795
vn 0.6936 -0.7094 0.1255
vn -0.7032 -0.7084 -0.0611
vn 0.6963 -0.7086 0.1142
vn 0.6980 -0.7081 0.1066
vn -0.7027 -0.7082 -0.0684
vn 0.6991 -0.7078 0.1015
vn -0.7022 -0.7081 -0.0748
vn 0.6998 -0.7075 0.0982
vn 0.7003 -0.7073 0.0963
vn -0.7016 -0.7080 -0.0807
vn 0.7006 -0.7071 0.0956
vn -0.7008 -0.7081 -0.0865
vn -0.0387 -0.7010 -0.7121
vn 0.0085 -0.6985 -0.7155
vn 0.0740 -0.6954 -0.7148
vn -0.0786 -0.7007 -0.7091
vn 0.1508 -0.6949 -0.7031
vn -0.1197 -0.7005 -0.7035
vn -0.1617 -0.7004 -0.6953
vn 0.2298 -0.6942 -0.6821
vn 0.7007 -0.7069 0.0962
vn -0.2039 -0.7002 -0.6842
vn 0.3097 -0.6936 -0.6504
vn -0.2460 -0.7001 -0.6703
vn 0.3889 -0.6930 -0.6071
vn -0.2875 -0.7001 -0.6536
vn 0.7007 -0.7067 0.0982
vn -0.7000 -0.7081 -0.0926
vn -0.3279 -0.7001 -0.6343
vn 0.4655 -0.6923 -0.5514
vn -0.3666 -0.7002 -0.6126
vn -0.0053 -0.7161 0.6980
vn -0.0664 -0.7182 0.6926
vn 0.5369 -0.6917 -0.4830
vn 0.7005 -0.7063 0.1022
vn -0.4034 -0.7003 -0.5889
vn 0.0450 -0.7145 0.6982
vn 0.0911 -0.7148 0.6934
vn -0.1351 -0.7188 0.6819
vn 0.1382 -0.7150 0.6853
vn -0.2060 -0.7195 0.6632
vn -0.6989 -0.7083 -0.0995
vn 0.1859 -0.7152 0.6737
vn -0.2786 -0.7203 0.6352
vn 0.6003 -0.6912 -0.4023
vn 0.7000 -0.7057 0.1092
vn -0.4378 -0.7005 -0.5636
vn 0.2338 -0.7154 0.6584
vn -0.3519 -0.7213 0.5966
vn 0.2815 -0.7156 0.6393
vn -0.4246 -0.7223 0.5459
vn 0.0971 -0.9808 -0.1692
vn 0.6528 -0.6909 -0.3108
vn 0.3285 -0.7157 0.6163
vn -0.4944 -0.7234 0.4820
vn -0.6974 -0.7085 -0.1076
vn 0.3744 -0.7158 0.5894
vn -0.5583 -0.7243 0.4045
vn 0.6917 -0.6907 -0.2109
vn 0.4186 -0.7159 0.5588
vn -0.6127 -0.7251 0.3144
vn 0.4606 -0.7160 0.5247
vn -0.6953 -0.7090 -0.1178
vn -0.6541 -0.7255 0.2140
vn 0.7152 -0.6908 -0.1060
vn 0.5000 -0.7160 0.4873
vn -0.6799 -0.7254 0.1076
vn 0.7231 -0.6907 0.0012
vn -0.6920 -0.7098 -0.1318
vn 0.5292 -0.7102 0.4643
vn -0.6864 -0.7272 -0.0065
vn 0.5424 -0.7109 0.4477
vn -0.6690 -0.7309 -0.1349
vn 0.5570 -0.7108 0.4295
vn 0.7157 -0.6888 0.1152
vn -0.6879 -0.5794 0.4371
vn 0.5709 -0.7108 0.4109
vn 0.5840 -0.7108 0.3920
vn 0.5964 -0.7107 0.3730
vn 0.6080 -0.7106 0.3540
vn 0.6187 -0.7105 0.3352
vn 0.6285 -0.7104 0.3166
vn 0.3750 -0.5846 0.7194
vn 0.6530 -0.7100 0.2637
vn 0.6457 -0.7102 0.2807
vn 0.6375 -0.7103 0.2983
vn -0.6255 -0.7318 -0.2705
vn 0.6863 -0.6872 0.2384
vn -0.5562 -0.7311 -0.3952
vn 0.6309 -0.6864 0.3617
vn -0.4692 -0.7290 -0.4984
vn -0.3756 -0.7262 -0.5759
vn 0.5518 -0.6867 0.4732
vn -0.2843 -0.7234 -0.6292
vn 0.4573 -0.6881 0.5634
vn -0.2008 -0.7208 -0.6634
vn -0.1268 -0.7187 -0.6837
vn -0.0622 -0.7170 -0.6943
vn 0.3583 -0.6902 0.6287
vn -0.4976 -0.5972 0.6291
vn -0.6391 -0.5600 -0.5272
vn 0.0426 -0.7145 -0.6983
vn -0.0061 -0.7156 -0.6985
vn 0.2638 -0.6924 0.6715
vn 0.1787 -0.6946 0.6968
vn 0.1047 -0.6965 0.7099
vn 0.0414 -0.6981 0.7148
vn -0.0126 -0.6994 0.7146
vn -0.7051 0.5772 0.4120
vn 0.1887 0.7102 -0.6782
vn -0.4021 0.5759 -0.7118
vn 0.1731 0.7093 -0.6833
vn 0.1617 0.7088 -0.6867
vn 0.1526 0.7085 -0.6890
vn 0.1447 0.7083 -0.6909
vn 0.1373 0.7083 -0.6924
vn 0.1300 0.7083 -0.6938
vn 0.1222 0.7085 -0.6951
vn 0.1131 0.7087 -0.6964
vn 0.1017 0.7092 -0.6977
vn 0.0859 0.7101 -0.6988
vn 0.6731 0.5707 -0.4703
vn -0.1731 0.7050 0.6877
vn 0.4529 0.5825 0.6749
vn -0.1623 0.7057 0.6896
vn -0.1549 0.7061 0.6910
vn -0.1492 0.7063 0.6920
vn -0.1444 0.7064 0.6930
vn -0.1399 0.7064 0.6938
vn -0.1355 0.7064 0.6947
vn -0.1307 0.7063 0.6957
vn -0.1253 0.7061 0.6969
vn -0.1185 0.7059 0.6984
vn -0.1092 0.7053 0.7004
vn -0.7035 0.7088 -0.0519
vn 0.6635 0.5743 -0.4795
vn -0.5194 0.5741 -0.6330
vn 0.6936 0.7094 0.1255
vn -0.7032 0.7084 -0.0611
vn 0.6963 0.7086 0.1142
vn 0.6980 0.7081 0.1066
vn -0.7027 0.7082 -0.0684
vn 0.6991 0.7078 0.1015
vn -0.7022 0.7081 -0.0748
vn 0.6998 0.7075 0.0982
vn 0.7003 0.7073 0.0963
vn -0.7015 0.7080 -0.0807
vn 0.7006 0.7071 0.0956
vn -0.7008 0.7081 -0.0865
vn -0.0387 0.7010 -0.7121
vn 0.0740 0.6955 -0.7147
vn 0.0085 0.6985 -0.7155
vn -0.0786 0.7007 -0.7091
vn 0.1508 0.6949 -0.7032
vn -0.1197 0.7005 -0.7035
vn -0.1617 0.7004 -0.6953
vn 0.2298 0.6942 -0.6821
vn 0.7007 0.7069 0.0962
vn -0.2039 0.7002 -0.6842
vn 0.3097 0.6936 -0.6504
vn -0.2460 0.7001 -0.6703
vn 0.3889 0.6929 -0.6071
vn -0.2875 0.7001 -0.6536
vn 0.7007 0.7067 0.0982
vn -0.7000 0.7081 -0.0926
vn -0.3279 0.7001 -0.6343
vn 0.4655 0.6923 -0.5514
vn -0.3666 0.7002 -0.6126
vn -0.0053 0.7161 0.6980
vn -0.0664 0.7182 0.6926
vn 0.5369 0.6917 -0.4830
vn 0.7005 0.7063 0.1022
vn -0.4034 0.7003 -0.5889
vn 0.0450 0.7145 0.6982
vn 0.0911 0.7148 0.6934
vn -0.1351 0.7188 0.6819
vn 0.1382 0.7150 0.6853
vn -0.2060 0.7195 0.6632
vn -0.6989 0.7083 -0.0995
vn 0.1859 0.7152 0.6737
vn -0.2786 0.7203 0.6352
vn 0.6003 0.6912 -0.4023
vn 0.7000 0.7057 0.1092
vn -0.4378 0.7005 -0.5636
vn 0.2338 0.7154 0.6584
vn -0.3519 0.7213 0.5966
vn 0.2815 0.7156 0.6393
vn -0.4246 0.7223 0.5459
vn 0.0971 0.9808 -0.1692
vn 0.6528 0.6909 -0.3108
vn 0.3285 0.7157 0.6163
vn -0.4944 0.7234 0.4820
vn -0.6974 0.7086 -0.1076
vn 0.3744 0.7158 0.5894
vn -0.5583 0.7243 0.4045
vn 0.6917 0.6907 -0.2109
vn 0.4186 0.7159 0.5588
vn -0.6127 0.7251 0.3144
vn 0.4606 0.7160 0.5247
vn -0.6953 0.7090 -0.1178
vn -0.6541 0.7255 0.2140
vn 0.7152 0.6908 -0.1060
vn 0.4999 0.7160 0.4873
vn -0.6799 0.7254 0.1076
vn 0.7231 0.6907 0.0012
vn -0.6920 0.7098 -0.1318
vn 0.5292 0.7102 0.4643
vn -0.6864 0.7272 -0.0065
vn 0.5424 0.7109 0.4477
vn -0.6690 0.7309 -0.1349
vn 0.5570 0.7108 0.4295
vn 0.7157 0.6888 0.1152
vn -0.6879 0.5794 0.4371
vn 0.5709 0.7108 0.4109
vn 0.5840 0.7108 0.3920
vn 0.5964 0.7107 0.3730
vn 0.6080 0.7106 0.3540
vn 0.6187 0.7105 0.3352
vn 0.6285 0.7104 0.3166
vn 0.3751 0.5846 0.7194
vn 0.6530 0.7100 0.2637
vn 0.6457 0.7102 0.2807
vn 0.6375 0.7103 0.2983
vn -0.6255 0.7318 -0.2705
vn 0.6863 0.6872 0.2383
vn -0.5562 0.7311 -0.3952
vn 0.6309 0.6864 0.3617
vn -0.4692 0.7290 -0.4985
vn -0.3755 0.7262 -0.5758
vn 0.5518 0.6867 0.4732
vn -0.2843 0.7234 -0.6292
vn 0.4573 0.6881 0.5634
vn -0.2008 0.7208 -0.6634
vn -0.1268 0.7187 -0.6837
vn -0.0622 0.7170 -0.6943
vn 0.3583 0.6902 0.6287
vn -0.4976 0.5972 0.6291
vn 0.0426 0.7145 -0.6983
vn -0.6391 0.5600 -0.5272
vn -0.0061 0.7156 -0.6985
vn 0.2638 0.6924 0.6715
vn 0.1787 0.6946 0.6969
vn 0.1047 0.6965 0.7099
vn 0.0414 0.6981 0.7148
vn -0.0126 0.6994 0.7146
vn -1.0000 -0.0000 -0.0000
vn -0.0000 -0.0000 -1.0000
vn 1.0000 -0.0000 -0.0000
vn -0.0000 -0.0000 1.0000
vn -0.0000 -1.0000 -0.0000
vn -0.0000 1.0000 -0.0000
vt 0.873047 0.218182
vt 0.873047 0.227273
vt 0.873047 -0.000000
vt 0.873047 0.009091
vt 0.873047 0.018182
vt 0.873047 0.027273
vt 0.873047 0.036364
vt 0.873047 0.045455
vt 0.873047 0.054545
vt 0.873047 0.063636
vt 0.873047 0.072727
vt 0.873047 0.081818
vt 0.873047 0.090909
vt 0.873047 0.100000
vt 0.873047 0.209091
vt 0.873047 0.109091
vt 0.873047 0.200000
vt 0.873047 0.190909
vt 0.873047 0.181818
vt 0.873047 0.172727
vt 0.873047 0.163636
vt 0.873047 0.154545
vt 0.873047 0.145455
vt 0.873047 0.136364
vt 0.873047 0.127273
vt 0.873047 0.118182
vt 0.873047 0.981818
vt 0.873047 0.990909
vt 0.873047 1.000000
vt 0.873047 0.000000
vt 0.873047 0.972727
vt 0.873047 0.009091
vt 0.873047 0.018182
vt 0.873047 0.963636
vt 0.873047 0.027273
vt 0.873047 0.954545
vt 0.873047 0.036364
vt 0.873047 0.045455
vt 0.873047 0.945455
vt 0.873047 0.054546
vt 0.873047 0.936364
vt 0.873047 0.200000
vt 0.873047 0.209091
vt 0.873047 0.218182
vt 0.873047 0.190909
vt 0.873047 0.227273
vt 0.873047 0.181818
vt 0.873047 0.172727
vt 0.873047 0.236364
vt 0.873047 0.063636
vt 0.873047 0.163636
vt 0.873047 0.245455
vt 0.873047 0.154546
vt 0.873047 0.254546
vt 0.873047 0.145455
vt 0.873047 0.072727
vt 0.873047 0.927273
vt 0.873047 0.136364
vt 0.873047 0.263636
vt 0.873047 0.127273
vt 0.873047 0.654545
vt 0.873047 0.645455
vt 0.873047 0.272727
vt 0.873047 0.081818
vt 0.873047 0.118182
vt 0.873047 0.663636
vt 0.873047 0.672727
vt 0.873047 0.636364
vt 0.873047 0.681818
vt 0.873047 0.627273
vt 0.873047 0.918182
vt 0.873047 0.690909
vt 0.873047 0.618182
vt 0.873047 0.281818
vt 0.873047 0.090909
vt 0.873047 0.109091
vt 0.873047 0.700000
vt 0.873047 0.609091
vt 0.873047 0.709091
vt 0.873047 0.600000
vt 0.873047 0.100000
vt 0.873047 0.290909
vt 0.873047 0.718182
vt 0.873047 0.590909
vt 0.873047 0.909091
vt 0.873047 0.727273
vt 0.873047 0.581818
vt 0.873047 0.300000
vt 0.873047 0.736364
vt 0.873047 0.572727
vt 0.873047 0.745455
vt 0.873047 0.900000
vt 0.873047 0.563636
vt 0.873047 0.309091
vt 0.873047 0.754545
vt 0.873047 0.554546
vt 0.873047 0.318182
vt 0.873047 0.890909
vt 0.873047 0.763636
vt 0.873047 0.545455
vt 0.873047 0.772727
vt 0.873047 0.536364
vt 0.873047 0.781818
vt 0.873047 0.327273
vt 0.873047 0.881818
vt 0.873047 0.790909
vt 0.873047 0.800000
vt 0.873047 0.809091
vt 0.873047 0.818182
vt 0.873047 0.827273
vt 0.873047 0.836364
vt 0.873047 0.872727
vt 0.873047 0.863636
vt 0.873047 0.854545
vt 0.873047 0.845455
vt 0.873047 0.527273
vt 0.873047 0.336364
vt 0.873047 0.518182
vt 0.873047 0.345455
vt 0.873047 0.509091
vt 0.873047 0.500000
vt 0.873047 0.354545
vt 0.873047 0.490909
vt 0.873047 0.363636
vt 0.873047 0.481818
vt 0.873047 0.472727
vt 0.873047 0.463636
vt 0.873047 0.372727
vt 0.873047 0.427273
vt 0.873047 0.436364
vt 0.873047 0.445455
vt 0.873047 0.454545
vt 0.873047 0.381818
vt 0.873047 0.390909
vt 0.873047 0.400000
vt 0.873047 0.409091
vt 0.873047 0.418182
vt 0.309652 0.299029
vt 0.209167 0.399515
vt 0.209167 0.299029
vt 0.309652 0.399515
vt 0.209167 0.500000
vt 0.309652 0.500000
vt 0.209167 0.600485
vt 0.309652 0.600485
vt 0.209167 0.700971
vt 0.108681 0.600485
vt 0.108681 0.500000
vt 0.410138 0.500000
vt 0.309652 0.700971
vt 0.410138 0.600485
s 1
usemtl マテリアル
f 113/1/1 112/2/2 137/3/3
f 113/1/1 137/3/3 136/4/4
f 113/1/1 136/4/4 135/5/5
f 113/1/1 135/5/5 134/6/6
f 113/1/1 134/6/6 133/7/7
f 113/1/1 133/7/7 132/8/8
f 113/1/1 132/8/8 131/9/9
f 113/1/1 131/9/9 130/10/10
f 113/1/1 130/10/10 129/11/11
f 113/1/1 129/11/11 128/12/12
f 113/1/1 128/12/12 127/13/13
f 113/1/1 127/13/13 126/14/14
f 114/15/15 113/1/1 126/14/14
f 114/15/15 126/14/14 125/16/16
f 115/17/17 114/15/15 125/16/16
f 116/18/18 115/17/17 125/16/16
f 117/19/19 116/18/18 125/16/16
f 118/20/20 117/19/19 125/16/16
f 119/21/21 118/20/20 125/16/16
f 120/22/22 119/21/21 125/16/16
f 121/23/23 120/22/22 125/16/16
f 122/24/24 121/23/23 125/16/16
f 123/25/25 122/24/24 125/16/16
f 124/26/26 123/25/25 125/16/16
f 3/27/27 2/28/28 1/29/29
f 3/27/27 1/29/29 111/30/30
f 4/31/31 3/27/27 111/30/30
f 4/31/31 111/30/30 110/32/32
f 4/31/31 110/32/32 109/33/33
f 5/34/34 4/31/31 109/33/33
f 5/34/34 109/33/33 108/35/35
f 6/36/36 5/34/34 108/35/35
f 6/36/36 108/35/35 107/37/37
f 6/36/36 107/37/37 106/38/38
f 7/39/39 6/36/36 106/38/38
f 7/39/39 106/38/38 105/40/40
f 8/41/41 7/39/39 105/40/40
f 89/42/42 88/43/43 87/44/44
f 90/45/45 89/42/42 87/44/44
f 90/45/45 87/44/44 86/46/46
f 91/47/47 90/45/45 86/46/46
f 92/48/48 91/47/47 86/46/46
f 92/48/48 86/46/46 85/49/49
f 8/41/41 105/40/40 104/50/50
f 93/51/51 92/48/48 85/49/49
f 93/51/51 85/49/49 84/52/52
f 94/53/53 93/51/51 84/52/52
f 94/53/53 84/52/52 83/54/54
f 95/55/55 94/53/53 83/54/54
f 8/41/41 104/50/50 103/56/56
f 9/57/57 8/41/41 103/56/56
f 96/58/58 95/55/55 83/54/54
f 96/58/58 83/54/54 82/59/59
f 97/60/60 96/58/58 82/59/59
f 97/60/60 82/59/59 39/61/61
f 39/61/61 82/59/59 40/62/62
f 40/62/62 82/59/59 81/63/63
f 9/57/57 103/56/56 102/64/64
f 98/65/65 97/60/60 38/66/66
f 38/66/66 97/60/60 39/61/61
f 98/65/65 38/66/66 37/67/67
f 41/68/68 40/62/62 81/63/63
f 98/65/65 37/67/67 36/69/69
f 42/70/70 41/68/68 81/63/63
f 10/71/71 9/57/57 102/64/64
f 98/65/65 36/69/69 35/72/72
f 43/73/73 42/70/70 81/63/63
f 43/73/73 81/63/63 80/74/74
f 10/71/71 102/64/64 101/75/75
f 99/76/76 98/65/65 35/72/72
f 99/76/76 35/72/72 34/77/77
f 44/78/78 43/73/73 80/74/74
f 99/76/76 34/77/77 33/79/79
f 45/80/80 44/78/78 80/74/74
f 100/81/81 99/76/76 33/79/79
f 45/80/80 80/74/74 79/82/82
f 10/71/71 101/75/75 100/81/81
f 100/81/81 33/79/79 32/83/83
f 46/84/84 45/80/80 79/82/82
f 11/85/85 10/71/71 100/81/81
f 100/81/81 32/83/83 31/86/86
f 47/87/87 46/84/84 79/82/82
f 11/85/85 100/81/81 31/86/86
f 47/87/87 79/82/82 78/88/88
f 11/85/85 31/86/86 30/89/89
f 48/90/90 47/87/87 78/88/88
f 11/85/85 30/89/89 29/91/91
f 12/92/92 11/85/85 29/91/91
f 49/93/93 48/90/90 78/88/88
f 49/93/93 78/88/88 77/94/94
f 12/92/92 29/91/91 28/95/95
f 50/96/96 49/93/93 77/94/94
f 50/96/96 77/94/94 76/97/97
f 13/98/98 12/92/92 28/95/95
f 13/98/98 28/95/95 27/99/99
f 51/100/100 50/96/96 76/97/97
f 13/98/98 27/99/99 26/101/101
f 52/102/102 51/100/100 76/97/97
f 13/98/98 26/101/101 25/103/103
f 52/102/102 76/97/97 75/104/104
f 14/105/105 13/98/98 25/103/103
f 14/105/105 25/103/103 24/106/106
f 14/105/105 24/106/106 23/107/107
f 14/105/105 23/107/107 22/108/108
f 14/105/105 22/108/108 21/109/109
f 14/105/105 21/109/109 20/110/110
f 14/105/105 20/110/110 19/111/111
f 15/112/112 14/105/105 16/113/113
f 16/113/113 14/105/105 17/114/114
f 17/114/114 14/105/105 18/115/115
f 18/115/115 14/105/105 19/111/111
f 53/116/116 52/102/102 75/104/104
f 53/116/116 75/104/104 74/117/117
f 54/118/118 53/116/116 74/117/117
f 54/118/118 74/117/117 73/119/119
f 55/120/120 54/118/118 73/119/119
f 56/121/121 55/120/120 73/119/119
f 56/121/121 73/119/119 72/122/122
f 57/123/123 56/121/121 72/122/122
f 57/123/123 72/122/122 71/124/124
f 58/125/125 57/123/123 71/124/124
f 59/126/126 58/125/125 71/124/124
f 60/127/127 59/126/126 71/124/124
f 60/127/127 71/124/124 70/128/128
f 64/129/129 63/130/130 62/131/131
f 61/132/132 60/127/127 70/128/128
f 64/129/129 62/131/131 61/132/132
f 64/129/129 61/132/132 70/128/128
f 64/129/129 70/128/128 69/133/133
f 64/129/129 69/133/133 68/134/134
f 64/129/129 68/134/134 67/135/135
f 64/129/129 67/135/135 66/136/136
f 65/137/137 64/129/129 66/136/136
f 138/1/138 139/3/139 140/2/140
f 138/1/138 141/4/141 139/3/139
f 138/1/138 142/5/142 141/4/141
f 138/1/138 143/6/143 142/5/142
f 138/1/138 144/7/144 143/6/143
f 138/1/138 145/8/145 144/7/144
f 138/1/138 146/9/146 145/8/145
f 138/1/138 147/10/147 146/9/146
f 138/1/138 148/11/148 147/10/147
f 138/1/138 149/12/149 148/11/148
f 138/1/138 150/13/150 149/12/149
f 138/1/138 151/14/151 150/13/150
f 152/15/152 151/14/151 138/1/138
f 152/15/152 153/16/153 151/14/151
f 154/17/154 153/16/153 152/15/152
f 155/18/155 153/16/153 154/17/154
f 156/19/156 153/16/153 155/18/155
f 157/20/157 153/16/153 156/19/156
f 158/21/158 153/16/153 157/20/157
f 159/22/159 153/16/153 158/21/158
f 160/23/160 153/16/153 159/22/159
f 161/24/161 153/16/153 160/23/160
f 162/25/162 153/16/153 161/24/161
f 163/26/163 153/16/153 162/25/162
f 164/27/164 165/29/165 166/28/166
f 164/27/164 167/30/167 165/29/165
f 168/31/168 167/30/167 164/27/164
f 168/31/168 169/32/169 167/30/167
f 168/31/168 170/33/170 169/32/169
f 171/34/171 170/33/170 168/31/168
f 171/34/171 172/35/172 170/33/170
f 173/36/173 172/35/172 171/34/171
f 173/36/173 174/37/174 172/35/172
f 173/36/173 175/38/175 174/37/174
f 176/39/176 175/38/175 173/36/173
f 176/39/176 177/40/177 175/38/175
f 178/41/178 177/40/177 176/39/176
f 179/42/179 180/44/180 181/43/181
f 182/45/182 180/44/180 179/42/179
f 182/45/182 183/46/183 180/44/180
f 184/47/184 183/46/183 182/45/182
f 185/48/185 183/46/183 184/47/184
f 185/48/185 186/49/186 183/46/183
f 178/41/178 187/50/187 177/40/177
f 188/51/188 186/49/186 185/48/185
f 188/51/188 189/52/189 186/49/186
f 190/53/190 189/52/189 188/51/188
f 190/53/190 191/54/191 189/52/189
f 192/55/192 191/54/191 190/53/190
f 178/41/178 193/56/193 187/50/187
f 194/57/194 193/56/193 178/41/178
f 195/58/195 191/54/191 192/55/192
f 195/58/195 196/59/196 191/54/191
f 197/60/197 196/59/196 195/58/195
f 197/60/197 198/61/198 196/59/196
f 198/61/198 199/62/199 196/59/196
f 199/62/199 200/63/200 196/59/196
f 194/57/194 201/64/201 193/56/193
f 202/65/202 203/66/203 197/60/197
f 203/66/203 198/61/198 197/60/197
f 202/65/202 204/67/204 203/66/203
f 205/68/205 200/63/200 199/62/199
f 202/65/202 206/69/206 204/67/204
f 207/70/207 200/63/200 205/68/205
f 208/71/208 201/64/201 194/57/194
f 202/65/202 209/72/209 206/69/206
f 210/73/210 200/63/200 207/70/207
f 210/73/210 211/74/211 200/63/200
f 208/71/208 212/75/212 201/64/201
f 213/76/213 209/72/209 202/65/202
f 213/76/213 214/77/214 209/72/209
f 215/78/215 211/74/211 210/73/210
f 213/76/213 216/79/216 214/77/214
f 217/80/217 211/74/211 215/78/215
f 218/81/218 216/79/216 213/76/213
f 217/80/217 219/82/219 211/74/211
f 208/71/208 218/81/218 212/75/212
f 218/81/218 220/83/220 216/79/216
f 221/84/221 219/82/219 217/80/217
f 222/85/222 218/81/218 208/71/208
f 218/81/218 223/86/223 220/83/220
f 224/87/224 219/82/219 221/84/221
f 222/85/222 223/86/223 218/81/218
f 224/87/224 225/88/225 219/82/219
f 222/85/222 226/89/226 223/86/223
f 227/90/227 225/88/225 224/87/224
f 222/85/222 228/91/228 226/89/226
f 229/92/229 228/91/228 222/85/222
f 230/93/230 225/88/225 227/90/227
f 230/93/230 231/94/231 225/88/225
f 229/92/229 232/95/232 228/91/228
f 233/96/233 231/94/231 230/93/230
f 233/96/233 234/97/234 231/94/231
f 235/98/235 232/95/232 229/92/229
f 235/98/235 236/99/236 232/95/232
f 237/100/237 234/97/234 233/96/233
f 235/98/235 238/101/238 236/99/236
f 239/102/239 234/97/234 237/100/237
f 235/98/235 240/103/240 238/101/238
f 239/102/239 241/104/241 234/97/234
f 242/105/242 240/103/240 235/98/235
f 242/105/242 243/106/243 240/103/240
f 242/105/242 244/107/244 243/106/243
f 242/105/242 245/108/245 244/107/244
f 242/105/242 246/109/246 245/108/245
f 242/105/242 247/110/247 246/109/246
f 242/105/242 248/111/248 247/110/247
f 249/112/249 250/113/250 242/105/242
f 250/113/250 251/114/251 242/105/242
f 251/114/251 252/115/252 242/105/242
f 252/115/252 248/111/248 242/105/242
f 253/116/253 241/104/241 239/102/239
f 253/116/253 254/117/254 241/104/241
f 255/118/255 254/117/254 253/116/253
f 255/118/255 256/119/256 254/117/254
f 257/120/257 256/119/256 255/118/255
f 258/121/258 256/119/256 257/120/257
f 258/121/258 259/122/259 256/119/256
f 260/123/260 259/122/259 258/121/258
f 260/123/260 261/124/261 259/122/259
f 262/125/262 261/124/261 260/123/260
f 263/126/263 261/124/261 262/125/262
f 264/127/264 261/124/261 263/126/263
f 264/127/264 265/128/265 261/124/261
f 266/129/266 267/131/267 268/130/268
f 269/132/269 265/128/265 264/127/264
f 266/129/266 269/132/269 267/131/267
f 266/129/266 265/128/265 269/132/269
f 266/129/266 270/133/270 265/128/265
f 266/129/266 271/134/271 270/133/270
f 266/129/266 272/135/272 271/134/271
f 266/129/266 273/136/273 272/135/272
f 274/137/274 273/136/273 266/129/266
f 112/2/2 139/3/139 137/3/3
f 113/1/1 140/2/140 112/2/2
f 137/3/3 141/4/141 136/4/4
f 135/5/5 141/4/141 142/5/142
f 135/5/5 143/6/143 134/6/6
f 133/7/7 143/6/143 144/7/144
f 133/7/7 145/8/145 132/8/8
f 131/9/9 145/8/145 146/9/146
f 131/9/9 147/10/147 130/10/10
f 130/10/10 148/11/148 129/11/11
f 129/11/11 149/12/149 128/12/12
f 128/12/12 150/13/150 127/13/13
f 127/13/13 151/14/151 126/14/14
f 114/15/15 138/1/138 113/1/1
f 125/16/16 151/14/151 153/16/153
f 115/17/17 152/15/152 114/15/15
f 116/18/18 154/17/154 115/17/17
f 117/19/19 155/18/155 116/18/18
f 118/20/20 156/19/156 117/19/19
f 119/21/21 157/20/157 118/20/20
f 120/22/22 158/21/158 119/21/21
f 121/23/23 159/22/159 120/22/22
f 122/24/24 160/23/160 121/23/23
f 123/25/25 161/24/161 122/24/24
f 125/16/16 163/26/163 124/26/26
f 124/26/26 162/25/162 123/25/25
f 2/28/28 165/29/165 1/29/29
f 2/28/28 164/27/164 166/28/166
f 1/29/29 167/30/167 111/30/30
f 4/31/31 164/27/164 3/27/27
f 110/32/32 167/30/167 169/32/169
f 110/32/32 170/33/170 109/33/33
f 4/31/31 171/34/171 168/31/168
f 109/33/33 172/35/172 108/35/35
f 6/36/36 171/34/171 5/34/34
f 107/37/37 172/35/172 174/37/174
f 107/37/37 175/38/175 106/38/38
f 6/36/36 176/39/176 173/36/173
f 105/40/40 175/38/175 177/40/177
f 8/41/41 176/39/176 7/39/39
f 88/43/43 180/44/180 87/44/44
f 88/43/43 179/42/179 181/43/181
f 90/45/45 179/42/179 89/42/42
f 86/46/46 180/44/180 183/46/183
f 91/47/47 182/45/182 90/45/45
f 92/48/48 184/47/184 91/47/47
f 86/46/46 186/49/186 85/49/49
f 105/40/40 187/50/187 104/50/50
f 93/51/51 185/48/185 92/48/48
f 85/49/49 189/52/189 84/52/52
f 93/51/51 190/53/190 188/51/188
f 84/52/52 191/54/191 83/54/54
f 94/53/53 192/55/192 190/53/190
f 104/50/50 193/56/193 103/56/56
f 9/57/57 178/41/178 8/41/41
f 96/58/58 192/55/192 95/55/55
f 83/54/54 196/59/196 82/59/59
f 97/60/60 195/58/195 96/58/58
f 40/62/62 198/61/198 39/61/61
f 81/63/63 196/59/196 200/63/200
f 103/56/56 201/64/201 102/64/64
f 97/60/60 202/65/202 197/60/197
f 39/61/61 203/66/203 38/66/66
f 38/66/66 204/67/204 37/67/67
f 41/68/68 199/62/199 40/62/62
f 37/67/67 206/69/206 36/69/69
f 42/70/70 205/68/205 41/68/68
f 9/57/57 208/71/208 194/57/194
f 35/72/72 206/69/206 209/72/209
f 42/70/70 210/73/210 207/70/207
f 81/63/63 211/74/211 80/74/74
f 102/64/64 212/75/212 101/75/75
f 98/65/65 213/76/213 202/65/202
f 35/72/72 214/77/214 34/77/77
f 43/73/73 215/78/215 210/73/210
f 34/77/77 216/79/216 33/79/79
f 44/78/78 217/80/217 215/78/215
f 99/76/76 218/81/218 213/76/213
f 79/82/82 211/74/211 219/82/219
f 101/75/75 218/81/218 100/81/81
f 33/79/79 220/83/220 32/83/83
f 45/80/80 221/84/221 217/80/217
f 10/71/71 222/85/222 208/71/208
f 31/86/86 220/83/220 223/86/223
f 47/87/87 221/84/221 46/84/84
f 79/82/82 225/88/225 78/88/88
f 31/86/86 226/89/226 30/89/89
f 48/90/90 224/87/224 47/87/87
f 30/89/89 228/91/228 29/91/91
f 12/92/92 222/85/222 11/85/85
f 48/90/90 230/93/230 227/90/227
f 78/88/88 231/94/231 77/94/94
f 29/91/91 232/95/232 28/95/95
f 50/96/96 230/93/230 49/93/93
f 77/94/94 234/97/234 76/97/97
f 13/98/98 229/92/229 12/92/92
f 27/99/99 232/95/232 236/99/236
f 50/96/96 237/100/237 233/96/233
f 27/99/99 238/101/238 26/101/101
f 51/100/100 239/102/239 237/100/237
f 26/101/101 240/103/240 25/103/103
f 76/97/97 241/104/241 75/104/104
f 14/105/105 235/98/235 13/98/98
f 25/103/103 243/106/243 24/106/106
f 24/106/106 244/107/244 23/107/107
f 23/107/107 245/108/245 22/108/108
f 22/108/108 246/109/246 21/109/109
f 21/109/109 247/110/247 20/110/110
f 20/110/110 248/111/248 19/111/111
f 16/113/113 249/112/249 15/112/112
f 15/112/112 242/105/242 14/105/105
f 16/113/113 251/114/251 250/113/250
f 18/115/115 251/114/251 17/114/114
f 19/111/111 252/115/252 18/115/115
f 53/116/116 239/102/239 52/102/102
f 75/104/104 254/117/254 74/117/117
f 53/116/116 255/118/255 253/116/253
f 73/119/119 254/117/254 256/119/256
f 55/120/120 255/118/255 54/118/118
f 55/120/120 258/121/258 257/120/257
f 72/122/122 256/119/256 259/122/259
f 57/123/123 258/121/258 56/121/121
f 71/124/124 259/122/259 261/124/261
f 58/125/125 260/123/260 57/123/123
f 59/126/126 262/125/262 58/125/125
f 60/127/127 263/126/263 59/126/126
f 70/128/128 261/124/261 265/128/265
f 63/130/130 267/131/267 62/131/131
f 64/129/129 268/130/268 63/130/130
f 61/132/132 264/127/264 60/127/127
f 62/131/131 269/132/269 61/132/132
f 69/133/133 265/128/265 270/133/270
f 68/134/134 270/133/270 271/134/271
f 68/134/134 272/135/272 67/135/135
f 66/136/136 272/135/272 273/136/273
f 66/136/136 274/137/274 65/137/137
f 65/137/137 266/129/266 64/129/129
s 0
f 276/138/275 277/139/275 275/140/275
f 278/141/276 281/142/276 277/139/276
f 282/143/277 279/144/277 281/142/277
f 280/145/278 275/146/278 279/144/278
f 281/142/279 275/147/279 277/148/279
f 278/149/280 280/145/280 282/143/280
s 1
f 112/2/2 140/2/140 139/3/139
f 113/1/1 138/1/138 140/2/140
f 137/3/3 139/3/139 141/4/141
f 135/5/5 136/4/4 141/4/141
f 135/5/5 142/5/142 143/6/143
f 133/7/7 134/6/6 143/6/143
f 133/7/7 144/7/144 145/8/145
f 131/9/9 132/8/8 145/8/145
f 131/9/9 146/9/146 147/10/147
f 130/10/10 147/10/147 148/11/148
f 129/11/11 148/11/148 149/12/149
f 128/12/12 149/12/149 150/13/150
f 127/13/13 150/13/150 151/14/151
f 114/15/15 152/15/152 138/1/138
f 125/16/16 126/14/14 151/14/151
f 115/17/17 154/17/154 152/15/152
f 116/18/18 155/18/155 154/17/154
f 117/19/19 156/19/156 155/18/155
f 118/20/20 157/20/157 156/19/156
f 119/21/21 158/21/158 157/20/157
f 120/22/22 159/22/159 158/21/158
f 121/23/23 160/23/160 159/22/159
f 122/24/24 161/24/161 160/23/160
f 123/25/25 162/25/162 161/24/161
f 125/16/16 153/16/153 163/26/163
f 124/26/26 163/26/163 162/25/162
f 2/28/28 166/28/166 165/29/165
f 2/28/28 3/27/27 164/27/164
f 1/29/29 165/29/165 167/30/167
f 4/31/31 168/31/168 164/27/164
f 110/32/32 111/30/30 167/30/167
f 110/32/32 169/32/169 170/33/170
f 4/31/31 5/34/34 171/34/171
f 109/33/33 170/33/170 172/35/172
f 6/36/36 173/36/173 171/34/171
f 107/37/37 108/35/35 172/35/172
f 107/37/37 174/37/174 175/38/175
f 6/36/36 7/39/39 176/39/176
f 105/40/40 106/38/38 175/38/175
f 8/41/41 178/41/178 176/39/176
f 88/43/43 181/43/181 180/44/180
f 88/43/43 89/42/42 179/42/179
f 90/45/45 182/45/182 179/42/179
f 86/46/46 87/44/44 180/44/180
f 91/47/47 184/47/184 182/45/182
f 92/48/48 185/48/185 184/47/184
f 86/46/46 183/46/183 186/49/186
f 105/40/40 177/40/177 187/50/187
f 93/51/51 188/51/188 185/48/185
f 85/49/49 186/49/186 189/52/189
f 93/51/51 94/53/53 190/53/190
f 84/52/52 189/52/189 191/54/191
f 94/53/53 95/55/55 192/55/192
f 104/50/50 187/50/187 193/56/193
f 9/57/57 194/57/194 178/41/178
f 96/58/58 195/58/195 192/55/192
f 83/54/54 191/54/191 196/59/196
f 97/60/60 197/60/197 195/58/195
f 40/62/62 199/62/199 198/61/198
f 81/63/63 82/59/59 196/59/196
f 103/56/56 193/56/193 201/64/201
f 97/60/60 98/65/65 202/65/202
f 39/61/61 198/61/198 203/66/203
f 38/66/66 203/66/203 204/67/204
f 41/68/68 205/68/205 199/62/199
f 37/67/67 204/67/204 206/69/206
f 42/70/70 207/70/207 205/68/205
f 9/57/57 10/71/71 208/71/208
f 35/72/72 36/69/69 206/69/206
f 42/70/70 43/73/73 210/73/210
f 81/63/63 200/63/200 211/74/211
f 102/64/64 201/64/201 212/75/212
f 98/65/65 99/76/76 213/76/213
f 35/72/72 209/72/209 214/77/214
f 43/73/73 44/78/78 215/78/215
f 34/77/77 214/77/214 216/79/216
f 44/78/78 45/80/80 217/80/217
f 99/76/76 100/81/81 218/81/218
f 79/82/82 80/74/74 211/74/211
f 101/75/75 212/75/212 218/81/218
f 33/79/79 216/79/216 220/83/220
f 45/80/80 46/84/84 221/84/221
f 10/71/71 11/85/85 222/85/222
f 31/86/86 32/83/83 220/83/220
f 47/87/87 224/87/224 221/84/221
f 79/82/82 219/82/219 225/88/225
f 31/86/86 223/86/223 226/89/226
f 48/90/90 227/90/227 224/87/224
f 30/89/89 226/89/226 228/91/228
f 12/92/92 229/92/229 222/85/222
f 48/90/90 49/93/93 230/93/230
f 78/88/88 225/88/225 231/94/231
f 29/91/91 228/91/228 232/95/232
f 50/96/96 233/96/233 230/93/230
f 77/94/94 231/94/231 234/97/234
f 13/98/98 235/98/235 229/92/229
f 27/99/99 28/95/95 232/95/232
f 50/96/96 51/100/100 237/100/237
f 27/99/99 236/99/236 238/101/238
f 51/100/100 52/102/102 239/102/239
f 26/101/101 238/101/238 240/103/240
f 76/97/97 234/97/234 241/104/241
f 14/105/105 242/105/242 235/98/235
f 25/103/103 240/103/240 243/106/243
f 24/106/106 243/106/243 244/107/244
f 23/107/107 244/107/244 245/108/245
f 22/108/108 245/108/245 246/109/246
f 21/109/109 246/109/246 247/110/247
f 20/110/110 247/110/247 248/111/248
f 16/113/113 250/113/250 249/112/249
f 15/112/112 249/112/249 242/105/242
f 16/113/113 17/114/114 251/114/251
f 18/115/115 252/115/252 251/114/251
f 19/111/111 248/111/248 252/115/252
f 53/116/116 253/116/253 239/102/239
f 75/104/104 241/104/241 254/117/254
f 53/116/116 54/118/118 255/118/255
f 73/119/119 74/117/117 254/117/254
f 55/120/120 257/120/257 255/118/255
f 55/120/120 56/121/121 258/121/258
f 72/122/122 73/119/119 256/119/256
f 57/123/123 260/123/260 258/121/258
f 71/124/124 72/122/122 259/122/259
f 58/125/125 262/125/262 260/123/260
f 59/126/126 263/126/263 262/125/262
f 60/127/127 264/127/264 263/126/263
f 70/128/128 71/124/124 261/124/261
f 63/130/130 268/130/268 267/131/267
f 64/129/129 266/129/266 268/130/268
f 61/132/132 269/132/269 264/127/264
f 62/131/131 267/131/267 269/132/269
f 69/133/133 70/128/128 265/128/265
f 68/134/134 69/133/133 270/133/270
f 68/134/134 271/134/271 272/135/272
f 66/136/136 67/135/135 272/135/272
f 66/136/136 273/136/273 274/137/274
f 65/137/137 274/137/274 266/129/266
s 0
f 276/138/275 278/141/275 277/139/275
f 278/141/276 282/143/276 281/142/276
f 282/143/277 280/145/277 279/144/277
f 280/145/278 276/150/278 275/146/278
f 281/142/279 279/144/279 275/147/279
f 278/149/280 276/151/280 280/145/280
