# Blender 4.4.1
# www.blender.org
mtllib Title_Ice3.mtl
o 3.ら
v -0.320451 0.000000 -0.452956
v -0.464930 0.000000 -0.471876
v -0.468167 0.000000 -0.423186
v -0.472623 0.000000 -0.368309
v -0.478153 0.000000 -0.308583
v -0.484615 0.000000 -0.245345
v -0.491865 0.000000 -0.179934
v -0.499760 0.000000 -0.113686
v -0.508157 0.000000 -0.047940
v -0.516912 0.000000 0.015967
v -0.525883 0.000000 0.076697
v -0.534925 0.000000 0.132911
v -0.543895 0.000000 0.183273
v -0.552650 0.000000 0.226444
v -0.425370 0.000000 0.257404
v -0.422680 0.000000 0.250489
v -0.419757 0.000000 0.243509
v -0.416582 0.000000 0.236469
v -0.413139 0.000000 0.229375
v -0.409410 0.000000 0.222233
v -0.405375 0.000000 0.215049
v -0.401019 0.000000 0.207830
v -0.396322 0.000000 0.200581
v -0.391266 0.000000 0.193307
v -0.385834 0.000000 0.186016
v -0.380008 0.000000 0.178713
v -0.373770 0.000000 0.171404
v -0.342323 0.000000 0.136519
v -0.308235 0.000000 0.104165
v -0.271592 0.000000 0.074439
v -0.232476 0.000000 0.047437
v -0.190971 0.000000 0.023253
v -0.147161 0.000000 0.001984
v -0.101129 0.000000 -0.016275
v -0.052959 0.000000 -0.031428
v -0.002734 0.000000 -0.043381
v 0.049461 0.000000 -0.052036
v 0.103543 0.000000 -0.057300
v 0.159430 0.000000 -0.059076
v 0.202240 0.000000 -0.057067
v 0.242770 0.000000 -0.051176
v 0.280743 0.000000 -0.041607
v 0.315886 0.000000 -0.028562
v 0.347922 0.000000 -0.012244
v 0.376579 0.000000 0.007144
v 0.401581 0.000000 0.029399
v 0.422653 0.000000 0.054317
v 0.439520 0.000000 0.081696
v 0.451909 0.000000 0.111332
v 0.459543 0.000000 0.143022
v 0.462150 0.000000 0.176564
v 0.456624 0.000000 0.233742
v 0.440013 0.000000 0.287122
v 0.412270 0.000000 0.336202
v 0.373347 0.000000 0.380480
v 0.323196 0.000000 0.419455
v 0.261770 0.000000 0.452624
v 0.189021 0.000000 0.479487
v 0.104900 0.000000 0.499542
v 0.009360 0.000000 0.512287
v -0.097646 0.000000 0.517220
v -0.216167 0.000000 0.513839
v -0.346250 0.000000 0.501644
v -0.304970 0.000000 0.642684
v -0.152623 0.000000 0.650661
v -0.015277 0.000000 0.648306
v 0.107400 0.000000 0.636181
v 0.215744 0.000000 0.614846
v 0.310089 0.000000 0.584863
v 0.390770 0.000000 0.546794
v 0.458121 0.000000 0.501200
v 0.512476 0.000000 0.448643
v 0.554170 0.000000 0.389683
v 0.583538 0.000000 0.324883
v 0.600913 0.000000 0.254802
v 0.606629 0.000000 0.180004
v 0.603025 0.000000 0.130657
v 0.592415 0.000000 0.083501
v 0.575105 0.000000 0.038937
v 0.551398 0.000000 -0.002634
v 0.521599 0.000000 -0.040814
v 0.486014 0.000000 -0.075201
v 0.444946 0.000000 -0.105395
v 0.398700 0.000000 -0.130997
v 0.347580 0.000000 -0.151606
v 0.291893 0.000000 -0.166823
v 0.231940 0.000000 -0.176246
v 0.168030 0.000000 -0.179476
v 0.116792 0.000000 -0.178106
v 0.066295 0.000000 -0.173965
v 0.016562 0.000000 -0.167006
v -0.032382 0.000000 -0.157179
v -0.080514 0.000000 -0.144439
v -0.127810 0.000000 -0.128736
v -0.174246 0.000000 -0.110023
v -0.219798 0.000000 -0.088252
v -0.264442 0.000000 -0.063376
v -0.308155 0.000000 -0.035346
v -0.350913 0.000000 -0.004115
v -0.392691 0.000000 0.030364
v -0.387754 0.000000 -0.000036
v -0.382442 0.000000 -0.035537
v -0.376807 0.000000 -0.075147
v -0.370904 0.000000 -0.117874
v -0.364785 0.000000 -0.162728
v -0.358505 0.000000 -0.208716
v -0.352118 0.000000 -0.254847
v -0.345677 0.000000 -0.300130
v -0.339236 0.000000 -0.343574
v -0.332849 0.000000 -0.384188
v -0.326569 0.000000 -0.420978
v -0.282610 -0.000000 -0.765996
v -0.317010 0.000000 -0.635276
v -0.279540 0.000000 -0.625475
v -0.233534 0.000000 -0.614349
v -0.180566 0.000000 -0.602220
v -0.122204 0.000000 -0.589409
v -0.060020 0.000000 -0.576240
v 0.004415 0.000000 -0.563036
v 0.069531 0.000000 -0.550118
v 0.133757 0.000000 -0.537809
v 0.195523 0.000000 -0.526432
v 0.253257 0.000000 -0.516309
v 0.305390 0.000000 -0.507763
v 0.350350 0.000000 -0.501116
v 0.383030 0.000000 -0.633556
v 0.340961 0.000000 -0.638165
v 0.291440 0.000000 -0.644919
v 0.235970 0.000000 -0.653524
v 0.176056 0.000000 -0.663688
v 0.113204 0.000000 -0.675118
v 0.048920 0.000000 -0.687521
v -0.015294 0.000000 -0.700605
v -0.077930 0.000000 -0.714077
v -0.137486 0.000000 -0.727645
v -0.192454 0.000000 -0.741016
v -0.241331 0.000000 -0.753897
v -0.317010 0.199906 -0.635276
v -0.241331 0.199906 -0.753897
v -0.282610 0.199906 -0.765996
v -0.192454 0.199906 -0.741016
v -0.137486 0.199906 -0.727645
v -0.077930 0.199906 -0.714077
v -0.015294 0.199906 -0.700605
v 0.048920 0.199906 -0.687521
v 0.113204 0.199906 -0.675118
v 0.176056 0.199906 -0.663688
v 0.235970 0.199906 -0.653524
v 0.291440 0.199906 -0.644919
v 0.340961 0.199906 -0.638165
v 0.383030 0.199906 -0.633556
v -0.279540 0.199906 -0.625475
v 0.350350 0.199906 -0.501116
v -0.233534 0.199906 -0.614349
v -0.180566 0.199906 -0.602220
v -0.122204 0.199906 -0.589409
v -0.060020 0.199906 -0.576240
v 0.004415 0.199906 -0.563036
v 0.069531 0.199906 -0.550118
v 0.133757 0.199906 -0.537809
v 0.195523 0.199906 -0.526432
v 0.253257 0.199906 -0.516309
v 0.305390 0.199906 -0.507763
v -0.468167 0.199906 -0.423186
v -0.320451 0.199906 -0.452956
v -0.464930 0.199906 -0.471876
v -0.326569 0.199906 -0.420979
v -0.472623 0.199906 -0.368310
v -0.332849 0.199906 -0.384188
v -0.339236 0.199906 -0.343574
v -0.478153 0.199906 -0.308583
v -0.345677 0.199906 -0.300131
v -0.484615 0.199906 -0.245345
v -0.352118 0.199906 -0.254847
v -0.358505 0.199906 -0.208716
v -0.491865 0.199906 -0.179934
v -0.364785 0.199906 -0.162728
v -0.499760 0.199906 -0.113686
v 0.116792 0.199906 -0.178106
v 0.231940 0.199906 -0.176246
v 0.168030 0.199906 -0.179476
v 0.066295 0.199906 -0.173965
v 0.291893 0.199906 -0.166823
v 0.016562 0.199906 -0.167006
v -0.032382 0.199906 -0.157179
v 0.347580 0.199906 -0.151606
v -0.370904 0.199906 -0.117874
v -0.080514 0.199906 -0.144439
v 0.398700 0.199906 -0.130997
v -0.127810 0.199906 -0.128736
v 0.444946 0.199906 -0.105395
v -0.174246 0.199906 -0.110023
v -0.376807 0.199906 -0.075147
v -0.508157 0.199906 -0.047940
v -0.219798 0.199906 -0.088252
v 0.486014 0.199906 -0.075201
v -0.264442 0.199906 -0.063376
v 0.159430 0.199906 -0.059076
v 0.202240 0.199906 -0.057067
v 0.521599 0.199906 -0.040814
v -0.382442 0.199906 -0.035537
v -0.308155 0.199906 -0.035346
v 0.103543 0.199906 -0.057300
v 0.049461 0.199906 -0.052036
v 0.242770 0.199906 -0.051177
v -0.002734 0.199906 -0.043381
v 0.280743 0.199906 -0.041607
v -0.516912 0.199907 0.015967
v -0.052959 0.199906 -0.031428
v 0.315886 0.199906 -0.028562
v 0.551398 0.199906 -0.002634
v -0.387754 0.199906 -0.000036
v -0.350913 0.199906 -0.004115
v -0.101129 0.199906 -0.016275
v 0.347922 0.199906 -0.012244
v -0.147161 0.199906 0.001984
v 0.376579 0.199906 0.007144
v -0.392691 0.199907 0.030364
v 0.575105 0.199907 0.038937
v -0.190971 0.199907 0.023253
v 0.401581 0.199907 0.029399
v -0.525883 0.199907 0.076697
v -0.232476 0.199907 0.047437
v 0.422653 0.199907 0.054317
v 0.592415 0.199907 0.083501
v -0.271592 0.199907 0.074439
v 0.439520 0.199907 0.081695
v -0.308235 0.199907 0.104165
v -0.534925 0.199907 0.132911
v 0.451909 0.199907 0.111332
v 0.603025 0.199907 0.130657
v -0.342323 0.199907 0.136519
v 0.459543 0.199907 0.143022
v 0.606629 0.199907 0.180004
v -0.543895 0.199907 0.183273
v -0.373770 0.199907 0.171404
v 0.462150 0.199907 0.176564
v -0.380008 0.199907 0.178713
v 0.456624 0.199907 0.233742
v -0.385834 0.199907 0.186016
v 0.600913 0.199907 0.254802
v -0.552650 0.199907 0.226444
v -0.391266 0.199907 0.193307
v -0.396322 0.199907 0.200581
v -0.401019 0.199907 0.207830
v -0.405375 0.199907 0.215049
v -0.409410 0.199907 0.222233
v -0.413139 0.199907 0.229375
v -0.425370 0.199907 0.257404
v -0.422680 0.199907 0.250489
v -0.419757 0.199907 0.243509
v -0.416582 0.199907 0.236469
v 0.440013 0.199907 0.287122
v 0.583538 0.199907 0.324882
v 0.412270 0.199907 0.336202
v 0.554170 0.199907 0.389683
v 0.373347 0.199907 0.380480
v 0.323196 0.199907 0.419454
v 0.512476 0.199907 0.448643
v 0.261770 0.199907 0.452624
v 0.458121 0.199907 0.501200
v 0.189021 0.199907 0.479487
v 0.104900 0.199907 0.499542
v 0.009360 0.199907 0.512287
v 0.390770 0.199907 0.546794
v -0.304970 0.199907 0.642684
v -0.216167 0.199907 0.513839
v -0.346250 0.199907 0.501644
v -0.097646 0.199907 0.517220
v 0.310089 0.199907 0.584863
v 0.215744 0.199907 0.614846
v 0.107400 0.199907 0.636181
v -0.015277 0.199907 0.648306
v -0.152623 0.199907 0.650661
v -1.000000 -1.000000 1.000000
v -1.000000 1.000000 1.000000
v -1.000000 -1.000000 -1.000000
v -1.000000 1.000000 -1.000000
v 1.000000 -1.000000 1.000000
v 1.000000 1.000000 1.000000
v 1.000000 -1.000000 -1.000000
v 1.000000 1.000000 -1.000000
vn 0.1376 -0.7067 -0.6940
vn -0.1402 -0.7050 0.6952
vn 0.1449 -0.7070 -0.6923
vn -0.0000 -1.0000 -0.0000
vn -0.0171 -0.9998 -0.0096
vn -0.0182 -0.9998 -0.0085
vn -0.1357 0.7050 0.6961
vn 0.1303 0.7069 -0.6952
vn 0.1377 0.7068 -0.6939
vn -0.7041 0.7068 -0.0686
vn 0.6994 0.7067 0.1069
vn -0.7046 0.7070 -0.0613
vn 0.2097 -0.0000 -0.9778
vn 0.0741 0.6942 -0.7160
vn 0.1505 0.6963 -0.7018
vn -0.1678 -0.0000 -0.9858
vn -0.0786 0.7011 -0.7087
vn -0.1102 -0.0000 -0.9939
vn -0.1618 0.7000 -0.6956
vn -0.1195 0.7019 -0.7021
vn 0.2299 0.6937 -0.6826
vn 0.3193 -0.0000 -0.9477
vn 0.9908 -0.0000 0.1352
vn 0.6994 0.7083 0.0960
vn 0.9907 -0.0000 0.1360
vn -0.2856 -0.0000 -0.9583
vn -0.2265 -0.0000 -0.9740
vn 0.3100 0.6929 -0.6510
vn 0.4299 -0.0000 -0.9029
vn -0.2461 0.7004 -0.6700
vn -0.2038 0.7016 -0.6828
vn 0.3893 0.6922 -0.6077
vn 0.5395 -0.0000 -0.8420
vn -0.3446 -0.0000 -0.9387
vn -0.2877 0.6997 -0.6539
vn 0.6995 0.7079 0.0980
vn 0.9903 -0.0000 0.1389
vn -0.9916 0.0016 -0.1296
vn -0.6994 0.7095 -0.0863
vn -0.9925 -0.0000 -0.1225
vn -0.4592 -0.0000 -0.8883
vn -0.4027 -0.0000 -0.9153
vn 0.4660 0.6914 -0.5521
vn 0.6451 -0.0000 -0.7641
vn -0.5135 -0.0000 -0.8581
vn -0.3278 0.7004 -0.6340
vn -0.0771 0.0191 0.9968
vn -0.0052 0.7190 0.6950
vn 0.0074 0.0153 0.9999
vn 0.5376 0.6906 -0.4837
vn 0.7434 -0.0000 -0.6688
vn 0.9895 -0.0000 0.1444
vn 0.6991 0.7077 0.1020
vn -0.4032 0.7007 -0.5887
vn -0.3659 0.7016 -0.6114
vn 0.0448 0.7170 0.6956
vn 0.0767 0.0127 0.9970
vn 0.0908 0.7173 0.6908
vn 0.1430 0.0131 0.9896
vn -0.1753 0.0201 0.9843
vn -0.0661 0.7216 0.6891
vn 0.1375 0.7184 0.6819
vn 0.2105 0.0135 0.9775
vn -0.2768 0.0214 0.9607
vn -0.1344 0.7224 0.6783
vn -0.6973 0.7098 -0.0992
vn -0.6987 0.7094 -0.0924
vn 0.2790 0.0139 0.9602
vn 0.1854 0.7165 0.6724
vn -0.2768 0.7242 0.6316
vn -0.2056 0.7209 0.6619
vn 0.6025 0.6884 -0.4038
vn 0.8307 -0.0000 -0.5568
vn 0.6989 0.7068 0.1091
vn 0.9880 -0.0000 0.1541
vn -0.5651 -0.0000 -0.8250
vn -0.4376 0.7009 -0.5633
vn 0.2329 0.7181 0.6558
vn 0.3476 0.0142 0.9375
vn -0.3814 0.0227 0.9241
vn -0.3497 0.7254 0.5929
vn 0.2804 0.7183 0.6367
vn 0.4158 0.0145 0.9093
vn -0.4877 0.0243 0.8727
vn -0.4219 0.7266 0.5423
vn -0.6134 -0.0000 -0.7897
vn -0.0110 0.9998 0.0190
vn 0.9029 -0.0000 -0.4299
vn 0.6515 0.6923 -0.3102
vn 0.3016 0.4779 -0.8250
vn 0.3268 0.7194 0.6129
vn 0.4830 0.0147 0.8755
vn -0.5939 0.0261 0.8041
vn -0.4894 0.7299 0.4772
vn -0.9903 0.0020 -0.1389
vn -0.6959 0.7101 -0.1073
vn 0.5483 0.0150 0.8361
vn 0.3737 0.7172 0.5882
vn -0.7926 0.0296 0.6090
vn -0.6971 0.0277 0.7165
vn 0.6929 0.6894 -0.2112
vn 0.9565 -0.0000 -0.2916
vn 0.4168 0.7188 0.5565
vn 0.6111 0.0151 0.7914
vn -0.8755 0.0310 0.4822
vn -0.5543 0.7291 0.4014
vn 0.4586 0.7188 0.5224
vn 0.6707 0.0152 0.7416
vn -0.9887 0.0024 -0.1501
vn -0.6935 0.7108 -0.1176
vn -0.6468 0.7327 0.2116
vn -0.6114 0.7264 0.3139
vn 0.7164 0.6895 -0.1062
vn 0.9892 -0.0000 -0.1466
vn 0.4972 0.7197 0.4845
vn 0.7263 0.0151 0.6873
vn -0.9821 0.0315 0.1857
vn -0.9403 0.0313 0.3388
vn 0.7253 0.6884 0.0012
vn 1.0000 -0.0000 0.0017
vn -0.9832 0.0046 -0.1826
vn -0.9865 0.0032 -0.1640
vn 0.7552 0.0053 0.6555
vn 0.5283 0.7115 0.4633
vn -0.6808 0.7325 -0.0064
vn -0.6785 0.7267 0.1074
vn 0.5407 0.7131 0.4462
vn 0.7753 0.0064 0.6316
vn -0.9991 0.0344 0.0230
vn -0.6637 0.7359 -0.1338
vn 0.5552 0.7131 0.4280
vn 0.7957 0.0064 0.6056
vn 0.9873 -0.0000 0.1590
vn 0.7143 0.6903 0.1150
vn -0.9800 -0.0000 -0.1988
vn -0.6902 0.7116 -0.1314
vn 0.5689 0.7131 0.4096
vn 0.8153 0.0064 0.5790
vn 0.5822 0.7131 0.3906
vn 0.8337 0.0063 0.5521
vn 0.5944 0.7130 0.3720
vn 0.8510 0.0062 0.5251
vn 0.6056 0.7134 0.3526
vn 0.8671 0.0061 0.4980
vn 0.8820 0.0059 0.4712
vn 0.6174 0.7119 0.3346
vn 0.6266 0.7126 0.3156
vn 0.8956 0.0057 0.4448
vn 0.9291 0.0050 0.3699
vn 0.7093 0.3256 0.6252
vn 0.9319 -0.0000 0.3626
vn -0.2364 -0.0000 0.9717
vn -0.5200 0.3180 0.7927
vn 0.6432 0.7127 0.2797
vn 0.6517 0.7114 0.2632
vn 0.9080 0.0055 0.4189
vn 0.9191 0.0052 0.3939
vn 0.6355 0.7125 0.2975
vn -0.9863 0.0408 -0.1601
vn -0.6204 0.7370 -0.2682
vn 0.6886 0.6846 0.2392
vn 0.9447 -0.0000 0.3281
vn -0.9320 0.0423 -0.3601
vn -0.5497 0.7383 -0.3908
vn 0.8676 -0.0000 0.4973
vn 0.6319 0.6852 0.3622
vn -0.7101 0.0376 -0.7031
vn -0.8359 0.0408 -0.5474
vn -0.3720 0.7317 -0.5711
vn -0.4683 0.7302 -0.4974
vn 0.7591 -0.0000 0.6510
vn 0.5525 0.6857 0.4738
vn -0.4356 0.0278 -0.8997
vn -0.5714 0.0325 -0.8200
vn 0.6302 -0.0000 0.7764
vn 0.4577 0.6875 0.5638
vn -0.3111 0.0235 -0.9501
vn -0.2828 0.7266 -0.6261
vn -0.2010 0.0198 -0.9794
vn -0.2000 0.7236 -0.6606
vn -0.1055 0.0169 -0.9943
vn -0.1263 0.7211 -0.6813
vn 0.4951 -0.0000 0.8688
vn 0.3584 0.6899 0.6289
vn 0.0933 -0.0000 -0.9956
vn 0.0424 0.7162 -0.6966
vn 0.0486 0.0126 -0.9987
vn -0.9597 -0.0000 0.2809
vn -0.9572 0.2887 -0.0206
vn -0.0229 0.0145 -0.9996
vn -0.0620 0.7191 -0.6922
vn -0.0061 0.7174 -0.6966
vn 0.3656 -0.0000 0.9308
vn 0.2639 0.6926 0.6713
vn 0.2484 -0.0000 0.9686
vn 0.1784 0.6960 0.6955
vn 0.1045 0.6972 0.7093
vn 0.1460 -0.0000 0.9893
vn 0.0414 0.6990 0.7139
vn 0.0578 -0.0000 0.9983
vn -0.0125 0.7005 0.7136
vn -0.0176 -0.0000 0.9998
vn -0.3898 0.3447 0.8539
vn -0.0523 -0.0000 0.9986
vn -0.0480 -0.3128 -0.9486
vn 0.1882 0.7122 -0.6763
vn 0.1880 -0.7121 -0.6764
vn -0.9461 -0.3147 0.0767
vn -0.7877 0.3128 -0.5308
vn -0.7877 -0.3129 -0.5307
vn 0.1727 0.7112 -0.6815
vn 0.1728 -0.7106 -0.6820
vn 0.1612 -0.7105 -0.6850
vn 0.1613 0.7101 -0.6853
vn 0.1522 0.7102 -0.6874
vn 0.1523 -0.7098 -0.6877
vn 0.1443 -0.7100 -0.6893
vn 0.1444 0.7097 -0.6895
vn 0.1370 0.7097 -0.6910
vn 0.1371 -0.7096 -0.6911
vn 0.1297 0.7098 -0.6923
vn 0.1298 -0.7099 -0.6923
vn 0.1219 0.7100 -0.6936
vn 0.1219 -0.7099 -0.6937
vn 0.1129 0.7103 -0.6948
vn 0.1128 -0.7103 -0.6948
vn 0.1014 0.7109 -0.6960
vn 0.1015 -0.7109 -0.6959
vn 0.0857 0.7119 -0.6970
vn 0.0858 -0.7120 -0.6969
vn 0.4015 0.3051 -0.8635
vn 0.4016 -0.3051 -0.8635
vn -0.1729 -0.7060 0.6868
vn -0.5313 0.3147 0.7866
vn -0.5311 -0.3150 0.7866
vn 0.9489 -0.3051 -0.0801
vn 0.7868 0.3225 0.5263
vn 0.7868 -0.3224 0.5263
vn -0.1619 -0.7069 0.6885
vn -0.1728 0.7061 0.6867
vn -0.1547 -0.7073 0.6898
vn -0.1622 0.7069 0.6885
vn -0.1489 -0.7075 0.6908
vn -0.1546 0.7073 0.6898
vn -0.1441 -0.7077 0.6917
vn -0.1491 0.7075 0.6908
vn -0.1394 -0.7077 0.6926
vn -0.1441 0.7077 0.6917
vn -0.1352 -0.7076 0.6936
vn -0.1397 0.7077 0.6926
vn -0.1306 0.7076 0.6945
vn -0.1353 0.7078 0.6934
vn -0.1304 -0.7076 0.6945
vn -0.1250 0.7073 0.6958
vn -0.1183 -0.7069 0.6973
vn -0.1251 -0.7075 0.6955
vn 0.1888 -0.3225 0.9276
vn -0.1090 0.7063 0.6995
vn -0.1090 -0.7067 0.6990
vn -0.1181 0.7072 0.6970
vn 0.1298 -0.0000 -0.9915
vn 0.4246 0.3104 -0.8505
vn -0.9978 -0.0000 -0.0663
vn -0.7017 0.7106 -0.0518
vn -0.8761 0.3101 -0.3690
vn 0.9822 -0.0000 0.1879
vn 0.6916 0.7114 0.1251
vn 0.9847 0.0039 0.1743
vn -0.9964 0.0022 -0.0844
vn -0.9975 0.0027 -0.0709
vn 0.9872 0.0025 0.1594
vn 0.6950 0.7099 0.1139
vn 0.6965 0.7096 0.1064
vn 0.9888 0.0016 0.1494
vn -0.7011 0.7098 -0.0684
vn -0.7018 0.7097 -0.0610
vn 0.6976 0.7093 0.1013
vn 0.9898 0.0011 0.1426
vn -0.9945 0.0016 -0.1043
vn -0.9955 0.0018 -0.0951
vn 0.6985 0.7088 0.0980
vn 0.9903 -0.0000 0.1390
vn 0.6989 0.7087 0.0961
vn 0.9907 -0.0000 0.1362
vn -0.6999 0.7097 -0.0805
vn -0.7008 0.7095 -0.0746
vn 0.6992 0.7085 0.0954
vn -0.9936 0.0016 -0.1127
vn 0.0119 -0.0000 -0.9999
vn 0.1030 -0.0000 -0.9947
vn -0.0542 -0.0000 -0.9985
vn 0.0085 0.6986 -0.7155
vn -0.0387 0.7014 -0.7117
vn 0.0428 0.7131 -0.6998
vn -0.4976 0.5972 0.6291
vn -0.0125 0.6980 0.7160
vn -0.0061 0.7142 -0.6999
vn 0.0415 0.6967 0.7162
vn -0.0623 0.7156 -0.6957
vn 0.1050 0.6951 0.7112
vn -0.1270 0.7173 -0.6851
vn 0.1791 0.6932 0.6982
vn -0.2011 0.7195 -0.6648
vn 0.2643 0.6910 0.6728
vn -0.2849 0.7220 -0.6305
vn 0.3590 0.6888 0.6299
vn -0.3763 0.7248 -0.5771
vn 0.4582 0.6867 0.5644
vn -0.4702 0.7276 -0.4996
vn 0.5529 0.6853 0.4740
vn -0.5573 0.7297 -0.3961
vn 0.6321 0.6850 0.3623
vn -0.6268 0.7305 -0.2711
vn 0.6876 0.6857 0.2387
vn -0.6704 0.7296 -0.1353
vn 0.7170 0.6874 0.1154
vn -0.6879 0.7258 -0.0065
vn 0.7245 0.6893 0.0012
vn 0.7166 0.6894 -0.1062
vn -0.6813 0.7241 0.1078
vn 0.6930 0.6893 -0.2113
vn -0.6555 0.7241 0.2144
vn 0.6540 0.6895 -0.3114
vn -0.6140 0.7237 0.3150
vn -0.5595 0.7230 0.4053
vn 0.6014 0.6898 -0.4031
vn 0.5378 0.6903 -0.4839
vn -0.4954 0.7220 0.4830
vn 0.4663 0.6909 -0.5524
vn -0.4255 0.7210 0.5470
vn 0.3896 0.6915 -0.6082
vn -0.3527 0.7199 0.5978
vn 0.3102 0.6922 -0.6516
vn -0.2792 0.7190 0.6365
vn 0.2302 0.6928 -0.6834
vn -0.2065 0.7182 0.6646
vn 0.1511 0.6934 -0.7045
vn -0.1354 0.7175 0.6833
vn 0.0741 0.6940 -0.7161
vn -0.0666 0.7169 0.6940
vn 0.0085 0.6971 -0.7169
vn -0.0053 0.7147 0.6994
vn -0.0388 0.6996 -0.7135
vn 0.0451 0.7131 0.6996
vn -0.0788 0.6993 -0.7105
vn 0.0913 0.7134 0.6948
vn -0.1200 0.6991 -0.7049
vn 0.1384 0.7136 0.6867
vn -0.1620 0.6989 -0.6966
vn 0.1862 0.7138 0.6751
vn -0.2044 0.6988 -0.6855
vn 0.2342 0.7140 0.6598
vn -0.2466 0.6987 -0.6715
vn 0.2820 0.7142 0.6406
vn -0.2881 0.6987 -0.6548
vn 0.3292 0.7143 0.6176
vn -0.3285 0.6987 -0.6355
vn 0.3751 0.7144 0.5906
vn -0.3674 0.6988 -0.6138
vn 0.4194 0.7145 0.5600
vn -0.4042 0.6989 -0.5900
vn 0.4615 0.7146 0.5258
vn -0.4387 0.6991 -0.5646
vn 0.5009 0.7146 0.4883
vn 0.0955 0.9813 -0.1673
vn 0.6092 0.7093 0.3548
vn 0.5976 0.7094 0.3738
vn -1.0000 -0.0000 -0.0000
vn -0.0000 -0.0000 -1.0000
vn 1.0000 -0.0000 -0.0000
vn -0.0000 -0.0000 1.0000
vn -0.0000 1.0000 -0.0000
vn 0.0861 -0.7087 -0.7002
vn 0.6732 -0.5707 -0.4703
vn 0.4529 -0.5825 0.6750
vn -0.1094 -0.7040 0.7018
vn -0.1187 -0.7045 0.6997
vn 0.1018 -0.7078 -0.6990
vn -0.1256 -0.7047 0.6983
vn 0.1133 -0.7073 -0.6978
vn -0.1310 -0.7049 0.6971
vn 0.1224 -0.7070 -0.6966
vn -0.1358 -0.7050 0.6961
vn 0.1302 -0.7069 -0.6952
vn -0.1446 -0.7050 0.6943
vn -0.1496 -0.7049 0.6934
vn 0.1528 -0.7071 -0.6904
vn -0.1553 -0.7047 0.6923
vn 0.1620 -0.7074 -0.6880
vn -0.1627 -0.7043 0.6910
vn 0.1734 -0.7079 -0.6847
vn -0.1735 -0.7036 0.6891
vn 0.1891 -0.7089 -0.6796
vn -0.7050 -0.5773 0.4119
vn -0.4020 -0.5759 -0.7118
vn -0.0148 -0.9998 -0.0112
vn -0.0136 -0.9998 -0.0118
vn -0.0153 -0.9998 -0.0154
vn -0.0173 -0.9996 -0.0207
vn -0.0160 -0.9996 -0.0235
vn -0.0142 -0.9995 -0.0266
vn -0.0119 -0.9995 -0.0298
vn -0.0089 -0.9994 -0.0332
vn -0.0049 -0.9993 -0.0366
vn 0.0001 -0.9992 -0.0395
vn 0.0062 -0.9991 -0.0414
vn 0.0129 -0.9990 -0.0417
vn 0.0198 -0.9990 -0.0401
vn 0.0258 -0.9990 -0.0363
vn 0.0344 -0.9988 -0.0346
vn 0.0478 -0.9983 -0.0327
vn 0.0556 -0.9982 -0.0229
vn 0.0573 -0.9983 -0.0105
vn 0.0531 -0.9986 0.0009
vn 0.0455 -0.9989 0.0090
vn 0.0370 -0.9992 0.0136
vn 0.0295 -0.9994 0.0155
vn 0.0233 -0.9996 0.0157
vn 0.0184 -0.9997 0.0152
vn 0.0147 -0.9998 0.0143
vn 0.0119 -0.9998 0.0133
vn -0.0160 -0.9998 -0.0105
vn -0.0192 -0.9998 -0.0073
vn -0.0207 -0.9998 -0.0045
vn -0.0200 -0.9998 -0.0060
vn 0.0122 -0.4741 0.8804
vn -0.0214 -0.9998 -0.0013
vn -0.0212 -0.9998 -0.0029
vn 0.0019 -1.0000 -0.0015
vn 0.0023 -1.0000 -0.0017
vn 0.0017 -1.0000 -0.0014
vn -0.0007 -1.0000 0.0005
vn 0.0018 -1.0000 -0.0014
vn -0.0012 -1.0000 0.0009
vn 0.0020 -1.0000 -0.0016
vn -0.0045 -1.0000 0.0031
vn 0.0030 -1.0000 -0.0026
vn -0.0028 -1.0000 0.0020
vn 0.0023 -1.0000 -0.0020
vn -0.0019 -1.0000 0.0014
vn 0.0028 -1.0000 -0.0020
vn 0.0036 -1.0000 -0.0026
vn -0.0090 -1.0000 0.0009
vn -0.0074 -1.0000 0.0005
vn -0.0064 -1.0000 0.0027
vn 0.0054 -1.0000 -0.0037
vn -0.0069 -1.0000 0.0027
vn -0.0085 -1.0000 0.0020
vn -0.0215 -0.9998 0.0004
vn -0.0073 -1.0000 0.0027
vn -0.0076 -1.0000 0.0025
vn -0.0080 -1.0000 0.0024
vn -0.0083 -1.0000 0.0022
vn -0.0087 -1.0000 0.0017
vn -0.0089 -1.0000 0.0015
vn -0.0089 -1.0000 0.0012
vn -0.1094 0.7040 0.7018
vn 0.4530 0.5825 0.6749
vn 0.0861 0.7087 -0.7002
vn 0.6731 0.5707 -0.4704
vn -0.1255 0.7047 0.6983
vn -0.1187 0.7045 0.6997
vn 0.1133 0.7073 -0.6978
vn 0.1019 0.7078 -0.6990
vn -0.1310 0.7049 0.6971
vn 0.1224 0.7070 -0.6965
vn -0.1447 0.7050 0.6943
vn -0.1402 0.7050 0.6952
vn 0.1450 0.7070 -0.6922
vn -0.1552 0.7047 0.6923
vn -0.1495 0.7049 0.6934
vn 0.1621 0.7074 -0.6880
vn 0.1529 0.7071 -0.6904
vn -0.1734 0.7036 0.6891
vn -0.1626 0.7043 0.6910
vn 0.1891 0.7089 -0.6795
vn 0.1735 0.7079 -0.6847
vn -0.4021 0.5759 -0.7118
vn -0.7050 0.5773 0.4120
vn -0.6879 0.5794 0.4372
vn 0.3751 0.5846 0.7194
vn -0.6934 0.7084 -0.1321
vn -0.6968 0.7075 -0.1181
vn 0.7014 0.7043 0.1094
vn -0.7002 0.7069 -0.0997
vn 0.7019 0.7049 0.1024
vn -0.7015 0.7066 -0.0929
vn 0.7021 0.7053 0.0985
vn 0.7021 0.7055 0.0964
vn -0.7023 0.7066 -0.0867
vn 0.7020 0.7057 0.0958
vn -0.7029 0.7067 -0.0808
vn -0.6988 0.7071 -0.1078
vn 0.7017 0.7059 0.0965
vn 0.7014 0.7060 0.0984
vn -0.7035 0.7067 -0.0750
vn 0.7005 0.7064 0.1017
vn 0.6977 0.7072 0.1144
vn 0.6950 0.7079 0.1258
vn 0.6635 0.5743 -0.4795
vn -0.5194 0.5741 -0.6330
vn -0.7049 0.7074 -0.0521
vn -0.9386 0.3179 0.1341
vn 0.1065 0.3255 0.9395
vn -0.2022 0.2886 -0.9358
vn -0.7412 0.3446 0.5761
vn -0.0479 0.3129 -0.9486
vn -0.9460 0.3150 0.0765
vn 0.9490 0.3051 -0.0801
vn 0.1889 0.3224 0.9276
vn -0.1908 0.3101 -0.9314
vn 0.9408 0.3106 -0.1361
vn -0.6391 0.5600 -0.5272
vn 0.5303 0.7088 0.4652
vn 0.6542 0.7086 0.2643
vn 0.6470 0.7087 0.2813
vn 0.5435 0.7095 0.4486
vn 0.5581 0.7095 0.4304
vn 0.6387 0.7090 0.2990
vn 0.6298 0.7091 0.3172
vn 0.5720 0.7094 0.4117
vn 0.5852 0.7094 0.3928
vn 0.6199 0.7092 0.3359
vt 0.875000 0.045455
vt 0.875000 0.163636
vt 0.875000 0.036364
vt 0.875000 0.154546
vt 0.875000 0.690909
vt 0.875000 0.700000
vt 0.875000 0.154545
vt 0.875000 0.054545
vt 0.875000 0.963636
vt 0.875000 0.018182
vt 0.875000 0.972727
vt 0.875000 0.227273
vt 0.875000 0.218182
vt 0.875000 0.181818
vt 0.875000 0.190909
vt 0.875000 0.172727
vt 0.875000 0.236364
vt 0.875000 0.054546
vt 0.875000 0.063636
vt 0.875000 0.163636
vt 0.875000 0.245455
vt 0.875000 0.254546
vt 0.875000 0.145455
vt 0.875000 0.072727
vt 0.875000 0.927273
vt 0.875000 0.936364
vt 0.875000 0.136364
vt 0.875000 0.263636
vt 0.875000 0.127273
vt 0.875000 0.645455
vt 0.875000 0.654545
vt 0.875000 0.272727
vt 0.875000 0.081818
vt 0.875000 0.118182
vt 0.875000 0.663636
vt 0.875000 0.672727
vt 0.875000 0.636364
vt 0.875000 0.681818
vt 0.875000 0.627273
vt 0.875000 0.918182
vt 0.875000 0.618182
vt 0.875000 0.281818
vt 0.875000 0.090909
vt 0.875000 0.109091
vt 0.875000 0.609091
vt 0.875000 0.709091
vt 0.875000 0.600000
vt 0.875000 0.100000
vt 0.875000 0.290909
vt 0.875000 0.718182
vt 0.875000 0.590909
vt 0.875000 0.909091
vt 0.875000 0.727273
vt 0.875000 0.581818
vt 0.875000 0.300000
vt 0.875000 0.736364
vt 0.875000 0.572727
vt 0.875000 0.745455
vt 0.875000 0.900000
vt 0.875000 0.563636
vt 0.875000 0.309091
vt 0.875000 0.754545
vt 0.875000 0.554546
vt 0.875000 0.318182
vt 0.875000 0.890909
vt 0.875000 0.763636
vt 0.875000 0.545455
vt 0.875000 0.772727
vt 0.875000 0.536364
vt 0.875000 0.781818
vt 0.875000 0.327273
vt 0.875000 0.881818
vt 0.875000 0.790909
vt 0.875000 0.800000
vt 0.875000 0.809091
vt 0.875000 0.818182
vt 0.875000 0.827273
vt 0.875000 0.836364
vt 0.875000 0.863636
vt 0.875000 0.872727
vt 0.875000 0.854545
vt 0.875000 0.845455
vt 0.875000 0.527273
vt 0.875000 0.336364
vt 0.875000 0.518182
vt 0.875000 0.345455
vt 0.875000 0.509091
vt 0.875000 0.500000
vt 0.875000 0.354545
vt 0.875000 0.490909
vt 0.875000 0.363636
vt 0.875000 0.481818
vt 0.875000 0.472727
vt 0.875000 0.463636
vt 0.875000 0.372727
vt 0.875000 0.436364
vt 0.875000 0.445455
vt 0.875000 0.427273
vt 0.875000 0.454545
vt 0.875000 0.381818
vt 0.875000 0.390909
vt 0.875000 0.400000
vt 0.875000 0.409091
vt 0.875000 0.418182
vt 0.875000 0.227273
vt 0.875000 -0.000000
vt 0.875000 0.218182
vt 0.875000 0.009091
vt 0.875000 0.018182
vt 0.875000 0.027273
vt 0.875000 0.063636
vt 0.875000 0.072727
vt 0.875000 0.081818
vt 0.875000 0.090909
vt 0.875000 0.100000
vt 0.875000 0.209091
vt 0.875000 0.109091
vt 0.875000 0.200000
vt 0.875000 0.190909
vt 0.875000 0.181818
vt 0.875000 0.172727
vt 0.875000 0.145455
vt 0.875000 0.136364
vt 0.875000 0.127273
vt 0.875000 0.118182
vt 0.875000 0.990909
vt 0.875000 1.000000
vt 0.875000 0.981818
vt 0.875000 0.000000
vt 0.875000 0.009091
vt 0.875000 0.027273
vt 0.875000 0.954545
vt 0.875000 0.036364
vt 0.875000 0.045455
vt 0.875000 0.945455
vt 0.875000 0.209091
vt 0.875000 0.200000
vt 0.373223 0.263016
vt 0.254730 0.381508
vt 0.254730 0.263016
vt 0.373223 0.381508
vt 0.254730 0.500000
vt 0.373223 0.500000
vt 0.254730 0.618492
vt 0.373223 0.618492
vt 0.254730 0.736984
vt 0.136238 0.618492
vt 0.136238 0.500000
vt 0.491715 0.500000
vt 0.373223 0.736984
vt 0.491715 0.618492
s 1
usemtl マテリアル
f 132/1/1 119/2/2 133/3/3
f 94/4/4 35/5/5 34/6/6
f 159/7/7 146/8/8 145/1/9
f 171/9/10 170/10/11 168/11/12
f 86/12/13 180/13/14 183/12/15
f 91/14/16 182/15/17 90/15/18
f 91/14/16 185/16/19 184/14/20
f 86/12/13 186/17/21 85/17/22
f 105/18/23 187/19/24 104/19/25
f 93/20/26 185/16/19 92/16/27
f 85/17/22 189/21/28 84/21/29
f 93/20/26 190/4/30 188/20/31
f 84/21/29 191/22/32 83/22/33
f 94/4/34 192/23/35 190/4/30
f 104/19/25 193/24/36 103/24/37
f 9/25/38 178/26/39 8/26/40
f 96/27/41 192/23/35 95/23/42
f 83/22/33 196/28/43 82/28/44
f 97/29/45 195/27/46 96/27/41
f 40/30/47 198/31/48 39/31/49
f 82/28/44 200/32/50 81/32/51
f 102/33/52 193/24/36 201/33/53
f 97/29/45 202/34/54 197/29/55
f 39/31/49 203/35/56 38/35/57
f 38/35/57 204/36/58 37/36/59
f 41/37/60 199/30/61 40/30/47
f 37/36/59 206/38/62 36/38/63
f 42/39/64 205/37/65 41/37/60
f 9/25/38 208/40/66 194/25/67
f 35/5/68 206/38/62 209/5/69
f 42/39/64 210/41/70 207/39/71
f 81/32/51 211/42/72 80/42/73
f 102/33/52 212/43/74 101/43/75
f 98/34/76 213/44/77 202/34/54
f 35/5/68 214/6/78 34/6/79
f 43/41/80 215/45/81 210/41/70
f 34/6/79 216/46/82 33/46/83
f 44/45/84 217/47/85 215/45/81
f 99/44/86 218/48/87 213/44/77
f 79/49/88 211/42/72 219/49/89
f 101/43/75 218/48/87 100/48/90
f 33/46/83 220/50/91 32/50/92
f 45/47/93 221/51/94 217/47/85
f 10/40/95 222/52/96 208/40/66
f 31/53/97 220/50/91 223/53/98
f 47/54/99 221/51/94 46/51/100
f 79/49/88 225/55/101 78/55/102
f 31/53/97 226/56/103 30/56/104
f 48/57/105 224/54/106 47/54/99
f 30/56/104 228/58/107 29/58/108
f 11/52/109 229/59/110 222/52/96
f 48/57/105 230/60/111 227/57/112
f 78/55/102 231/61/113 77/61/114
f 29/58/108 232/62/115 28/62/116
f 50/63/117 230/60/111 49/60/118
f 77/61/114 234/64/119 76/64/120
f 13/65/121 229/59/110 12/59/122
f 27/66/123 232/62/115 236/66/124
f 50/63/117 237/67/125 233/63/126
f 27/66/123 238/68/127 26/68/128
f 51/67/129 239/69/130 237/67/125
f 26/68/128 240/70/131 25/70/132
f 75/71/133 234/64/119 241/71/134
f 14/72/135 235/65/136 13/65/121
f 25/70/132 243/73/137 24/73/138
f 24/73/138 244/74/139 23/74/140
f 23/74/140 245/75/141 22/75/142
f 22/75/142 246/76/143 21/76/144
f 20/77/145 246/76/143 247/77/146
f 20/77/145 248/78/147 19/78/148
f 16/79/149 249/80/150 15/80/151
f 15/80/152 242/72/153 14/72/152
f 16/79/149 251/81/154 250/79/155
f 18/82/156 251/81/154 17/81/157
f 19/78/148 252/82/158 18/82/156
f 52/69/159 253/83/160 239/69/130
f 75/71/133 254/84/161 74/84/162
f 53/83/163 255/85/164 253/83/160
f 73/86/165 254/84/161 256/86/166
f 55/87/167 255/85/164 54/85/168
f 55/87/167 258/88/169 257/87/170
f 72/89/171 256/86/166 259/89/172
f 57/90/173 258/88/169 56/88/174
f 71/91/175 259/89/172 261/91/176
f 58/92/177 260/90/178 57/90/173
f 59/93/179 262/92/180 58/92/177
f 60/94/181 263/93/182 59/93/179
f 70/95/183 261/91/176 265/95/184
f 63/96/185 267/97/186 62/97/187
f 64/98/188 268/96/189 63/96/188
f 61/99/190 264/94/191 60/94/181
f 62/97/187 269/99/192 61/99/190
f 69/100/193 265/95/184 270/100/194
f 68/101/195 270/100/194 271/101/196
f 68/101/195 272/102/197 67/102/198
f 67/102/198 273/103/199 66/103/200
f 66/103/200 274/104/201 65/104/202
f 65/104/202 266/98/203 64/98/204
f 112/105/205 139/106/206 137/106/207
f 113/107/208 140/105/209 112/105/210
f 137/106/207 141/108/211 136/108/212
f 135/109/213 141/108/211 142/109/214
f 135/109/213 143/110/215 134/110/216
f 133/3/217 143/110/215 144/3/218
f 133/3/217 145/1/219 132/1/220
f 132/1/220 146/8/221 131/8/222
f 131/8/222 147/111/223 130/111/224
f 130/111/224 148/112/225 129/112/226
f 129/112/226 149/113/227 128/113/228
f 128/113/228 150/114/229 127/114/230
f 127/114/230 151/115/231 126/115/232
f 114/116/233 138/107/234 113/107/235
f 126/115/236 153/117/237 125/117/238
f 115/118/239 152/116/240 114/116/233
f 116/119/241 154/118/242 115/118/239
f 117/120/243 155/119/244 116/119/241
f 118/121/245 156/120/246 117/120/243
f 119/2/247 157/121/248 118/121/245
f 120/7/249 158/2/250 119/2/247
f 120/7/249 160/122/251 159/7/252
f 121/122/253 161/123/254 160/122/251
f 123/124/255 161/123/254 122/123/256
f 125/117/257 163/125/258 124/125/259
f 123/124/255 163/125/258 162/124/260
f 2/126/261 165/127/262 1/127/261
f 2/126/263 164/128/264 166/126/265
f 1/127/266 167/129/267 111/129/268
f 4/11/269 164/128/264 3/128/270
f 110/130/271 167/129/267 169/130/272
f 110/130/271 170/10/273 109/10/274
f 4/11/269 171/9/275 168/11/276
f 109/10/274 172/131/277 108/131/278
f 6/132/279 171/9/275 5/9/280
f 108/131/278 174/133/281 107/133/282
f 107/133/282 175/134/283 106/134/284
f 6/132/279 176/135/285 173/132/286
f 105/18/23 175/134/283 177/18/287
f 8/26/40 176/135/285 7/135/288
f 88/136/289 180/13/14 87/13/290
f 89/137/291 181/136/292 88/136/289
f 90/15/18 179/137/293 89/137/291
f 267/97/294 266/98/295 274/104/296
f 269/99/297 274/104/296 273/103/298
f 264/94/299 273/103/298 272/102/300
f 263/93/301 272/102/300 271/101/302
f 262/92/303 271/101/302 270/100/304
f 260/90/305 270/100/304 265/95/306
f 258/88/307 265/95/306 261/91/308
f 257/87/309 261/91/308 259/89/310
f 255/85/311 259/89/310 256/86/312
f 253/83/313 256/86/312 254/84/314
f 239/69/315 254/84/314 241/71/316
f 237/67/317 241/71/316 234/64/318
f 237/67/317 231/61/319 233/63/320
f 233/63/320 225/55/321 230/60/322
f 230/60/322 219/49/323 227/57/324
f 224/54/325 227/57/324 219/49/323
f 224/54/325 219/49/323 211/42/326
f 224/54/325 200/32/327 221/51/328
f 221/51/328 196/28/329 217/47/330
f 217/47/330 191/22/331 215/45/332
f 215/45/332 189/21/333 210/41/334
f 210/41/334 186/17/335 207/39/336
f 207/39/336 183/12/337 205/37/338
f 205/37/338 180/13/339 199/30/340
f 199/30/340 181/136/341 198/31/342
f 198/31/342 179/137/343 203/35/344
f 203/35/344 182/15/345 204/36/346
f 204/36/346 184/14/347 206/38/348
f 206/38/348 185/16/349 209/5/350
f 209/5/350 188/20/351 214/6/352
f 214/6/352 190/4/353 216/46/354
f 216/46/354 192/23/355 220/50/356
f 220/50/356 195/27/357 223/53/358
f 223/53/358 197/29/359 226/56/360
f 226/56/360 202/34/361 228/58/362
f 228/58/362 213/44/363 232/62/364
f 218/48/365 246/76/366 245/75/367
s 0
f 276/138/368 277/139/368 275/140/368
f 278/141/369 281/142/369 277/139/369
f 282/143/370 279/144/370 281/142/370
f 280/145/371 275/146/371 279/144/371
f 281/142/4 275/147/4 277/148/4
f 278/149/372 280/145/372 282/143/372
s 1
f 127/114/373 126/115/374 125/117/375
f 125/117/375 124/125/376 127/114/373
f 124/125/376 123/124/377 128/113/378
f 123/124/377 122/123/379 129/112/380
f 122/123/379 121/122/381 130/111/382
f 129/112/380 122/123/379 130/111/382
f 121/122/381 120/7/383 131/8/384
f 120/7/383 119/2/2 132/1/1
f 131/8/384 120/7/383 132/1/1
f 119/2/2 118/121/385 133/3/3
f 118/121/385 117/120/386 134/110/387
f 133/3/3 118/121/385 134/110/387
f 117/120/386 116/119/388 135/109/389
f 116/119/388 115/118/390 136/108/391
f 115/118/390 114/116/392 137/106/393
f 114/116/392 113/107/394 112/105/395
f 115/118/390 137/106/393 136/108/391
f 112/105/395 137/106/393 114/116/392
f 116/119/388 136/108/391 135/109/389
f 124/125/376 128/113/378 127/114/373
f 129/112/380 128/113/378 123/124/377
f 130/111/382 121/122/381 131/8/384
f 117/120/386 135/109/389 134/110/387
f 91/14/4 90/15/4 37/36/396
f 90/15/4 89/137/4 38/35/397
f 89/137/4 88/136/4 39/31/398
f 88/136/4 87/13/4 40/30/399
f 87/13/4 86/12/4 41/37/400
f 86/12/4 85/17/4 42/39/401
f 87/13/4 41/37/400 40/30/399
f 85/17/4 84/21/4 43/41/402
f 84/21/4 83/22/4 44/45/403
f 43/41/402 84/21/4 44/45/403
f 83/22/4 82/28/4 45/47/404
f 82/28/4 81/32/4 46/51/405
f 45/47/404 82/28/4 46/51/405
f 81/32/4 80/42/4 47/54/406
f 80/42/4 79/49/4 48/57/407
f 48/57/407 79/49/4 49/60/408
f 79/49/4 78/55/4 49/60/408
f 78/55/4 77/61/4 50/63/409
f 77/61/4 76/64/4 51/67/410
f 76/64/4 75/71/4 51/67/410
f 75/71/4 74/84/4 52/69/411
f 74/84/4 73/86/4 53/83/412
f 52/69/411 74/84/4 53/83/412
f 73/86/4 72/89/4 54/85/413
f 72/89/4 71/91/4 55/87/414
f 71/91/4 70/95/4 56/88/415
f 70/95/4 69/100/4 57/90/416
f 69/100/4 68/101/4 58/92/417
f 68/101/4 67/102/4 59/93/418
f 58/92/417 68/101/4 59/93/418
f 67/102/4 66/103/4 60/94/419
f 66/103/4 65/104/4 61/99/420
f 60/94/419 66/103/4 61/99/420
f 65/104/4 64/98/4 62/97/421
f 64/98/4 63/96/4 62/97/421
f 72/89/4 55/87/414 54/85/413
f 70/95/4 57/90/416 56/88/415
f 51/67/410 75/71/4 52/69/411
f 78/55/4 50/63/409 49/60/408
f 50/63/409 77/61/4 51/67/410
f 85/17/4 43/41/402 42/39/401
f 88/136/4 40/30/399 39/31/398
f 92/16/4 91/14/4 36/38/422
f 90/15/4 38/35/397 37/36/396
f 94/4/4 93/20/4 35/5/5
f 93/20/4 92/16/4 35/5/5
f 35/5/5 92/16/4 36/38/422
f 96/27/4 95/23/4 33/46/423
f 95/23/4 94/4/4 34/6/6
f 33/46/423 95/23/4 34/6/6
f 98/34/4 97/29/4 31/53/424
f 97/29/4 96/27/4 32/50/425
f 31/53/424 97/29/4 32/50/425
f 100/48/426 99/44/4 29/58/427
f 99/44/4 98/34/4 30/56/428
f 29/58/427 99/44/4 30/56/428
f 102/33/4 101/43/4 9/25/429
f 101/43/4 100/48/426 10/40/430
f 9/25/429 101/43/4 10/40/430
f 104/19/4 103/24/4 8/26/431
f 103/24/4 102/33/4 9/25/429
f 8/26/431 103/24/4 9/25/429
f 105/18/4 104/19/4 7/135/431
f 104/19/4 8/26/431 7/135/431
f 106/134/4 105/18/4 7/135/431
f 65/104/4 62/97/421 61/99/420
f 91/14/4 37/36/396 36/38/422
f 41/37/400 86/12/4 42/39/401
f 107/133/432 106/134/4 6/132/433
f 6/132/433 106/134/4 7/135/431
f 60/94/419 59/93/418 67/102/4
f 108/131/434 107/133/432 5/9/435
f 69/100/4 58/92/417 57/90/416
f 2/126/4 1/127/4 111/129/436
f 3/128/437 2/126/4 111/129/436
f 3/128/437 111/129/436 110/130/438
f 4/11/439 3/128/437 110/130/438
f 4/11/439 110/130/438 109/10/440
f 5/9/435 4/11/439 109/10/440
f 5/9/435 109/10/440 108/131/434
f 6/132/433 5/9/435 107/133/432
f 71/91/4 56/88/415 55/87/414
f 73/86/4 54/85/413 53/83/412
f 11/52/441 10/40/430 100/48/426
f 12/59/442 11/52/441 26/68/443
f 11/52/441 100/48/426 27/66/444
f 15/80/4 14/72/4 16/79/445
f 14/72/4 13/65/446 17/81/447
f 16/79/445 14/72/4 17/81/447
f 13/65/446 12/59/442 22/75/448
f 11/52/441 27/66/444 26/68/443
f 30/56/428 98/34/4 31/53/424
f 27/66/444 100/48/426 28/62/449
f 80/42/4 48/57/407 47/54/406
f 18/82/450 17/81/447 13/65/446
f 19/78/451 18/82/450 13/65/446
f 81/32/4 47/54/406 46/51/405
f 20/77/452 19/78/451 13/65/446
f 21/76/453 20/77/452 13/65/446
f 45/47/404 44/45/403 83/22/4
f 22/75/448 21/76/453 13/65/446
f 23/74/454 22/75/448 12/59/442
f 24/73/455 23/74/454 12/59/442
f 25/70/456 24/73/455 12/59/442
f 26/68/443 25/70/456 12/59/442
f 89/137/4 39/31/398 38/35/397
f 28/62/449 100/48/426 29/58/427
f 32/50/425 96/27/4 33/46/423
f 163/125/457 153/117/458 150/114/459
f 153/117/458 151/115/460 150/114/459
f 161/123/461 162/124/462 148/112/463
f 162/124/462 163/125/457 149/113/464
f 149/113/464 163/125/457 150/114/459
f 159/7/7 160/122/465 146/8/8
f 160/122/465 161/123/461 147/111/466
f 157/121/467 158/2/468 144/3/469
f 158/2/468 159/7/7 145/1/9
f 155/119/470 156/120/471 142/109/472
f 156/120/471 157/121/467 143/110/473
f 152/116/474 154/118/475 139/106/476
f 154/118/475 155/119/470 141/108/477
f 141/108/477 155/119/470 142/109/472
f 140/105/478 138/107/479 152/116/474
f 139/106/476 140/105/478 152/116/474
f 156/120/471 143/110/473 142/109/472
f 158/2/468 145/1/9 144/3/469
f 160/122/465 147/111/466 146/8/8
f 147/111/466 161/123/461 148/112/463
f 162/124/462 149/113/464 148/112/463
f 141/108/477 139/106/476 154/118/475
f 144/3/469 143/110/473 157/121/467
f 242/72/480 249/80/481 235/65/482
f 249/80/481 218/48/365 229/59/483
f 235/65/482 249/80/481 229/59/483
f 218/48/365 212/43/484 208/40/485
f 212/43/484 201/33/486 194/25/487
f 208/40/485 212/43/484 194/25/487
f 201/33/486 193/24/488 194/25/487
f 193/24/488 187/19/489 178/26/490
f 194/25/487 193/24/488 178/26/490
f 187/19/489 177/18/491 176/135/492
f 229/59/483 218/48/365 222/52/493
f 218/48/365 208/40/485 222/52/493
f 177/18/491 175/134/494 176/135/492
f 175/134/494 174/133/495 173/132/496
f 178/26/490 187/19/489 176/135/492
f 174/133/495 172/131/497 171/9/10
f 172/131/497 170/10/11 171/9/10
f 176/135/492 175/134/494 173/132/496
f 170/10/11 169/130/498 168/11/12
f 173/132/496 174/133/495 171/9/10
f 167/129/499 165/127/500 166/126/501
f 169/130/498 167/129/499 164/128/502
f 167/129/499 166/126/501 164/128/502
f 164/128/502 168/11/12 169/130/498
f 86/12/13 87/13/290 180/13/14
f 91/14/16 184/14/20 182/15/17
f 91/14/16 92/16/27 185/16/19
f 86/12/13 183/12/15 186/17/21
f 105/18/23 177/18/287 187/19/24
f 93/20/26 188/20/31 185/16/19
f 85/17/22 186/17/21 189/21/28
f 93/20/26 94/4/34 190/4/30
f 84/21/29 189/21/28 191/22/32
f 94/4/34 95/23/42 192/23/35
f 104/19/25 187/19/24 193/24/36
f 9/25/38 194/25/67 178/26/39
f 96/27/41 195/27/46 192/23/35
f 83/22/33 191/22/32 196/28/43
f 97/29/45 197/29/55 195/27/46
f 40/30/47 199/30/61 198/31/48
f 82/28/44 196/28/43 200/32/50
f 102/33/52 103/24/37 193/24/36
f 97/29/45 98/34/76 202/34/54
f 39/31/49 198/31/48 203/35/56
f 38/35/57 203/35/56 204/36/58
f 41/37/60 205/37/65 199/30/61
f 37/36/59 204/36/58 206/38/62
f 42/39/64 207/39/71 205/37/65
f 9/25/38 10/40/95 208/40/66
f 35/5/68 36/38/63 206/38/62
f 42/39/64 43/41/80 210/41/70
f 81/32/51 200/32/50 211/42/72
f 102/33/52 201/33/53 212/43/74
f 98/34/76 99/44/86 213/44/77
f 35/5/68 209/5/69 214/6/78
f 43/41/80 44/45/84 215/45/81
f 34/6/79 214/6/78 216/46/82
f 44/45/84 45/47/93 217/47/85
f 99/44/86 100/48/90 218/48/87
f 79/49/88 80/42/73 211/42/72
f 101/43/75 212/43/74 218/48/87
f 33/46/83 216/46/82 220/50/91
f 45/47/93 46/51/100 221/51/94
f 10/40/95 11/52/109 222/52/96
f 31/53/97 32/50/92 220/50/91
f 47/54/99 224/54/106 221/51/94
f 79/49/88 219/49/89 225/55/101
f 31/53/97 223/53/98 226/56/103
f 48/57/105 227/57/112 224/54/106
f 30/56/104 226/56/103 228/58/107
f 11/52/109 12/59/122 229/59/110
f 48/57/105 49/60/118 230/60/111
f 78/55/102 225/55/101 231/61/113
f 29/58/108 228/58/107 232/62/115
f 50/63/117 233/63/126 230/60/111
f 77/61/114 231/61/113 234/64/119
f 13/65/121 235/65/136 229/59/110
f 27/66/123 28/62/116 232/62/115
f 50/63/117 51/67/129 237/67/125
f 27/66/123 236/66/124 238/68/127
f 51/67/129 52/69/159 239/69/130
f 26/68/128 238/68/127 240/70/131
f 75/71/133 76/64/120 234/64/119
f 14/72/135 242/72/503 235/65/136
f 25/70/132 240/70/131 243/73/137
f 24/73/138 243/73/137 244/74/139
f 23/74/140 244/74/139 245/75/141
f 22/75/142 245/75/141 246/76/143
f 20/77/145 21/76/144 246/76/143
f 20/77/145 247/77/146 248/78/147
f 16/79/149 250/79/155 249/80/150
f 15/80/152 249/80/504 242/72/153
f 16/79/149 17/81/157 251/81/154
f 18/82/156 252/82/158 251/81/154
f 19/78/148 248/78/147 252/82/158
f 52/69/159 53/83/163 253/83/160
f 75/71/133 241/71/134 254/84/161
f 53/83/163 54/85/168 255/85/164
f 73/86/165 74/84/162 254/84/161
f 55/87/167 257/87/170 255/85/164
f 55/87/167 56/88/174 258/88/169
f 72/89/171 73/86/165 256/86/166
f 57/90/173 260/90/178 258/88/169
f 71/91/175 72/89/171 259/89/172
f 58/92/177 262/92/180 260/90/178
f 59/93/179 263/93/182 262/92/180
f 60/94/181 264/94/191 263/93/182
f 70/95/183 71/91/175 261/91/176
f 63/96/185 268/96/505 267/97/186
f 64/98/188 266/98/506 268/96/189
f 61/99/190 269/99/192 264/94/191
f 62/97/187 267/97/186 269/99/192
f 69/100/193 70/95/183 265/95/184
f 68/101/195 69/100/193 270/100/194
f 68/101/195 271/101/196 272/102/197
f 67/102/198 272/102/197 273/103/199
f 66/103/200 273/103/199 274/104/201
f 65/104/202 274/104/201 266/98/203
f 112/105/205 140/105/507 139/106/206
f 113/107/208 138/107/508 140/105/209
f 137/106/207 139/106/206 141/108/211
f 135/109/213 136/108/212 141/108/211
f 135/109/213 142/109/214 143/110/215
f 133/3/217 134/110/216 143/110/215
f 133/3/217 144/3/218 145/1/219
f 132/1/220 145/1/219 146/8/221
f 131/8/222 146/8/221 147/111/223
f 130/111/224 147/111/223 148/112/225
f 129/112/226 148/112/225 149/113/227
f 128/113/228 149/113/227 150/114/229
f 127/114/230 150/114/229 151/115/231
f 114/116/233 152/116/240 138/107/234
f 126/115/236 151/115/509 153/117/237
f 115/118/239 154/118/242 152/116/240
f 116/119/241 155/119/244 154/118/242
f 117/120/243 156/120/246 155/119/244
f 118/121/245 157/121/248 156/120/246
f 119/2/247 158/2/250 157/121/248
f 120/7/249 159/7/252 158/2/250
f 120/7/249 121/122/253 160/122/251
f 121/122/253 122/123/256 161/123/254
f 123/124/255 162/124/260 161/123/254
f 125/117/257 153/117/510 163/125/258
f 123/124/255 124/125/259 163/125/258
f 2/126/261 166/126/511 165/127/262
f 2/126/263 3/128/270 164/128/264
f 1/127/266 165/127/512 167/129/267
f 4/11/269 168/11/276 164/128/264
f 110/130/271 111/129/268 167/129/267
f 110/130/271 169/130/272 170/10/273
f 4/11/269 5/9/280 171/9/275
f 109/10/274 170/10/273 172/131/277
f 6/132/279 173/132/286 171/9/275
f 108/131/278 172/131/277 174/133/281
f 107/133/282 174/133/281 175/134/283
f 6/132/279 7/135/288 176/135/285
f 105/18/23 106/134/284 175/134/283
f 8/26/40 178/26/39 176/135/285
f 88/136/289 181/136/292 180/13/14
f 89/137/291 179/137/293 181/136/292
f 90/15/18 182/15/17 179/137/293
f 267/97/294 268/96/513 266/98/295
f 269/99/297 267/97/294 274/104/296
f 264/94/299 269/99/297 273/103/298
f 263/93/301 264/94/299 272/102/300
f 262/92/303 263/93/301 271/101/302
f 260/90/305 262/92/303 270/100/304
f 258/88/307 260/90/305 265/95/306
f 257/87/309 258/88/307 261/91/308
f 255/85/311 257/87/309 259/89/310
f 253/83/313 255/85/311 256/86/312
f 239/69/315 253/83/313 254/84/314
f 237/67/317 239/69/315 241/71/316
f 237/67/317 234/64/318 231/61/319
f 233/63/320 231/61/319 225/55/321
f 230/60/322 225/55/321 219/49/323
f 224/54/325 211/42/326 200/32/327
f 221/51/328 200/32/327 196/28/329
f 217/47/330 196/28/329 191/22/331
f 215/45/332 191/22/331 189/21/333
f 210/41/334 189/21/333 186/17/335
f 207/39/336 186/17/335 183/12/337
f 205/37/338 183/12/337 180/13/339
f 199/30/340 180/13/339 181/136/341
f 198/31/342 181/136/341 179/137/343
f 203/35/344 179/137/343 182/15/345
f 204/36/346 182/15/345 184/14/347
f 206/38/348 184/14/347 185/16/349
f 209/5/350 185/16/349 188/20/351
f 214/6/352 188/20/351 190/4/353
f 216/46/354 190/4/353 192/23/355
f 220/50/356 192/23/355 195/27/357
f 223/53/358 195/27/357 197/29/359
f 226/56/360 197/29/359 202/34/361
f 228/58/362 202/34/361 213/44/363
f 236/66/514 232/62/364 218/48/365
f 232/62/364 213/44/363 218/48/365
f 218/48/365 249/80/481 250/79/515
f 218/48/365 250/79/515 251/81/516
f 238/68/517 236/66/514 218/48/365
f 240/70/518 238/68/517 218/48/365
f 218/48/365 251/81/516 252/82/519
f 218/48/365 252/82/519 248/78/520
f 243/73/521 240/70/518 218/48/365
f 244/74/522 243/73/521 218/48/365
f 218/48/365 248/78/520 247/77/523
f 218/48/365 247/77/523 246/76/366
f 245/75/367 244/74/522 218/48/365
s 0
f 276/138/368 278/141/368 277/139/368
f 278/141/369 282/143/369 281/142/369
f 282/143/370 280/145/370 279/144/370
f 280/145/371 276/150/371 275/146/371
f 281/142/4 279/144/4 275/147/4
f 278/149/372 276/151/372 280/145/372
