# Blender 4.4.1
# www.blender.org
mtllib Title_Ice8.mtl
o 8.か
v -0.786278 -0.000000 -0.347689
v -0.772518 -0.000000 -0.198049
v -0.760834 -0.000000 -0.199802
v -0.748271 -0.000000 -0.201608
v -0.735027 -0.000000 -0.203451
v -0.721300 -0.000000 -0.205311
v -0.707287 -0.000000 -0.207172
v -0.693184 -0.000000 -0.209014
v -0.679188 -0.000000 -0.210821
v -0.665497 -0.000000 -0.212573
v -0.652307 -0.000000 -0.214255
v -0.639816 -0.000000 -0.215846
v -0.628221 -0.000000 -0.217330
v -0.617718 -0.000000 -0.218689
v -0.399278 -0.000000 -0.242769
v -0.415354 -0.000000 -0.181965
v -0.434283 -0.000000 -0.115529
v -0.455984 -0.000000 -0.044566
v -0.480372 -0.000000 0.029819
v -0.507365 -0.000000 0.106521
v -0.536877 -0.000000 0.184436
v -0.568826 -0.000000 0.262458
v -0.603129 -0.000000 0.339483
v -0.639701 0.000000 0.414405
v -0.678458 0.000000 0.486121
v -0.719318 0.000000 0.553524
v -0.762198 0.000000 0.615511
v -0.621158 0.000000 0.670551
v -0.577328 0.000000 0.595977
v -0.536114 0.000000 0.518148
v -0.497480 0.000000 0.437894
v -0.461390 -0.000000 0.356046
v -0.427809 -0.000000 0.273433
v -0.396700 -0.000000 0.190886
v -0.368027 -0.000000 0.109235
v -0.341756 -0.000000 0.029310
v -0.317849 -0.000000 -0.048060
v -0.296271 -0.000000 -0.122042
v -0.276987 -0.000000 -0.191809
v -0.259959 -0.000000 -0.256529
v -0.241194 -0.000000 -0.258211
v -0.222788 -0.000000 -0.259810
v -0.204811 -0.000000 -0.261313
v -0.187336 -0.000000 -0.262708
v -0.170435 -0.000000 -0.263984
v -0.154178 -0.000000 -0.265129
v -0.138638 -0.000000 -0.266130
v -0.123887 -0.000000 -0.266976
v -0.109996 -0.000000 -0.267655
v -0.097036 -0.000000 -0.268155
v -0.085080 -0.000000 -0.268463
v -0.074198 -0.000000 -0.268569
v -0.047848 -0.000000 -0.267902
v -0.023067 -0.000000 -0.265670
v 0.000004 -0.000000 -0.261528
v 0.021230 -0.000000 -0.255127
v 0.040473 -0.000000 -0.246123
v 0.057596 -0.000000 -0.234169
v 0.072462 -0.000000 -0.218918
v 0.084934 -0.000000 -0.200024
v 0.094873 -0.000000 -0.177140
v 0.102142 -0.000000 -0.149921
v 0.106604 -0.000000 -0.118019
v 0.108122 -0.000000 -0.081089
v 0.107549 -0.000000 -0.033944
v 0.105829 -0.000000 0.014275
v 0.102962 -0.000000 0.063069
v 0.098949 -0.000000 0.111933
v 0.093788 -0.000000 0.160368
v 0.087482 -0.000000 0.207871
v 0.080029 -0.000000 0.253941
v 0.071429 -0.000000 0.298076
v 0.061682 -0.000000 0.339774
v 0.050789 -0.000000 0.378533
v 0.038749 0.000000 0.413853
v 0.025563 0.000000 0.445231
v 0.016608 0.000000 0.462494
v 0.006953 0.000000 0.477409
v -0.003381 0.000000 0.490139
v -0.014379 0.000000 0.500844
v -0.026022 0.000000 0.509686
v -0.038292 0.000000 0.516826
v -0.051171 0.000000 0.522425
v -0.064642 0.000000 0.526644
v -0.078686 0.000000 0.529645
v -0.093284 0.000000 0.531589
v -0.108421 0.000000 0.532637
v -0.124079 0.000000 0.532951
v -0.136979 0.000000 0.532701
v -0.151456 0.000000 0.531956
v -0.167294 0.000000 0.530720
v -0.184279 0.000000 0.529001
v -0.202196 0.000000 0.526805
v -0.220829 0.000000 0.524136
v -0.239963 0.000000 0.521002
v -0.259385 0.000000 0.517407
v -0.278878 0.000000 0.513359
v -0.298228 0.000000 0.508863
v -0.317219 0.000000 0.503925
v -0.335638 0.000000 0.498551
v -0.313278 0.000000 0.641311
v -0.298970 0.000000 0.644709
v -0.283671 0.000000 0.648000
v -0.267536 0.000000 0.651147
v -0.250720 0.000000 0.654115
v -0.233378 0.000000 0.656869
v -0.215667 0.000000 0.659371
v -0.197740 0.000000 0.661587
v -0.179754 0.000000 0.663480
v -0.161863 0.000000 0.665015
v -0.144223 0.000000 0.666155
v -0.126989 0.000000 0.666866
v -0.110318 0.000000 0.667111
v -0.082942 0.000000 0.666469
v -0.056719 0.000000 0.664412
v -0.031654 0.000000 0.660742
v -0.007754 0.000000 0.655262
v 0.014975 0.000000 0.647776
v 0.036528 0.000000 0.638086
v 0.056898 0.000000 0.625995
v 0.076081 0.000000 0.611307
v 0.094068 0.000000 0.593823
v 0.110854 0.000000 0.573347
v 0.126435 0.000000 0.549682
v 0.140802 0.000000 0.522631
v 0.157940 0.000000 0.484333
v 0.173275 0.000000 0.441281
v 0.186866 -0.000000 0.394169
v 0.198773 -0.000000 0.343687
v 0.209055 -0.000000 0.290531
v 0.217773 -0.000000 0.235391
v 0.224985 -0.000000 0.178962
v 0.230752 -0.000000 0.121935
v 0.235133 -0.000000 0.065003
v 0.238189 -0.000000 0.008861
v 0.239979 -0.000000 -0.045801
v 0.240562 -0.000000 -0.098289
v 0.238003 -0.000000 -0.152787
v 0.230553 -0.000000 -0.200446
v 0.218552 -0.000000 -0.241667
v 0.202340 -0.000000 -0.276850
v 0.182259 -0.000000 -0.306396
v 0.158648 -0.000000 -0.330704
v 0.131848 -0.000000 -0.350175
v 0.102199 -0.000000 -0.365208
v 0.070042 -0.000000 -0.376203
v 0.035716 -0.000000 -0.383562
v -0.000437 -0.000000 -0.387684
v -0.038078 -0.000000 -0.388969
v -0.049030 -0.000000 -0.388864
v -0.061194 -0.000000 -0.388555
v -0.074493 -0.000000 -0.388055
v -0.088850 -0.000000 -0.387376
v -0.104186 -0.000000 -0.386530
v -0.120423 -0.000000 -0.385529
v -0.137484 -0.000000 -0.384384
v -0.155292 -0.000000 -0.383108
v -0.173769 -0.000000 -0.381713
v -0.192837 -0.000000 -0.380210
v -0.212418 -0.000000 -0.378611
v -0.232438 -0.000000 -0.376929
v -0.187718 -0.000000 -0.622889
v -0.185998 -0.000000 -0.631160
v -0.184277 -0.000000 -0.639603
v -0.182557 -0.000000 -0.648178
v -0.180836 -0.000000 -0.656843
v -0.179116 -0.000000 -0.665556
v -0.177396 -0.000000 -0.674274
v -0.175675 -0.000000 -0.682957
v -0.173955 -0.000000 -0.691562
v -0.172234 -0.000000 -0.700047
v -0.170514 -0.000000 -0.708372
v -0.168793 -0.000000 -0.716493
v -0.167078 -0.000000 -0.724369
v -0.327038 -0.000000 -0.741569
v -0.327392 -0.000000 -0.711987
v -0.328439 -0.000000 -0.681783
v -0.330155 -0.000000 -0.651054
v -0.332516 -0.000000 -0.619895
v -0.335499 -0.000000 -0.588402
v -0.339078 -0.000000 -0.556669
v -0.343230 -0.000000 -0.524793
v -0.347933 -0.000000 -0.492870
v -0.353161 -0.000000 -0.460994
v -0.358890 -0.000000 -0.429262
v -0.365098 -0.000000 -0.397768
v -0.371758 -0.000000 -0.366609
v -0.397498 -0.000000 -0.364463
v -0.423016 -0.000000 -0.362341
v -0.448165 -0.000000 -0.360267
v -0.472793 -0.000000 -0.358264
v -0.496753 -0.000000 -0.356357
v -0.519894 -0.000000 -0.354569
v -0.542068 -0.000000 -0.352925
v -0.563125 -0.000000 -0.351448
v -0.582916 -0.000000 -0.350162
v -0.601291 -0.000000 -0.349091
v -0.618102 -0.000000 -0.348258
v -0.633198 -0.000000 -0.347689
v -0.646754 -0.000000 -0.347262
v -0.659945 -0.000000 -0.346853
v -0.672838 -0.000000 -0.346480
v -0.685498 -0.000000 -0.346160
v -0.697991 -0.000000 -0.345912
v -0.710382 -0.000000 -0.345754
v -0.722738 -0.000000 -0.345703
v -0.735123 -0.000000 -0.345778
v -0.747604 -0.000000 -0.345996
v -0.760246 -0.000000 -0.346375
v -0.773115 -0.000000 -0.346934
v 0.424602 -0.000000 -0.542049
v 0.299042 -0.000000 -0.485289
v 0.329767 -0.000000 -0.446432
v 0.360660 -0.000000 -0.401901
v 0.391385 -0.000000 -0.352688
v 0.421608 -0.000000 -0.299784
v 0.450996 -0.000000 -0.244181
v 0.479212 -0.000000 -0.186869
v 0.505924 -0.000000 -0.128841
v 0.530795 -0.000000 -0.071088
v 0.553494 -0.000000 -0.014600
v 0.573684 -0.000000 0.039629
v 0.591031 -0.000000 0.090610
v 0.605202 -0.000000 0.137351
v 0.739362 -0.000000 0.073711
v 0.722921 -0.000000 0.030653
v 0.703146 -0.000000 -0.017768
v 0.680505 -0.000000 -0.070393
v 0.655463 -0.000000 -0.126064
v 0.628487 -0.000000 -0.183622
v 0.600042 -0.000000 -0.241909
v 0.570592 -0.000000 -0.299766
v 0.540606 -0.000000 -0.356034
v 0.510548 -0.000000 -0.409555
v 0.480884 -0.000000 -0.459171
v 0.452080 -0.000000 -0.503721
v 0.299042 0.199906 -0.485289
v 0.452080 0.199906 -0.503721
v 0.424602 0.199906 -0.542049
v 0.480884 0.199906 -0.459171
v 0.329767 0.199906 -0.446432
v 0.510548 0.199906 -0.409555
v 0.360660 0.199906 -0.401901
v 0.540606 0.199906 -0.356034
v 0.391385 0.199906 -0.352688
v 0.570592 0.199906 -0.299766
v 0.421608 0.199906 -0.299784
v 0.450996 0.199906 -0.244181
v 0.600042 0.199906 -0.241909
v 0.479212 0.199906 -0.186869
v 0.628487 0.199906 -0.183622
v 0.505924 0.199906 -0.128841
v 0.655463 0.199906 -0.126064
v 0.530795 0.199906 -0.071088
v 0.680505 0.199906 -0.070393
v 0.553494 0.199906 -0.014600
v 0.703146 0.199906 -0.017768
v 0.722921 0.199906 0.030653
v 0.573684 0.199906 0.039629
v 0.739362 0.199906 0.073711
v 0.591031 0.199906 0.090610
v 0.605202 0.199906 0.137351
v -0.327392 0.199906 -0.711987
v -0.167078 0.199906 -0.724369
v -0.327038 0.199906 -0.741569
v -0.168793 0.199906 -0.716493
v -0.170514 0.199906 -0.708372
v -0.328439 0.199906 -0.681783
v -0.172234 0.199906 -0.700047
v -0.173955 0.199906 -0.691562
v -0.175675 0.199906 -0.682957
v -0.177396 0.199906 -0.674274
v -0.330155 0.199906 -0.651054
v -0.179116 0.199906 -0.665556
v -0.180836 0.199906 -0.656843
v -0.182557 0.199906 -0.648178
v -0.332516 0.199906 -0.619895
v -0.184277 0.199906 -0.639603
v -0.185998 0.199906 -0.631160
v -0.187718 0.199906 -0.622889
v -0.232438 0.199906 -0.376929
v -0.335499 0.199906 -0.588402
v -0.339078 0.199906 -0.556669
v -0.343230 0.199906 -0.524793
v -0.347933 0.199906 -0.492870
v -0.353161 0.199906 -0.460994
v -0.358890 0.199906 -0.429262
v -0.365098 0.199906 -0.397768
v -0.371758 0.199906 -0.366609
v -0.049030 0.199906 -0.388864
v -0.000437 0.199906 -0.387684
v -0.038078 0.199906 -0.388969
v -0.061194 0.199906 -0.388555
v -0.074493 0.199906 -0.388055
v -0.088850 0.199906 -0.387376
v 0.035716 0.199906 -0.383562
v -0.104186 0.199906 -0.386530
v -0.120423 0.199906 -0.385529
v -0.137484 0.199906 -0.384384
v -0.155292 0.199906 -0.383108
v 0.070042 0.199906 -0.376204
v -0.173769 0.199906 -0.381713
v -0.192837 0.199906 -0.380210
v -0.212418 0.199906 -0.378611
v 0.102199 0.199906 -0.365208
v -0.397498 0.199906 -0.364463
v 0.131848 0.199906 -0.350175
v -0.423016 0.199906 -0.362341
v -0.448165 0.199906 -0.360267
v -0.472793 0.199906 -0.358264
v -0.496753 0.199906 -0.356357
v -0.519894 0.199906 -0.354569
v -0.542068 0.199906 -0.352925
v -0.563125 0.199906 -0.351448
v -0.582916 0.199906 -0.350162
v 0.158648 0.199906 -0.330704
v -0.601291 0.199906 -0.349091
v -0.618102 0.199906 -0.348258
v -0.633198 0.199906 -0.347689
v -0.772518 0.199906 -0.198049
v -0.773115 0.199906 -0.346934
v -0.786278 0.199906 -0.347689
v -0.646754 0.199906 -0.347262
v -0.659945 0.199906 -0.346853
v -0.760246 0.199906 -0.346375
v -0.672838 0.199906 -0.346480
v -0.685498 0.199906 -0.346160
v -0.747604 0.199906 -0.345996
v -0.697991 0.199906 -0.345912
v -0.735123 0.199906 -0.345778
v -0.710382 0.199906 -0.345754
v -0.722738 0.199906 -0.345703
v -0.760834 0.199906 -0.199802
v -0.748271 0.199906 -0.201609
v -0.735027 0.199906 -0.203451
v -0.721300 0.199906 -0.205311
v -0.707287 0.199906 -0.207172
v -0.693184 0.199906 -0.209014
v -0.679188 0.199906 -0.210821
v -0.665497 0.199906 -0.212574
v -0.617718 0.199906 -0.218689
v -0.399278 0.199906 -0.242769
v 0.182259 0.199906 -0.306396
v -0.259959 0.199906 -0.256529
v -0.241194 0.199906 -0.258211
v -0.222788 0.199906 -0.259810
v -0.204811 0.199906 -0.261313
v -0.187336 0.199906 -0.262708
v -0.170435 0.199906 -0.263984
v -0.154178 0.199906 -0.265129
v -0.138638 0.199906 -0.266130
v -0.123887 0.199906 -0.266976
v -0.109996 0.199906 -0.267655
v -0.097036 0.199906 -0.268155
v 0.202340 0.199906 -0.276851
v -0.085080 0.199906 -0.268464
v -0.074198 0.199906 -0.268569
v -0.047848 0.199906 -0.267902
v -0.023067 0.199906 -0.265671
v 0.218552 0.199906 -0.241667
v 0.000004 0.199906 -0.261528
v 0.021230 0.199906 -0.255128
v -0.276987 0.199906 -0.191809
v 0.040473 0.199906 -0.246123
v 0.057596 0.199906 -0.234169
v -0.415354 0.199906 -0.181965
v 0.230553 0.199906 -0.200446
v 0.072462 0.199906 -0.218918
v 0.084934 0.199906 -0.200024
v -0.628221 0.199906 -0.217330
v -0.652307 0.199906 -0.214255
v -0.639816 0.199906 -0.215846
v 0.238003 0.199906 -0.152787
v 0.094873 0.199906 -0.177140
v -0.296271 0.199906 -0.122043
v -0.434283 0.199906 -0.115529
v 0.102142 0.199906 -0.149921
v 0.240562 0.199906 -0.098289
v 0.106604 0.199906 -0.118019
v -0.317849 0.199906 -0.048060
v 0.108122 0.199906 -0.081089
v -0.455984 0.199906 -0.044566
v 0.239979 0.199906 -0.045801
v 0.107549 0.199906 -0.033944
v -0.341756 0.199906 0.029309
v 0.238189 0.199906 0.008861
v -0.480372 0.199906 0.029819
v 0.105829 0.199906 0.014275
v 0.235133 0.199906 0.065003
v 0.102962 0.199906 0.063068
v -0.368027 0.199906 0.109235
v -0.507365 0.199906 0.106521
v 0.098949 0.199906 0.111933
v 0.230752 0.199906 0.121935
v -0.536877 0.199906 0.184436
v -0.396700 0.199906 0.190886
v 0.093788 0.199906 0.160368
v 0.224985 0.199906 0.178961
v 0.087482 0.199906 0.207871
v 0.217773 0.199906 0.235391
v -0.568826 0.199906 0.262458
v -0.427809 0.199906 0.273433
v 0.080029 0.199906 0.253941
v 0.209055 0.199906 0.290531
v 0.071429 0.199906 0.298075
v -0.603129 0.199906 0.339483
v -0.461390 0.199906 0.356046
v 0.198773 0.199906 0.343687
v 0.061682 0.199906 0.339774
v -0.639701 0.199906 0.414405
v 0.050789 0.199906 0.378533
v 0.186866 0.199906 0.394168
v -0.497480 0.199906 0.437894
v 0.038749 0.199906 0.413853
v 0.173275 0.199906 0.441281
v 0.025563 0.199906 0.445231
v -0.678458 0.199906 0.486121
v -0.536114 0.199906 0.518148
v 0.157940 0.199906 0.484333
v 0.016608 0.199906 0.462494
v 0.006953 0.199906 0.477409
v -0.003381 0.199906 0.490139
v 0.140802 0.199906 0.522631
v -0.719318 0.199906 0.553524
v -0.014379 0.199906 0.500844
v -0.313278 0.199906 0.641311
v -0.317219 0.199906 0.503925
v -0.335638 0.199906 0.498551
v -0.026022 0.199906 0.509686
v -0.298228 0.199906 0.508863
v -0.278878 0.199906 0.513359
v -0.038292 0.199906 0.516826
v -0.259385 0.199906 0.517407
v -0.051171 0.199906 0.522425
v -0.239963 0.199906 0.521002
v -0.577328 0.199906 0.595977
v -0.220829 0.199906 0.524136
v -0.064642 0.199906 0.526644
v 0.126435 0.199906 0.549682
v -0.202196 0.199906 0.526805
v -0.078686 0.199906 0.529645
v -0.184279 0.199906 0.529001
v -0.167294 0.199906 0.530720
v -0.093284 0.199906 0.531589
v -0.151456 0.199906 0.531956
v -0.108421 0.199906 0.532637
v -0.136979 0.199906 0.532701
v -0.124079 0.199906 0.532951
v 0.110854 0.199906 0.573347
v -0.762198 0.199906 0.615511
v 0.094068 0.199906 0.593823
v 0.076081 0.199906 0.611307
v -0.621158 0.199906 0.670551
v 0.056898 0.199906 0.625995
v 0.036528 0.199906 0.638086
v 0.014975 0.199906 0.647776
v -0.298970 0.199906 0.644709
v -0.283671 0.199906 0.648000
v -0.007754 0.199906 0.655262
v -0.267536 0.199906 0.651147
v -0.250720 0.199906 0.654115
v -0.233378 0.199906 0.656869
v -0.031654 0.199906 0.660742
v -0.215667 0.199906 0.659371
v -0.197740 0.199906 0.661587
v -0.056719 0.199906 0.664412
v -0.179754 0.199906 0.663480
v -0.161863 0.199906 0.665015
v -0.082942 0.199906 0.666469
v -0.144223 0.199906 0.666155
v -0.126989 0.199906 0.666866
v -0.110318 0.199906 0.667111
v -1.000000 -1.000000 1.000000
v -1.000000 1.000000 1.000000
v -1.000000 -1.000000 -1.000000
v -1.000000 1.000000 -1.000000
v 1.000000 -1.000000 1.000000
v 1.000000 1.000000 1.000000
v 1.000000 -1.000000 -1.000000
v 1.000000 1.000000 -1.000000
vn -0.8013 -0.5656 -0.1949
vn 0.2095 -0.5884 -0.7809
vn 0.5888 -0.7017 -0.4011
vn 0.6037 -0.7032 -0.3755
vn -0.5623 -0.7142 0.4167
vn 0.6144 -0.7041 -0.3561
vn -0.5859 -0.7126 0.3858
vn 0.6225 -0.7046 -0.3406
vn -0.6032 -0.7116 0.3604
vn 0.6290 -0.7050 -0.3276
vn -0.6164 -0.7108 0.3388
vn -0.6269 -0.7104 0.3199
vn 0.6345 -0.7052 -0.3163
vn -0.6357 -0.7101 0.3028
vn 0.6395 -0.7053 -0.3059
vn -0.6434 -0.7099 0.2866
vn 0.6442 -0.7054 -0.2958
vn -0.6502 -0.7099 0.2706
vn 0.6489 -0.7053 -0.2855
vn -0.6567 -0.7100 0.2542
vn 0.6540 -0.7050 -0.2742
vn 0.6600 -0.7045 -0.2607
vn -0.6631 -0.7103 0.2362
vn 0.7550 -0.5815 0.3029
vn -0.6695 -0.7109 0.2153
vn -0.3326 -0.5700 0.7514
vn -0.7043 -0.7097 -0.0164
vn -0.5442 -0.5725 -0.6132
vn 0.6655 -0.5719 -0.4797
vn 0.6907 -0.7077 0.1484
vn 0.6916 -0.7077 0.1447
vn -0.7040 -0.7095 -0.0319
vn 0.6923 -0.7075 0.1417
vn 0.6929 -0.7074 0.1395
vn 0.6933 -0.7073 0.1380
vn 0.6936 -0.7072 0.1372
vn -0.7033 -0.7093 -0.0463
vn 0.6937 -0.7071 0.1369
vn 0.6938 -0.7070 0.1374
vn 0.6937 -0.7069 0.1385
vn -0.7024 -0.7092 -0.0599
vn 0.6934 -0.7068 0.1402
vn 0.6930 -0.7066 0.1427
vn 0.6912 -0.7100 0.1347
vn 0.2653 -0.9336 -0.2410
vn -0.7013 -0.7091 -0.0727
vn -0.7000 -0.7091 -0.0851
vn -0.6985 -0.7090 -0.0969
vn -0.6969 -0.7089 -0.1085
vn -0.6950 -0.7089 -0.1197
vn -0.6931 -0.7089 -0.1309
vn -0.6909 -0.7089 -0.1419
vn -0.3276 -0.8684 -0.3722
vn -0.0124 -0.7053 -0.7088
vn 0.0087 -0.7022 -0.7119
vn 0.0528 -0.6983 -0.7139
vn -0.0223 -0.7057 -0.7081
vn -0.0300 -0.7060 -0.7076
vn -0.0362 -0.7062 -0.7071
vn 0.1160 -0.6963 -0.7083
vn -0.0413 -0.7064 -0.7066
vn -0.0455 -0.7065 -0.7063
vn -0.0490 -0.7066 -0.7059
vn -0.0519 -0.7067 -0.7056
vn 0.1923 -0.6940 -0.6938
vn -0.0544 -0.7067 -0.7054
vn -0.0566 -0.7068 -0.7052
vn -0.0584 -0.7068 -0.7050
vn 0.2808 -0.6917 -0.6653
vn -0.0587 -0.7071 -0.7046
vn 0.3777 -0.6896 -0.6178
vn -0.0584 -0.7072 -0.7046
vn -0.0577 -0.7072 -0.7046
vn -0.0567 -0.7073 -0.7046
vn -0.0553 -0.7074 -0.7047
vn -0.0534 -0.7074 -0.7047
vn -0.0509 -0.7076 -0.7048
vn -0.0476 -0.7077 -0.7049
vn -0.0435 -0.7079 -0.7050
vn 0.4752 -0.6882 -0.5482
vn -0.0380 -0.7081 -0.7051
vn -0.0307 -0.7084 -0.7051
vn -0.0244 -0.7078 -0.7060
vn -0.5052 -0.5744 0.6441
vn -0.5909 -0.5699 -0.5710
vn 0.0355 -0.7087 -0.7046
vn -0.0221 -0.7072 -0.7067
vn -0.0212 -0.7073 -0.7066
vn 0.0259 -0.7086 -0.7051
vn -0.0191 -0.7075 -0.7064
vn -0.0159 -0.7077 -0.7063
vn 0.0167 -0.7085 -0.7055
vn -0.0115 -0.7079 -0.7062
vn 0.0083 -0.7084 -0.7058
vn -0.0060 -0.7081 -0.7061
vn 0.0007 -0.7082 -0.7060
vn 0.1027 -0.7078 0.6989
vn 0.0990 -0.7076 0.6996
vn 0.0961 -0.7075 0.7001
vn 0.0940 -0.7074 0.7005
vn 0.0923 -0.7074 0.7008
vn 0.0910 -0.7073 0.7011
vn 0.0901 -0.7072 0.7012
vn 0.0896 -0.7071 0.7014
vn 0.0838 -0.7092 0.7000
vn -0.2501 -0.9439 0.2155
vn 0.5625 -0.6881 -0.4585
vn 0.3275 -0.8617 0.3877
vn 0.0621 -0.7074 0.7041
vn 0.0600 -0.7075 0.7042
vn 0.0576 -0.7075 0.7043
vn 0.0547 -0.7076 0.7045
vn 0.0514 -0.7077 0.7047
vn 0.0475 -0.7078 0.7048
vn 0.0429 -0.7079 0.7050
vn 0.0375 -0.7081 0.7052
vn 0.0308 -0.7083 0.7053
vn 0.0227 -0.7085 0.7053
vn 0.6310 -0.6890 -0.3566
vn 0.0125 -0.7089 0.7052
vn -0.0055 -0.7111 0.7031
vn -0.0403 -0.7144 0.6985
vn -0.0929 -0.7171 0.6907
vn 0.6773 -0.6908 -0.2531
vn -0.1617 -0.7203 0.6746
vn -0.2465 -0.7238 0.6445
vn 0.6840 -0.7057 0.1845
vn -0.3433 -0.7269 0.5947
vn -0.4430 -0.7289 0.5219
vn -0.6798 -0.7093 -0.1867
vn 0.7037 -0.6930 -0.1568
vn -0.5331 -0.7290 0.4294
vn -0.6036 -0.7272 0.3271
vn 0.0903 -0.7069 0.7015
vn 0.0894 -0.7071 0.7014
vn 0.0896 -0.7070 0.7015
vn 0.7152 -0.6951 -0.0725
vn -0.6512 -0.7242 0.2269
vn 0.6817 -0.7055 0.1936
vn -0.6761 -0.7093 -0.1997
vn -0.6790 -0.7211 0.1376
vn 0.7134 -0.7006 -0.0128
vn -0.6929 -0.7183 0.0626
vn 0.6789 -0.7053 0.2039
vn -0.7009 -0.7131 0.0101
vn -0.6719 -0.7094 -0.2129
vn 0.7093 -0.7047 0.0156
vn -0.7042 -0.7098 -0.0168
vn 0.6756 -0.7051 0.2154
vn 0.7088 -0.7047 0.0309
vn -0.6672 -0.7095 -0.2267
vn -0.7037 -0.7097 -0.0332
vn 0.7081 -0.7046 0.0465
vn -0.7027 -0.7097 -0.0495
vn 0.6716 -0.7048 0.2283
vn -0.6616 -0.7098 -0.2417
vn -0.7013 -0.7098 -0.0661
vn 0.7070 -0.7044 0.0629
vn -0.6551 -0.7101 -0.2581
vn 0.6668 -0.7046 0.2427
vn -0.6992 -0.7100 -0.0836
vn 0.7054 -0.7042 0.0807
vn -0.6964 -0.7103 -0.1025
vn 0.7033 -0.7038 0.1005
vn -0.6470 -0.7106 -0.2765
vn 0.6611 -0.7042 0.2589
vn -0.6925 -0.7107 -0.1235
vn 0.7002 -0.7033 0.1230
vn -0.6873 -0.7113 -0.1472
vn -0.6372 -0.7111 -0.2973
vn 0.6541 -0.7038 0.2771
vn 0.6958 -0.7026 0.1493
vn -0.6799 -0.7121 -0.1749
vn -0.6247 -0.7118 -0.3211
vn -0.6693 -0.7133 -0.2080
vn 0.6893 -0.7016 0.1806
vn 0.6455 -0.7034 0.2976
vn -0.6535 -0.7150 -0.2484
vn 0.6795 -0.7003 0.2188
vn -0.6319 -0.7163 -0.2961
vn -0.6086 -0.7127 -0.3487
vn 0.6349 -0.7028 0.3208
vn 0.6643 -0.6984 0.2665
vn -0.6017 -0.7181 -0.3497
vn -0.5620 -0.7194 -0.4082
vn -0.5119 -0.7205 -0.4678
vn 0.6420 -0.6996 0.3137
vn -0.5876 -0.7140 -0.3808
vn -0.4520 -0.7211 -0.5251
vn -0.5870 -0.6005 0.5430
vn -0.5480 -0.5577 -0.6234
vn 0.1871 -0.7104 -0.6784
vn -0.3844 -0.7211 -0.5763
vn 0.1683 -0.7101 -0.6837
vn 0.1513 -0.7098 -0.6880
vn -0.3132 -0.7205 -0.6187
vn 0.1358 -0.7096 -0.6914
vn -0.2427 -0.7193 -0.6510
vn 0.1211 -0.7094 -0.6943
vn 0.6217 -0.7022 0.3471
vn 0.1069 -0.7094 -0.6967
vn -0.1770 -0.7177 -0.6735
vn 0.6171 -0.6967 0.3659
vn 0.0929 -0.7094 -0.6987
vn -0.1191 -0.7160 -0.6879
vn 0.0784 -0.7095 -0.7003
vn 0.0629 -0.7097 -0.7017
vn -0.0704 -0.7143 -0.6963
vn 0.0455 -0.7101 -0.7026
vn -0.0313 -0.7127 -0.7008
vn 0.0249 -0.7107 -0.7030
vn -0.0002 -0.7116 -0.7026
vn 0.5787 -0.6955 0.4259
vn -0.7883 -0.5661 0.2411
vn 0.5297 -0.6946 0.4867
vn 0.4705 -0.6941 0.5448
vn 0.2653 -0.5862 0.7655
vn 0.4033 -0.6941 0.5963
vn 0.3316 -0.6946 0.6384
vn 0.2600 -0.6955 0.6698
vn -0.1566 -0.7047 0.6920
vn -0.1425 -0.7049 0.6948
vn 0.1925 -0.6968 0.6909
vn -0.1295 -0.7051 0.6972
vn -0.1172 -0.7052 0.6993
vn -0.1052 -0.7052 0.7012
vn 0.1320 -0.6982 0.7036
vn -0.0931 -0.7052 0.7029
vn -0.0806 -0.7051 0.7045
vn 0.0797 -0.6996 0.7100
vn -0.0674 -0.7049 0.7061
vn -0.0532 -0.7047 0.7075
vn 0.0363 -0.7010 0.7123
vn -0.0375 -0.7045 0.7087
vn -0.0198 -0.7041 0.7098
vn 0.0031 -0.7028 0.7113
vn -0.8013 0.5656 -0.1949
vn 0.5888 0.7017 -0.4011
vn 0.2095 0.5885 -0.7809
vn 0.6038 0.7032 -0.3755
vn -0.5623 0.7142 0.4167
vn 0.6144 0.7041 -0.3561
vn -0.5859 0.7126 0.3858
vn 0.6225 0.7046 -0.3406
vn -0.6032 0.7115 0.3604
vn 0.6290 0.7050 -0.3276
vn -0.6164 0.7108 0.3388
vn -0.6269 0.7103 0.3199
vn 0.6345 0.7052 -0.3163
vn -0.6357 0.7101 0.3028
vn 0.6395 0.7053 -0.3059
vn -0.6434 0.7099 0.2866
vn 0.6442 0.7054 -0.2958
vn -0.6503 0.7099 0.2706
vn 0.6489 0.7053 -0.2855
vn -0.6567 0.7100 0.2541
vn 0.6540 0.7050 -0.2742
vn 0.6600 0.7045 -0.2607
vn -0.6631 0.7103 0.2362
vn 0.7550 0.5816 0.3029
vn -0.6695 0.7109 0.2153
vn -0.3326 0.5699 0.7514
vn -0.7043 0.7097 -0.0164
vn 0.6654 0.5719 -0.4797
vn -0.5442 0.5725 -0.6132
vn 0.6907 0.7077 0.1484
vn 0.6916 0.7076 0.1447
vn -0.7040 0.7095 -0.0319
vn 0.6923 0.7075 0.1417
vn 0.6929 0.7074 0.1395
vn 0.6933 0.7073 0.1380
vn 0.6936 0.7072 0.1372
vn -0.7033 0.7093 -0.0463
vn 0.6937 0.7071 0.1369
vn 0.6938 0.7070 0.1374
vn 0.6937 0.7069 0.1384
vn -0.7024 0.7092 -0.0599
vn 0.6934 0.7068 0.1402
vn 0.6930 0.7066 0.1427
vn 0.6912 0.7100 0.1347
vn 0.2653 0.9336 -0.2410
vn -0.7013 0.7091 -0.0727
vn -0.7000 0.7091 -0.0851
vn -0.6985 0.7090 -0.0969
vn -0.6969 0.7089 -0.1085
vn -0.6950 0.7089 -0.1197
vn -0.6931 0.7089 -0.1309
vn -0.6909 0.7089 -0.1419
vn -0.3276 0.8684 -0.3722
vn -0.0124 0.7053 -0.7088
vn 0.0528 0.6983 -0.7139
vn 0.0087 0.7022 -0.7119
vn -0.0223 0.7057 -0.7081
vn -0.0300 0.7060 -0.7076
vn -0.0362 0.7062 -0.7071
vn 0.1160 0.6963 -0.7083
vn -0.0413 0.7064 -0.7066
vn -0.0455 0.7065 -0.7063
vn -0.0490 0.7066 -0.7059
vn -0.0519 0.7067 -0.7056
vn 0.1923 0.6940 -0.6938
vn -0.0544 0.7067 -0.7054
vn -0.0566 0.7068 -0.7052
vn -0.0584 0.7068 -0.7050
vn 0.2808 0.6917 -0.6653
vn -0.0587 0.7071 -0.7046
vn 0.3777 0.6896 -0.6178
vn -0.0584 0.7072 -0.7046
vn -0.0577 0.7072 -0.7046
vn -0.0567 0.7073 -0.7046
vn -0.0553 0.7074 -0.7047
vn -0.0534 0.7075 -0.7047
vn -0.0509 0.7076 -0.7048
vn -0.0476 0.7077 -0.7049
vn -0.0435 0.7079 -0.7050
vn 0.4752 0.6882 -0.5482
vn -0.0380 0.7081 -0.7051
vn -0.0307 0.7084 -0.7051
vn -0.0244 0.7078 -0.7060
vn -0.5052 0.5744 0.6441
vn 0.0355 0.7087 -0.7046
vn -0.5909 0.5699 -0.5709
vn -0.0221 0.7072 -0.7067
vn -0.0212 0.7073 -0.7066
vn 0.0259 0.7086 -0.7051
vn -0.0191 0.7075 -0.7064
vn -0.0159 0.7077 -0.7063
vn 0.0167 0.7085 -0.7055
vn -0.0115 0.7079 -0.7062
vn 0.0083 0.7084 -0.7058
vn -0.0060 0.7081 -0.7061
vn 0.0007 0.7082 -0.7060
vn 0.1027 0.7078 0.6989
vn 0.0990 0.7076 0.6996
vn 0.0961 0.7075 0.7001
vn 0.0939 0.7074 0.7005
vn 0.0923 0.7073 0.7009
vn 0.0910 0.7073 0.7010
vn 0.0901 0.7072 0.7012
vn 0.0896 0.7071 0.7014
vn 0.0838 0.7092 0.7000
vn -0.2502 0.9439 0.2155
vn 0.5624 0.6881 -0.4585
vn 0.3275 0.8617 0.3877
vn 0.0621 0.7074 0.7041
vn 0.0600 0.7075 0.7042
vn 0.0576 0.7075 0.7043
vn 0.0547 0.7076 0.7045
vn 0.0514 0.7077 0.7047
vn 0.0475 0.7078 0.7048
vn 0.0429 0.7079 0.7050
vn 0.0375 0.7081 0.7052
vn 0.0308 0.7083 0.7053
vn 0.0227 0.7085 0.7053
vn 0.6310 0.6890 -0.3566
vn 0.0125 0.7089 0.7052
vn -0.0055 0.7111 0.7031
vn -0.0403 0.7144 0.6985
vn -0.0929 0.7171 0.6907
vn 0.6773 0.6908 -0.2530
vn -0.1617 0.7203 0.6746
vn -0.2465 0.7238 0.6445
vn 0.6840 0.7057 0.1845
vn -0.3433 0.7269 0.5947
vn -0.4430 0.7289 0.5219
vn -0.6798 0.7093 -0.1867
vn 0.7037 0.6930 -0.1568
vn -0.5331 0.7290 0.4294
vn -0.6036 0.7272 0.3271
vn 0.0904 0.7069 0.7015
vn 0.0894 0.7071 0.7014
vn 0.0891 0.7071 0.7015
vn 0.7152 0.6951 -0.0725
vn -0.6512 0.7242 0.2269
vn 0.6817 0.7055 0.1936
vn -0.6761 0.7093 -0.1997
vn -0.6790 0.7211 0.1376
vn 0.7134 0.7006 -0.0128
vn -0.6929 0.7183 0.0626
vn 0.6789 0.7053 0.2039
vn -0.7009 0.7132 0.0101
vn -0.6719 0.7094 -0.2129
vn 0.7093 0.7047 0.0155
vn -0.7042 0.7098 -0.0168
vn 0.6756 0.7051 0.2154
vn 0.7088 0.7047 0.0309
vn -0.6672 0.7096 -0.2267
vn -0.7037 0.7097 -0.0332
vn 0.7081 0.7046 0.0465
vn -0.7027 0.7097 -0.0495
vn 0.6716 0.7049 0.2283
vn -0.6616 0.7098 -0.2417
vn -0.7013 0.7098 -0.0661
vn 0.7070 0.7044 0.0629
vn -0.6551 0.7101 -0.2581
vn 0.6668 0.7046 0.2427
vn -0.6992 0.7100 -0.0836
vn 0.7054 0.7042 0.0807
vn -0.6964 0.7103 -0.1025
vn 0.7033 0.7038 0.1005
vn -0.6471 0.7105 -0.2765
vn 0.6611 0.7042 0.2589
vn -0.6925 0.7107 -0.1235
vn 0.7002 0.7033 0.1230
vn -0.6873 0.7113 -0.1472
vn -0.6371 0.7111 -0.2973
vn 0.6541 0.7038 0.2771
vn 0.6958 0.7026 0.1493
vn -0.6799 0.7121 -0.1749
vn -0.6247 0.7118 -0.3211
vn -0.6693 0.7133 -0.2080
vn 0.6893 0.7016 0.1806
vn 0.6455 0.7034 0.2976
vn -0.6535 0.7150 -0.2484
vn 0.6795 0.7003 0.2188
vn -0.6319 0.7163 -0.2961
vn -0.6086 0.7127 -0.3487
vn 0.6349 0.7028 0.3208
vn 0.6643 0.6984 0.2665
vn -0.6017 0.7181 -0.3497
vn -0.5620 0.7194 -0.4082
vn -0.5119 0.7205 -0.4678
vn 0.6420 0.6996 0.3137
vn -0.5876 0.7140 -0.3808
vn -0.4520 0.7211 -0.5251
vn -0.5870 0.6005 0.5430
vn 0.1871 0.7104 -0.6784
vn -0.5480 0.5577 -0.6234
vn -0.3844 0.7211 -0.5763
vn 0.1683 0.7101 -0.6837
vn 0.1513 0.7098 -0.6880
vn -0.3132 0.7205 -0.6187
vn 0.1358 0.7096 -0.6914
vn -0.2427 0.7193 -0.6510
vn 0.1211 0.7094 -0.6943
vn 0.6217 0.7022 0.3471
vn 0.1069 0.7094 -0.6967
vn -0.1770 0.7177 -0.6735
vn 0.6171 0.6967 0.3659
vn 0.0929 0.7094 -0.6987
vn -0.1191 0.7160 -0.6879
vn 0.0784 0.7095 -0.7003
vn 0.0629 0.7097 -0.7017
vn -0.0704 0.7143 -0.6963
vn 0.0455 0.7101 -0.7026
vn -0.0313 0.7127 -0.7008
vn 0.0249 0.7107 -0.7030
vn -0.0002 0.7116 -0.7026
vn 0.5787 0.6955 0.4259
vn -0.7883 0.5661 0.2411
vn 0.5297 0.6946 0.4867
vn 0.4705 0.6941 0.5448
vn 0.2654 0.5862 0.7655
vn 0.4033 0.6941 0.5963
vn 0.3316 0.6946 0.6384
vn 0.2600 0.6956 0.6698
vn -0.1566 0.7047 0.6920
vn -0.1425 0.7049 0.6948
vn 0.1925 0.6968 0.6909
vn -0.1295 0.7051 0.6972
vn -0.1172 0.7052 0.6993
vn -0.1052 0.7052 0.7012
vn 0.1320 0.6982 0.7036
vn -0.0931 0.7052 0.7029
vn -0.0806 0.7051 0.7045
vn 0.0797 0.6996 0.7100
vn -0.0674 0.7049 0.7061
vn -0.0532 0.7048 0.7075
vn 0.0363 0.7010 0.7122
vn -0.0375 0.7045 0.7087
vn -0.0198 0.7041 0.7098
vn 0.0031 0.7028 0.7113
vn -1.0000 -0.0000 -0.0000
vn -0.0000 -0.0000 -1.0000
vn 1.0000 -0.0000 -0.0000
vn -0.0000 -0.0000 1.0000
vn -0.0000 -1.0000 -0.0000
vn -0.0000 1.0000 -0.0000
vt 0.869141 0.114833
vt 0.869141 0.119617
vt 0.869141 -0.000000
vt 0.869141 0.004785
vt 0.869141 0.110048
vt 0.869141 0.009569
vt 0.869141 0.105263
vt 0.869141 0.014354
vt 0.869141 0.100478
vt 0.869141 0.019139
vt 0.869141 0.095694
vt 0.869141 0.090909
vt 0.869141 0.023923
vt 0.869141 0.086124
vt 0.869141 0.028708
vt 0.869141 0.081340
vt 0.869141 0.033493
vt 0.869141 0.076555
vt 0.869141 0.038277
vt 0.869141 0.071770
vt 0.869141 0.043062
vt 0.869141 0.047847
vt 0.869141 0.066986
vt 0.869141 0.052632
vt 0.869141 0.062201
vt 0.869141 0.057416
vt 0.869141 0.162679
vt 0.869141 0.167464
vt 0.869141 0.172249
vt 0.869141 0.177034
vt 0.869141 0.181818
vt 0.869141 0.157895
vt 0.869141 0.186603
vt 0.869141 0.191388
vt 0.869141 0.196172
vt 0.869141 0.200957
vt 0.869141 0.153110
vt 0.869141 0.205742
vt 0.869141 0.210526
vt 0.869141 0.215311
vt 0.869141 0.148325
vt 0.869141 0.220096
vt 0.869141 0.224880
vt 0.869141 0.229665
vt 0.869141 0.234450
vt 0.869140 0.143541
vt 0.869140 0.138756
vt 0.869140 0.133971
vt 0.869140 0.129187
vt 0.869140 0.124402
vt 0.869140 0.119617
vt 0.869140 0.114833
vt 0.869140 0.110048
vt 0.869141 0.287081
vt 0.869141 0.291866
vt 0.869141 0.296651
vt 0.869141 0.282297
vt 0.869141 0.277512
vt 0.869141 0.272727
vt 0.869141 0.301435
vt 0.869141 0.267943
vt 0.869141 0.263158
vt 0.869141 0.258373
vt 0.869141 0.253589
vt 0.869141 0.306220
vt 0.869141 0.248804
vt 0.869141 0.244019
vt 0.869141 0.239234
vt 0.869141 0.311005
vt 0.869140 0.105263
vt 0.869141 0.315790
vt 0.869140 0.100478
vt 0.869140 0.095694
vt 0.869140 0.090909
vt 0.869140 0.086124
vt 0.869140 0.081340
vt 0.869140 0.076555
vt 0.869140 0.071770
vt 0.869140 0.066986
vt 0.869141 0.320574
vt 0.869140 0.062201
vt 0.869140 0.057416
vt 0.869140 0.052632
vt 0.869141 0.995215
vt 0.869141 1.000000
vt 0.869140 0.000000
vt 0.869140 0.047847
vt 0.869140 0.043062
vt 0.869140 0.004785
vt 0.869140 0.038278
vt 0.869140 0.033493
vt 0.869140 0.009569
vt 0.869140 0.028708
vt 0.869140 0.014354
vt 0.869140 0.023924
vt 0.869140 0.019139
vt 0.869141 0.990431
vt 0.869141 0.985646
vt 0.869141 0.980861
vt 0.869141 0.976076
vt 0.869141 0.971292
vt 0.869141 0.966507
vt 0.869141 0.961722
vt 0.869141 0.956938
vt 0.869141 0.937799
vt 0.869141 0.933014
vt 0.869141 0.325359
vt 0.869141 0.813397
vt 0.869141 0.808612
vt 0.869141 0.803828
vt 0.869141 0.799043
vt 0.869141 0.794258
vt 0.869141 0.789474
vt 0.869141 0.784689
vt 0.869141 0.779904
vt 0.869141 0.775120
vt 0.869141 0.770335
vt 0.869141 0.765550
vt 0.869141 0.330144
vt 0.869141 0.760765
vt 0.869141 0.755981
vt 0.869141 0.751196
vt 0.869141 0.746411
vt 0.869141 0.334928
vt 0.869141 0.741627
vt 0.869141 0.736842
vt 0.869141 0.818182
vt 0.869141 0.732057
vt 0.869141 0.727273
vt 0.869141 0.928230
vt 0.869141 0.339713
vt 0.869141 0.722488
vt 0.869141 0.717703
vt 0.869141 0.942584
vt 0.869141 0.952153
vt 0.869141 0.947368
vt 0.869141 0.344498
vt 0.869141 0.712919
vt 0.869141 0.822966
vt 0.869141 0.923445
vt 0.869141 0.708134
vt 0.869141 0.349282
vt 0.869141 0.703349
vt 0.869141 0.827751
vt 0.869141 0.698565
vt 0.869141 0.918660
vt 0.869141 0.354067
vt 0.869141 0.693780
vt 0.869141 0.832536
vt 0.869141 0.358852
vt 0.869141 0.913876
vt 0.869141 0.688995
vt 0.869141 0.363636
vt 0.869141 0.684210
vt 0.869141 0.837321
vt 0.869141 0.909091
vt 0.869141 0.679426
vt 0.869141 0.368421
vt 0.869141 0.904306
vt 0.869141 0.842105
vt 0.869141 0.674641
vt 0.869141 0.373206
vt 0.869141 0.669856
vt 0.869141 0.377990
vt 0.869141 0.899521
vt 0.869141 0.846890
vt 0.869141 0.665072
vt 0.869141 0.382775
vt 0.869141 0.660287
vt 0.869141 0.894737
vt 0.869141 0.851675
vt 0.869141 0.387560
vt 0.869141 0.655502
vt 0.869141 0.889952
vt 0.869141 0.650718
vt 0.869141 0.392345
vt 0.869141 0.856459
vt 0.869141 0.645933
vt 0.869141 0.397129
vt 0.869141 0.641148
vt 0.869141 0.885167
vt 0.869141 0.861244
vt 0.869141 0.401914
vt 0.869141 0.636364
vt 0.869141 0.631579
vt 0.869141 0.626794
vt 0.869141 0.406699
vt 0.869141 0.880383
vt 0.869141 0.622010
vt 0.869141 0.521531
vt 0.869141 0.526316
vt 0.869141 0.531100
vt 0.869141 0.617225
vt 0.869141 0.535885
vt 0.869141 0.540670
vt 0.869141 0.612440
vt 0.869141 0.545455
vt 0.869141 0.607655
vt 0.869141 0.550239
vt 0.869141 0.866029
vt 0.869141 0.555024
vt 0.869141 0.602871
vt 0.869141 0.411483
vt 0.869141 0.559809
vt 0.869141 0.598086
vt 0.869141 0.564593
vt 0.869141 0.569378
vt 0.869141 0.593301
vt 0.869141 0.574163
vt 0.869141 0.588517
vt 0.869141 0.578947
vt 0.869141 0.583732
vt 0.869141 0.416268
vt 0.869141 0.875598
vt 0.869141 0.421053
vt 0.869141 0.425837
vt 0.869141 0.870813
vt 0.869141 0.430622
vt 0.869141 0.435407
vt 0.869141 0.440191
vt 0.869141 0.516746
vt 0.869141 0.511962
vt 0.869141 0.444976
vt 0.869141 0.507177
vt 0.869141 0.502392
vt 0.869141 0.497608
vt 0.869141 0.449761
vt 0.869141 0.492823
vt 0.869141 0.488038
vt 0.869141 0.454545
vt 0.869141 0.483254
vt 0.869141 0.478469
vt 0.869141 0.459330
vt 0.869141 0.473684
vt 0.869141 0.468900
vt 0.869141 0.464115
vt 0.324605 0.278905
vt 0.214057 0.389453
vt 0.214057 0.278905
vt 0.324605 0.389453
vt 0.214057 0.500000
vt 0.324605 0.500000
vt 0.214057 0.610547
vt 0.324605 0.610547
vt 0.214057 0.721095
vt 0.103510 0.610547
vt 0.103510 0.500000
vt 0.435152 0.500000
vt 0.324605 0.721095
vt 0.435152 0.610547
s 1
usemtl マテリアル
f 212/1/1 211/2/2 236/3/3
f 212/1/1 236/3/3 235/4/4
f 213/5/5 212/1/1 235/4/4
f 213/5/5 235/4/4 234/6/6
f 214/7/7 213/5/5 234/6/6
f 214/7/7 234/6/6 233/8/8
f 215/9/9 214/7/7 233/8/8
f 215/9/9 233/8/8 232/10/10
f 216/11/11 215/9/9 232/10/10
f 217/12/12 216/11/11 232/10/10
f 217/12/12 232/10/10 231/13/13
f 218/14/14 217/12/12 231/13/13
f 218/14/14 231/13/13 230/15/15
f 219/16/16 218/14/14 230/15/15
f 219/16/16 230/15/15 229/17/17
f 220/18/18 219/16/16 229/17/17
f 220/18/18 229/17/17 228/19/19
f 221/20/20 220/18/18 228/19/19
f 221/20/20 228/19/19 227/21/21
f 221/20/20 227/21/21 226/22/22
f 222/23/23 221/20/20 226/22/22
f 222/23/23 226/22/22 225/24/24
f 223/25/25 222/23/23 225/24/24
f 223/25/25 225/24/24 224/26/26
f 176/27/27 175/28/28 174/29/29
f 176/27/27 174/29/29 173/30/30
f 176/27/27 173/30/30 172/31/31
f 177/32/32 176/27/27 172/31/31
f 177/32/32 172/31/31 171/33/33
f 177/32/32 171/33/33 170/34/34
f 177/32/32 170/34/34 169/35/35
f 177/32/32 169/35/35 168/36/36
f 178/37/37 177/32/32 168/36/36
f 178/37/37 168/36/36 167/38/38
f 178/37/37 167/38/38 166/39/39
f 178/37/37 166/39/39 165/40/40
f 179/41/41 178/37/37 165/40/40
f 179/41/41 165/40/40 164/42/42
f 179/41/41 164/42/42 163/43/43
f 179/41/41 163/43/43 162/44/44
f 179/41/41 162/44/44 161/45/45
f 180/46/46 179/41/41 161/45/45
f 181/47/47 180/46/46 161/45/45
f 182/48/48 181/47/47 161/45/45
f 183/49/49 182/48/48 161/45/45
f 184/50/50 183/49/49 161/45/45
f 185/51/51 184/50/50 161/45/45
f 186/52/52 185/51/51 161/45/45
f 187/53/53 186/52/52 161/45/45
f 150/54/54 149/55/55 148/56/56
f 151/57/57 150/54/54 148/56/56
f 152/58/58 151/57/57 148/56/56
f 153/59/59 152/58/58 148/56/56
f 153/59/59 148/56/56 147/60/60
f 154/61/61 153/59/59 147/60/60
f 155/62/62 154/61/61 147/60/60
f 156/63/63 155/62/62 147/60/60
f 157/64/64 156/63/63 147/60/60
f 157/64/64 147/60/60 146/65/65
f 158/66/66 157/64/64 146/65/65
f 159/67/67 158/66/66 146/65/65
f 160/68/68 159/67/67 146/65/65
f 161/45/45 160/68/68 146/65/65
f 187/53/53 161/45/45 146/65/65
f 187/53/53 146/65/65 145/69/69
f 188/70/70 187/53/53 145/69/69
f 188/70/70 145/69/69 144/71/71
f 189/72/72 188/70/70 144/71/71
f 190/73/73 189/72/72 144/71/71
f 191/74/74 190/73/73 144/71/71
f 192/75/75 191/74/74 144/71/71
f 193/76/76 192/75/75 144/71/71
f 194/77/77 193/76/76 144/71/71
f 195/78/78 194/77/77 144/71/71
f 196/79/79 195/78/78 144/71/71
f 196/79/79 144/71/71 143/80/80
f 197/81/81 196/79/79 143/80/80
f 198/82/82 197/81/81 143/80/80
f 199/83/83 198/82/82 143/80/80
f 2/84/84 1/85/85 210/86/86
f 200/87/87 199/83/83 143/80/80
f 201/88/88 200/87/87 143/80/80
f 2/84/84 210/86/86 209/89/89
f 202/90/90 201/88/88 143/80/80
f 203/91/91 202/90/90 143/80/80
f 2/84/84 209/89/89 208/92/92
f 204/93/93 203/91/91 143/80/80
f 2/84/84 208/92/92 207/94/94
f 205/95/95 204/93/93 143/80/80
f 2/84/84 207/94/94 206/96/96
f 206/96/96 205/95/95 143/80/80
f 2/84/84 206/96/96 3/97/97
f 3/97/97 206/96/96 4/98/98
f 4/98/98 206/96/96 143/80/80
f 4/98/98 143/80/80 5/99/99
f 5/99/99 143/80/80 6/100/100
f 6/100/100 143/80/80 7/101/101
f 7/101/101 143/80/80 8/102/102
f 8/102/102 143/80/80 9/103/103
f 9/103/103 143/80/80 10/104/104
f 10/104/104 143/80/80 14/105/105
f 14/105/105 143/80/80 15/106/106
f 15/106/106 143/80/80 142/107/107
f 15/106/106 142/107/107 40/108/108
f 40/108/108 142/107/107 41/109/109
f 41/109/109 142/107/107 42/110/110
f 42/110/110 142/107/107 43/111/111
f 43/111/111 142/107/107 44/112/112
f 44/112/112 142/107/107 45/113/113
f 45/113/113 142/107/107 46/114/114
f 46/114/114 142/107/107 47/115/115
f 47/115/115 142/107/107 48/116/116
f 48/116/116 142/107/107 49/117/117
f 49/117/117 142/107/107 50/118/118
f 50/118/118 142/107/107 141/119/119
f 50/118/118 141/119/119 51/120/120
f 51/120/120 141/119/119 52/121/121
f 52/121/121 141/119/119 53/122/122
f 53/122/122 141/119/119 54/123/123
f 54/123/123 141/119/119 140/124/124
f 55/125/125 54/123/123 140/124/124
f 56/126/126 55/125/125 140/124/124
f 15/106/106 40/108/108 39/127/127
f 57/128/128 56/126/126 140/124/124
f 58/129/129 57/128/128 140/124/124
f 16/130/130 15/106/106 39/127/127
f 58/129/129 140/124/124 139/131/131
f 59/132/132 58/129/129 139/131/131
f 60/133/133 59/132/132 139/131/131
f 10/104/104 14/105/105 13/134/134
f 10/104/104 13/134/134 11/135/135
f 11/135/135 13/134/134 12/136/136
f 60/133/133 139/131/131 138/137/137
f 61/138/138 60/133/133 138/137/137
f 16/130/130 39/127/127 38/139/139
f 17/140/140 16/130/130 38/139/139
f 62/141/141 61/138/138 138/137/137
f 62/141/141 138/137/137 137/142/142
f 63/143/143 62/141/141 137/142/142
f 17/140/140 38/139/139 37/144/144
f 64/145/145 63/143/143 137/142/142
f 18/146/146 17/140/140 37/144/144
f 64/145/145 137/142/142 136/147/147
f 65/148/148 64/145/145 136/147/147
f 18/146/146 37/144/144 36/149/149
f 65/148/148 136/147/147 135/150/150
f 19/151/151 18/146/146 36/149/149
f 66/152/152 65/148/148 135/150/150
f 66/152/152 135/150/150 134/153/153
f 67/154/154 66/152/152 134/153/153
f 19/151/151 36/149/149 35/155/155
f 20/156/156 19/151/151 35/155/155
f 68/157/157 67/154/154 134/153/153
f 68/157/157 134/153/153 133/158/158
f 21/159/159 20/156/156 35/155/155
f 21/159/159 35/155/155 34/160/160
f 69/161/161 68/157/157 133/158/158
f 69/161/161 133/158/158 132/162/162
f 70/163/163 69/161/161 132/162/162
f 70/163/163 132/162/162 131/164/164
f 22/165/165 21/159/159 34/160/160
f 22/165/165 34/160/160 33/166/166
f 71/167/167 70/163/163 131/164/164
f 71/167/167 131/164/164 130/168/168
f 72/169/169 71/167/167 130/168/168
f 23/170/170 22/165/165 33/166/166
f 23/170/170 33/166/166 32/171/171
f 72/169/169 130/168/168 129/172/172
f 73/173/173 72/169/169 129/172/172
f 24/174/174 23/170/170 32/171/171
f 74/175/175 73/173/173 129/172/172
f 74/175/175 129/172/172 128/176/176
f 24/174/174 32/171/171 31/177/177
f 75/178/178 74/175/175 128/176/176
f 75/178/178 128/176/176 127/179/179
f 76/180/180 75/178/178 127/179/179
f 25/181/181 24/174/174 31/177/177
f 25/181/181 31/177/177 30/182/182
f 76/180/180 127/179/179 126/183/183
f 77/184/184 76/180/180 126/183/183
f 78/185/185 77/184/184 126/183/183
f 79/186/186 78/185/185 126/183/183
f 79/186/186 126/183/183 125/187/187
f 26/188/188 25/181/181 30/182/182
f 80/189/189 79/186/186 125/187/187
f 101/190/190 100/191/191 99/192/192
f 81/193/193 80/189/189 125/187/187
f 101/190/190 99/192/192 98/194/194
f 101/190/190 98/194/194 97/195/195
f 82/196/196 81/193/193 125/187/187
f 101/190/190 97/195/195 96/197/197
f 83/198/198 82/196/196 125/187/187
f 101/190/190 96/197/197 95/199/199
f 26/188/188 30/182/182 29/200/200
f 101/190/190 95/199/199 94/201/201
f 84/202/202 83/198/198 125/187/187
f 84/202/202 125/187/187 124/203/203
f 101/190/190 94/201/201 93/204/204
f 85/205/205 84/202/202 124/203/203
f 101/190/190 93/204/204 92/206/206
f 101/190/190 92/206/206 91/207/207
f 86/208/208 85/205/205 124/203/203
f 101/190/190 91/207/207 90/209/209
f 87/210/210 86/208/208 124/203/203
f 101/190/190 90/209/209 89/211/211
f 88/212/212 87/210/210 124/203/203
f 101/190/190 89/211/211 88/212/212
f 101/190/190 88/212/212 124/203/203
f 101/190/190 124/203/203 123/213/213
f 27/214/214 26/188/188 29/200/200
f 101/190/190 123/213/213 122/215/215
f 101/190/190 122/215/215 121/216/216
f 27/214/214 29/200/200 28/217/217
f 101/190/190 121/216/216 120/218/218
f 101/190/190 120/218/218 119/219/219
f 101/190/190 119/219/219 118/220/220
f 102/221/221 101/190/190 118/220/220
f 103/222/222 102/221/221 118/220/220
f 103/222/222 118/220/220 117/223/223
f 104/224/224 103/222/222 117/223/223
f 105/225/225 104/224/224 117/223/223
f 106/226/226 105/225/225 117/223/223
f 106/226/226 117/223/223 116/227/227
f 107/228/228 106/226/226 116/227/227
f 108/229/229 107/228/228 116/227/227
f 108/229/229 116/227/227 115/230/230
f 109/231/231 108/229/229 115/230/230
f 110/232/232 109/231/231 115/230/230
f 110/232/232 115/230/230 114/233/233
f 111/234/234 110/232/232 114/233/233
f 112/235/235 111/234/234 114/233/233
f 112/235/235 114/233/233 113/236/236
f 237/1/237 238/3/238 239/2/239
f 237/1/237 240/4/240 238/3/238
f 241/5/241 240/4/240 237/1/237
f 241/5/241 242/6/242 240/4/240
f 243/7/243 242/6/242 241/5/241
f 243/7/243 244/8/244 242/6/242
f 245/9/245 244/8/244 243/7/243
f 245/9/245 246/10/246 244/8/244
f 247/11/247 246/10/246 245/9/245
f 248/12/248 246/10/246 247/11/247
f 248/12/248 249/13/249 246/10/246
f 250/14/250 249/13/249 248/12/248
f 250/14/250 251/15/251 249/13/249
f 252/16/252 251/15/251 250/14/250
f 252/16/252 253/17/253 251/15/251
f 254/18/254 253/17/253 252/16/252
f 254/18/254 255/19/255 253/17/253
f 256/20/256 255/19/255 254/18/254
f 256/20/256 257/21/257 255/19/255
f 256/20/256 258/22/258 257/21/257
f 259/23/259 258/22/258 256/20/256
f 259/23/259 260/24/260 258/22/258
f 261/25/261 260/24/260 259/23/259
f 261/25/261 262/26/262 260/24/260
f 263/27/263 264/29/264 265/28/265
f 263/27/263 266/30/266 264/29/264
f 263/27/263 267/31/267 266/30/266
f 268/32/268 267/31/267 263/27/263
f 268/32/268 269/33/269 267/31/267
f 268/32/268 270/34/270 269/33/269
f 268/32/268 271/35/271 270/34/270
f 268/32/268 272/36/272 271/35/271
f 273/37/273 272/36/272 268/32/268
f 273/37/273 274/38/274 272/36/272
f 273/37/273 275/39/275 274/38/274
f 273/37/273 276/40/276 275/39/275
f 277/41/277 276/40/276 273/37/273
f 277/41/277 278/42/278 276/40/276
f 277/41/277 279/43/279 278/42/278
f 277/41/277 280/44/280 279/43/279
f 277/41/277 281/45/281 280/44/280
f 282/46/282 281/45/281 277/41/277
f 283/47/283 281/45/281 282/46/282
f 284/48/284 281/45/281 283/47/283
f 285/49/285 281/45/281 284/48/284
f 286/50/286 281/45/281 285/49/285
f 287/51/287 281/45/281 286/50/286
f 288/52/288 281/45/281 287/51/287
f 289/53/289 281/45/281 288/52/288
f 290/54/290 291/56/291 292/55/292
f 293/57/293 291/56/291 290/54/290
f 294/58/294 291/56/291 293/57/293
f 295/59/295 291/56/291 294/58/294
f 295/59/295 296/60/296 291/56/291
f 297/61/297 296/60/296 295/59/295
f 298/62/298 296/60/296 297/61/297
f 299/63/299 296/60/296 298/62/298
f 300/64/300 296/60/296 299/63/299
f 300/64/300 301/65/301 296/60/296
f 302/66/302 301/65/301 300/64/300
f 303/67/303 301/65/301 302/66/302
f 304/68/304 301/65/301 303/67/303
f 281/45/281 301/65/301 304/68/304
f 289/53/289 301/65/301 281/45/281
f 289/53/289 305/69/305 301/65/301
f 306/70/306 305/69/305 289/53/289
f 306/70/306 307/71/307 305/69/305
f 308/72/308 307/71/307 306/70/306
f 309/73/309 307/71/307 308/72/308
f 310/74/310 307/71/307 309/73/309
f 311/75/311 307/71/307 310/74/310
f 312/76/312 307/71/307 311/75/311
f 313/77/313 307/71/307 312/76/312
f 314/78/314 307/71/307 313/77/313
f 315/79/315 307/71/307 314/78/314
f 315/79/315 316/80/316 307/71/307
f 317/81/317 316/80/316 315/79/315
f 318/82/318 316/80/316 317/81/317
f 319/83/319 316/80/316 318/82/318
f 320/84/320 321/86/321 322/85/322
f 323/87/323 316/80/316 319/83/319
f 324/88/324 316/80/316 323/87/323
f 320/84/320 325/89/325 321/86/321
f 326/90/326 316/80/316 324/88/324
f 327/91/327 316/80/316 326/90/326
f 320/84/320 328/92/328 325/89/325
f 329/93/329 316/80/316 327/91/327
f 320/84/320 330/94/330 328/92/328
f 331/95/331 316/80/316 329/93/329
f 320/84/320 332/96/332 330/94/330
f 332/96/332 316/80/316 331/95/331
f 320/84/320 333/97/333 332/96/332
f 333/97/333 334/98/334 332/96/332
f 334/98/334 316/80/316 332/96/332
f 334/98/334 335/99/335 316/80/316
f 335/99/335 336/100/336 316/80/316
f 336/100/336 337/101/337 316/80/316
f 337/101/337 338/102/338 316/80/316
f 338/102/338 339/103/339 316/80/316
f 339/103/339 340/104/340 316/80/316
f 340/104/340 341/105/341 316/80/316
f 341/105/341 342/106/342 316/80/316
f 342/106/342 343/107/343 316/80/316
f 342/106/342 344/108/344 343/107/343
f 344/108/344 345/109/345 343/107/343
f 345/109/345 346/110/346 343/107/343
f 346/110/346 347/111/347 343/107/343
f 347/111/347 348/112/348 343/107/343
f 348/112/348 349/113/349 343/107/343
f 349/113/349 350/114/350 343/107/343
f 350/114/350 351/115/351 343/107/343
f 351/115/351 352/116/352 343/107/343
f 352/116/352 353/117/353 343/107/343
f 353/117/353 354/118/354 343/107/343
f 354/118/354 355/119/355 343/107/343
f 354/118/354 356/120/356 355/119/355
f 356/120/356 357/121/357 355/119/355
f 357/121/357 358/122/358 355/119/355
f 358/122/358 359/123/359 355/119/355
f 359/123/359 360/124/360 355/119/355
f 361/125/361 360/124/360 359/123/359
f 362/126/362 360/124/360 361/125/361
f 342/106/342 363/127/363 344/108/344
f 364/128/364 360/124/360 362/126/362
f 365/129/365 360/124/360 364/128/364
f 366/130/366 363/127/363 342/106/342
f 365/129/365 367/131/367 360/124/360
f 368/132/368 367/131/367 365/129/365
f 369/133/369 367/131/367 368/132/368
f 340/104/340 370/134/370 341/105/341
f 340/104/340 371/135/371 370/134/370
f 371/135/371 372/136/372 370/134/370
f 369/133/369 373/137/373 367/131/367
f 374/138/374 373/137/373 369/133/369
f 366/130/366 375/139/375 363/127/363
f 376/140/376 375/139/375 366/130/366
f 377/141/377 373/137/373 374/138/374
f 377/141/377 378/142/378 373/137/373
f 379/143/379 378/142/378 377/141/377
f 376/140/376 380/144/380 375/139/375
f 381/145/381 378/142/378 379/143/379
f 382/146/382 380/144/380 376/140/376
f 381/145/381 383/147/383 378/142/378
f 384/148/384 383/147/383 381/145/381
f 382/146/382 385/149/385 380/144/380
f 384/148/384 386/150/386 383/147/383
f 387/151/387 385/149/385 382/146/382
f 388/152/388 386/150/386 384/148/384
f 388/152/388 389/153/389 386/150/386
f 390/154/390 389/153/389 388/152/388
f 387/151/387 391/155/391 385/149/385
f 392/156/392 391/155/391 387/151/387
f 393/157/393 389/153/389 390/154/390
f 393/157/393 394/158/394 389/153/389
f 395/159/395 391/155/391 392/156/392
f 395/159/395 396/160/396 391/155/391
f 397/161/397 394/158/394 393/157/393
f 397/161/397 398/162/398 394/158/394
f 399/163/399 398/162/398 397/161/397
f 399/163/399 400/164/400 398/162/398
f 401/165/401 396/160/396 395/159/395
f 401/165/401 402/166/402 396/160/396
f 403/167/403 400/164/400 399/163/399
f 403/167/403 404/168/404 400/164/400
f 405/169/405 404/168/404 403/167/403
f 406/170/406 402/166/402 401/165/401
f 406/170/406 407/171/407 402/166/402
f 405/169/405 408/172/408 404/168/404
f 409/173/409 408/172/408 405/169/405
f 410/174/410 407/171/407 406/170/406
f 411/175/411 408/172/408 409/173/409
f 411/175/411 412/176/412 408/172/408
f 410/174/410 413/177/413 407/171/407
f 414/178/414 412/176/412 411/175/411
f 414/178/414 415/179/415 412/176/412
f 416/180/416 415/179/415 414/178/414
f 417/181/417 413/177/413 410/174/410
f 417/181/417 418/182/418 413/177/413
f 416/180/416 419/183/419 415/179/415
f 420/184/420 419/183/419 416/180/416
f 421/185/421 419/183/419 420/184/420
f 422/186/422 419/183/419 421/185/421
f 422/186/422 423/187/423 419/183/419
f 424/188/424 418/182/418 417/181/417
f 425/189/425 423/187/423 422/186/422
f 426/190/426 427/192/427 428/191/428
f 429/193/429 423/187/423 425/189/425
f 426/190/426 430/194/430 427/192/427
f 426/190/426 431/195/431 430/194/430
f 432/196/432 423/187/423 429/193/429
f 426/190/426 433/197/433 431/195/431
f 434/198/434 423/187/423 432/196/432
f 426/190/426 435/199/435 433/197/433
f 424/188/424 436/200/436 418/182/418
f 426/190/426 437/201/437 435/199/435
f 438/202/438 423/187/423 434/198/434
f 438/202/438 439/203/439 423/187/423
f 426/190/426 440/204/440 437/201/437
f 441/205/441 439/203/439 438/202/438
f 426/190/426 442/206/442 440/204/440
f 426/190/426 443/207/443 442/206/442
f 444/208/444 439/203/439 441/205/441
f 426/190/426 445/209/445 443/207/443
f 446/210/446 439/203/439 444/208/444
f 426/190/426 447/211/447 445/209/445
f 448/212/448 439/203/439 446/210/446
f 426/190/426 448/212/448 447/211/447
f 426/190/426 439/203/439 448/212/448
f 426/190/426 449/213/449 439/203/439
f 450/214/450 436/200/436 424/188/424
f 426/190/426 451/215/451 449/213/449
f 426/190/426 452/216/452 451/215/451
f 450/214/450 453/217/453 436/200/436
f 426/190/426 454/218/454 452/216/452
f 426/190/426 455/219/455 454/218/454
f 426/190/426 456/220/456 455/219/455
f 457/221/457 456/220/456 426/190/426
f 458/222/458 456/220/456 457/221/457
f 458/222/458 459/223/459 456/220/456
f 460/224/460 459/223/459 458/222/458
f 461/225/461 459/223/459 460/224/460
f 462/226/462 459/223/459 461/225/461
f 462/226/462 463/227/463 459/223/459
f 464/228/464 463/227/463 462/226/462
f 465/229/465 463/227/463 464/228/464
f 465/229/465 466/230/466 463/227/463
f 467/231/467 466/230/466 465/229/465
f 468/232/468 466/230/466 467/231/467
f 468/232/468 469/233/469 466/230/466
f 470/234/470 469/233/469 468/232/468
f 471/235/471 469/233/469 470/234/470
f 471/235/471 472/236/472 469/233/469
f 182/48/48 283/47/283 181/47/47
f 183/49/49 284/48/284 182/48/48
f 183/49/49 286/50/286 285/49/285
f 184/50/50 287/51/287 286/50/286
f 185/51/51 288/52/288 287/51/287
f 187/53/53 288/52/288 186/52/52
f 149/55/55 291/56/291 148/56/56
f 150/54/54 292/55/292 149/55/55
f 151/57/57 290/54/290 150/54/54
f 152/58/58 293/57/293 151/57/57
f 153/59/59 294/58/294 152/58/58
f 148/56/56 296/60/296 147/60/60
f 154/61/61 295/59/295 153/59/59
f 155/62/62 297/61/297 154/61/61
f 156/63/63 298/62/298 155/62/62
f 157/64/64 299/63/299 156/63/63
f 147/60/60 301/65/301 146/65/65
f 158/66/66 300/64/300 157/64/64
f 159/67/67 302/66/302 158/66/66
f 160/68/68 303/67/303 159/67/67
f 161/45/45 304/68/304 160/68/68
f 146/65/65 305/69/305 145/69/69
f 188/70/70 289/53/289 187/53/53
f 145/69/69 307/71/307 144/71/71
f 189/72/72 306/70/306 188/70/70
f 190/73/73 308/72/308 189/72/72
f 190/73/73 310/74/310 309/73/309
f 192/75/75 310/74/310 191/74/74
f 193/76/76 311/75/311 192/75/75
f 193/76/76 313/77/313 312/76/312
f 195/78/78 313/77/313 194/77/77
f 196/79/79 314/78/314 195/78/78
f 144/71/71 316/80/316 143/80/80
f 197/81/81 315/79/315 196/79/79
f 198/82/82 317/81/317 197/81/81
f 199/83/83 318/82/318 198/82/82
f 1/85/85 321/86/321 210/86/86
f 2/84/84 322/85/322 1/85/85
f 200/87/87 319/83/319 199/83/83
f 201/88/88 323/87/323 200/87/87
f 210/86/86 325/89/325 209/89/89
f 202/90/90 324/88/324 201/88/88
f 203/91/91 326/90/326 202/90/90
f 209/89/89 328/92/328 208/92/92
f 204/93/93 327/91/327 203/91/91
f 208/92/92 330/94/330 207/94/94
f 205/95/95 329/93/329 204/93/93
f 207/94/94 332/96/332 206/96/96
f 206/96/96 331/95/331 205/95/95
f 3/97/97 320/84/320 2/84/84
f 4/98/98 333/97/333 3/97/97
f 5/99/99 334/98/334 4/98/98
f 6/100/100 335/99/335 5/99/99
f 6/100/100 337/101/337 336/100/336
f 8/102/102 337/101/337 7/101/101
f 9/103/103 338/102/338 8/102/102
f 10/104/104 339/103/339 9/103/103
f 15/106/106 341/105/341 14/105/105
f 143/80/80 343/107/343 142/107/107
f 41/109/109 344/108/344 40/108/108
f 41/109/109 346/110/346 345/109/345
f 43/111/111 346/110/346 42/110/110
f 44/112/112 347/111/347 43/111/111
f 45/113/113 348/112/348 44/112/112
f 46/114/114 349/113/349 45/113/113
f 47/115/115 350/114/350 46/114/114
f 48/116/116 351/115/351 47/115/115
f 49/117/117 352/116/352 48/116/116
f 50/118/118 353/117/353 49/117/117
f 141/119/119 343/107/343 355/119/355
f 51/120/120 354/118/354 50/118/118
f 52/121/121 356/120/356 51/120/120
f 53/122/122 357/121/357 52/121/121
f 54/123/123 358/122/358 53/122/122
f 141/119/119 360/124/360 140/124/124
f 55/125/125 359/123/359 54/123/123
f 56/126/126 361/125/361 55/125/125
f 40/108/108 363/127/363 39/127/127
f 56/126/126 364/128/364 362/126/362
f 57/128/128 365/129/365 364/128/364
f 15/106/106 366/130/366 342/106/342
f 139/131/131 360/124/360 367/131/367
f 58/129/129 368/132/368 365/129/365
f 60/133/133 368/132/368 59/132/132
f 14/105/105 370/134/370 13/134/134
f 11/135/135 340/104/340 10/104/104
f 12/136/136 371/135/371 11/135/135
f 13/134/134 372/136/372 12/136/136
f 139/131/131 373/137/373 138/137/137
f 61/138/138 369/133/369 60/133/133
f 39/127/127 375/139/375 38/139/139
f 17/140/140 366/130/366 16/130/130
f 61/138/138 377/141/377 374/138/374
f 138/137/137 378/142/378 137/142/142
f 62/141/141 379/143/379 377/141/377
f 37/144/144 375/139/375 380/144/380
f 63/143/143 381/145/381 379/143/379
f 18/146/146 376/140/376 17/140/140
f 137/142/142 383/147/383 136/147/147
f 65/148/148 381/145/381 64/145/145
f 37/144/144 385/149/385 36/149/149
f 136/147/147 386/150/386 135/150/150
f 18/146/146 387/151/387 382/146/382
f 66/152/152 384/148/384 65/148/148
f 135/150/150 389/153/389 134/153/153
f 67/154/154 388/152/388 66/152/152
f 36/149/149 391/155/391 35/155/155
f 20/156/156 387/151/387 19/151/151
f 68/157/157 390/154/390 67/154/154
f 134/153/153 394/158/394 133/158/158
f 21/159/159 392/156/392 20/156/156
f 34/160/160 391/155/391 396/160/396
f 69/161/161 393/157/393 68/157/157
f 133/158/158 398/162/398 132/162/162
f 69/161/161 399/163/399 397/161/397
f 132/162/162 400/164/400 131/164/164
f 22/165/165 395/159/395 21/159/159
f 33/166/166 396/160/396 402/166/402
f 71/167/167 399/163/399 70/163/163
f 131/164/164 404/168/404 130/168/168
f 71/167/167 405/169/405 403/167/403
f 22/165/165 406/170/406 401/165/401
f 33/166/166 407/171/407 32/171/171
f 130/168/168 408/172/408 129/172/172
f 72/169/169 409/173/409 405/169/405
f 24/174/174 406/170/406 23/170/170
f 74/175/175 409/173/409 73/173/173
f 129/172/172 412/176/412 128/176/176
f 32/171/171 413/177/413 31/177/177
f 74/175/175 414/178/414 411/175/411
f 128/176/176 415/179/415 127/179/179
f 75/178/178 416/180/416 414/178/414
f 25/181/181 410/174/410 24/174/174
f 30/182/182 413/177/413 418/182/418
f 126/183/183 415/179/415 419/183/419
f 77/184/184 416/180/416 76/180/180
f 78/185/185 420/184/420 77/184/184
f 79/186/186 421/185/421 78/185/185
f 126/183/183 423/187/423 125/187/187
f 26/188/188 417/181/417 25/181/181
f 80/189/189 422/186/422 79/186/186
f 100/191/191 427/192/427 99/192/192
f 101/190/190 428/191/428 100/191/191
f 81/193/193 425/189/425 80/189/189
f 99/192/192 430/194/430 98/194/194
f 98/194/194 431/195/431 97/195/195
f 82/196/196 429/193/429 81/193/193
f 97/195/195 433/197/433 96/197/197
f 83/198/198 432/196/432 82/196/196
f 96/197/197 435/199/435 95/199/199
f 29/200/200 418/182/418 436/200/436
f 95/199/199 437/201/437 94/201/201
f 84/202/202 434/198/434 83/198/198
f 124/203/203 423/187/423 439/203/439
f 94/201/201 440/204/440 93/204/204
f 85/205/205 438/202/438 84/202/202
f 93/204/204 442/206/442 92/206/206
f 92/206/206 443/207/443 91/207/207
f 86/208/208 441/205/441 85/205/205
f 91/207/207 445/209/445 90/209/209
f 87/210/210 444/208/444 86/208/208
f 90/209/209 447/211/447 89/211/211
f 88/212/212 446/210/446 87/210/210
f 88/212/212 447/211/447 448/212/448
f 123/213/213 439/203/439 449/213/449
f 27/214/214 424/188/424 26/188/188
f 122/215/215 449/213/449 451/215/451
f 122/215/215 452/216/452 121/216/216
f 28/217/217 450/214/450 27/214/214
f 28/217/217 436/200/436 453/217/453
f 121/216/216 454/218/454 120/218/218
f 120/218/218 455/219/455 119/219/219
f 118/220/220 455/219/455 456/220/456
f 102/221/221 426/190/426 101/190/190
f 103/222/222 457/221/457 102/221/221
f 118/220/220 459/223/459 117/223/223
f 104/224/224 458/222/458 103/222/222
f 105/225/225 460/224/460 104/224/224
f 106/226/226 461/225/461 105/225/225
f 117/223/223 463/227/463 116/227/227
f 107/228/228 462/226/462 106/226/226
f 108/229/229 464/228/464 107/228/228
f 116/227/227 466/230/466 115/230/230
f 109/231/231 465/229/465 108/229/229
f 110/232/232 467/231/467 109/231/231
f 114/233/233 466/230/466 469/233/469
f 111/234/234 468/232/468 110/232/232
f 112/235/235 470/234/470 111/234/234
f 113/236/236 471/235/471 112/235/235
f 114/233/233 472/236/472 113/236/236
f 236/3/3 239/2/239 238/3/238
f 212/1/1 239/2/239 211/2/2
f 235/4/4 238/3/238 240/4/240
f 212/1/1 241/5/241 237/1/237
f 235/4/4 242/6/242 234/6/6
f 214/7/7 241/5/241 213/5/5
f 234/6/6 244/8/244 233/8/8
f 215/9/9 243/7/243 214/7/7
f 233/8/8 246/10/246 232/10/10
f 215/9/9 247/11/247 245/9/245
f 217/12/12 247/11/247 216/11/11
f 232/10/10 249/13/249 231/13/13
f 217/12/12 250/14/250 248/12/248
f 231/13/13 251/15/251 230/15/15
f 218/14/14 252/16/252 250/14/250
f 229/17/17 251/15/251 253/17/253
f 220/18/18 252/16/252 219/16/16
f 228/19/19 253/17/253 255/19/255
f 220/18/18 256/20/256 254/18/254
f 228/19/19 257/21/257 227/21/21
f 227/21/21 258/22/258 226/22/22
f 222/23/23 256/20/256 221/20/20
f 226/22/22 260/24/260 225/24/24
f 222/23/23 261/25/261 259/23/259
f 224/26/26 261/25/261 223/25/25
f 225/24/24 262/26/262 224/26/26
f 175/28/28 264/29/264 174/29/29
f 176/27/27 265/28/265 175/28/28
f 174/29/29 266/30/266 173/30/30
f 173/30/30 267/31/267 172/31/31
f 177/32/32 263/27/263 176/27/27
f 171/33/33 267/31/267 269/33/269
f 171/33/33 270/34/270 170/34/34
f 170/34/34 271/35/271 169/35/35
f 168/36/36 271/35/271 272/36/272
f 178/37/37 268/32/268 177/32/32
f 168/36/36 274/38/274 167/38/38
f 167/38/38 275/39/275 166/39/39
f 166/39/39 276/40/276 165/40/40
f 179/41/41 273/37/273 178/37/37
f 165/40/40 278/42/278 164/42/42
f 164/42/42 279/43/279 163/43/43
f 162/44/44 279/43/279 280/44/280
f 161/45/45 280/44/280 281/45/281
f 180/46/46 277/41/277 179/41/41
f 181/47/47 282/46/282 180/46/46
s 0
f 474/237/473 475/238/473 473/239/473
f 476/240/474 479/241/474 475/238/474
f 480/242/475 477/243/475 479/241/475
f 478/244/476 473/245/476 477/243/476
f 479/241/477 473/246/477 475/247/477
f 476/248/478 478/244/478 480/242/478
s 1
f 182/48/48 284/48/284 283/47/283
f 183/49/49 285/49/285 284/48/284
f 183/49/49 184/50/50 286/50/286
f 184/50/50 185/51/51 287/51/287
f 185/51/51 186/52/52 288/52/288
f 187/53/53 289/53/289 288/52/288
f 149/55/55 292/55/292 291/56/291
f 150/54/54 290/54/290 292/55/292
f 151/57/57 293/57/293 290/54/290
f 152/58/58 294/58/294 293/57/293
f 153/59/59 295/59/295 294/58/294
f 148/56/56 291/56/291 296/60/296
f 154/61/61 297/61/297 295/59/295
f 155/62/62 298/62/298 297/61/297
f 156/63/63 299/63/299 298/62/298
f 157/64/64 300/64/300 299/63/299
f 147/60/60 296/60/296 301/65/301
f 158/66/66 302/66/302 300/64/300
f 159/67/67 303/67/303 302/66/302
f 160/68/68 304/68/304 303/67/303
f 161/45/45 281/45/281 304/68/304
f 146/65/65 301/65/301 305/69/305
f 188/70/70 306/70/306 289/53/289
f 145/69/69 305/69/305 307/71/307
f 189/72/72 308/72/308 306/70/306
f 190/73/73 309/73/309 308/72/308
f 190/73/73 191/74/74 310/74/310
f 192/75/75 311/75/311 310/74/310
f 193/76/76 312/76/312 311/75/311
f 193/76/76 194/77/77 313/77/313
f 195/78/78 314/78/314 313/77/313
f 196/79/79 315/79/315 314/78/314
f 144/71/71 307/71/307 316/80/316
f 197/81/81 317/81/317 315/79/315
f 198/82/82 318/82/318 317/81/317
f 199/83/83 319/83/319 318/82/318
f 1/85/85 322/85/322 321/86/321
f 2/84/84 320/84/320 322/85/322
f 200/87/87 323/87/323 319/83/319
f 201/88/88 324/88/324 323/87/323
f 210/86/86 321/86/321 325/89/325
f 202/90/90 326/90/326 324/88/324
f 203/91/91 327/91/327 326/90/326
f 209/89/89 325/89/325 328/92/328
f 204/93/93 329/93/329 327/91/327
f 208/92/92 328/92/328 330/94/330
f 205/95/95 331/95/331 329/93/329
f 207/94/94 330/94/330 332/96/332
f 206/96/96 332/96/332 331/95/331
f 3/97/97 333/97/333 320/84/320
f 4/98/98 334/98/334 333/97/333
f 5/99/99 335/99/335 334/98/334
f 6/100/100 336/100/336 335/99/335
f 6/100/100 7/101/101 337/101/337
f 8/102/102 338/102/338 337/101/337
f 9/103/103 339/103/339 338/102/338
f 10/104/104 340/104/340 339/103/339
f 15/106/106 342/106/342 341/105/341
f 143/80/80 316/80/316 343/107/343
f 41/109/109 345/109/345 344/108/344
f 41/109/109 42/110/110 346/110/346
f 43/111/111 347/111/347 346/110/346
f 44/112/112 348/112/348 347/111/347
f 45/113/113 349/113/349 348/112/348
f 46/114/114 350/114/350 349/113/349
f 47/115/115 351/115/351 350/114/350
f 48/116/116 352/116/352 351/115/351
f 49/117/117 353/117/353 352/116/352
f 50/118/118 354/118/354 353/117/353
f 141/119/119 142/107/107 343/107/343
f 51/120/120 356/120/356 354/118/354
f 52/121/121 357/121/357 356/120/356
f 53/122/122 358/122/358 357/121/357
f 54/123/123 359/123/359 358/122/358
f 141/119/119 355/119/355 360/124/360
f 55/125/125 361/125/361 359/123/359
f 56/126/126 362/126/362 361/125/361
f 40/108/108 344/108/344 363/127/363
f 56/126/126 57/128/128 364/128/364
f 57/128/128 58/129/129 365/129/365
f 15/106/106 16/130/130 366/130/366
f 139/131/131 140/124/124 360/124/360
f 58/129/129 59/132/132 368/132/368
f 60/133/133 369/133/369 368/132/368
f 14/105/105 341/105/341 370/134/370
f 11/135/135 371/135/371 340/104/340
f 12/136/136 372/136/372 371/135/371
f 13/134/134 370/134/370 372/136/372
f 139/131/131 367/131/367 373/137/373
f 61/138/138 374/138/374 369/133/369
f 39/127/127 363/127/363 375/139/375
f 17/140/140 376/140/376 366/130/366
f 61/138/138 62/141/141 377/141/377
f 138/137/137 373/137/373 378/142/378
f 62/141/141 63/143/143 379/143/379
f 37/144/144 38/139/139 375/139/375
f 63/143/143 64/145/145 381/145/381
f 18/146/146 382/146/382 376/140/376
f 137/142/142 378/142/378 383/147/383
f 65/148/148 384/148/384 381/145/381
f 37/144/144 380/144/380 385/149/385
f 136/147/147 383/147/383 386/150/386
f 18/146/146 19/151/151 387/151/387
f 66/152/152 388/152/388 384/148/384
f 135/150/150 386/150/386 389/153/389
f 67/154/154 390/154/390 388/152/388
f 36/149/149 385/149/385 391/155/391
f 20/156/156 392/156/392 387/151/387
f 68/157/157 393/157/393 390/154/390
f 134/153/153 389/153/389 394/158/394
f 21/159/159 395/159/395 392/156/392
f 34/160/160 35/155/155 391/155/391
f 69/161/161 397/161/397 393/157/393
f 133/158/158 394/158/394 398/162/398
f 69/161/161 70/163/163 399/163/399
f 132/162/162 398/162/398 400/164/400
f 22/165/165 401/165/401 395/159/395
f 33/166/166 34/160/160 396/160/396
f 71/167/167 403/167/403 399/163/399
f 131/164/164 400/164/400 404/168/404
f 71/167/167 72/169/169 405/169/405
f 22/165/165 23/170/170 406/170/406
f 33/166/166 402/166/402 407/171/407
f 130/168/168 404/168/404 408/172/408
f 72/169/169 73/173/173 409/173/409
f 24/174/174 410/174/410 406/170/406
f 74/175/175 411/175/411 409/173/409
f 129/172/172 408/172/408 412/176/412
f 32/171/171 407/171/407 413/177/413
f 74/175/175 75/178/178 414/178/414
f 128/176/176 412/176/412 415/179/415
f 75/178/178 76/180/180 416/180/416
f 25/181/181 417/181/417 410/174/410
f 30/182/182 31/177/177 413/177/413
f 126/183/183 127/179/179 415/179/415
f 77/184/184 420/184/420 416/180/416
f 78/185/185 421/185/421 420/184/420
f 79/186/186 422/186/422 421/185/421
f 126/183/183 419/183/419 423/187/423
f 26/188/188 424/188/424 417/181/417
f 80/189/189 425/189/425 422/186/422
f 100/191/191 428/191/428 427/192/427
f 101/190/190 426/190/426 428/191/428
f 81/193/193 429/193/429 425/189/425
f 99/192/192 427/192/427 430/194/430
f 98/194/194 430/194/430 431/195/431
f 82/196/196 432/196/432 429/193/429
f 97/195/195 431/195/431 433/197/433
f 83/198/198 434/198/434 432/196/432
f 96/197/197 433/197/433 435/199/435
f 29/200/200 30/182/182 418/182/418
f 95/199/199 435/199/435 437/201/437
f 84/202/202 438/202/438 434/198/434
f 124/203/203 125/187/187 423/187/423
f 94/201/201 437/201/437 440/204/440
f 85/205/205 441/205/441 438/202/438
f 93/204/204 440/204/440 442/206/442
f 92/206/206 442/206/442 443/207/443
f 86/208/208 444/208/444 441/205/441
f 91/207/207 443/207/443 445/209/445
f 87/210/210 446/210/446 444/208/444
f 90/209/209 445/209/445 447/211/447
f 88/212/212 448/212/448 446/210/446
f 88/212/212 89/211/211 447/211/447
f 123/213/213 124/203/203 439/203/439
f 27/214/214 450/214/450 424/188/424
f 122/215/215 123/213/213 449/213/449
f 122/215/215 451/215/451 452/216/452
f 28/217/217 453/217/453 450/214/450
f 28/217/217 29/200/200 436/200/436
f 121/216/216 452/216/452 454/218/454
f 120/218/218 454/218/454 455/219/455
f 118/220/220 119/219/219 455/219/455
f 102/221/221 457/221/457 426/190/426
f 103/222/222 458/222/458 457/221/457
f 118/220/220 456/220/456 459/223/459
f 104/224/224 460/224/460 458/222/458
f 105/225/225 461/225/461 460/224/460
f 106/226/226 462/226/462 461/225/461
f 117/223/223 459/223/459 463/227/463
f 107/228/228 464/228/464 462/226/462
f 108/229/229 465/229/465 464/228/464
f 116/227/227 463/227/463 466/230/466
f 109/231/231 467/231/467 465/229/465
f 110/232/232 468/232/468 467/231/467
f 114/233/233 115/230/230 466/230/466
f 111/234/234 470/234/470 468/232/468
f 112/235/235 471/235/471 470/234/470
f 113/236/236 472/236/472 471/235/471
f 114/233/233 469/233/469 472/236/472
f 236/3/3 211/2/2 239/2/239
f 212/1/1 237/1/237 239/2/239
f 235/4/4 236/3/3 238/3/238
f 212/1/1 213/5/5 241/5/241
f 235/4/4 240/4/240 242/6/242
f 214/7/7 243/7/243 241/5/241
f 234/6/6 242/6/242 244/8/244
f 215/9/9 245/9/245 243/7/243
f 233/8/8 244/8/244 246/10/246
f 215/9/9 216/11/11 247/11/247
f 217/12/12 248/12/248 247/11/247
f 232/10/10 246/10/246 249/13/249
f 217/12/12 218/14/14 250/14/250
f 231/13/13 249/13/249 251/15/251
f 218/14/14 219/16/16 252/16/252
f 229/17/17 230/15/15 251/15/251
f 220/18/18 254/18/254 252/16/252
f 228/19/19 229/17/17 253/17/253
f 220/18/18 221/20/20 256/20/256
f 228/19/19 255/19/255 257/21/257
f 227/21/21 257/21/257 258/22/258
f 222/23/23 259/23/259 256/20/256
f 226/22/22 258/22/258 260/24/260
f 222/23/23 223/25/25 261/25/261
f 224/26/26 262/26/262 261/25/261
f 225/24/24 260/24/260 262/26/262
f 175/28/28 265/28/265 264/29/264
f 176/27/27 263/27/263 265/28/265
f 174/29/29 264/29/264 266/30/266
f 173/30/30 266/30/266 267/31/267
f 177/32/32 268/32/268 263/27/263
f 171/33/33 172/31/31 267/31/267
f 171/33/33 269/33/269 270/34/270
f 170/34/34 270/34/270 271/35/271
f 168/36/36 169/35/35 271/35/271
f 178/37/37 273/37/273 268/32/268
f 168/36/36 272/36/272 274/38/274
f 167/38/38 274/38/274 275/39/275
f 166/39/39 275/39/275 276/40/276
f 179/41/41 277/41/277 273/37/273
f 165/40/40 276/40/276 278/42/278
f 164/42/42 278/42/278 279/43/279
f 162/44/44 163/43/43 279/43/279
f 161/45/45 162/44/44 280/44/280
f 180/46/46 282/46/282 277/41/277
f 181/47/47 283/47/283 282/46/282
s 0
f 474/237/473 476/240/473 475/238/473
f 476/240/474 480/242/474 479/241/474
f 480/242/475 478/244/475 477/243/475
f 478/244/476 474/249/476 473/245/476
f 479/241/477 477/243/477 473/246/477
f 476/248/478 474/250/478 478/244/478
