# Blender 4.4.1
# www.blender.org
mtllib Title_Ice10.mtl
o 10.デ
v -0.848064 -0.000000 -0.024366
v -0.848064 -0.000000 0.118394
v -0.836384 -0.000000 0.117604
v -0.824566 -0.000000 0.116945
v -0.812616 -0.000000 0.116405
v -0.800542 -0.000000 0.115973
v -0.788347 -0.000000 0.115637
v -0.776040 -0.000000 0.115384
v -0.763625 -0.000000 0.115203
v -0.751108 -0.000000 0.115081
v -0.738496 -0.000000 0.115008
v -0.725794 -0.000000 0.114970
v -0.713009 -0.000000 0.114956
v -0.700146 -0.000000 0.114954
v -0.184146 -0.000000 0.114954
v -0.185746 -0.000000 0.155406
v -0.188069 -0.000000 0.195045
v -0.191266 -0.000000 0.233849
v -0.195483 -0.000000 0.271793
v -0.200872 -0.000000 0.308852
v -0.207580 -0.000000 0.345004
v -0.215756 -0.000000 0.380224
v -0.225553 -0.000000 0.414489
v -0.237115 -0.000000 0.447774
v -0.250596 -0.000000 0.480056
v -0.266143 0.000000 0.511310
v -0.283904 0.000000 0.541514
v -0.301829 0.000000 0.568404
v -0.321960 0.000000 0.594810
v -0.344132 0.000000 0.620607
v -0.368186 0.000000 0.645670
v -0.393960 0.000000 0.669872
v -0.421292 0.000000 0.693089
v -0.450021 0.000000 0.715195
v -0.479986 0.000000 0.736065
v -0.511026 0.000000 0.755573
v -0.542981 0.000000 0.773595
v -0.575688 0.000000 0.790003
v -0.608985 0.000000 0.804674
v -0.481705 0.000000 0.899274
v -0.445508 0.000000 0.879384
v -0.410142 0.000000 0.857691
v -0.375791 0.000000 0.834398
v -0.342639 0.000000 0.809707
v -0.310874 0.000000 0.783821
v -0.280679 0.000000 0.756944
v -0.252240 0.000000 0.729279
v -0.225741 0.000000 0.701028
v -0.201369 0.000000 0.672395
v -0.179309 0.000000 0.643583
v -0.159745 0.000000 0.614795
v -0.142865 0.000000 0.586234
v -0.126514 0.000000 0.553410
v -0.111817 0.000000 0.519433
v -0.098710 -0.000000 0.484297
v -0.087125 -0.000000 0.447997
v -0.076997 -0.000000 0.410526
v -0.068261 -0.000000 0.371879
v -0.060851 -0.000000 0.332049
v -0.054700 -0.000000 0.291031
v -0.049745 -0.000000 0.248818
v -0.045917 -0.000000 0.205405
v -0.043153 -0.000000 0.160786
v -0.041385 -0.000000 0.114954
v 0.426455 -0.000000 0.114954
v 0.437045 -0.000000 0.114989
v 0.448100 -0.000000 0.115089
v 0.459514 -0.000000 0.115250
v 0.471177 -0.000000 0.115464
v 0.482983 -0.000000 0.115725
v 0.494826 -0.000000 0.116029
v 0.506598 -0.000000 0.116368
v 0.518191 -0.000000 0.116738
v 0.529496 -0.000000 0.117131
v 0.540408 -0.000000 0.117542
v 0.550818 -0.000000 0.117965
v 0.560616 -0.000000 0.118394
v 0.560616 -0.000000 -0.024366
v 0.549994 -0.000000 -0.022752
v 0.538854 -0.000000 -0.021340
v 0.527318 -0.000000 -0.020120
v 0.515513 -0.000000 -0.019079
v 0.503566 -0.000000 -0.018205
v 0.491601 -0.000000 -0.017486
v 0.479743 -0.000000 -0.016911
v 0.468118 -0.000000 -0.016467
v 0.456851 -0.000000 -0.016142
v 0.446069 -0.000000 -0.015925
v 0.435895 -0.000000 -0.015804
v 0.426455 -0.000000 -0.015766
v 0.387044 -0.000000 -0.015766
v 0.318278 -0.000000 -0.015766
v 0.225995 -0.000000 -0.015766
v 0.116027 -0.000000 -0.015766
v -0.005790 -0.000000 -0.015766
v -0.133620 -0.000000 -0.015766
v -0.261630 -0.000000 -0.015766
v -0.383985 -0.000000 -0.015766
v -0.494848 -0.000000 -0.015766
v -0.588387 -0.000000 -0.015766
v -0.658765 -0.000000 -0.015766
v -0.700146 -0.000000 -0.015766
v -0.713370 -0.000000 -0.015837
v -0.726392 -0.000000 -0.016045
v -0.739222 -0.000000 -0.016384
v -0.751873 -0.000000 -0.016849
v -0.764357 -0.000000 -0.017433
v -0.776685 -0.000000 -0.018131
v -0.788870 -0.000000 -0.018936
v -0.800923 -0.000000 -0.019843
v -0.812858 -0.000000 -0.020845
v -0.824684 -0.000000 -0.021937
v -0.836415 -0.000000 -0.023113
v -0.645104 -0.000000 -0.456086
v -0.645104 -0.000000 -0.313326
v -0.633680 -0.000000 -0.314150
v -0.621797 -0.000000 -0.314903
v -0.609495 -0.000000 -0.315584
v -0.596817 -0.000000 -0.316193
v -0.583804 -0.000000 -0.316730
v -0.570499 -0.000000 -0.317196
v -0.556944 -0.000000 -0.317590
v -0.543179 -0.000000 -0.317913
v -0.529246 -0.000000 -0.318164
v -0.515189 -0.000000 -0.318343
v -0.501048 -0.000000 -0.318450
v -0.486865 -0.000000 -0.318486
v -0.456401 -0.000000 -0.318486
v -0.415437 -0.000000 -0.318486
v -0.366088 -0.000000 -0.318486
v -0.310468 -0.000000 -0.318486
v -0.250691 -0.000000 -0.318486
v -0.188872 -0.000000 -0.318486
v -0.127126 -0.000000 -0.318486
v -0.067565 -0.000000 -0.318486
v -0.012303 -0.000000 -0.318486
v 0.036544 -0.000000 -0.318486
v 0.076863 -0.000000 -0.318486
v 0.106536 -0.000000 -0.318486
v 0.119208 -0.000000 -0.318450
v 0.132239 -0.000000 -0.318343
v 0.145556 -0.000000 -0.318164
v 0.159089 -0.000000 -0.317913
v 0.172765 -0.000000 -0.317590
v 0.186513 -0.000000 -0.317196
v 0.200261 -0.000000 -0.316730
v 0.213937 -0.000000 -0.316193
v 0.227469 -0.000000 -0.315584
v 0.240787 -0.000000 -0.314903
v 0.253817 -0.000000 -0.314150
v 0.266496 -0.000000 -0.313326
v 0.266496 -0.000000 -0.456086
v 0.253823 -0.000000 -0.454438
v 0.240792 -0.000000 -0.452933
v 0.227475 -0.000000 -0.451571
v 0.213942 -0.000000 -0.450353
v 0.200267 -0.000000 -0.449278
v 0.186519 -0.000000 -0.448346
v 0.172770 -0.000000 -0.447558
v 0.159095 -0.000000 -0.446913
v 0.145562 -0.000000 -0.446411
v 0.132245 -0.000000 -0.446053
v 0.119214 -0.000000 -0.445838
v 0.106536 -0.000000 -0.445766
v 0.076859 -0.000000 -0.445766
v 0.036534 -0.000000 -0.445766
v -0.012332 -0.000000 -0.445766
v -0.067630 -0.000000 -0.445766
v -0.127252 -0.000000 -0.445766
v -0.189090 -0.000000 -0.445766
v -0.251035 -0.000000 -0.445766
v -0.310979 -0.000000 -0.445766
v -0.366815 -0.000000 -0.445766
v -0.416432 -0.000000 -0.445766
v -0.457727 -0.000000 -0.445766
v -0.488586 -0.000000 -0.445766
v -0.502275 -0.000000 -0.445871
v -0.515826 -0.000000 -0.446172
v -0.529246 -0.000000 -0.446653
v -0.542542 -0.000000 -0.447295
v -0.555718 -0.000000 -0.448080
v -0.568780 -0.000000 -0.448991
v -0.581735 -0.000000 -0.450009
v -0.594587 -0.000000 -0.451117
v -0.607345 -0.000000 -0.452297
v -0.620012 -0.000000 -0.453530
v -0.632597 -0.000000 -0.454799
v 0.355935 -0.000000 -0.595406
v 0.264775 -0.000000 -0.557566
v 0.276616 -0.000000 -0.540479
v 0.288833 -0.000000 -0.522059
v 0.301299 -0.000000 -0.502553
v 0.313891 -0.000000 -0.482205
v 0.326484 -0.000000 -0.461259
v 0.338950 -0.000000 -0.439961
v 0.351167 -0.000000 -0.418556
v 0.363007 -0.000000 -0.397288
v 0.374347 -0.000000 -0.376402
v 0.385058 -0.000000 -0.356143
v 0.395017 -0.000000 -0.336756
v 0.404096 -0.000000 -0.318486
v 0.496974 -0.000000 -0.359766
v 0.487794 -0.000000 -0.378067
v 0.477569 -0.000000 -0.397526
v 0.466472 -0.000000 -0.417870
v 0.454677 -0.000000 -0.438822
v 0.442355 -0.000000 -0.460109
v 0.429681 -0.000000 -0.481456
v 0.416827 -0.000000 -0.502588
v 0.403968 -0.000000 -0.523230
v 0.391276 -0.000000 -0.543107
v 0.378924 -0.000000 -0.561946
v 0.367085 -0.000000 -0.579470
v 0.545136 -0.000000 -0.664206
v 0.453975 -0.000000 -0.626366
v 0.466540 -0.000000 -0.609411
v 0.479243 -0.000000 -0.591345
v 0.492005 -0.000000 -0.572347
v 0.504748 -0.000000 -0.552597
v 0.517396 -0.000000 -0.532274
v 0.529870 -0.000000 -0.511556
v 0.542094 -0.000000 -0.490624
v 0.553990 -0.000000 -0.469655
v 0.565480 -0.000000 -0.448830
v 0.576486 -0.000000 -0.428327
v 0.586930 -0.000000 -0.408326
v 0.596736 -0.000000 -0.389006
v 0.689616 -0.000000 -0.430286
v 0.680762 -0.000000 -0.447075
v 0.670672 -0.000000 -0.465411
v 0.659543 -0.000000 -0.484977
v 0.647572 -0.000000 -0.505457
v 0.634955 -0.000000 -0.526533
v 0.621892 -0.000000 -0.547891
v 0.608577 -0.000000 -0.569213
v 0.595208 -0.000000 -0.590183
v 0.581983 -0.000000 -0.610483
v 0.569098 -0.000000 -0.629798
v 0.556750 -0.000000 -0.647812
v 0.453975 0.199906 -0.626366
v 0.556750 0.199906 -0.647812
v 0.545136 0.199906 -0.664206
v 0.569098 0.199906 -0.629798
v 0.581983 0.199906 -0.610483
v 0.466540 0.199906 -0.609411
v 0.595208 0.199906 -0.590183
v 0.479243 0.199906 -0.591345
v 0.264775 0.199906 -0.557566
v 0.367085 0.199906 -0.579470
v 0.355935 0.199906 -0.595406
v 0.492005 0.199906 -0.572348
v 0.608577 0.199906 -0.569213
v 0.378924 0.199906 -0.561946
v 0.504748 0.199906 -0.552597
v 0.621892 0.199906 -0.547891
v 0.391276 0.199906 -0.543108
v 0.276616 0.199906 -0.540479
v 0.517396 0.199906 -0.532274
v 0.634955 0.199906 -0.526534
v 0.403968 0.199906 -0.523230
v 0.288833 0.199906 -0.522059
v 0.529870 0.199906 -0.511556
v 0.647572 0.199906 -0.505457
v 0.416827 0.199906 -0.502588
v 0.301299 0.199906 -0.502553
v 0.542094 0.199906 -0.490624
v 0.659543 0.199906 -0.484977
v 0.429681 0.199906 -0.481456
v 0.313891 0.199906 -0.482205
v 0.553990 0.199906 -0.469655
v 0.670672 0.199906 -0.465411
v 0.326484 0.199906 -0.461259
v 0.442355 0.199906 -0.460109
v 0.565480 0.199906 -0.448830
v 0.680762 0.199906 -0.447075
v 0.338950 0.199906 -0.439961
v 0.454677 0.199906 -0.438822
v -0.645104 0.199906 -0.313326
v -0.632597 0.199906 -0.454799
v -0.645104 0.199906 -0.456086
v 0.253823 0.199906 -0.454438
v 0.266496 0.199906 -0.313326
v 0.266496 0.199906 -0.456086
v -0.620012 0.199906 -0.453530
v 0.240792 0.199906 -0.452933
v -0.607345 0.199906 -0.452297
v 0.227475 0.199906 -0.451571
v -0.594587 0.199906 -0.451117
v 0.213942 0.199906 -0.450353
v -0.581735 0.199906 -0.450010
v 0.200267 0.199906 -0.449278
v -0.568780 0.199906 -0.448991
v 0.186519 0.199906 -0.448346
v -0.555718 0.199906 -0.448081
v 0.576486 0.199906 -0.428327
v 0.172770 0.199906 -0.447558
v -0.542542 0.199906 -0.447295
v 0.159095 0.199906 -0.446913
v -0.529246 0.199906 -0.446653
v 0.689616 0.199906 -0.430286
v 0.145562 0.199906 -0.446411
v -0.515826 0.199906 -0.446172
v 0.132245 0.199906 -0.446053
v -0.502275 0.199906 -0.445871
v 0.119214 0.199906 -0.445838
v -0.488586 0.199906 -0.445766
v 0.106536 0.199906 -0.445766
v -0.457727 0.199906 -0.445766
v -0.416432 0.199906 -0.445766
v -0.366815 0.199906 -0.445766
v -0.310979 0.199906 -0.445766
v -0.251035 0.199906 -0.445766
v -0.189090 0.199906 -0.445766
v -0.127252 0.199906 -0.445766
v -0.067630 0.199906 -0.445766
v -0.012332 0.199906 -0.445766
v 0.036534 0.199906 -0.445766
v 0.076859 0.199906 -0.445766
v -0.633680 0.199906 -0.314150
v -0.621797 0.199906 -0.314903
v -0.609495 0.199906 -0.315584
v -0.596817 0.199906 -0.316193
v -0.583804 0.199906 -0.316730
v -0.570499 0.199906 -0.317196
v -0.556944 0.199906 -0.317590
v -0.543179 0.199906 -0.317913
v -0.529246 0.199906 -0.318164
v -0.515189 0.199906 -0.318343
v -0.501048 0.199906 -0.318450
v -0.486865 0.199906 -0.318486
v -0.415437 0.199906 -0.318486
v -0.366088 0.199906 -0.318486
v -0.310468 0.199906 -0.318486
v -0.250691 0.199906 -0.318486
v -0.188872 0.199906 -0.318486
v -0.127126 0.199906 -0.318486
v -0.067565 0.199906 -0.318486
v -0.012303 0.199906 -0.318486
v 0.036544 0.199906 -0.318486
v 0.076863 0.199906 -0.318486
v 0.106536 0.199906 -0.318486
v 0.119208 0.199906 -0.318450
v 0.132239 0.199906 -0.318343
v 0.145556 0.199906 -0.318164
v 0.159089 0.199906 -0.317913
v 0.172765 0.199906 -0.317590
v 0.186513 0.199906 -0.317196
v 0.200261 0.199906 -0.316730
v 0.213937 0.199906 -0.316193
v 0.227469 0.199906 -0.315584
v 0.240787 0.199906 -0.314903
v 0.253817 0.199906 -0.314150
v 0.351167 0.199906 -0.418556
v 0.466472 0.199906 -0.417870
v 0.586930 0.199906 -0.408326
v 0.596736 0.199906 -0.389006
v 0.363007 0.199906 -0.397288
v 0.477569 0.199906 -0.397526
v 0.487794 0.199906 -0.378067
v 0.374347 0.199906 -0.376402
v 0.496974 0.199906 -0.359766
v 0.385058 0.199906 -0.356143
v 0.395017 0.199906 -0.336756
v 0.404096 0.199906 -0.318486
v -0.456401 0.199906 -0.318486
v -0.848064 0.199906 0.118394
v -0.836415 0.199906 -0.023113
v -0.848064 0.199906 -0.024366
v 0.549994 0.199906 -0.022752
v 0.560616 0.199906 0.118394
v 0.560616 0.199906 -0.024366
v -0.824684 0.199906 -0.021937
v 0.538854 0.199906 -0.021340
v -0.812858 0.199906 -0.020846
v 0.527318 0.199906 -0.020120
v -0.800923 0.199906 -0.019843
v 0.515513 0.199906 -0.019079
v -0.788870 0.199906 -0.018936
v 0.503566 0.199906 -0.018205
v -0.776685 0.199906 -0.018131
v 0.491601 0.199906 -0.017486
v -0.764357 0.199906 -0.017433
v 0.479743 0.199906 -0.016911
v -0.751873 0.199906 -0.016849
v 0.468118 0.199906 -0.016467
v -0.739222 0.199906 -0.016384
v 0.456851 0.199906 -0.016142
v -0.726392 0.199906 -0.016045
v 0.446069 0.199906 -0.015925
v -0.713370 0.199906 -0.015837
v 0.435895 0.199906 -0.015804
v -0.700146 0.199906 -0.015766
v 0.426455 0.199906 -0.015766
v -0.658765 0.199906 -0.015766
v -0.588387 0.199906 -0.015766
v -0.494848 0.199906 -0.015766
v -0.383985 0.199906 -0.015766
v -0.261630 0.199906 -0.015766
v -0.133620 0.199906 -0.015766
v -0.005790 0.199906 -0.015766
v 0.116027 0.199906 -0.015766
v 0.225995 0.199906 -0.015766
v 0.318278 0.199906 -0.015766
v 0.387044 0.199906 -0.015766
v -0.836384 0.199906 0.117603
v -0.824566 0.199906 0.116945
v -0.812616 0.199906 0.116405
v -0.800542 0.199906 0.115973
v -0.788347 0.199906 0.115637
v -0.776040 0.199906 0.115384
v -0.763625 0.199906 0.115203
v -0.751108 0.199906 0.115081
v -0.738496 0.199906 0.115008
v -0.725794 0.199906 0.114970
v -0.713009 0.199906 0.114956
v -0.700146 0.199906 0.114954
v -0.184146 0.199906 0.114954
v -0.041385 0.199906 0.114954
v 0.426455 0.199906 0.114954
v 0.437045 0.199906 0.114989
v 0.448100 0.199906 0.115089
v 0.459514 0.199906 0.115249
v 0.471177 0.199906 0.115463
v 0.482983 0.199906 0.115725
v 0.494826 0.199906 0.116029
v 0.506598 0.199906 0.116368
v 0.518191 0.199906 0.116738
v 0.529496 0.199906 0.117131
v 0.540408 0.199906 0.117542
v 0.550818 0.199906 0.117965
v -0.185746 0.199906 0.155406
v -0.043153 0.199906 0.160786
v -0.188069 0.199906 0.195045
v -0.045917 0.199906 0.205405
v -0.191266 0.199906 0.233849
v -0.049745 0.199906 0.248818
v -0.195483 0.199906 0.271792
v -0.054700 0.199906 0.291031
v -0.200872 0.199906 0.308852
v -0.060851 0.199906 0.332049
v -0.207580 0.199906 0.345004
v -0.068261 0.199906 0.371879
v -0.215756 0.199906 0.380224
v -0.076997 0.199906 0.410526
v -0.225553 0.199906 0.414489
v -0.087125 0.199906 0.447997
v -0.237115 0.199906 0.447774
v -0.250596 0.199906 0.480056
v -0.098710 0.199906 0.484297
v -0.266143 0.199906 0.511310
v -0.111817 0.199906 0.519433
v -0.283904 0.199906 0.541514
v -0.126514 0.199906 0.553410
v -0.301829 0.199906 0.568404
v -0.142865 0.199906 0.586234
v -0.321960 0.199906 0.594810
v -0.159745 0.199906 0.614795
v -0.344132 0.199906 0.620607
v -0.179309 0.199906 0.643583
v -0.368186 0.199906 0.645670
v -0.201369 0.199906 0.672395
v -0.393960 0.199906 0.669872
v -0.421292 0.199906 0.693089
v -0.225741 0.199906 0.701028
v -0.450021 0.199906 0.715195
v -0.252240 0.199906 0.729279
v -0.479986 0.199906 0.736065
v -0.280679 0.199906 0.756944
v -0.511026 0.199906 0.755573
v -0.542981 0.199906 0.773595
v -0.310874 0.199906 0.783821
v -0.575688 0.199906 0.790003
v -0.342639 0.199906 0.809707
v -0.608985 0.199906 0.804674
v -0.481705 0.199906 0.899274
v -0.375791 0.199906 0.834398
v -0.410142 0.199906 0.857691
v -0.445508 0.199906 0.879384
v -1.000000 -1.000000 1.000000
v -1.000000 1.000000 1.000000
v -1.000000 -1.000000 -1.000000
v -1.000000 1.000000 -1.000000
v 1.000000 -1.000000 1.000000
v 1.000000 1.000000 1.000000
v 1.000000 -1.000000 -1.000000
v 1.000000 1.000000 -1.000000
vn -0.7949 -0.5656 -0.2198
vn 0.2235 -0.5900 -0.7759
vn 0.5815 -0.7054 -0.4053
vn 0.5869 -0.7057 -0.3969
vn 0.5914 -0.7059 -0.3899
vn -0.5710 -0.7099 0.4122
vn 0.5953 -0.7060 -0.3837
vn -0.5807 -0.7095 0.3992
vn -0.7904 -0.5670 -0.2321
vn 0.2259 -0.5896 -0.7754
vn 0.5842 -0.7053 -0.4017
vn -0.5888 -0.7092 0.3877
vn 0.5989 -0.7061 -0.3779
vn 0.5899 -0.7056 -0.3926
vn -0.5957 -0.7089 0.3775
vn 0.6024 -0.7061 -0.3723
vn 0.5948 -0.7057 -0.3849
vn -0.5834 -0.7094 0.3955
vn -0.6017 -0.7088 0.3683
vn 0.6059 -0.7060 -0.3666
vn 0.5991 -0.7059 -0.3779
vn -0.5910 -0.7090 0.3848
vn -0.6069 -0.7086 0.3599
vn 0.6096 -0.7059 -0.3606
vn 0.6032 -0.7059 -0.3713
vn -0.5972 -0.7087 0.3756
vn -0.6116 -0.7085 0.3521
vn 0.6137 -0.7058 -0.3539
vn 0.6071 -0.7059 -0.3649
vn -0.6024 -0.7086 0.3675
vn -0.6159 -0.7084 0.3446
vn 0.6185 -0.7055 -0.3460
vn -0.6070 -0.7084 0.3601
vn 0.6111 -0.7059 -0.3583
vn -0.6199 -0.7084 0.3374
vn 0.6243 -0.7051 -0.3363
vn -0.6111 -0.7083 0.3532
vn 0.6153 -0.7058 -0.3512
vn -0.5580 -0.5736 0.5997
vn -0.5495 -0.5722 -0.6089
vn 0.0716 -0.7073 -0.7032
vn -0.0860 -0.7087 -0.7002
vn 0.5418 -0.5709 -0.6169
vn 0.5599 -0.5740 0.5975
vn 0.0697 -0.7075 -0.7033
vn -0.0764 -0.7086 -0.7015
vn 0.0668 -0.7077 -0.7034
vn -0.0675 -0.7085 -0.7025
vn 0.0628 -0.7078 -0.7036
vn -0.0593 -0.7084 -0.7033
vn 0.0580 -0.7080 -0.7039
vn -0.0515 -0.7083 -0.7040
vn 0.0522 -0.7081 -0.7042
vn -0.0441 -0.7083 -0.7046
vn 0.0456 -0.7082 -0.7045
vn -0.6238 -0.7084 0.3303
vn -0.0368 -0.7082 -0.7050
vn 0.0380 -0.7084 -0.7048
vn -0.0297 -0.7082 -0.7053
vn 0.0297 -0.7085 -0.7051
vn 0.7738 -0.5739 0.2682
vn -0.0226 -0.7082 -0.7056
vn 0.0205 -0.7086 -0.7053
vn -0.0153 -0.7083 -0.7058
vn 0.0105 -0.7088 -0.7054
vn -0.0078 -0.7083 -0.7058
vn 0.0027 -0.7080 -0.7062
vn -0.0020 -0.7077 -0.7065
vn -0.0000 -0.7071 -0.7071
vn 0.0477 -0.7081 0.7045
vn 0.0418 -0.7080 0.7050
vn 0.0365 -0.7079 0.7053
vn 0.0315 -0.7079 0.7056
vn 0.0269 -0.7078 0.7059
vn 0.0226 -0.7078 0.7061
vn 0.0185 -0.7077 0.7062
vn 0.0146 -0.7077 0.7063
vn 0.0109 -0.7077 0.7064
vn 0.0072 -0.7077 0.7065
vn 0.0036 -0.7077 0.7065
vn 0.0009 -0.7074 0.7068
vn -0.0000 -0.7071 0.7071
vn -0.0010 -0.7074 0.7068
vn -0.0039 -0.7077 0.7065
vn -0.0077 -0.7077 0.7065
vn -0.0113 -0.7077 0.7064
vn -0.0149 -0.7077 0.7064
vn -0.0185 -0.7077 0.7063
vn -0.0221 -0.7077 0.7062
vn -0.0258 -0.7077 0.7060
vn -0.0298 -0.7077 0.7058
vn -0.0339 -0.7078 0.7056
vn -0.0384 -0.7078 0.7053
vn -0.0433 -0.7079 0.7050
vn -0.6149 -0.7083 0.3466
vn 0.6198 -0.7056 -0.3435
vn -0.6275 -0.7084 0.3231
vn -0.2728 -0.5801 0.7675
vn -0.6186 -0.7083 0.3401
vn 0.6249 -0.7054 -0.3346
vn 0.6309 -0.7050 -0.3240
vn -0.6222 -0.7083 0.3334
vn 0.7703 -0.5749 0.2758
vn -0.6259 -0.7084 0.3262
vn -0.6298 -0.7086 0.3182
vn -0.2761 -0.5796 0.7667
vn -0.0000 0.7071 0.7071
vn -0.5592 -0.5738 0.5984
vn -0.5481 -0.5719 -0.6103
vn 0.0730 -0.7079 -0.7025
vn -0.0972 -0.7099 -0.6976
vn 0.5356 -0.5698 -0.6232
vn 0.5657 -0.5750 0.5910
vn 0.0677 -0.7080 -0.7030
vn -0.0814 -0.7094 -0.7001
vn 0.0620 -0.7080 -0.7034
vn -0.0681 -0.7091 -0.7018
vn 0.0560 -0.7081 -0.7039
vn -0.0567 -0.7088 -0.7031
vn 0.0498 -0.7081 -0.7043
vn -0.0469 -0.7086 -0.7041
vn 0.0432 -0.7082 -0.7047
vn -0.0383 -0.7084 -0.7048
vn 0.0365 -0.7082 -0.7051
vn -0.0306 -0.7083 -0.7053
vn 0.0295 -0.7082 -0.7054
vn -0.0236 -0.7082 -0.7057
vn 0.0223 -0.7083 -0.7056
vn -0.0173 -0.7081 -0.7059
vn 0.0150 -0.7083 -0.7058
vn -0.0113 -0.7080 -0.7061
vn 0.0075 -0.7083 -0.7059
vn -0.0056 -0.7080 -0.7062
vn 0.0019 -0.7077 -0.7065
vn -0.0014 -0.7075 -0.7067
vn 0.0435 -0.7084 0.7044
vn 0.0356 -0.7083 0.7050
vn 0.0285 -0.7082 0.7055
vn 0.0224 -0.7080 0.7058
vn 0.0170 -0.7079 0.7061
vn 0.0124 -0.7078 0.7063
vn 0.0086 -0.7077 0.7065
vn 0.0055 -0.7075 0.7067
vn 0.0031 -0.7074 0.7068
vn 0.0014 -0.7073 0.7069
vn 0.0004 -0.7072 0.7070
vn 0.0001 -0.7071 0.7071
vn -0.3003 -0.9091 0.2886
vn 0.3022 -0.9000 0.3141
vn -0.0012 -0.7075 0.7067
vn -0.0044 -0.7078 0.7064
vn -0.0082 -0.7077 0.7065
vn -0.0114 -0.7076 0.7065
vn -0.0143 -0.7075 0.7065
vn -0.0169 -0.7075 0.7065
vn -0.0192 -0.7075 0.7065
vn -0.0214 -0.7074 0.7064
vn -0.0235 -0.7074 0.7064
vn -0.0256 -0.7074 0.7063
vn -0.0277 -0.7074 0.7062
vn -0.0298 -0.7075 0.7061
vn -0.7041 -0.7092 -0.0346
vn 0.7088 -0.7045 0.0356
vn -0.7027 -0.7098 -0.0495
vn 0.7080 -0.7042 0.0531
vn -0.7006 -0.7103 -0.0678
vn 0.7066 -0.7039 0.0726
vn -0.6976 -0.7109 -0.0895
vn 0.7044 -0.7035 0.0941
vn -0.6932 -0.7115 -0.1147
vn 0.7012 -0.7032 0.1178
vn -0.6872 -0.7122 -0.1435
vn 0.6968 -0.7028 0.1435
vn -0.6790 -0.7128 -0.1758
vn 0.6908 -0.7024 0.1714
vn -0.6681 -0.7134 -0.2114
vn 0.6831 -0.7021 0.2012
vn -0.6540 -0.7141 -0.2499
vn -0.6363 -0.7146 -0.2907
vn 0.6733 -0.7017 0.2329
vn -0.6146 -0.7151 -0.3330
vn 0.6612 -0.7014 0.2661
vn -0.5937 -0.7135 -0.3720
vn 0.6466 -0.7011 0.3006
vn -0.5697 -0.7143 -0.4064
vn 0.6281 -0.6991 0.3415
vn -0.5443 -0.7138 -0.4408
vn 0.6030 -0.7001 0.3825
vn -0.5188 -0.7133 -0.4712
vn 0.5784 -0.7008 0.4175
vn -0.4931 -0.7130 -0.4985
vn 0.5546 -0.7013 0.4478
vn -0.4673 -0.7128 -0.5231
vn -0.4412 -0.7126 -0.5455
vn 0.5312 -0.7017 0.4747
vn -0.4146 -0.7125 -0.5661
vn 0.5082 -0.7020 0.4990
vn -0.3873 -0.7125 -0.5851
vn 0.4851 -0.7022 0.5212
vn -0.3591 -0.7125 -0.6028
vn -0.3297 -0.7126 -0.6193
vn 0.4617 -0.7022 0.5420
vn -0.2988 -0.7128 -0.6346
vn 0.4376 -0.7022 0.5616
vn -0.8267 -0.5549 -0.0930
vn -0.0545 -0.6033 0.7956
vn 0.4126 -0.7022 0.5803
vn 0.3861 -0.7020 0.5984
vn 0.3579 -0.7018 0.6160
vn -0.7949 0.5656 -0.2198
vn 0.5816 0.7054 -0.4053
vn 0.2235 0.5900 -0.7758
vn 0.5869 0.7057 -0.3969
vn 0.5914 0.7059 -0.3899
vn -0.5710 0.7099 0.4122
vn 0.5953 0.7060 -0.3837
vn -0.5807 0.7095 0.3992
vn -0.7904 0.5670 -0.2321
vn 0.5842 0.7053 -0.4017
vn 0.2258 0.5896 -0.7755
vn -0.5888 0.7092 0.3877
vn 0.5989 0.7061 -0.3779
vn 0.5899 0.7056 -0.3926
vn -0.5957 0.7089 0.3775
vn 0.6024 0.7061 -0.3723
vn 0.5948 0.7057 -0.3849
vn -0.5834 0.7094 0.3955
vn -0.6017 0.7088 0.3683
vn 0.6059 0.7060 -0.3666
vn 0.5991 0.7059 -0.3779
vn -0.5910 0.7090 0.3848
vn -0.6069 0.7086 0.3599
vn 0.6096 0.7059 -0.3606
vn 0.6032 0.7059 -0.3713
vn -0.5972 0.7087 0.3756
vn -0.6116 0.7085 0.3521
vn 0.6137 0.7058 -0.3539
vn 0.6071 0.7059 -0.3649
vn -0.6024 0.7086 0.3675
vn -0.6159 0.7084 0.3446
vn 0.6185 0.7055 -0.3460
vn -0.6070 0.7084 0.3601
vn 0.6111 0.7059 -0.3583
vn -0.6199 0.7084 0.3374
vn 0.6243 0.7051 -0.3363
vn -0.6111 0.7083 0.3532
vn 0.6153 0.7058 -0.3512
vn -0.5580 0.5735 0.5997
vn 0.0716 0.7073 -0.7032
vn -0.5494 0.5722 -0.6089
vn -0.0860 0.7087 -0.7002
vn 0.5600 0.5740 0.5975
vn 0.5418 0.5709 -0.6169
vn 0.0697 0.7075 -0.7033
vn -0.0764 0.7086 -0.7015
vn 0.0668 0.7077 -0.7034
vn -0.0675 0.7085 -0.7025
vn 0.0628 0.7078 -0.7036
vn -0.0593 0.7084 -0.7033
vn 0.0580 0.7080 -0.7039
vn -0.0515 0.7083 -0.7040
vn 0.0522 0.7081 -0.7042
vn -0.0441 0.7083 -0.7046
vn 0.0456 0.7082 -0.7045
vn -0.6238 0.7084 0.3303
vn -0.0368 0.7082 -0.7050
vn 0.0380 0.7084 -0.7048
vn -0.0297 0.7082 -0.7053
vn 0.0297 0.7085 -0.7051
vn 0.7738 0.5739 0.2682
vn -0.0226 0.7082 -0.7056
vn 0.0205 0.7086 -0.7053
vn -0.0153 0.7083 -0.7058
vn 0.0105 0.7088 -0.7054
vn -0.0078 0.7083 -0.7058
vn 0.0027 0.7080 -0.7062
vn -0.0020 0.7077 -0.7065
vn -0.0000 0.7071 -0.7071
vn 0.0477 0.7081 0.7045
vn 0.0418 0.7080 0.7050
vn 0.0365 0.7079 0.7053
vn 0.0315 0.7079 0.7056
vn 0.0269 0.7078 0.7059
vn 0.0226 0.7078 0.7061
vn 0.0185 0.7077 0.7062
vn 0.0146 0.7077 0.7063
vn 0.0109 0.7077 0.7064
vn 0.0072 0.7077 0.7065
vn 0.0036 0.7077 0.7065
vn 0.0009 0.7074 0.7068
vn -0.0010 0.7074 0.7068
vn -0.0039 0.7077 0.7065
vn -0.0077 0.7077 0.7065
vn -0.0113 0.7077 0.7064
vn -0.0149 0.7077 0.7064
vn -0.0185 0.7077 0.7063
vn -0.0221 0.7077 0.7062
vn -0.0258 0.7077 0.7060
vn -0.0298 0.7077 0.7058
vn -0.0339 0.7078 0.7056
vn -0.0384 0.7078 0.7053
vn -0.0433 0.7079 0.7050
vn -0.6149 0.7083 0.3466
vn 0.6198 0.7056 -0.3435
vn -0.6275 0.7084 0.3231
vn -0.2728 0.5801 0.7675
vn -0.6186 0.7083 0.3401
vn 0.6249 0.7054 -0.3346
vn 0.6309 0.7050 -0.3240
vn -0.6222 0.7083 0.3334
vn 0.7703 0.5749 0.2758
vn -0.6259 0.7084 0.3262
vn -0.6298 0.7086 0.3182
vn -0.2761 0.5796 0.7667
vn -0.5592 0.5738 0.5984
vn 0.0730 0.7079 -0.7025
vn -0.5482 0.5719 -0.6103
vn -0.0972 0.7099 -0.6976
vn 0.5657 0.5750 0.5910
vn 0.5356 0.5698 -0.6232
vn 0.0677 0.7080 -0.7030
vn -0.0814 0.7094 -0.7001
vn 0.0620 0.7080 -0.7034
vn -0.0681 0.7091 -0.7018
vn 0.0560 0.7081 -0.7039
vn -0.0567 0.7088 -0.7031
vn 0.0498 0.7081 -0.7043
vn -0.0469 0.7086 -0.7041
vn 0.0432 0.7082 -0.7047
vn -0.0383 0.7084 -0.7048
vn 0.0365 0.7082 -0.7051
vn -0.0306 0.7083 -0.7053
vn 0.0295 0.7082 -0.7054
vn -0.0236 0.7082 -0.7057
vn 0.0223 0.7083 -0.7056
vn -0.0173 0.7081 -0.7059
vn 0.0150 0.7083 -0.7058
vn -0.0113 0.7080 -0.7061
vn 0.0075 0.7083 -0.7059
vn -0.0056 0.7080 -0.7062
vn 0.0019 0.7077 -0.7065
vn -0.0014 0.7075 -0.7067
vn 0.0435 0.7084 0.7044
vn 0.0356 0.7083 0.7050
vn 0.0285 0.7082 0.7055
vn 0.0224 0.7080 0.7058
vn 0.0170 0.7079 0.7061
vn 0.0124 0.7078 0.7063
vn 0.0086 0.7077 0.7065
vn 0.0055 0.7075 0.7067
vn 0.0031 0.7074 0.7068
vn 0.0014 0.7073 0.7069
vn 0.0004 0.7072 0.7070
vn 0.0001 0.7071 0.7071
vn -0.3003 0.9091 0.2886
vn 0.3023 0.9000 0.3141
vn -0.0012 0.7075 0.7067
vn -0.0044 0.7078 0.7064
vn -0.0082 0.7077 0.7065
vn -0.0114 0.7076 0.7065
vn -0.0143 0.7075 0.7065
vn -0.0169 0.7075 0.7065
vn -0.0192 0.7075 0.7065
vn -0.0214 0.7074 0.7064
vn -0.0235 0.7074 0.7064
vn -0.0256 0.7074 0.7063
vn -0.0277 0.7074 0.7062
vn -0.0298 0.7075 0.7061
vn -0.7041 0.7092 -0.0346
vn 0.7088 0.7045 0.0356
vn -0.7027 0.7098 -0.0495
vn 0.7080 0.7042 0.0531
vn -0.7006 0.7103 -0.0678
vn 0.7066 0.7039 0.0726
vn -0.6976 0.7109 -0.0894
vn 0.7044 0.7035 0.0941
vn -0.6932 0.7115 -0.1147
vn 0.7012 0.7032 0.1178
vn -0.6872 0.7122 -0.1435
vn 0.6967 0.7028 0.1435
vn -0.6790 0.7128 -0.1758
vn 0.6908 0.7024 0.1714
vn -0.6681 0.7134 -0.2114
vn 0.6831 0.7021 0.2012
vn -0.6540 0.7141 -0.2499
vn -0.6363 0.7146 -0.2907
vn 0.6733 0.7017 0.2329
vn -0.6146 0.7151 -0.3330
vn 0.6612 0.7014 0.2661
vn -0.5937 0.7135 -0.3720
vn 0.6466 0.7011 0.3006
vn -0.5697 0.7143 -0.4064
vn 0.6282 0.6991 0.3415
vn -0.5443 0.7138 -0.4408
vn 0.6030 0.7001 0.3825
vn -0.5188 0.7133 -0.4712
vn 0.5784 0.7008 0.4175
vn -0.4931 0.7130 -0.4985
vn 0.5546 0.7013 0.4478
vn -0.4673 0.7128 -0.5231
vn -0.4412 0.7126 -0.5455
vn 0.5312 0.7017 0.4747
vn -0.4146 0.7125 -0.5661
vn 0.5082 0.7020 0.4990
vn -0.3873 0.7125 -0.5851
vn 0.4851 0.7022 0.5212
vn -0.3591 0.7125 -0.6028
vn -0.3297 0.7126 -0.6193
vn 0.4617 0.7022 0.5420
vn -0.2988 0.7128 -0.6346
vn 0.4376 0.7022 0.5616
vn -0.8267 0.5549 -0.0930
vn -0.0545 0.6033 0.7956
vn 0.4126 0.7022 0.5803
vn 0.3861 0.7020 0.5984
vn 0.3579 0.7018 0.6160
vn -1.0000 -0.0000 -0.0000
vn -0.0000 -0.0000 -1.0000
vn 1.0000 -0.0000 -0.0000
vn -0.0000 -0.0000 1.0000
vn -0.0000 -1.0000 -0.0000
vn -0.0000 1.0000 -0.0000
vt 0.876953 0.214286
vt 0.876953 0.223214
vt 0.876953 -0.000000
vt 0.876953 0.008929
vt 0.876953 0.017857
vt 0.876953 0.205357
vt 0.876953 0.026786
vt 0.876953 0.196429
vt 0.876953 0.214286
vt 0.876953 0.223214
vt 0.876953 -0.000000
vt 0.876953 0.187500
vt 0.876953 0.035714
vt 0.876953 0.008929
vt 0.876953 0.178571
vt 0.876953 0.044643
vt 0.876953 0.017857
vt 0.876953 0.205357
vt 0.876953 0.169643
vt 0.876953 0.053571
vt 0.876953 0.026786
vt 0.876953 0.196429
vt 0.876953 0.160714
vt 0.876953 0.062500
vt 0.876953 0.035714
vt 0.876953 0.187500
vt 0.876953 0.151786
vt 0.876953 0.071429
vt 0.876953 0.044643
vt 0.876953 0.178571
vt 0.876953 0.142857
vt 0.876953 0.080357
vt 0.876953 0.169643
vt 0.876953 0.053571
vt 0.876953 0.133929
vt 0.876953 0.089286
vt 0.876953 0.160714
vt 0.876953 0.062500
vt 0.876953 0.642857
vt 0.876953 0.651786
vt 0.876953 0.000000
vt 0.876953 0.303571
vt 0.876953 0.312500
vt 0.876953 0.321429
vt 0.876953 0.008929
vt 0.876953 0.294643
vt 0.876953 0.017857
vt 0.876953 0.285714
vt 0.876953 0.026786
vt 0.876953 0.276786
vt 0.876953 0.035714
vt 0.876953 0.267857
vt 0.876953 0.044643
vt 0.876953 0.258929
vt 0.876953 0.053572
vt 0.876953 0.125000
vt 0.876953 0.250000
vt 0.876953 0.062500
vt 0.876953 0.241072
vt 0.876953 0.071429
vt 0.876953 0.098214
vt 0.876953 0.232143
vt 0.876953 0.080357
vt 0.876953 0.223214
vt 0.876953 0.089286
vt 0.876953 0.214286
vt 0.876953 0.098214
vt 0.876953 0.205357
vt 0.876953 0.107143
vt 0.876953 0.116072
vt 0.876953 0.125000
vt 0.876953 0.133929
vt 0.876953 0.142857
vt 0.876953 0.151786
vt 0.876953 0.160714
vt 0.876953 0.169643
vt 0.876953 0.178572
vt 0.876953 0.187500
vt 0.876953 0.196429
vt 0.876953 0.633929
vt 0.876953 0.625000
vt 0.876953 0.616072
vt 0.876953 0.607143
vt 0.876953 0.598214
vt 0.876953 0.589286
vt 0.876953 0.580357
vt 0.876953 0.571429
vt 0.876953 0.562500
vt 0.876953 0.553571
vt 0.876953 0.544643
vt 0.876953 0.535714
vt 0.876953 0.517857
vt 0.876953 0.508929
vt 0.876953 0.500000
vt 0.876953 0.491072
vt 0.876953 0.482143
vt 0.876953 0.473214
vt 0.876953 0.464286
vt 0.876953 0.455357
vt 0.876953 0.446429
vt 0.876953 0.437500
vt 0.876953 0.428571
vt 0.876953 0.419643
vt 0.876953 0.410714
vt 0.876953 0.401786
vt 0.876953 0.392857
vt 0.876953 0.383929
vt 0.876953 0.375000
vt 0.876953 0.366072
vt 0.876953 0.357143
vt 0.876953 0.348214
vt 0.876953 0.339286
vt 0.876953 0.330357
vt 0.876953 0.151786
vt 0.876953 0.071429
vt 0.876953 0.116071
vt 0.876953 0.107143
vt 0.876953 0.142857
vt 0.876953 0.080357
vt 0.876953 0.089286
vt 0.876953 0.133929
vt 0.876953 0.098214
vt 0.876953 0.125000
vt 0.876953 0.116071
vt 0.876953 0.107143
vt 0.876953 0.526786
vt 0.876953 0.991071
vt 0.876953 1.000000
vt 0.876953 0.000000
vt 0.876953 0.303571
vt 0.876953 0.312500
vt 0.876953 0.321429
vt 0.876953 0.008929
vt 0.876953 0.294643
vt 0.876953 0.017857
vt 0.876953 0.285714
vt 0.876953 0.026786
vt 0.876953 0.276786
vt 0.876953 0.035714
vt 0.876953 0.267857
vt 0.876953 0.044643
vt 0.876953 0.258929
vt 0.876953 0.053571
vt 0.876953 0.250000
vt 0.876953 0.062500
vt 0.876953 0.241071
vt 0.876953 0.071429
vt 0.876953 0.232143
vt 0.876953 0.080357
vt 0.876953 0.223214
vt 0.876953 0.089286
vt 0.876953 0.214286
vt 0.876953 0.098214
vt 0.876953 0.205357
vt 0.876953 0.107143
vt 0.876953 0.116071
vt 0.876953 0.125000
vt 0.876953 0.133929
vt 0.876953 0.142857
vt 0.876953 0.151786
vt 0.876953 0.160714
vt 0.876953 0.169643
vt 0.876953 0.178571
vt 0.876953 0.187500
vt 0.876953 0.196429
vt 0.876953 0.982143
vt 0.876953 0.973214
vt 0.876953 0.964286
vt 0.876953 0.955357
vt 0.876953 0.946429
vt 0.876953 0.937500
vt 0.876953 0.928571
vt 0.876953 0.919643
vt 0.876953 0.910714
vt 0.876953 0.901786
vt 0.876953 0.892857
vt 0.876953 0.883929
vt 0.876953 0.875000
vt 0.876953 0.437500
vt 0.876953 0.428571
vt 0.876953 0.419643
vt 0.876953 0.410714
vt 0.876953 0.401786
vt 0.876953 0.392857
vt 0.876953 0.383929
vt 0.876953 0.375000
vt 0.876953 0.366071
vt 0.876953 0.357143
vt 0.876953 0.348214
vt 0.876953 0.339286
vt 0.876953 0.330357
vt 0.876953 0.866071
vt 0.876953 0.446429
vt 0.876953 0.857143
vt 0.876953 0.455357
vt 0.876953 0.848214
vt 0.876953 0.464286
vt 0.876953 0.839286
vt 0.876953 0.473214
vt 0.876953 0.830357
vt 0.876953 0.482143
vt 0.876953 0.821429
vt 0.876953 0.491071
vt 0.876953 0.812500
vt 0.876953 0.500000
vt 0.876953 0.803571
vt 0.876953 0.508929
vt 0.876953 0.794643
vt 0.876953 0.785714
vt 0.876953 0.517857
vt 0.876953 0.776786
vt 0.876953 0.526786
vt 0.876953 0.767857
vt 0.876953 0.535714
vt 0.876953 0.758929
vt 0.876953 0.544643
vt 0.876953 0.750000
vt 0.876953 0.553571
vt 0.876953 0.741071
vt 0.876953 0.562500
vt 0.876953 0.732143
vt 0.876953 0.571429
vt 0.876953 0.723214
vt 0.876953 0.714286
vt 0.876953 0.580357
vt 0.876953 0.705357
vt 0.876953 0.589286
vt 0.876953 0.696429
vt 0.876953 0.598214
vt 0.876953 0.687500
vt 0.876953 0.678571
vt 0.876953 0.607143
vt 0.876953 0.669643
vt 0.876953 0.616071
vt 0.876953 0.660714
vt 0.876953 0.651786
vt 0.876953 0.625000
vt 0.876953 0.633929
vt 0.876953 0.642857
vt 0.374325 0.199080
vt 0.223865 0.349540
vt 0.223865 0.199080
vt 0.374325 0.349540
vt 0.223865 0.500000
vt 0.374325 0.500000
vt 0.223865 0.650460
vt 0.374325 0.650460
vt 0.223865 0.800920
vt 0.073404 0.650460
vt 0.073404 0.500000
vt 0.524785 0.500000
vt 0.374325 0.800920
vt 0.524785 0.650460
s 1
usemtl マテリアル
f 215/1/1 214/2/2 239/3/3
f 215/1/1 239/3/3 238/4/4
f 215/1/1 238/4/4 237/5/5
f 216/6/6 215/1/1 237/5/5
f 216/6/6 237/5/5 236/7/7
f 217/8/8 216/6/6 236/7/7
f 189/9/9 188/10/10 213/11/11
f 218/12/12 217/8/8 236/7/7
f 218/12/12 236/7/7 235/13/13
f 189/9/9 213/11/11 212/14/14
f 219/15/15 218/12/12 235/13/13
f 219/15/15 235/13/13 234/16/16
f 189/9/9 212/14/14 211/17/17
f 190/18/18 189/9/9 211/17/17
f 220/19/19 219/15/15 234/16/16
f 220/19/19 234/16/16 233/20/20
f 190/18/18 211/17/17 210/21/21
f 191/22/22 190/18/18 210/21/21
f 221/23/23 220/19/19 233/20/20
f 221/23/23 233/20/20 232/24/24
f 191/22/22 210/21/21 209/25/25
f 192/26/26 191/22/22 209/25/25
f 222/27/27 221/23/23 232/24/24
f 222/27/27 232/24/24 231/28/28
f 192/26/26 209/25/25 208/29/29
f 193/30/30 192/26/26 208/29/29
f 223/31/31 222/27/27 231/28/28
f 223/31/31 231/28/28 230/32/32
f 194/33/33 193/30/30 208/29/29
f 194/33/33 208/29/29 207/34/34
f 224/35/35 223/31/31 230/32/32
f 224/35/35 230/32/32 229/36/36
f 195/37/37 194/33/33 207/34/34
f 195/37/37 207/34/34 206/38/38
f 115/39/39 114/40/40 187/41/41
f 153/42/42 152/43/43 151/44/44
f 115/39/39 187/41/41 186/45/45
f 154/46/46 153/42/42 151/44/44
f 115/39/39 186/45/45 185/47/47
f 155/48/48 154/46/46 151/44/44
f 115/39/39 185/47/47 184/49/49
f 156/50/50 155/48/48 151/44/44
f 115/39/39 184/49/49 183/51/51
f 157/52/52 156/50/50 151/44/44
f 115/39/39 183/51/51 182/53/53
f 158/54/54 157/52/52 151/44/44
f 115/39/39 182/53/53 181/55/55
f 225/56/56 224/35/35 229/36/36
f 159/57/57 158/54/54 151/44/44
f 115/39/39 181/55/55 180/58/58
f 160/59/59 159/57/57 151/44/44
f 115/39/39 180/58/58 179/60/60
f 225/56/56 229/36/36 228/61/61
f 161/62/62 160/59/59 151/44/44
f 115/39/39 179/60/60 178/63/63
f 162/64/64 161/62/62 151/44/44
f 115/39/39 178/63/63 177/65/65
f 163/66/66 162/64/64 151/44/44
f 115/39/39 177/65/65 176/67/67
f 164/68/68 163/66/66 151/44/44
f 115/39/39 176/67/67 175/69/69
f 115/39/39 175/69/69 174/70/69
f 115/39/39 174/70/69 173/71/69
f 115/39/39 173/71/69 172/72/69
f 115/39/39 172/72/69 171/73/69
f 115/39/39 171/73/69 170/74/69
f 115/39/39 170/74/69 169/75/69
f 115/39/39 169/75/69 168/76/69
f 115/39/39 168/76/69 167/77/69
f 115/39/39 167/77/69 166/78/69
f 115/39/39 166/78/69 165/79/69
f 115/39/39 165/79/69 164/68/68
f 115/39/39 164/68/68 116/80/70
f 116/80/70 164/68/68 117/81/71
f 117/81/71 164/68/68 118/82/72
f 118/82/72 164/68/68 119/83/73
f 119/83/73 164/68/68 120/84/74
f 120/84/74 164/68/68 121/85/75
f 121/85/75 164/68/68 122/86/76
f 122/86/76 164/68/68 123/87/77
f 123/87/77 164/68/68 124/88/78
f 124/88/78 164/68/68 125/89/79
f 125/89/79 164/68/68 126/90/80
f 126/90/80 164/68/68 127/91/81
f 127/91/81 164/68/68 129/92/82
f 129/92/82 164/68/68 130/93/82
f 130/93/82 164/68/68 131/94/82
f 131/94/82 164/68/68 132/95/82
f 132/95/82 164/68/68 133/96/82
f 133/96/82 164/68/68 134/97/82
f 134/97/82 164/68/68 135/98/82
f 135/98/82 164/68/68 136/99/82
f 136/99/82 164/68/68 137/100/82
f 137/100/82 164/68/68 138/101/82
f 138/101/82 164/68/68 139/102/83
f 139/102/83 164/68/68 140/103/84
f 140/103/84 164/68/68 141/104/85
f 141/104/85 164/68/68 142/105/86
f 142/105/86 164/68/68 143/106/87
f 143/106/87 164/68/68 144/107/88
f 144/107/88 164/68/68 145/108/89
f 145/108/89 164/68/68 146/109/90
f 146/109/90 164/68/68 147/110/91
f 147/110/91 164/68/68 148/111/92
f 148/111/92 164/68/68 149/112/93
f 149/112/93 164/68/68 150/113/94
f 150/113/94 164/68/68 151/44/44
f 196/114/95 195/37/37 206/38/38
f 196/114/95 206/38/38 205/115/96
f 225/56/56 228/61/61 226/116/97
f 226/116/97 228/61/61 227/117/98
f 197/118/99 196/114/95 205/115/96
f 197/118/99 205/115/96 204/119/100
f 197/118/99 204/119/100 203/120/101
f 198/121/102 197/118/99 203/120/101
f 198/121/102 203/120/101 202/122/103
f 199/123/104 198/121/102 202/122/103
f 199/123/104 202/122/103 200/124/105
f 200/124/105 202/122/103 201/125/106
f 128/126/107 127/91/81 129/92/82
f 2/127/108 1/128/109 113/129/110
f 79/130/111 78/131/112 77/132/113
f 2/127/108 113/129/110 112/133/114
f 80/134/115 79/130/111 77/132/113
f 2/127/108 112/133/114 111/135/116
f 81/136/117 80/134/115 77/132/113
f 2/127/108 111/135/116 110/137/118
f 82/138/119 81/136/117 77/132/113
f 2/127/108 110/137/118 109/139/120
f 83/140/121 82/138/119 77/132/113
f 2/127/108 109/139/120 108/141/122
f 84/142/123 83/140/121 77/132/113
f 2/127/108 108/141/122 107/143/124
f 85/144/125 84/142/123 77/132/113
f 2/127/108 107/143/124 106/145/126
f 86/146/127 85/144/125 77/132/113
f 2/127/108 106/145/126 105/147/128
f 87/148/129 86/146/127 77/132/113
f 2/127/108 105/147/128 104/149/130
f 88/150/131 87/148/129 77/132/113
f 2/127/108 104/149/130 103/151/132
f 89/152/133 88/150/131 77/132/113
f 2/127/108 103/151/132 102/153/134
f 90/154/135 89/152/133 77/132/113
f 2/127/108 102/153/134 101/155/69
f 2/127/108 101/155/69 100/156/69
f 2/127/108 100/156/69 99/157/69
f 2/127/108 99/157/69 98/158/69
f 2/127/108 98/158/69 97/159/69
f 2/127/108 97/159/69 96/160/69
f 2/127/108 96/160/69 95/161/69
f 2/127/108 95/161/69 94/162/69
f 2/127/108 94/162/69 93/163/69
f 2/127/108 93/163/69 92/164/69
f 2/127/108 92/164/69 91/165/69
f 2/127/108 91/165/69 90/154/135
f 2/127/108 90/154/135 3/166/136
f 3/166/136 90/154/135 4/167/137
f 4/167/137 90/154/135 5/168/138
f 5/168/138 90/154/135 6/169/139
f 6/169/139 90/154/135 7/170/140
f 7/170/140 90/154/135 8/171/141
f 8/171/141 90/154/135 9/172/142
f 9/172/142 90/154/135 10/173/143
f 10/173/143 90/154/135 11/174/144
f 11/174/144 90/154/135 12/175/145
f 12/175/145 90/154/135 13/176/146
f 13/176/146 90/154/135 14/177/147
f 14/177/147 90/154/135 15/178/148
f 15/178/148 90/154/135 64/179/149
f 64/179/149 90/154/135 65/180/150
f 65/180/150 90/154/135 66/181/151
f 66/181/151 90/154/135 67/182/152
f 67/182/152 90/154/135 68/183/153
f 68/183/153 90/154/135 69/184/154
f 69/184/154 90/154/135 70/185/155
f 70/185/155 90/154/135 71/186/156
f 71/186/156 90/154/135 72/187/157
f 72/187/157 90/154/135 73/188/158
f 73/188/158 90/154/135 74/189/159
f 74/189/159 90/154/135 75/190/160
f 75/190/160 90/154/135 76/191/161
f 76/191/161 90/154/135 77/132/113
f 16/192/162 15/178/148 64/179/149
f 16/192/162 64/179/149 63/193/163
f 17/194/164 16/192/162 63/193/163
f 17/194/164 63/193/163 62/195/165
f 18/196/166 17/194/164 62/195/165
f 18/196/166 62/195/165 61/197/167
f 19/198/168 18/196/166 61/197/167
f 19/198/168 61/197/167 60/199/169
f 20/200/170 19/198/168 60/199/169
f 20/200/170 60/199/169 59/201/171
f 21/202/172 20/200/170 59/201/171
f 21/202/172 59/201/171 58/203/173
f 22/204/174 21/202/172 58/203/173
f 22/204/174 58/203/173 57/205/175
f 23/206/176 22/204/174 57/205/175
f 23/206/176 57/205/175 56/207/177
f 24/208/178 23/206/176 56/207/177
f 25/209/179 24/208/178 56/207/177
f 25/209/179 56/207/177 55/210/180
f 26/211/181 25/209/179 55/210/180
f 26/211/181 55/210/180 54/212/182
f 27/213/183 26/211/181 54/212/182
f 27/213/183 54/212/182 53/214/184
f 28/215/185 27/213/183 53/214/184
f 28/215/185 53/214/184 52/216/186
f 29/217/187 28/215/185 52/216/186
f 29/217/187 52/216/186 51/218/188
f 30/219/189 29/217/187 51/218/188
f 30/219/189 51/218/188 50/220/190
f 31/221/191 30/219/189 50/220/190
f 31/221/191 50/220/190 49/222/192
f 32/223/193 31/221/191 49/222/192
f 33/224/194 32/223/193 49/222/192
f 33/224/194 49/222/192 48/225/195
f 34/226/196 33/224/194 48/225/195
f 34/226/196 48/225/195 47/227/197
f 35/228/198 34/226/196 47/227/197
f 35/228/198 47/227/197 46/229/199
f 36/230/200 35/228/198 46/229/199
f 37/231/201 36/230/200 46/229/199
f 37/231/201 46/229/199 45/232/202
f 38/233/203 37/231/201 45/232/202
f 38/233/203 45/232/202 44/234/204
f 39/235/205 38/233/203 44/234/204
f 40/236/206 39/235/205 44/234/204
f 40/236/206 44/234/204 43/237/207
f 40/236/206 43/237/207 42/238/208
f 40/236/206 42/238/208 41/239/209
f 240/1/210 241/3/211 242/2/212
f 240/1/210 243/4/213 241/3/211
f 240/1/210 244/5/214 243/4/213
f 245/6/215 244/5/214 240/1/210
f 245/6/215 246/7/216 244/5/214
f 247/8/217 246/7/216 245/6/215
f 248/9/218 249/11/219 250/10/220
f 251/12/221 246/7/216 247/8/217
f 251/12/221 252/13/222 246/7/216
f 248/9/218 253/14/223 249/11/219
f 254/15/224 252/13/222 251/12/221
f 254/15/224 255/16/225 252/13/222
f 248/9/218 256/17/226 253/14/223
f 257/18/227 256/17/226 248/9/218
f 258/19/228 255/16/225 254/15/224
f 258/19/228 259/20/229 255/16/225
f 257/18/227 260/21/230 256/17/226
f 261/22/231 260/21/230 257/18/227
f 262/23/232 259/20/229 258/19/228
f 262/23/232 263/24/233 259/20/229
f 261/22/231 264/25/234 260/21/230
f 265/26/235 264/25/234 261/22/231
f 266/27/236 263/24/233 262/23/232
f 266/27/236 267/28/237 263/24/233
f 265/26/235 268/29/238 264/25/234
f 269/30/239 268/29/238 265/26/235
f 270/31/240 267/28/237 266/27/236
f 270/31/240 271/32/241 267/28/237
f 272/33/242 268/29/238 269/30/239
f 272/33/242 273/34/243 268/29/238
f 274/35/244 271/32/241 270/31/240
f 274/35/244 275/36/245 271/32/241
f 276/37/246 273/34/243 272/33/242
f 276/37/246 277/38/247 273/34/243
f 278/39/248 279/41/249 280/40/250
f 281/42/251 282/44/252 283/43/253
f 278/39/248 284/45/254 279/41/249
f 285/46/255 282/44/252 281/42/251
f 278/39/248 286/47/256 284/45/254
f 287/48/257 282/44/252 285/46/255
f 278/39/248 288/49/258 286/47/256
f 289/50/259 282/44/252 287/48/257
f 278/39/248 290/51/260 288/49/258
f 291/52/261 282/44/252 289/50/259
f 278/39/248 292/53/262 290/51/260
f 293/54/263 282/44/252 291/52/261
f 278/39/248 294/55/264 292/53/262
f 295/56/265 275/36/245 274/35/244
f 296/57/266 282/44/252 293/54/263
f 278/39/248 297/58/267 294/55/264
f 298/59/268 282/44/252 296/57/266
f 278/39/248 299/60/269 297/58/267
f 295/56/265 300/61/270 275/36/245
f 301/62/271 282/44/252 298/59/268
f 278/39/248 302/63/272 299/60/269
f 303/64/273 282/44/252 301/62/271
f 278/39/248 304/65/274 302/63/272
f 305/66/275 282/44/252 303/64/273
f 278/39/248 306/67/276 304/65/274
f 307/68/277 282/44/252 305/66/275
f 278/39/248 308/69/278 306/67/276
f 278/39/248 309/70/278 308/69/278
f 278/39/248 310/71/278 309/70/278
f 278/39/248 311/72/278 310/71/278
f 278/39/248 312/73/278 311/72/278
f 278/39/248 313/74/278 312/73/278
f 278/39/248 314/75/278 313/74/278
f 278/39/248 315/76/278 314/75/278
f 278/39/248 316/77/278 315/76/278
f 278/39/248 317/78/278 316/77/278
f 278/39/248 318/79/278 317/78/278
f 278/39/248 307/68/277 318/79/278
f 278/39/248 319/80/279 307/68/277
f 319/80/279 320/81/280 307/68/277
f 320/81/280 321/82/281 307/68/277
f 321/82/281 322/83/282 307/68/277
f 322/83/282 323/84/283 307/68/277
f 323/84/283 324/85/284 307/68/277
f 324/85/284 325/86/285 307/68/277
f 325/86/285 326/87/286 307/68/277
f 326/87/286 327/88/287 307/68/277
f 327/88/287 328/89/288 307/68/277
f 328/89/288 329/90/289 307/68/277
f 329/90/289 330/91/290 307/68/277
f 330/91/290 331/92/107 307/68/277
f 331/92/107 332/93/107 307/68/277
f 332/93/107 333/94/107 307/68/277
f 333/94/107 334/95/107 307/68/277
f 334/95/107 335/96/107 307/68/277
f 335/96/107 336/97/107 307/68/277
f 336/97/107 337/98/107 307/68/277
f 337/98/107 338/99/107 307/68/277
f 338/99/107 339/100/107 307/68/277
f 339/100/107 340/101/107 307/68/277
f 340/101/107 341/102/291 307/68/277
f 341/102/291 342/103/292 307/68/277
f 342/103/292 343/104/293 307/68/277
f 343/104/293 344/105/294 307/68/277
f 344/105/294 345/106/295 307/68/277
f 345/106/295 346/107/296 307/68/277
f 346/107/296 347/108/297 307/68/277
f 347/108/297 348/109/298 307/68/277
f 348/109/298 349/110/299 307/68/277
f 349/110/299 350/111/300 307/68/277
f 350/111/300 351/112/301 307/68/277
f 351/112/301 352/113/302 307/68/277
f 352/113/302 282/44/252 307/68/277
f 353/114/303 277/38/247 276/37/246
f 353/114/303 354/115/304 277/38/247
f 295/56/265 355/116/305 300/61/270
f 355/116/305 356/117/306 300/61/270
f 357/118/307 354/115/304 353/114/303
f 357/118/307 358/119/308 354/115/304
f 357/118/307 359/120/309 358/119/308
f 360/121/310 359/120/309 357/118/307
f 360/121/310 361/122/311 359/120/309
f 362/123/312 361/122/311 360/121/310
f 362/123/312 363/124/313 361/122/311
f 363/124/313 364/125/314 361/122/311
f 365/126/107 331/92/107 330/91/290
f 366/127/315 367/129/316 368/128/317
f 369/130/318 370/132/319 371/131/320
f 366/127/315 372/133/321 367/129/316
f 373/134/322 370/132/319 369/130/318
f 366/127/315 374/135/323 372/133/321
f 375/136/324 370/132/319 373/134/322
f 366/127/315 376/137/325 374/135/323
f 377/138/326 370/132/319 375/136/324
f 366/127/315 378/139/327 376/137/325
f 379/140/328 370/132/319 377/138/326
f 366/127/315 380/141/329 378/139/327
f 381/142/330 370/132/319 379/140/328
f 366/127/315 382/143/331 380/141/329
f 383/144/332 370/132/319 381/142/330
f 366/127/315 384/145/333 382/143/331
f 385/146/334 370/132/319 383/144/332
f 366/127/315 386/147/335 384/145/333
f 387/148/336 370/132/319 385/146/334
f 366/127/315 388/149/337 386/147/335
f 389/150/338 370/132/319 387/148/336
f 366/127/315 390/151/339 388/149/337
f 391/152/340 370/132/319 389/150/338
f 366/127/315 392/153/341 390/151/339
f 393/154/342 370/132/319 391/152/340
f 366/127/315 394/155/278 392/153/341
f 366/127/315 395/156/278 394/155/278
f 366/127/315 396/157/278 395/156/278
f 366/127/315 397/158/278 396/157/278
f 366/127/315 398/159/278 397/158/278
f 366/127/315 399/160/278 398/159/278
f 366/127/315 400/161/278 399/160/278
f 366/127/315 401/162/278 400/161/278
f 366/127/315 402/163/278 401/162/278
f 366/127/315 403/164/278 402/163/278
f 366/127/315 404/165/278 403/164/278
f 366/127/315 393/154/342 404/165/278
f 366/127/315 405/166/343 393/154/342
f 405/166/343 406/167/344 393/154/342
f 406/167/344 407/168/345 393/154/342
f 407/168/345 408/169/346 393/154/342
f 408/169/346 409/170/347 393/154/342
f 409/170/347 410/171/348 393/154/342
f 410/171/348 411/172/349 393/154/342
f 411/172/349 412/173/350 393/154/342
f 412/173/350 413/174/351 393/154/342
f 413/174/351 414/175/352 393/154/342
f 414/175/352 415/176/353 393/154/342
f 415/176/353 416/177/354 393/154/342
f 416/177/354 417/178/355 393/154/342
f 417/178/355 418/179/356 393/154/342
f 418/179/356 419/180/357 393/154/342
f 419/180/357 420/181/358 393/154/342
f 420/181/358 421/182/359 393/154/342
f 421/182/359 422/183/360 393/154/342
f 422/183/360 423/184/361 393/154/342
f 423/184/361 424/185/362 393/154/342
f 424/185/362 425/186/363 393/154/342
f 425/186/363 426/187/364 393/154/342
f 426/187/364 427/188/365 393/154/342
f 427/188/365 428/189/366 393/154/342
f 428/189/366 429/190/367 393/154/342
f 429/190/367 430/191/368 393/154/342
f 430/191/368 370/132/319 393/154/342
f 431/192/369 418/179/356 417/178/355
f 431/192/369 432/193/370 418/179/356
f 433/194/371 432/193/370 431/192/369
f 433/194/371 434/195/372 432/193/370
f 435/196/373 434/195/372 433/194/371
f 435/196/373 436/197/374 434/195/372
f 437/198/375 436/197/374 435/196/373
f 437/198/375 438/199/376 436/197/374
f 439/200/377 438/199/376 437/198/375
f 439/200/377 440/201/378 438/199/376
f 441/202/379 440/201/378 439/200/377
f 441/202/379 442/203/380 440/201/378
f 443/204/381 442/203/380 441/202/379
f 443/204/381 444/205/382 442/203/380
f 445/206/383 444/205/382 443/204/381
f 445/206/383 446/207/384 444/205/382
f 447/208/385 446/207/384 445/206/383
f 448/209/386 446/207/384 447/208/385
f 448/209/386 449/210/387 446/207/384
f 450/211/388 449/210/387 448/209/386
f 450/211/388 451/212/389 449/210/387
f 452/213/390 451/212/389 450/211/388
f 452/213/390 453/214/391 451/212/389
f 454/215/392 453/214/391 452/213/390
f 454/215/392 455/216/393 453/214/391
f 456/217/394 455/216/393 454/215/392
f 456/217/394 457/218/395 455/216/393
f 458/219/396 457/218/395 456/217/394
f 458/219/396 459/220/397 457/218/395
f 460/221/398 459/220/397 458/219/396
f 460/221/398 461/222/399 459/220/397
f 462/223/400 461/222/399 460/221/398
f 463/224/401 461/222/399 462/223/400
f 463/224/401 464/225/402 461/222/399
f 465/226/403 464/225/402 463/224/401
f 465/226/403 466/227/404 464/225/402
f 467/228/405 466/227/404 465/226/403
f 467/228/405 468/229/406 466/227/404
f 469/230/407 468/229/406 467/228/405
f 470/231/408 468/229/406 469/230/407
f 470/231/408 471/232/409 468/229/406
f 472/233/410 471/232/409 470/231/408
f 472/233/410 473/234/411 471/232/409
f 474/235/412 473/234/411 472/233/410
f 475/236/413 473/234/411 474/235/412
f 475/236/413 476/237/414 473/234/411
f 475/236/413 477/238/415 476/237/414
f 475/236/413 478/239/416 477/238/415
f 238/4/4 241/3/211 243/4/213
f 237/5/5 243/4/213 244/5/214
f 216/6/6 240/1/210 215/1/1
f 237/5/5 246/7/216 236/7/7
f 217/8/8 245/6/215 216/6/6
f 188/10/10 249/11/219 213/11/11
f 188/10/10 248/9/218 250/10/220
f 217/8/8 251/12/221 247/8/217
f 236/7/7 252/13/222 235/13/13
f 213/11/11 253/14/223 212/14/14
f 218/12/12 254/15/224 251/12/221
f 235/13/13 255/16/225 234/16/16
f 212/14/14 256/17/226 211/17/17
f 189/9/9 257/18/227 248/9/218
f 219/15/15 258/19/228 254/15/224
f 234/16/16 259/20/229 233/20/20
f 211/17/17 260/21/230 210/21/21
f 190/18/18 261/22/231 257/18/227
f 221/23/23 258/19/228 220/19/19
f 233/20/20 263/24/233 232/24/24
f 209/25/25 260/21/230 264/25/234
f 192/26/26 261/22/231 191/22/22
f 221/23/23 266/27/236 262/23/232
f 232/24/24 267/28/237 231/28/28
f 209/25/25 268/29/238 208/29/29
f 192/26/26 269/30/239 265/26/235
f 222/27/27 270/31/240 266/27/236
f 231/28/28 271/32/241 230/32/32
f 193/30/30 272/33/242 269/30/239
f 208/29/29 273/34/243 207/34/34
f 223/31/31 274/35/244 270/31/240
f 230/32/32 275/36/245 229/36/36
f 194/33/33 276/37/246 272/33/242
f 207/34/34 277/38/247 206/38/38
f 114/40/40 279/41/249 187/41/41
f 114/40/40 278/39/248 280/40/250
f 152/43/43 282/44/252 151/44/44
f 152/43/43 281/42/251 283/43/253
f 187/41/41 284/45/254 186/45/45
f 154/46/46 281/42/251 153/42/42
f 186/45/45 286/47/256 185/47/47
f 154/46/46 287/48/257 285/46/255
f 185/47/47 288/49/258 184/49/49
f 156/50/50 287/48/257 155/48/48
f 184/49/49 290/51/260 183/51/51
f 157/52/52 289/50/259 156/50/50
f 183/51/51 292/53/262 182/53/53
f 158/54/54 291/52/261 157/52/52
f 182/53/53 294/55/264 181/55/55
f 225/56/56 274/35/244 224/35/35
f 159/57/57 293/54/263 158/54/54
f 181/55/55 297/58/267 180/58/58
f 160/59/59 296/57/266 159/57/57
f 180/58/58 299/60/269 179/60/60
f 229/36/36 300/61/270 228/61/61
f 161/62/62 298/59/268 160/59/59
f 179/60/60 302/63/272 178/63/63
f 162/64/64 301/62/271 161/62/62
f 178/63/63 304/65/274 177/65/65
f 163/66/66 303/64/273 162/64/64
f 177/65/65 306/67/276 176/67/67
f 164/68/68 305/66/275 163/66/66
f 176/67/67 308/69/278 175/69/69
f 175/69/69 309/70/278 174/70/69
f 174/70/69 310/71/278 173/71/69
f 173/71/69 311/72/278 172/72/69
f 172/72/69 312/73/278 171/73/69
f 171/73/69 313/74/278 170/74/69
f 170/74/69 314/75/278 169/75/69
f 169/75/69 315/76/278 168/76/69
f 168/76/69 316/77/278 167/77/69
f 167/77/69 317/78/278 166/78/69
f 166/78/69 318/79/278 165/79/69
f 165/79/69 307/68/277 164/68/68
f 116/80/70 278/39/248 115/39/39
f 117/81/71 319/80/279 116/80/70
f 118/82/72 320/81/280 117/81/71
f 119/83/73 321/82/281 118/82/72
f 120/84/74 322/83/282 119/83/73
f 121/85/75 323/84/283 120/84/74
f 122/86/76 324/85/284 121/85/75
f 123/87/77 325/86/285 122/86/76
f 124/88/78 326/87/286 123/87/77
f 125/89/79 327/88/287 124/88/78
f 126/90/80 328/89/288 125/89/79
f 127/91/81 329/90/289 126/90/80
f 130/93/82 331/92/107 129/92/82
f 131/94/82 332/93/107 130/93/82
f 132/95/82 333/94/107 131/94/82
f 133/96/82 334/95/107 132/95/82
f 134/97/82 335/96/107 133/96/82
f 135/98/82 336/97/107 134/97/82
f 136/99/82 337/98/107 135/98/82
f 137/100/82 338/99/107 136/99/82
f 138/101/82 339/100/107 137/100/82
f 139/102/83 340/101/107 138/101/82
f 140/103/84 341/102/291 139/102/83
f 141/104/85 342/103/292 140/103/84
f 142/105/86 343/104/293 141/104/85
f 143/106/87 344/105/294 142/105/86
f 144/107/88 345/106/295 143/106/87
f 145/108/89 346/107/296 144/107/88
f 146/109/90 347/108/297 145/108/89
f 147/110/91 348/109/298 146/109/90
f 148/111/92 349/110/299 147/110/91
f 149/112/93 350/111/300 148/111/92
f 150/113/94 351/112/301 149/112/93
f 151/44/44 352/113/302 150/113/94
f 195/37/37 353/114/303 276/37/246
f 206/38/38 354/115/304 205/115/96
f 225/56/56 355/116/305 295/56/265
f 227/117/98 355/116/305 226/116/97
f 227/117/98 300/61/270 356/117/306
f 197/118/99 353/114/303 196/114/95
f 204/119/100 354/115/304 358/119/308
f 204/119/100 359/120/309 203/120/101
f 197/118/99 360/121/310 357/118/307
f 203/120/101 361/122/311 202/122/103
f 198/121/102 362/123/312 360/121/310
f 199/123/104 363/124/313 362/123/312
f 201/125/106 363/124/313 200/124/105
f 201/125/106 361/122/311 364/125/314
f 129/92/82 365/126/107 128/126/107
f 128/126/107 330/91/290 127/91/81
f 1/128/109 367/129/316 113/129/110
f 2/127/108 368/128/317 1/128/109
f 78/131/112 370/132/319 77/132/113
f 79/130/111 371/131/320 78/131/112
f 113/129/110 372/133/321 112/133/114
f 80/134/115 369/130/318 79/130/111
f 112/133/114 374/135/323 111/135/116
f 81/136/117 373/134/322 80/134/115
f 111/135/116 376/137/325 110/137/118
f 82/138/119 375/136/324 81/136/117
f 110/137/118 378/139/327 109/139/120
f 83/140/121 377/138/326 82/138/119
f 109/139/120 380/141/329 108/141/122
f 84/142/123 379/140/328 83/140/121
f 108/141/122 382/143/331 107/143/124
f 85/144/125 381/142/330 84/142/123
f 107/143/124 384/145/333 106/145/126
f 86/146/127 383/144/332 85/144/125
f 106/145/126 386/147/335 105/147/128
f 87/148/129 385/146/334 86/146/127
f 105/147/128 388/149/337 104/149/130
f 88/150/131 387/148/336 87/148/129
f 104/149/130 390/151/339 103/151/132
f 89/152/133 389/150/338 88/150/131
f 103/151/132 392/153/341 102/153/134
f 90/154/135 391/152/340 89/152/133
f 102/153/134 394/155/278 101/155/69
f 101/155/69 395/156/278 100/156/69
f 100/156/69 396/157/278 99/157/69
f 99/157/69 397/158/278 98/158/69
f 98/158/69 398/159/278 97/159/69
f 97/159/69 399/160/278 96/160/69
f 96/160/69 400/161/278 95/161/69
f 95/161/69 401/162/278 94/162/69
f 94/162/69 402/163/278 93/163/69
f 93/163/69 403/164/278 92/164/69
f 92/164/69 404/165/278 91/165/69
f 91/165/69 393/154/342 90/154/135
f 3/166/136 366/127/315 2/127/108
f 4/167/137 405/166/343 3/166/136
f 5/168/138 406/167/344 4/167/137
f 6/169/139 407/168/345 5/168/138
f 7/170/140 408/169/346 6/169/139
f 8/171/141 409/170/347 7/170/140
f 9/172/142 410/171/348 8/171/141
f 10/173/143 411/172/349 9/172/142
f 11/174/144 412/173/350 10/173/143
f 12/175/145 413/174/351 11/174/144
f 13/176/146 414/175/352 12/175/145
f 14/177/147 415/176/353 13/176/146
f 15/178/148 416/177/354 14/177/147
f 65/180/150 418/179/356 64/179/149
f 66/181/151 419/180/357 65/180/150
f 67/182/152 420/181/358 66/181/151
f 68/183/153 421/182/359 67/182/152
f 69/184/154 422/183/360 68/183/153
f 70/185/155 423/184/361 69/184/154
f 71/186/156 424/185/362 70/185/155
f 72/187/157 425/186/363 71/186/156
f 73/188/158 426/187/364 72/187/157
f 74/189/159 427/188/365 73/188/158
f 75/190/160 428/189/366 74/189/159
f 76/191/161 429/190/367 75/190/160
f 77/132/113 430/191/368 76/191/161
f 16/192/162 417/178/355 15/178/148
f 64/179/149 432/193/370 63/193/163
f 16/192/162 433/194/371 431/192/369
f 63/193/163 434/195/372 62/195/165
f 18/196/166 433/194/371 17/194/164
f 62/195/165 436/197/374 61/197/167
f 18/196/166 437/198/375 435/196/373
f 61/197/167 438/199/376 60/199/169
f 20/200/170 437/198/375 19/198/168
f 59/201/171 438/199/376 440/201/378
f 21/202/172 439/200/377 20/200/170
f 59/201/171 442/203/380 58/203/173
f 21/202/172 443/204/381 441/202/379
f 57/205/175 442/203/380 444/205/382
f 23/206/176 443/204/381 22/204/174
f 56/207/177 444/205/382 446/207/384
f 24/208/178 445/206/383 23/206/176
f 25/209/179 447/208/385 24/208/178
f 55/210/180 446/207/384 449/210/387
f 26/211/181 448/209/386 25/209/179
f 54/212/182 449/210/387 451/212/389
f 27/213/183 450/211/388 26/211/181
f 53/214/184 451/212/389 453/214/391
f 28/215/185 452/213/390 27/213/183
f 52/216/186 453/214/391 455/216/393
f 29/217/187 454/215/392 28/215/185
f 52/216/186 457/218/395 51/218/188
f 30/219/189 456/217/394 29/217/187
f 50/220/190 457/218/395 459/220/397
f 31/221/191 458/219/396 30/219/189
f 49/222/192 459/220/397 461/222/399
f 32/223/193 460/221/398 31/221/191
f 33/224/194 462/223/400 32/223/193
f 48/225/195 461/222/399 464/225/402
f 34/226/196 463/224/401 33/224/194
f 47/227/197 464/225/402 466/227/404
f 35/228/198 465/226/403 34/226/196
f 46/229/199 466/227/404 468/229/406
f 36/230/200 467/228/405 35/228/198
f 37/231/201 469/230/407 36/230/200
f 45/232/202 468/229/406 471/232/409
f 38/233/203 470/231/408 37/231/201
f 45/232/202 473/234/411 44/234/204
f 39/235/205 472/233/410 38/233/203
f 40/236/206 474/235/412 39/235/205
f 43/237/207 473/234/411 476/237/414
f 43/237/207 477/238/415 42/238/208
f 40/236/206 478/239/416 475/236/413
f 41/239/209 477/238/415 478/239/416
f 214/2/2 241/3/211 239/3/3
f 215/1/1 242/2/212 214/2/2
s 0
f 480/240/417 481/241/417 479/242/417
f 482/243/418 485/244/418 481/241/418
f 486/245/419 483/246/419 485/244/419
f 484/247/420 479/248/420 483/246/420
f 485/244/421 479/249/421 481/250/421
f 482/251/422 484/247/422 486/245/422
s 1
f 238/4/4 239/3/3 241/3/211
f 237/5/5 238/4/4 243/4/213
f 216/6/6 245/6/215 240/1/210
f 237/5/5 244/5/214 246/7/216
f 217/8/8 247/8/217 245/6/215
f 188/10/10 250/10/220 249/11/219
f 188/10/10 189/9/9 248/9/218
f 217/8/8 218/12/12 251/12/221
f 236/7/7 246/7/216 252/13/222
f 213/11/11 249/11/219 253/14/223
f 218/12/12 219/15/15 254/15/224
f 235/13/13 252/13/222 255/16/225
f 212/14/14 253/14/223 256/17/226
f 189/9/9 190/18/18 257/18/227
f 219/15/15 220/19/19 258/19/228
f 234/16/16 255/16/225 259/20/229
f 211/17/17 256/17/226 260/21/230
f 190/18/18 191/22/22 261/22/231
f 221/23/23 262/23/232 258/19/228
f 233/20/20 259/20/229 263/24/233
f 209/25/25 210/21/21 260/21/230
f 192/26/26 265/26/235 261/22/231
f 221/23/23 222/27/27 266/27/236
f 232/24/24 263/24/233 267/28/237
f 209/25/25 264/25/234 268/29/238
f 192/26/26 193/30/30 269/30/239
f 222/27/27 223/31/31 270/31/240
f 231/28/28 267/28/237 271/32/241
f 193/30/30 194/33/33 272/33/242
f 208/29/29 268/29/238 273/34/243
f 223/31/31 224/35/35 274/35/244
f 230/32/32 271/32/241 275/36/245
f 194/33/33 195/37/37 276/37/246
f 207/34/34 273/34/243 277/38/247
f 114/40/40 280/40/250 279/41/249
f 114/40/40 115/39/39 278/39/248
f 152/43/43 283/43/253 282/44/252
f 152/43/43 153/42/42 281/42/251
f 187/41/41 279/41/249 284/45/254
f 154/46/46 285/46/255 281/42/251
f 186/45/45 284/45/254 286/47/256
f 154/46/46 155/48/48 287/48/257
f 185/47/47 286/47/256 288/49/258
f 156/50/50 289/50/259 287/48/257
f 184/49/49 288/49/258 290/51/260
f 157/52/52 291/52/261 289/50/259
f 183/51/51 290/51/260 292/53/262
f 158/54/54 293/54/263 291/52/261
f 182/53/53 292/53/262 294/55/264
f 225/56/56 295/56/265 274/35/244
f 159/57/57 296/57/266 293/54/263
f 181/55/55 294/55/264 297/58/267
f 160/59/59 298/59/268 296/57/266
f 180/58/58 297/58/267 299/60/269
f 229/36/36 275/36/245 300/61/270
f 161/62/62 301/62/271 298/59/268
f 179/60/60 299/60/269 302/63/272
f 162/64/64 303/64/273 301/62/271
f 178/63/63 302/63/272 304/65/274
f 163/66/66 305/66/275 303/64/273
f 177/65/65 304/65/274 306/67/276
f 164/68/68 307/68/277 305/66/275
f 176/67/67 306/67/276 308/69/278
f 175/69/69 308/69/278 309/70/278
f 174/70/69 309/70/278 310/71/278
f 173/71/69 310/71/278 311/72/278
f 172/72/69 311/72/278 312/73/278
f 171/73/69 312/73/278 313/74/278
f 170/74/69 313/74/278 314/75/278
f 169/75/69 314/75/278 315/76/278
f 168/76/69 315/76/278 316/77/278
f 167/77/69 316/77/278 317/78/278
f 166/78/69 317/78/278 318/79/278
f 165/79/69 318/79/278 307/68/277
f 116/80/70 319/80/279 278/39/248
f 117/81/71 320/81/280 319/80/279
f 118/82/72 321/82/281 320/81/280
f 119/83/73 322/83/282 321/82/281
f 120/84/74 323/84/283 322/83/282
f 121/85/75 324/85/284 323/84/283
f 122/86/76 325/86/285 324/85/284
f 123/87/77 326/87/286 325/86/285
f 124/88/78 327/88/287 326/87/286
f 125/89/79 328/89/288 327/88/287
f 126/90/80 329/90/289 328/89/288
f 127/91/81 330/91/290 329/90/289
f 130/93/82 332/93/107 331/92/107
f 131/94/82 333/94/107 332/93/107
f 132/95/82 334/95/107 333/94/107
f 133/96/82 335/96/107 334/95/107
f 134/97/82 336/97/107 335/96/107
f 135/98/82 337/98/107 336/97/107
f 136/99/82 338/99/107 337/98/107
f 137/100/82 339/100/107 338/99/107
f 138/101/82 340/101/107 339/100/107
f 139/102/83 341/102/291 340/101/107
f 140/103/84 342/103/292 341/102/291
f 141/104/85 343/104/293 342/103/292
f 142/105/86 344/105/294 343/104/293
f 143/106/87 345/106/295 344/105/294
f 144/107/88 346/107/296 345/106/295
f 145/108/89 347/108/297 346/107/296
f 146/109/90 348/109/298 347/108/297
f 147/110/91 349/110/299 348/109/298
f 148/111/92 350/111/300 349/110/299
f 149/112/93 351/112/301 350/111/300
f 150/113/94 352/113/302 351/112/301
f 151/44/44 282/44/252 352/113/302
f 195/37/37 196/114/95 353/114/303
f 206/38/38 277/38/247 354/115/304
f 225/56/56 226/116/97 355/116/305
f 227/117/98 356/117/306 355/116/305
f 227/117/98 228/61/61 300/61/270
f 197/118/99 357/118/307 353/114/303
f 204/119/100 205/115/96 354/115/304
f 204/119/100 358/119/308 359/120/309
f 197/118/99 198/121/102 360/121/310
f 203/120/101 359/120/309 361/122/311
f 198/121/102 199/123/104 362/123/312
f 199/123/104 200/124/105 363/124/313
f 201/125/106 364/125/314 363/124/313
f 201/125/106 202/122/103 361/122/311
f 129/92/82 331/92/107 365/126/107
f 128/126/107 365/126/107 330/91/290
f 1/128/109 368/128/317 367/129/316
f 2/127/108 366/127/315 368/128/317
f 78/131/112 371/131/320 370/132/319
f 79/130/111 369/130/318 371/131/320
f 113/129/110 367/129/316 372/133/321
f 80/134/115 373/134/322 369/130/318
f 112/133/114 372/133/321 374/135/323
f 81/136/117 375/136/324 373/134/322
f 111/135/116 374/135/323 376/137/325
f 82/138/119 377/138/326 375/136/324
f 110/137/118 376/137/325 378/139/327
f 83/140/121 379/140/328 377/138/326
f 109/139/120 378/139/327 380/141/329
f 84/142/123 381/142/330 379/140/328
f 108/141/122 380/141/329 382/143/331
f 85/144/125 383/144/332 381/142/330
f 107/143/124 382/143/331 384/145/333
f 86/146/127 385/146/334 383/144/332
f 106/145/126 384/145/333 386/147/335
f 87/148/129 387/148/336 385/146/334
f 105/147/128 386/147/335 388/149/337
f 88/150/131 389/150/338 387/148/336
f 104/149/130 388/149/337 390/151/339
f 89/152/133 391/152/340 389/150/338
f 103/151/132 390/151/339 392/153/341
f 90/154/135 393/154/342 391/152/340
f 102/153/134 392/153/341 394/155/278
f 101/155/69 394/155/278 395/156/278
f 100/156/69 395/156/278 396/157/278
f 99/157/69 396/157/278 397/158/278
f 98/158/69 397/158/278 398/159/278
f 97/159/69 398/159/278 399/160/278
f 96/160/69 399/160/278 400/161/278
f 95/161/69 400/161/278 401/162/278
f 94/162/69 401/162/278 402/163/278
f 93/163/69 402/163/278 403/164/278
f 92/164/69 403/164/278 404/165/278
f 91/165/69 404/165/278 393/154/342
f 3/166/136 405/166/343 366/127/315
f 4/167/137 406/167/344 405/166/343
f 5/168/138 407/168/345 406/167/344
f 6/169/139 408/169/346 407/168/345
f 7/170/140 409/170/347 408/169/346
f 8/171/141 410/171/348 409/170/347
f 9/172/142 411/172/349 410/171/348
f 10/173/143 412/173/350 411/172/349
f 11/174/144 413/174/351 412/173/350
f 12/175/145 414/175/352 413/174/351
f 13/176/146 415/176/353 414/175/352
f 14/177/147 416/177/354 415/176/353
f 15/178/148 417/178/355 416/177/354
f 65/180/150 419/180/357 418/179/356
f 66/181/151 420/181/358 419/180/357
f 67/182/152 421/182/359 420/181/358
f 68/183/153 422/183/360 421/182/359
f 69/184/154 423/184/361 422/183/360
f 70/185/155 424/185/362 423/184/361
f 71/186/156 425/186/363 424/185/362
f 72/187/157 426/187/364 425/186/363
f 73/188/158 427/188/365 426/187/364
f 74/189/159 428/189/366 427/188/365
f 75/190/160 429/190/367 428/189/366
f 76/191/161 430/191/368 429/190/367
f 77/132/113 370/132/319 430/191/368
f 16/192/162 431/192/369 417/178/355
f 64/179/149 418/179/356 432/193/370
f 16/192/162 17/194/164 433/194/371
f 63/193/163 432/193/370 434/195/372
f 18/196/166 435/196/373 433/194/371
f 62/195/165 434/195/372 436/197/374
f 18/196/166 19/198/168 437/198/375
f 61/197/167 436/197/374 438/199/376
f 20/200/170 439/200/377 437/198/375
f 59/201/171 60/199/169 438/199/376
f 21/202/172 441/202/379 439/200/377
f 59/201/171 440/201/378 442/203/380
f 21/202/172 22/204/174 443/204/381
f 57/205/175 58/203/173 442/203/380
f 23/206/176 445/206/383 443/204/381
f 56/207/177 57/205/175 444/205/382
f 24/208/178 447/208/385 445/206/383
f 25/209/179 448/209/386 447/208/385
f 55/210/180 56/207/177 446/207/384
f 26/211/181 450/211/388 448/209/386
f 54/212/182 55/210/180 449/210/387
f 27/213/183 452/213/390 450/211/388
f 53/214/184 54/212/182 451/212/389
f 28/215/185 454/215/392 452/213/390
f 52/216/186 53/214/184 453/214/391
f 29/217/187 456/217/394 454/215/392
f 52/216/186 455/216/393 457/218/395
f 30/219/189 458/219/396 456/217/394
f 50/220/190 51/218/188 457/218/395
f 31/221/191 460/221/398 458/219/396
f 49/222/192 50/220/190 459/220/397
f 32/223/193 462/223/400 460/221/398
f 33/224/194 463/224/401 462/223/400
f 48/225/195 49/222/192 461/222/399
f 34/226/196 465/226/403 463/224/401
f 47/227/197 48/225/195 464/225/402
f 35/228/198 467/228/405 465/226/403
f 46/229/199 47/227/197 466/227/404
f 36/230/200 469/230/407 467/228/405
f 37/231/201 470/231/408 469/230/407
f 45/232/202 46/229/199 468/229/406
f 38/233/203 472/233/410 470/231/408
f 45/232/202 471/232/409 473/234/411
f 39/235/205 474/235/412 472/233/410
f 40/236/206 475/236/413 474/235/412
f 43/237/207 44/234/204 473/234/411
f 43/237/207 476/237/414 477/238/415
f 40/236/206 41/239/209 478/239/416
f 41/239/209 42/238/208 477/238/415
f 214/2/2 242/2/212 241/3/211
f 215/1/1 240/1/210 242/2/212
s 0
f 480/240/417 482/243/417 481/241/417
f 482/243/418 486/245/418 485/244/418
f 486/245/419 484/247/419 483/246/419
f 484/247/420 480/252/420 479/248/420
f 485/244/421 483/246/421 479/249/421
f 482/251/422 480/253/422 484/247/422
