# Blender 4.4.1
# www.blender.org
mtllib Title_Ice1.mtl
o 1.こ
v 0.476665 0.199906 -0.718373
v 0.508664 0.199906 -0.580336
v 0.508664 0.199906 -0.721376
v -0.409816 0.199906 -0.578616
v -0.378151 0.199906 -0.715964
v -0.409816 0.199906 -0.719656
v 0.442731 0.199906 -0.715411
v -0.345125 0.199906 -0.712625
v 0.407076 0.199906 -0.712534
v -0.310808 0.199906 -0.709632
v 0.369917 0.199906 -0.709782
v 0.331468 0.199906 -0.707197
v -0.275274 0.199906 -0.706979
v 0.291944 0.199906 -0.704821
v -0.238592 0.199906 -0.704661
v 0.251560 0.199906 -0.702696
v -0.200836 0.199906 -0.702671
v 0.210530 0.199906 -0.700863
v -0.162076 0.199906 -0.701004
v -0.122385 0.199906 -0.699653
v 0.169071 0.199906 -0.699365
v -0.081833 0.199906 -0.698613
v 0.127397 0.199906 -0.698243
v -0.040494 0.199906 -0.697877
v 0.085723 0.199906 -0.697540
v 0.001563 0.199906 -0.697440
v 0.044264 0.199906 -0.697296
v 0.478012 0.199906 -0.578123
v -0.375622 0.199906 -0.576075
v 0.444761 0.199906 -0.575821
v -0.340944 0.199906 -0.573631
v 0.409253 0.199906 -0.573483
v -0.305729 0.199906 -0.571306
v 0.371828 0.199906 -0.571162
v -0.269923 0.199906 -0.569124
v 0.332827 0.199906 -0.568914
v -0.233471 0.199906 -0.567109
v 0.292589 0.199906 -0.566791
v -0.196321 0.199906 -0.565286
v 0.251455 0.199906 -0.564847
v -0.158418 0.199906 -0.563677
v 0.209766 0.199906 -0.563136
v -0.119709 0.199906 -0.562307
v 0.167862 0.199906 -0.561711
v -0.080140 0.199906 -0.561201
v 0.126083 0.199906 -0.560627
v -0.039658 0.199906 -0.560380
v 0.084771 0.199906 -0.559938
v 0.001793 0.199906 -0.559871
v 0.044264 0.199906 -0.559696
v -0.484299 0.199906 -0.022413
v -0.341016 0.199906 -0.026496
v -0.480336 0.199906 -0.040256
v -0.346424 0.199906 -0.009400
v -0.488387 0.199906 -0.004152
v -0.351456 0.199906 0.007498
v -0.492510 0.199906 0.014516
v -0.356093 0.199906 0.024218
v -0.496580 0.199906 0.033577
v -0.360318 0.199906 0.040776
v -0.500507 0.199906 0.053021
v -0.364114 0.199906 0.057190
v -0.504201 0.199906 0.072834
v -0.367461 0.199906 0.073479
v -0.507572 0.199906 0.093007
v -0.370343 0.199906 0.089661
v -0.372740 0.199906 0.105753
v -0.510532 0.199906 0.113525
v -0.374637 0.199906 0.121774
v -0.512989 0.199906 0.134378
v -0.376013 0.199906 0.137740
v -0.514855 0.199906 0.155554
v -0.376852 0.199906 0.153671
v -0.377136 0.199906 0.169584
v -0.516041 0.199906 0.177040
v -0.374337 0.199906 0.201410
v -0.516456 0.199906 0.198824
v -0.512261 0.199906 0.250882
v -0.365924 0.199906 0.231409
v -0.351874 0.199906 0.259401
v -0.499805 0.199906 0.298664
v -0.332161 0.199906 0.285207
v -0.306763 0.199906 0.308648
v -0.479288 0.199906 0.342122
v -0.275656 0.199906 0.329544
v 0.586324 0.199906 0.333051
v 0.622184 0.199906 0.470584
v 0.620464 0.199906 0.322664
v -0.238815 0.199906 0.347718
v 0.548582 0.199906 0.342691
v -0.450905 0.199906 0.381208
v 0.507509 0.199906 0.351555
v -0.196217 0.199906 0.362989
v 0.463371 0.199906 0.359613
v 0.416438 0.199906 0.366834
v -0.147838 0.199906 0.375178
v 0.366979 0.199906 0.373189
v 0.315263 0.199906 0.378649
v -0.093654 0.199906 0.384107
v 0.261557 0.199906 0.383183
v -0.414854 0.199906 0.415875
v 0.206132 0.199906 0.386761
v -0.033642 0.199906 0.389595
v 0.149256 0.199906 0.389354
v 0.091197 0.199906 0.390932
v 0.032224 0.199906 0.391464
v -0.371331 0.199906 0.446074
v -0.320534 0.199906 0.471759
v 0.589293 0.199906 0.478995
v -0.262660 0.199906 0.492881
v 0.552699 0.199906 0.486988
v 0.512642 0.199906 0.494503
v -0.197907 0.199906 0.509392
v 0.469359 0.199906 0.501481
v 0.423090 0.199906 0.507861
v 0.374074 0.199906 0.513584
v -0.126470 0.199906 0.521245
v 0.322550 0.199906 0.518591
v 0.268756 0.199906 0.522821
v -0.048547 0.199906 0.528391
v 0.212932 0.199906 0.526216
v 0.155316 0.199906 0.528714
v 0.035664 0.199906 0.530784
v 0.096147 0.199906 0.530257
v -0.480336 0.099953 -0.040256
v -0.341016 0.099953 -0.026496
v -0.484299 0.099953 -0.022413
v -0.346424 0.099953 -0.009400
v -0.488387 0.099953 -0.004152
v -0.351456 0.099953 0.007498
v -0.492510 0.099953 0.014516
v -0.356093 0.099953 0.024218
v -0.496580 0.099953 0.033577
v -0.360318 0.099953 0.040776
v -0.500507 0.099953 0.053021
v -0.364114 0.099953 0.057190
v -0.504201 0.099953 0.072834
v -0.367461 0.099953 0.073479
v -0.507572 0.099953 0.093007
v -0.370343 0.099953 0.089661
v -0.372740 0.099953 0.105753
v -0.510532 0.099953 0.113525
v -0.374637 0.099953 0.121774
v -0.512989 0.099953 0.134378
v -0.376013 0.099953 0.137741
v -0.514855 0.099953 0.155554
v -0.376852 0.099953 0.153671
v -0.377136 0.099953 0.169584
v -0.516041 0.099953 0.177040
v -0.374337 0.099953 0.201410
v -0.516456 0.099953 0.198824
v -0.512261 0.099953 0.250882
v -0.365924 0.099953 0.231409
v -0.351874 0.099953 0.259401
v -0.499805 0.099953 0.298664
v -0.332161 0.099953 0.285207
v -0.306763 0.099953 0.308648
v -0.479288 0.099953 0.342122
v -0.275656 0.099953 0.329544
v 0.620464 0.099953 0.322664
v 0.622184 0.099953 0.470584
v 0.586324 0.099953 0.333051
v -0.238815 0.099953 0.347718
v 0.548582 0.099953 0.342691
v -0.450905 0.099953 0.381208
v 0.507509 0.099953 0.351555
v -0.196217 0.099953 0.362989
v 0.463371 0.099953 0.359613
v 0.416438 0.099953 0.366834
v -0.147838 0.099953 0.375178
v 0.366979 0.099953 0.373189
v 0.315263 0.099953 0.378649
v -0.093654 0.099953 0.384107
v 0.261557 0.099953 0.383183
v -0.414854 0.099953 0.415875
v 0.206132 0.099953 0.386761
v -0.033642 0.099953 0.389595
v 0.149256 0.099953 0.389354
v 0.091197 0.099953 0.390932
v 0.032224 0.099953 0.391464
v -0.371331 0.099953 0.446074
v -0.320534 0.099953 0.471759
v 0.589293 0.099953 0.478995
v -0.262660 0.099953 0.492881
v 0.552699 0.099953 0.486988
v 0.512642 0.099953 0.494503
v -0.197907 0.099953 0.509392
v 0.469359 0.099953 0.501481
v 0.423090 0.099953 0.507861
v 0.374074 0.099953 0.513584
v -0.126470 0.099953 0.521245
v 0.322550 0.099953 0.518591
v 0.268756 0.099953 0.522821
v -0.048547 0.099953 0.528391
v 0.212932 0.099953 0.526216
v 0.155316 0.099953 0.528714
v 0.035664 0.099953 0.530784
v 0.096147 0.099953 0.530257
v 0.508664 0.099953 -0.721376
v 0.508664 0.099953 -0.580336
v 0.476665 0.099953 -0.718373
v -0.409816 0.099953 -0.719656
v -0.378151 0.099953 -0.715964
v -0.409816 0.099953 -0.578616
v 0.442731 0.099953 -0.715411
v -0.345125 0.099953 -0.712625
v 0.407076 0.099953 -0.712534
v -0.310808 0.099953 -0.709632
v 0.369917 0.099953 -0.709782
v 0.331468 0.099953 -0.707197
v -0.275274 0.099953 -0.706979
v 0.291944 0.099953 -0.704821
v -0.238592 0.099953 -0.704661
v 0.251560 0.099953 -0.702696
v -0.200836 0.099953 -0.702671
v 0.210530 0.099953 -0.700863
v -0.162076 0.099953 -0.701004
v -0.122385 0.099953 -0.699653
v 0.169071 0.099953 -0.699365
v -0.081833 0.099953 -0.698613
v 0.127397 0.099953 -0.698243
v -0.040494 0.099953 -0.697877
v 0.085723 0.099953 -0.697540
v 0.001563 0.099953 -0.697440
v 0.044264 0.099953 -0.697296
v 0.478012 0.099953 -0.578123
v -0.375622 0.099953 -0.576075
v 0.444761 0.099953 -0.575821
v -0.340944 0.099953 -0.573631
v 0.409253 0.099953 -0.573483
v -0.305729 0.099953 -0.571306
v 0.371828 0.099953 -0.571162
v -0.269923 0.099953 -0.569124
v 0.332827 0.099953 -0.568914
v -0.233471 0.099953 -0.567109
v 0.292589 0.099953 -0.566791
v -0.196321 0.099953 -0.565286
v 0.251455 0.099953 -0.564847
v -0.158418 0.099953 -0.563677
v 0.209766 0.099953 -0.563136
v -0.119709 0.099953 -0.562307
v 0.167862 0.099953 -0.561711
v -0.080140 0.099953 -0.561201
v 0.126083 0.099953 -0.560627
v -0.039658 0.099953 -0.560380
v 0.084771 0.099953 -0.559938
v 0.001793 0.099953 -0.559871
v 0.044264 0.099953 -0.559696
v 0.476665 -0.000000 -0.718373
v 0.508664 -0.000000 -0.580336
v 0.508664 -0.000000 -0.721376
v -0.409816 -0.000000 -0.578616
v -0.378151 -0.000000 -0.715964
v -0.409816 -0.000000 -0.719656
v 0.442731 -0.000000 -0.715411
v -0.345125 -0.000000 -0.712625
v 0.407076 -0.000000 -0.712534
v -0.310808 -0.000000 -0.709632
v 0.369917 -0.000000 -0.709782
v 0.331468 -0.000000 -0.707197
v -0.275274 -0.000000 -0.706979
v 0.291944 -0.000000 -0.704821
v -0.238592 -0.000000 -0.704661
v 0.251560 -0.000000 -0.702696
v -0.200836 -0.000000 -0.702671
v 0.210530 -0.000000 -0.700863
v -0.162076 -0.000000 -0.701004
v -0.122385 -0.000000 -0.699653
v 0.169071 -0.000000 -0.699365
v -0.081833 -0.000000 -0.698613
v 0.127397 -0.000000 -0.698243
v -0.040494 -0.000000 -0.697877
v 0.085723 -0.000000 -0.697540
v 0.001563 -0.000000 -0.697440
v 0.044264 -0.000000 -0.697296
v 0.478012 -0.000000 -0.578123
v -0.375622 -0.000000 -0.576075
v 0.444761 -0.000000 -0.575821
v -0.340944 -0.000000 -0.573631
v 0.409253 -0.000000 -0.573482
v -0.305729 -0.000000 -0.571306
v 0.371828 -0.000000 -0.571162
v -0.269923 -0.000000 -0.569124
v 0.332827 -0.000000 -0.568914
v -0.233471 -0.000000 -0.567109
v 0.292589 -0.000000 -0.566791
v -0.196321 -0.000000 -0.565286
v 0.251455 -0.000000 -0.564847
v -0.158418 -0.000000 -0.563677
v 0.209766 -0.000000 -0.563136
v -0.119709 -0.000000 -0.562307
v 0.167862 -0.000000 -0.561711
v -0.080140 -0.000000 -0.561201
v 0.126083 -0.000000 -0.560627
v -0.039658 -0.000000 -0.560380
v 0.084771 -0.000000 -0.559938
v 0.001793 -0.000000 -0.559871
v 0.044264 -0.000000 -0.559696
v -0.484299 0.000000 -0.022413
v -0.341016 0.000000 -0.026496
v -0.480336 0.000000 -0.040256
v -0.346424 0.000000 -0.009400
v -0.488387 0.000000 -0.004152
v -0.351456 0.000000 0.007498
v -0.492510 0.000000 0.014516
v -0.356093 0.000000 0.024218
v -0.496580 0.000000 0.033577
v -0.360318 0.000000 0.040776
v -0.500507 0.000000 0.053021
v -0.364114 0.000000 0.057190
v -0.504201 0.000000 0.072834
v -0.367461 0.000000 0.073479
v -0.507572 0.000000 0.093007
v -0.370343 0.000000 0.089661
v -0.372740 0.000000 0.105753
v -0.510532 0.000000 0.113525
v -0.374637 0.000000 0.121774
v -0.512989 0.000000 0.134378
v -0.376013 0.000000 0.137741
v -0.514855 0.000000 0.155554
v -0.376852 0.000000 0.153671
v -0.377136 0.000000 0.169584
v -0.516041 0.000000 0.177040
v -0.374337 0.000000 0.201410
v -0.516456 0.000000 0.198824
v -0.512261 0.000000 0.250882
v -0.365924 0.000000 0.231409
v -0.351874 0.000000 0.259401
v -0.499805 0.000000 0.298664
v -0.332161 0.000000 0.285207
v -0.306763 0.000000 0.308648
v -0.479288 0.000000 0.342122
v -0.275656 0.000000 0.329544
v 0.586324 0.000000 0.333051
v 0.622184 0.000000 0.470584
v 0.620464 0.000000 0.322664
v -0.238815 0.000000 0.347718
v 0.548582 0.000000 0.342691
v -0.450905 0.000000 0.381208
v 0.507509 0.000000 0.351555
v -0.196217 0.000000 0.362989
v 0.463371 0.000000 0.359613
v 0.416438 0.000000 0.366834
v -0.147838 0.000000 0.375178
v 0.366979 0.000000 0.373189
v 0.315263 0.000000 0.378649
v -0.093654 0.000000 0.384107
v 0.261557 0.000000 0.383183
v -0.414854 0.000000 0.415875
v 0.206132 0.000000 0.386761
v -0.033642 0.000000 0.389595
v 0.149256 0.000000 0.389354
v 0.091197 0.000000 0.390932
v 0.032224 0.000000 0.391464
v -0.371331 0.000000 0.446074
v -0.320534 0.000000 0.471759
v 0.589293 0.000000 0.478995
v -0.262660 0.000000 0.492881
v 0.552699 0.000000 0.486988
v 0.512642 0.000000 0.494503
v -0.197907 0.000000 0.509392
v 0.469359 0.000000 0.501481
v 0.423090 0.000000 0.507861
v 0.374074 0.000000 0.513584
v -0.126470 0.000000 0.521245
v 0.322550 0.000000 0.518591
v 0.268756 0.000000 0.522821
v -0.048547 0.000000 0.528391
v 0.212932 0.000000 0.526216
v 0.155316 0.000000 0.528714
v 0.035664 0.000000 0.530784
v 0.096147 0.000000 0.530257
v -1.000000 -1.000000 1.000000
v -1.000000 1.000000 1.000000
v -1.000000 -1.000000 -1.000000
v -1.000000 1.000000 -1.000000
v 1.000000 -1.000000 1.000000
v 1.000000 1.000000 1.000000
v 1.000000 -1.000000 -1.000000
v 1.000000 1.000000 -1.000000
v -1.000000 -1.000000 1.000000
v -1.000000 1.000000 1.000000
v -1.000000 -1.000000 -1.000000
v -1.000000 1.000000 -1.000000
v 1.000000 -1.000000 1.000000
v 1.000000 1.000000 1.000000
v 1.000000 -1.000000 -1.000000
v 1.000000 1.000000 -1.000000
vn -0.0000 1.0000 -0.0000
vn 0.0003 1.0000 0.0003
vn 0.0001 1.0000 0.0006
vn 0.7321 -0.0000 0.6811
vn 0.6733 -0.0000 -0.7394
vn 0.7321 -0.0000 0.6812
vn -0.0902 -0.0000 -0.9959
vn -0.6649 -0.0000 -0.7469
vn 0.1082 -0.0000 -0.9941
vn -0.7328 -0.0000 0.6804
vn -0.0837 -0.0000 -0.9965
vn 0.0937 -0.0000 -0.9956
vn -0.0770 0.0005 -0.9970
vn 0.0807 -0.0000 -0.9967
vn -0.0705 -0.0000 -0.9975
vn -0.0772 -0.0006 -0.9970
vn -0.0635 -0.0000 -0.9980
vn 0.0688 -0.0000 -0.9976
vn -0.0563 -0.0000 -0.9984
vn 0.0579 -0.0000 -0.9983
vn -0.0486 -0.0000 -0.9988
vn 0.0478 -0.0000 -0.9989
vn -0.0404 -0.0000 -0.9992
vn 0.0385 -0.0000 -0.9993
vn 0.0298 -0.0000 -0.9996
vn -0.0315 -0.0000 -0.9995
vn 0.0217 -0.0000 -0.9998
vn -0.0219 -0.0000 -0.9998
vn 0.0141 -0.0000 -0.9999
vn -0.0114 -0.0000 -0.9999
vn 0.0069 -0.0000 -1.0000
vn -0.0013 -0.0000 -1.0000
vn -0.0016 -0.0003 -1.0000
vn 0.0705 -0.0000 0.9975
vn -0.0722 -0.0000 0.9974
vn 0.0674 -0.0000 0.9977
vn -0.0681 -0.0000 0.9977
vn 0.0638 -0.0000 0.9980
vn -0.0634 -0.0000 0.9980
vn 0.0597 -0.0000 0.9982
vn -0.0580 -0.0000 0.9983
vn 0.0551 -0.0000 0.9985
vn -0.0521 -0.0000 0.9986
vn 0.0499 -0.0000 0.9988
vn -0.0457 -0.0000 0.9990
vn 0.0441 -0.0000 0.9990
vn -0.0389 -0.0000 0.9992
vn 0.0375 -0.0000 0.9993
vn -0.0317 -0.0000 0.9995
vn 0.0300 -0.0000 0.9996
vn -0.0241 -0.0000 0.9997
vn 0.0213 -0.0000 0.9998
vn -0.0163 -0.0000 0.9999
vn 0.0113 -0.0000 0.9999
vn -0.0082 -0.0000 1.0000
vn 0.0009 -0.0000 1.0000
vn -0.5866 -0.0000 -0.8099
vn 0.8348 -0.0000 -0.5505
vn -0.9760 -0.0000 -0.2176
vn -0.5866 -0.0000 -0.8098
vn 0.9560 -0.0000 0.2935
vn -0.9762 -0.0000 -0.2171
vn 0.9611 -0.0000 0.2763
vn -0.9772 -0.0000 -0.2123
vn 0.9663 -0.0000 0.2573
vn -0.9791 -0.0000 -0.2034
vn 0.9717 -0.0000 0.2363
vn -0.9817 -0.0000 -0.1906
vn 0.9770 -0.0000 0.2133
vn -0.9847 -0.0000 -0.1741
vn 0.9821 -0.0000 0.1883
vn -0.9881 -0.0000 -0.1538
vn 0.9869 -0.0000 0.1614
vn 0.9912 -0.0000 0.1325
vn -0.9915 -0.0000 -0.1299
vn 0.9948 -0.0000 0.1017
vn -0.9947 -0.0000 -0.1024
vn 0.9976 -0.0000 0.0693
vn -0.9974 -0.0000 -0.0715
vn 0.9994 -0.0000 0.0352
vn 0.9994 -0.0000 -0.0349
vn -0.9993 -0.0000 -0.0371
vn 0.9837 -0.0000 -0.1796
vn -0.9995 -0.0000 0.0307
vn -0.9860 -0.0000 0.1669
vn 0.9326 -0.0000 -0.3610
vn 0.8479 -0.0000 -0.5301
vn -0.9400 -0.0000 0.3411
vn 0.7392 -0.0000 -0.6735
vn 0.6198 -0.0000 -0.7848
vn -0.8605 -0.0000 0.5095
vn 0.5011 -0.0000 -0.8654
vn 0.7934 -0.0000 0.6087
vn 0.5907 -0.0000 -0.8069
vn -0.2693 -0.0000 -0.9630
vn 0.3906 -0.0000 -0.9206
vn -0.2293 -0.0000 -0.9734
vn -0.7541 -0.0000 0.6568
vn -0.1953 -0.0000 -0.9807
vn 0.2912 -0.0000 -0.9567
vn -0.1658 -0.0000 -0.9862
vn -0.1398 -0.0000 -0.9902
vn 0.2036 -0.0000 -0.9790
vn -0.1162 -0.0000 -0.9932
vn -0.0946 -0.0000 -0.9955
vn 0.1269 -0.0000 -0.9919
vn -0.0743 -0.0000 -0.9972
vn -0.6336 -0.0000 0.7736
vn -0.0550 -0.0000 -0.9985
vn 0.0598 -0.0000 -0.9982
vn -0.0364 -0.0000 -0.9993
vn -0.0181 -0.0000 -0.9998
vn 0.0097 -0.0000 -1.0000
vn -0.5119 -0.0000 0.8591
vn -0.3977 -0.0000 0.9175
vn 0.2306 -0.0000 0.9730
vn -0.2953 -0.0000 0.9554
vn 0.1989 -0.0000 0.9800
vn 0.1718 -0.0000 0.9851
vn -0.2056 -0.0000 0.9786
vn 0.1479 -0.0000 0.9890
vn 0.1263 -0.0000 0.9920
vn 0.1064 -0.0000 0.9943
vn -0.1276 -0.0000 0.9918
vn 0.0876 -0.0000 0.9962
vn 0.0695 -0.0000 0.9976
vn -0.0599 -0.0000 0.9982
vn 0.0520 -0.0000 0.9986
vn 0.0347 -0.0000 0.9994
vn -0.0098 -0.0000 1.0000
vn 0.0174 -0.0000 0.9998
vn -0.0000 -1.0000 -0.0000
vn 0.0003 -1.0000 0.0003
vn 0.0001 -1.0000 0.0006
vn -0.0772 0.0008 -0.9970
vn -0.0016 0.0003 -1.0000
vn -0.6336 -0.0000 0.7737
vn -1.0000 -0.0000 -0.0000
vn -0.0000 -0.0000 -1.0000
vn 1.0000 -0.0000 -0.0000
vn -0.0000 -0.0000 1.0000
vt 0.921875 0.027397
vt 0.921875 0.958904
vt 0.921875 0.945205
vt 0.921875 0.041096
vt 0.921875 0.931507
vt 0.921875 0.068493
vt 0.921875 0.917808
vt 0.921875 0.904110
vt 0.921875 0.082192
vt 0.921875 0.890411
vt 0.921875 0.150685
vt 0.921875 0.506849
vt 0.921875 0.493151
vt 0.921875 0.164384
vt 0.921875 0.465753
vt 0.921875 0.178082
vt 0.921875 0.136986
vt 0.921875 0.520548
vt 0.921875 0.123288
vt 0.921875 0.534247
vt 0.921875 0.109589
vt 0.921875 0.547945
vt 0.921875 0.095890
vt 0.921875 0.561644
vt 0.921875 0.082192
vt 0.921875 0.575342
vt 0.921875 0.068493
vt 0.921875 0.589041
vt 0.921875 0.054795
vt 0.921875 0.602740
vt 0.921875 0.041096
vt 0.921875 0.616438
vt 0.921875 0.027397
vt 0.921875 0.630137
vt 0.921875 -0.000000
vt 0.921875 0.657534
vt 0.921875 0.643836
vt 0.921875 0.301370
vt 0.921875 0.328767
vt 0.921875 0.315068
vt 0.921875 0.287671
vt 0.921875 0.342466
vt 0.921875 0.273973
vt 0.921875 0.356164
vt 0.921875 0.260274
vt 0.921875 0.369863
vt 0.921875 0.246575
vt 0.921875 0.383562
vt 0.921875 0.232877
vt 0.921875 0.397260
vt 0.921875 0.219178
vt 0.921875 0.410959
vt 0.921875 0.205479
vt 0.921875 0.424657
vt 0.921875 0.191781
vt 0.921875 0.438356
vt 0.921875 0.452055
vt 0.921875 0.013699
vt 0.921875 0.479452
vt 0.921875 0.000000
vt 0.921875 0.986301
vt 0.921875 0.972603
vt 0.921875 0.054795
vt 0.921875 0.013699
vt 0.921875 0.095890
vt 0.921875 0.876712
vt 0.921875 0.301370
vt 0.921875 0.671233
vt 0.921875 0.287671
vt 0.921875 0.205480
vt 0.921875 0.342466
vt 0.921875 0.356164
vt 0.921875 0.479452
vt 0.921875 1.000000
vt 0.921875 0.013699
vt 0.921875 0.041096
vt 0.921875 0.054795
vt 0.921875 0.109589
vt 0.921875 0.863014
vt 0.921875 0.123288
vt 0.921875 0.849315
vt 0.921875 0.136986
vt 0.921875 0.150685
vt 0.921875 0.835616
vt 0.921875 0.164384
vt 0.921875 0.821918
vt 0.921875 0.808219
vt 0.921875 0.178082
vt 0.921875 0.191781
vt 0.921875 0.794521
vt 0.921875 0.205479
vt 0.921875 0.219178
vt 0.921875 0.780822
vt 0.921875 0.232877
vt 0.921875 0.493151
vt 0.921875 0.479452
vt 0.921875 0.465753
vt 0.921875 0.246575
vt 0.921875 0.452055
vt 0.921875 0.767123
vt 0.921875 0.438356
vt 0.921875 0.260274
vt 0.921875 0.424658
vt 0.921875 0.410959
vt 0.921875 0.273973
vt 0.921875 0.397260
vt 0.921875 0.383562
vt 0.921875 0.287671
vt 0.921875 0.369863
vt 0.921875 0.753425
vt 0.921875 0.356164
vt 0.921875 0.301370
vt 0.921875 0.342466
vt 0.921875 0.328767
vt 0.921875 0.315069
vt 0.921875 0.739726
vt 0.921875 0.726027
vt 0.921875 0.506849
vt 0.921875 0.712329
vt 0.921875 0.520548
vt 0.921875 0.534247
vt 0.921875 0.698630
vt 0.921875 0.547945
vt 0.921875 0.561644
vt 0.921875 0.575342
vt 0.921875 0.684932
vt 0.921875 0.589041
vt 0.921875 0.602740
vt 0.921875 0.671233
vt 0.921875 0.616438
vt 0.921875 0.630137
vt 0.921875 0.657534
vt 0.921875 0.643836
vt 0.322385 0.383637
vt 0.170694 0.535328
vt 0.170694 0.383637
vt 0.322385 0.535328
vt 0.170694 0.687019
vt 0.322385 0.687019
vt 0.170694 0.838711
vt 0.322385 0.838711
vt 0.170694 0.990402
vt 0.019003 0.838711
vt 0.019003 0.687019
vt 0.474076 0.687019
vt 0.322385 0.990402
vt 0.474076 0.838711
s 1
usemtl マテリアル
f 58/1/1 55/2/1 57/3/1
f 60/4/1 57/3/1 59/5/1
f 64/6/1 61/7/1 63/8/1
f 66/9/1 63/8/1 65/10/1
f 27/11/2 49/12/1 50/13/1
f 25/14/1 46/15/1 23/16/1
f 26/17/1 47/18/1 49/12/1
f 24/19/1 45/20/1 47/18/1
f 22/21/1 43/22/1 45/20/1
f 20/23/1 41/24/1 43/22/1
f 19/25/1 39/26/1 41/24/1
f 17/27/1 37/28/1 39/26/1
f 15/29/1 35/30/1 37/28/1
f 13/31/1 33/32/1 35/30/1
f 10/33/1 31/34/1 33/32/1
f 5/35/1 4/36/1 29/37/1
f 1/38/1 2/39/1 3/40/1
f 7/41/1 28/42/1 1/38/1
f 9/43/3 30/44/1 7/41/1
f 11/45/1 32/46/1 9/43/3
f 12/47/1 34/48/1 11/45/1
f 14/49/1 36/50/1 12/47/1
f 16/51/1 38/52/1 14/49/1
f 18/53/1 40/54/1 16/51/1
f 21/55/1 42/56/1 18/53/1
f 23/16/1 44/57/1 21/55/1
f 8/58/1 29/37/1 31/34/1
f 27/11/2 48/59/1 25/14/1
f 54/60/1 53/61/1 51/62/1
f 62/63/1 59/5/1 61/7/1
f 56/64/1 51/62/1 55/2/1
f 67/65/1 65/10/1 68/66/1
f 200/39/4 3/40/5 2/39/6
f 201/67/7 3/40/5 199/40/5
f 202/68/8 5/35/9 203/35/9
f 204/36/10 6/68/8 202/68/8
f 205/69/11 1/38/7 201/67/7
f 203/35/9 8/58/12 206/58/12
f 207/43/13 7/41/11 205/69/11
f 206/58/12 10/33/14 208/33/14
f 209/45/15 9/43/16 207/43/13
f 210/47/17 11/45/15 209/45/15
f 208/33/14 13/31/18 211/31/18
f 212/49/19 12/47/17 210/47/17
f 211/31/18 15/29/20 213/29/20
f 214/51/21 14/49/19 212/49/19
f 213/29/20 17/27/22 215/27/22
f 216/70/23 16/51/21 214/51/21
f 215/27/22 19/25/24 217/25/24
f 218/23/25 19/25/24 20/23/25
f 219/55/26 18/53/23 216/70/23
f 218/23/25 22/21/27 220/21/27
f 221/16/28 21/55/26 219/55/26
f 220/21/27 24/19/29 222/19/29
f 223/14/30 23/16/28 221/16/28
f 222/19/29 26/17/31 224/17/31
f 225/11/32 25/14/30 223/14/30
f 224/17/31 27/11/33 225/11/32
f 200/39/4 28/42/34 226/71/34
f 227/37/35 4/36/10 204/36/10
f 226/71/34 30/44/36 228/72/36
f 229/34/37 29/37/35 227/37/35
f 228/72/36 32/46/38 230/46/38
f 231/32/39 31/34/37 229/34/37
f 230/46/38 34/48/40 232/48/40
f 233/30/41 33/32/39 231/32/39
f 232/48/40 36/50/42 234/50/42
f 235/28/43 35/30/41 233/30/41
f 236/52/44 36/50/42 38/52/44
f 237/26/45 37/28/43 235/28/43
f 236/52/44 40/54/46 238/54/46
f 239/24/47 39/26/45 237/26/45
f 238/54/46 42/56/48 240/56/48
f 241/22/49 41/24/47 239/24/47
f 240/56/48 44/57/50 242/57/50
f 243/20/51 43/22/49 241/22/49
f 242/57/50 46/15/52 244/15/52
f 245/18/53 45/20/51 243/20/51
f 244/15/52 48/59/54 246/73/54
f 247/12/55 47/18/53 245/18/53
f 248/13/56 49/12/55 247/12/55
f 246/73/54 50/13/56 248/13/56
f 125/61/57 52/74/58 126/74/58
f 125/61/57 51/62/59 53/61/60
f 128/60/61 52/74/58 54/60/61
f 129/2/62 51/62/59 127/62/59
f 128/60/61 56/64/63 130/75/63
f 131/3/64 55/2/62 129/2/62
f 132/1/65 56/64/63 58/1/65
f 131/3/64 59/5/66 57/3/64
f 132/1/65 60/4/67 134/76/67
f 135/7/68 59/5/66 133/5/66
f 134/76/67 62/63/69 136/77/69
f 135/7/68 63/8/70 61/7/68
f 136/77/69 64/6/71 138/6/71
f 139/10/72 63/8/70 137/8/70
f 140/9/73 64/6/71 66/9/73
f 140/9/73 67/65/74 141/65/74
f 139/10/72 68/66/75 65/10/72
f 143/78/76 67/65/74 69/78/76
f 144/79/77 68/66/75 142/66/75
f 143/78/76 71/80/78 145/80/78
f 144/79/77 72/81/79 70/79/77
f 145/80/78 73/82/80 147/82/80
f 147/82/80 74/83/81 148/83/81
f 146/81/79 75/84/82 72/81/79
f 150/85/83 74/83/81 76/85/83
f 151/86/84 75/84/82 149/84/82
f 151/86/84 78/87/85 77/86/84
f 150/85/83 79/88/86 153/88/86
f 153/88/86 80/89/87 154/89/87
f 152/87/85 81/90/88 78/87/85
f 154/89/87 82/91/89 156/91/89
f 157/92/90 82/91/89 83/92/90
f 158/93/91 81/90/88 155/90/88
f 159/94/92 83/92/90 85/94/92
f 161/95/93 88/96/94 87/95/93
f 162/97/95 88/96/94 160/96/94
f 159/94/92 89/98/96 163/98/96
f 162/97/95 90/99/97 86/97/95
f 158/93/91 91/100/98 84/93/91
f 164/99/97 92/101/99 90/99/97
f 163/98/96 93/102/100 167/102/100
f 168/103/101 92/101/99 166/101/99
f 168/103/101 95/104/102 94/103/101
f 167/102/100 96/105/103 170/105/103
f 169/104/102 97/106/104 95/104/102
f 171/106/104 98/107/105 97/106/104
f 170/105/103 99/108/106 173/108/106
f 174/109/107 98/107/105 172/107/105
f 175/110/108 91/100/98 165/100/98
f 176/111/109 100/109/107 174/109/107
f 173/108/106 103/112/110 177/112/110
f 178/113/111 102/111/109 176/111/109
f 179/114/112 104/113/111 178/113/111
f 177/112/110 106/115/113 180/115/113
f 180/115/113 105/114/112 179/114/112
f 181/116/114 101/110/108 175/110/108
f 182/117/115 107/116/114 181/116/114
f 161/95/93 109/118/116 183/118/116
f 184/119/117 108/117/115 182/117/115
f 183/118/116 111/120/118 185/120/118
f 186/121/119 111/120/118 112/121/119
f 187/122/120 110/119/117 184/119/117
f 186/121/119 114/123/121 188/123/121
f 188/123/121 115/124/122 189/124/122
f 190/125/123 115/124/122 116/125/123
f 191/126/124 113/122/120 187/122/120
f 192/127/125 116/125/123 118/127/125
f 192/127/125 119/128/126 193/128/126
f 194/129/127 117/126/124 191/126/124
f 193/128/126 121/130/128 195/130/128
f 195/130/128 122/131/129 196/131/129
f 197/132/130 120/129/127 194/129/127
f 198/133/131 123/132/130 197/132/130
f 196/131/129 124/133/131 198/133/131
f 69/78/1 68/66/1 70/79/1
f 71/80/1 70/79/1 72/81/1
f 73/82/1 72/81/1 75/84/1
f 74/83/1 75/84/1 77/86/1
f 76/85/1 77/86/1 78/87/1
f 79/88/1 78/87/1 81/90/1
f 80/89/1 81/90/1 84/93/1
f 91/100/1 80/89/1 84/93/1
f 101/110/1 82/91/1 91/100/1
f 107/116/1 83/92/1 101/110/1
f 108/117/1 85/94/1 107/116/1
f 110/119/1 89/98/1 108/117/1
f 113/122/1 93/102/1 110/119/1
f 117/126/1 96/105/1 113/122/1
f 120/129/1 99/108/1 117/126/1
f 123/132/1 103/112/1 120/129/1
f 105/114/1 123/132/1 124/133/1
f 104/113/1 124/133/1 122/131/1
f 102/111/1 122/131/1 121/130/1
f 119/128/1 102/111/1 121/130/1
f 118/127/1 100/109/1 119/128/1
f 116/125/1 98/107/1 118/127/1
f 115/124/1 97/106/1 116/125/1
f 114/123/1 95/104/1 115/124/1
f 112/121/1 94/103/1 114/123/1
f 111/120/1 92/101/1 112/121/1
f 109/118/1 90/99/1 111/120/1
f 87/95/1 86/97/1 109/118/1
f 303/2/132 306/1/132 305/3/132
f 305/3/132 308/4/132 307/5/132
f 309/7/132 312/6/132 311/8/132
f 311/8/132 314/9/132 313/10/132
f 275/11/133 297/12/132 274/17/132
f 294/15/132 273/14/132 271/16/132
f 274/17/132 295/18/132 272/19/132
f 272/19/132 293/20/132 270/21/132
f 270/21/132 291/22/132 268/23/132
f 268/23/132 289/24/132 267/25/132
f 267/25/132 287/26/132 265/27/132
f 265/27/132 285/28/132 263/29/132
f 263/29/132 283/30/132 261/31/132
f 261/31/132 281/32/132 258/33/132
f 258/33/132 279/34/132 256/58/132
f 253/35/132 252/36/132 254/68/132
f 250/39/132 249/38/132 251/40/132
f 276/42/132 255/41/132 249/38/132
f 278/44/132 257/43/134 255/41/132
f 280/46/132 259/45/132 257/43/134
f 282/48/132 260/47/132 259/45/132
f 284/50/132 262/49/132 260/47/132
f 286/52/132 264/51/132 262/49/132
f 288/54/132 266/53/132 264/51/132
f 290/56/132 269/55/132 266/53/132
f 292/57/132 271/16/132 269/55/132
f 256/58/132 277/37/132 253/35/132
f 296/59/132 275/11/133 273/14/132
f 301/61/132 302/60/132 299/62/132
f 307/5/132 310/63/132 309/7/132
f 299/62/132 304/64/132 303/2/132
f 313/10/132 315/65/132 316/66/132
f 200/39/4 251/40/5 199/40/5
f 251/40/5 201/67/7 199/40/5
f 253/35/9 202/68/8 203/35/9
f 254/68/8 204/36/10 202/68/8
f 249/38/7 205/69/11 201/67/7
f 256/58/12 203/35/9 206/58/12
f 255/41/11 207/43/13 205/69/11
f 258/33/14 206/58/12 208/33/14
f 257/43/135 209/45/15 207/43/13
f 259/45/15 210/47/17 209/45/15
f 261/31/18 208/33/14 211/31/18
f 260/47/17 212/49/19 210/47/17
f 263/29/20 211/31/18 213/29/20
f 212/49/19 264/51/21 214/51/21
f 265/27/22 213/29/20 215/27/22
f 214/51/21 266/53/23 216/70/23
f 267/25/24 215/27/22 217/25/24
f 268/23/25 217/25/24 218/23/25
f 266/53/23 219/55/26 216/70/23
f 270/21/27 218/23/25 220/21/27
f 269/55/26 221/16/28 219/55/26
f 272/19/29 220/21/27 222/19/29
f 271/16/28 223/14/30 221/16/28
f 274/17/31 222/19/29 224/17/31
f 273/14/30 225/11/32 223/14/30
f 275/11/136 224/17/31 225/11/32
f 276/42/34 200/39/4 226/71/34
f 252/36/10 227/37/35 204/36/10
f 278/44/36 226/71/34 228/72/36
f 277/37/35 229/34/37 227/37/35
f 280/46/38 228/72/36 230/46/38
f 279/34/37 231/32/39 229/34/37
f 282/48/40 230/46/38 232/48/40
f 281/32/39 233/30/41 231/32/39
f 234/50/42 282/48/40 232/48/40
f 233/30/41 285/28/43 235/28/43
f 286/52/44 234/50/42 236/52/44
f 285/28/43 237/26/45 235/28/43
f 238/54/46 286/52/44 236/52/44
f 287/26/45 239/24/47 237/26/45
f 240/56/48 288/54/46 238/54/46
f 289/24/47 241/22/49 239/24/47
f 242/57/50 290/56/48 240/56/48
f 291/22/49 243/20/51 241/22/49
f 244/15/52 292/57/50 242/57/50
f 293/20/51 245/18/53 243/20/51
f 296/59/54 244/15/52 246/73/54
f 295/18/53 247/12/55 245/18/53
f 297/12/55 248/13/56 247/12/55
f 298/13/56 246/73/54 248/13/56
f 126/74/58 301/61/57 125/61/57
f 301/61/57 127/62/59 125/61/57
f 302/60/61 126/74/58 128/60/61
f 299/62/59 129/2/62 127/62/59
f 130/75/63 302/60/61 128/60/61
f 129/2/62 305/3/64 131/3/64
f 306/1/65 130/75/63 132/1/65
f 305/3/64 133/5/66 131/3/64
f 308/4/67 132/1/65 134/76/67
f 133/5/66 309/7/68 135/7/68
f 136/77/69 308/4/67 134/76/67
f 309/7/68 137/8/70 135/7/68
f 312/6/71 136/77/69 138/6/71
f 311/8/70 139/10/72 137/8/70
f 140/9/73 312/6/71 138/6/71
f 141/65/74 314/9/73 140/9/73
f 313/10/72 142/66/75 139/10/72
f 317/78/76 141/65/74 143/78/76
f 316/66/75 144/79/77 142/66/75
f 145/80/78 317/78/76 143/78/76
f 318/79/77 146/81/79 144/79/77
f 321/82/80 145/80/78 147/82/80
f 148/83/81 321/82/80 147/82/80
f 146/81/79 323/84/82 149/84/82
f 324/85/83 148/83/81 150/85/83
f 149/84/82 325/86/84 151/86/84
f 325/86/84 152/87/85 151/86/84
f 153/88/86 324/85/83 150/85/83
f 154/89/87 327/88/86 153/88/86
f 326/87/85 155/90/88 152/87/85
f 156/91/89 328/89/87 154/89/87
f 331/92/90 156/91/89 157/92/90
f 329/90/88 158/93/91 155/90/88
f 333/94/92 157/92/90 159/94/92
f 335/95/93 160/96/94 161/95/93
f 160/96/94 334/97/95 162/97/95
f 163/98/96 333/94/92 159/94/92
f 334/97/95 164/99/97 162/97/95
f 332/93/91 165/100/98 158/93/91
f 338/99/97 166/101/99 164/99/97
f 341/102/100 163/98/96 167/102/100
f 166/101/99 342/103/101 168/103/101
f 342/103/101 169/104/102 168/103/101
f 170/105/103 341/102/100 167/102/100
f 343/104/102 171/106/104 169/104/102
f 345/106/104 172/107/105 171/106/104
f 347/108/106 170/105/103 173/108/106
f 172/107/105 348/109/107 174/109/107
f 165/100/98 349/110/137 175/110/108
f 348/109/107 176/111/109 174/109/107
f 177/112/110 347/108/106 173/108/106
f 350/111/109 178/113/111 176/111/109
f 352/113/111 179/114/112 178/113/111
f 354/115/113 177/112/110 180/115/113
f 353/114/112 180/115/113 179/114/112
f 175/110/108 355/116/114 181/116/114
f 181/116/114 356/117/115 182/117/115
f 357/118/116 161/95/93 183/118/116
f 182/117/115 358/119/117 184/119/117
f 359/120/118 183/118/116 185/120/118
f 360/121/119 185/120/118 186/121/119
f 358/119/117 187/122/120 184/119/117
f 362/123/121 186/121/119 188/123/121
f 363/124/122 188/123/121 189/124/122
f 364/125/123 189/124/122 190/125/123
f 187/122/120 365/126/124 191/126/124
f 366/127/125 190/125/123 192/127/125
f 367/128/126 192/127/125 193/128/126
f 365/126/124 194/129/127 191/126/124
f 369/130/128 193/128/126 195/130/128
f 370/131/129 195/130/128 196/131/129
f 368/129/127 197/132/130 194/129/127
f 371/132/130 198/133/131 197/132/130
f 372/133/131 196/131/129 198/133/131
f 316/66/132 317/78/132 318/79/132
f 318/79/132 319/80/132 320/81/132
f 320/81/132 321/82/132 323/84/132
f 323/84/132 322/83/132 325/86/132
f 325/86/132 324/85/132 326/87/132
f 326/87/132 327/88/132 329/90/132
f 329/90/132 328/89/132 332/93/132
f 339/100/132 328/89/132 330/91/132
f 349/110/132 330/91/132 331/92/132
f 355/116/132 331/92/132 333/94/132
f 356/117/132 333/94/132 337/98/132
f 358/119/132 337/98/132 341/102/132
f 361/122/132 341/102/132 344/105/132
f 365/126/132 344/105/132 347/108/132
f 368/129/132 347/108/132 351/112/132
f 371/132/132 351/112/132 354/115/132
f 371/132/132 353/114/132 372/133/132
f 372/133/132 352/113/132 370/131/132
f 370/131/132 350/111/132 369/130/132
f 367/128/132 350/111/132 348/109/132
f 366/127/132 348/109/132 346/107/132
f 364/125/132 346/107/132 345/106/132
f 363/124/132 345/106/132 343/104/132
f 362/123/132 343/104/132 342/103/132
f 360/121/132 342/103/132 340/101/132
f 359/120/132 340/101/132 338/99/132
f 357/118/132 338/99/132 334/97/132
f 335/95/132 334/97/132 336/96/132
s 0
f 374/134/138 375/135/138 373/136/138
f 376/137/139 379/138/139 375/135/139
f 380/139/140 377/140/140 379/138/140
f 378/141/141 373/142/141 377/140/141
f 379/138/132 373/143/132 375/144/132
f 376/145/1 378/141/1 380/139/1
f 382/134/138 383/135/138 381/136/138
f 384/137/139 387/138/139 383/135/139
f 388/139/140 385/140/140 387/138/140
f 386/141/141 381/142/141 385/140/141
f 387/138/132 381/143/132 383/144/132
f 384/145/1 386/141/1 388/139/1
s 1
f 58/1/1 56/64/1 55/2/1
f 60/4/1 58/1/1 57/3/1
f 64/6/1 62/63/1 61/7/1
f 66/9/1 64/6/1 63/8/1
f 27/11/2 26/17/1 49/12/1
f 25/14/1 48/59/1 46/15/1
f 26/17/1 24/19/1 47/18/1
f 24/19/1 22/21/1 45/20/1
f 22/21/1 20/23/1 43/22/1
f 20/23/1 19/25/1 41/24/1
f 19/25/1 17/27/1 39/26/1
f 17/27/1 15/29/1 37/28/1
f 15/29/1 13/31/1 35/30/1
f 13/31/1 10/33/1 33/32/1
f 10/33/1 8/58/1 31/34/1
f 5/35/1 6/68/1 4/36/1
f 1/38/1 28/42/1 2/39/1
f 7/41/1 30/44/1 28/42/1
f 9/43/3 32/46/1 30/44/1
f 11/45/1 34/48/1 32/46/1
f 12/47/1 36/50/1 34/48/1
f 14/49/1 38/52/1 36/50/1
f 16/51/1 40/54/1 38/52/1
f 18/53/1 42/56/1 40/54/1
f 21/55/1 44/57/1 42/56/1
f 23/16/1 46/15/1 44/57/1
f 8/58/1 5/35/1 29/37/1
f 27/11/2 50/13/1 48/59/1
f 54/60/1 52/74/1 53/61/1
f 62/63/1 60/4/1 59/5/1
f 56/64/1 54/60/1 51/62/1
f 67/65/1 66/9/1 65/10/1
f 200/39/4 199/40/5 3/40/5
f 201/67/7 1/38/7 3/40/5
f 202/68/8 6/68/8 5/35/9
f 204/36/10 4/36/10 6/68/8
f 205/69/11 7/41/11 1/38/7
f 203/35/9 5/35/9 8/58/12
f 207/43/13 9/43/16 7/41/11
f 206/58/12 8/58/12 10/33/14
f 209/45/15 11/45/15 9/43/16
f 210/47/17 12/47/17 11/45/15
f 208/33/14 10/33/14 13/31/18
f 212/49/19 14/49/19 12/47/17
f 211/31/18 13/31/18 15/29/20
f 214/51/21 16/51/21 14/49/19
f 213/29/20 15/29/20 17/27/22
f 216/70/23 18/53/23 16/51/21
f 215/27/22 17/27/22 19/25/24
f 218/23/25 217/25/24 19/25/24
f 219/55/26 21/55/26 18/53/23
f 218/23/25 20/23/25 22/21/27
f 221/16/28 23/16/28 21/55/26
f 220/21/27 22/21/27 24/19/29
f 223/14/30 25/14/30 23/16/28
f 222/19/29 24/19/29 26/17/31
f 225/11/32 27/11/33 25/14/30
f 224/17/31 26/17/31 27/11/33
f 200/39/4 2/39/6 28/42/34
f 227/37/35 29/37/35 4/36/10
f 226/71/34 28/42/34 30/44/36
f 229/34/37 31/34/37 29/37/35
f 228/72/36 30/44/36 32/46/38
f 231/32/39 33/32/39 31/34/37
f 230/46/38 32/46/38 34/48/40
f 233/30/41 35/30/41 33/32/39
f 232/48/40 34/48/40 36/50/42
f 235/28/43 37/28/43 35/30/41
f 236/52/44 234/50/42 36/50/42
f 237/26/45 39/26/45 37/28/43
f 236/52/44 38/52/44 40/54/46
f 239/24/47 41/24/47 39/26/45
f 238/54/46 40/54/46 42/56/48
f 241/22/49 43/22/49 41/24/47
f 240/56/48 42/56/48 44/57/50
f 243/20/51 45/20/51 43/22/49
f 242/57/50 44/57/50 46/15/52
f 245/18/53 47/18/53 45/20/51
f 244/15/52 46/15/52 48/59/54
f 247/12/55 49/12/55 47/18/53
f 248/13/56 50/13/56 49/12/55
f 246/73/54 48/59/54 50/13/56
f 125/61/57 53/61/60 52/74/58
f 125/61/57 127/62/59 51/62/59
f 128/60/61 126/74/58 52/74/58
f 129/2/62 55/2/62 51/62/59
f 128/60/61 54/60/61 56/64/63
f 131/3/64 57/3/64 55/2/62
f 132/1/65 130/75/63 56/64/63
f 131/3/64 133/5/66 59/5/66
f 132/1/65 58/1/65 60/4/67
f 135/7/68 61/7/68 59/5/66
f 134/76/67 60/4/67 62/63/69
f 135/7/68 137/8/70 63/8/70
f 136/77/69 62/63/69 64/6/71
f 139/10/72 65/10/72 63/8/70
f 140/9/73 138/6/71 64/6/71
f 140/9/73 66/9/73 67/65/74
f 139/10/72 142/66/75 68/66/75
f 143/78/76 141/65/74 67/65/74
f 144/79/77 70/79/77 68/66/75
f 143/78/76 69/78/76 71/80/78
f 144/79/77 146/81/79 72/81/79
f 145/80/78 71/80/78 73/82/80
f 147/82/80 73/82/80 74/83/81
f 146/81/79 149/84/82 75/84/82
f 150/85/83 148/83/81 74/83/81
f 151/86/84 77/86/84 75/84/82
f 151/86/84 152/87/85 78/87/85
f 150/85/83 76/85/83 79/88/86
f 153/88/86 79/88/86 80/89/87
f 152/87/85 155/90/88 81/90/88
f 154/89/87 80/89/87 82/91/89
f 157/92/90 156/91/89 82/91/89
f 158/93/91 84/93/91 81/90/88
f 159/94/92 157/92/90 83/92/90
f 161/95/93 160/96/94 88/96/94
f 162/97/95 86/97/95 88/96/94
f 159/94/92 85/94/92 89/98/96
f 162/97/95 164/99/97 90/99/97
f 158/93/91 165/100/98 91/100/98
f 164/99/97 166/101/99 92/101/99
f 163/98/96 89/98/96 93/102/100
f 168/103/101 94/103/101 92/101/99
f 168/103/101 169/104/102 95/104/102
f 167/102/100 93/102/100 96/105/103
f 169/104/102 171/106/104 97/106/104
f 171/106/104 172/107/105 98/107/105
f 170/105/103 96/105/103 99/108/106
f 174/109/107 100/109/107 98/107/105
f 175/110/108 101/110/108 91/100/98
f 176/111/109 102/111/109 100/109/107
f 173/108/106 99/108/106 103/112/110
f 178/113/111 104/113/111 102/111/109
f 179/114/112 105/114/112 104/113/111
f 177/112/110 103/112/110 106/115/113
f 180/115/113 106/115/113 105/114/112
f 181/116/114 107/116/114 101/110/108
f 182/117/115 108/117/115 107/116/114
f 161/95/93 87/95/93 109/118/116
f 184/119/117 110/119/117 108/117/115
f 183/118/116 109/118/116 111/120/118
f 186/121/119 185/120/118 111/120/118
f 187/122/120 113/122/120 110/119/117
f 186/121/119 112/121/119 114/123/121
f 188/123/121 114/123/121 115/124/122
f 190/125/123 189/124/122 115/124/122
f 191/126/124 117/126/124 113/122/120
f 192/127/125 190/125/123 116/125/123
f 192/127/125 118/127/125 119/128/126
f 194/129/127 120/129/127 117/126/124
f 193/128/126 119/128/126 121/130/128
f 195/130/128 121/130/128 122/131/129
f 197/132/130 123/132/130 120/129/127
f 198/133/131 124/133/131 123/132/130
f 196/131/129 122/131/129 124/133/131
f 69/78/1 67/65/1 68/66/1
f 71/80/1 69/78/1 70/79/1
f 73/82/1 71/80/1 72/81/1
f 74/83/1 73/82/1 75/84/1
f 76/85/1 74/83/1 77/86/1
f 79/88/1 76/85/1 78/87/1
f 80/89/1 79/88/1 81/90/1
f 91/100/1 82/91/1 80/89/1
f 101/110/1 83/92/1 82/91/1
f 107/116/1 85/94/1 83/92/1
f 108/117/1 89/98/1 85/94/1
f 110/119/1 93/102/1 89/98/1
f 113/122/1 96/105/1 93/102/1
f 117/126/1 99/108/1 96/105/1
f 120/129/1 103/112/1 99/108/1
f 123/132/1 106/115/1 103/112/1
f 105/114/1 106/115/1 123/132/1
f 104/113/1 105/114/1 124/133/1
f 102/111/1 104/113/1 122/131/1
f 119/128/1 100/109/1 102/111/1
f 118/127/1 98/107/1 100/109/1
f 116/125/1 97/106/1 98/107/1
f 115/124/1 95/104/1 97/106/1
f 114/123/1 94/103/1 95/104/1
f 112/121/1 92/101/1 94/103/1
f 111/120/1 90/99/1 92/101/1
f 109/118/1 86/97/1 90/99/1
f 87/95/1 88/96/1 86/97/1
f 303/2/132 304/64/132 306/1/132
f 305/3/132 306/1/132 308/4/132
f 309/7/132 310/63/132 312/6/132
f 311/8/132 312/6/132 314/9/132
f 275/11/133 298/13/132 297/12/132
f 294/15/132 296/59/132 273/14/132
f 274/17/132 297/12/132 295/18/132
f 272/19/132 295/18/132 293/20/132
f 270/21/132 293/20/132 291/22/132
f 268/23/132 291/22/132 289/24/132
f 267/25/132 289/24/132 287/26/132
f 265/27/132 287/26/132 285/28/132
f 263/29/132 285/28/132 283/30/132
f 261/31/132 283/30/132 281/32/132
f 258/33/132 281/32/132 279/34/132
f 253/35/132 277/37/132 252/36/132
f 250/39/132 276/42/132 249/38/132
f 276/42/132 278/44/132 255/41/132
f 278/44/132 280/46/132 257/43/134
f 280/46/132 282/48/132 259/45/132
f 282/48/132 284/50/132 260/47/132
f 284/50/132 286/52/132 262/49/132
f 286/52/132 288/54/132 264/51/132
f 288/54/132 290/56/132 266/53/132
f 290/56/132 292/57/132 269/55/132
f 292/57/132 294/15/132 271/16/132
f 256/58/132 279/34/132 277/37/132
f 296/59/132 298/13/132 275/11/133
f 301/61/132 300/74/132 302/60/132
f 307/5/132 308/4/132 310/63/132
f 299/62/132 302/60/132 304/64/132
f 313/10/132 314/9/132 315/65/132
f 200/39/4 250/39/6 251/40/5
f 251/40/5 249/38/7 201/67/7
f 253/35/9 254/68/8 202/68/8
f 254/68/8 252/36/10 204/36/10
f 249/38/7 255/41/11 205/69/11
f 256/58/12 253/35/9 203/35/9
f 255/41/11 257/43/135 207/43/13
f 258/33/14 256/58/12 206/58/12
f 257/43/135 259/45/15 209/45/15
f 259/45/15 260/47/17 210/47/17
f 261/31/18 258/33/14 208/33/14
f 260/47/17 262/49/19 212/49/19
f 263/29/20 261/31/18 211/31/18
f 212/49/19 262/49/19 264/51/21
f 265/27/22 263/29/20 213/29/20
f 214/51/21 264/51/21 266/53/23
f 267/25/24 265/27/22 215/27/22
f 268/23/25 267/25/24 217/25/24
f 266/53/23 269/55/26 219/55/26
f 270/21/27 268/23/25 218/23/25
f 269/55/26 271/16/28 221/16/28
f 272/19/29 270/21/27 220/21/27
f 271/16/28 273/14/30 223/14/30
f 274/17/31 272/19/29 222/19/29
f 273/14/30 275/11/136 225/11/32
f 275/11/136 274/17/31 224/17/31
f 276/42/34 250/39/6 200/39/4
f 252/36/10 277/37/35 227/37/35
f 278/44/36 276/42/34 226/71/34
f 277/37/35 279/34/37 229/34/37
f 280/46/38 278/44/36 228/72/36
f 279/34/37 281/32/39 231/32/39
f 282/48/40 280/46/38 230/46/38
f 281/32/39 283/30/41 233/30/41
f 234/50/42 284/50/42 282/48/40
f 233/30/41 283/30/41 285/28/43
f 286/52/44 284/50/42 234/50/42
f 285/28/43 287/26/45 237/26/45
f 238/54/46 288/54/46 286/52/44
f 287/26/45 289/24/47 239/24/47
f 240/56/48 290/56/48 288/54/46
f 289/24/47 291/22/49 241/22/49
f 242/57/50 292/57/50 290/56/48
f 291/22/49 293/20/51 243/20/51
f 244/15/52 294/15/52 292/57/50
f 293/20/51 295/18/53 245/18/53
f 296/59/54 294/15/52 244/15/52
f 295/18/53 297/12/55 247/12/55
f 297/12/55 298/13/56 248/13/56
f 298/13/56 296/59/54 246/73/54
f 126/74/58 300/74/58 301/61/57
f 301/61/57 299/62/59 127/62/59
f 302/60/61 300/74/58 126/74/58
f 299/62/59 303/2/62 129/2/62
f 130/75/63 304/64/63 302/60/61
f 129/2/62 303/2/62 305/3/64
f 306/1/65 304/64/63 130/75/63
f 305/3/64 307/5/66 133/5/66
f 308/4/67 306/1/65 132/1/65
f 133/5/66 307/5/66 309/7/68
f 136/77/69 310/63/69 308/4/67
f 309/7/68 311/8/70 137/8/70
f 312/6/71 310/63/69 136/77/69
f 311/8/70 313/10/72 139/10/72
f 140/9/73 314/9/73 312/6/71
f 141/65/74 315/65/74 314/9/73
f 313/10/72 316/66/75 142/66/75
f 317/78/76 315/65/74 141/65/74
f 316/66/75 318/79/77 144/79/77
f 145/80/78 319/80/78 317/78/76
f 318/79/77 320/81/79 146/81/79
f 321/82/80 319/80/78 145/80/78
f 148/83/81 322/83/81 321/82/80
f 146/81/79 320/81/79 323/84/82
f 324/85/83 322/83/81 148/83/81
f 149/84/82 323/84/82 325/86/84
f 325/86/84 326/87/85 152/87/85
f 153/88/86 327/88/86 324/85/83
f 154/89/87 328/89/87 327/88/86
f 326/87/85 329/90/88 155/90/88
f 156/91/89 330/91/89 328/89/87
f 331/92/90 330/91/89 156/91/89
f 329/90/88 332/93/91 158/93/91
f 333/94/92 331/92/90 157/92/90
f 335/95/93 336/96/94 160/96/94
f 160/96/94 336/96/94 334/97/95
f 163/98/96 337/98/96 333/94/92
f 334/97/95 338/99/97 164/99/97
f 332/93/91 339/100/98 165/100/98
f 338/99/97 340/101/99 166/101/99
f 341/102/100 337/98/96 163/98/96
f 166/101/99 340/101/99 342/103/101
f 342/103/101 343/104/102 169/104/102
f 170/105/103 344/105/103 341/102/100
f 343/104/102 345/106/104 171/106/104
f 345/106/104 346/107/105 172/107/105
f 347/108/106 344/105/103 170/105/103
f 172/107/105 346/107/105 348/109/107
f 165/100/98 339/100/98 349/110/137
f 348/109/107 350/111/109 176/111/109
f 177/112/110 351/112/110 347/108/106
f 350/111/109 352/113/111 178/113/111
f 352/113/111 353/114/112 179/114/112
f 354/115/113 351/112/110 177/112/110
f 353/114/112 354/115/113 180/115/113
f 175/110/108 349/110/137 355/116/114
f 181/116/114 355/116/114 356/117/115
f 357/118/116 335/95/93 161/95/93
f 182/117/115 356/117/115 358/119/117
f 359/120/118 357/118/116 183/118/116
f 360/121/119 359/120/118 185/120/118
f 358/119/117 361/122/120 187/122/120
f 362/123/121 360/121/119 186/121/119
f 363/124/122 362/123/121 188/123/121
f 364/125/123 363/124/122 189/124/122
f 187/122/120 361/122/120 365/126/124
f 366/127/125 364/125/123 190/125/123
f 367/128/126 366/127/125 192/127/125
f 365/126/124 368/129/127 194/129/127
f 369/130/128 367/128/126 193/128/126
f 370/131/129 369/130/128 195/130/128
f 368/129/127 371/132/130 197/132/130
f 371/132/130 372/133/131 198/133/131
f 372/133/131 370/131/129 196/131/129
f 316/66/132 315/65/132 317/78/132
f 318/79/132 317/78/132 319/80/132
f 320/81/132 319/80/132 321/82/132
f 323/84/132 321/82/132 322/83/132
f 325/86/132 322/83/132 324/85/132
f 326/87/132 324/85/132 327/88/132
f 329/90/132 327/88/132 328/89/132
f 339/100/132 332/93/132 328/89/132
f 349/110/132 339/100/132 330/91/132
f 355/116/132 349/110/132 331/92/132
f 356/117/132 355/116/132 333/94/132
f 358/119/132 356/117/132 337/98/132
f 361/122/132 358/119/132 341/102/132
f 365/126/132 361/122/132 344/105/132
f 368/129/132 365/126/132 347/108/132
f 371/132/132 368/129/132 351/112/132
f 371/132/132 354/115/132 353/114/132
f 372/133/132 353/114/132 352/113/132
f 370/131/132 352/113/132 350/111/132
f 367/128/132 369/130/132 350/111/132
f 366/127/132 367/128/132 348/109/132
f 364/125/132 366/127/132 346/107/132
f 363/124/132 364/125/132 345/106/132
f 362/123/132 363/124/132 343/104/132
f 360/121/132 362/123/132 342/103/132
f 359/120/132 360/121/132 340/101/132
f 357/118/132 359/120/132 338/99/132
f 335/95/132 357/118/132 334/97/132
s 0
f 374/134/138 376/137/138 375/135/138
f 376/137/139 380/139/139 379/138/139
f 380/139/140 378/141/140 377/140/140
f 378/141/141 374/146/141 373/142/141
f 379/138/132 377/140/132 373/143/132
f 376/145/1 374/147/1 378/141/1
f 382/134/138 384/137/138 383/135/138
f 384/137/139 388/139/139 387/138/139
f 388/139/140 386/141/140 385/140/140
f 386/141/141 382/146/141 381/142/141
f 387/138/132 385/140/132 381/143/132
f 384/145/1 382/147/1 386/141/1
