# Blender 4.4.1
# www.blender.org
mtllib Title_Ice11.mtl
o 11.ス
v 0.450679 0.000000 -0.468942
v 0.362958 0.000000 -0.536022
v 0.355724 0.000000 -0.533944
v 0.347789 0.000000 -0.532016
v 0.339174 0.000000 -0.530244
v 0.329896 0.000000 -0.528632
v 0.319974 0.000000 -0.527188
v 0.309425 0.000000 -0.525917
v 0.298265 0.000000 -0.524825
v 0.286514 0.000000 -0.523918
v 0.274190 0.000000 -0.523202
v 0.261312 0.000000 -0.522684
v 0.247895 0.000000 -0.522368
v 0.233958 0.000000 -0.522262
v 0.208841 0.000000 -0.522262
v 0.167461 0.000000 -0.522262
v 0.113050 0.000000 -0.522262
v 0.048837 0.000000 -0.522262
v -0.021945 0.000000 -0.522262
v -0.096064 0.000000 -0.522262
v -0.170293 0.000000 -0.522262
v -0.241397 0.000000 -0.522262
v -0.306147 0.000000 -0.522262
v -0.361312 0.000000 -0.522262
v -0.403661 0.000000 -0.522262
v -0.429961 0.000000 -0.522262
v -0.443759 0.000000 -0.522399
v -0.459073 0.000000 -0.522787
v -0.475486 0.000000 -0.523390
v -0.492579 0.000000 -0.524173
v -0.509936 0.000000 -0.525098
v -0.527138 0.000000 -0.526132
v -0.543767 0.000000 -0.527236
v -0.559403 0.000000 -0.528377
v -0.573630 0.000000 -0.529518
v -0.586030 0.000000 -0.530623
v -0.596184 0.000000 -0.531656
v -0.603680 0.000000 -0.532582
v -0.603680 0.000000 -0.376062
v -0.597438 0.000000 -0.376592
v -0.588423 0.000000 -0.377296
v -0.577021 0.000000 -0.378131
v -0.563613 0.000000 -0.379056
v -0.548579 0.000000 -0.380028
v -0.532304 0.000000 -0.381007
v -0.515168 0.000000 -0.381949
v -0.497554 0.000000 -0.382814
v -0.479844 0.000000 -0.383560
v -0.462420 0.000000 -0.384144
v -0.445666 0.000000 -0.384525
v -0.429961 0.000000 -0.384662
v -0.405299 0.000000 -0.384662
v -0.363669 0.000000 -0.384662
v -0.308459 0.000000 -0.384662
v -0.243054 0.000000 -0.384662
v -0.170840 0.000000 -0.384662
v -0.095204 0.000000 -0.384662
v -0.019532 0.000000 -0.384662
v 0.052789 0.000000 -0.384662
v 0.118373 0.000000 -0.384662
v 0.173835 0.000000 -0.384662
v 0.215787 0.000000 -0.384662
v 0.240840 0.000000 -0.384662
v 0.228423 0.000000 -0.347793
v 0.212882 0.000000 -0.308870
v 0.194534 0.000000 -0.268346
v 0.173696 0.000000 -0.226676
v 0.150684 0.000000 -0.184313
v 0.125814 0.000000 -0.141711
v 0.099403 0.000000 -0.099325
v 0.071769 0.000000 -0.057607
v 0.043227 0.000000 -0.017011
v 0.014095 0.000000 0.022007
v -0.015313 0.000000 0.058995
v -0.044680 0.000000 0.093498
v -0.090550 0.000000 0.143032
v -0.139455 0.000000 0.192494
v -0.191203 0.000000 0.241526
v -0.245602 0.000000 0.289770
v -0.302462 0.000000 0.336867
v -0.361592 0.000000 0.382458
v -0.422799 0.000000 0.426187
v -0.485894 0.000000 0.467694
v -0.550685 0.000000 0.506621
v -0.616980 0.000000 0.542610
v -0.684590 0.000000 0.575302
v -0.753320 0.000000 0.604338
v -0.643241 0.000000 0.719579
v -0.580081 0.000000 0.689265
v -0.517943 0.000000 0.656098
v -0.456916 0.000000 0.620302
v -0.397090 0.000000 0.582106
v -0.338553 0.000000 0.541736
v -0.281396 0.000000 0.499418
v -0.225707 0.000000 0.455381
v -0.171578 0.000000 0.409851
v -0.119097 0.000000 0.363055
v -0.068354 0.000000 0.315219
v -0.019439 0.000000 0.266572
v 0.027559 0.000000 0.217339
v 0.071519 0.000000 0.257346
v 0.115510 0.000000 0.298895
v 0.159274 0.000000 0.341662
v 0.202554 0.000000 0.385325
v 0.245094 0.000000 0.429561
v 0.286636 0.000000 0.474048
v 0.326923 0.000000 0.518464
v 0.365699 0.000000 0.562485
v 0.402707 0.000000 0.605790
v 0.437692 0.000000 0.648055
v 0.470395 0.000000 0.688959
v 0.500560 0.000000 0.728179
v 0.620960 0.000000 0.624978
v 0.591041 0.000000 0.589272
v 0.557479 0.000000 0.550453
v 0.520717 0.000000 0.509067
v 0.481195 0.000000 0.465656
v 0.439355 0.000000 0.420763
v 0.395641 0.000000 0.374934
v 0.350494 0.000000 0.328710
v 0.304355 0.000000 0.282635
v 0.257667 0.000000 0.237253
v 0.210870 0.000000 0.193107
v 0.164409 0.000000 0.150741
v 0.118720 0.000000 0.110698
v 0.148942 0.000000 0.071089
v 0.178466 0.000000 0.029890
v 0.207166 0.000000 -0.012550
v 0.234916 0.000000 -0.055887
v 0.261590 0.000000 -0.099773
v 0.287065 0.000000 -0.143862
v 0.311214 0.000000 -0.187807
v 0.333911 0.000000 -0.231263
v 0.355031 0.000000 -0.273883
v 0.374450 0.000000 -0.315320
v 0.392041 0.000000 -0.355229
v 0.407678 0.000000 -0.393262
v 0.410495 0.000000 -0.399546
v 0.413730 0.000000 -0.406273
v 0.417299 0.000000 -0.413310
v 0.421119 0.000000 -0.420527
v 0.425107 0.000000 -0.427791
v 0.429177 0.000000 -0.434972
v 0.433248 0.000000 -0.441937
v 0.437236 0.000000 -0.448557
v 0.441056 0.000000 -0.454698
v 0.444625 0.000000 -0.460230
v 0.447860 0.000000 -0.465022
v 0.355724 0.199906 -0.533944
v 0.450679 0.199906 -0.468942
v 0.362958 0.199906 -0.536022
v 0.347789 0.199906 -0.532016
v -0.603680 0.199906 -0.376062
v -0.596184 0.199906 -0.531656
v -0.603680 0.199906 -0.532582
v 0.339174 0.199906 -0.530244
v -0.586030 0.199906 -0.530623
v -0.573630 0.199906 -0.529518
v 0.329896 0.199906 -0.528632
v -0.559403 0.199906 -0.528377
v 0.319974 0.199906 -0.527188
v -0.543767 0.199906 -0.527236
v -0.527138 0.199906 -0.526132
v 0.309425 0.199906 -0.525917
v -0.509936 0.199906 -0.525098
v 0.298265 0.199906 -0.524825
v -0.492579 0.199906 -0.524173
v 0.286514 0.199906 -0.523918
v -0.475486 0.199906 -0.523390
v 0.274190 0.199906 -0.523202
v -0.459073 0.199906 -0.522787
v 0.261312 0.199906 -0.522684
v -0.443759 0.199906 -0.522399
v 0.247895 0.199906 -0.522368
v -0.429961 0.199906 -0.522262
v 0.233958 0.199906 -0.522262
v -0.403661 0.199906 -0.522262
v -0.361312 0.199906 -0.522262
v -0.306147 0.199906 -0.522262
v -0.241397 0.199906 -0.522262
v -0.170293 0.199906 -0.522262
v -0.096064 0.199906 -0.522262
v -0.021945 0.199906 -0.522262
v 0.048837 0.199906 -0.522262
v 0.113050 0.199906 -0.522262
v 0.167461 0.199906 -0.522262
v 0.208841 0.199906 -0.522262
v -0.597438 0.199906 -0.376592
v 0.447860 0.199906 -0.465022
v 0.444625 0.199906 -0.460230
v -0.588423 0.199906 -0.377296
v 0.441056 0.199906 -0.454698
v -0.577021 0.199906 -0.378131
v 0.437236 0.199906 -0.448557
v -0.563613 0.199906 -0.379056
v -0.548579 0.199906 -0.380028
v 0.433248 0.199906 -0.441937
v -0.532304 0.199906 -0.381007
v 0.429177 0.199906 -0.434972
v -0.515168 0.199906 -0.381949
v -0.497554 0.199906 -0.382814
v 0.425107 0.199906 -0.427791
v -0.479844 0.199906 -0.383560
v 0.421119 0.199906 -0.420527
v -0.462420 0.199906 -0.384144
v 0.417299 0.199906 -0.413310
v 0.413730 0.199906 -0.406273
v -0.445666 0.199906 -0.384525
v 0.410495 0.199906 -0.399546
v 0.407678 0.199906 -0.393262
v -0.429961 0.199906 -0.384662
v -0.405299 0.199906 -0.384662
v -0.363669 0.199906 -0.384662
v -0.308459 0.199906 -0.384662
v -0.243054 0.199906 -0.384662
v -0.170840 0.199906 -0.384662
v -0.095204 0.199906 -0.384662
v 0.052789 0.199906 -0.384662
v 0.118373 0.199906 -0.384662
v 0.173835 0.199906 -0.384662
v 0.215787 0.199906 -0.384662
v 0.240840 0.199906 -0.384662
v 0.392041 0.199906 -0.355229
v -0.019532 0.199906 -0.384662
v 0.228423 0.199906 -0.347793
v 0.374450 0.199906 -0.315320
v 0.212882 0.199906 -0.308870
v 0.355031 0.199906 -0.273883
v 0.194534 0.199906 -0.268347
v 0.333911 0.199906 -0.231263
v 0.173696 0.199906 -0.226676
v 0.311214 0.199906 -0.187807
v 0.150684 0.199906 -0.184313
v 0.287065 0.199906 -0.143862
v 0.125814 0.199906 -0.141712
v 0.261590 0.199906 -0.099773
v 0.099403 0.199906 -0.099325
v 0.234916 0.199906 -0.055887
v 0.071769 0.199906 -0.057607
v 0.043227 0.199906 -0.017012
v 0.207166 0.199906 -0.012550
v 0.014095 0.199906 0.022007
v 0.178466 0.199906 0.029890
v -0.015313 0.199906 0.058995
v 0.148942 0.199906 0.071089
v -0.044680 0.199906 0.093498
v 0.118720 0.199906 0.110698
v -0.090550 0.199907 0.143032
v 0.164409 0.199907 0.150741
v -0.139455 0.199907 0.192494
v 0.210870 0.199907 0.193107
v -0.191203 0.199907 0.241526
v 0.027559 0.199907 0.217338
v 0.257667 0.199907 0.237253
v -0.019439 0.199907 0.266571
v 0.071519 0.199907 0.257346
v 0.304355 0.199907 0.282635
v -0.245602 0.199907 0.289770
v 0.115510 0.199907 0.298895
v -0.068354 0.199907 0.315219
v 0.350494 0.199907 0.328709
v -0.302462 0.199907 0.336866
v 0.159274 0.199907 0.341662
v -0.119097 0.199907 0.363055
v 0.395641 0.199907 0.374933
v -0.361592 0.199907 0.382458
v 0.202554 0.199907 0.385325
v -0.171578 0.199907 0.409851
v 0.439355 0.199907 0.420763
v -0.422799 0.199907 0.426187
v 0.245094 0.199907 0.429561
v -0.225707 0.199907 0.455381
v 0.481195 0.199907 0.465656
v -0.485894 0.199907 0.467694
v 0.286636 0.199907 0.474048
v -0.281396 0.199907 0.499418
v 0.520717 0.199907 0.509067
v -0.550685 0.199907 0.506621
v 0.326923 0.199907 0.518464
v -0.338553 0.199907 0.541736
v -0.616980 0.199907 0.542610
v 0.557479 0.199907 0.550453
v 0.365699 0.199907 0.562485
v -0.397090 0.199907 0.582106
v -0.684590 0.199907 0.575302
v 0.591041 0.199907 0.589272
v 0.402707 0.199907 0.605790
v -0.753320 0.199907 0.604338
v -0.456916 0.199907 0.620302
v 0.620960 0.199907 0.624978
v -0.643241 0.199907 0.719579
v 0.437692 0.199907 0.648055
v -0.517943 0.199907 0.656098
v 0.470395 0.199907 0.688959
v 0.500560 0.199907 0.728179
v -0.580081 0.199907 0.689265
v -1.000000 -1.000000 1.000000
v -1.000000 1.000000 1.000000
v -1.000000 -1.000000 -1.000000
v -1.000000 1.000000 -1.000000
v 1.000000 -1.000000 1.000000
v 1.000000 1.000000 1.000000
v 1.000000 -1.000000 -1.000000
v 1.000000 1.000000 -1.000000
vn -0.1799 -0.7118 -0.6790
vn 0.1458 -0.6185 -0.7721
vn 0.8065 -0.5790 -0.1196
vn -0.1539 -0.7111 -0.6860
vn -0.5545 -0.5729 0.6036
vn -0.5437 -0.5712 -0.6150
vn 0.0789 -0.7095 -0.7002
vn -0.1311 -0.7106 -0.6913
vn 0.0670 -0.7085 -0.7025
vn 0.0596 -0.7081 -0.7036
vn -0.1110 -0.7102 -0.6952
vn 0.0539 -0.7079 -0.7042
vn -0.0929 -0.7099 -0.6982
vn 0.0491 -0.7078 -0.7047
vn 0.0446 -0.7078 -0.7050
vn -0.0765 -0.7096 -0.7004
vn 0.0400 -0.7079 -0.7052
vn -0.0614 -0.7094 -0.7021
vn 0.0350 -0.7080 -0.7054
vn -0.0476 -0.7093 -0.7034
vn 0.0291 -0.7081 -0.7055
vn -0.0346 -0.7091 -0.7042
vn 0.0219 -0.7084 -0.7055
vn -0.0225 -0.7090 -0.7049
vn 0.0124 -0.7088 -0.7053
vn -0.0110 -0.7089 -0.7052
vn 0.0035 -0.7082 -0.7060
vn -0.0027 -0.7080 -0.7062
vn -0.0000 -0.7071 -0.7071
vn 0.0574 -0.7079 0.7040
vn 0.5774 -0.7105 0.4024
vn 0.5882 -0.7095 0.3882
vn 0.0533 -0.7076 0.7046
vn 0.5958 -0.7090 0.3774
vn 0.0501 -0.7076 0.7049
vn 0.6017 -0.7087 0.3684
vn 0.0471 -0.7076 0.7051
vn 0.0440 -0.7076 0.7052
vn 0.6068 -0.7086 0.3601
vn 0.0406 -0.7077 0.7054
vn 0.6115 -0.7086 0.3520
vn 0.0367 -0.7078 0.7055
vn 0.0322 -0.7079 0.7056
vn 0.6162 -0.7086 0.3438
vn 0.0267 -0.7081 0.7056
vn 0.6209 -0.7088 0.3348
vn 0.0199 -0.7083 0.7056
vn 0.6261 -0.7091 0.3244
vn 0.6319 -0.7095 0.3121
vn 0.0111 -0.7087 0.7054
vn 0.6385 -0.7101 0.2966
vn 0.6464 -0.7107 0.2777
vn 0.0031 -0.7082 0.7060
vn -0.0000 -0.7071 0.7071
vn -0.2777 -0.9397 0.1995
vn 0.6531 -0.7043 0.2782
vn -0.0000 0.9718 -0.2357
vn -0.6578 -0.7133 -0.2419
vn 0.6461 -0.7045 0.2937
vn -0.6458 -0.7122 -0.2750
vn 0.6392 -0.7047 0.3081
vn -0.6344 -0.7115 -0.3021
vn 0.6323 -0.7047 0.3218
vn -0.6236 -0.7109 -0.3252
vn 0.6254 -0.7047 0.3351
vn -0.6130 -0.7106 -0.3453
vn 0.6181 -0.7047 0.3483
vn -0.6027 -0.7104 -0.3636
vn 0.6104 -0.7046 0.3618
vn -0.5922 -0.7102 -0.3805
vn 0.6021 -0.7045 0.3757
vn -0.5814 -0.7103 -0.3968
vn -0.5700 -0.7103 -0.4130
vn 0.5930 -0.7043 0.3903
vn -0.5574 -0.7105 -0.4295
vn 0.5828 -0.7041 0.4058
vn -0.5431 -0.7109 -0.4468
vn 0.5712 -0.7038 0.4224
vn -0.5252 -0.7119 -0.4663
vn 0.4409 -0.8965 -0.0441
vn -0.5082 -0.7108 -0.4863
vn 0.4727 -0.7049 -0.5288
vn -0.4921 -0.7108 -0.5026
vn 0.4821 -0.7052 -0.5198
vn -0.4753 -0.7108 -0.5185
vn 0.0152 -0.9017 0.4320
vn 0.4902 -0.7054 -0.5119
vn 0.5072 -0.7042 0.4969
vn -0.4793 -0.7092 0.5170
vn 0.4973 -0.7056 -0.5048
vn -0.4577 -0.7109 -0.5340
vn -0.4886 -0.7090 0.5085
vn 0.4940 -0.7041 0.5101
vn 0.5038 -0.7057 -0.4982
vn -0.4390 -0.7111 -0.5492
vn -0.4969 -0.7089 0.5005
vn 0.4799 -0.7040 0.5235
vn 0.5097 -0.7058 -0.4920
vn -0.4190 -0.7112 -0.5644
vn -0.5047 -0.7088 0.4928
vn 0.4650 -0.7039 0.5369
vn 0.5154 -0.7058 -0.4860
vn -0.3974 -0.7115 -0.5795
vn -0.5121 -0.7088 0.4852
vn 0.4491 -0.7037 0.5506
vn 0.5210 -0.7058 -0.4800
vn -0.3740 -0.7117 -0.5946
vn -0.5191 -0.7087 0.4777
vn 0.4319 -0.7036 0.5644
vn 0.5268 -0.7057 -0.4737
vn -0.3484 -0.7121 -0.6096
vn -0.5260 -0.7088 0.4701
vn 0.4133 -0.7034 0.5783
vn -0.3202 -0.7124 -0.6244
vn 0.5329 -0.7056 -0.4670
vn -0.5328 -0.7088 0.4623
vn 0.3932 -0.7031 0.5924
vn -0.2892 -0.7129 -0.6389
vn 0.5398 -0.7054 -0.4594
vn -0.5398 -0.7089 0.4540
vn -0.8108 -0.5606 -0.1680
vn 0.3714 -0.7029 0.6066
vn 0.8133 -0.5779 0.0672
vn -0.1441 -0.5957 0.7901
vn -0.5470 -0.7090 0.4450
vn 0.3476 -0.7026 0.6209
vn -0.5547 -0.7092 0.4350
vn -0.0843 -0.5746 0.8141
vn 0.3217 -0.7023 0.6350
vn -0.1799 0.7118 -0.6790
vn 0.8065 0.5790 -0.1196
vn 0.1458 0.6185 -0.7721
vn -0.1539 0.7111 -0.6860
vn -0.5545 0.5729 0.6036
vn 0.0789 0.7095 -0.7002
vn -0.5437 0.5712 -0.6150
vn -0.1311 0.7106 -0.6913
vn 0.0670 0.7085 -0.7025
vn 0.0596 0.7081 -0.7036
vn -0.1110 0.7102 -0.6952
vn 0.0539 0.7079 -0.7042
vn -0.0929 0.7099 -0.6982
vn 0.0491 0.7078 -0.7047
vn 0.0446 0.7078 -0.7050
vn -0.0765 0.7096 -0.7004
vn 0.0400 0.7079 -0.7052
vn -0.0614 0.7094 -0.7021
vn 0.0350 0.7080 -0.7054
vn -0.0476 0.7092 -0.7034
vn 0.0291 0.7081 -0.7055
vn -0.0346 0.7091 -0.7042
vn 0.0219 0.7084 -0.7055
vn -0.0225 0.7090 -0.7049
vn 0.0124 0.7088 -0.7053
vn -0.0110 0.7089 -0.7052
vn 0.0035 0.7082 -0.7060
vn -0.0027 0.7080 -0.7062
vn -0.0000 0.7071 -0.7071
vn 0.0574 0.7079 0.7040
vn 0.5774 0.7105 0.4024
vn 0.5882 0.7095 0.3882
vn 0.0533 0.7076 0.7046
vn 0.5958 0.7090 0.3774
vn 0.0501 0.7076 0.7049
vn 0.6017 0.7087 0.3684
vn 0.0473 0.7076 0.7050
vn 0.0440 0.7076 0.7052
vn 0.6068 0.7086 0.3601
vn 0.0406 0.7077 0.7054
vn 0.6115 0.7086 0.3520
vn 0.0368 0.7078 0.7055
vn 0.0322 0.7079 0.7056
vn 0.6162 0.7086 0.3438
vn 0.0267 0.7081 0.7056
vn 0.6209 0.7088 0.3348
vn 0.0199 0.7083 0.7056
vn 0.6261 0.7091 0.3244
vn 0.6319 0.7095 0.3121
vn 0.0111 0.7087 0.7054
vn 0.6385 0.7101 0.2966
vn 0.6464 0.7107 0.2777
vn 0.0031 0.7079 0.7063
vn -0.0000 0.7071 0.7071
vn -0.2777 0.9397 0.1995
vn 0.6531 0.7043 0.2782
vn -0.6578 0.7133 -0.2419
vn 0.6460 0.7045 0.2937
vn -0.6458 0.7122 -0.2750
vn 0.6392 0.7046 0.3081
vn -0.6345 0.7115 -0.3021
vn 0.6323 0.7047 0.3218
vn -0.6236 0.7109 -0.3252
vn 0.6253 0.7047 0.3351
vn -0.6130 0.7106 -0.3453
vn 0.6181 0.7047 0.3484
vn -0.6027 0.7104 -0.3636
vn 0.6104 0.7046 0.3618
vn -0.5922 0.7103 -0.3805
vn 0.6021 0.7045 0.3757
vn -0.5814 0.7102 -0.3969
vn -0.5699 0.7103 -0.4130
vn 0.5930 0.7043 0.3903
vn -0.5574 0.7105 -0.4295
vn 0.5828 0.7041 0.4058
vn -0.5431 0.7109 -0.4468
vn 0.5712 0.7038 0.4224
vn -0.5252 0.7119 -0.4663
vn 0.4409 0.8965 -0.0441
vn -0.5082 0.7108 -0.4863
vn 0.4727 0.7049 -0.5288
vn -0.4921 0.7108 -0.5026
vn 0.4821 0.7052 -0.5198
vn -0.4753 0.7108 -0.5185
vn 0.0152 0.9017 0.4320
vn 0.4902 0.7054 -0.5119
vn 0.5072 0.7042 0.4969
vn -0.4793 0.7092 0.5170
vn 0.4973 0.7056 -0.5048
vn -0.4577 0.7109 -0.5340
vn -0.4885 0.7090 0.5085
vn 0.4939 0.7041 0.5101
vn 0.5038 0.7057 -0.4982
vn -0.4390 0.7111 -0.5492
vn -0.4969 0.7089 0.5005
vn 0.4800 0.7040 0.5235
vn 0.5097 0.7058 -0.4920
vn -0.4190 0.7112 -0.5644
vn -0.5047 0.7088 0.4928
vn 0.4650 0.7039 0.5369
vn 0.5154 0.7058 -0.4860
vn -0.3974 0.7115 -0.5795
vn -0.5120 0.7088 0.4852
vn 0.4491 0.7037 0.5506
vn 0.5210 0.7058 -0.4800
vn -0.3740 0.7117 -0.5946
vn -0.5191 0.7087 0.4777
vn 0.4319 0.7036 0.5644
vn 0.5268 0.7057 -0.4737
vn -0.3484 0.7121 -0.6096
vn -0.5260 0.7088 0.4701
vn 0.4133 0.7034 0.5783
vn -0.3202 0.7124 -0.6244
vn 0.5329 0.7056 -0.4670
vn -0.5328 0.7088 0.4623
vn 0.3932 0.7031 0.5924
vn -0.2892 0.7129 -0.6389
vn 0.5398 0.7054 -0.4594
vn -0.5398 0.7089 0.4540
vn -0.8109 0.5606 -0.1680
vn 0.3714 0.7029 0.6066
vn 0.8133 0.5779 0.0672
vn -0.1441 0.5958 0.7901
vn -0.5470 0.7090 0.4450
vn 0.3476 0.7026 0.6209
vn -0.5547 0.7092 0.4350
vn -0.0844 0.5746 0.8141
vn 0.3217 0.7023 0.6350
vn -1.0000 -0.0000 -0.0000
vn -0.0000 -0.0000 -1.0000
vn 1.0000 -0.0000 -0.0000
vn -0.0000 -0.0000 1.0000
vn -0.0000 -1.0000 -0.0000
vn -0.0000 1.0000 -0.0000
vt 0.876953 0.986395
vt 0.876953 0.993197
vt 0.876953 1.000000
vt 0.876953 0.979592
vt 0.876953 0.741497
vt 0.876953 0.748299
vt 0.876953 0.755102
vt 0.876953 0.972789
vt 0.876953 0.761905
vt 0.876953 0.768707
vt 0.876953 0.965986
vt 0.876953 0.775510
vt 0.876953 0.959184
vt 0.876953 0.782313
vt 0.876953 0.789116
vt 0.876953 0.952381
vt 0.876953 0.795918
vt 0.876953 0.945578
vt 0.876953 0.802721
vt 0.876953 0.938775
vt 0.876953 0.809524
vt 0.876953 0.931973
vt 0.876953 0.816326
vt 0.876953 0.925170
vt 0.876953 0.823129
vt 0.876953 0.918367
vt 0.876953 0.829932
vt 0.876953 0.911565
vt 0.876953 0.836735
vt 0.876953 0.843537
vt 0.876953 0.850340
vt 0.876953 0.857143
vt 0.876953 0.863946
vt 0.876953 0.870748
vt 0.876953 0.877551
vt 0.876953 0.884354
vt 0.876953 0.891156
vt 0.876953 0.897959
vt 0.876953 0.904762
vt 0.876953 0.734694
vt 0.876953 -0.000000
vt 0.876953 0.006803
vt 0.876953 0.727891
vt 0.876953 0.013605
vt 0.876953 0.721088
vt 0.876953 0.020408
vt 0.876953 0.714286
vt 0.876953 0.707483
vt 0.876953 0.027211
vt 0.876953 0.700680
vt 0.876953 0.034014
vt 0.876953 0.693878
vt 0.876953 0.687075
vt 0.876953 0.040816
vt 0.876953 0.680272
vt 0.876953 0.047619
vt 0.876953 0.673469
vt 0.876953 0.054422
vt 0.876953 0.061224
vt 0.876953 0.666667
vt 0.876953 0.068027
vt 0.876953 0.074830
vt 0.876953 0.659864
vt 0.876953 0.653061
vt 0.876953 0.646258
vt 0.876953 0.639456
vt 0.876953 0.632653
vt 0.876953 0.625850
vt 0.876953 0.619048
vt 0.876953 0.605442
vt 0.876953 0.598639
vt 0.876953 0.591837
vt 0.876953 0.585034
vt 0.876953 0.578231
vt 0.876953 0.081633
vt 0.876953 0.612245
vt 0.876953 0.571429
vt 0.876953 0.088435
vt 0.876953 0.564626
vt 0.876953 0.095238
vt 0.876953 0.557823
vt 0.876953 0.102041
vt 0.876953 0.551020
vt 0.876953 0.108844
vt 0.876953 0.544218
vt 0.876953 0.115646
vt 0.876953 0.537415
vt 0.876953 0.122449
vt 0.876953 0.530612
vt 0.876953 0.129252
vt 0.876953 0.523809
vt 0.876953 0.517007
vt 0.876953 0.136054
vt 0.876953 0.510204
vt 0.876953 0.142857
vt 0.876953 0.503401
vt 0.876953 0.149660
vt 0.876953 0.496599
vt 0.876953 0.156463
vt 0.876953 0.489796
vt 0.876953 0.163265
vt 0.876953 0.482993
vt 0.876953 0.170068
vt 0.876953 0.476190
vt 0.876953 0.326531
vt 0.876953 0.176871
vt 0.876953 0.333333
vt 0.876953 0.319728
vt 0.876953 0.183673
vt 0.876953 0.469388
vt 0.876953 0.312925
vt 0.876953 0.340136
vt 0.876953 0.190476
vt 0.876953 0.462585
vt 0.876953 0.306122
vt 0.876953 0.346939
vt 0.876953 0.197279
vt 0.876953 0.455782
vt 0.876953 0.299320
vt 0.876953 0.353741
vt 0.876953 0.204082
vt 0.876953 0.448980
vt 0.876953 0.292517
vt 0.876953 0.360544
vt 0.876953 0.210884
vt 0.876953 0.442177
vt 0.876953 0.285714
vt 0.876953 0.367347
vt 0.876953 0.217687
vt 0.876953 0.435374
vt 0.876953 0.278912
vt 0.876953 0.374150
vt 0.876953 0.428571
vt 0.876953 0.224490
vt 0.876953 0.272109
vt 0.876953 0.380952
vt 0.876953 0.421769
vt 0.876953 0.231293
vt 0.876953 0.265306
vt 0.876953 0.414966
vt 0.876953 0.387755
vt 0.876953 0.238095
vt 0.876953 0.408163
vt 0.876953 0.258503
vt 0.876953 0.394558
vt 0.876953 0.251701
vt 0.876953 0.244898
vt 0.876953 0.401361
vt 0.273163 0.256481
vt 0.151404 0.378240
vt 0.151404 0.256481
vt 0.273163 0.378240
vt 0.151404 0.500000
vt 0.273163 0.500000
vt 0.151404 0.621760
vt 0.273163 0.621760
vt 0.151404 0.743519
vt 0.029644 0.621760
vt 0.029644 0.500000
vt 0.394923 0.500000
vt 0.273163 0.743519
vt 0.394923 0.621760
s 1
usemtl マテリアル
f 3/1/1 2/2/2 1/3/3
f 4/4/4 3/1/1 1/3/3
f 39/5/5 38/6/6 37/7/7
f 5/8/8 4/4/4 1/3/3
f 39/5/5 37/7/7 36/9/9
f 39/5/5 36/9/9 35/10/10
f 6/11/11 5/8/8 1/3/3
f 39/5/5 35/10/10 34/12/12
f 7/13/13 6/11/11 1/3/3
f 39/5/5 34/12/12 33/14/14
f 39/5/5 33/14/14 32/15/15
f 8/16/16 7/13/13 1/3/3
f 39/5/5 32/15/15 31/17/17
f 9/18/18 8/16/16 1/3/3
f 39/5/5 31/17/17 30/19/19
f 10/20/20 9/18/18 1/3/3
f 39/5/5 30/19/19 29/21/21
f 11/22/22 10/20/20 1/3/3
f 39/5/5 29/21/21 28/23/23
f 12/24/24 11/22/22 1/3/3
f 39/5/5 28/23/23 27/25/25
f 13/26/26 12/24/24 1/3/3
f 39/5/5 27/25/25 26/27/27
f 14/28/28 13/26/26 1/3/3
f 39/5/5 26/27/27 25/29/29
f 39/5/5 25/29/29 24/30/29
f 39/5/5 24/30/29 23/31/29
f 39/5/5 23/31/29 22/32/29
f 39/5/5 22/32/29 21/33/29
f 39/5/5 21/33/29 20/34/29
f 39/5/5 20/34/29 19/35/29
f 39/5/5 19/35/29 18/36/29
f 39/5/5 18/36/29 17/37/29
f 39/5/5 17/37/29 16/38/29
f 39/5/5 16/38/29 15/39/29
f 39/5/5 15/39/29 14/28/28
f 39/5/5 14/28/28 1/3/3
f 39/5/5 1/3/3 40/40/30
f 40/40/30 1/3/3 148/41/31
f 40/40/30 148/41/31 147/42/32
f 40/40/30 147/42/32 41/43/33
f 41/43/33 147/42/32 146/44/34
f 41/43/33 146/44/34 42/45/35
f 42/45/35 146/44/34 145/46/36
f 42/45/35 145/46/36 43/47/37
f 43/47/37 145/46/36 44/48/38
f 44/48/38 145/46/36 144/49/39
f 44/48/38 144/49/39 45/50/40
f 45/50/40 144/49/39 143/51/41
f 45/50/40 143/51/41 46/52/42
f 46/52/42 143/51/41 47/53/43
f 47/53/43 143/51/41 142/54/44
f 47/53/43 142/54/44 48/55/45
f 48/55/45 142/54/44 141/56/46
f 48/55/45 141/56/46 49/57/47
f 49/57/47 141/56/46 140/58/48
f 49/57/47 140/58/48 139/59/49
f 49/57/47 139/59/49 50/60/50
f 50/60/50 139/59/49 138/61/51
f 50/60/50 138/61/51 137/62/52
f 50/60/50 137/62/52 51/63/53
f 51/63/53 137/62/52 52/64/54
f 52/64/54 137/62/52 53/65/54
f 53/65/54 137/62/52 54/66/54
f 54/66/54 137/62/52 55/67/54
f 55/67/54 137/62/52 56/68/54
f 56/68/54 137/62/52 57/69/54
f 57/69/54 137/62/52 59/70/54
f 59/70/54 137/62/52 60/71/54
f 60/71/54 137/62/52 61/72/54
f 61/72/54 137/62/52 62/73/54
f 62/73/54 137/62/52 63/74/55
f 63/74/55 137/62/52 136/75/56
f 58/76/57 57/69/54 59/70/54
f 64/77/58 63/74/55 136/75/56
f 64/77/58 136/75/56 135/78/59
f 65/79/60 64/77/58 135/78/59
f 65/79/60 135/78/59 134/80/61
f 66/81/62 65/79/60 134/80/61
f 66/81/62 134/80/61 133/82/63
f 67/83/64 66/81/62 133/82/63
f 67/83/64 133/82/63 132/84/65
f 68/85/66 67/83/64 132/84/65
f 68/85/66 132/84/65 131/86/67
f 69/87/68 68/85/66 131/86/67
f 69/87/68 131/86/67 130/88/69
f 70/89/70 69/87/68 130/88/69
f 70/89/70 130/88/69 129/90/71
f 71/91/72 70/89/70 129/90/71
f 72/92/73 71/91/72 129/90/71
f 72/92/73 129/90/71 128/93/74
f 73/94/75 72/92/73 128/93/74
f 73/94/75 128/93/74 127/95/76
f 74/96/77 73/94/75 127/95/76
f 74/96/77 127/95/76 126/97/78
f 75/98/79 74/96/77 126/97/78
f 75/98/79 126/97/78 125/99/80
f 76/100/81 75/98/79 125/99/80
f 76/100/81 125/99/80 124/101/82
f 77/102/83 76/100/81 124/101/82
f 77/102/83 124/101/82 123/103/84
f 78/104/85 77/102/83 123/103/84
f 78/104/85 123/103/84 100/105/86
f 100/105/86 123/103/84 122/106/87
f 78/104/85 100/105/86 99/107/88
f 101/108/89 100/105/86 122/106/87
f 101/108/89 122/106/87 121/109/90
f 79/110/91 78/104/85 99/107/88
f 102/111/92 101/108/89 121/109/90
f 79/110/91 99/107/88 98/112/93
f 102/111/92 121/109/90 120/113/94
f 80/114/95 79/110/91 98/112/93
f 103/115/96 102/111/92 120/113/94
f 80/114/95 98/112/93 97/116/97
f 103/115/96 120/113/94 119/117/98
f 81/118/99 80/114/95 97/116/97
f 104/119/100 103/115/96 119/117/98
f 81/118/99 97/116/97 96/120/101
f 104/119/100 119/117/98 118/121/102
f 82/122/103 81/118/99 96/120/101
f 105/123/104 104/119/100 118/121/102
f 82/122/103 96/120/101 95/124/105
f 105/123/104 118/121/102 117/125/106
f 83/126/107 82/122/103 95/124/105
f 106/127/108 105/123/104 117/125/106
f 83/126/107 95/124/105 94/128/109
f 106/127/108 117/125/106 116/129/110
f 84/130/111 83/126/107 94/128/109
f 107/131/112 106/127/108 116/129/110
f 84/130/111 94/128/109 93/132/113
f 85/133/114 84/130/111 93/132/113
f 107/131/112 116/129/110 115/134/115
f 108/135/116 107/131/112 115/134/115
f 85/133/114 93/132/113 92/136/117
f 86/137/118 85/133/114 92/136/117
f 108/135/116 115/134/115 114/138/119
f 109/139/120 108/135/116 114/138/119
f 87/140/121 86/137/118 92/136/117
f 87/140/121 92/136/117 91/141/122
f 109/139/120 114/138/119 113/142/123
f 88/143/124 87/140/121 91/141/122
f 110/144/125 109/139/120 113/142/123
f 88/143/124 91/141/122 90/145/126
f 110/144/125 113/142/123 111/146/127
f 111/146/127 113/142/123 112/147/128
f 88/143/124 90/145/126 89/148/129
f 149/1/130 150/3/131 151/2/132
f 152/4/133 150/3/131 149/1/130
f 153/5/134 154/7/135 155/6/136
f 156/8/137 150/3/131 152/4/133
f 153/5/134 157/9/138 154/7/135
f 153/5/134 158/10/139 157/9/138
f 159/11/140 150/3/131 156/8/137
f 153/5/134 160/12/141 158/10/139
f 161/13/142 150/3/131 159/11/140
f 153/5/134 162/14/143 160/12/141
f 153/5/134 163/15/144 162/14/143
f 164/16/145 150/3/131 161/13/142
f 153/5/134 165/17/146 163/15/144
f 166/18/147 150/3/131 164/16/145
f 153/5/134 167/19/148 165/17/146
f 168/20/149 150/3/131 166/18/147
f 153/5/134 169/21/150 167/19/148
f 170/22/151 150/3/131 168/20/149
f 153/5/134 171/23/152 169/21/150
f 172/24/153 150/3/131 170/22/151
f 153/5/134 173/25/154 171/23/152
f 174/26/155 150/3/131 172/24/153
f 153/5/134 175/27/156 173/25/154
f 176/28/157 150/3/131 174/26/155
f 153/5/134 177/29/158 175/27/156
f 153/5/134 178/30/158 177/29/158
f 153/5/134 179/31/158 178/30/158
f 153/5/134 180/32/158 179/31/158
f 153/5/134 181/33/158 180/32/158
f 153/5/134 182/34/158 181/33/158
f 153/5/134 183/35/158 182/34/158
f 153/5/134 184/36/158 183/35/158
f 153/5/134 185/37/158 184/36/158
f 153/5/134 186/38/158 185/37/158
f 153/5/134 187/39/158 186/38/158
f 153/5/134 176/28/157 187/39/158
f 153/5/134 150/3/131 176/28/157
f 153/5/134 188/40/159 150/3/131
f 188/40/159 189/41/160 150/3/131
f 188/40/159 190/42/161 189/41/160
f 188/40/159 191/43/162 190/42/161
f 191/43/162 192/44/163 190/42/161
f 191/43/162 193/45/164 192/44/163
f 193/45/164 194/46/165 192/44/163
f 193/45/164 195/47/166 194/46/165
f 195/47/166 196/48/167 194/46/165
f 196/48/167 197/49/168 194/46/165
f 196/48/167 198/50/169 197/49/168
f 198/50/169 199/51/170 197/49/168
f 198/50/169 200/52/171 199/51/170
f 200/52/171 201/53/172 199/51/170
f 201/53/172 202/54/173 199/51/170
f 201/53/172 203/55/174 202/54/173
f 203/55/174 204/56/175 202/54/173
f 203/55/174 205/57/176 204/56/175
f 205/57/176 206/58/177 204/56/175
f 205/57/176 207/59/178 206/58/177
f 205/57/176 208/60/179 207/59/178
f 208/60/179 209/61/180 207/59/178
f 208/60/179 210/62/181 209/61/180
f 208/60/179 211/63/182 210/62/181
f 211/63/182 212/64/183 210/62/181
f 212/64/183 213/65/183 210/62/181
f 213/65/183 214/66/183 210/62/181
f 214/66/183 215/67/183 210/62/181
f 215/67/183 216/68/183 210/62/181
f 216/68/183 217/69/183 210/62/181
f 217/69/183 218/70/183 210/62/181
f 218/70/183 219/71/183 210/62/181
f 219/71/183 220/72/183 210/62/181
f 220/72/183 221/73/183 210/62/181
f 221/73/183 222/74/184 210/62/181
f 222/74/184 223/75/185 210/62/181
f 224/76/183 218/70/183 217/69/183
f 225/77/186 223/75/185 222/74/184
f 225/77/186 226/78/187 223/75/185
f 227/79/188 226/78/187 225/77/186
f 227/79/188 228/80/189 226/78/187
f 229/81/190 228/80/189 227/79/188
f 229/81/190 230/82/191 228/80/189
f 231/83/192 230/82/191 229/81/190
f 231/83/192 232/84/193 230/82/191
f 233/85/194 232/84/193 231/83/192
f 233/85/194 234/86/195 232/84/193
f 235/87/196 234/86/195 233/85/194
f 235/87/196 236/88/197 234/86/195
f 237/89/198 236/88/197 235/87/196
f 237/89/198 238/90/199 236/88/197
f 239/91/200 238/90/199 237/89/198
f 240/92/201 238/90/199 239/91/200
f 240/92/201 241/93/202 238/90/199
f 242/94/203 241/93/202 240/92/201
f 242/94/203 243/95/204 241/93/202
f 244/96/205 243/95/204 242/94/203
f 244/96/205 245/97/206 243/95/204
f 246/98/207 245/97/206 244/96/205
f 246/98/207 247/99/208 245/97/206
f 248/100/209 247/99/208 246/98/207
f 248/100/209 249/101/210 247/99/208
f 250/102/211 249/101/210 248/100/209
f 250/102/211 251/103/212 249/101/210
f 252/104/213 251/103/212 250/102/211
f 252/104/213 253/105/214 251/103/212
f 253/105/214 254/106/215 251/103/212
f 252/104/213 255/107/216 253/105/214
f 256/108/217 254/106/215 253/105/214
f 256/108/217 257/109/218 254/106/215
f 258/110/219 255/107/216 252/104/213
f 259/111/220 257/109/218 256/108/217
f 258/110/219 260/112/221 255/107/216
f 259/111/220 261/113/222 257/109/218
f 262/114/223 260/112/221 258/110/219
f 263/115/224 261/113/222 259/111/220
f 262/114/223 264/116/225 260/112/221
f 263/115/224 265/117/226 261/113/222
f 266/118/227 264/116/225 262/114/223
f 267/119/228 265/117/226 263/115/224
f 266/118/227 268/120/229 264/116/225
f 267/119/228 269/121/230 265/117/226
f 270/122/231 268/120/229 266/118/227
f 271/123/232 269/121/230 267/119/228
f 270/122/231 272/124/233 268/120/229
f 271/123/232 273/125/234 269/121/230
f 274/126/235 272/124/233 270/122/231
f 275/127/236 273/125/234 271/123/232
f 274/126/235 276/128/237 272/124/233
f 275/127/236 277/129/238 273/125/234
f 278/130/239 276/128/237 274/126/235
f 279/131/240 277/129/238 275/127/236
f 278/130/239 280/132/241 276/128/237
f 281/133/242 280/132/241 278/130/239
f 279/131/240 282/134/243 277/129/238
f 283/135/244 282/134/243 279/131/240
f 281/133/242 284/136/245 280/132/241
f 285/137/246 284/136/245 281/133/242
f 283/135/244 286/138/247 282/134/243
f 287/139/248 286/138/247 283/135/244
f 288/140/249 284/136/245 285/137/246
f 288/140/249 289/141/250 284/136/245
f 287/139/248 290/142/251 286/138/247
f 291/143/252 289/141/250 288/140/249
f 292/144/253 290/142/251 287/139/248
f 291/143/252 293/145/254 289/141/250
f 292/144/253 294/146/255 290/142/251
f 294/146/255 295/147/256 290/142/251
f 291/143/252 296/148/257 293/145/254
f 1/3/3 151/2/132 150/3/131
f 3/1/1 151/2/132 2/2/2
f 4/4/4 149/1/130 3/1/1
f 38/6/6 154/7/135 37/7/7
f 39/5/5 155/6/136 38/6/6
f 5/8/8 152/4/133 4/4/4
f 37/7/7 157/9/138 36/9/9
f 36/9/9 158/10/139 35/10/10
f 6/11/11 156/8/137 5/8/8
f 35/10/10 160/12/141 34/12/12
f 7/13/13 159/11/140 6/11/11
f 34/12/12 162/14/143 33/14/14
f 33/14/14 163/15/144 32/15/15
f 8/16/16 161/13/142 7/13/13
f 32/15/15 165/17/146 31/17/17
f 9/18/18 164/16/145 8/16/16
f 31/17/17 167/19/148 30/19/19
f 10/20/20 166/18/147 9/18/18
f 30/19/19 169/21/150 29/21/21
f 11/22/22 168/20/149 10/20/20
f 29/21/21 171/23/152 28/23/23
f 12/24/24 170/22/151 11/22/22
f 28/23/23 173/25/154 27/25/25
f 13/26/26 172/24/153 12/24/24
f 27/25/25 175/27/156 26/27/27
f 14/28/28 174/26/155 13/26/26
f 26/27/27 177/29/158 25/29/29
f 25/29/29 178/30/158 24/30/29
f 24/30/29 179/31/158 23/31/29
f 23/31/29 180/32/158 22/32/29
f 22/32/29 181/33/158 21/33/29
f 21/33/29 182/34/158 20/34/29
f 20/34/29 183/35/158 19/35/29
f 19/35/29 184/36/158 18/36/29
f 18/36/29 185/37/158 17/37/29
f 17/37/29 186/38/158 16/38/29
f 16/38/29 187/39/158 15/39/29
f 15/39/29 176/28/157 14/28/28
f 40/40/30 153/5/134 39/5/5
f 1/3/3 189/41/160 148/41/31
f 148/41/31 190/42/161 147/42/32
f 41/43/33 188/40/159 40/40/30
f 147/42/32 192/44/163 146/44/34
f 42/45/35 191/43/162 41/43/33
f 146/44/34 194/46/165 145/46/36
f 43/47/37 193/45/164 42/45/35
f 44/48/38 195/47/166 43/47/37
f 145/46/36 197/49/168 144/49/39
f 45/50/40 196/48/167 44/48/38
f 144/49/39 199/51/170 143/51/41
f 46/52/42 198/50/169 45/50/40
f 47/53/43 200/52/171 46/52/42
f 143/51/41 202/54/173 142/54/44
f 48/55/45 201/53/172 47/53/43
f 142/54/44 204/56/175 141/56/46
f 49/57/47 203/55/174 48/55/45
f 141/56/46 206/58/177 140/58/48
f 140/58/48 207/59/178 139/59/49
f 50/60/50 205/57/176 49/57/47
f 139/59/49 209/61/180 138/61/51
f 138/61/51 210/62/181 137/62/52
f 50/60/50 211/63/182 208/60/179
f 52/64/54 211/63/182 51/63/53
f 53/65/54 212/64/183 52/64/54
f 54/66/54 213/65/183 53/65/54
f 55/67/54 214/66/183 54/66/54
f 56/68/54 215/67/183 55/67/54
f 57/69/54 216/68/183 56/68/54
f 60/71/54 218/70/183 59/70/54
f 61/72/54 219/71/183 60/71/54
f 62/73/54 220/72/183 61/72/54
f 63/74/55 221/73/183 62/73/54
f 137/62/52 223/75/185 136/75/56
f 59/70/54 224/76/183 58/76/57
f 58/76/57 217/69/183 57/69/54
f 64/77/58 222/74/184 63/74/55
f 136/75/56 226/78/187 135/78/59
f 64/77/58 227/79/188 225/77/186
f 134/80/61 226/78/187 228/80/189
f 66/81/62 227/79/188 65/79/60
f 134/80/61 230/82/191 133/82/63
f 66/81/62 231/83/192 229/81/190
f 133/82/63 232/84/193 132/84/65
f 68/85/66 231/83/192 67/83/64
f 131/86/67 232/84/193 234/86/195
f 69/87/68 233/85/194 68/85/66
f 131/86/67 236/88/197 130/88/69
f 69/87/68 237/89/198 235/87/196
f 129/90/71 236/88/197 238/90/199
f 71/91/72 237/89/198 70/89/70
f 71/91/72 240/92/201 239/91/200
f 129/90/71 241/93/202 128/93/74
f 73/94/75 240/92/201 72/92/73
f 128/93/74 243/95/204 127/95/76
f 74/96/77 242/94/203 73/94/75
f 126/97/78 243/95/204 245/97/206
f 74/96/77 246/98/207 244/96/205
f 126/97/78 247/99/208 125/99/80
f 75/98/79 248/100/209 246/98/207
f 124/101/82 247/99/208 249/101/210
f 77/102/83 248/100/209 76/100/81
f 124/101/82 251/103/212 123/103/84
f 78/104/85 250/102/211 77/102/83
f 123/103/84 254/106/215 122/106/87
f 99/107/88 253/105/214 255/107/216
f 101/108/89 253/105/214 100/105/86
f 122/106/87 257/109/218 121/109/90
f 79/110/91 252/104/213 78/104/85
f 101/108/89 259/111/220 256/108/217
f 99/107/88 260/112/221 98/112/93
f 121/109/90 261/113/222 120/113/94
f 80/114/95 258/110/219 79/110/91
f 103/115/96 259/111/220 102/111/92
f 97/116/97 260/112/221 264/116/225
f 120/113/94 265/117/226 119/117/98
f 81/118/99 262/114/223 80/114/95
f 104/119/100 263/115/224 103/115/96
f 97/116/97 268/120/229 96/120/101
f 119/117/98 269/121/230 118/121/102
f 81/118/99 270/122/231 266/118/227
f 104/119/100 271/123/232 267/119/228
f 95/124/105 268/120/229 272/124/233
f 117/125/106 269/121/230 273/125/234
f 83/126/107 270/122/231 82/122/103
f 106/127/108 271/123/232 105/123/104
f 94/128/109 272/124/233 276/128/237
f 116/129/110 273/125/234 277/129/238
f 84/130/111 274/126/235 83/126/107
f 107/131/112 275/127/236 106/127/108
f 93/132/113 276/128/237 280/132/241
f 85/133/114 278/130/239 84/130/111
f 115/134/115 277/129/238 282/134/243
f 108/135/116 279/131/240 107/131/112
f 92/136/117 280/132/241 284/136/245
f 86/137/118 281/133/242 85/133/114
f 114/138/119 282/134/243 286/138/247
f 109/139/120 283/135/244 108/135/116
f 87/140/121 285/137/246 86/137/118
f 91/141/122 284/136/245 289/141/250
f 113/142/123 286/138/247 290/142/251
f 88/143/124 288/140/249 87/140/121
f 110/144/125 287/139/248 109/139/120
f 90/145/126 289/141/250 293/145/254
f 111/146/127 292/144/253 110/144/125
f 112/147/128 294/146/255 111/146/127
f 112/147/128 290/142/251 295/147/256
f 89/148/129 291/143/252 88/143/124
f 89/148/129 293/145/254 296/148/257
s 0
f 298/149/258 299/150/258 297/151/258
f 300/152/259 303/153/259 299/150/259
f 304/154/260 301/155/260 303/153/260
f 302/156/261 297/157/261 301/155/261
f 303/153/262 297/158/262 299/159/262
f 300/160/263 302/156/263 304/154/263
s 1
f 1/3/3 2/2/2 151/2/132
f 3/1/1 149/1/130 151/2/132
f 4/4/4 152/4/133 149/1/130
f 38/6/6 155/6/136 154/7/135
f 39/5/5 153/5/134 155/6/136
f 5/8/8 156/8/137 152/4/133
f 37/7/7 154/7/135 157/9/138
f 36/9/9 157/9/138 158/10/139
f 6/11/11 159/11/140 156/8/137
f 35/10/10 158/10/139 160/12/141
f 7/13/13 161/13/142 159/11/140
f 34/12/12 160/12/141 162/14/143
f 33/14/14 162/14/143 163/15/144
f 8/16/16 164/16/145 161/13/142
f 32/15/15 163/15/144 165/17/146
f 9/18/18 166/18/147 164/16/145
f 31/17/17 165/17/146 167/19/148
f 10/20/20 168/20/149 166/18/147
f 30/19/19 167/19/148 169/21/150
f 11/22/22 170/22/151 168/20/149
f 29/21/21 169/21/150 171/23/152
f 12/24/24 172/24/153 170/22/151
f 28/23/23 171/23/152 173/25/154
f 13/26/26 174/26/155 172/24/153
f 27/25/25 173/25/154 175/27/156
f 14/28/28 176/28/157 174/26/155
f 26/27/27 175/27/156 177/29/158
f 25/29/29 177/29/158 178/30/158
f 24/30/29 178/30/158 179/31/158
f 23/31/29 179/31/158 180/32/158
f 22/32/29 180/32/158 181/33/158
f 21/33/29 181/33/158 182/34/158
f 20/34/29 182/34/158 183/35/158
f 19/35/29 183/35/158 184/36/158
f 18/36/29 184/36/158 185/37/158
f 17/37/29 185/37/158 186/38/158
f 16/38/29 186/38/158 187/39/158
f 15/39/29 187/39/158 176/28/157
f 40/40/30 188/40/159 153/5/134
f 1/3/3 150/3/131 189/41/160
f 148/41/31 189/41/160 190/42/161
f 41/43/33 191/43/162 188/40/159
f 147/42/32 190/42/161 192/44/163
f 42/45/35 193/45/164 191/43/162
f 146/44/34 192/44/163 194/46/165
f 43/47/37 195/47/166 193/45/164
f 44/48/38 196/48/167 195/47/166
f 145/46/36 194/46/165 197/49/168
f 45/50/40 198/50/169 196/48/167
f 144/49/39 197/49/168 199/51/170
f 46/52/42 200/52/171 198/50/169
f 47/53/43 201/53/172 200/52/171
f 143/51/41 199/51/170 202/54/173
f 48/55/45 203/55/174 201/53/172
f 142/54/44 202/54/173 204/56/175
f 49/57/47 205/57/176 203/55/174
f 141/56/46 204/56/175 206/58/177
f 140/58/48 206/58/177 207/59/178
f 50/60/50 208/60/179 205/57/176
f 139/59/49 207/59/178 209/61/180
f 138/61/51 209/61/180 210/62/181
f 50/60/50 51/63/53 211/63/182
f 52/64/54 212/64/183 211/63/182
f 53/65/54 213/65/183 212/64/183
f 54/66/54 214/66/183 213/65/183
f 55/67/54 215/67/183 214/66/183
f 56/68/54 216/68/183 215/67/183
f 57/69/54 217/69/183 216/68/183
f 60/71/54 219/71/183 218/70/183
f 61/72/54 220/72/183 219/71/183
f 62/73/54 221/73/183 220/72/183
f 63/74/55 222/74/184 221/73/183
f 137/62/52 210/62/181 223/75/185
f 59/70/54 218/70/183 224/76/183
f 58/76/57 224/76/183 217/69/183
f 64/77/58 225/77/186 222/74/184
f 136/75/56 223/75/185 226/78/187
f 64/77/58 65/79/60 227/79/188
f 134/80/61 135/78/59 226/78/187
f 66/81/62 229/81/190 227/79/188
f 134/80/61 228/80/189 230/82/191
f 66/81/62 67/83/64 231/83/192
f 133/82/63 230/82/191 232/84/193
f 68/85/66 233/85/194 231/83/192
f 131/86/67 132/84/65 232/84/193
f 69/87/68 235/87/196 233/85/194
f 131/86/67 234/86/195 236/88/197
f 69/87/68 70/89/70 237/89/198
f 129/90/71 130/88/69 236/88/197
f 71/91/72 239/91/200 237/89/198
f 71/91/72 72/92/73 240/92/201
f 129/90/71 238/90/199 241/93/202
f 73/94/75 242/94/203 240/92/201
f 128/93/74 241/93/202 243/95/204
f 74/96/77 244/96/205 242/94/203
f 126/97/78 127/95/76 243/95/204
f 74/96/77 75/98/79 246/98/207
f 126/97/78 245/97/206 247/99/208
f 75/98/79 76/100/81 248/100/209
f 124/101/82 125/99/80 247/99/208
f 77/102/83 250/102/211 248/100/209
f 124/101/82 249/101/210 251/103/212
f 78/104/85 252/104/213 250/102/211
f 123/103/84 251/103/212 254/106/215
f 99/107/88 100/105/86 253/105/214
f 101/108/89 256/108/217 253/105/214
f 122/106/87 254/106/215 257/109/218
f 79/110/91 258/110/219 252/104/213
f 101/108/89 102/111/92 259/111/220
f 99/107/88 255/107/216 260/112/221
f 121/109/90 257/109/218 261/113/222
f 80/114/95 262/114/223 258/110/219
f 103/115/96 263/115/224 259/111/220
f 97/116/97 98/112/93 260/112/221
f 120/113/94 261/113/222 265/117/226
f 81/118/99 266/118/227 262/114/223
f 104/119/100 267/119/228 263/115/224
f 97/116/97 264/116/225 268/120/229
f 119/117/98 265/117/226 269/121/230
f 81/118/99 82/122/103 270/122/231
f 104/119/100 105/123/104 271/123/232
f 95/124/105 96/120/101 268/120/229
f 117/125/106 118/121/102 269/121/230
f 83/126/107 274/126/235 270/122/231
f 106/127/108 275/127/236 271/123/232
f 94/128/109 95/124/105 272/124/233
f 116/129/110 117/125/106 273/125/234
f 84/130/111 278/130/239 274/126/235
f 107/131/112 279/131/240 275/127/236
f 93/132/113 94/128/109 276/128/237
f 85/133/114 281/133/242 278/130/239
f 115/134/115 116/129/110 277/129/238
f 108/135/116 283/135/244 279/131/240
f 92/136/117 93/132/113 280/132/241
f 86/137/118 285/137/246 281/133/242
f 114/138/119 115/134/115 282/134/243
f 109/139/120 287/139/248 283/135/244
f 87/140/121 288/140/249 285/137/246
f 91/141/122 92/136/117 284/136/245
f 113/142/123 114/138/119 286/138/247
f 88/143/124 291/143/252 288/140/249
f 110/144/125 292/144/253 287/139/248
f 90/145/126 91/141/122 289/141/250
f 111/146/127 294/146/255 292/144/253
f 112/147/128 295/147/256 294/146/255
f 112/147/128 113/142/123 290/142/251
f 89/148/129 296/148/257 291/143/252
f 89/148/129 90/145/126 293/145/254
s 0
f 298/149/258 300/152/258 299/150/258
f 300/152/259 304/154/259 303/153/259
f 304/154/260 302/156/260 301/155/260
f 302/156/261 298/161/261 297/157/261
f 303/153/262 301/155/262 297/158/262
f 300/160/263 298/162/263 302/156/263
