# Blender 4.4.1
# www.blender.org
mtllib Title_Ice2.mtl
o 2.ち
v -0.531986 -0.000000 -0.487729
v -0.503190 -0.000000 -0.487313
v -0.474096 -0.000000 -0.487171
v -0.472376 -0.000000 -0.487171
v 0.099282 -0.000000 -0.228034
v 0.033305 -0.000000 -0.230891
v -0.011320 -0.000000 -0.230018
v -0.420418 0.199906 -0.853697
v -0.267696 0.199906 -0.856972
v -0.420776 0.199906 -0.865571
v -0.270670 0.199906 -0.845227
v -0.420210 0.199906 -0.842097
v -0.273572 0.199906 -0.833250
v -0.420157 0.199906 -0.830688
v -0.276403 0.199906 -0.821093
v -0.420266 0.199906 -0.819386
v -0.279162 0.199906 -0.808811
v -0.420541 0.199906 -0.808109
v -0.281850 0.199906 -0.796458
v -0.420990 0.199906 -0.796772
v -0.421618 0.199906 -0.785291
v -0.284466 0.199906 -0.784086
v -0.422432 0.199906 -0.773583
v -0.287010 0.199906 -0.771751
v -0.423436 0.199906 -0.761565
v -0.289482 0.199906 -0.759505
v -0.424637 0.199906 -0.749153
v -0.291883 0.199906 -0.747402
v -0.426042 0.199906 -0.736263
v -0.294212 0.199906 -0.735496
v -0.427656 0.199906 -0.722812
v -0.296470 0.199906 -0.723842
v -0.298656 0.199906 -0.712492
v -0.446576 0.199906 -0.609291
v -0.317576 0.199906 -0.612732
v 0.299525 0.199906 -0.684076
v 0.354945 0.199906 -0.562851
v 0.353224 0.199906 -0.695291
v 0.244410 0.199906 -0.673648
v 0.188185 0.199906 -0.664009
v 0.131153 0.199906 -0.655158
v 0.073620 0.199906 -0.647096
v 0.015889 0.199906 -0.639822
v -0.041734 0.199906 -0.633336
v -0.800896 0.199906 -0.504371
v -0.779006 0.199906 -0.634704
v -0.802616 0.199906 -0.638532
v -0.753922 0.199906 -0.630990
v -0.098945 0.199906 -0.627638
v -0.727607 0.199906 -0.627432
v -0.155439 0.199906 -0.622729
v -0.700307 0.199906 -0.624071
v -0.672267 0.199906 -0.620948
v -0.210912 0.199906 -0.618608
v -0.643731 0.199906 -0.618106
v -0.265059 0.199906 -0.615276
v -0.614943 0.199906 -0.615587
v -0.586150 0.199906 -0.613432
v -0.557596 0.199906 -0.611683
v -0.529526 0.199906 -0.610382
v -0.502184 0.199906 -0.609571
v -0.475815 0.199906 -0.609291
v 0.303200 0.199906 -0.554368
v 0.248870 0.199906 -0.546153
v 0.192377 0.199906 -0.538261
v 0.134147 0.199906 -0.530745
v 0.074603 0.199906 -0.523659
v 0.014169 0.199906 -0.517056
v -0.046730 0.199906 -0.510992
v -0.107672 0.199906 -0.505518
v -0.168231 0.199906 -0.500690
v -0.775743 0.199906 -0.501865
v -0.750171 0.199906 -0.499514
v -0.227984 0.199906 -0.496560
v -0.724194 0.199906 -0.497330
v -0.697823 0.199906 -0.495326
v -0.286507 0.199906 -0.493183
v -0.671069 0.199906 -0.493512
v -0.643945 0.199906 -0.491901
v -0.343376 0.199906 -0.490611
v -0.616463 0.199906 -0.490506
v -0.472376 0.199906 -0.487171
v -0.351289 0.199906 -0.454146
v -0.588635 0.199906 -0.489337
v -0.560472 0.199906 -0.488408
v -0.531986 0.199906 -0.487729
v -0.503190 0.199906 -0.487313
v -0.483659 0.199906 -0.437579
v -0.359525 0.199906 -0.417185
v -0.495994 0.199906 -0.386273
v -0.368047 0.199906 -0.380021
v -0.509356 0.199906 -0.333688
v -0.376820 0.199906 -0.342946
v -0.385808 0.199906 -0.306254
v -0.523721 0.199906 -0.280262
v -0.394976 0.199906 -0.270236
v -0.539065 0.199906 -0.226429
v -0.404286 0.199906 -0.235187
v -0.413705 0.199906 -0.201397
v -0.011320 0.199906 -0.230018
v 0.099282 0.199906 -0.228034
v 0.033305 0.199906 -0.230891
v -0.054941 0.199906 -0.227348
v 0.160369 0.199906 -0.219640
v -0.097631 0.199906 -0.222802
v -0.555366 0.199906 -0.172627
v -0.139460 0.199906 -0.216303
v 0.216404 0.199906 -0.205978
v -0.180501 0.199906 -0.207774
v -0.220826 0.199906 -0.197136
v 0.267224 0.199906 -0.187318
v -0.423194 0.199906 -0.169160
v -0.260505 0.199906 -0.184313
v 0.312670 0.199906 -0.163928
v -0.299611 0.199906 -0.169226
v -0.572598 0.199906 -0.119290
v -0.338216 0.199906 -0.151798
v -0.432720 0.199906 -0.138768
v 0.352579 0.199906 -0.136076
v -0.376390 0.199906 -0.131952
v -0.442246 0.199906 -0.110514
v 0.386791 0.199906 -0.104033
v -0.414206 0.199906 -0.109609
v 0.017824 0.199906 -0.115651
v -0.590737 0.199906 -0.066855
v -0.032988 0.199906 -0.114184
v 0.066157 0.199906 -0.113614
v -0.082947 0.199906 -0.109791
v 0.110505 0.199906 -0.107665
v -0.451736 0.199906 -0.084691
v -0.131842 0.199906 -0.102483
v 0.150829 0.199906 -0.098048
v 0.415144 0.199906 -0.068065
v -0.179466 0.199906 -0.092272
v 0.187085 0.199906 -0.085010
v -0.225608 0.199906 -0.079171
v 0.219232 0.199906 -0.068794
v -0.270060 0.199906 -0.063191
v 0.247229 0.199906 -0.049647
v 0.437477 0.199906 -0.028442
v -0.609761 0.199906 -0.015757
v -0.312614 0.199906 -0.044345
v 0.271033 0.199906 -0.027811
v -0.353058 0.199906 -0.022644
v 0.453629 0.199906 0.014567
v 0.290603 0.199906 -0.003533
v -0.391186 0.199906 0.001900
v -0.629644 0.199906 0.033566
v 0.305897 0.199906 0.022943
v -0.426787 0.199906 0.029274
v 0.463439 0.199906 0.060693
v 0.316873 0.199906 0.051372
v -0.459654 0.199906 0.059468
v -0.650364 0.199906 0.080680
v 0.323489 0.199906 0.081509
v -0.489576 0.199906 0.092469
v 0.466745 0.199906 0.109669
v -0.671896 0.199906 0.125149
v 0.325704 0.199906 0.113109
v -0.495026 0.199906 0.098854
v -0.500214 0.199906 0.105138
v -0.505163 0.199906 0.111362
v 0.459200 0.199906 0.194469
v -0.509897 0.199906 0.117568
v 0.317860 0.199906 0.179237
v -0.514440 0.199906 0.123798
v -0.518815 0.199906 0.130094
v -0.542896 0.199906 0.171589
v -0.539022 0.199906 0.164021
v -0.535124 0.199906 0.156770
v -0.531178 0.199906 0.149793
v -0.527161 0.199906 0.143049
v -0.523048 0.199906 0.136497
v 0.295198 0.199906 0.236789
v 0.437059 0.199906 0.270067
v 0.259028 0.199906 0.286076
v 0.401062 0.199906 0.336574
v 0.210656 0.199906 0.327408
v 0.151390 0.199906 0.361095
v 0.351951 0.199906 0.394106
v 0.082539 0.199906 0.387449
v 0.005411 0.199906 0.406779
v 0.290465 0.199906 0.442774
v -0.078687 0.199906 0.419396
v -0.424215 0.199906 0.544829
v -0.359718 0.199906 0.420077
v -0.458615 0.199906 0.408949
v -0.168446 0.199906 0.425611
v -0.262559 0.199906 0.425735
v 0.217345 0.199906 0.482694
v 0.133331 0.199906 0.513977
v 0.039165 0.199906 0.536738
v -0.064413 0.199906 0.551091
v -0.296844 0.199906 0.555022
v -0.176663 0.199906 0.557147
v -0.420776 0.099953 -0.865571
v -0.267696 0.099953 -0.856972
v -0.420418 0.099953 -0.853697
v -0.270670 0.099953 -0.845227
v -0.420210 0.099953 -0.842097
v -0.273572 0.099953 -0.833250
v -0.420157 0.099953 -0.830688
v -0.276403 0.099953 -0.821093
v -0.420266 0.099953 -0.819386
v -0.279162 0.099953 -0.808811
v -0.420541 0.099953 -0.808109
v -0.281850 0.099953 -0.796458
v -0.420990 0.099953 -0.796772
v -0.421618 0.099953 -0.785291
v -0.284466 0.099953 -0.784086
v -0.422432 0.099953 -0.773583
v -0.287010 0.099953 -0.771751
v -0.423436 0.099953 -0.761565
v -0.289482 0.099953 -0.759505
v -0.424637 0.099953 -0.749153
v -0.291883 0.099953 -0.747402
v -0.426042 0.099953 -0.736263
v -0.294212 0.099953 -0.735496
v -0.427656 0.099953 -0.722811
v -0.296470 0.099953 -0.723842
v -0.298656 0.099953 -0.712492
v -0.446576 0.099953 -0.609291
v -0.317576 0.099953 -0.612731
v 0.353224 0.099953 -0.695291
v 0.354945 0.099953 -0.562851
v 0.299525 0.099953 -0.684076
v 0.244410 0.099953 -0.673648
v 0.188185 0.099953 -0.664009
v 0.131153 0.099953 -0.655158
v 0.073620 0.099953 -0.647096
v 0.015889 0.099953 -0.639822
v -0.041734 0.099953 -0.633336
v -0.802616 0.099953 -0.638531
v -0.779006 0.099953 -0.634704
v -0.800896 0.099953 -0.504371
v -0.753922 0.099953 -0.630990
v -0.098945 0.099953 -0.627638
v -0.727607 0.099953 -0.627432
v -0.155439 0.099953 -0.622729
v -0.700307 0.099953 -0.624071
v -0.672267 0.099953 -0.620948
v -0.210912 0.099953 -0.618608
v -0.643731 0.099953 -0.618106
v -0.265059 0.099953 -0.615276
v -0.614943 0.099953 -0.615587
v -0.586150 0.099953 -0.613432
v -0.557596 0.099953 -0.611683
v -0.529526 0.099953 -0.610382
v -0.502184 0.099953 -0.609571
v -0.475815 0.099953 -0.609291
v 0.303200 0.099953 -0.554368
v 0.248870 0.099953 -0.546153
v 0.192377 0.099953 -0.538261
v 0.134147 0.099953 -0.530745
v 0.074603 0.099953 -0.523659
v 0.014169 0.099953 -0.517056
v -0.046730 0.099953 -0.510992
v -0.107672 0.099953 -0.505518
v -0.168231 0.099953 -0.500690
v -0.775743 0.099953 -0.501865
v -0.750171 0.099953 -0.499514
v -0.227984 0.099953 -0.496560
v -0.724194 0.099953 -0.497330
v -0.697823 0.099953 -0.495326
v -0.286507 0.099953 -0.493183
v -0.671069 0.099953 -0.493512
v -0.643945 0.099953 -0.491901
v -0.343376 0.099953 -0.490611
v -0.616463 0.099953 -0.490506
v -0.351289 0.099953 -0.454146
v -0.588635 0.099953 -0.489337
v -0.560472 0.099953 -0.488408
v -0.531986 0.099953 -0.487729
v -0.503190 0.099953 -0.487313
v -0.472376 0.099953 -0.487171
v -0.483659 0.099953 -0.437579
v -0.359525 0.099953 -0.417185
v -0.495994 0.099953 -0.386273
v -0.368047 0.099953 -0.380021
v -0.509356 0.099953 -0.333688
v -0.376820 0.099953 -0.342946
v -0.385808 0.099953 -0.306254
v -0.523721 0.099953 -0.280262
v -0.394976 0.099953 -0.270236
v -0.539065 0.099953 -0.226429
v -0.404286 0.099953 -0.235186
v -0.413705 0.099953 -0.201397
v 0.033305 0.099953 -0.230891
v 0.099282 0.099953 -0.228034
v -0.011320 0.099953 -0.230018
v -0.054941 0.099953 -0.227348
v 0.160369 0.099953 -0.219640
v -0.097631 0.099953 -0.222802
v -0.555366 0.099953 -0.172627
v -0.139460 0.099953 -0.216303
v 0.216404 0.099953 -0.205978
v -0.180501 0.099953 -0.207774
v -0.220826 0.099953 -0.197136
v 0.267224 0.099953 -0.187318
v -0.423194 0.099953 -0.169160
v -0.260505 0.099953 -0.184313
v 0.312670 0.099953 -0.163928
v -0.299611 0.099953 -0.169226
v -0.572598 0.099953 -0.119290
v -0.338216 0.099953 -0.151798
v -0.432720 0.099953 -0.138768
v 0.352579 0.099953 -0.136076
v -0.376390 0.099953 -0.131952
v -0.442246 0.099953 -0.110514
v 0.386791 0.099953 -0.104032
v -0.414206 0.099953 -0.109609
v -0.590737 0.099953 -0.066855
v 0.017824 0.099953 -0.115651
v -0.032988 0.099953 -0.114184
v 0.066157 0.099953 -0.113614
v -0.082947 0.099953 -0.109791
v 0.110505 0.099953 -0.107665
v -0.451736 0.099953 -0.084691
v -0.131842 0.099953 -0.102483
v 0.150829 0.099953 -0.098048
v 0.415144 0.099953 -0.068065
v -0.179466 0.099953 -0.092272
v 0.187085 0.099953 -0.085010
v -0.225608 0.099953 -0.079171
v 0.219232 0.099953 -0.068794
v -0.270060 0.099953 -0.063191
v 0.247229 0.099953 -0.049647
v 0.437477 0.099953 -0.028442
v -0.609761 0.099953 -0.015757
v -0.312614 0.099953 -0.044345
v 0.271033 0.099953 -0.027811
v -0.353058 0.099953 -0.022644
v 0.453629 0.099953 0.014567
v 0.290603 0.099953 -0.003533
v -0.391186 0.099953 0.001900
v -0.629644 0.099953 0.033566
v 0.305897 0.099953 0.022943
v -0.426787 0.099953 0.029274
v 0.463439 0.099953 0.060693
v 0.316873 0.099953 0.051372
v -0.459654 0.099953 0.059468
v -0.650364 0.099953 0.080680
v 0.323489 0.099953 0.081509
v -0.489576 0.099953 0.092469
v 0.466745 0.099953 0.109669
v -0.671896 0.099953 0.125149
v 0.325704 0.099953 0.113109
v -0.495026 0.099953 0.098854
v -0.500214 0.099953 0.105138
v -0.505163 0.099953 0.111362
v 0.459200 0.099953 0.194469
v -0.509897 0.099953 0.117568
v 0.317860 0.099953 0.179237
v -0.514440 0.099953 0.123798
v -0.518815 0.099953 0.130094
v -0.539022 0.099953 0.164021
v -0.542896 0.099953 0.171589
v -0.535124 0.099953 0.156770
v -0.531178 0.099953 0.149793
v -0.527161 0.099953 0.143049
v -0.523048 0.099953 0.136497
v 0.295198 0.099953 0.236789
v 0.437059 0.099953 0.270067
v 0.259028 0.099953 0.286076
v 0.401062 0.099953 0.336574
v 0.210656 0.099953 0.327408
v 0.151390 0.099953 0.361095
v 0.351951 0.099953 0.394106
v 0.082539 0.099953 0.387449
v 0.005411 0.099953 0.406779
v 0.290465 0.099953 0.442774
v -0.078687 0.099953 0.419396
v -0.458615 0.099953 0.408949
v -0.359718 0.099953 0.420077
v -0.424215 0.099953 0.544829
v -0.168446 0.099953 0.425611
v -0.262559 0.099953 0.425735
v 0.217345 0.099953 0.482694
v 0.133331 0.099953 0.513977
v 0.039165 0.099953 0.536738
v -0.064413 0.099953 0.551091
v -0.296844 0.099953 0.555022
v -0.176663 0.099953 0.557147
v -0.563982 0.199906 -0.145958
v -0.563982 0.099953 -0.145958
v -0.547216 0.199906 -0.199528
v -0.547216 0.099953 -0.199528
v -0.531393 0.199906 -0.253346
v -0.531393 0.099953 -0.253346
v -0.516538 0.199906 -0.306975
v -0.516538 0.099953 -0.306975
v -0.487783 0.099953 -0.487242
v -0.489826 0.199906 -0.411926
v -0.489826 0.099953 -0.411926
v -0.487783 0.199906 -0.487242
v -0.508762 0.199906 -0.018790
v -0.531986 0.199906 -0.487729
v -0.503190 0.199906 -0.487313
v -0.474096 0.199906 -0.487171
v -0.472376 0.199906 -0.487171
v 0.099282 0.199906 -0.228034
v 0.033305 0.199906 -0.230891
v -0.011320 0.199906 -0.230018
v -0.420418 -0.000000 -0.853697
v -0.267696 -0.000000 -0.856972
v -0.420776 -0.000000 -0.865571
v -0.270670 -0.000000 -0.845227
v -0.420210 -0.000000 -0.842097
v -0.273572 -0.000000 -0.833250
v -0.420157 -0.000000 -0.830688
v -0.276403 -0.000000 -0.821093
v -0.420266 -0.000000 -0.819386
v -0.279162 -0.000000 -0.808811
v -0.420541 -0.000000 -0.808109
v -0.281850 -0.000000 -0.796458
v -0.420990 -0.000000 -0.796772
v -0.421618 -0.000000 -0.785291
v -0.284466 -0.000000 -0.784086
v -0.422432 -0.000000 -0.773583
v -0.287010 -0.000000 -0.771751
v -0.423436 -0.000000 -0.761565
v -0.289482 -0.000000 -0.759505
v -0.424637 -0.000000 -0.749153
v -0.291883 -0.000000 -0.747402
v -0.426042 -0.000000 -0.736263
v -0.294212 -0.000000 -0.735496
v -0.427656 -0.000000 -0.722811
v -0.296470 -0.000000 -0.723842
v -0.298656 -0.000000 -0.712492
v -0.446576 -0.000000 -0.609291
v -0.317576 -0.000000 -0.612731
v 0.299525 -0.000000 -0.684076
v 0.354945 -0.000000 -0.562851
v 0.353224 -0.000000 -0.695291
v 0.244410 -0.000000 -0.673648
v 0.188185 -0.000000 -0.664009
v 0.131153 -0.000000 -0.655158
v 0.073620 -0.000000 -0.647096
v 0.015889 -0.000000 -0.639822
v -0.041734 -0.000000 -0.633336
v -0.800896 -0.000000 -0.504371
v -0.779006 -0.000000 -0.634704
v -0.802616 -0.000000 -0.638531
v -0.753922 -0.000000 -0.630990
v -0.098945 -0.000000 -0.627638
v -0.727607 -0.000000 -0.627432
v -0.155439 -0.000000 -0.622729
v -0.700307 -0.000000 -0.624071
v -0.672267 -0.000000 -0.620948
v -0.210912 -0.000000 -0.618608
v -0.643731 -0.000000 -0.618106
v -0.265059 -0.000000 -0.615276
v -0.614943 -0.000000 -0.615587
v -0.586150 -0.000000 -0.613432
v -0.557596 -0.000000 -0.611683
v -0.529526 -0.000000 -0.610382
v -0.502184 -0.000000 -0.609571
v -0.475815 -0.000000 -0.609291
v 0.303200 -0.000000 -0.554368
v 0.248870 -0.000000 -0.546153
v 0.192377 -0.000000 -0.538261
v 0.134147 -0.000000 -0.530745
v 0.074603 -0.000000 -0.523659
v 0.014169 -0.000000 -0.517056
v -0.046730 -0.000000 -0.510992
v -0.107672 -0.000000 -0.505518
v -0.168231 -0.000000 -0.500690
v -0.775743 -0.000000 -0.501865
v -0.750171 -0.000000 -0.499514
v -0.227984 -0.000000 -0.496560
v -0.724194 -0.000000 -0.497330
v -0.697823 -0.000000 -0.495326
v -0.286507 -0.000000 -0.493182
v -0.671069 -0.000000 -0.493512
v -0.643945 -0.000000 -0.491901
v -0.343376 -0.000000 -0.490611
v -0.616463 -0.000000 -0.490506
v -0.472376 -0.000000 -0.487171
v -0.351289 -0.000000 -0.454146
v -0.588635 -0.000000 -0.489337
v -0.560472 -0.000000 -0.488408
v -0.531986 -0.000000 -0.487729
v -0.503190 -0.000000 -0.487313
v -0.483659 -0.000000 -0.437579
v -0.359525 -0.000000 -0.417185
v -0.495994 -0.000000 -0.386273
v -0.368047 -0.000000 -0.380021
v -0.509356 -0.000000 -0.333688
v -0.376820 -0.000000 -0.342946
v -0.385808 -0.000000 -0.306254
v -0.523721 -0.000000 -0.280262
v -0.394976 -0.000000 -0.270236
v -0.539065 -0.000000 -0.226429
v -0.404286 -0.000000 -0.235186
v -0.413705 -0.000000 -0.201397
v -0.011320 -0.000000 -0.230018
v 0.099282 -0.000000 -0.228034
v 0.033305 -0.000000 -0.230891
v -0.054941 -0.000000 -0.227348
v 0.160369 -0.000000 -0.219640
v -0.097631 -0.000000 -0.222802
v -0.555366 -0.000000 -0.172626
v -0.139460 -0.000000 -0.216303
v 0.216404 -0.000000 -0.205978
v -0.180501 -0.000000 -0.207774
v -0.220826 -0.000000 -0.197136
v 0.267224 -0.000000 -0.187318
v -0.423194 -0.000000 -0.169160
v -0.260505 -0.000000 -0.184313
v 0.312670 -0.000000 -0.163928
v -0.299611 -0.000000 -0.169226
v -0.572598 -0.000000 -0.119290
v -0.338216 -0.000000 -0.151798
v -0.432720 -0.000000 -0.138768
v 0.352579 -0.000000 -0.136076
v -0.376390 -0.000000 -0.131952
v -0.442246 -0.000000 -0.110514
v 0.386791 -0.000000 -0.104032
v -0.414206 -0.000000 -0.109609
v 0.017824 -0.000000 -0.115651
v -0.590737 -0.000000 -0.066854
v -0.032988 -0.000000 -0.114184
v 0.066157 -0.000000 -0.113614
v -0.082947 -0.000000 -0.109791
v 0.110505 -0.000000 -0.107665
v -0.451736 -0.000000 -0.084691
v -0.131842 -0.000000 -0.102483
v 0.150829 -0.000000 -0.098048
v 0.415144 -0.000000 -0.068065
v -0.179466 -0.000000 -0.092272
v 0.187085 -0.000000 -0.085010
v -0.225608 -0.000000 -0.079171
v 0.219232 -0.000000 -0.068794
v -0.270060 -0.000000 -0.063191
v 0.247229 -0.000000 -0.049646
v 0.437477 -0.000000 -0.028442
v -0.609761 -0.000000 -0.015757
v -0.312614 -0.000000 -0.044345
v 0.271033 -0.000000 -0.027811
v -0.353058 -0.000000 -0.022644
v 0.453629 -0.000000 0.014567
v 0.290603 -0.000000 -0.003533
v -0.391186 -0.000000 0.001900
v -0.629644 -0.000000 0.033566
v 0.305897 -0.000000 0.022943
v -0.426787 -0.000000 0.029275
v 0.463439 -0.000000 0.060693
v 0.316873 -0.000000 0.051372
v -0.459654 -0.000000 0.059468
v -0.650364 0.000000 0.080680
v 0.323489 0.000000 0.081509
v -0.489576 0.000000 0.092469
v 0.466745 0.000000 0.109669
v -0.671896 0.000000 0.125149
v 0.325704 0.000000 0.113109
v -0.495026 0.000000 0.098854
v -0.500214 0.000000 0.105138
v -0.505163 0.000000 0.111362
v 0.459200 0.000000 0.194469
v -0.509897 0.000000 0.117568
v 0.317860 0.000000 0.179237
v -0.514440 0.000000 0.123798
v -0.518815 0.000000 0.130094
v -0.542896 0.000000 0.171589
v -0.539022 0.000000 0.164021
v -0.535124 0.000000 0.156770
v -0.531178 0.000000 0.149793
v -0.527161 0.000000 0.143049
v -0.523048 0.000000 0.136497
v 0.295198 0.000000 0.236789
v 0.437059 0.000000 0.270067
v 0.259028 0.000000 0.286076
v 0.401062 0.000000 0.336574
v 0.210656 0.000000 0.327408
v 0.151390 0.000000 0.361095
v 0.351951 0.000000 0.394106
v 0.082539 0.000000 0.387449
v 0.005411 0.000000 0.406779
v 0.290465 0.000000 0.442774
v -0.078687 0.000000 0.419396
v -0.424215 0.000000 0.544829
v -0.359718 0.000000 0.420077
v -0.458615 0.000000 0.408949
v -0.168446 0.000000 0.425611
v -0.262559 0.000000 0.425735
v 0.217345 0.000000 0.482694
v 0.133331 0.000000 0.513977
v 0.039165 0.000000 0.536738
v -0.064413 0.000000 0.551091
v -0.296844 0.000000 0.555022
v -0.176663 0.000000 0.557147
v -0.563982 -0.000000 -0.145958
v -0.547216 -0.000000 -0.199528
v -0.531393 -0.000000 -0.253346
v -0.516538 -0.000000 -0.306975
v -0.489826 -0.000000 -0.411926
v -0.487783 -0.000000 -0.487242
v -0.508762 -0.000000 -0.018790
v -1.000000 -1.000000 1.000000
v -1.000000 1.000000 1.000000
v -1.000000 -1.000000 -1.000000
v -1.000000 1.000000 -1.000000
v 1.000000 -1.000000 1.000000
v 1.000000 1.000000 1.000000
v 1.000000 -1.000000 -1.000000
v 1.000000 1.000000 -1.000000
vn -0.0068 -0.7037 0.7104
vn -0.0136 -0.7038 0.7103
vn -0.2861 -0.9306 0.2283
vn -0.0017 -0.7043 0.7099
vn -0.0288 -0.7002 -0.7134
vn 0.0085 -0.6978 -0.7162
vn 0.0646 -0.6945 -0.7166
vn -0.0000 1.0000 -0.0000
vn -0.0095 -0.0000 1.0000
vn -0.0046 -0.0000 1.0000
vn -0.0053 -0.0001 1.0000
vn -0.0004 1.0000 -0.0001
vn -0.0012 1.0000 -0.0004
vn -0.0008 1.0000 -0.0002
vn -0.0006 1.0000 -0.0002
vn -0.7830 -0.0026 0.6220
vn -0.7830 -0.0000 0.6220
vn 0.8061 -0.0000 -0.5918
vn -0.6978 -0.0000 -0.7163
vn -0.9997 -0.0000 0.0240
vn 0.9706 -0.0000 0.2405
vn -0.9999 -0.0000 0.0113
vn 0.9729 -0.0000 0.2312
vn -1.0000 -0.0000 -0.0025
vn 0.9748 -0.0000 0.2230
vn -0.9999 -0.0000 -0.0170
vn 0.9764 -0.0000 0.2159
vn -0.9995 -0.0000 -0.0320
vn 0.9778 -0.0000 0.2097
vn 0.9777 -0.0007 0.2098
vn -0.9989 -0.0000 -0.0471
vn -0.9981 -0.0000 -0.0620
vn 0.9789 -0.0000 0.2044
vn 0.9789 -0.0013 0.2045
vn -0.9971 -0.0000 -0.0763
vn 0.9798 -0.0000 0.1999
vn -0.9960 -0.0000 -0.0898
vn 0.9806 -0.0000 0.1962
vn 0.9805 -0.0009 0.1963
vn -0.9948 -0.0000 -0.1023
vn 0.9811 -0.0000 0.1933
vn -0.9935 -0.0000 -0.1137
vn 0.9816 -0.0000 0.1911
vn 0.9816 -0.0004 0.1911
vn -0.9899 -0.0000 -0.1418
vn 0.9819 -0.0000 0.1896
vn 0.9822 -0.0000 0.1877
vn -0.6464 -0.0000 -0.7630
vn 0.7545 -0.0000 -0.6563
vn 0.7664 -0.0000 0.6424
vn 0.6256 -0.0000 -0.7801
vn -0.1952 -0.0000 -0.9808
vn -0.1774 -0.0000 -0.9841
vn -0.1612 -0.0000 -0.9869
vn -0.1461 -0.0000 -0.9893
vn -0.1319 -0.0000 -0.9913
vn -0.1184 -0.0000 -0.9930
vn -0.1161 -0.0024 -0.9932
vn -0.1055 -0.0000 -0.9944
vn 0.1532 -0.0000 -0.9882
vn -0.6529 -0.0000 -0.7574
vn -0.7370 -0.0000 0.6759
vn 0.1402 -0.0000 -0.9901
vn -0.0928 -0.0000 -0.9957
vn 0.1281 -0.0000 -0.9918
vn -0.0803 -0.0000 -0.9968
vn 0.1164 -0.0000 -0.9932
vn 0.1049 -0.0000 -0.9945
vn -0.0678 -0.0000 -0.9977
vn 0.0931 -0.0000 -0.9957
vn -0.0549 -0.0000 -0.9985
vn 0.0809 -0.0000 -0.9967
vn 0.0679 -0.0000 -0.9977
vn 0.0537 -0.0000 -0.9986
vn 0.0380 -0.0000 -0.9993
vn 0.0201 -0.0000 -0.9998
vn 0.0053 -0.0000 -1.0000
vn 0.1557 -0.0000 0.9878
vn 0.1439 -0.0000 0.9896
vn 0.1332 -0.0000 0.9911
vn 0.1231 -0.0000 0.9924
vn 0.1134 -0.0000 0.9936
vn 0.1039 -0.0000 0.9946
vn 0.0943 -0.0000 0.9955
vn 0.0845 -0.0000 0.9964
vn 0.0742 -0.0000 0.9972
vn -0.0954 -0.0000 0.9954
vn -0.0877 -0.0000 0.9961
vn 0.0633 -0.0000 0.9980
vn -0.0798 -0.0000 0.9968
vn -0.0717 -0.0000 0.9974
vn 0.0514 -0.0000 0.9987
vn -0.0635 -0.0000 0.9980
vn -0.0550 -0.0000 0.9985
vn 0.6451 -0.0000 0.7641
vn -0.0463 -0.0000 0.9989
vn 0.9767 -0.0000 0.2148
vn -0.0375 -0.0000 0.9993
vn -0.0284 -0.0000 0.9996
vn -0.0191 -0.0000 0.9998
vn 0.9754 -0.0000 0.2205
vn -0.9723 -0.0000 -0.2338
vn -0.9708 -0.0000 -0.2400
vn -0.9723 -0.0032 -0.2337
vn 0.9739 -0.0000 0.2269
vn -0.9737 -0.0000 -0.2278
vn 0.9722 -0.0000 0.2341
vn 0.9702 -0.0000 0.2423
vn -0.9657 -0.0000 -0.2597
vn -0.9637 -0.0000 -0.2669
vn -0.9657 -0.0037 -0.2596
vn 0.9678 -0.0000 0.2517
vn -0.9617 -0.0000 -0.2741
vn -0.9594 -0.0000 -0.2820
vn -0.9617 -0.0041 -0.2741
vn 0.9649 -0.0000 0.2626
vn 0.9613 -0.0000 0.2755
vn 0.0898 -0.0000 -0.9960
vn 0.0119 -0.0000 -0.9999
vn -0.0403 -0.0000 -0.9992
vn -0.0835 -0.0000 -0.9965
vn 0.1867 -0.0000 -0.9824
vn -0.1297 -0.0000 -0.9915
vn -0.9570 -0.0000 -0.2899
vn -0.9543 -0.0000 -0.2987
vn -0.9570 -0.0045 -0.2899
vn -0.1786 -0.0000 -0.9839
vn 0.2912 -0.0000 -0.9567
vn -0.2294 -0.0000 -0.9733
vn -0.2814 -0.0000 -0.9596
vn 0.4019 -0.0000 -0.9157
vn 0.9568 -0.0000 0.2908
vn -0.3339 -0.0000 -0.9426
vn 0.5161 -0.0000 -0.8565
vn -0.3858 -0.0000 -0.9226
vn -0.9516 -0.0000 -0.3074
vn -0.9484 -0.0000 -0.3172
vn -0.9513 -0.0014 -0.3082
vn -0.4365 -0.0000 -0.8997
vn 0.9510 -0.0000 0.3093
vn 0.6296 -0.0000 -0.7769
vn -0.4852 -0.0000 -0.8744
vn 0.9432 -0.0000 0.3322
vn 0.7366 -0.0000 -0.6764
vn -0.5311 -0.0000 -0.8473
vn -0.9412 -0.0000 -0.3379
vn 0.0583 -0.0000 0.9983
vn -0.0066 -0.0000 1.0000
vn 0.0068 -0.0138 0.9999
vn 0.0582 -0.0160 0.9982
vn -0.0876 -0.0000 0.9962
vn -0.0704 -0.0178 0.9974
vn 0.1178 -0.0000 0.9930
vn 0.1177 -0.0165 0.9929
vn -0.1827 -0.0000 0.9832
vn -0.1640 -0.0197 0.9863
vn 0.6198 -0.0000 -0.7848
vn 0.1788 -0.0000 0.9839
vn 0.1788 -0.0171 0.9837
vn -0.2856 -0.0000 0.9583
vn -0.2655 -0.0217 0.9639
vn 0.8307 -0.0000 -0.5567
vn 0.2415 -0.0000 0.9704
vn 0.2415 -0.0178 0.9702
vn -0.3951 -0.0000 0.9186
vn -0.3739 -0.0239 0.9272
vn 0.3059 -0.0000 0.9521
vn 0.3058 -0.0186 0.9519
vn -0.5086 -0.0000 0.8610
vn -0.4869 -0.0260 0.8731
vn 0.3719 -0.0000 0.9283
vn 0.3718 -0.0195 0.9281
vn -0.6218 -0.0000 0.7832
vn -0.6006 -0.0279 0.7991
vn 0.9063 -0.0000 -0.4225
vn -0.9324 -0.0000 -0.3614
vn 0.4392 -0.0000 0.8984
vn 0.4391 -0.0205 0.8982
vn -0.7293 -0.0000 0.6842
vn -0.7096 -0.0294 0.7040
vn 0.5074 -0.0000 0.8617
vn 0.5073 -0.0216 0.8615
vn 0.9598 -0.0000 -0.2806
vn -0.8247 -0.0000 0.5656
vn -0.8077 -0.0303 0.5888
vn 0.5759 -0.0000 0.8175
vn -0.9215 -0.0000 -0.3883
vn -0.9021 -0.0000 0.4315
vn -0.8889 -0.0305 0.4572
vn 0.6437 -0.0000 0.7653
vn 0.9904 -0.0000 -0.1380
vn -0.9576 -0.0000 0.2881
vn -0.9486 -0.0299 0.3151
vn 0.7094 -0.0000 0.7048
vn -0.9079 -0.0000 -0.4193
vn -0.9108 -0.0071 -0.4129
vn -0.9898 -0.0000 0.1426
vn -0.9851 -0.0286 0.1694
vn 0.7508 -0.0000 0.6605
vn 0.9999 -0.0000 0.0107
vn -0.9260 -0.0000 0.3776
vn -0.9997 -0.0000 -0.0240
vn -0.9993 -0.0371 0.0107
vn 0.7659 -0.0000 0.6430
vn 0.7659 -0.0044 0.6430
vn 0.7770 -0.0000 0.6295
vn 0.7770 -0.0050 0.6295
vn 0.7889 -0.0000 0.6145
vn 0.7889 -0.0055 0.6145
vn 0.9826 -0.0000 0.1857
vn 0.8016 -0.0000 0.5979
vn 0.8016 -0.0059 0.5979
vn -0.9697 -0.0000 -0.2441
vn -0.9788 -0.0510 -0.1982
vn 0.8146 -0.0000 0.5800
vn 0.8146 -0.0062 0.5800
vn 0.8277 -0.0000 0.5611
vn 0.8277 -0.0063 0.5611
vn 0.3673 -0.0000 0.9301
vn 0.8855 -0.0000 0.4646
vn 0.8873 -0.0038 0.4613
vn 0.8757 -0.0000 0.4829
vn 0.8777 -0.0042 0.4793
vn 0.8648 -0.0000 0.5021
vn 0.8670 -0.0043 0.4983
vn 0.8531 -0.0000 0.5217
vn 0.8554 -0.0044 0.5180
vn 0.8407 -0.0000 0.5416
vn 0.8431 -0.0045 0.5378
vn -0.8756 -0.0000 -0.4830
vn -0.8961 -0.0512 -0.4408
vn 0.9247 -0.0000 0.3807
vn -0.7328 -0.0000 -0.6805
vn -0.7601 -0.0456 -0.6483
vn 0.8246 -0.0000 0.5658
vn -0.5745 -0.0000 -0.8185
vn -0.6025 -0.0375 -0.7973
vn -0.4270 -0.0000 -0.9042
vn -0.4521 -0.0297 -0.8915
vn 0.6939 -0.0000 0.7201
vn -0.3008 -0.0000 -0.9537
vn -0.3221 -0.0235 -0.9464
vn -0.1960 -0.0000 -0.9806
vn -0.2138 -0.0188 -0.9767
vn 0.5519 -0.0000 0.8339
vn -0.1088 -0.0000 -0.9941
vn -0.1238 -0.0155 -0.9922
vn 0.0850 -0.0000 -0.9964
vn -0.7535 -0.0000 -0.6575
vn 0.0850 -0.0146 -0.9963
vn -0.6453 -0.0000 0.7640
vn -0.0352 -0.0000 -0.9994
vn -0.0481 -0.0132 -0.9988
vn 0.0284 -0.0000 -0.9996
vn 0.0284 -0.0161 -0.9995
vn 0.4151 -0.0000 0.9098
vn 0.2925 -0.0000 0.9563
vn 0.1863 -0.0000 0.9825
vn 0.0957 -0.0000 0.9954
vn -0.0488 -0.0000 0.9988
vn 0.0181 -0.0000 0.9998
vn 0.0094 0.9999 -0.0035
vn -0.0051 1.0000 0.0016
vn -0.0057 1.0000 0.0016
vn -0.0059 1.0000 0.0016
vn -0.0061 1.0000 0.0015
vn -0.0063 1.0000 0.0014
vn -0.0053 1.0000 -0.0036
vn -0.0050 1.0000 -0.0036
vn -0.0047 1.0000 -0.0035
vn -0.0043 1.0000 -0.0034
vn -0.0039 1.0000 -0.0032
vn -0.0034 1.0000 -0.0028
vn -0.0005 0.9999 0.0163
vn -0.0013 0.9999 0.0148
vn -0.0111 0.9998 -0.0189
vn -0.0092 0.9998 -0.0187
vn -0.0074 0.9998 -0.0184
vn -0.0058 0.9998 -0.0180
vn -0.0044 0.9998 -0.0175
vn -0.0031 0.9999 -0.0170
vn -0.0020 0.9999 -0.0166
vn -0.0009 0.9999 -0.0162
vn -0.0138 0.9998 -0.0139
vn -0.0164 0.9997 -0.0193
vn -0.0160 0.9996 -0.0229
vn -0.0149 0.9995 -0.0270
vn -0.0128 0.9994 -0.0314
vn -0.0095 0.9993 -0.0357
vn -0.0049 0.9992 -0.0394
vn 0.0009 0.9991 -0.0419
vn 0.0075 0.9991 -0.0426
vn 0.0140 0.9991 -0.0411
vn 0.0198 0.9991 -0.0377
vn 0.0241 0.9992 -0.0329
vn 0.0378 0.9986 -0.0370
vn 0.0621 0.9973 -0.0386
vn 0.0702 0.9973 -0.0216
vn 0.0653 0.9979 -0.0034
vn 0.0528 0.9986 0.0086
vn 0.0399 0.9991 0.0139
vn 0.0297 0.9994 0.0152
vn 0.0224 0.9996 0.0147
vn 0.0173 0.9998 0.0137
vn 0.0137 0.9998 0.0127
vn -0.9675 -0.0000 -0.2530
vn 0.0011 1.0000 0.0012
vn 0.0043 1.0000 0.0013
vn 0.0039 1.0000 0.0011
vn 0.0036 1.0000 0.0009
vn 0.0031 1.0000 0.0007
vn 0.0007 1.0000 -0.0001
vn -0.0021 1.0000 0.0026
vn -0.0068 0.7037 0.7105
vn -0.2860 0.9306 0.2283
vn -0.0136 0.7037 0.7103
vn -0.0017 0.7043 0.7099
vn -0.0288 0.7001 -0.7134
vn 0.0646 0.6944 -0.7166
vn 0.0085 0.6978 -0.7163
vn -0.0000 -1.0000 -0.0000
vn -0.0053 0.0001 1.0000
vn -0.0003 -1.0000 -0.0001
vn -0.0012 -1.0000 -0.0004
vn -0.0008 -1.0000 -0.0002
vn -0.0006 -1.0000 -0.0002
vn 0.9777 0.0006 0.2098
vn 0.9789 0.0013 0.2045
vn 0.9805 0.0008 0.1963
vn -0.1161 0.0023 -0.9932
vn -0.9723 0.0032 -0.2337
vn -0.9657 0.0037 -0.2596
vn -0.9617 0.0041 -0.2741
vn -0.9570 0.0045 -0.2899
vn -0.9513 0.0015 -0.3082
vn 0.0582 0.0160 0.9982
vn 0.0068 0.0138 0.9999
vn -0.0704 0.0178 0.9974
vn 0.1177 0.0165 0.9929
vn -0.1640 0.0197 0.9863
vn 0.1788 0.0171 0.9837
vn -0.2655 0.0217 0.9639
vn 0.2415 0.0178 0.9702
vn -0.3739 0.0239 0.9272
vn 0.3058 0.0186 0.9519
vn -0.4869 0.0260 0.8731
vn 0.3718 0.0195 0.9281
vn -0.6006 0.0279 0.7991
vn 0.4391 0.0205 0.8982
vn -0.7096 0.0295 0.7040
vn 0.5073 0.0216 0.8615
vn -0.8077 0.0304 0.5888
vn -0.8889 0.0305 0.4572
vn -0.9486 0.0299 0.3151
vn -0.9108 0.0071 -0.4129
vn -0.9851 0.0286 0.1694
vn -0.9993 0.0371 0.0107
vn 0.7659 0.0044 0.6430
vn 0.7770 0.0050 0.6295
vn 0.7889 0.0055 0.6145
vn 0.8016 0.0059 0.5979
vn -0.9788 0.0510 -0.1982
vn 0.8146 0.0062 0.5800
vn 0.8277 0.0063 0.5611
vn 0.8873 0.0038 0.4613
vn 0.8777 0.0042 0.4792
vn 0.8670 0.0043 0.4983
vn 0.8554 0.0044 0.5180
vn 0.8431 0.0045 0.5378
vn -0.8961 0.0512 -0.4408
vn -0.7601 0.0456 -0.6483
vn -0.6025 0.0375 -0.7973
vn -0.4521 0.0297 -0.8915
vn -0.3221 0.0235 -0.9464
vn -0.2138 0.0188 -0.9767
vn -0.1238 0.0155 -0.9922
vn 0.0850 0.0146 -0.9963
vn -0.0481 0.0132 -0.9988
vn 0.0284 0.0161 -0.9995
vn -0.0034 -1.0000 -0.0028
vn -0.0039 -1.0000 -0.0032
vn -0.0043 -1.0000 -0.0034
vn -0.0047 -1.0000 -0.0035
vn -0.0050 -1.0000 -0.0036
vn -0.0053 -1.0000 -0.0036
vn -0.0063 -1.0000 0.0014
vn -0.0061 -1.0000 0.0015
vn -0.0059 -1.0000 0.0016
vn -0.0057 -1.0000 0.0016
vn -0.0051 -1.0000 0.0016
vn 0.0094 -0.9999 -0.0035
vn -0.0005 -0.9999 0.0163
vn 0.0137 -0.9998 0.0127
vn 0.0173 -0.9998 0.0137
vn 0.0224 -0.9996 0.0147
vn 0.0297 -0.9994 0.0152
vn 0.0399 -0.9991 0.0139
vn 0.0528 -0.9986 0.0086
vn 0.0653 -0.9979 -0.0034
vn 0.0702 -0.9973 -0.0216
vn 0.0621 -0.9973 -0.0386
vn 0.0378 -0.9986 -0.0370
vn 0.0241 -0.9992 -0.0329
vn 0.0198 -0.9991 -0.0377
vn 0.0140 -0.9991 -0.0411
vn 0.0075 -0.9991 -0.0426
vn 0.0009 -0.9991 -0.0419
vn -0.0049 -0.9992 -0.0394
vn -0.0095 -0.9993 -0.0357
vn -0.0128 -0.9994 -0.0314
vn -0.0149 -0.9995 -0.0270
vn -0.0160 -0.9996 -0.0229
vn -0.0163 -0.9997 -0.0193
vn -0.0138 -0.9998 -0.0139
vn -0.0009 -0.9999 -0.0162
vn -0.0020 -0.9999 -0.0166
vn -0.0031 -0.9999 -0.0170
vn -0.0044 -0.9998 -0.0175
vn -0.0058 -0.9998 -0.0180
vn -0.0074 -0.9998 -0.0184
vn -0.0092 -0.9998 -0.0187
vn -0.0111 -0.9998 -0.0189
vn -0.0013 -0.9999 0.0148
vn 0.0011 -1.0000 0.0012
vn 0.0043 -1.0000 0.0013
vn 0.0039 -1.0000 0.0011
vn 0.0036 -1.0000 0.0009
vn 0.0031 -1.0000 0.0007
vn 0.0007 -1.0000 -0.0001
vn -0.0021 -1.0000 0.0026
vn -1.0000 -0.0000 -0.0000
vn -0.0000 -0.0000 -1.0000
vn 1.0000 -0.0000 -0.0000
vn -0.0000 -0.0000 1.0000
vt 0.894458 0.023262
vt 0.894262 0.044998
vt 0.894262 0.000003
vt 0.894295 0.001301
vt 0.892347 0.000003
vt 0.894052 0.045446
vt 0.892347 0.112709
vt 0.890628 0.143619
vt 0.890628 0.138300
vt 0.890628 0.132981
vt 0.890628 0.127662
vt 0.890628 0.989358
vt 0.890628 0.000003
vt 0.890628 0.999997
vt 0.890628 0.994677
vt 0.890628 0.936167
vt 0.890628 0.053194
vt 0.890628 0.047875
vt 0.890628 0.941486
vt 0.890628 0.952125
vt 0.890628 0.037237
vt 0.890628 0.031918
vt 0.890628 0.957444
vt 0.890628 0.946805
vt 0.890628 0.042556
vt 0.890628 0.930848
vt 0.890628 0.340427
vt 0.890628 0.207449
vt 0.890628 0.063833
vt 0.890628 0.925529
vt 0.890628 0.202130
vt 0.890628 0.069152
vt 0.890628 0.196811
vt 0.890628 0.191491
vt 0.890628 0.079790
vt 0.890628 0.074471
vt 0.890628 0.175534
vt 0.890628 0.170215
vt 0.890628 0.101066
vt 0.890628 0.095747
vt 0.890628 0.186172
vt 0.890628 0.085109
vt 0.890628 0.180853
vt 0.890628 0.090428
vt 0.890628 0.164896
vt 0.890628 0.106386
vt 0.890628 0.159577
vt 0.890628 0.111705
vt 0.890628 0.154258
vt 0.890628 0.117024
vt 0.890628 0.148938
vt 0.890628 0.122343
vt 0.890628 0.920210
vt 0.890628 0.345746
vt 0.890628 0.122343
vt 0.890628 0.117024
vt 0.890628 0.276597
vt 0.890628 0.271278
vt 0.890628 0.265959
vt 0.890628 0.260640
vt 0.890628 0.255321
vt 0.890628 0.250002
vt 0.890628 0.244682
vt 0.890628 0.239363
vt 0.890628 0.234044
vt 0.890628 0.005322
vt 0.890628 0.228725
vt 0.890628 0.010642
vt 0.890628 0.223406
vt 0.890628 0.015961
vt 0.890628 0.021280
vt 0.890628 0.218087
vt 0.890628 0.026599
vt 0.890628 0.212768
vt 0.890628 0.047875
vt 0.890628 0.058514
vt 0.890628 0.281916
vt 0.890628 0.287235
vt 0.890628 0.292555
vt 0.890628 0.297874
vt 0.890628 0.303193
vt 0.890628 0.308512
vt 0.890628 0.313831
vt 0.890628 0.319150
vt 0.890628 0.324469
vt 0.890628 0.984039
vt 0.890628 0.329788
vt 0.890628 0.978720
vt 0.890628 0.973401
vt 0.890628 0.335107
vt 0.890628 0.968082
vt 0.890628 0.962763
vt 0.890628 0.776594
vt 0.890628 0.404256
vt 0.890628 0.832444
vt 0.890628 0.781913
vt 0.890628 0.351065
vt 0.890628 0.917550
vt 0.890628 0.914891
vt 0.890628 0.917550
vt 0.890628 0.356384
vt 0.890628 0.361703
vt 0.890628 0.367022
vt 0.890628 0.906912
vt 0.890628 0.904253
vt 0.890628 0.372341
vt 0.890628 0.901593
vt 0.890628 0.898933
vt 0.890628 0.377660
vt 0.890628 0.382979
vt 0.890628 0.473404
vt 0.890628 0.468085
vt 0.890628 0.462766
vt 0.890628 0.457447
vt 0.890628 0.478723
vt 0.890628 0.452128
vt 0.890628 0.896274
vt 0.890628 0.893614
vt 0.890628 0.446809
vt 0.890628 0.484043
vt 0.890628 0.441490
vt 0.890628 0.436171
vt 0.890628 0.489362
vt 0.890628 0.388299
vt 0.890628 0.430851
vt 0.890628 0.494681
vt 0.890628 0.425532
vt 0.890628 0.890955
vt 0.890628 0.888295
vt 0.890628 0.420213
vt 0.890628 0.393618
vt 0.890628 0.500000
vt 0.890628 0.414894
vt 0.890628 0.398937
vt 0.890628 0.505319
vt 0.890628 0.409575
vt 0.890628 0.882976
vt 0.890628 0.734041
vt 0.890628 0.728722
vt 0.890628 0.723403
vt 0.890628 0.739360
vt 0.890628 0.718084
vt 0.890628 0.744679
vt 0.890628 0.712764
vt 0.890628 0.510638
vt 0.890628 0.749998
vt 0.890628 0.707445
vt 0.890628 0.755317
vt 0.890628 0.702126
vt 0.890628 0.760636
vt 0.890628 0.696807
vt 0.890628 0.515957
vt 0.890628 0.877657
vt 0.890628 0.765956
vt 0.890628 0.691488
vt 0.890628 0.771275
vt 0.890628 0.521276
vt 0.890628 0.686169
vt 0.890628 0.872338
vt 0.890628 0.680850
vt 0.890628 0.526595
vt 0.890628 0.675531
vt 0.890628 0.787232
vt 0.890628 0.867019
vt 0.890628 0.670212
vt 0.890628 0.792551
vt 0.890628 0.531915
vt 0.890628 0.861700
vt 0.890628 0.664892
vt 0.890628 0.797870
vt 0.890628 0.803189
vt 0.890628 0.808508
vt 0.890628 0.537234
vt 0.890628 0.813828
vt 0.890628 0.659573
vt 0.890628 0.819147
vt 0.890628 0.819147
vt 0.890628 0.824466
vt 0.890628 0.824466
vt 0.890628 0.856381
vt 0.890628 0.851061
vt 0.890628 0.845742
vt 0.890628 0.840423
vt 0.890628 0.835104
vt 0.890628 0.829785
vt 0.890628 0.654254
vt 0.890628 0.542553
vt 0.890628 0.648935
vt 0.890628 0.547872
vt 0.890628 0.643616
vt 0.890628 0.638297
vt 0.890628 0.553191
vt 0.890628 0.632978
vt 0.890628 0.627659
vt 0.890628 0.558510
vt 0.890628 0.622340
vt 0.890628 0.606382
vt 0.890628 0.601063
vt 0.890628 0.595744
vt 0.890628 0.617020
vt 0.890628 0.611701
vt 0.890628 0.563829
vt 0.890628 0.569148
vt 0.890628 0.574468
vt 0.890628 0.579787
vt 0.890628 0.590425
vt 0.890628 0.585106
vt 0.890628 0.909572
vt 0.894255 0.021741
vt 0.894059 0.045000
vt 0.894059 0.000003
vt 0.894092 0.043668
vt 0.890635 0.112710
vt 0.890635 0.000003
vt 0.892340 0.067267
vt 0.375000 0.000000
vt 0.625000 0.000000
vt 0.625000 0.250000
vt 0.375000 0.250000
vt 0.625000 0.500000
vt 0.375000 0.500000
vt 0.625000 0.750000
vt 0.375000 0.750000
vt 0.625000 1.000000
vt 0.375000 1.000000
vt 0.125000 0.500000
vt 0.125000 0.750000
vt 0.875000 0.500000
vt 0.875000 0.750000
s 1
usemtl マテリアル
f 2/1/1 1/2/2 4/3/3
f 3/4/4 2/1/1 4/3/3
f 7/5/5 6/6/6 5/7/7
f 11/8/8 9/9/8 10/10/8 8/11/8
f 72/12/8 46/13/8 47/14/8 45/15/8
f 87/16/8 61/17/8 60/18/8 86/19/8
f 84/20/8 58/21/8 57/22/8 81/23/8
f 85/24/8 59/25/8 58/21/8 84/20/8
f 274/16/9 392/26/10 395/26/11 87/16/9
f 80/27/8 35/28/8 34/29/8 82/30/8
f 35/28/8 33/31/8 31/32/8 34/29/8
f 32/33/8 30/34/12 27/35/8 29/36/8
f 24/37/8 22/38/13 20/39/8 21/40/8
f 30/34/12 28/41/8 25/42/8 27/35/8
f 33/31/8 32/33/8 29/36/8 31/32/8
f 28/41/8 26/43/14 23/44/8 25/42/8
f 26/43/14 24/37/8 21/40/8 23/44/8
f 22/38/13 19/45/15 18/46/8 20/39/8
f 19/45/15 17/47/8 16/48/8 18/46/8
f 17/47/8 15/49/8 14/50/8 16/48/8
f 15/49/8 13/51/8 12/52/8 14/50/8
f 88/53/8 83/54/8 80/27/8 82/30/8
f 392/26/10 275/30/16 82/30/17 395/26/11
f 197/9/18 196/10/19 10/10/19 9/9/18
f 196/10/19 198/11/20 8/11/20 10/10/19
f 199/8/21 197/9/18 9/9/18 11/8/21
f 198/11/20 200/55/22 12/52/22 8/11/20
f 201/51/23 199/8/21 11/8/21 13/51/23
f 200/55/22 202/56/24 14/50/24 12/52/22
f 203/49/25 201/51/23 13/51/23 15/49/25
f 202/56/24 204/48/26 16/48/26 14/50/24
f 205/47/27 203/49/25 15/49/25 17/47/27
f 204/48/26 206/46/28 18/46/28 16/48/26
f 207/45/29 205/47/27 17/47/27 19/45/30
f 206/46/28 208/39/31 20/39/31 18/46/28
f 208/39/31 209/40/32 21/40/32 20/39/31
f 210/38/33 207/45/29 19/45/30 22/38/34
f 209/40/32 211/44/35 23/44/35 21/40/32
f 212/37/36 210/38/33 22/38/34 24/37/36
f 211/44/35 213/42/37 25/42/37 23/44/35
f 214/43/38 212/37/36 24/37/36 26/43/39
f 213/42/37 215/35/40 27/35/40 25/42/37
f 216/41/41 214/43/38 26/43/39 28/41/41
f 215/35/40 217/36/42 29/36/42 27/35/40
f 218/34/43 216/41/41 28/41/41 30/34/44
f 217/36/42 219/32/45 31/32/45 29/36/42
f 220/33/46 218/34/43 30/34/44 32/33/46
f 221/31/47 220/33/46 32/33/46 33/31/47
f 219/32/45 222/29/48 34/29/48 31/32/45
f 223/28/49 221/31/47 33/31/47 35/28/49
f 225/57/50 224/58/51 38/58/51 37/57/50
f 224/58/51 226/59/52 36/59/52 38/58/51
f 226/59/52 227/60/53 39/60/53 36/59/52
f 227/60/53 228/61/54 40/61/54 39/60/53
f 228/61/54 229/62/55 41/62/55 40/61/54
f 229/62/55 230/63/56 42/63/56 41/62/55
f 230/63/56 231/64/57 43/64/58 42/63/56
f 231/64/57 232/65/59 44/65/59 43/64/58
f 234/13/60 233/14/61 47/14/61 46/13/60
f 233/14/61 235/15/62 45/15/62 47/14/61
f 236/66/63 234/13/60 46/13/60 48/66/63
f 232/65/59 237/67/64 49/67/64 44/65/59
f 238/68/65 236/66/63 48/66/63 50/68/65
f 237/67/64 239/69/66 51/69/66 49/67/64
f 240/70/67 238/68/65 50/68/65 52/70/67
f 241/71/68 240/70/67 52/70/67 53/71/68
f 239/69/66 242/72/69 54/72/69 51/69/66
f 243/73/70 241/71/68 53/71/68 55/73/70
f 242/72/69 244/74/71 56/74/71 54/72/69
f 245/22/72 243/73/70 55/73/70 57/22/72
f 246/21/73 245/22/72 57/22/72 58/21/73
f 244/74/71 223/28/49 35/28/49 56/74/71
f 247/25/74 246/21/73 58/21/73 59/25/74
f 248/75/75 247/25/74 59/25/74 60/18/75
f 249/17/76 248/75/75 60/18/75 61/17/76
f 250/76/77 249/17/76 61/17/76 62/76/77
f 222/29/48 250/76/77 62/76/77 34/29/48
f 251/77/78 225/57/50 37/57/50 63/77/78
f 252/78/79 251/77/78 63/77/78 64/78/79
f 253/79/80 252/78/79 64/78/79 65/79/80
f 254/80/81 253/79/80 65/79/80 66/80/81
f 255/81/82 254/80/81 66/80/81 67/81/82
f 256/82/83 255/81/82 67/81/82 68/82/83
f 257/83/84 256/82/83 68/82/83 69/83/84
f 258/84/85 257/83/84 69/83/84 70/84/85
f 259/85/86 258/84/85 70/84/85 71/85/86
f 235/15/62 260/12/87 72/12/87 45/15/62
f 260/12/87 261/86/88 73/86/88 72/12/87
f 262/87/89 259/85/86 71/85/86 74/87/89
f 261/86/88 263/88/90 75/88/90 73/86/88
f 263/88/90 264/89/91 76/89/91 75/88/90
f 265/90/92 262/87/89 74/87/89 77/90/92
f 264/89/91 266/91/93 78/91/93 76/89/91
f 266/91/93 267/92/94 79/92/94 78/91/93
f 268/27/95 265/90/92 77/90/92 80/27/95
f 267/92/94 269/23/96 81/23/96 79/92/94
f 270/54/97 268/27/95 80/27/95 83/54/97
f 269/23/96 271/20/98 84/20/98 81/23/96
f 271/20/98 272/24/99 85/24/99 84/20/98
f 272/24/99 273/19/100 86/19/100 85/24/99
f 273/19/100 274/16/9 87/16/9 86/19/100
f 77/90/8 56/74/8 35/28/8 80/27/8
f 13/51/8 11/8/8 8/11/8 12/52/8
f 147/93/8 130/94/8 396/95/8 150/96/8
f 277/97/101 270/54/97 83/54/97 89/97/101
f 394/98/102 278/99/103 90/99/103 393/100/104
f 279/101/105 277/97/101 89/97/101 91/101/105
f 275/30/16 276/53/106 88/53/106 82/30/17
f 281/102/107 279/101/105 91/101/105 93/102/107
f 282/103/108 281/102/107 93/102/107 94/103/108
f 391/104/109 283/105/110 95/105/110 390/104/111
f 284/106/112 282/103/108 94/103/108 96/106/112
f 389/107/113 285/108/114 97/108/114 388/107/115
f 286/109/116 284/106/112 96/106/112 98/109/116
f 287/110/117 286/109/116 98/109/116 99/110/117
f 289/111/118 288/112/119 102/112/119 101/111/118
f 288/112/119 290/113/120 100/113/120 102/112/119
f 290/113/120 291/114/121 103/114/121 100/113/120
f 292/115/122 289/111/118 101/111/118 104/115/122
f 291/114/121 293/116/123 105/116/123 103/114/121
f 387/117/124 294/118/125 106/118/125 386/117/126
f 293/116/123 295/119/127 107/119/127 105/116/123
f 296/120/128 292/115/122 104/115/122 108/120/128
f 295/119/127 297/121/129 109/121/129 107/119/127
f 297/121/129 298/122/130 110/122/130 109/121/129
f 299/123/131 296/120/128 108/120/128 111/123/131
f 300/124/132 287/110/117 99/110/117 112/124/132
f 298/122/130 301/125/133 113/125/133 110/122/130
f 302/126/134 299/123/131 111/123/131 114/126/134
f 301/125/133 303/127/135 115/127/135 113/125/133
f 385/128/136 304/129/137 116/129/137 384/128/138
f 303/127/135 305/130/139 117/130/139 115/127/135
f 306/131/140 300/124/132 112/124/132 118/131/140
f 307/132/141 302/126/134 114/126/134 119/132/141
f 305/130/139 308/133/142 120/133/142 117/130/139
f 309/134/143 306/131/140 118/131/140 121/134/143
f 310/135/144 307/132/141 119/132/141 122/135/144
f 308/133/142 311/136/145 123/136/145 120/133/142
f 304/129/137 312/137/146 125/137/146 116/129/137
f 314/138/147 313/139/148 124/139/149 126/138/150
f 313/139/148 315/140/151 127/140/152 124/139/149
f 316/141/153 314/138/147 126/138/150 128/141/154
f 315/140/151 317/142/155 129/142/156 127/140/152
f 318/94/157 309/134/143 121/134/143 130/94/157
f 319/143/158 316/141/153 128/141/154 131/143/159
f 311/136/145 318/94/157 130/94/157 123/136/145
f 317/142/155 320/144/160 132/144/161 129/142/156
f 321/145/162 310/135/144 122/135/144 133/145/162
f 322/146/163 319/143/158 131/143/159 134/146/164
f 320/144/160 323/147/165 135/147/166 132/144/161
f 324/148/167 322/146/163 134/146/164 136/148/168
f 323/147/165 325/149/169 137/149/170 135/147/166
f 326/150/171 324/148/167 136/148/168 138/150/172
f 325/149/169 327/151/173 139/151/174 137/149/170
f 328/152/175 321/145/162 133/145/162 140/152/175
f 312/137/146 329/153/176 141/153/176 125/137/146
f 330/154/177 326/150/171 138/150/172 142/154/178
f 327/151/173 331/155/179 143/155/180 139/151/174
f 332/156/181 330/154/177 142/154/178 144/156/182
f 333/157/183 328/152/175 140/152/175 145/157/183
f 331/155/179 334/158/184 146/158/185 143/155/180
f 335/93/186 332/156/181 144/156/182 147/93/186
f 329/153/176 336/159/187 148/159/187 141/153/176
f 334/158/184 337/160/188 149/160/189 146/158/185
f 338/96/190 335/93/186 147/93/186 150/96/190
f 339/161/191 333/157/183 145/157/183 151/161/191
f 337/160/188 340/162/192 152/162/193 149/160/189
f 341/163/194 338/96/190 150/96/190 153/163/194
f 336/159/187 342/164/195 154/164/196 148/159/187
f 340/162/192 343/165/197 155/165/198 152/162/193
f 344/166/199 341/163/194 153/163/194 156/166/199
f 345/167/200 339/161/191 151/161/191 157/167/200
f 342/164/195 346/168/201 158/168/201 154/164/196
f 343/165/197 347/169/202 159/169/203 155/165/198
f 348/170/204 344/166/199 156/166/199 160/170/205
f 349/171/206 348/170/204 160/170/205 161/171/207
f 350/172/208 349/171/206 161/171/207 162/172/209
f 351/173/210 345/167/200 157/167/200 163/173/210
f 352/174/211 350/172/208 162/172/209 164/174/212
f 347/169/202 353/175/213 165/175/214 159/169/203
f 354/176/215 352/174/211 164/174/212 166/177/216
f 355/178/217 354/176/215 166/177/216 167/179/218
f 357/180/219 356/181/220 169/181/221 168/180/219
f 346/168/201 357/180/219 168/180/219 158/168/201
f 356/181/220 358/182/222 170/182/223 169/181/221
f 358/182/222 359/183/224 171/183/225 170/182/223
f 359/183/224 360/184/226 172/184/227 171/183/225
f 360/184/226 361/185/228 173/185/229 172/184/227
f 361/185/228 355/178/217 167/179/218 173/185/229
f 353/175/213 362/186/230 174/186/231 165/175/214
f 363/187/232 351/173/210 163/173/210 175/187/232
f 362/186/230 364/188/233 176/188/234 174/186/231
f 365/189/235 363/187/232 175/187/232 177/189/235
f 364/188/233 366/190/236 178/190/237 176/188/234
f 366/190/236 367/191/238 179/191/239 178/190/237
f 368/192/240 365/189/235 177/189/235 180/192/240
f 367/191/238 369/193/241 181/193/242 179/191/239
f 369/193/241 370/194/243 182/194/244 181/193/242
f 371/195/245 368/192/240 180/192/240 183/195/245
f 370/194/243 372/196/246 184/196/247 182/194/244
f 374/197/248 373/198/249 187/198/249 186/197/250
f 373/198/249 375/199/251 185/199/251 187/198/249
f 372/196/246 376/200/252 188/200/253 184/196/247
f 377/201/254 374/197/248 186/197/250 189/201/255
f 376/200/252 377/201/254 189/201/255 188/200/253
f 378/202/256 371/195/245 183/195/245 190/202/256
f 379/203/257 378/202/256 190/202/256 191/203/257
f 380/204/258 379/203/257 191/203/257 192/204/258
f 381/205/259 380/204/258 192/204/258 193/205/259
f 375/199/251 382/206/260 194/206/260 185/199/251
f 382/206/260 383/207/261 195/207/261 194/206/260
f 383/207/261 381/205/259 193/205/259 195/207/261
f 156/166/8 148/159/8 154/164/262 158/168/8 168/180/8 169/181/263 170/182/264 171/183/265 172/184/266 173/185/267 167/179/268 166/177/269 164/174/270 162/172/271 161/171/272 160/170/273
f 189/201/274 186/197/275 187/198/8 185/199/8 194/206/8 195/207/8 193/205/8 192/204/8 191/203/8 190/202/8 183/195/8 180/192/8 177/189/8 175/187/8 163/173/8 157/167/8 151/161/8 145/157/8 140/152/8 133/145/8 122/135/8 119/132/8 114/126/8 111/123/8 108/120/8 104/115/8 101/111/8 102/112/8 100/113/8 103/114/8 105/116/8 107/119/8 109/121/8 110/122/8 113/125/8 115/127/8 117/130/8 120/133/8 123/136/8 130/94/8 147/93/8 144/156/276 142/154/277 138/150/278 136/148/279 134/146/280 131/143/281 128/141/282 126/138/283 124/139/284 127/140/285 129/142/286 132/144/287 135/147/288 137/149/289 139/151/290 143/155/291 146/158/292 149/160/293 152/162/294 155/165/295 159/169/296 165/175/297 174/186/298 176/188/299 178/190/300 179/191/301 181/193/302 182/194/303 184/196/304 188/200/305
f 130/94/8 116/129/8 125/137/8 396/95/8
f 150/96/8 396/95/8 125/137/8 141/153/8 153/163/8
f 153/163/8 141/153/8 148/159/8 156/166/8
f 294/118/125 385/128/136 384/128/138 106/118/125
f 285/108/114 387/117/124 386/117/126 97/108/114
f 283/105/110 389/107/113 388/107/115 95/105/110
f 280/208/306 391/104/109 390/104/111 92/208/306
f 75/88/8 50/68/8 48/66/8 73/86/8
f 276/53/106 394/98/102 393/100/104 88/53/106
f 73/86/8 48/66/8 46/13/8 72/12/8
f 116/129/8 130/94/8 121/134/8 384/128/307
f 384/128/307 121/134/8 118/131/8 106/118/8
f 106/118/8 118/131/8 112/124/8 386/117/308
f 386/117/308 112/124/8 99/110/8 97/108/8
f 97/108/8 99/110/8 98/109/8 388/107/309
f 388/107/309 98/109/8 96/106/8 95/105/8
f 95/105/8 96/106/8 94/103/8 390/104/310
f 390/104/310 94/103/8 93/102/8 92/208/8
f 92/208/8 93/102/8 91/101/8 90/99/8
f 90/99/8 91/101/8 89/97/8 393/100/311
f 393/100/311 89/97/8 83/54/8 88/53/8
f 278/99/103 280/208/306 92/208/306 90/99/103
f 76/89/8 52/70/8 50/68/8 75/88/8
f 78/91/8 53/71/8 52/70/8 76/89/8
f 79/92/8 55/73/8 53/71/8 78/91/8
f 81/23/8 57/22/8 55/73/8 79/92/8
f 86/19/8 60/18/8 59/25/8 85/24/8
f 395/26/312 62/76/8 61/17/8 87/16/8
f 82/30/8 34/29/8 62/76/8 395/26/312
f 74/87/8 54/72/8 56/74/8 77/90/8
f 71/85/8 51/69/8 54/72/8 74/87/8
f 69/83/8 44/65/8 49/67/8 70/84/8
f 68/82/8 43/64/313 44/65/8 69/83/8
f 70/84/8 49/67/8 51/69/8 71/85/8
f 67/81/8 42/63/8 43/64/313 68/82/8
f 66/80/8 41/62/8 42/63/8 67/81/8
f 65/79/8 40/61/8 41/62/8 66/80/8
f 64/78/8 39/60/8 40/61/8 65/79/8
f 63/77/8 36/59/8 39/60/8 64/78/8
f 37/57/8 38/58/8 36/59/8 63/77/8
f 398/209/314 400/210/315 397/211/316
f 399/212/317 400/210/315 398/209/314
f 403/213/318 401/214/319 402/215/320
f 407/8/321 404/11/321 406/10/321 405/9/321
f 468/12/321 441/15/321 443/14/321 442/13/321
f 483/16/321 482/19/321 456/18/321 457/17/321
f 480/20/321 477/23/321 453/22/321 454/21/321
f 481/24/321 480/20/321 454/21/321 455/25/321
f 274/16/9 483/16/9 597/26/322 392/26/10
f 476/27/321 478/30/321 430/29/321 431/28/321
f 431/28/321 430/29/321 427/32/321 429/31/321
f 428/33/321 425/36/321 423/35/321 426/34/323
f 420/37/321 417/40/321 416/39/321 418/38/324
f 426/34/323 423/35/321 421/42/321 424/41/321
f 429/31/321 427/32/321 425/36/321 428/33/321
f 424/41/321 421/42/321 419/44/321 422/43/325
f 422/43/325 419/44/321 417/40/321 420/37/321
f 418/38/324 416/39/321 414/46/321 415/45/326
f 415/45/326 414/46/321 412/48/321 413/47/321
f 413/47/321 412/48/321 410/50/321 411/49/321
f 411/49/321 410/50/321 408/52/321 409/51/321
f 484/53/321 478/30/321 476/27/321 479/54/321
f 392/26/10 597/26/322 478/30/17 275/30/16
f 197/9/18 405/9/18 406/10/19 196/10/19
f 196/10/19 406/10/19 404/11/20 198/11/20
f 199/8/21 407/8/21 405/9/18 197/9/18
f 198/11/20 404/11/20 408/52/22 200/55/22
f 201/51/23 409/51/23 407/8/21 199/8/21
f 200/55/22 408/52/22 410/50/24 202/56/24
f 203/49/25 411/49/25 409/51/23 201/51/23
f 202/56/24 410/50/24 412/48/26 204/48/26
f 205/47/27 413/47/27 411/49/25 203/49/25
f 204/48/26 412/48/26 414/46/28 206/46/28
f 207/45/29 415/45/327 413/47/27 205/47/27
f 206/46/28 414/46/28 416/39/31 208/39/31
f 208/39/31 416/39/31 417/40/32 209/40/32
f 210/38/33 418/38/328 415/45/327 207/45/29
f 209/40/32 417/40/32 419/44/35 211/44/35
f 212/37/36 420/37/36 418/38/328 210/38/33
f 211/44/35 419/44/35 421/42/37 213/42/37
f 214/43/38 422/43/329 420/37/36 212/37/36
f 213/42/37 421/42/37 423/35/40 215/35/40
f 216/41/41 424/41/41 422/43/329 214/43/38
f 215/35/40 423/35/40 425/36/42 217/36/42
f 218/34/43 426/34/43 424/41/41 216/41/41
f 217/36/42 425/36/42 427/32/45 219/32/45
f 220/33/46 428/33/46 426/34/43 218/34/43
f 221/31/47 429/31/47 428/33/46 220/33/46
f 219/32/45 427/32/45 430/29/48 222/29/48
f 223/28/49 431/28/49 429/31/47 221/31/47
f 225/57/50 433/57/50 434/58/51 224/58/51
f 224/58/51 434/58/51 432/59/52 226/59/52
f 226/59/52 432/59/52 435/60/53 227/60/53
f 227/60/53 435/60/53 436/61/54 228/61/54
f 228/61/54 436/61/54 437/62/55 229/62/55
f 229/62/55 437/62/55 438/63/56 230/63/56
f 230/63/56 438/63/56 439/64/330 231/64/57
f 231/64/57 439/64/330 440/65/59 232/65/59
f 234/13/60 442/13/60 443/14/61 233/14/61
f 233/14/61 443/14/61 441/15/62 235/15/62
f 236/66/63 444/66/63 442/13/60 234/13/60
f 232/65/59 440/65/59 445/67/64 237/67/64
f 238/68/65 446/68/65 444/66/63 236/66/63
f 237/67/64 445/67/64 447/69/66 239/69/66
f 240/70/67 448/70/67 446/68/65 238/68/65
f 241/71/68 449/71/68 448/70/67 240/70/67
f 239/69/66 447/69/66 450/72/69 242/72/69
f 243/73/70 451/73/70 449/71/68 241/71/68
f 242/72/69 450/72/69 452/74/71 244/74/71
f 245/22/72 453/22/72 451/73/70 243/73/70
f 246/21/73 454/21/73 453/22/72 245/22/72
f 244/74/71 452/74/71 431/28/49 223/28/49
f 247/25/74 455/25/74 454/21/73 246/21/73
f 248/75/75 456/18/75 455/25/74 247/25/74
f 249/17/76 457/17/76 456/18/75 248/75/75
f 250/76/77 458/76/77 457/17/76 249/17/76
f 222/29/48 430/29/48 458/76/77 250/76/77
f 251/77/78 459/77/78 433/57/50 225/57/50
f 252/78/79 460/78/79 459/77/78 251/77/78
f 253/79/80 461/79/80 460/78/79 252/78/79
f 254/80/81 462/80/81 461/79/80 253/79/80
f 255/81/82 463/81/82 462/80/81 254/80/81
f 256/82/83 464/82/83 463/81/82 255/81/82
f 257/83/84 465/83/84 464/82/83 256/82/83
f 258/84/85 466/84/85 465/83/84 257/83/84
f 259/85/86 467/85/86 466/84/85 258/84/85
f 235/15/62 441/15/62 468/12/87 260/12/87
f 260/12/87 468/12/87 469/86/88 261/86/88
f 262/87/89 470/87/89 467/85/86 259/85/86
f 261/86/88 469/86/88 471/88/90 263/88/90
f 263/88/90 471/88/90 472/89/91 264/89/91
f 265/90/92 473/90/92 470/87/89 262/87/89
f 264/89/91 472/89/91 474/91/93 266/91/93
f 266/91/93 474/91/93 475/92/94 267/92/94
f 268/27/95 476/27/95 473/90/92 265/90/92
f 267/92/94 475/92/94 477/23/96 269/23/96
f 270/54/97 479/54/97 476/27/95 268/27/95
f 269/23/96 477/23/96 480/20/98 271/20/98
f 271/20/98 480/20/98 481/24/99 272/24/99
f 272/24/99 481/24/99 482/19/100 273/19/100
f 273/19/100 482/19/100 483/16/9 274/16/9
f 473/90/321 476/27/321 431/28/321 452/74/321
f 409/51/321 408/52/321 404/11/321 407/8/321
f 543/93/321 546/96/321 598/95/321 526/94/321
f 277/97/101 485/97/101 479/54/97 270/54/97
f 394/98/102 596/100/331 486/99/103 278/99/103
f 279/101/105 487/101/105 485/97/101 277/97/101
f 275/30/16 478/30/17 484/53/106 276/53/106
f 281/102/107 489/102/107 487/101/105 279/101/105
f 282/103/108 490/103/108 489/102/107 281/102/107
f 391/104/109 595/104/332 491/105/110 283/105/110
f 284/106/112 492/106/112 490/103/108 282/103/108
f 389/107/113 594/107/333 493/108/114 285/108/114
f 286/109/116 494/109/116 492/106/112 284/106/112
f 287/110/117 495/110/117 494/109/116 286/109/116
f 289/111/118 497/111/118 498/112/119 288/112/119
f 288/112/119 498/112/119 496/113/120 290/113/120
f 290/113/120 496/113/120 499/114/121 291/114/121
f 292/115/122 500/115/122 497/111/118 289/111/118
f 291/114/121 499/114/121 501/116/123 293/116/123
f 387/117/124 593/117/334 502/118/125 294/118/125
f 293/116/123 501/116/123 503/119/127 295/119/127
f 296/120/128 504/120/128 500/115/122 292/115/122
f 295/119/127 503/119/127 505/121/129 297/121/129
f 297/121/129 505/121/129 506/122/130 298/122/130
f 299/123/131 507/123/131 504/120/128 296/120/128
f 300/124/132 508/124/132 495/110/117 287/110/117
f 298/122/130 506/122/130 509/125/133 301/125/133
f 302/126/134 510/126/134 507/123/131 299/123/131
f 301/125/133 509/125/133 511/127/135 303/127/135
f 385/128/136 592/128/335 512/129/137 304/129/137
f 303/127/135 511/127/135 513/130/139 305/130/139
f 306/131/140 514/131/140 508/124/132 300/124/132
f 307/132/141 515/132/141 510/126/134 302/126/134
f 305/130/139 513/130/139 516/133/142 308/133/142
f 309/134/143 517/134/143 514/131/140 306/131/140
f 310/135/144 518/135/144 515/132/141 307/132/141
f 308/133/142 516/133/142 519/136/145 311/136/145
f 304/129/137 512/129/137 521/137/146 312/137/146
f 314/138/147 522/138/336 520/139/337 313/139/148
f 313/139/148 520/139/337 523/140/338 315/140/151
f 316/141/153 524/141/339 522/138/336 314/138/147
f 315/140/151 523/140/338 525/142/340 317/142/155
f 318/94/157 526/94/157 517/134/143 309/134/143
f 319/143/158 527/143/341 524/141/339 316/141/153
f 311/136/145 519/136/145 526/94/157 318/94/157
f 317/142/155 525/142/340 528/144/342 320/144/160
f 321/145/162 529/145/162 518/135/144 310/135/144
f 322/146/163 530/146/343 527/143/341 319/143/158
f 320/144/160 528/144/342 531/147/344 323/147/165
f 324/148/167 532/148/345 530/146/343 322/146/163
f 323/147/165 531/147/344 533/149/346 325/149/169
f 326/150/171 534/150/347 532/148/345 324/148/167
f 325/149/169 533/149/346 535/151/348 327/151/173
f 328/152/175 536/152/175 529/145/162 321/145/162
f 312/137/146 521/137/146 537/153/176 329/153/176
f 330/154/177 538/154/349 534/150/347 326/150/171
f 327/151/173 535/151/348 539/155/350 331/155/179
f 332/156/181 540/156/351 538/154/349 330/154/177
f 333/157/183 541/157/183 536/152/175 328/152/175
f 331/155/179 539/155/350 542/158/352 334/158/184
f 335/93/186 543/93/186 540/156/351 332/156/181
f 329/153/176 537/153/176 544/159/187 336/159/187
f 334/158/184 542/158/352 545/160/353 337/160/188
f 338/96/190 546/96/190 543/93/186 335/93/186
f 339/161/191 547/161/191 541/157/183 333/157/183
f 337/160/188 545/160/353 548/162/354 340/162/192
f 341/163/194 549/163/194 546/96/190 338/96/190
f 336/159/187 544/159/187 550/164/355 342/164/195
f 340/162/192 548/162/354 551/165/356 343/165/197
f 344/166/199 552/166/199 549/163/194 341/163/194
f 345/167/200 553/167/200 547/161/191 339/161/191
f 342/164/195 550/164/355 554/168/201 346/168/201
f 343/165/197 551/165/356 555/169/357 347/169/202
f 348/170/204 556/170/358 552/166/199 344/166/199
f 349/171/206 557/171/359 556/170/358 348/170/204
f 350/172/208 558/172/360 557/171/359 349/171/206
f 351/173/210 559/173/210 553/167/200 345/167/200
f 352/174/211 560/174/361 558/172/360 350/172/208
f 347/169/202 555/169/357 561/175/362 353/175/213
f 354/176/215 562/177/363 560/174/361 352/174/211
f 355/178/217 563/179/364 562/177/363 354/176/215
f 357/180/219 564/180/219 565/181/365 356/181/220
f 346/168/201 554/168/201 564/180/219 357/180/219
f 356/181/220 565/181/365 566/182/366 358/182/222
f 358/182/222 566/182/366 567/183/367 359/183/224
f 359/183/224 567/183/367 568/184/368 360/184/226
f 360/184/226 568/184/368 569/185/369 361/185/228
f 361/185/228 569/185/369 563/179/364 355/178/217
f 353/175/213 561/175/362 570/186/370 362/186/230
f 363/187/232 571/187/232 559/173/210 351/173/210
f 362/186/230 570/186/370 572/188/371 364/188/233
f 365/189/235 573/189/235 571/187/232 363/187/232
f 364/188/233 572/188/371 574/190/372 366/190/236
f 366/190/236 574/190/372 575/191/373 367/191/238
f 368/192/240 576/192/240 573/189/235 365/189/235
f 367/191/238 575/191/373 577/193/374 369/193/241
f 369/193/241 577/193/374 578/194/375 370/194/243
f 371/195/245 579/195/245 576/192/240 368/192/240
f 370/194/243 578/194/375 580/196/376 372/196/246
f 374/197/248 582/197/377 583/198/249 373/198/249
f 373/198/249 583/198/249 581/199/251 375/199/251
f 372/196/246 580/196/376 584/200/378 376/200/252
f 377/201/254 585/201/379 582/197/377 374/197/248
f 376/200/252 584/200/378 585/201/379 377/201/254
f 378/202/256 586/202/256 579/195/245 371/195/245
f 379/203/257 587/203/257 586/202/256 378/202/256
f 380/204/258 588/204/258 587/203/257 379/203/257
f 381/205/259 589/205/259 588/204/258 380/204/258
f 375/199/251 581/199/251 590/206/260 382/206/260
f 382/206/260 590/206/260 591/207/261 383/207/261
f 383/207/261 591/207/261 589/205/259 381/205/259
f 552/166/321 556/170/380 557/171/381 558/172/382 560/174/383 562/177/384 563/179/385 569/185/386 568/184/387 567/183/388 566/182/389 565/181/390 564/180/321 554/168/321 550/164/391 544/159/321
f 585/201/392 584/200/393 580/196/394 578/194/395 577/193/396 575/191/397 574/190/398 572/188/399 570/186/400 561/175/401 555/169/402 551/165/403 548/162/404 545/160/405 542/158/406 539/155/407 535/151/408 533/149/409 531/147/410 528/144/411 525/142/412 523/140/413 520/139/414 522/138/415 524/141/416 527/143/417 530/146/418 532/148/419 534/150/420 538/154/421 540/156/422 543/93/321 526/94/321 519/136/321 516/133/321 513/130/321 511/127/321 509/125/321 506/122/321 505/121/321 503/119/321 501/116/321 499/114/321 496/113/321 498/112/321 497/111/321 500/115/321 504/120/321 507/123/321 510/126/321 515/132/321 518/135/321 529/145/321 536/152/321 541/157/321 547/161/321 553/167/321 559/173/321 571/187/321 573/189/321 576/192/321 579/195/321 586/202/321 587/203/321 588/204/321 589/205/321 591/207/321 590/206/321 581/199/321 583/198/321 582/197/423
f 526/94/321 598/95/321 521/137/321 512/129/321
f 546/96/321 549/163/321 537/153/321 521/137/321 598/95/321
f 549/163/321 552/166/321 544/159/321 537/153/321
f 294/118/125 502/118/125 592/128/335 385/128/136
f 285/108/114 493/108/114 593/117/334 387/117/124
f 283/105/110 491/105/110 594/107/333 389/107/113
f 280/208/306 488/208/306 595/104/332 391/104/109
f 471/88/321 469/86/321 444/66/321 446/68/321
f 276/53/106 484/53/106 596/100/331 394/98/102
f 469/86/321 468/12/321 442/13/321 444/66/321
f 512/129/321 592/128/424 517/134/321 526/94/321
f 592/128/424 502/118/321 514/131/321 517/134/321
f 502/118/321 593/117/425 508/124/321 514/131/321
f 593/117/425 493/108/321 495/110/321 508/124/321
f 493/108/321 594/107/426 494/109/321 495/110/321
f 594/107/426 491/105/321 492/106/321 494/109/321
f 491/105/321 595/104/427 490/103/321 492/106/321
f 595/104/427 488/208/321 489/102/321 490/103/321
f 488/208/321 486/99/321 487/101/321 489/102/321
f 486/99/321 596/100/428 485/97/321 487/101/321
f 596/100/428 484/53/321 479/54/321 485/97/321
f 278/99/103 486/99/103 488/208/306 280/208/306
f 472/89/321 471/88/321 446/68/321 448/70/321
f 474/91/321 472/89/321 448/70/321 449/71/321
f 475/92/321 474/91/321 449/71/321 451/73/321
f 477/23/321 475/92/321 451/73/321 453/22/321
f 482/19/321 481/24/321 455/25/321 456/18/321
f 597/26/429 483/16/321 457/17/321 458/76/321
f 478/30/321 597/26/429 458/76/321 430/29/321
f 470/87/321 473/90/321 452/74/321 450/72/321
f 467/85/321 470/87/321 450/72/321 447/69/321
f 465/83/321 466/84/321 445/67/321 440/65/321
f 464/82/321 465/83/321 440/65/321 439/64/430
f 466/84/321 467/85/321 447/69/321 445/67/321
f 463/81/321 464/82/321 439/64/430 438/63/321
f 462/80/321 463/81/321 438/63/321 437/62/321
f 461/79/321 462/80/321 437/62/321 436/61/321
f 460/78/321 461/79/321 436/61/321 435/60/321
f 459/77/321 460/78/321 435/60/321 432/59/321
f 433/57/321 459/77/321 432/59/321 434/58/321
s 0
f 599/216/431 600/217/431 602/218/431 601/219/431
f 601/219/432 602/218/432 606/220/432 605/221/432
f 605/221/433 606/220/433 604/222/433 603/223/433
f 603/223/434 604/222/434 600/224/434 599/225/434
f 601/226/321 605/221/321 603/223/321 599/227/321
f 606/220/8 602/228/8 600/229/8 604/222/8
