# Blender 4.4.1
# www.blender.org
mtllib Title_Ice7.mtl
o 7.な
v 0.681635 -0.000000 -0.210864
v 0.759035 -0.000000 -0.324384
v 0.736533 -0.000000 -0.340842
v 0.709880 -0.000000 -0.359007
v 0.679727 -0.000000 -0.378511
v 0.646725 -0.000000 -0.398981
v 0.611526 -0.000000 -0.420049
v 0.574780 -0.000000 -0.441344
v 0.537139 -0.000000 -0.462496
v 0.499252 -0.000000 -0.483134
v 0.461772 -0.000000 -0.502888
v 0.425348 -0.000000 -0.521388
v 0.390632 -0.000000 -0.538263
v 0.358274 -0.000000 -0.553144
v 0.287755 -0.000000 -0.448224
v 0.317939 -0.000000 -0.434225
v 0.350495 -0.000000 -0.418220
v 0.384854 -0.000000 -0.400494
v 0.420450 -0.000000 -0.381336
v 0.456714 -0.000000 -0.361030
v 0.493080 -0.000000 -0.339864
v 0.528980 -0.000000 -0.318126
v 0.563847 -0.000000 -0.296100
v 0.597113 -0.000000 -0.274074
v 0.628212 -0.000000 -0.252335
v 0.656575 -0.000000 -0.231170
v 0.225835 0.000000 0.293096
v 0.227555 0.000000 0.370496
v 0.226525 0.000000 0.393719
v 0.223327 0.000000 0.415956
v 0.217800 0.000000 0.437011
v 0.209782 0.000000 0.456687
v 0.199113 0.000000 0.474786
v 0.185630 0.000000 0.491111
v 0.169174 0.000000 0.505465
v 0.149582 0.000000 0.517651
v 0.126693 0.000000 0.527472
v 0.100347 0.000000 0.534732
v 0.070382 0.000000 0.539232
v 0.036635 0.000000 0.540776
v 0.004527 0.000000 0.539646
v -0.024727 0.000000 0.536324
v -0.051138 0.000000 0.530912
v -0.074719 0.000000 0.523512
v -0.095480 0.000000 0.514224
v -0.113435 0.000000 0.503151
v -0.128595 0.000000 0.490393
v -0.140972 0.000000 0.476053
v -0.150577 0.000000 0.460231
v -0.157423 0.000000 0.443030
v -0.161522 0.000000 0.424551
v -0.162886 0.000000 0.404896
v -0.161121 0.000000 0.385568
v -0.155934 0.000000 0.367231
v -0.147486 0.000000 0.350017
v -0.135939 0.000000 0.334057
v -0.121454 0.000000 0.319483
v -0.104191 0.000000 0.306426
v -0.084313 0.000000 0.295017
v -0.061980 0.000000 0.285388
v -0.037353 0.000000 0.277669
v -0.010595 -0.000000 0.271994
v 0.018135 -0.000000 0.268492
v 0.048674 -0.000000 0.267296
v 0.064116 -0.000000 0.267475
v 0.079475 -0.000000 0.268012
v 0.094739 -0.000000 0.268908
v 0.109894 -0.000000 0.270162
v 0.124931 -0.000000 0.271775
v 0.139836 -0.000000 0.273746
v 0.154597 -0.000000 0.276075
v 0.169203 0.000000 0.278762
v 0.183642 0.000000 0.281808
v 0.197901 0.000000 0.285212
v 0.211970 0.000000 0.288975
v 0.337635 -0.000000 -0.257304
v 0.203475 -0.000000 -0.257304
v 0.204438 -0.000000 -0.225816
v 0.205593 -0.000000 -0.192589
v 0.206915 -0.000000 -0.157894
v 0.208379 -0.000000 -0.121998
v 0.209964 -0.000000 -0.085170
v 0.211645 -0.000000 -0.047679
v 0.213397 -0.000000 -0.009795
v 0.215196 -0.000000 0.028216
v 0.217020 -0.000000 0.066082
v 0.218843 -0.000000 0.103537
v 0.220643 -0.000000 0.140311
v 0.222395 -0.000000 0.176136
v 0.208994 -0.000000 0.173268
v 0.195455 -0.000000 0.170681
v 0.181786 -0.000000 0.168369
v 0.167991 -0.000000 0.166325
v 0.154077 -0.000000 0.164545
v 0.140050 -0.000000 0.163021
v 0.125914 -0.000000 0.161748
v 0.111678 -0.000000 0.160719
v 0.097345 -0.000000 0.159930
v 0.082923 -0.000000 0.159374
v 0.068417 -0.000000 0.159044
v 0.053835 -0.000000 0.158936
v 0.006237 -0.000000 0.160990
v -0.039133 -0.000000 0.167058
v -0.081911 -0.000000 0.176996
v -0.121733 -0.000000 0.190660
v -0.158234 -0.000000 0.207908
v -0.191050 -0.000000 0.228596
v -0.219817 -0.000000 0.252580
v -0.244171 0.000000 0.279718
v -0.263748 0.000000 0.309866
v -0.278181 0.000000 0.342880
v -0.287109 0.000000 0.378618
v -0.290165 0.000000 0.416936
v -0.287010 0.000000 0.457580
v -0.277822 0.000000 0.494407
v -0.263021 0.000000 0.527472
v -0.243024 0.000000 0.556829
v -0.218250 0.000000 0.582530
v -0.189115 0.000000 0.604631
v -0.156039 0.000000 0.623183
v -0.119438 0.000000 0.638242
v -0.079733 0.000000 0.649861
v -0.037340 0.000000 0.658094
v 0.007322 0.000000 0.662994
v 0.053835 0.000000 0.664616
v 0.104561 0.000000 0.662336
v 0.150186 0.000000 0.655697
v 0.190843 0.000000 0.644997
v 0.226662 0.000000 0.630534
v 0.257776 0.000000 0.612607
v 0.284315 0.000000 0.591516
v 0.306410 0.000000 0.567557
v 0.324194 0.000000 0.541030
v 0.337796 0.000000 0.512234
v 0.347350 0.000000 0.481467
v 0.352986 0.000000 0.449028
v 0.354834 0.000000 0.415216
v 0.353115 0.000000 0.342976
v 0.380670 0.000000 0.357182
v 0.407438 0.000000 0.372200
v 0.433417 0.000000 0.387911
v 0.458607 0.000000 0.404195
v 0.483010 0.000000 0.420933
v 0.506624 0.000000 0.438006
v 0.529450 0.000000 0.455293
v 0.551488 0.000000 0.472676
v 0.572736 0.000000 0.490036
v 0.593198 0.000000 0.507252
v 0.612870 0.000000 0.524205
v 0.631755 0.000000 0.540776
v 0.705715 0.000000 0.423816
v 0.682712 0.000000 0.404739
v 0.658431 0.000000 0.385442
v 0.632884 0.000000 0.366061
v 0.606083 0.000000 0.346734
v 0.578039 0.000000 0.327598
v 0.548765 0.000000 0.308791
v 0.518273 0.000000 0.290449
v 0.486575 -0.000000 0.272711
v 0.453682 -0.000000 0.255713
v 0.419606 -0.000000 0.239593
v 0.384360 -0.000000 0.224488
v 0.347954 -0.000000 0.210536
v 0.335914 -0.000000 -0.071544
v 0.335521 -0.000000 -0.086860
v 0.335206 -0.000000 -0.101907
v 0.334974 -0.000000 -0.116775
v 0.334832 -0.000000 -0.131553
v 0.334785 -0.000000 -0.146331
v 0.334839 -0.000000 -0.161199
v 0.335002 -0.000000 -0.176246
v 0.335277 -0.000000 -0.191562
v 0.335672 -0.000000 -0.207236
v 0.336193 -0.000000 -0.223358
v 0.336845 -0.000000 -0.240018
v -0.068285 -0.000000 -0.788785
v -0.219646 -0.000000 -0.802544
v -0.220925 -0.000000 -0.779018
v -0.222998 -0.000000 -0.754942
v -0.225800 -0.000000 -0.730412
v -0.229265 -0.000000 -0.705524
v -0.233326 -0.000000 -0.680373
v -0.237920 -0.000000 -0.655054
v -0.242979 -0.000000 -0.629665
v -0.248439 -0.000000 -0.604298
v -0.254234 -0.000000 -0.579052
v -0.260296 -0.000000 -0.554020
v -0.266562 -0.000000 -0.529299
v -0.272966 -0.000000 -0.504984
v -0.289699 -0.000000 -0.503731
v -0.306355 -0.000000 -0.502556
v -0.322927 -0.000000 -0.501464
v -0.339409 -0.000000 -0.500461
v -0.355796 -0.000000 -0.499555
v -0.372081 -0.000000 -0.498749
v -0.388259 -0.000000 -0.498052
v -0.404324 -0.000000 -0.497467
v -0.420268 -0.000000 -0.497003
v -0.436088 -0.000000 -0.496663
v -0.451776 -0.000000 -0.496455
v -0.467326 -0.000000 -0.496384
v -0.485415 -0.000000 -0.496457
v -0.503534 -0.000000 -0.496679
v -0.521640 -0.000000 -0.497056
v -0.539693 -0.000000 -0.497595
v -0.557651 -0.000000 -0.498301
v -0.575471 -0.000000 -0.499180
v -0.593112 -0.000000 -0.500238
v -0.610532 -0.000000 -0.501481
v -0.627690 -0.000000 -0.502915
v -0.644542 -0.000000 -0.504547
v -0.661048 -0.000000 -0.506381
v -0.677165 -0.000000 -0.508424
v -0.668565 -0.000000 -0.379424
v -0.652091 -0.000000 -0.378600
v -0.635384 -0.000000 -0.377848
v -0.618497 -0.000000 -0.377167
v -0.601486 -0.000000 -0.376558
v -0.584402 -0.000000 -0.376020
v -0.567301 -0.000000 -0.375554
v -0.550235 -0.000000 -0.375160
v -0.533259 -0.000000 -0.374838
v -0.516426 -0.000000 -0.374587
v -0.499791 -0.000000 -0.374408
v -0.483405 -0.000000 -0.374300
v -0.467326 -0.000000 -0.374264
v -0.454821 -0.000000 -0.374300
v -0.442251 -0.000000 -0.374408
v -0.429620 -0.000000 -0.374587
v -0.416936 -0.000000 -0.374838
v -0.404205 -0.000000 -0.375160
v -0.391431 -0.000000 -0.375554
v -0.378621 -0.000000 -0.376020
v -0.365782 -0.000000 -0.376558
v -0.352919 -0.000000 -0.377167
v -0.340038 -0.000000 -0.377848
v -0.327145 -0.000000 -0.378600
v -0.314246 -0.000000 -0.379424
v -0.335382 -0.000000 -0.327679
v -0.359068 -0.000000 -0.273485
v -0.385061 -0.000000 -0.217476
v -0.413113 -0.000000 -0.160284
v -0.442981 -0.000000 -0.102542
v -0.474420 -0.000000 -0.044884
v -0.507184 -0.000000 0.012057
v -0.541030 -0.000000 0.067648
v -0.575712 -0.000000 0.121257
v -0.610984 -0.000000 0.172250
v -0.646604 -0.000000 0.219994
v -0.682326 -0.000000 0.263856
v -0.549885 0.000000 0.332656
v -0.515211 0.000000 0.283983
v -0.480185 -0.000000 0.231231
v -0.445099 -0.000000 0.174980
v -0.410246 -0.000000 0.115808
v -0.375919 -0.000000 0.054295
v -0.342409 -0.000000 -0.008979
v -0.310011 -0.000000 -0.073437
v -0.279017 -0.000000 -0.138497
v -0.249718 -0.000000 -0.203581
v -0.222408 -0.000000 -0.268110
v -0.197379 -0.000000 -0.331504
v -0.174925 -0.000000 -0.393184
v -0.146660 -0.000000 -0.397196
v -0.118652 -0.000000 -0.401482
v -0.090942 -0.000000 -0.406031
v -0.063572 -0.000000 -0.410830
v -0.036585 -0.000000 -0.415869
v -0.010022 -0.000000 -0.421134
v 0.016076 -0.000000 -0.426615
v 0.041666 -0.000000 -0.432298
v 0.066706 -0.000000 -0.438173
v 0.091156 -0.000000 -0.444227
v 0.114972 -0.000000 -0.450448
v 0.138115 -0.000000 -0.456824
v 0.134675 -0.000000 -0.585824
v 0.112642 -0.000000 -0.578693
v 0.090424 -0.000000 -0.571913
v 0.068051 -0.000000 -0.565480
v 0.045553 -0.000000 -0.559387
v 0.022959 -0.000000 -0.553629
v 0.000300 -0.000000 -0.548199
v -0.022395 -0.000000 -0.543092
v -0.045097 -0.000000 -0.538301
v -0.067774 -0.000000 -0.533821
v -0.090398 -0.000000 -0.529646
v -0.112938 -0.000000 -0.525769
v -0.135365 -0.000000 -0.522184
v -0.128559 -0.000000 -0.547204
v -0.121915 -0.000000 -0.572272
v -0.115450 -0.000000 -0.597220
v -0.109183 -0.000000 -0.621881
v -0.103130 -0.000000 -0.646088
v -0.097309 -0.000000 -0.669675
v -0.091740 -0.000000 -0.692472
v -0.086439 -0.000000 -0.714315
v -0.081426 -0.000000 -0.735034
v -0.076717 -0.000000 -0.754464
v -0.072330 -0.000000 -0.772437
v -0.220925 0.199906 -0.779018
v -0.068285 0.199906 -0.788785
v -0.219646 0.199906 -0.802544
v -0.072330 0.199906 -0.772437
v -0.222998 0.199906 -0.754942
v -0.076717 0.199906 -0.754464
v -0.225800 0.199906 -0.730412
v -0.081426 0.199906 -0.735034
v -0.086439 0.199906 -0.714315
v -0.229265 0.199906 -0.705524
v -0.091740 0.199906 -0.692472
v -0.233326 0.199906 -0.680373
v -0.097309 0.199906 -0.669675
v -0.237920 0.199906 -0.655054
v -0.103130 0.199906 -0.646088
v -0.242979 0.199906 -0.629665
v -0.109183 0.199906 -0.621881
v -0.248439 0.199906 -0.604298
v -0.115450 0.199906 -0.597220
v -0.254234 0.199906 -0.579052
v -0.121915 0.199906 -0.572272
v 0.112642 0.199906 -0.578693
v 0.138115 0.199906 -0.456824
v 0.134675 0.199906 -0.585824
v -0.260296 0.199906 -0.554020
v 0.090424 0.199906 -0.571913
v -0.128559 0.199906 -0.547204
v 0.068051 0.199906 -0.565480
v 0.045553 0.199906 -0.559387
v 0.022959 0.199906 -0.553629
v -0.266562 0.199906 -0.529299
v 0.000300 0.199906 -0.548200
v 0.287755 0.199906 -0.448224
v 0.390632 0.199906 -0.538264
v 0.358274 0.199906 -0.553144
v -0.022395 0.199906 -0.543092
v -0.135365 0.199906 -0.522184
v -0.045097 0.199906 -0.538302
v -0.067774 0.199906 -0.533821
v 0.425348 0.199906 -0.521388
v -0.090398 0.199906 -0.529646
v -0.112938 0.199906 -0.525769
v -0.272966 0.199906 -0.504984
v 0.461772 0.199906 -0.502888
v -0.668565 0.199906 -0.379424
v -0.661048 0.199906 -0.506381
v -0.677165 0.199906 -0.508425
v -0.644542 0.199906 -0.504547
v -0.289699 0.199906 -0.503731
v -0.627690 0.199906 -0.502915
v -0.306355 0.199906 -0.502556
v -0.610532 0.199906 -0.501481
v 0.499252 0.199906 -0.483134
v -0.322927 0.199906 -0.501464
v -0.593112 0.199906 -0.500238
v -0.339409 0.199906 -0.500461
v -0.355796 0.199906 -0.499555
v -0.575471 0.199906 -0.499180
v -0.372081 0.199906 -0.498749
v -0.557651 0.199906 -0.498301
v -0.388259 0.199906 -0.498052
v -0.539693 0.199906 -0.497595
v -0.404324 0.199906 -0.497467
v -0.521640 0.199906 -0.497056
v -0.420268 0.199906 -0.497003
v -0.503534 0.199906 -0.496679
v -0.436088 0.199906 -0.496663
v -0.485415 0.199906 -0.496457
v -0.451776 0.199906 -0.496455
v -0.467326 0.199906 -0.496384
v 0.537139 0.199906 -0.462496
v 0.574780 0.199906 -0.441344
v 0.114972 0.199906 -0.450448
v 0.091156 0.199906 -0.444227
v 0.317939 0.199906 -0.434226
v 0.066706 0.199906 -0.438173
v 0.611526 0.199906 -0.420049
v 0.041666 0.199906 -0.432298
v 0.350495 0.199906 -0.418220
v 0.016076 0.199906 -0.426615
v -0.010022 0.199906 -0.421134
v -0.036585 0.199906 -0.415869
v 0.646725 0.199906 -0.398981
v 0.384854 0.199906 -0.400494
v -0.063572 0.199906 -0.410830
v -0.090942 0.199906 -0.406031
v -0.118652 0.199906 -0.401482
v -0.146660 0.199906 -0.397196
v 0.420450 0.199906 -0.381336
v 0.679727 0.199906 -0.378511
v -0.174925 0.199906 -0.393184
v -0.314246 0.199906 -0.379424
v -0.197379 0.199906 -0.331504
v 0.456714 0.199906 -0.361030
v -0.652091 0.199906 -0.378600
v -0.327145 0.199906 -0.378600
v -0.335382 0.199906 -0.327679
v -0.340038 0.199906 -0.377848
v -0.635384 0.199906 -0.377848
v 0.709880 0.199906 -0.359007
v -0.352919 0.199906 -0.377167
v -0.618497 0.199906 -0.377167
v -0.365782 0.199906 -0.376558
v -0.601486 0.199906 -0.376558
v -0.378621 0.199906 -0.376020
v -0.584402 0.199906 -0.376020
v -0.391431 0.199906 -0.375554
v -0.567301 0.199906 -0.375554
v -0.404205 0.199906 -0.375160
v -0.550235 0.199906 -0.375160
v -0.416936 0.199906 -0.374838
v -0.533259 0.199906 -0.374838
v -0.429620 0.199906 -0.374587
v -0.516426 0.199906 -0.374587
v -0.442251 0.199906 -0.374408
v -0.499791 0.199906 -0.374408
v -0.454821 0.199906 -0.374300
v -0.483405 0.199906 -0.374300
v -0.467326 0.199906 -0.374264
v 0.493080 0.199906 -0.339864
v 0.736533 0.199906 -0.340842
v 0.759035 0.199906 -0.324384
v 0.528980 0.199906 -0.318126
v -0.222408 0.199906 -0.268110
v -0.359068 0.199906 -0.273485
v 0.563847 0.199906 -0.296100
v 0.597113 0.199906 -0.274074
v 0.628212 0.199906 -0.252336
v 0.656575 0.199906 -0.231170
v 0.681635 0.199906 -0.210864
v -0.385061 0.199906 -0.217476
v -0.249718 0.199906 -0.203581
v 0.204438 0.199906 -0.225816
v 0.337635 0.199906 -0.257304
v 0.203475 0.199906 -0.257304
v 0.336845 0.199906 -0.240018
v 0.336193 0.199906 -0.223358
v 0.205593 0.199906 -0.192589
v 0.335672 0.199906 -0.207236
v -0.413113 0.199906 -0.160284
v 0.335277 0.199906 -0.191562
v -0.279017 0.199906 -0.138497
v 0.206915 0.199906 -0.157894
v 0.335002 0.199906 -0.176246
v 0.334839 0.199906 -0.161199
v 0.334785 0.199906 -0.146332
v -0.442981 0.199906 -0.102542
v 0.208379 0.199906 -0.121998
v 0.334832 0.199906 -0.131553
v -0.310011 0.199906 -0.073437
v 0.334974 0.199906 -0.116775
v 0.209964 0.199906 -0.085170
v 0.335206 0.199906 -0.101907
v -0.474420 0.199906 -0.044884
v 0.335521 0.199906 -0.086860
v 0.335914 0.199906 -0.071544
v 0.211645 0.199906 -0.047679
v -0.342409 0.199906 -0.008979
v 0.347954 0.199906 0.210536
v 0.213397 0.199906 -0.009795
v -0.507184 0.199906 0.012057
v 0.215196 0.199906 0.028216
v -0.375919 0.199906 0.054295
v -0.541030 0.199906 0.067648
v 0.217020 0.199906 0.066082
v -0.410246 0.199906 0.115808
v 0.218843 0.199906 0.103537
v -0.575712 0.199906 0.121257
v 0.220643 0.199906 0.140311
v -0.445099 0.199906 0.174980
v -0.610984 0.199906 0.172250
v 0.222395 0.199906 0.176136
v 0.006237 0.199906 0.160990
v 0.068417 0.199906 0.159044
v 0.053835 0.199906 0.158936
v 0.082923 0.199906 0.159374
v 0.097345 0.199906 0.159930
v 0.111678 0.199906 0.160719
v 0.125914 0.199906 0.161748
v -0.039133 0.199906 0.167058
v 0.140050 0.199906 0.163021
v 0.154077 0.199906 0.164545
v 0.167991 0.199906 0.166325
v 0.181786 0.199906 0.168369
v -0.081911 0.199906 0.176996
v 0.195455 0.199906 0.170681
v 0.208994 0.199906 0.173268
v -0.646604 0.199906 0.219994
v -0.480185 0.199906 0.231231
v -0.121733 0.199906 0.190660
v -0.158234 0.199906 0.207908
v -0.191050 0.199906 0.228596
v 0.384360 0.199906 0.224488
v -0.682326 0.199906 0.263856
v 0.419606 0.199906 0.239592
v -0.219817 0.199906 0.252580
v -0.515211 0.199906 0.283983
v 0.453682 0.199906 0.255713
v -0.244171 0.199906 0.279718
v 0.018135 0.199906 0.268492
v 0.048674 0.199906 0.267296
v 0.064116 0.199906 0.267475
v 0.486575 0.199906 0.272710
v -0.549885 0.199906 0.332656
v 0.079475 0.199906 0.268012
v 0.094739 0.199906 0.268908
v -0.010595 0.199906 0.271994
v 0.109894 0.199906 0.270162
v 0.124931 0.199906 0.271775
v 0.139836 0.199906 0.273746
v -0.037353 0.199906 0.277669
v 0.518273 0.199906 0.290449
v 0.154597 0.199906 0.276075
v 0.169203 0.199906 0.278762
v -0.061980 0.199906 0.285387
v 0.183642 0.199906 0.281808
v -0.263748 0.199906 0.309866
v 0.197901 0.199906 0.285212
v 0.211970 0.199906 0.288975
v -0.084313 0.199906 0.295017
v 0.225835 0.199906 0.293096
v 0.548765 0.199906 0.308791
v 0.227555 0.199906 0.370496
v 0.353115 0.199906 0.342976
v -0.104191 0.199906 0.306426
v -0.121454 0.199906 0.319483
v 0.578039 0.199906 0.327598
v -0.278181 0.199906 0.342880
v -0.135939 0.199906 0.334057
v 0.606083 0.199906 0.346734
v -0.147486 0.199906 0.350017
v -0.287109 0.199906 0.378618
v 0.354834 0.199906 0.415216
v 0.380670 0.199906 0.357182
v 0.632884 0.199906 0.366061
v -0.155934 0.199906 0.367231
v 0.407438 0.199906 0.372200
v 0.658431 0.199906 0.385442
v -0.161121 0.199906 0.385568
v 0.226525 0.199906 0.393719
v 0.433417 0.199906 0.387911
v -0.290165 0.199906 0.416936
v 0.682712 0.199906 0.404739
v -0.162886 0.199906 0.404896
v 0.458607 0.199906 0.404195
v 0.223327 0.199906 0.415956
v 0.483010 0.199906 0.420933
v 0.705715 0.199906 0.423816
v -0.161522 0.199906 0.424551
v 0.352986 0.199906 0.449028
v 0.217800 0.199906 0.437011
v -0.287010 0.199906 0.457580
v 0.506624 0.199906 0.438006
v 0.529450 0.199906 0.455293
v 0.551488 0.199906 0.472676
v 0.572736 0.199906 0.490036
v 0.593198 0.199906 0.507252
v 0.612870 0.199906 0.524205
v 0.631755 0.199906 0.540776
v -0.157423 0.199906 0.443030
v 0.209782 0.199906 0.456687
v -0.150577 0.199906 0.460231
v 0.347350 0.199906 0.481467
v 0.199113 0.199906 0.474786
v -0.277822 0.199906 0.494407
v -0.140972 0.199906 0.476053
v 0.185630 0.199906 0.491111
v -0.128595 0.199906 0.490393
v 0.337796 0.199906 0.512234
v -0.113435 0.199906 0.503151
v 0.169174 0.199906 0.505465
v -0.263021 0.199906 0.527472
v -0.095480 0.199906 0.514224
v 0.149582 0.199906 0.517651
v 0.324194 0.199906 0.541030
v -0.074719 0.199906 0.523512
v 0.126693 0.199906 0.527472
v -0.051138 0.199906 0.530912
v 0.100347 0.199906 0.534732
v -0.243024 0.199906 0.556829
v -0.024727 0.199906 0.536324
v 0.070382 0.199906 0.539232
v 0.004527 0.199906 0.539646
v 0.036635 0.199906 0.540776
v 0.306410 0.199906 0.567557
v -0.218250 0.199906 0.582530
v 0.284315 0.199906 0.591516
v -0.189115 0.199906 0.604631
v 0.257776 0.199906 0.612607
v -0.156039 0.199906 0.623183
v 0.226662 0.199906 0.630534
v -0.119438 0.199906 0.638242
v 0.190843 0.199906 0.644997
v -0.079733 0.199906 0.649861
v 0.150186 0.199906 0.655697
v -0.037340 0.199906 0.658094
v 0.104561 0.199906 0.662336
v 0.007322 0.199906 0.662994
v 0.053835 0.199906 0.664616
v -1.000000 -1.000000 1.000000
v -1.000000 1.000000 1.000000
v -1.000000 -1.000000 -1.000000
v -1.000000 1.000000 -1.000000
v 1.000000 -1.000000 1.000000
v 1.000000 1.000000 1.000000
v 1.000000 -1.000000 -1.000000
v 1.000000 1.000000 -1.000000
vn -0.7018 -0.7107 -0.0493
vn -0.5349 -0.5755 -0.6187
vn 0.6694 -0.5698 -0.4767
vn 0.6863 -0.7074 0.1687
vn -0.7005 -0.7102 -0.0702
vn 0.6869 -0.7073 0.1671
vn -0.6987 -0.7099 -0.0885
vn 0.6872 -0.7071 0.1664
vn 0.6873 -0.7070 0.1665
vn -0.6968 -0.7096 -0.1048
vn 0.6872 -0.7069 0.1673
vn -0.6948 -0.7093 -0.1191
vn 0.6870 -0.7068 0.1687
vn -0.6927 -0.7090 -0.1319
vn 0.6866 -0.7067 0.1706
vn -0.6907 -0.7088 -0.1431
vn 0.6861 -0.7067 0.1730
vn -0.6888 -0.7086 -0.1532
vn 0.6854 -0.7066 0.1759
vn -0.6869 -0.7084 -0.1620
vn 0.6846 -0.7065 0.1794
vn -0.2115 -0.7090 -0.6727
vn 0.4769 -0.5638 -0.6743
vn 0.6481 -0.5911 0.4802
vn -0.6852 -0.7083 -0.1698
vn -0.2004 -0.7089 -0.6762
vn 0.6836 -0.7064 0.1836
vn -0.1897 -0.7089 -0.6794
vn -0.1793 -0.7088 -0.6823
vn -0.1693 -0.7087 -0.6849
vn -0.6836 -0.7081 -0.1767
vn -0.1597 -0.7087 -0.6872
vn -0.7917 -0.5695 0.2211
vn -0.2192 -0.5863 -0.7799
vn 0.3033 -0.7047 -0.6414
vn -0.1503 -0.7086 -0.6894
vn 0.2343 -0.9491 -0.2104
vn -0.1412 -0.7086 -0.6914
vn -0.1324 -0.7085 -0.6932
vn 0.3156 -0.7051 -0.6350
vn -0.1239 -0.7085 -0.6948
vn -0.1155 -0.7084 -0.6963
vn -0.3226 -0.8635 -0.3877
vn 0.3257 -0.7054 -0.6295
vn -0.5694 -0.5836 0.5789
vn -0.5644 -0.5679 -0.5991
vn 0.0833 -0.7088 -0.7004
vn 0.0730 -0.7087 -0.7017
vn -0.0513 -0.7076 -0.7048
vn 0.0634 -0.7086 -0.7028
vn -0.0481 -0.7076 -0.7049
vn 0.0545 -0.7085 -0.7036
vn 0.3347 -0.7056 -0.6246
vn -0.0447 -0.7077 -0.7051
vn 0.0463 -0.7084 -0.7043
vn -0.0410 -0.7077 -0.7053
vn -0.0370 -0.7078 -0.7055
vn 0.0385 -0.7083 -0.7049
vn -0.0327 -0.7078 -0.7056
vn 0.0313 -0.7082 -0.7053
vn -0.0281 -0.7079 -0.7058
vn 0.0244 -0.7082 -0.7056
vn -0.0231 -0.7079 -0.7059
vn 0.0179 -0.7081 -0.7059
vn -0.0179 -0.7080 -0.7060
vn 0.0117 -0.7081 -0.7060
vn -0.0123 -0.7080 -0.7061
vn 0.0057 -0.7080 -0.7062
vn -0.0063 -0.7081 -0.7061
vn -0.0002 -0.7081 -0.7061
vn 0.3430 -0.7056 -0.6200
vn 0.3512 -0.7056 -0.6154
vn 0.1837 -0.7056 0.6844
vn 0.1747 -0.7057 0.6867
vn -0.3036 -0.7097 0.6357
vn 0.1661 -0.7057 0.6887
vn 0.3597 -0.7055 -0.6106
vn 0.1577 -0.7058 0.6907
vn -0.3171 -0.7093 0.6296
vn 0.1496 -0.7058 0.6924
vn 0.1417 -0.7058 0.6941
vn 0.1339 -0.7059 0.6956
vn 0.3689 -0.7053 -0.6053
vn -0.3287 -0.7091 0.6238
vn 0.1262 -0.7059 0.6970
vn 0.1185 -0.7059 0.6983
vn 0.1109 -0.7059 0.6996
vn 0.1033 -0.7059 0.7007
vn -0.3394 -0.7090 0.6182
vn 0.3795 -0.7050 -0.5991
vn 0.3388 -0.8430 0.4178
vn -0.2495 -0.9516 0.1794
vn 0.6639 -0.7041 0.2519
vn -0.3497 -0.7090 0.6124
vn -0.0336 -0.7065 0.7069
vn 0.0432 -0.7065 0.7064
vn -0.6488 -0.7099 -0.2742
vn 0.0393 -0.7065 0.7066
vn -0.0302 -0.7066 0.7070
vn 0.3927 -0.7044 -0.5913
vn 0.0354 -0.7065 0.7068
vn -0.0269 -0.7066 0.7071
vn 0.0315 -0.7065 0.7070
vn -0.0238 -0.7066 0.7072
vn 0.0277 -0.7065 0.7072
vn -0.0208 -0.7066 0.7073
vn 0.0238 -0.7065 0.7073
vn -0.0178 -0.7066 0.7074
vn 0.0199 -0.7065 0.7075
vn -0.0149 -0.7066 0.7074
vn 0.0160 -0.7065 0.7076
vn -0.0120 -0.7066 0.7075
vn 0.0120 -0.7065 0.7076
vn -0.0091 -0.7066 0.7075
vn 0.0080 -0.7065 0.7077
vn -0.0061 -0.7066 0.7076
vn 0.0040 -0.7065 0.7077
vn -0.0031 -0.7066 0.7076
vn 0.0002 -0.7065 0.7077
vn -0.3600 -0.7091 0.6063
vn 0.4100 -0.7034 -0.5806
vn 0.8035 -0.5791 -0.1383
vn -0.3708 -0.7092 0.5995
vn 0.6570 -0.7044 0.2687
vn -0.6424 -0.7097 -0.2894
vn -0.3827 -0.7095 0.5917
vn -0.3962 -0.7100 0.5822
vn -0.4120 -0.7106 0.5703
vn -0.4313 -0.7116 0.5546
vn 0.1190 -0.5731 0.8108
vn -0.6360 -0.7095 -0.3035
vn 0.6503 -0.7046 0.2840
vn -0.7072 -0.7066 0.0231
vn -0.5869 -0.5758 -0.5692
vn 0.5916 -0.5750 -0.5652
vn 0.7057 -0.7078 0.0299
vn 0.7059 -0.7079 0.0252
vn -0.7070 -0.7067 0.0258
vn 0.7060 -0.7079 0.0203
vn -0.6293 -0.7095 -0.3171
vn 0.7061 -0.7079 0.0152
vn 0.6438 -0.7047 0.2982
vn -0.7069 -0.7068 0.0279
vn 0.7062 -0.7079 0.0102
vn 0.7063 -0.7079 0.0051
vn 0.7063 -0.7079 0.0002
vn -0.6223 -0.7096 -0.3305
vn -0.7067 -0.7069 0.0296
vn 0.7064 -0.7078 -0.0045
vn 0.6372 -0.7048 0.3119
vn 0.7064 -0.7078 -0.0089
vn -0.7066 -0.7069 0.0310
vn 0.7064 -0.7077 -0.0129
vn -0.6146 -0.7097 -0.3443
vn 0.7064 -0.7076 -0.0165
vn 0.7048 -0.7090 -0.0241
vn -0.7065 -0.7069 0.0322
vn 0.6305 -0.7047 0.3253
vn 0.4228 -0.8536 -0.3042
vn -0.7065 -0.7070 0.0331
vn -0.6061 -0.7099 -0.3588
vn -0.7064 -0.7070 0.0337
vn 0.6234 -0.7046 0.3389
vn -0.5963 -0.7102 -0.3743
vn -0.7063 -0.7070 0.0342
vn 0.6157 -0.7045 0.3530
vn -0.7063 -0.7071 0.0345
vn -0.5848 -0.7106 -0.3913
vn -0.7063 -0.7071 0.0346
vn 0.6071 -0.7043 0.3680
vn -0.5709 -0.7112 -0.4102
vn -0.2328 -0.9332 -0.2739
vn -0.0630 -0.6972 -0.7141
vn -0.0127 -0.7015 -0.7126
vn 0.0107 -0.7054 -0.7087
vn 0.0217 -0.7053 -0.7086
vn 0.0332 -0.7053 -0.7082
vn 0.0450 -0.7052 -0.7076
vn 0.0573 -0.7051 -0.7068
vn -0.1289 -0.6965 -0.7058
vn 0.0701 -0.7050 -0.7057
vn 0.0833 -0.7050 -0.7043
vn 0.0970 -0.7049 -0.7027
vn 0.1111 -0.7048 -0.7006
vn -0.1981 -0.6958 -0.6904
vn 0.1258 -0.7047 -0.6982
vn 0.1408 -0.7046 -0.6955
vn -0.5538 -0.7119 -0.4318
vn 0.5972 -0.7039 0.3844
vn -0.2707 -0.6948 -0.6663
vn -0.3465 -0.6937 -0.6314
vn -0.4243 -0.6925 -0.5835
vn 0.2675 -0.7028 -0.6592
vn -0.8064 -0.5674 0.1669
vn 0.2922 -0.7030 -0.6484
vn -0.5016 -0.6912 -0.5202
vn 0.5856 -0.7034 0.4028
vn 0.3153 -0.7032 -0.6373
vn -0.5746 -0.6900 -0.4401
vn 0.0559 -0.7165 0.6954
vn 0.0097 -0.7129 0.7012
vn -0.0164 -0.7097 0.7043
vn 0.3368 -0.7034 -0.6260
vn 0.1899 -0.5851 0.7885
vn -0.0330 -0.7098 0.7037
vn -0.0497 -0.7098 0.7026
vn 0.1146 -0.7171 0.6875
vn -0.0666 -0.7098 0.7012
vn -0.0837 -0.7099 0.6993
vn -0.1011 -0.7099 0.6970
vn 0.1765 -0.7179 0.6734
vn 0.3567 -0.7036 -0.6146
vn -0.1186 -0.7100 0.6942
vn -0.1364 -0.7100 0.6908
vn 0.2419 -0.7189 0.6517
vn -0.1544 -0.7101 0.6870
vn -0.6380 -0.6892 -0.3436
vn -0.1727 -0.7102 0.6825
vn -0.1912 -0.7102 0.6775
vn 0.3105 -0.7202 0.6204
vn -0.3972 -0.8662 0.3032
vn 0.3751 -0.7038 -0.6033
vn -0.6994 -0.7147 -0.0077
vn 0.1560 -0.9558 0.2492
vn 0.3819 -0.7216 0.5774
vn 0.4543 -0.7233 0.5201
vn 0.3921 -0.7040 -0.5921
vn -0.6862 -0.6888 -0.2339
vn 0.5248 -0.7251 0.4459
vn 0.4078 -0.7042 -0.5812
vn 0.5887 -0.7267 0.3539
vn -0.7153 -0.6890 -0.1170
vn 0.7156 -0.6984 0.0110
vn -0.3332 -0.7111 0.6192
vn 0.4221 -0.7044 -0.5707
vn 0.6402 -0.7280 0.2453
vn -0.3541 -0.7108 0.6078
vn 0.4352 -0.7046 -0.5605
vn 0.6736 -0.7284 0.1249
vn -0.6926 -0.7184 -0.0650
vn -0.3731 -0.7105 0.5966
vn -0.7239 -0.6899 -0.0008
vn 0.4472 -0.7048 -0.5508
vn 0.6881 -0.7256 0.0075
vn -0.3902 -0.7102 0.5859
vn -0.6800 -0.7201 -0.1377
vn -0.4055 -0.7099 0.5758
vn 0.8015 -0.5844 -0.1271
vn 0.6824 -0.7243 -0.0988
vn 0.7152 -0.6941 0.0814
vn -0.6563 -0.7221 -0.2188
vn -0.7156 -0.6888 0.1162
vn -0.4191 -0.7096 0.5664
vn -0.4311 -0.7093 0.5577
vn -0.4414 -0.7090 0.5499
vn -0.4503 -0.7087 0.5431
vn -0.4576 -0.7084 0.5373
vn -0.4633 -0.7081 0.5328
vn 0.1174 -0.5696 0.8135
vn 0.6577 -0.7256 -0.2024
vn -0.6183 -0.7239 -0.3062
vn 0.6152 -0.7263 -0.3065
vn 0.7010 -0.6929 0.1690
vn -0.5637 -0.7253 -0.3952
vn -0.6861 -0.6878 0.2371
vn 0.5559 -0.7263 -0.4043
vn -0.4928 -0.7259 -0.4797
vn 0.4836 -0.7254 -0.4897
vn 0.6730 -0.6917 0.2620
vn 0.4042 -0.7240 -0.5590
vn -0.4092 -0.7256 -0.5532
vn -0.6338 -0.6877 0.3540
vn 0.3234 -0.7223 -0.6113
vn -0.3188 -0.7245 -0.6111
vn 0.6290 -0.6907 0.3568
vn 0.2458 -0.7205 -0.6485
vn -0.2286 -0.7228 -0.6522
vn 0.1741 -0.7188 -0.6731
vn -0.1438 -0.7208 -0.6780
vn -0.5627 -0.6886 0.4574
vn 0.1094 -0.7173 -0.6882
vn -0.0676 -0.7189 -0.6918
vn 0.0517 -0.7160 -0.6962
vn -0.0037 -0.7163 -0.6978
vn 0.5682 -0.6902 0.4481
vn -0.4806 -0.6901 0.5410
vn 0.4926 -0.6902 0.5301
vn -0.3957 -0.6919 0.6039
vn 0.4066 -0.6907 0.5980
vn -0.3138 -0.6938 0.6483
vn 0.3162 -0.6918 0.6492
vn -0.2380 -0.6954 0.6781
vn 0.2271 -0.6932 0.6841
vn -0.1693 -0.6968 0.6970
vn 0.1436 -0.6946 0.7049
vn -0.1074 -0.6979 0.7081
vn 0.0679 -0.6961 0.7147
vn -0.0515 -0.6988 0.7134
vn 0.0036 -0.6983 0.7158
vn -0.7018 0.7107 -0.0493
vn 0.6694 0.5698 -0.4767
vn -0.5349 0.5755 -0.6186
vn 0.6863 0.7074 0.1687
vn -0.7005 0.7102 -0.0701
vn 0.6869 0.7073 0.1671
vn -0.6987 0.7099 -0.0885
vn 0.6872 0.7071 0.1664
vn 0.6873 0.7070 0.1665
vn -0.6968 0.7096 -0.1048
vn 0.6872 0.7069 0.1673
vn -0.6948 0.7093 -0.1191
vn 0.6870 0.7068 0.1687
vn -0.6927 0.7090 -0.1319
vn 0.6866 0.7067 0.1706
vn -0.6907 0.7088 -0.1431
vn 0.6861 0.7067 0.1730
vn -0.6888 0.7086 -0.1532
vn 0.6854 0.7066 0.1759
vn -0.6869 0.7084 -0.1620
vn 0.6846 0.7065 0.1794
vn -0.2115 0.7090 -0.6727
vn 0.6481 0.5911 0.4802
vn 0.4769 0.5638 -0.6743
vn -0.6852 0.7083 -0.1698
vn -0.2004 0.7089 -0.6762
vn 0.6836 0.7064 0.1836
vn -0.1897 0.7089 -0.6794
vn -0.1793 0.7088 -0.6823
vn -0.1693 0.7087 -0.6849
vn -0.6836 0.7081 -0.1767
vn -0.1597 0.7087 -0.6872
vn -0.7917 0.5695 0.2211
vn 0.3033 0.7047 -0.6414
vn -0.2192 0.5863 -0.7799
vn -0.1503 0.7086 -0.6894
vn 0.2343 0.9491 -0.2104
vn -0.1412 0.7086 -0.6914
vn -0.1324 0.7085 -0.6932
vn 0.3156 0.7052 -0.6350
vn -0.1239 0.7085 -0.6948
vn -0.1155 0.7084 -0.6963
vn -0.3226 0.8635 -0.3877
vn 0.3257 0.7054 -0.6295
vn -0.5694 0.5836 0.5789
vn 0.0833 0.7088 -0.7004
vn -0.5644 0.5679 -0.5991
vn 0.0730 0.7087 -0.7017
vn -0.0513 0.7076 -0.7048
vn 0.0634 0.7086 -0.7028
vn -0.0481 0.7076 -0.7049
vn 0.0545 0.7085 -0.7036
vn 0.3347 0.7056 -0.6246
vn -0.0447 0.7077 -0.7051
vn 0.0463 0.7084 -0.7043
vn -0.0410 0.7077 -0.7053
vn -0.0370 0.7078 -0.7055
vn 0.0385 0.7083 -0.7049
vn -0.0327 0.7078 -0.7056
vn 0.0313 0.7082 -0.7053
vn -0.0281 0.7079 -0.7058
vn 0.0244 0.7082 -0.7056
vn -0.0231 0.7079 -0.7059
vn 0.0179 0.7081 -0.7059
vn -0.0179 0.7080 -0.7060
vn 0.0117 0.7081 -0.7060
vn -0.0123 0.7080 -0.7061
vn 0.0057 0.7080 -0.7062
vn -0.0063 0.7081 -0.7061
vn -0.0002 0.7081 -0.7061
vn 0.3430 0.7056 -0.6200
vn 0.3512 0.7056 -0.6154
vn 0.1837 0.7056 0.6844
vn 0.1747 0.7057 0.6867
vn -0.3037 0.7097 0.6357
vn 0.1661 0.7057 0.6888
vn 0.3597 0.7055 -0.6106
vn 0.1577 0.7058 0.6907
vn -0.3171 0.7093 0.6296
vn 0.1496 0.7058 0.6924
vn 0.1417 0.7058 0.6941
vn 0.1339 0.7059 0.6956
vn 0.3689 0.7053 -0.6054
vn -0.3287 0.7091 0.6238
vn 0.1262 0.7059 0.6970
vn 0.1185 0.7059 0.6983
vn 0.1109 0.7059 0.6996
vn 0.1033 0.7059 0.7007
vn -0.3394 0.7090 0.6182
vn 0.3795 0.7050 -0.5991
vn 0.3388 0.8430 0.4178
vn -0.2495 0.9516 0.1794
vn 0.6639 0.7041 0.2519
vn -0.3497 0.7090 0.6124
vn -0.0336 0.7065 0.7069
vn 0.0432 0.7065 0.7064
vn -0.6488 0.7098 -0.2742
vn 0.0393 0.7065 0.7066
vn -0.0302 0.7066 0.7070
vn 0.3927 0.7044 -0.5913
vn 0.0354 0.7065 0.7068
vn -0.0269 0.7066 0.7071
vn 0.0315 0.7065 0.7070
vn -0.0238 0.7066 0.7072
vn 0.0277 0.7065 0.7072
vn -0.0208 0.7066 0.7073
vn 0.0238 0.7065 0.7073
vn -0.0178 0.7066 0.7073
vn 0.0199 0.7065 0.7075
vn -0.0149 0.7066 0.7074
vn 0.0160 0.7065 0.7076
vn -0.0120 0.7066 0.7075
vn 0.0120 0.7065 0.7076
vn -0.0091 0.7066 0.7075
vn 0.0080 0.7065 0.7077
vn -0.0061 0.7066 0.7076
vn 0.0040 0.7065 0.7077
vn -0.0031 0.7066 0.7076
vn 0.0002 0.7065 0.7077
vn -0.3600 0.7091 0.6063
vn 0.4100 0.7034 -0.5806
vn 0.8035 0.5791 -0.1383
vn -0.3708 0.7093 0.5995
vn 0.6570 0.7044 0.2687
vn -0.6424 0.7096 -0.2894
vn -0.3827 0.7095 0.5917
vn -0.3962 0.7100 0.5822
vn -0.4120 0.7106 0.5703
vn -0.4313 0.7116 0.5546
vn 0.1190 0.5731 0.8108
vn -0.6359 0.7096 -0.3035
vn 0.6503 0.7046 0.2840
vn -0.7072 0.7066 0.0231
vn 0.5916 0.5750 -0.5652
vn -0.5869 0.5758 -0.5692
vn 0.7057 0.7078 0.0299
vn 0.7059 0.7079 0.0252
vn -0.7070 0.7067 0.0258
vn 0.7060 0.7079 0.0203
vn -0.6293 0.7095 -0.3171
vn 0.7061 0.7079 0.0152
vn 0.6438 0.7047 0.2982
vn -0.7069 0.7068 0.0279
vn 0.7062 0.7079 0.0102
vn 0.7063 0.7079 0.0051
vn 0.7063 0.7079 0.0002
vn -0.6223 0.7096 -0.3305
vn -0.7067 0.7069 0.0296
vn 0.7064 0.7078 -0.0045
vn 0.6372 0.7047 0.3119
vn 0.7064 0.7078 -0.0089
vn -0.7066 0.7069 0.0310
vn 0.7064 0.7077 -0.0129
vn -0.6146 0.7097 -0.3443
vn 0.7064 0.7076 -0.0165
vn 0.7048 0.7090 -0.0241
vn -0.7065 0.7070 0.0322
vn 0.6305 0.7047 0.3254
vn 0.4228 0.8536 -0.3042
vn -0.7065 0.7070 0.0331
vn -0.6061 0.7099 -0.3588
vn -0.7064 0.7070 0.0337
vn 0.6234 0.7046 0.3389
vn -0.5963 0.7102 -0.3743
vn -0.7063 0.7071 0.0342
vn 0.6157 0.7045 0.3530
vn -0.7063 0.7071 0.0345
vn -0.5848 0.7106 -0.3913
vn 0.6071 0.7043 0.3680
vn -0.5709 0.7112 -0.4102
vn -0.2328 0.9332 -0.2739
vn -0.0630 0.6971 -0.7141
vn 0.0107 0.7054 -0.7087
vn -0.0127 0.7015 -0.7126
vn 0.0217 0.7053 -0.7086
vn 0.0332 0.7053 -0.7082
vn 0.0450 0.7052 -0.7076
vn 0.0573 0.7051 -0.7068
vn -0.1289 0.6965 -0.7058
vn 0.0701 0.7050 -0.7057
vn 0.0833 0.7050 -0.7043
vn 0.0970 0.7049 -0.7027
vn 0.1111 0.7048 -0.7006
vn -0.1981 0.6958 -0.6904
vn 0.1258 0.7047 -0.6982
vn 0.1408 0.7046 -0.6955
vn -0.5538 0.7119 -0.4318
vn 0.5972 0.7039 0.3844
vn -0.2707 0.6949 -0.6662
vn -0.3465 0.6937 -0.6314
vn -0.4243 0.6925 -0.5835
vn 0.2675 0.7028 -0.6592
vn -0.8064 0.5673 0.1669
vn 0.2922 0.7030 -0.6484
vn -0.5016 0.6912 -0.5202
vn 0.5856 0.7034 0.4028
vn 0.3153 0.7032 -0.6373
vn -0.5746 0.6900 -0.4401
vn 0.0559 0.7165 0.6954
vn 0.0097 0.7129 0.7012
vn -0.0164 0.7097 0.7043
vn 0.3368 0.7034 -0.6260
vn 0.1899 0.5851 0.7884
vn -0.0330 0.7098 0.7037
vn -0.0497 0.7098 0.7026
vn 0.1146 0.7171 0.6875
vn -0.0666 0.7098 0.7012
vn -0.0837 0.7099 0.6993
vn -0.1011 0.7099 0.6970
vn 0.1765 0.7179 0.6734
vn 0.3567 0.7036 -0.6146
vn -0.1186 0.7100 0.6942
vn -0.1364 0.7100 0.6908
vn 0.2419 0.7189 0.6517
vn -0.1544 0.7101 0.6870
vn -0.6380 0.6892 -0.3436
vn -0.1727 0.7102 0.6825
vn -0.1912 0.7102 0.6775
vn 0.3105 0.7202 0.6204
vn -0.3971 0.8662 0.3032
vn 0.3751 0.7038 -0.6033
vn -0.6994 0.7147 -0.0077
vn 0.1560 0.9558 0.2492
vn 0.3819 0.7216 0.5774
vn 0.4543 0.7233 0.5201
vn 0.3921 0.7040 -0.5921
vn -0.6862 0.6888 -0.2339
vn 0.5248 0.7251 0.4459
vn 0.4078 0.7042 -0.5812
vn 0.5887 0.7267 0.3539
vn -0.7153 0.6890 -0.1170
vn 0.7156 0.6984 0.0110
vn -0.3332 0.7111 0.6192
vn 0.4221 0.7044 -0.5707
vn 0.6402 0.7280 0.2453
vn -0.3541 0.7108 0.6078
vn 0.4352 0.7046 -0.5605
vn 0.6736 0.7284 0.1249
vn -0.6926 0.7184 -0.0650
vn -0.3731 0.7105 0.5966
vn -0.7239 0.6899 -0.0008
vn 0.4472 0.7048 -0.5508
vn 0.6881 0.7256 0.0075
vn -0.3902 0.7102 0.5859
vn -0.6800 0.7201 -0.1377
vn -0.4055 0.7099 0.5758
vn 0.8015 0.5844 -0.1271
vn 0.6824 0.7242 -0.0988
vn 0.7152 0.6941 0.0814
vn -0.6563 0.7221 -0.2188
vn -0.7156 0.6888 0.1162
vn -0.4191 0.7096 0.5664
vn -0.4311 0.7093 0.5577
vn -0.4414 0.7090 0.5499
vn -0.4503 0.7087 0.5431
vn -0.4576 0.7084 0.5373
vn -0.4633 0.7081 0.5328
vn 0.1174 0.5696 0.8135
vn 0.6577 0.7256 -0.2024
vn -0.6183 0.7239 -0.3062
vn 0.6152 0.7263 -0.3065
vn 0.7010 0.6929 0.1690
vn -0.5637 0.7253 -0.3952
vn -0.6861 0.6878 0.2371
vn 0.5559 0.7263 -0.4043
vn -0.4928 0.7259 -0.4797
vn 0.4836 0.7254 -0.4897
vn 0.6730 0.6917 0.2620
vn 0.4042 0.7240 -0.5590
vn -0.4092 0.7256 -0.5532
vn -0.6338 0.6877 0.3540
vn 0.3234 0.7223 -0.6113
vn -0.3188 0.7245 -0.6111
vn 0.6290 0.6907 0.3568
vn 0.2458 0.7205 -0.6485
vn -0.2286 0.7228 -0.6522
vn 0.1741 0.7188 -0.6731
vn -0.1438 0.7208 -0.6780
vn -0.5627 0.6886 0.4574
vn 0.1094 0.7173 -0.6882
vn -0.0676 0.7189 -0.6918
vn 0.0517 0.7160 -0.6962
vn -0.0037 0.7163 -0.6978
vn 0.5682 0.6902 0.4481
vn -0.4806 0.6901 0.5410
vn 0.4926 0.6902 0.5301
vn -0.3957 0.6919 0.6039
vn 0.4066 0.6907 0.5980
vn -0.3138 0.6938 0.6483
vn 0.3162 0.6918 0.6492
vn -0.2380 0.6954 0.6781
vn 0.2271 0.6932 0.6841
vn -0.1693 0.6968 0.6970
vn 0.1436 0.6946 0.7049
vn -0.1074 0.6979 0.7081
vn 0.0679 0.6961 0.7147
vn -0.0515 0.6988 0.7134
vn 0.0036 0.6983 0.7158
vn -1.0000 -0.0000 -0.0000
vn -0.0000 -0.0000 -1.0000
vn 1.0000 -0.0000 -0.0000
vn -0.0000 -0.0000 1.0000
vn -0.0000 -1.0000 -0.0000
vn -0.0000 1.0000 -0.0000
vt 0.871094 0.817567
vt 0.871094 0.824324
vt 0.871094 0.831081
vt 0.871094 -0.000000
vt 0.871094 0.810811
vt 0.871094 0.006757
vt 0.871094 0.804054
vt 0.871094 0.013514
vt 0.871094 0.020270
vt 0.871094 0.797297
vt 0.871094 0.027027
vt 0.871094 0.790541
vt 0.871094 0.033784
vt 0.871094 0.783784
vt 0.871094 0.040541
vt 0.871094 0.777027
vt 0.871094 0.047297
vt 0.871094 0.770270
vt 0.871094 0.054054
vt 0.871094 0.763513
vt 0.871094 0.060811
vt 0.871094 0.148649
vt 0.871094 0.155405
vt 0.871094 0.162162
vt 0.871094 0.756757
vt 0.871094 0.141892
vt 0.871094 0.067568
vt 0.871094 0.135135
vt 0.871094 0.128378
vt 0.871094 0.121622
vt 0.871094 0.750000
vt 0.871094 0.114865
vt 0.871094 0.074324
vt 0.871094 0.081081
vt 0.871094 0.087838
vt 0.871094 0.108108
vt 0.871094 0.074324
vt 0.871094 0.101351
vt 0.871094 0.094595
vt 0.871094 0.094595
vt 0.871094 0.087838
vt 0.871094 0.081081
vt 0.871094 0.743243
vt 0.871094 0.101351
vt 0.871094 0.574324
vt 0.871094 0.581081
vt 0.871094 0.587838
vt 0.871094 0.594595
vt 0.871094 0.736486
vt 0.871094 0.601351
vt 0.871094 0.729730
vt 0.871094 0.608108
vt 0.871094 0.108108
vt 0.871094 0.722973
vt 0.871094 0.614865
vt 0.871094 0.716216
vt 0.871094 0.709459
vt 0.871094 0.621622
vt 0.871094 0.702703
vt 0.871094 0.628378
vt 0.871094 0.695946
vt 0.871094 0.635135
vt 0.871094 0.689189
vt 0.871094 0.641892
vt 0.871094 0.682432
vt 0.871094 0.648649
vt 0.871094 0.675676
vt 0.871094 0.655405
vt 0.871094 0.668919
vt 0.871094 0.662162
vt 0.871094 0.114865
vt 0.871094 0.121622
vt 0.871094 0.168919
vt 0.871094 0.175676
vt 0.871094 0.067568
vt 0.871094 0.182432
vt 0.871094 0.128378
vt 0.871094 0.189189
vt 0.871094 0.060811
vt 0.871094 0.195946
vt 0.871094 0.202703
vt 0.871094 0.209459
vt 0.871094 0.135135
vt 0.871094 0.054054
vt 0.871094 0.216216
vt 0.871094 0.222973
vt 0.871094 0.229730
vt 0.871094 0.236486
vt 0.871094 0.047297
vt 0.871094 0.141892
vt 0.871094 0.243243
vt 0.871094 0.412162
vt 0.871094 0.250000
vt 0.871094 0.040541
vt 0.871094 0.567568
vt 0.871094 0.418919
vt 0.871094 0.405405
vt 0.871094 0.425676
vt 0.871094 0.560811
vt 0.871094 0.148649
vt 0.871094 0.432432
vt 0.871094 0.554054
vt 0.871094 0.439189
vt 0.871094 0.547297
vt 0.871094 0.445946
vt 0.871094 0.540541
vt 0.871094 0.452703
vt 0.871094 0.533784
vt 0.871094 0.459459
vt 0.871094 0.527027
vt 0.871094 0.466216
vt 0.871094 0.520270
vt 0.871094 0.472973
vt 0.871094 0.513513
vt 0.871094 0.479730
vt 0.871094 0.506757
vt 0.871094 0.486486
vt 0.871094 0.500000
vt 0.871094 0.493243
vt 0.871094 0.033784
vt 0.871094 0.155405
vt 0.871094 0.162162
vt 0.871094 0.027027
vt 0.871094 0.256757
vt 0.871094 0.398649
vt 0.871094 0.020270
vt 0.871094 0.013514
vt 0.871094 0.006757
vt 0.871094 0.000000
vt 0.871094 0.168919
vt 0.871094 0.391892
vt 0.871094 0.263514
vt 0.871094 0.655405
vt 0.871094 0.662162
vt 0.871094 0.668919
vt 0.871094 -0.000000
vt 0.871094 0.006757
vt 0.871094 0.648649
vt 0.871094 0.013514
vt 0.871094 0.385135
vt 0.871094 0.020270
vt 0.871094 0.270270
vt 0.871094 0.641892
vt 0.871094 0.027027
vt 0.871094 0.033784
vt 0.871094 0.040541
vt 0.871094 0.378378
vt 0.871094 0.635135
vt 0.871094 0.047297
vt 0.871094 0.277027
vt 0.871094 0.054054
vt 0.871094 0.628378
vt 0.871094 0.060811
vt 0.871094 0.371622
vt 0.871094 0.067568
vt 0.871094 0.074324
vt 0.871094 0.621622
vt 0.871094 0.283784
vt 0.871094 0.081081
vt 0.871094 0.614865
vt 0.871094 0.364865
vt 0.871094 0.608108
vt 0.871094 0.290540
vt 0.871094 0.358108
vt 0.871094 0.601351
vt 0.871094 0.297297
vt 0.871094 0.594595
vt 0.871094 0.351351
vt 0.871094 0.587838
vt 0.871094 0.304054
vt 0.871094 0.344595
vt 0.871094 0.581081
vt 0.871094 0.493243
vt 0.871094 0.500000
vt 0.871094 0.506757
vt 0.871094 0.513514
vt 0.871094 0.520270
vt 0.871094 0.527027
vt 0.871094 0.533784
vt 0.871094 0.486486
vt 0.871094 0.540541
vt 0.871094 0.547297
vt 0.871094 0.554054
vt 0.871094 0.560811
vt 0.871094 0.479730
vt 0.871094 0.567568
vt 0.871094 0.574324
vt 0.871094 0.337838
vt 0.871094 0.310811
vt 0.871094 0.472973
vt 0.871094 0.466216
vt 0.871094 0.459459
vt 0.871094 0.087838
vt 0.871094 0.331081
vt 0.871094 0.094595
vt 0.871094 0.452703
vt 0.871094 0.317568
vt 0.871094 0.101351
vt 0.871094 0.445946
vt 0.871094 0.756757
vt 0.871094 0.750000
vt 0.871094 0.743243
vt 0.871094 0.108108
vt 0.871094 0.324324
vt 0.871094 0.736486
vt 0.871094 0.729730
vt 0.871094 0.763514
vt 0.871094 0.722973
vt 0.871094 0.716216
vt 0.871094 0.709459
vt 0.871094 0.770270
vt 0.871094 0.114865
vt 0.871094 0.702703
vt 0.871094 0.695946
vt 0.871094 0.777027
vt 0.871094 0.689189
vt 0.871094 0.439189
vt 0.871094 0.682432
vt 0.871094 0.675676
vt 0.871094 0.783784
vt 0.871094 1.000000
vt 0.871094 0.121622
vt 0.871094 0.993243
vt 0.871094 0.250000
vt 0.871094 0.790541
vt 0.871094 0.797297
vt 0.871094 0.128378
vt 0.871094 0.432432
vt 0.871094 0.804054
vt 0.871094 0.135135
vt 0.871094 0.810811
vt 0.871094 0.425676
vt 0.871094 0.256757
vt 0.871094 0.243243
vt 0.871094 0.141892
vt 0.871094 0.817568
vt 0.871094 0.236487
vt 0.871094 0.148649
vt 0.871094 0.824324
vt 0.871094 0.986486
vt 0.871094 0.229730
vt 0.871094 0.418919
vt 0.871094 0.155405
vt 0.871094 0.831081
vt 0.871094 0.222973
vt 0.871094 0.979730
vt 0.871094 0.216216
vt 0.871094 0.162162
vt 0.871094 0.837838
vt 0.871094 0.263514
vt 0.871094 0.972973
vt 0.871094 0.412162
vt 0.871094 0.209460
vt 0.871094 0.202703
vt 0.871094 0.195946
vt 0.871094 0.189189
vt 0.871094 0.182433
vt 0.871094 0.175676
vt 0.871094 0.168919
vt 0.871094 0.844595
vt 0.871094 0.966216
vt 0.871094 0.851351
vt 0.871094 0.270270
vt 0.871094 0.959459
vt 0.871094 0.405405
vt 0.871094 0.858108
vt 0.871094 0.952703
vt 0.871094 0.864865
vt 0.871094 0.277027
vt 0.871094 0.871622
vt 0.871094 0.945946
vt 0.871094 0.398649
vt 0.871094 0.878378
vt 0.871094 0.939189
vt 0.871094 0.283784
vt 0.871094 0.885135
vt 0.871094 0.932432
vt 0.871094 0.891892
vt 0.871094 0.925676
vt 0.871094 0.391892
vt 0.871094 0.898649
vt 0.871094 0.918919
vt 0.871094 0.905405
vt 0.871094 0.912162
vt 0.871094 0.290541
vt 0.871094 0.385135
vt 0.871094 0.297297
vt 0.871094 0.378378
vt 0.871094 0.304054
vt 0.871094 0.371622
vt 0.871094 0.310811
vt 0.871094 0.364865
vt 0.871094 0.317568
vt 0.871094 0.358108
vt 0.871094 0.324324
vt 0.871094 0.351351
vt 0.871094 0.331081
vt 0.871094 0.344595
vt 0.871094 0.337838
vt 0.314670 0.219432
vt 0.174386 0.359716
vt 0.174386 0.219432
vt 0.314670 0.359716
vt 0.174386 0.500000
vt 0.314670 0.500000
vt 0.174386 0.640284
vt 0.314670 0.640284
vt 0.174386 0.780568
vt 0.034102 0.640284
vt 0.034102 0.500000
vt 0.454954 0.500000
vt 0.314670 0.780568
vt 0.454954 0.640284
s 1
usemtl マテリアル
f 178/1/1 177/2/2 176/3/3
f 178/1/1 176/3/3 299/4/4
f 179/5/5 178/1/1 299/4/4
f 179/5/5 299/4/4 298/6/6
f 180/7/7 179/5/5 298/6/6
f 180/7/7 298/6/6 297/8/8
f 180/7/7 297/8/8 296/9/9
f 181/10/10 180/7/7 296/9/9
f 181/10/10 296/9/9 295/11/11
f 182/12/12 181/10/10 295/11/11
f 182/12/12 295/11/11 294/13/13
f 183/14/14 182/12/12 294/13/13
f 183/14/14 294/13/13 293/15/15
f 184/16/16 183/14/14 293/15/15
f 184/16/16 293/15/15 292/17/17
f 185/18/18 184/16/16 292/17/17
f 185/18/18 292/17/17 291/19/19
f 186/20/20 185/18/18 291/19/19
f 186/20/20 291/19/19 290/21/21
f 277/22/22 276/23/23 275/24/24
f 187/25/25 186/20/20 290/21/21
f 278/26/26 277/22/22 275/24/24
f 187/25/25 290/21/21 289/27/27
f 279/28/28 278/26/26 275/24/24
f 280/29/29 279/28/28 275/24/24
f 281/30/30 280/29/29 275/24/24
f 188/31/31 187/25/25 289/27/27
f 282/32/32 281/30/30 275/24/24
f 15/33/33 14/34/34 13/35/35
f 283/36/36 282/32/32 275/24/24
f 188/31/31 289/27/27 288/37/37
f 284/38/38 283/36/36 275/24/24
f 285/39/39 284/38/38 275/24/24
f 15/33/33 13/35/35 12/40/40
f 286/41/41 285/39/39 275/24/24
f 287/42/42 286/41/41 275/24/24
f 189/43/43 188/31/31 288/37/37
f 288/37/37 287/42/42 275/24/24
f 189/43/43 288/37/37 275/24/24
f 15/33/33 12/40/40 11/44/44
f 214/45/45 213/46/46 212/47/47
f 214/45/45 212/47/47 211/48/48
f 190/49/49 189/43/43 275/24/24
f 214/45/45 211/48/48 210/50/50
f 191/51/51 190/49/49 275/24/24
f 214/45/45 210/50/50 209/52/52
f 15/33/33 11/44/44 10/53/53
f 192/54/54 191/51/51 275/24/24
f 214/45/45 209/52/52 208/55/55
f 193/56/56 192/54/54 275/24/24
f 194/57/57 193/56/56 275/24/24
f 214/45/45 208/55/55 207/58/58
f 195/59/59 194/57/57 275/24/24
f 214/45/45 207/58/58 206/60/60
f 196/61/61 195/59/59 275/24/24
f 214/45/45 206/60/60 205/62/62
f 197/63/63 196/61/61 275/24/24
f 214/45/45 205/62/62 204/64/64
f 198/65/65 197/63/63 275/24/24
f 214/45/45 204/64/64 203/66/66
f 199/67/67 198/65/65 275/24/24
f 214/45/45 203/66/66 202/68/68
f 200/69/69 199/67/67 275/24/24
f 214/45/45 202/68/68 201/70/70
f 201/70/70 200/69/69 275/24/24
f 214/45/45 201/70/70 275/24/24
f 15/33/33 10/53/53 9/71/71
f 15/33/33 9/71/71 8/72/72
f 214/45/45 275/24/24 274/73/73
f 214/45/45 274/73/73 273/74/74
f 16/75/75 15/33/33 8/72/72
f 214/45/45 273/74/74 272/76/76
f 16/75/75 8/72/72 7/77/77
f 214/45/45 272/76/76 271/78/78
f 17/79/79 16/75/75 7/77/77
f 214/45/45 271/78/78 270/80/80
f 214/45/45 270/80/80 269/81/81
f 214/45/45 269/81/81 268/82/82
f 17/79/79 7/77/77 6/83/83
f 18/84/84 17/79/79 6/83/83
f 214/45/45 268/82/82 267/85/85
f 214/45/45 267/85/85 266/86/86
f 214/45/45 266/86/86 265/87/87
f 214/45/45 265/87/87 264/88/88
f 19/89/89 18/84/84 6/83/83
f 19/89/89 6/83/83 5/90/90
f 214/45/45 264/88/88 263/91/91
f 214/45/45 263/91/91 238/92/92
f 238/92/92 263/91/91 262/93/93
f 20/94/94 19/89/89 5/90/90
f 215/95/95 214/45/45 238/92/92
f 215/95/95 238/92/92 237/96/96
f 239/97/97 238/92/92 262/93/93
f 215/95/95 237/96/96 236/98/98
f 216/99/99 215/95/95 236/98/98
f 20/94/94 5/90/90 4/100/100
f 216/99/99 236/98/98 235/101/101
f 217/102/102 216/99/99 235/101/101
f 217/102/102 235/101/101 234/103/103
f 218/104/104 217/102/102 234/103/103
f 218/104/104 234/103/103 233/105/105
f 219/106/106 218/104/104 233/105/105
f 219/106/106 233/105/105 232/107/107
f 220/108/108 219/106/106 232/107/107
f 220/108/108 232/107/107 231/109/109
f 221/110/110 220/108/108 231/109/109
f 221/110/110 231/109/109 230/111/111
f 222/112/112 221/110/110 230/111/111
f 222/112/112 230/111/111 229/113/113
f 223/114/114 222/112/112 229/113/113
f 223/114/114 229/113/113 228/115/115
f 224/116/116 223/114/114 228/115/115
f 224/116/116 228/115/115 227/117/117
f 225/118/118 224/116/116 227/117/117
f 225/118/118 227/117/117 226/119/119
f 21/120/120 20/94/94 4/100/100
f 21/120/120 4/100/100 3/121/121
f 21/120/120 3/121/121 2/122/122
f 22/123/123 21/120/120 2/122/122
f 239/97/97 262/93/93 261/124/124
f 240/125/125 239/97/97 261/124/124
f 22/123/123 2/122/122 23/126/126
f 23/126/126 2/122/122 24/127/127
f 24/127/127 2/122/122 25/128/128
f 25/128/128 2/122/122 26/129/129
f 26/129/129 2/122/122 1/130/130
f 241/131/131 240/125/125 261/124/124
f 241/131/131 261/124/124 260/132/132
f 78/133/133 77/134/134 76/135/135
f 78/133/133 76/135/135 175/136/136
f 78/133/133 175/136/136 174/137/137
f 79/138/138 78/133/133 174/137/137
f 79/138/138 174/137/137 173/139/139
f 242/140/140 241/131/131 260/132/132
f 79/138/138 173/139/139 172/141/141
f 242/140/140 260/132/132 259/142/142
f 80/143/143 79/138/138 172/141/141
f 80/143/143 172/141/141 171/144/144
f 80/143/143 171/144/144 170/145/145
f 80/143/143 170/145/145 169/146/146
f 243/147/147 242/140/140 259/142/142
f 81/148/148 80/143/143 169/146/146
f 81/148/148 169/146/146 168/149/149
f 243/147/147 259/142/142 258/150/150
f 81/148/148 168/149/149 167/151/151
f 82/152/152 81/148/148 167/151/151
f 82/152/152 167/151/151 166/153/153
f 244/154/154 243/147/147 258/150/150
f 82/152/152 166/153/153 165/155/155
f 82/152/152 165/155/155 164/156/156
f 83/157/157 82/152/152 164/156/156
f 244/154/154 258/150/150 257/158/158
f 83/157/157 164/156/156 163/159/159
f 84/160/160 83/157/157 163/159/159
f 245/161/161 244/154/154 257/158/158
f 85/162/162 84/160/160 163/159/159
f 245/161/161 257/158/158 256/163/163
f 246/164/164 245/161/161 256/163/163
f 86/165/165 85/162/162 163/159/159
f 246/164/164 256/163/163 255/166/166
f 87/167/167 86/165/165 163/159/159
f 247/168/168 246/164/164 255/166/166
f 88/169/169 87/167/167 163/159/159
f 247/168/168 255/166/166 254/170/170
f 248/171/171 247/168/168 254/170/170
f 89/172/172 88/169/169 163/159/159
f 102/173/173 101/174/174 100/175/175
f 102/173/173 100/175/175 99/176/176
f 102/173/173 99/176/176 98/177/177
f 102/173/173 98/177/177 97/178/178
f 102/173/173 97/178/178 96/179/179
f 103/180/180 102/173/173 96/179/179
f 103/180/180 96/179/179 95/181/181
f 103/180/180 95/181/181 94/182/182
f 103/180/180 94/182/182 93/183/183
f 103/180/180 93/183/183 92/184/184
f 104/185/185 103/180/180 92/184/184
f 104/185/185 92/184/184 91/186/186
f 104/185/185 91/186/186 90/187/187
f 249/188/188 248/171/171 254/170/170
f 104/185/185 90/187/187 89/172/172
f 249/188/188 254/170/170 253/189/189
f 104/185/185 89/172/172 163/159/159
f 105/190/190 104/185/185 163/159/159
f 106/191/191 105/190/190 163/159/159
f 107/192/192 106/191/191 163/159/159
f 107/192/192 163/159/159 162/193/193
f 250/194/194 249/188/188 253/189/189
f 107/192/192 162/193/193 161/195/195
f 108/196/196 107/192/192 161/195/195
f 250/194/194 253/189/189 252/197/197
f 108/196/196 161/195/195 160/198/198
f 109/199/199 108/196/196 63/200/200
f 63/200/200 108/196/196 64/201/201
f 64/201/201 108/196/196 160/198/198
f 64/201/201 160/198/198 65/202/202
f 65/202/202 160/198/198 159/203/203
f 251/204/204 250/194/194 252/197/197
f 66/205/205 65/202/202 159/203/203
f 67/206/206 66/205/205 159/203/203
f 109/199/199 63/200/200 62/207/207
f 68/208/208 67/206/206 159/203/203
f 69/209/209 68/208/208 159/203/203
f 70/210/210 69/209/209 159/203/203
f 109/199/199 62/207/207 61/211/211
f 70/210/210 159/203/203 158/212/212
f 71/213/213 70/210/210 158/212/212
f 72/214/214 71/213/213 158/212/212
f 109/199/199 61/211/211 60/215/215
f 73/216/216 72/214/214 158/212/212
f 110/217/217 109/199/199 60/215/215
f 74/218/218 73/216/216 158/212/212
f 75/219/219 74/218/218 158/212/212
f 110/217/217 60/215/215 59/220/220
f 27/221/221 75/219/219 158/212/212
f 27/221/221 158/212/212 157/222/222
f 28/223/223 27/221/221 138/224/224
f 138/224/224 27/221/221 157/222/222
f 110/217/217 59/220/220 58/225/225
f 110/217/217 58/225/225 57/226/226
f 138/224/224 157/222/222 156/227/227
f 111/228/228 110/217/217 57/226/226
f 111/228/228 57/226/226 56/229/229
f 138/224/224 156/227/227 155/230/230
f 111/228/228 56/229/229 55/231/231
f 112/232/232 111/228/228 55/231/231
f 28/223/223 138/224/224 137/233/233
f 139/234/234 138/224/224 155/230/230
f 139/234/234 155/230/230 154/235/235
f 112/232/232 55/231/231 54/236/236
f 140/237/237 139/234/234 154/235/235
f 140/237/237 154/235/235 153/238/238
f 112/232/232 54/236/236 53/239/239
f 29/240/240 28/223/223 137/233/233
f 141/241/241 140/237/237 153/238/238
f 113/242/242 112/232/232 53/239/239
f 141/241/241 153/238/238 152/243/243
f 113/242/242 53/239/239 52/244/244
f 142/245/245 141/241/241 152/243/243
f 30/246/246 29/240/240 137/233/233
f 143/247/247 142/245/245 152/243/243
f 143/247/247 152/243/243 151/248/248
f 113/242/242 52/244/244 51/249/249
f 30/246/246 137/233/233 136/250/250
f 31/251/251 30/246/246 136/250/250
f 114/252/252 113/242/242 51/249/249
f 144/253/253 143/247/247 151/248/248
f 144/253/253 151/248/248 145/254/254
f 145/254/254 151/248/248 146/255/255
f 146/255/255 151/248/248 147/256/256
f 147/256/256 151/248/248 148/257/257
f 148/257/257 151/248/248 149/258/258
f 149/258/258 151/248/248 150/259/259
f 114/252/252 51/249/249 50/260/260
f 32/261/261 31/251/251 136/250/250
f 114/252/252 50/260/260 49/262/262
f 32/261/261 136/250/250 135/263/263
f 33/264/264 32/261/261 135/263/263
f 115/265/265 114/252/252 49/262/262
f 115/265/265 49/262/262 48/266/266
f 34/267/267 33/264/264 135/263/263
f 115/265/265 48/266/266 47/268/268
f 34/267/267 135/263/263 134/269/269
f 115/265/265 47/268/268 46/270/270
f 35/271/271 34/267/267 134/269/269
f 116/272/272 115/265/265 46/270/270
f 116/272/272 46/270/270 45/273/273
f 36/274/274 35/271/271 134/269/269
f 36/274/274 134/269/269 133/275/275
f 116/272/272 45/273/273 44/276/276
f 37/277/277 36/274/274 133/275/275
f 116/272/272 44/276/276 43/278/278
f 38/279/279 37/277/277 133/275/275
f 117/280/280 116/272/272 43/278/278
f 117/280/280 43/278/278 42/281/281
f 39/282/282 38/279/279 133/275/275
f 117/280/280 42/281/281 41/283/283
f 40/284/284 39/282/282 133/275/275
f 117/280/280 41/283/283 40/284/284
f 117/280/280 40/284/284 133/275/275
f 117/280/280 133/275/275 132/285/285
f 118/286/286 117/280/280 132/285/285
f 118/286/286 132/285/285 131/287/287
f 119/288/288 118/286/286 131/287/287
f 119/288/288 131/287/287 130/289/289
f 120/290/290 119/288/288 130/289/289
f 120/290/290 130/289/289 129/291/291
f 121/292/292 120/290/290 129/291/291
f 121/292/292 129/291/291 128/293/293
f 122/294/294 121/292/292 128/293/293
f 122/294/294 128/293/293 127/295/295
f 123/296/296 122/294/294 127/295/295
f 123/296/296 127/295/295 126/297/297
f 124/298/298 123/296/296 126/297/297
f 124/298/298 126/297/297 125/299/299
f 300/1/300 301/3/301 302/2/302
f 300/1/300 303/4/303 301/3/301
f 304/5/304 303/4/303 300/1/300
f 304/5/304 305/6/305 303/4/303
f 306/7/306 305/6/305 304/5/304
f 306/7/306 307/8/307 305/6/305
f 306/7/306 308/9/308 307/8/307
f 309/10/309 308/9/308 306/7/306
f 309/10/309 310/11/310 308/9/308
f 311/12/311 310/11/310 309/10/309
f 311/12/311 312/13/312 310/11/310
f 313/14/313 312/13/312 311/12/311
f 313/14/313 314/15/314 312/13/312
f 315/16/315 314/15/314 313/14/313
f 315/16/315 316/17/316 314/15/314
f 317/18/317 316/17/316 315/16/315
f 317/18/317 318/19/318 316/17/316
f 319/20/319 318/19/318 317/18/317
f 319/20/319 320/21/320 318/19/318
f 321/22/321 322/24/322 323/23/323
f 324/25/324 320/21/320 319/20/319
f 325/26/325 322/24/322 321/22/321
f 324/25/324 326/27/326 320/21/320
f 327/28/327 322/24/322 325/26/325
f 328/29/328 322/24/322 327/28/327
f 329/30/329 322/24/322 328/29/328
f 330/31/330 326/27/326 324/25/324
f 331/32/331 322/24/322 329/30/329
f 332/33/332 333/35/333 334/34/334
f 335/36/335 322/24/322 331/32/331
f 330/31/330 336/37/336 326/27/326
f 337/38/337 322/24/322 335/36/335
f 338/39/338 322/24/322 337/38/337
f 332/33/332 339/40/339 333/35/333
f 340/41/340 322/24/322 338/39/338
f 341/42/341 322/24/322 340/41/340
f 342/43/342 336/37/336 330/31/330
f 336/37/336 322/24/322 341/42/341
f 342/43/342 322/24/322 336/37/336
f 332/33/332 343/44/343 339/40/339
f 344/45/344 345/47/345 346/46/346
f 344/45/344 347/48/347 345/47/345
f 348/49/348 322/24/322 342/43/342
f 344/45/344 349/50/349 347/48/347
f 350/51/350 322/24/322 348/49/348
f 344/45/344 351/52/351 349/50/349
f 332/33/332 352/53/352 343/44/343
f 353/54/353 322/24/322 350/51/350
f 344/45/344 354/55/354 351/52/351
f 355/56/355 322/24/322 353/54/353
f 356/57/356 322/24/322 355/56/355
f 344/45/344 357/58/357 354/55/354
f 358/59/358 322/24/322 356/57/356
f 344/45/344 359/60/359 357/58/357
f 360/61/360 322/24/322 358/59/358
f 344/45/344 361/62/361 359/60/359
f 362/63/362 322/24/322 360/61/360
f 344/45/344 363/64/363 361/62/361
f 364/65/364 322/24/322 362/63/362
f 344/45/344 365/66/365 363/64/363
f 366/67/366 322/24/322 364/65/364
f 344/45/344 367/68/367 365/66/365
f 368/69/368 322/24/322 366/67/366
f 344/45/344 369/70/369 367/68/367
f 369/70/369 322/24/322 368/69/368
f 344/45/344 322/24/322 369/70/369
f 332/33/332 370/71/370 352/53/352
f 332/33/332 371/72/371 370/71/370
f 344/45/344 372/73/372 322/24/322
f 344/45/344 373/74/373 372/73/372
f 374/75/374 371/72/371 332/33/332
f 344/45/344 375/76/375 373/74/373
f 374/75/374 376/77/376 371/72/371
f 344/45/344 377/78/377 375/76/375
f 378/79/378 376/77/376 374/75/374
f 344/45/344 379/80/379 377/78/377
f 344/45/344 380/81/380 379/80/379
f 344/45/344 381/82/381 380/81/380
f 378/79/378 382/83/382 376/77/376
f 383/84/383 382/83/382 378/79/378
f 344/45/344 384/85/384 381/82/381
f 344/45/344 385/86/385 384/85/384
f 344/45/344 386/87/386 385/86/385
f 344/45/344 387/88/387 386/87/386
f 388/89/388 382/83/382 383/84/383
f 388/89/388 389/90/389 382/83/382
f 344/45/344 390/91/390 387/88/387
f 344/45/344 391/92/391 390/91/390
f 391/92/391 392/93/392 390/91/390
f 393/94/393 389/90/389 388/89/388
f 394/95/394 391/92/391 344/45/344
f 394/95/394 395/96/395 391/92/391
f 396/97/396 392/93/392 391/92/391
f 394/95/394 397/98/397 395/96/395
f 398/99/398 397/98/397 394/95/394
f 393/94/393 399/100/399 389/90/389
f 398/99/398 400/101/400 397/98/397
f 401/102/401 400/101/400 398/99/398
f 401/102/401 402/103/402 400/101/400
f 403/104/403 402/103/402 401/102/401
f 403/104/403 404/105/404 402/103/402
f 405/106/405 404/105/404 403/104/403
f 405/106/405 406/107/406 404/105/404
f 407/108/407 406/107/406 405/106/405
f 407/108/407 408/109/408 406/107/406
f 409/110/409 408/109/408 407/108/407
f 409/110/409 410/111/410 408/109/408
f 411/112/411 410/111/410 409/110/409
f 411/112/411 412/113/412 410/111/410
f 413/114/413 412/113/412 411/112/411
f 413/114/413 414/115/414 412/113/412
f 415/116/415 414/115/414 413/114/413
f 415/116/415 416/117/416 414/115/414
f 417/118/417 416/117/416 415/116/415
f 417/118/417 418/119/418 416/117/416
f 419/120/419 399/100/399 393/94/393
f 419/120/419 420/121/420 399/100/399
f 419/120/419 421/122/421 420/121/420
f 422/123/422 421/122/421 419/120/419
f 396/97/396 423/124/423 392/93/392
f 424/125/424 423/124/423 396/97/396
f 422/123/422 425/126/425 421/122/421
f 425/126/425 426/127/426 421/122/421
f 426/127/426 427/128/427 421/122/421
f 427/128/427 428/129/428 421/122/421
f 428/129/428 429/130/429 421/122/421
f 430/131/430 423/124/423 424/125/424
f 430/131/430 431/132/431 423/124/423
f 432/133/432 433/135/433 434/134/434
f 432/133/432 435/136/435 433/135/433
f 432/133/432 436/137/436 435/136/435
f 437/138/437 436/137/436 432/133/432
f 437/138/437 438/139/438 436/137/436
f 439/140/439 431/132/431 430/131/430
f 437/138/437 440/141/440 438/139/438
f 439/140/439 441/142/441 431/132/431
f 442/143/442 440/141/440 437/138/437
f 442/143/442 443/144/443 440/141/440
f 442/143/442 444/145/444 443/144/443
f 442/143/442 445/146/445 444/145/444
f 446/147/446 441/142/441 439/140/439
f 447/148/447 445/146/445 442/143/442
f 447/148/447 448/149/448 445/146/445
f 446/147/446 449/150/449 441/142/441
f 447/148/447 450/151/450 448/149/448
f 451/152/451 450/151/450 447/148/447
f 451/152/451 452/153/452 450/151/450
f 453/154/453 449/150/449 446/147/446
f 451/152/451 454/155/454 452/153/452
f 451/152/451 455/156/455 454/155/454
f 456/157/456 455/156/455 451/152/451
f 453/154/453 457/158/457 449/150/449
f 456/157/456 458/159/458 455/156/455
f 459/160/459 458/159/458 456/157/456
f 460/161/460 457/158/457 453/154/453
f 461/162/461 458/159/458 459/160/459
f 460/161/460 462/163/462 457/158/457
f 463/164/463 462/163/462 460/161/460
f 464/165/464 458/159/458 461/162/461
f 463/164/463 465/166/465 462/163/462
f 466/167/466 458/159/458 464/165/464
f 467/168/467 465/166/465 463/164/463
f 468/169/466 458/159/458 466/167/466
f 467/168/467 469/170/468 465/166/465
f 470/171/469 469/170/468 467/168/467
f 471/172/470 458/159/458 468/169/466
f 472/173/471 473/175/472 474/174/473
f 472/173/471 475/176/474 473/175/472
f 472/173/471 476/177/475 475/176/474
f 472/173/471 477/178/476 476/177/475
f 472/173/471 478/179/477 477/178/476
f 479/180/478 478/179/477 472/173/471
f 479/180/478 480/181/479 478/179/477
f 479/180/478 481/182/480 480/181/479
f 479/180/478 482/183/481 481/182/480
f 479/180/478 483/184/482 482/183/481
f 484/185/483 483/184/482 479/180/478
f 484/185/483 485/186/484 483/184/482
f 484/185/483 486/187/485 485/186/484
f 487/188/486 469/170/468 470/171/469
f 484/185/483 471/172/470 486/187/485
f 487/188/486 488/189/487 469/170/468
f 484/185/483 458/159/458 471/172/470
f 489/190/488 458/159/458 484/185/483
f 490/191/489 458/159/458 489/190/488
f 491/192/490 458/159/458 490/191/489
f 491/192/490 492/193/491 458/159/458
f 493/194/492 488/189/487 487/188/486
f 491/192/490 494/195/493 492/193/491
f 495/196/494 494/195/493 491/192/490
f 493/194/492 496/197/495 488/189/487
f 495/196/494 497/198/496 494/195/493
f 498/199/497 499/200/498 495/196/494
f 499/200/498 500/201/499 495/196/494
f 500/201/499 497/198/496 495/196/494
f 500/201/499 501/202/500 497/198/496
f 501/202/500 502/203/501 497/198/496
f 503/204/502 496/197/495 493/194/492
f 504/205/503 502/203/501 501/202/500
f 505/206/504 502/203/501 504/205/503
f 498/199/497 506/207/505 499/200/498
f 507/208/506 502/203/501 505/206/504
f 508/209/507 502/203/501 507/208/506
f 509/210/508 502/203/501 508/209/507
f 498/199/497 510/211/509 506/207/505
f 509/210/508 511/212/510 502/203/501
f 512/213/511 511/212/510 509/210/508
f 513/214/512 511/212/510 512/213/511
f 498/199/497 514/215/513 510/211/509
f 515/216/514 511/212/510 513/214/512
f 516/217/515 514/215/513 498/199/497
f 517/218/516 511/212/510 515/216/514
f 518/219/517 511/212/510 517/218/516
f 516/217/515 519/220/518 514/215/513
f 520/221/519 511/212/510 518/219/517
f 520/221/519 521/222/520 511/212/510
f 522/223/521 523/224/522 520/221/519
f 523/224/522 521/222/520 520/221/519
f 516/217/515 524/225/523 519/220/518
f 516/217/515 525/226/524 524/225/523
f 523/224/522 526/227/525 521/222/520
f 527/228/526 525/226/524 516/217/515
f 527/228/526 528/229/527 525/226/524
f 523/224/522 529/230/528 526/227/525
f 527/228/526 530/231/529 528/229/527
f 531/232/530 530/231/529 527/228/526
f 522/223/521 532/233/531 523/224/522
f 533/234/532 529/230/528 523/224/522
f 533/234/532 534/235/533 529/230/528
f 531/232/530 535/236/534 530/231/529
f 536/237/535 534/235/533 533/234/532
f 536/237/535 537/238/536 534/235/533
f 531/232/530 538/239/537 535/236/534
f 539/240/538 532/233/531 522/223/521
f 540/241/539 537/238/536 536/237/535
f 541/242/540 538/239/537 531/232/530
f 540/241/539 542/243/541 537/238/536
f 541/242/540 543/244/542 538/239/537
f 544/245/543 542/243/541 540/241/539
f 545/246/544 532/233/531 539/240/538
f 546/247/545 542/243/541 544/245/543
f 546/247/545 547/248/546 542/243/541
f 541/242/540 548/249/547 543/244/542
f 545/246/544 549/250/548 532/233/531
f 550/251/549 549/250/548 545/246/544
f 551/252/550 548/249/547 541/242/540
f 552/253/551 547/248/546 546/247/545
f 552/253/551 553/254/552 547/248/546
f 553/254/552 554/255/553 547/248/546
f 554/255/553 555/256/554 547/248/546
f 555/256/554 556/257/555 547/248/546
f 556/257/555 557/258/556 547/248/546
f 557/258/556 558/259/557 547/248/546
f 551/252/550 559/260/558 548/249/547
f 560/261/559 549/250/548 550/251/549
f 551/252/550 561/262/560 559/260/558
f 560/261/559 562/263/561 549/250/548
f 563/264/562 562/263/561 560/261/559
f 564/265/563 561/262/560 551/252/550
f 564/265/563 565/266/564 561/262/560
f 566/267/565 562/263/561 563/264/562
f 564/265/563 567/268/566 565/266/564
f 566/267/565 568/269/567 562/263/561
f 564/265/563 569/270/568 567/268/566
f 570/271/569 568/269/567 566/267/565
f 571/272/570 569/270/568 564/265/563
f 571/272/570 572/273/571 569/270/568
f 573/274/572 568/269/567 570/271/569
f 573/274/572 574/275/573 568/269/567
f 571/272/570 575/276/574 572/273/571
f 576/277/575 574/275/573 573/274/572
f 571/272/570 577/278/576 575/276/574
f 578/279/577 574/275/573 576/277/575
f 579/280/578 577/278/576 571/272/570
f 579/280/578 580/281/579 577/278/576
f 581/282/580 574/275/573 578/279/577
f 579/280/578 582/283/581 580/281/579
f 583/284/582 574/275/573 581/282/580
f 579/280/578 583/284/582 582/283/581
f 579/280/578 574/275/573 583/284/582
f 579/280/578 584/285/583 574/275/573
f 585/286/584 584/285/583 579/280/578
f 585/286/584 586/287/585 584/285/583
f 587/288/586 586/287/585 585/286/584
f 587/288/586 588/289/587 586/287/585
f 589/290/588 588/289/587 587/288/586
f 589/290/588 590/291/589 588/289/587
f 591/292/590 590/291/589 589/290/588
f 591/292/590 592/293/591 590/291/589
f 593/294/592 592/293/591 591/292/590
f 593/294/592 594/295/593 592/293/591
f 595/296/594 594/295/593 593/294/592
f 595/296/594 596/297/595 594/295/593
f 597/298/596 596/297/595 595/296/594
f 597/298/596 598/299/597 596/297/595
f 229/113/113 414/115/414 228/115/115
f 224/116/116 413/114/413 223/114/114
f 228/115/115 416/117/416 227/117/117
f 225/118/118 415/116/415 224/116/116
f 226/119/119 417/118/417 225/118/118
f 227/117/117 418/119/418 226/119/119
f 20/94/94 419/120/419 393/94/393
f 4/100/100 420/121/420 3/121/121
f 3/121/121 421/122/421 2/122/122
f 21/120/120 422/123/422 419/120/419
f 261/124/124 392/93/392 423/124/423
f 239/97/97 424/125/424 396/97/396
f 23/126/126 422/123/422 22/123/123
f 24/127/127 425/126/425 23/126/126
f 24/127/127 427/128/427 426/127/426
f 25/128/128 428/129/428 427/128/427
f 26/129/129 429/130/429 428/129/428
f 2/122/122 429/130/429 1/130/130
f 240/125/125 430/131/430 424/125/424
f 261/124/124 431/132/431 260/132/132
f 77/134/134 433/135/433 76/135/135
f 77/134/134 432/133/432 434/134/434
f 76/135/135 435/136/435 175/136/136
f 175/136/136 436/137/436 174/137/137
f 79/138/138 432/133/432 78/133/133
f 174/137/137 438/139/438 173/139/139
f 242/140/140 430/131/430 241/131/131
f 172/141/141 438/139/438 440/141/440
f 259/142/142 431/132/431 441/142/441
f 79/138/138 442/143/442 437/138/437
f 172/141/141 443/144/443 171/144/144
f 171/144/144 444/145/444 170/145/145
f 170/145/145 445/146/445 169/146/146
f 243/147/147 439/140/439 242/140/140
f 80/143/143 447/148/447 442/143/442
f 169/146/146 448/149/448 168/149/149
f 258/150/150 441/142/441 449/150/449
f 168/149/149 450/151/450 167/151/151
f 82/152/152 447/148/447 81/148/148
f 167/151/151 452/153/452 166/153/153
f 244/154/154 446/147/446 243/147/147
f 165/155/155 452/153/452 454/155/454
f 165/155/155 455/156/455 164/156/156
f 82/152/152 456/157/456 451/152/451
f 258/150/150 457/158/457 257/158/158
f 164/156/156 458/159/458 163/159/159
f 84/160/160 456/157/456 83/157/157
f 245/161/161 453/154/453 244/154/154
f 85/162/162 459/160/459 84/160/160
f 257/158/158 462/163/462 256/163/163
f 246/164/164 460/161/460 245/161/161
f 85/162/162 464/165/464 461/162/461
f 256/163/163 465/166/465 255/166/166
f 87/167/167 464/165/464 86/165/165
f 247/168/168 463/164/463 246/164/164
f 88/169/169 466/167/466 87/167/167
f 254/170/170 465/166/465 469/170/468
f 247/168/168 470/171/469 467/168/467
f 88/169/169 471/172/470 468/169/466
f 101/174/174 473/175/472 100/175/175
f 102/173/173 474/174/473 101/174/174
f 100/175/175 475/176/474 99/176/176
f 99/176/176 476/177/475 98/177/177
f 98/177/177 477/178/476 97/178/178
f 97/178/178 478/179/477 96/179/179
f 103/180/180 472/173/471 102/173/173
f 96/179/179 480/181/479 95/181/181
f 95/181/181 481/182/480 94/182/182
f 94/182/182 482/183/481 93/183/183
f 93/183/183 483/184/482 92/184/184
f 103/180/180 484/185/483 479/180/478
f 92/184/184 485/186/484 91/186/186
f 91/186/186 486/187/485 90/187/187
f 248/171/171 487/188/486 470/171/469
f 90/187/187 471/172/470 89/172/172
f 253/189/189 469/170/468 488/189/487
f 104/185/185 489/190/488 484/185/483
f 106/191/191 489/190/488 105/190/190
f 107/192/192 490/191/489 106/191/191
f 163/159/159 492/193/491 162/193/193
f 250/194/194 487/188/486 249/188/188
f 161/195/195 492/193/491 494/195/493
f 107/192/192 495/196/494 491/192/490
f 253/189/189 496/197/495 252/197/197
f 161/195/195 497/198/496 160/198/198
f 108/196/196 498/199/497 495/196/494
f 64/201/201 499/200/498 63/200/200
f 65/202/202 500/201/499 64/201/201
f 160/198/198 502/203/501 159/203/203
f 251/204/204 496/197/495 503/204/502
f 251/204/204 493/194/492 250/194/194
f 66/205/205 501/202/500 65/202/202
f 66/205/205 505/206/504 504/205/503
f 63/200/200 506/207/505 62/207/207
f 68/208/208 505/206/504 67/206/206
f 69/209/209 507/208/506 68/208/208
f 70/210/210 508/209/507 69/209/209
f 62/207/207 510/211/509 61/211/211
f 159/203/203 511/212/510 158/212/212
f 71/213/213 509/210/508 70/210/210
f 72/214/214 512/213/511 71/213/213
f 61/211/211 514/215/513 60/215/215
f 73/216/216 513/214/512 72/214/214
f 109/199/199 516/217/515 498/199/497
f 74/218/218 515/216/514 73/216/216
f 75/219/219 517/218/516 74/218/218
f 60/215/215 519/220/518 59/220/220
f 27/221/221 518/219/517 75/219/219
f 158/212/212 521/222/520 157/222/222
f 28/223/223 520/221/519 27/221/221
f 59/220/220 524/225/523 58/225/225
f 58/225/225 525/226/524 57/226/226
f 157/222/222 526/227/525 156/227/227
f 111/228/228 516/217/515 110/217/217
f 56/229/229 525/226/524 528/229/527
f 155/230/230 526/227/525 529/230/528
f 56/229/229 530/231/529 55/231/231
f 111/228/228 531/232/530 527/228/526
f 138/224/224 532/233/531 137/233/233
f 139/234/234 523/224/522 138/224/224
f 155/230/230 534/235/533 154/235/235
f 55/231/231 535/236/534 54/236/236
f 139/234/234 536/237/535 533/234/532
f 154/235/235 537/238/536 153/238/238
f 54/236/236 538/239/537 53/239/239
f 28/223/223 539/240/538 522/223/521
f 140/237/237 540/241/539 536/237/535
f 113/242/242 531/232/530 112/232/232
f 153/238/238 542/243/541 152/243/243
f 53/239/239 543/244/542 52/244/244
f 141/241/241 544/245/543 540/241/539
f 30/246/246 539/240/538 29/240/240
f 143/247/247 544/245/543 142/245/245
f 152/243/243 547/248/546 151/248/248
f 52/244/244 548/249/547 51/249/249
f 136/250/250 532/233/531 549/250/548
f 31/251/251 545/246/544 30/246/246
f 114/252/252 541/242/540 113/242/242
f 144/253/253 546/247/545 143/247/247
f 145/254/254 552/253/551 144/253/253
f 146/255/255 553/254/552 145/254/254
f 147/256/256 554/255/553 146/255/255
f 148/257/257 555/256/554 147/256/256
f 149/258/258 556/257/555 148/257/257
f 150/259/259 557/258/556 149/258/258
f 150/259/259 547/248/546 558/259/557
f 50/260/260 548/249/547 559/260/558
f 31/251/251 560/261/559 550/251/549
f 50/260/260 561/262/560 49/262/262
f 135/263/263 549/250/548 562/263/561
f 33/264/264 560/261/559 32/261/261
f 115/265/265 551/252/550 114/252/252
f 48/266/266 561/262/560 565/266/564
f 34/267/267 563/264/562 33/264/264
f 48/266/266 567/268/566 47/268/268
f 135/263/263 568/269/567 134/269/269
f 47/268/268 569/270/568 46/270/270
f 35/271/271 566/267/565 34/267/267
f 116/272/272 564/265/563 115/265/265
f 46/270/270 572/273/571 45/273/273
f 36/274/274 570/271/569 35/271/271
f 133/275/275 568/269/567 574/275/573
f 44/276/276 572/273/571 575/276/574
f 37/277/277 573/274/572 36/274/274
f 44/276/276 577/278/576 43/278/278
f 38/279/279 576/277/575 37/277/277
f 117/280/280 571/272/570 116/272/272
f 43/278/278 580/281/579 42/281/281
f 39/282/282 578/279/577 38/279/279
f 42/281/281 582/283/581 41/283/283
f 40/284/284 581/282/580 39/282/282
f 41/283/283 583/284/582 40/284/284
f 132/285/285 574/275/573 584/285/583
f 118/286/286 579/280/578 117/280/280
f 131/287/287 584/285/583 586/287/585
f 119/288/288 585/286/584 118/286/286
f 131/287/287 588/289/587 130/289/289
f 120/290/290 587/288/586 119/288/288
f 129/291/291 588/289/587 590/291/589
f 121/292/292 589/290/588 120/290/290
f 129/291/291 592/293/591 128/293/293
f 122/294/294 591/292/590 121/292/292
f 127/295/295 592/293/591 594/295/593
f 123/296/296 593/294/592 122/294/294
f 127/295/295 596/297/595 126/297/297
f 124/298/298 595/296/594 123/296/296
f 125/299/299 597/298/596 124/298/298
f 126/297/297 598/299/597 125/299/299
f 177/2/2 301/3/301 176/3/3
f 178/1/1 302/2/302 177/2/2
f 176/3/3 303/4/303 299/4/4
f 179/5/5 300/1/300 178/1/1
f 299/4/4 305/6/305 298/6/6
f 180/7/7 304/5/304 179/5/5
f 297/8/8 305/6/305 307/8/307
f 296/9/9 307/8/307 308/9/308
f 181/10/10 306/7/306 180/7/7
f 295/11/11 308/9/308 310/11/310
f 182/12/12 309/10/309 181/10/10
f 295/11/11 312/13/312 294/13/13
f 183/14/14 311/12/311 182/12/12
f 293/15/15 312/13/312 314/15/314
f 184/16/16 313/14/313 183/14/14
f 293/15/15 316/17/316 292/17/17
f 185/18/18 315/16/315 184/16/16
f 291/19/19 316/17/316 318/19/318
f 186/20/20 317/18/317 185/18/18
f 290/21/21 318/19/318 320/21/320
f 275/24/24 323/23/323 322/24/322
f 277/22/22 323/23/323 276/23/23
f 187/25/25 319/20/319 186/20/20
f 278/26/26 321/22/321 277/22/22
f 290/21/21 326/27/326 289/27/27
f 279/28/28 325/26/325 278/26/26
f 280/29/29 327/28/327 279/28/28
f 281/30/30 328/29/328 280/29/29
f 187/25/25 330/31/330 324/25/324
f 282/32/32 329/30/329 281/30/30
f 14/34/34 333/35/333 13/35/35
f 15/33/33 334/34/334 14/34/34
f 282/32/32 335/36/335 331/32/331
f 289/27/27 336/37/336 288/37/37
f 284/38/38 335/36/335 283/36/36
f 285/39/39 337/38/337 284/38/38
f 13/35/35 339/40/339 12/40/40
f 286/41/41 338/39/338 285/39/39
f 287/42/42 340/41/340 286/41/41
f 189/43/43 330/31/330 188/31/31
f 287/42/42 336/37/336 341/42/341
f 11/44/44 339/40/339 343/44/343
f 213/46/46 345/47/345 212/47/47
f 213/46/46 344/45/344 346/46/346
f 212/47/47 347/48/347 211/48/48
f 190/49/49 342/43/342 189/43/43
f 211/48/48 349/50/349 210/50/50
f 191/51/51 348/49/348 190/49/49
f 210/50/50 351/52/351 209/52/52
f 11/44/44 352/53/352 10/53/53
f 192/54/54 350/51/350 191/51/51
f 209/52/52 354/55/354 208/55/55
f 193/56/56 353/54/353 192/54/54
f 194/57/57 355/56/355 193/56/56
f 208/55/55 357/58/357 207/58/58
f 195/59/59 356/57/356 194/57/57
f 207/58/58 359/60/359 206/60/60
f 196/61/61 358/59/358 195/59/59
f 206/60/60 361/62/361 205/62/62
f 196/61/61 362/63/362 360/61/360
f 205/62/62 363/64/363 204/64/64
f 198/65/65 362/63/362 197/63/63
f 204/64/64 365/66/365 203/66/66
f 199/67/67 364/65/364 198/65/65
f 203/66/66 367/68/367 202/68/68
f 200/69/69 366/67/366 199/67/67
f 202/68/68 369/70/369 201/70/70
f 201/70/70 368/69/368 200/69/69
f 10/53/53 370/71/370 9/71/71
f 9/71/71 371/72/371 8/72/72
f 275/24/24 372/73/372 274/73/73
f 274/73/73 373/74/373 273/74/74
f 16/75/75 332/33/332 15/33/33
f 273/74/74 375/76/375 272/76/76
f 8/72/72 376/77/376 7/77/77
f 271/78/78 375/76/375 377/78/377
f 16/75/75 378/79/378 374/75/374
f 271/78/78 379/80/379 270/80/80
f 270/80/80 380/81/380 269/81/81
f 269/81/81 381/82/381 268/82/82
f 6/83/83 376/77/376 382/83/382
f 18/84/84 378/79/378 17/79/79
f 268/82/82 384/85/384 267/85/85
f 266/86/86 384/85/384 385/86/385
f 266/86/86 386/87/386 265/87/87
f 265/87/87 387/88/387 264/88/88
f 19/89/89 383/84/383 18/84/84
f 6/83/83 389/90/389 5/90/90
f 264/88/88 390/91/390 263/91/91
f 263/91/91 392/93/392 262/93/93
f 19/89/89 393/94/393 388/89/388
f 215/95/95 344/45/344 214/45/45
f 238/92/92 395/96/395 237/96/96
f 239/97/97 391/92/391 238/92/92
f 237/96/96 397/98/397 236/98/98
f 215/95/95 398/99/398 394/95/394
f 5/90/90 399/100/399 4/100/100
f 236/98/98 400/101/400 235/101/101
f 217/102/102 398/99/398 216/99/99
f 235/101/101 402/103/402 234/103/103
f 218/104/104 401/102/401 217/102/102
f 234/103/103 404/105/404 233/105/105
f 219/106/106 403/104/403 218/104/104
f 233/105/105 406/107/406 232/107/107
f 220/108/108 405/106/405 219/106/106
f 232/107/107 408/109/408 231/109/109
f 221/110/110 407/108/407 220/108/108
f 231/109/109 410/111/410 230/111/111
f 222/112/112 409/110/409 221/110/110
f 230/111/111 412/113/412 229/113/113
f 223/114/114 411/112/411 222/112/112
s 0
f 600/300/598 601/301/598 599/302/598
f 602/303/599 605/304/599 601/301/599
f 606/305/600 603/306/600 605/304/600
f 604/307/601 599/308/601 603/306/601
f 605/304/602 599/309/602 601/310/602
f 602/311/603 604/307/603 606/305/603
s 1
f 229/113/113 412/113/412 414/115/414
f 224/116/116 415/116/415 413/114/413
f 228/115/115 414/115/414 416/117/416
f 225/118/118 417/118/417 415/116/415
f 226/119/119 418/119/418 417/118/417
f 227/117/117 416/117/416 418/119/418
f 20/94/94 21/120/120 419/120/419
f 4/100/100 399/100/399 420/121/420
f 3/121/121 420/121/420 421/122/421
f 21/120/120 22/123/123 422/123/422
f 261/124/124 262/93/93 392/93/392
f 239/97/97 240/125/125 424/125/424
f 23/126/126 425/126/425 422/123/422
f 24/127/127 426/127/426 425/126/425
f 24/127/127 25/128/128 427/128/427
f 25/128/128 26/129/129 428/129/428
f 26/129/129 1/130/130 429/130/429
f 2/122/122 421/122/421 429/130/429
f 240/125/125 241/131/131 430/131/430
f 261/124/124 423/124/423 431/132/431
f 77/134/134 434/134/434 433/135/433
f 77/134/134 78/133/133 432/133/432
f 76/135/135 433/135/433 435/136/435
f 175/136/136 435/136/435 436/137/436
f 79/138/138 437/138/437 432/133/432
f 174/137/137 436/137/436 438/139/438
f 242/140/140 439/140/439 430/131/430
f 172/141/141 173/139/139 438/139/438
f 259/142/142 260/132/132 431/132/431
f 79/138/138 80/143/143 442/143/442
f 172/141/141 440/141/440 443/144/443
f 171/144/144 443/144/443 444/145/444
f 170/145/145 444/145/444 445/146/445
f 243/147/147 446/147/446 439/140/439
f 80/143/143 81/148/148 447/148/447
f 169/146/146 445/146/445 448/149/448
f 258/150/150 259/142/142 441/142/441
f 168/149/149 448/149/448 450/151/450
f 82/152/152 451/152/451 447/148/447
f 167/151/151 450/151/450 452/153/452
f 244/154/154 453/154/453 446/147/446
f 165/155/155 166/153/153 452/153/452
f 165/155/155 454/155/454 455/156/455
f 82/152/152 83/157/157 456/157/456
f 258/150/150 449/150/449 457/158/457
f 164/156/156 455/156/455 458/159/458
f 84/160/160 459/160/459 456/157/456
f 245/161/161 460/161/460 453/154/453
f 85/162/162 461/162/461 459/160/459
f 257/158/158 457/158/457 462/163/462
f 246/164/164 463/164/463 460/161/460
f 85/162/162 86/165/165 464/165/464
f 256/163/163 462/163/462 465/166/465
f 87/167/167 466/167/466 464/165/464
f 247/168/168 467/168/467 463/164/463
f 88/169/169 468/169/466 466/167/466
f 254/170/170 255/166/166 465/166/465
f 247/168/168 248/171/171 470/171/469
f 88/169/169 89/172/172 471/172/470
f 101/174/174 474/174/473 473/175/472
f 102/173/173 472/173/471 474/174/473
f 100/175/175 473/175/472 475/176/474
f 99/176/176 475/176/474 476/177/475
f 98/177/177 476/177/475 477/178/476
f 97/178/178 477/178/476 478/179/477
f 103/180/180 479/180/478 472/173/471
f 96/179/179 478/179/477 480/181/479
f 95/181/181 480/181/479 481/182/480
f 94/182/182 481/182/480 482/183/481
f 93/183/183 482/183/481 483/184/482
f 103/180/180 104/185/185 484/185/483
f 92/184/184 483/184/482 485/186/484
f 91/186/186 485/186/484 486/187/485
f 248/171/171 249/188/188 487/188/486
f 90/187/187 486/187/485 471/172/470
f 253/189/189 254/170/170 469/170/468
f 104/185/185 105/190/190 489/190/488
f 106/191/191 490/191/489 489/190/488
f 107/192/192 491/192/490 490/191/489
f 163/159/159 458/159/458 492/193/491
f 250/194/194 493/194/492 487/188/486
f 161/195/195 162/193/193 492/193/491
f 107/192/192 108/196/196 495/196/494
f 253/189/189 488/189/487 496/197/495
f 161/195/195 494/195/493 497/198/496
f 108/196/196 109/199/199 498/199/497
f 64/201/201 500/201/499 499/200/498
f 65/202/202 501/202/500 500/201/499
f 160/198/198 497/198/496 502/203/501
f 251/204/204 252/197/197 496/197/495
f 251/204/204 503/204/502 493/194/492
f 66/205/205 504/205/503 501/202/500
f 66/205/205 67/206/206 505/206/504
f 63/200/200 499/200/498 506/207/505
f 68/208/208 507/208/506 505/206/504
f 69/209/209 508/209/507 507/208/506
f 70/210/210 509/210/508 508/209/507
f 62/207/207 506/207/505 510/211/509
f 159/203/203 502/203/501 511/212/510
f 71/213/213 512/213/511 509/210/508
f 72/214/214 513/214/512 512/213/511
f 61/211/211 510/211/509 514/215/513
f 73/216/216 515/216/514 513/214/512
f 109/199/199 110/217/217 516/217/515
f 74/218/218 517/218/516 515/216/514
f 75/219/219 518/219/517 517/218/516
f 60/215/215 514/215/513 519/220/518
f 27/221/221 520/221/519 518/219/517
f 158/212/212 511/212/510 521/222/520
f 28/223/223 522/223/521 520/221/519
f 59/220/220 519/220/518 524/225/523
f 58/225/225 524/225/523 525/226/524
f 157/222/222 521/222/520 526/227/525
f 111/228/228 527/228/526 516/217/515
f 56/229/229 57/226/226 525/226/524
f 155/230/230 156/227/227 526/227/525
f 56/229/229 528/229/527 530/231/529
f 111/228/228 112/232/232 531/232/530
f 138/224/224 523/224/522 532/233/531
f 139/234/234 533/234/532 523/224/522
f 155/230/230 529/230/528 534/235/533
f 55/231/231 530/231/529 535/236/534
f 139/234/234 140/237/237 536/237/535
f 154/235/235 534/235/533 537/238/536
f 54/236/236 535/236/534 538/239/537
f 28/223/223 29/240/240 539/240/538
f 140/237/237 141/241/241 540/241/539
f 113/242/242 541/242/540 531/232/530
f 153/238/238 537/238/536 542/243/541
f 53/239/239 538/239/537 543/244/542
f 141/241/241 142/245/245 544/245/543
f 30/246/246 545/246/544 539/240/538
f 143/247/247 546/247/545 544/245/543
f 152/243/243 542/243/541 547/248/546
f 52/244/244 543/244/542 548/249/547
f 136/250/250 137/233/233 532/233/531
f 31/251/251 550/251/549 545/246/544
f 114/252/252 551/252/550 541/242/540
f 144/253/253 552/253/551 546/247/545
f 145/254/254 553/254/552 552/253/551
f 146/255/255 554/255/553 553/254/552
f 147/256/256 555/256/554 554/255/553
f 148/257/257 556/257/555 555/256/554
f 149/258/258 557/258/556 556/257/555
f 150/259/259 558/259/557 557/258/556
f 150/259/259 151/248/248 547/248/546
f 50/260/260 51/249/249 548/249/547
f 31/251/251 32/261/261 560/261/559
f 50/260/260 559/260/558 561/262/560
f 135/263/263 136/250/250 549/250/548
f 33/264/264 563/264/562 560/261/559
f 115/265/265 564/265/563 551/252/550
f 48/266/266 49/262/262 561/262/560
f 34/267/267 566/267/565 563/264/562
f 48/266/266 565/266/564 567/268/566
f 135/263/263 562/263/561 568/269/567
f 47/268/268 567/268/566 569/270/568
f 35/271/271 570/271/569 566/267/565
f 116/272/272 571/272/570 564/265/563
f 46/270/270 569/270/568 572/273/571
f 36/274/274 573/274/572 570/271/569
f 133/275/275 134/269/269 568/269/567
f 44/276/276 45/273/273 572/273/571
f 37/277/277 576/277/575 573/274/572
f 44/276/276 575/276/574 577/278/576
f 38/279/279 578/279/577 576/277/575
f 117/280/280 579/280/578 571/272/570
f 43/278/278 577/278/576 580/281/579
f 39/282/282 581/282/580 578/279/577
f 42/281/281 580/281/579 582/283/581
f 40/284/284 583/284/582 581/282/580
f 41/283/283 582/283/581 583/284/582
f 132/285/285 133/275/275 574/275/573
f 118/286/286 585/286/584 579/280/578
f 131/287/287 132/285/285 584/285/583
f 119/288/288 587/288/586 585/286/584
f 131/287/287 586/287/585 588/289/587
f 120/290/290 589/290/588 587/288/586
f 129/291/291 130/289/289 588/289/587
f 121/292/292 591/292/590 589/290/588
f 129/291/291 590/291/589 592/293/591
f 122/294/294 593/294/592 591/292/590
f 127/295/295 128/293/293 592/293/591
f 123/296/296 595/296/594 593/294/592
f 127/295/295 594/295/593 596/297/595
f 124/298/298 597/298/596 595/296/594
f 125/299/299 598/299/597 597/298/596
f 126/297/297 596/297/595 598/299/597
f 177/2/2 302/2/302 301/3/301
f 178/1/1 300/1/300 302/2/302
f 176/3/3 301/3/301 303/4/303
f 179/5/5 304/5/304 300/1/300
f 299/4/4 303/4/303 305/6/305
f 180/7/7 306/7/306 304/5/304
f 297/8/8 298/6/6 305/6/305
f 296/9/9 297/8/8 307/8/307
f 181/10/10 309/10/309 306/7/306
f 295/11/11 296/9/9 308/9/308
f 182/12/12 311/12/311 309/10/309
f 295/11/11 310/11/310 312/13/312
f 183/14/14 313/14/313 311/12/311
f 293/15/15 294/13/13 312/13/312
f 184/16/16 315/16/315 313/14/313
f 293/15/15 314/15/314 316/17/316
f 185/18/18 317/18/317 315/16/315
f 291/19/19 292/17/17 316/17/316
f 186/20/20 319/20/319 317/18/317
f 290/21/21 291/19/19 318/19/318
f 275/24/24 276/23/23 323/23/323
f 277/22/22 321/22/321 323/23/323
f 187/25/25 324/25/324 319/20/319
f 278/26/26 325/26/325 321/22/321
f 290/21/21 320/21/320 326/27/326
f 279/28/28 327/28/327 325/26/325
f 280/29/29 328/29/328 327/28/327
f 281/30/30 329/30/329 328/29/328
f 187/25/25 188/31/31 330/31/330
f 282/32/32 331/32/331 329/30/329
f 14/34/34 334/34/334 333/35/333
f 15/33/33 332/33/332 334/34/334
f 282/32/32 283/36/36 335/36/335
f 289/27/27 326/27/326 336/37/336
f 284/38/38 337/38/337 335/36/335
f 285/39/39 338/39/338 337/38/337
f 13/35/35 333/35/333 339/40/339
f 286/41/41 340/41/340 338/39/338
f 287/42/42 341/42/341 340/41/340
f 189/43/43 342/43/342 330/31/330
f 287/42/42 288/37/37 336/37/336
f 11/44/44 12/40/40 339/40/339
f 213/46/46 346/46/346 345/47/345
f 213/46/46 214/45/45 344/45/344
f 212/47/47 345/47/345 347/48/347
f 190/49/49 348/49/348 342/43/342
f 211/48/48 347/48/347 349/50/349
f 191/51/51 350/51/350 348/49/348
f 210/50/50 349/50/349 351/52/351
f 11/44/44 343/44/343 352/53/352
f 192/54/54 353/54/353 350/51/350
f 209/52/52 351/52/351 354/55/354
f 193/56/56 355/56/355 353/54/353
f 194/57/57 356/57/356 355/56/355
f 208/55/55 354/55/354 357/58/357
f 195/59/59 358/59/358 356/57/356
f 207/58/58 357/58/357 359/60/359
f 196/61/61 360/61/360 358/59/358
f 206/60/60 359/60/359 361/62/361
f 196/61/61 197/63/63 362/63/362
f 205/62/62 361/62/361 363/64/363
f 198/65/65 364/65/364 362/63/362
f 204/64/64 363/64/363 365/66/365
f 199/67/67 366/67/366 364/65/364
f 203/66/66 365/66/365 367/68/367
f 200/69/69 368/69/368 366/67/366
f 202/68/68 367/68/367 369/70/369
f 201/70/70 369/70/369 368/69/368
f 10/53/53 352/53/352 370/71/370
f 9/71/71 370/71/370 371/72/371
f 275/24/24 322/24/322 372/73/372
f 274/73/73 372/73/372 373/74/373
f 16/75/75 374/75/374 332/33/332
f 273/74/74 373/74/373 375/76/375
f 8/72/72 371/72/371 376/77/376
f 271/78/78 272/76/76 375/76/375
f 16/75/75 17/79/79 378/79/378
f 271/78/78 377/78/377 379/80/379
f 270/80/80 379/80/379 380/81/380
f 269/81/81 380/81/380 381/82/381
f 6/83/83 7/77/77 376/77/376
f 18/84/84 383/84/383 378/79/378
f 268/82/82 381/82/381 384/85/384
f 266/86/86 267/85/85 384/85/384
f 266/86/86 385/86/385 386/87/386
f 265/87/87 386/87/386 387/88/387
f 19/89/89 388/89/388 383/84/383
f 6/83/83 382/83/382 389/90/389
f 264/88/88 387/88/387 390/91/390
f 263/91/91 390/91/390 392/93/392
f 19/89/89 20/94/94 393/94/393
f 215/95/95 394/95/394 344/45/344
f 238/92/92 391/92/391 395/96/395
f 239/97/97 396/97/396 391/92/391
f 237/96/96 395/96/395 397/98/397
f 215/95/95 216/99/99 398/99/398
f 5/90/90 389/90/389 399/100/399
f 236/98/98 397/98/397 400/101/400
f 217/102/102 401/102/401 398/99/398
f 235/101/101 400/101/400 402/103/402
f 218/104/104 403/104/403 401/102/401
f 234/103/103 402/103/402 404/105/404
f 219/106/106 405/106/405 403/104/403
f 233/105/105 404/105/404 406/107/406
f 220/108/108 407/108/407 405/106/405
f 232/107/107 406/107/406 408/109/408
f 221/110/110 409/110/409 407/108/407
f 231/109/109 408/109/408 410/111/410
f 222/112/112 411/112/411 409/110/409
f 230/111/111 410/111/410 412/113/412
f 223/114/114 413/114/413 411/112/411
s 0
f 600/300/598 602/303/598 601/301/598
f 602/303/599 606/305/599 605/304/599
f 606/305/600 604/307/600 603/306/600
f 604/307/601 600/312/601 599/308/601
f 605/304/602 603/306/602 599/309/602
f 602/311/603 600/313/603 604/307/603
