# Blender 4.4.1
# www.blender.org
mtllib Title_Ice4.mtl
o 4.の
v -0.180202 -0.000000 -0.531525
v -0.185251 -0.000000 -0.491872
v -0.190921 -0.000000 -0.452094
v -0.197188 -0.000000 -0.412280
v -0.204028 -0.000000 -0.372520
v -0.211417 -0.000000 -0.332903
v -0.219332 -0.000000 -0.293519
v -0.227749 -0.000000 -0.254458
v -0.236644 -0.000000 -0.215809
v -0.245992 -0.000000 -0.177661
v -0.255770 -0.000000 -0.140105
v -0.265955 -0.000000 -0.103230
v -0.276522 -0.000000 -0.067125
v -0.298516 -0.000000 0.001925
v -0.320605 -0.000000 0.063874
v -0.342742 -0.000000 0.118931
v -0.364879 -0.000000 0.167305
v -0.386968 -0.000000 0.209205
v -0.408962 -0.000000 0.244840
v -0.430813 -0.000000 0.274420
v -0.452472 -0.000000 0.298153
v -0.473893 -0.000000 0.316247
v -0.495026 -0.000000 0.328913
v -0.515826 -0.000000 0.336360
v -0.536242 -0.000000 0.338795
v -0.555988 -0.000000 0.336775
v -0.576240 -0.000000 0.330657
v -0.596577 -0.000000 0.320359
v -0.616573 -0.000000 0.305797
v -0.635805 -0.000000 0.286887
v -0.653848 -0.000000 0.263545
v -0.670278 -0.000000 0.235689
v -0.684673 -0.000000 0.203234
v -0.696606 -0.000000 0.166097
v -0.705655 -0.000000 0.124194
v -0.711395 -0.000000 0.077441
v -0.713403 -0.000000 0.025755
v -0.709218 -0.000000 -0.033561
v -0.696840 -0.000000 -0.093880
v -0.676530 -0.000000 -0.154199
v -0.648552 -0.000000 -0.213516
v -0.613169 -0.000000 -0.270825
v -0.570643 -0.000000 -0.325124
v -0.521237 -0.000000 -0.375411
v -0.465213 -0.000000 -0.420680
v -0.402835 -0.000000 -0.459929
v -0.334366 -0.000000 -0.492156
v -0.260067 -0.000000 -0.516355
v -0.037442 -0.000000 -0.534965
v 0.033018 -0.000000 -0.524657
v 0.098103 -0.000000 -0.506967
v 0.157670 -0.000000 -0.482397
v 0.211576 -0.000000 -0.451449
v 0.259676 -0.000000 -0.414624
v 0.301828 -0.000000 -0.372425
v 0.337888 -0.000000 -0.325352
v 0.367714 -0.000000 -0.273907
v 0.391161 -0.000000 -0.218592
v 0.408086 -0.000000 -0.159909
v 0.418346 -0.000000 -0.098359
v 0.421798 -0.000000 -0.034445
v 0.417406 -0.000000 0.037162
v 0.404725 -0.000000 0.103251
v 0.384495 -0.000000 0.163893
v 0.357457 -0.000000 0.219160
v 0.324351 -0.000000 0.269124
v 0.285918 -0.000000 0.313855
v 0.242898 -0.000000 0.353427
v 0.196032 0.000000 0.387911
v 0.146061 0.000000 0.417378
v 0.093724 0.000000 0.441900
v 0.039763 0.000000 0.461549
v -0.015082 0.000000 0.476396
v -0.025252 0.000000 0.478544
v -0.035953 0.000000 0.480680
v -0.047144 0.000000 0.482792
v -0.058783 0.000000 0.484868
v -0.070828 0.000000 0.486897
v -0.083237 0.000000 0.488865
v -0.095969 0.000000 0.490763
v -0.108981 0.000000 0.492576
v -0.122232 0.000000 0.494294
v -0.135680 0.000000 0.495905
v -0.149284 0.000000 0.497396
v -0.163002 0.000000 0.498756
v -0.082162 0.000000 0.626035
v 0.016162 0.000000 0.608838
v 0.107157 0.000000 0.584063
v 0.190592 0.000000 0.551941
v 0.266234 0.000000 0.512707
v 0.333848 0.000000 0.466592
v 0.393203 0.000000 0.413830
v 0.444065 -0.000000 0.354655
v 0.486202 -0.000000 0.289298
v 0.519381 -0.000000 0.217992
v 0.543369 -0.000000 0.140972
v 0.557932 -0.000000 0.058468
v 0.562838 -0.000000 -0.029285
v 0.557563 -0.000000 -0.115086
v 0.541991 -0.000000 -0.197407
v 0.516505 -0.000000 -0.275486
v 0.481488 -0.000000 -0.348567
v 0.437322 -0.000000 -0.415891
v 0.384388 -0.000000 -0.476699
v 0.323069 -0.000000 -0.530234
v 0.253748 -0.000000 -0.575735
v 0.176806 -0.000000 -0.612445
v 0.092625 -0.000000 -0.639606
v 0.001589 -0.000000 -0.656458
v -0.095922 -0.000000 -0.662245
v -0.198873 -0.000000 -0.655599
v -0.297322 -0.000000 -0.636309
v -0.390418 -0.000000 -0.605350
v -0.477316 -0.000000 -0.563695
v -0.557167 -0.000000 -0.512317
v -0.629122 -0.000000 -0.452190
v -0.692334 -0.000000 -0.384286
v -0.745955 -0.000000 -0.309581
v -0.789136 -0.000000 -0.229046
v -0.821029 -0.000000 -0.143657
v -0.840788 -0.000000 -0.054385
v -0.847562 -0.000000 0.037795
v -0.844462 -0.000000 0.106449
v -0.835514 -0.000000 0.170355
v -0.821252 -0.000000 0.229280
v -0.802205 -0.000000 0.282991
v -0.778907 -0.000000 0.331256
v -0.751887 -0.000000 0.373841
v -0.721678 0.000000 0.410513
v -0.688812 0.000000 0.441040
v -0.653820 0.000000 0.465189
v -0.617234 0.000000 0.482726
v -0.579583 0.000000 0.493419
v -0.541402 0.000000 0.497036
v -0.501918 0.000000 0.493277
v -0.463461 0.000000 0.482017
v -0.426055 0.000000 0.463280
v -0.389724 0.000000 0.437090
v -0.354491 0.000000 0.403471
v -0.320382 -0.000000 0.362446
v -0.287420 -0.000000 0.314039
v -0.255627 -0.000000 0.258274
v -0.225030 -0.000000 0.195175
v -0.195650 -0.000000 0.124767
v -0.167513 -0.000000 0.047072
v -0.140642 -0.000000 -0.037885
v -0.128922 -0.000000 -0.078180
v -0.117828 -0.000000 -0.119019
v -0.107344 -0.000000 -0.160300
v -0.097451 -0.000000 -0.201922
v -0.088131 -0.000000 -0.243782
v -0.079367 -0.000000 -0.285780
v -0.071140 -0.000000 -0.327813
v -0.063433 -0.000000 -0.369781
v -0.056227 -0.000000 -0.411581
v -0.049506 -0.000000 -0.453113
v -0.043250 -0.000000 -0.494275
v -0.198873 0.199906 -0.655599
v 0.001589 0.199906 -0.656458
v -0.095922 0.199906 -0.662245
v 0.092625 0.199906 -0.639606
v -0.297322 0.199906 -0.636309
v 0.176806 0.199906 -0.612445
v -0.390418 0.199906 -0.605350
v 0.253748 0.199906 -0.575735
v -0.477316 0.199906 -0.563695
v 0.323069 0.199906 -0.530234
v -0.557167 0.199906 -0.512317
v -0.180202 0.199906 -0.531525
v -0.037442 0.199906 -0.534965
v -0.043250 0.199906 -0.494275
v 0.033018 0.199906 -0.524657
v -0.260067 0.199906 -0.516355
v -0.185251 0.199906 -0.491872
v 0.384388 0.199906 -0.476700
v 0.098103 0.199906 -0.506967
v -0.334366 0.199906 -0.492156
v -0.629122 0.199906 -0.452190
v 0.157670 0.199906 -0.482397
v -0.049506 0.199906 -0.453113
v -0.402835 0.199906 -0.459930
v -0.190921 0.199906 -0.452094
v 0.211576 0.199906 -0.451449
v 0.437322 0.199906 -0.415891
v -0.465213 0.199906 -0.420680
v -0.056227 0.199906 -0.411581
v -0.692334 0.199906 -0.384286
v -0.197188 0.199906 -0.412280
v 0.259676 0.199906 -0.414624
v -0.521237 0.199906 -0.375411
v 0.481488 0.199906 -0.348567
v 0.301828 0.199906 -0.372425
v -0.204028 0.199906 -0.372520
v -0.063433 0.199906 -0.369781
v -0.745955 0.199906 -0.309581
v -0.570643 0.199906 -0.325125
v -0.211417 0.199906 -0.332903
v 0.337888 0.199906 -0.325352
v -0.071140 0.199906 -0.327813
v 0.516505 0.199906 -0.275486
v -0.219332 0.199906 -0.293520
v -0.079367 0.199906 -0.285780
v 0.367714 0.199906 -0.273907
v -0.613169 0.199906 -0.270825
v -0.789136 0.199906 -0.229046
v -0.227749 0.199906 -0.254458
v -0.088131 0.199906 -0.243782
v 0.541991 0.199906 -0.197407
v 0.391161 0.199906 -0.218592
v -0.648552 0.199906 -0.213516
v -0.236644 0.199906 -0.215809
v -0.097451 0.199906 -0.201922
v -0.821029 0.199906 -0.143657
v 0.408086 0.199906 -0.159909
v -0.245992 0.199906 -0.177661
v -0.676530 0.199906 -0.154200
v -0.107344 0.199906 -0.160300
v 0.557563 0.199906 -0.115087
v -0.255770 0.199906 -0.140105
v -0.117828 0.199906 -0.119019
v 0.418346 0.199906 -0.098359
v -0.696840 0.199906 -0.093880
v -0.840788 0.199906 -0.054385
v -0.265955 0.199906 -0.103230
v -0.128922 0.199906 -0.078180
v 0.562838 0.199906 -0.029285
v -0.276522 0.199906 -0.067125
v 0.421798 0.199906 -0.034445
v -0.709218 0.199906 -0.033561
v -0.140642 0.199906 -0.037885
v -0.298516 0.199906 0.001925
v -0.847562 0.199906 0.037795
v -0.167513 0.199906 0.047072
v 0.417406 0.199906 0.037162
v -0.713403 0.199906 0.025755
v 0.557932 0.199906 0.058468
v -0.320605 0.199906 0.063874
v -0.711395 0.199906 0.077441
v 0.404725 0.199906 0.103251
v -0.844462 0.199906 0.106449
v -0.195650 0.199906 0.124767
v 0.543369 0.199906 0.140971
v -0.342742 0.199906 0.118931
v -0.705655 0.199906 0.124194
v 0.384495 0.199906 0.163893
v -0.835514 0.199906 0.170355
v -0.364879 0.199906 0.167305
v -0.696606 0.199906 0.166097
v -0.225030 0.199906 0.195175
v 0.519381 0.199906 0.217992
v 0.357457 0.199906 0.219160
v -0.684673 0.199906 0.203234
v -0.386968 0.199906 0.209205
v -0.821252 0.199906 0.229280
v -0.255627 0.199906 0.258274
v -0.670278 0.199906 0.235689
v -0.408962 0.199906 0.244840
v 0.486202 0.199906 0.289298
v 0.324351 0.199906 0.269123
v -0.802205 0.199906 0.282991
v -0.653848 0.199906 0.263545
v -0.430813 0.199906 0.274420
v -0.287420 0.199906 0.314039
v -0.635805 0.199906 0.286887
v 0.285918 0.199906 0.313855
v -0.452472 0.199906 0.298152
v -0.778907 0.199906 0.331256
v -0.616573 0.199906 0.305797
v 0.444065 0.199906 0.354655
v -0.473893 0.199906 0.316247
v -0.596577 0.199906 0.320359
v 0.242898 0.199906 0.353427
v -0.320382 0.199906 0.362445
v -0.495026 0.199906 0.328913
v -0.576240 0.199906 0.330657
v -0.515826 0.199906 0.336360
v -0.555988 0.199906 0.336775
v -0.751887 0.199906 0.373841
v -0.536242 0.199906 0.338795
v 0.196032 0.199906 0.387911
v 0.393203 0.199906 0.413830
v -0.354491 0.199906 0.403471
v -0.721678 0.199906 0.410513
v 0.146061 0.199906 0.417378
v -0.389724 0.199906 0.437090
v -0.688812 0.199906 0.441040
v 0.333848 0.199906 0.466592
v 0.093724 0.199906 0.441900
v -0.426055 0.199906 0.463280
v -0.653820 0.199906 0.465189
v 0.039763 0.199906 0.461549
v -0.015082 0.199906 0.476395
v -0.463461 0.199906 0.482017
v -0.617234 0.199906 0.482726
v 0.266234 0.199906 0.512707
v -0.025252 0.199906 0.478543
v -0.035953 0.199906 0.480680
v -0.047144 0.199906 0.482792
v -0.501918 0.199906 0.493277
v -0.579583 0.199906 0.493419
v -0.058783 0.199906 0.484868
v -0.070828 0.199906 0.486897
v -0.083237 0.199906 0.488865
v -0.095969 0.199906 0.490763
v -0.108981 0.199906 0.492576
v -0.122232 0.199906 0.494294
v -0.541402 0.199906 0.497035
v -0.135680 0.199906 0.495905
v -0.149284 0.199906 0.497396
v -0.163002 0.199906 0.498755
v -0.082162 0.199906 0.626035
v 0.190592 0.199906 0.551941
v 0.107157 0.199906 0.584063
v 0.016162 0.199906 0.608838
v -1.000000 -1.000000 1.000000
v -1.000000 1.000000 1.000000
v -1.000000 -1.000000 -1.000000
v -1.000000 1.000000 -1.000000
v 1.000000 -1.000000 1.000000
v 1.000000 1.000000 1.000000
v 1.000000 -1.000000 -1.000000
v 1.000000 1.000000 -1.000000
vn -0.0927 -0.6929 -0.7151
vn -0.0019 -0.6935 -0.7205
vn 0.0871 -0.6935 -0.7152
vn 0.1767 -0.6929 -0.6991
vn -0.1834 -0.6930 -0.6972
vn 0.2667 -0.6924 -0.6704
vn -0.2700 -0.6932 -0.6682
vn 0.3542 -0.6922 -0.6288
vn -0.3514 -0.6933 -0.6291
vn 0.4365 -0.6920 -0.5750
vn -0.4268 -0.6934 -0.5806
vn -0.2362 -0.9387 0.2511
vn 0.2548 -0.9049 0.3408
vn 0.7005 -0.7061 0.1032
vn -0.1413 -0.7209 0.6785
vn 0.1721 -0.7217 0.6705
vn -0.6991 -0.7088 -0.0943
vn 0.5108 -0.6920 -0.5101
vn -0.2232 -0.7215 0.6554
vn 0.2552 -0.7215 0.6437
vn -0.4957 -0.6933 -0.5230
vn -0.3048 -0.7220 0.6211
vn 0.6996 -0.7060 0.1098
vn 0.3326 -0.7211 0.6078
vn -0.6977 -0.7087 -0.1046
vn -0.3832 -0.7223 0.5757
vn 0.5752 -0.6922 -0.4359
vn 0.4032 -0.7206 0.5640
vn 0.6986 -0.7060 0.1167
vn -0.5577 -0.6931 -0.4567
vn -0.6961 -0.7087 -0.1147
vn -0.4558 -0.7223 0.5201
vn 0.4662 -0.7202 0.5137
vn 0.6284 -0.6924 -0.3546
vn -0.5204 -0.7222 0.4557
vn -0.6945 -0.7087 -0.1245
vn 0.6974 -0.7059 0.1241
vn -0.6120 -0.6927 -0.3815
vn 0.5215 -0.7200 0.4579
vn -0.6927 -0.7087 -0.1342
vn -0.5752 -0.7218 0.3848
vn 0.6960 -0.7058 0.1320
vn 0.6695 -0.6927 -0.2683
vn -0.6907 -0.7087 -0.1438
vn 0.6945 -0.7057 0.1404
vn -0.6196 -0.7214 0.3094
vn 0.5694 -0.7199 0.3969
vn -0.6575 -0.6923 -0.2974
vn -0.6887 -0.7087 -0.1534
vn 0.6927 -0.7056 0.1494
vn 0.6984 -0.6929 -0.1792
vn -0.6532 -0.7209 0.2317
vn 0.6101 -0.7200 0.3308
vn -0.6864 -0.7087 -0.1631
vn 0.6907 -0.7055 0.1590
vn -0.6925 -0.6917 -0.2049
vn -0.6764 -0.7203 0.1534
vn -0.6840 -0.7087 -0.1728
vn 0.6434 -0.7204 0.2590
vn 0.6883 -0.7054 0.1692
vn 0.7151 -0.6933 -0.0893
vn -0.6814 -0.7088 -0.1828
vn 0.6857 -0.7052 0.1802
vn -0.6900 -0.7198 0.0759
vn 0.6688 -0.7212 0.1805
vn -0.7150 -0.6912 -0.1048
vn -0.6785 -0.7088 -0.1930
vn 0.6826 -0.7051 0.1920
vn 0.7198 -0.6941 -0.0020
vn -0.6737 -0.7098 -0.2058
vn -0.6937 -0.7203 -0.0025
vn 0.6852 -0.7223 0.0941
vn 0.6791 -0.7045 0.2061
vn -0.6663 -0.7110 -0.2248
vn -0.7199 -0.6940 -0.0102
vn 0.6740 -0.7025 0.2285
vn -0.6866 -0.7218 -0.0866
vn 0.6943 -0.7196 0.0110
vn 0.7152 -0.6940 0.0828
vn -0.6569 -0.7116 -0.2491
vn 0.6952 -0.7166 -0.0561
vn -0.6691 -0.7223 -0.1750
vn -0.7143 -0.6967 0.0660
vn 0.6638 -0.7018 0.2585
vn 0.7005 -0.6931 0.1702
vn -0.6448 -0.7124 -0.2770
vn 0.6869 -0.7174 -0.1161
vn -0.6400 -0.7224 -0.2619
vn -0.7052 -0.6962 0.1344
vn -0.6287 -0.7135 -0.3093
vn 0.6720 -0.7183 -0.1801
vn 0.6503 -0.7008 0.2931
vn 0.6730 -0.6924 0.2600
vn -0.6004 -0.7221 -0.3438
vn 0.6492 -0.7193 -0.2474
vn -0.6072 -0.7148 -0.3469
vn -0.6885 -0.6957 0.2048
vn 0.6321 -0.6997 0.3330
vn 0.6168 -0.7203 -0.3173
vn -0.5778 -0.7166 -0.3907
vn 0.6321 -0.6920 0.3487
vn -0.5524 -0.7214 -0.4177
vn -0.6635 -0.6950 0.2768
vn 0.5733 -0.7215 -0.3884
vn -0.5370 -0.7189 -0.4414
vn 0.6073 -0.6983 0.3790
vn 0.5169 -0.7227 -0.4588
vn -0.4985 -0.7205 -0.4819
vn -0.4798 -0.7220 -0.4985
vn -0.6289 -0.6943 0.3498
vn 0.4460 -0.7241 -0.5261
vn 0.5785 -0.6920 0.4319
vn -0.4001 -0.7257 -0.5597
vn 0.3591 -0.7256 -0.5869
vn -0.4415 -0.7196 -0.5360
vn 0.5731 -0.6965 0.4318
vn -0.2923 -0.7298 -0.6180
vn 0.2552 -0.7274 -0.6370
vn -0.1558 -0.7333 -0.6618
vn 0.1344 -0.7293 -0.6709
vn -0.5834 -0.6935 0.4229
vn -0.0057 -0.7328 -0.6805
vn -0.3831 -0.7187 -0.5802
vn 0.5145 -0.6923 0.5060
vn 0.5259 -0.6944 0.4911
vn -0.5251 -0.6924 0.4948
vn -0.3248 -0.7179 -0.6157
vn 0.4614 -0.6920 0.5553
vn -0.4523 -0.6912 0.5636
vn 0.4435 -0.6930 0.5684
vn -0.2673 -0.7173 -0.6435
vn 0.3752 -0.6895 0.6195
vn -0.3632 -0.6899 0.6263
vn -0.2106 -0.7168 -0.6647
vn -0.1640 -0.7135 -0.6812
vn 0.2657 -0.6875 0.6759
vn -0.2568 -0.6885 0.6783
vn 0.3693 -0.6938 0.6182
vn -0.1420 -0.7084 -0.6914
vn -0.1346 -0.7083 -0.6930
vn -0.1275 -0.7082 -0.6944
vn 0.1373 -0.6864 0.7142
vn -0.1340 -0.6872 0.7140
vn -0.1206 -0.7082 -0.6956
vn -0.1139 -0.7082 -0.6968
vn -0.1074 -0.7082 -0.6978
vn -0.1008 -0.7082 -0.6988
vn -0.0941 -0.7082 -0.6997
vn -0.0874 -0.7082 -0.7006
vn 0.0002 -0.6864 0.7272
vn -0.0804 -0.7082 -0.7014
vn -0.0733 -0.7083 -0.7021
vn -0.7469 -0.5567 -0.3636
vn -0.3230 -0.6009 0.7312
vn 0.2952 -0.6948 0.6558
vn 0.2236 -0.6959 0.6825
vn 0.1562 -0.6968 0.7000
vn -0.0927 0.6929 -0.7151
vn 0.0871 0.6935 -0.7152
vn -0.0019 0.6935 -0.7205
vn 0.1767 0.6929 -0.6991
vn -0.1834 0.6930 -0.6972
vn 0.2667 0.6924 -0.6704
vn -0.2700 0.6932 -0.6682
vn 0.3542 0.6922 -0.6288
vn -0.3514 0.6933 -0.6291
vn 0.4364 0.6920 -0.5750
vn -0.4268 0.6934 -0.5806
vn -0.2362 0.9387 0.2511
vn 0.2548 0.9049 0.3408
vn 0.7006 0.7061 0.1032
vn -0.1413 0.7209 0.6785
vn 0.1721 0.7217 0.6705
vn -0.6991 0.7088 -0.0943
vn 0.5108 0.6920 -0.5101
vn -0.2232 0.7215 0.6554
vn 0.2552 0.7214 0.6438
vn -0.4957 0.6933 -0.5230
vn -0.3048 0.7220 0.6211
vn 0.6996 0.7060 0.1098
vn 0.3326 0.7211 0.6078
vn -0.6977 0.7088 -0.1046
vn -0.3832 0.7223 0.5757
vn 0.5752 0.6922 -0.4359
vn 0.4032 0.7206 0.5640
vn 0.6986 0.7059 0.1167
vn -0.5577 0.6931 -0.4567
vn -0.6961 0.7087 -0.1147
vn -0.4558 0.7223 0.5201
vn 0.4662 0.7202 0.5137
vn 0.6284 0.6924 -0.3546
vn -0.5204 0.7222 0.4557
vn -0.6945 0.7087 -0.1245
vn 0.6974 0.7059 0.1241
vn -0.6120 0.6927 -0.3815
vn 0.5215 0.7200 0.4579
vn -0.6927 0.7087 -0.1342
vn -0.5752 0.7218 0.3848
vn 0.6960 0.7058 0.1320
vn 0.6695 0.6926 -0.2683
vn -0.6907 0.7087 -0.1438
vn 0.6945 0.7057 0.1404
vn -0.6196 0.7214 0.3094
vn 0.5694 0.7199 0.3969
vn -0.6575 0.6923 -0.2974
vn -0.6887 0.7087 -0.1534
vn 0.6927 0.7056 0.1494
vn 0.6984 0.6929 -0.1792
vn -0.6532 0.7209 0.2317
vn 0.6101 0.7200 0.3308
vn -0.6864 0.7087 -0.1631
vn 0.6907 0.7055 0.1590
vn -0.6925 0.6917 -0.2049
vn -0.6764 0.7204 0.1534
vn -0.6840 0.7087 -0.1728
vn 0.6434 0.7204 0.2590
vn 0.6883 0.7054 0.1692
vn 0.7151 0.6933 -0.0893
vn -0.6814 0.7088 -0.1828
vn 0.6857 0.7052 0.1802
vn -0.6900 0.7198 0.0759
vn 0.6689 0.7211 0.1805
vn -0.7150 0.6912 -0.1048
vn -0.6785 0.7088 -0.1930
vn 0.6826 0.7051 0.1920
vn 0.7198 0.6942 -0.0020
vn -0.6737 0.7098 -0.2058
vn -0.6937 0.7203 -0.0025
vn 0.6852 0.7223 0.0941
vn 0.6791 0.7045 0.2061
vn -0.6663 0.7110 -0.2248
vn -0.7199 0.6940 -0.0102
vn 0.6740 0.7025 0.2285
vn -0.6866 0.7218 -0.0866
vn 0.6943 0.7196 0.0110
vn 0.7152 0.6940 0.0828
vn -0.6569 0.7116 -0.2491
vn 0.6952 0.7166 -0.0561
vn -0.6691 0.7223 -0.1750
vn -0.7143 0.6967 0.0660
vn 0.6638 0.7018 0.2585
vn 0.7005 0.6931 0.1702
vn -0.6448 0.7124 -0.2770
vn 0.6869 0.7174 -0.1161
vn -0.6400 0.7224 -0.2619
vn -0.7052 0.6962 0.1344
vn -0.6287 0.7135 -0.3093
vn 0.6720 0.7183 -0.1801
vn 0.6503 0.7008 0.2931
vn 0.6730 0.6924 0.2600
vn -0.6004 0.7220 -0.3438
vn 0.6491 0.7193 -0.2474
vn -0.6072 0.7148 -0.3469
vn -0.6886 0.6957 0.2048
vn 0.6321 0.6997 0.3330
vn 0.6168 0.7203 -0.3173
vn -0.5778 0.7166 -0.3907
vn 0.6321 0.6920 0.3487
vn -0.5524 0.7214 -0.4177
vn -0.6635 0.6951 0.2768
vn 0.5733 0.7215 -0.3884
vn -0.5370 0.7189 -0.4414
vn 0.6073 0.6983 0.3790
vn 0.5169 0.7227 -0.4588
vn -0.4985 0.7206 -0.4819
vn -0.4798 0.7220 -0.4985
vn -0.6289 0.6943 0.3498
vn 0.4460 0.7241 -0.5261
vn 0.5785 0.6920 0.4319
vn -0.4001 0.7257 -0.5597
vn 0.3591 0.7256 -0.5869
vn -0.4415 0.7196 -0.5360
vn 0.5731 0.6965 0.4318
vn -0.2923 0.7298 -0.6180
vn 0.2552 0.7274 -0.6370
vn -0.1558 0.7333 -0.6618
vn 0.1344 0.7293 -0.6709
vn -0.5833 0.6935 0.4228
vn -0.0057 0.7328 -0.6805
vn -0.3831 0.7187 -0.5802
vn 0.5145 0.6923 0.5060
vn 0.5259 0.6944 0.4911
vn -0.5251 0.6924 0.4948
vn -0.3248 0.7179 -0.6157
vn 0.4614 0.6920 0.5553
vn -0.4523 0.6912 0.5636
vn 0.4435 0.6930 0.5684
vn -0.2673 0.7173 -0.6435
vn 0.3752 0.6895 0.6195
vn -0.3632 0.6899 0.6263
vn -0.2106 0.7168 -0.6647
vn -0.1640 0.7135 -0.6812
vn 0.2657 0.6875 0.6759
vn -0.2568 0.6885 0.6783
vn 0.3693 0.6939 0.6182
vn -0.1420 0.7084 -0.6914
vn -0.1346 0.7083 -0.6930
vn -0.1275 0.7082 -0.6944
vn 0.1372 0.6864 0.7142
vn -0.1340 0.6872 0.7140
vn -0.1206 0.7082 -0.6956
vn -0.1139 0.7082 -0.6968
vn -0.1074 0.7082 -0.6978
vn -0.1008 0.7082 -0.6988
vn -0.0941 0.7082 -0.6997
vn -0.0874 0.7082 -0.7006
vn 0.0002 0.6865 0.7272
vn -0.0804 0.7082 -0.7014
vn -0.0733 0.7083 -0.7021
vn -0.7469 0.5567 -0.3636
vn -0.3229 0.6009 0.7312
vn 0.2952 0.6948 0.6558
vn 0.2236 0.6958 0.6825
vn 0.1562 0.6968 0.7000
vn -1.0000 -0.0000 -0.0000
vn -0.0000 -0.0000 -1.0000
vn 1.0000 -0.0000 -0.0000
vn -0.0000 -0.0000 1.0000
vn -0.0000 -1.0000 -0.0000
vn -0.0000 1.0000 -0.0000
vt 0.871094 0.294872
vt 0.871094 0.301282
vt 0.871094 0.307692
vt 0.871094 0.314103
vt 0.871094 0.288462
vt 0.871094 0.320513
vt 0.871094 0.282051
vt 0.871094 0.326923
vt 0.871094 0.275641
vt 0.871094 0.333333
vt 0.871094 0.269231
vt 0.871094 1.000000
vt 0.871094 0.692308
vt 0.871094 -0.000000
vt 0.871094 0.685897
vt 0.871094 0.698718
vt 0.871094 0.993590
vt 0.871094 0.339744
vt 0.871094 0.679487
vt 0.871094 0.705128
vt 0.871094 0.262821
vt 0.871094 0.673077
vt 0.871094 0.006410
vt 0.871094 0.711538
vt 0.871094 0.987179
vt 0.871094 0.666667
vt 0.871094 0.346154
vt 0.871094 0.717949
vt 0.871094 0.012821
vt 0.871094 0.256410
vt 0.871094 0.980769
vt 0.871094 0.660256
vt 0.871094 0.724359
vt 0.871094 0.352564
vt 0.871094 0.653846
vt 0.871094 0.974359
vt 0.871094 0.019231
vt 0.871094 0.250000
vt 0.871094 0.730769
vt 0.871094 0.967949
vt 0.871094 0.647436
vt 0.871094 0.025641
vt 0.871094 0.358974
vt 0.871094 0.961538
vt 0.871094 0.032051
vt 0.871094 0.641026
vt 0.871094 0.737179
vt 0.871094 0.243590
vt 0.871094 0.955128
vt 0.871094 0.038462
vt 0.871094 0.365385
vt 0.871094 0.634615
vt 0.871094 0.743590
vt 0.871094 0.948718
vt 0.871094 0.044872
vt 0.871094 0.237179
vt 0.871094 0.628205
vt 0.871094 0.942308
vt 0.871094 0.750000
vt 0.871094 0.051282
vt 0.871094 0.371795
vt 0.871094 0.935897
vt 0.871094 0.057692
vt 0.871094 0.621795
vt 0.871094 0.756410
vt 0.871094 0.230769
vt 0.871094 0.929487
vt 0.871094 0.064103
vt 0.871094 0.378205
vt 0.871094 0.923077
vt 0.871094 0.615385
vt 0.871094 0.762820
vt 0.871094 0.070513
vt 0.871094 0.916667
vt 0.871094 0.224359
vt 0.871094 0.076923
vt 0.871094 0.608974
vt 0.871094 0.769231
vt 0.871094 0.384615
vt 0.871094 0.910256
vt 0.871094 0.775641
vt 0.871094 0.602564
vt 0.871094 0.217949
vt 0.871094 0.083333
vt 0.871094 0.391026
vt 0.871094 0.903846
vt 0.871094 0.782051
vt 0.871094 0.596154
vt 0.871094 0.211538
vt 0.871094 0.897436
vt 0.871094 0.788462
vt 0.871094 0.089744
vt 0.871094 0.397436
vt 0.871094 0.589744
vt 0.871094 0.794872
vt 0.871094 0.891026
vt 0.871094 0.205128
vt 0.871094 0.096154
vt 0.871094 0.801282
vt 0.871094 0.884615
vt 0.871094 0.403846
vt 0.871094 0.583333
vt 0.871094 0.198718
vt 0.871094 0.807692
vt 0.871094 0.878205
vt 0.871094 0.102564
vt 0.871094 0.814103
vt 0.871094 0.576923
vt 0.871094 0.871795
vt 0.871094 0.192308
vt 0.871094 0.820513
vt 0.871094 0.410256
vt 0.871094 0.865385
vt 0.871094 0.826923
vt 0.871094 0.570513
vt 0.871094 0.108974
vt 0.871094 0.858974
vt 0.871094 0.833333
vt 0.871094 0.852564
vt 0.871094 0.839744
vt 0.871094 0.185897
vt 0.871094 0.846154
vt 0.871094 0.564103
vt 0.871094 0.416667
vt 0.871094 0.115385
vt 0.871094 0.179487
vt 0.871094 0.557692
vt 0.871094 0.121795
vt 0.871094 0.173077
vt 0.871094 0.423077
vt 0.871094 0.551282
vt 0.871094 0.128205
vt 0.871094 0.166667
vt 0.871094 0.544872
vt 0.871094 0.538462
vt 0.871094 0.134615
vt 0.871094 0.160256
vt 0.871094 0.429487
vt 0.871094 0.532051
vt 0.871094 0.525641
vt 0.871094 0.519231
vt 0.871094 0.141026
vt 0.871094 0.153846
vt 0.871094 0.512820
vt 0.871094 0.506410
vt 0.871094 0.500000
vt 0.871094 0.493590
vt 0.871094 0.487179
vt 0.871094 0.480769
vt 0.871094 0.147436
vt 0.871094 0.474359
vt 0.871094 0.467949
vt 0.871094 0.461538
vt 0.871094 0.455128
vt 0.871094 0.435897
vt 0.871094 0.442308
vt 0.871094 0.448718
vt 0.327478 0.445995
vt 0.240948 0.532525
vt 0.240948 0.445995
vt 0.327478 0.532525
vt 0.240948 0.619055
vt 0.327478 0.619055
vt 0.240948 0.705585
vt 0.327478 0.705585
vt 0.240948 0.792115
vt 0.154418 0.705585
vt 0.154418 0.619055
vt 0.414007 0.619055
vt 0.327478 0.792115
vt 0.414007 0.705585
s 1
usemtl マテリアル
f 111/1/1 110/2/2 109/3/3
f 111/1/1 109/3/3 108/4/4
f 112/5/5 111/1/1 108/4/4
f 112/5/5 108/4/4 107/6/6
f 113/7/7 112/5/5 107/6/6
f 113/7/7 107/6/6 106/8/8
f 114/9/9 113/7/7 106/8/8
f 114/9/9 106/8/8 105/10/10
f 115/11/11 114/9/9 1/12/12
f 1/12/12 114/9/9 49/13/13
f 49/13/13 114/9/9 105/10/10
f 1/12/12 49/13/13 157/14/14
f 50/15/15 49/13/13 105/10/10
f 115/11/11 1/12/12 48/16/16
f 2/17/17 1/12/12 157/14/14
f 50/15/15 105/10/10 104/18/18
f 51/19/19 50/15/15 104/18/18
f 115/11/11 48/16/16 47/20/20
f 116/21/21 115/11/11 47/20/20
f 52/22/22 51/19/19 104/18/18
f 2/17/17 157/14/14 156/23/23
f 116/21/21 47/20/20 46/24/24
f 3/25/25 2/17/17 156/23/23
f 53/26/26 52/22/22 104/18/18
f 53/26/26 104/18/18 103/27/27
f 116/21/21 46/24/24 45/28/28
f 3/25/25 156/23/23 155/29/29
f 117/30/30 116/21/21 45/28/28
f 4/31/31 3/25/25 155/29/29
f 54/32/32 53/26/26 103/27/27
f 117/30/30 45/28/28 44/33/33
f 54/32/32 103/27/27 102/34/34
f 55/35/35 54/32/32 102/34/34
f 5/36/36 4/31/31 155/29/29
f 5/36/36 155/29/29 154/37/37
f 118/38/38 117/30/30 44/33/33
f 118/38/38 44/33/33 43/39/39
f 6/40/40 5/36/36 154/37/37
f 56/41/41 55/35/35 102/34/34
f 6/40/40 154/37/37 153/42/42
f 56/41/41 102/34/34 101/43/43
f 7/44/44 6/40/40 153/42/42
f 7/44/44 153/42/42 152/45/45
f 57/46/46 56/41/41 101/43/43
f 118/38/38 43/39/39 42/47/47
f 119/48/48 118/38/38 42/47/47
f 8/49/49 7/44/44 152/45/45
f 8/49/49 152/45/45 151/50/50
f 57/46/46 101/43/43 100/51/51
f 58/52/52 57/46/46 100/51/51
f 119/48/48 42/47/47 41/53/53
f 9/54/54 8/49/49 151/50/50
f 9/54/54 151/50/50 150/55/55
f 120/56/56 119/48/48 41/53/53
f 59/57/57 58/52/52 100/51/51
f 10/58/58 9/54/54 150/55/55
f 120/56/56 41/53/53 40/59/59
f 10/58/58 150/55/55 149/60/60
f 59/57/57 100/51/51 99/61/61
f 11/62/62 10/58/58 149/60/60
f 11/62/62 149/60/60 148/63/63
f 60/64/64 59/57/57 99/61/61
f 120/56/56 40/59/59 39/65/65
f 121/66/66 120/56/56 39/65/65
f 12/67/67 11/62/62 148/63/63
f 12/67/67 148/63/63 147/68/68
f 60/64/64 99/61/61 98/69/69
f 13/70/70 12/67/67 147/68/68
f 61/71/71 60/64/64 98/69/69
f 121/66/66 39/65/65 38/72/72
f 13/70/70 147/68/68 146/73/73
f 14/74/74 13/70/70 146/73/73
f 122/75/75 121/66/66 38/72/72
f 14/74/74 146/73/73 145/76/76
f 62/77/77 61/71/71 98/69/69
f 122/75/75 38/72/72 37/78/78
f 62/77/77 98/69/69 97/79/79
f 15/80/80 14/74/74 145/76/76
f 122/75/75 37/78/78 36/81/81
f 63/82/82 62/77/77 97/79/79
f 123/83/83 122/75/75 36/81/81
f 15/80/80 145/76/76 144/84/84
f 63/82/82 97/79/79 96/85/85
f 16/86/86 15/80/80 144/84/84
f 123/83/83 36/81/81 35/87/87
f 64/88/88 63/82/82 96/85/85
f 124/89/89 123/83/83 35/87/87
f 17/90/90 16/86/86 144/84/84
f 124/89/89 35/87/87 34/91/91
f 17/90/90 144/84/84 143/92/92
f 64/88/88 96/85/85 95/93/93
f 65/94/94 64/88/88 95/93/93
f 124/89/89 34/91/91 33/95/95
f 18/96/96 17/90/90 143/92/92
f 125/97/97 124/89/89 33/95/95
f 18/96/96 143/92/92 142/98/98
f 125/97/97 33/95/95 32/99/99
f 19/100/100 18/96/96 142/98/98
f 65/94/94 95/93/93 94/101/101
f 66/102/102 65/94/94 94/101/101
f 126/103/103 125/97/97 32/99/99
f 126/103/103 32/99/99 31/104/104
f 20/105/105 19/100/100 142/98/98
f 20/105/105 142/98/98 141/106/106
f 126/103/103 31/104/104 30/107/107
f 67/108/108 66/102/102 94/101/101
f 21/109/109 20/105/105 141/106/106
f 127/110/110 126/103/103 30/107/107
f 127/110/110 30/107/107 29/111/111
f 67/108/108 94/101/101 93/112/112
f 22/113/113 21/109/109 141/106/106
f 127/110/110 29/111/111 28/114/114
f 68/115/115 67/108/108 93/112/112
f 22/113/113 141/106/106 140/116/116
f 23/117/117 22/113/113 140/116/116
f 127/110/110 28/114/114 27/118/118
f 24/119/119 23/117/117 140/116/116
f 127/110/110 27/118/118 26/120/120
f 128/121/121 127/110/110 26/120/120
f 25/122/122 24/119/119 140/116/116
f 128/121/121 26/120/120 25/122/122
f 128/121/121 25/122/122 140/116/116
f 69/123/123 68/115/115 93/112/112
f 69/123/123 93/112/112 92/124/124
f 128/121/121 140/116/116 139/125/125
f 129/126/126 128/121/121 139/125/125
f 70/127/127 69/123/123 92/124/124
f 129/126/126 139/125/125 138/128/128
f 130/129/129 129/126/126 138/128/128
f 70/127/127 92/124/124 91/130/130
f 71/131/131 70/127/127 91/130/130
f 130/129/129 138/128/128 137/132/132
f 131/133/133 130/129/129 137/132/132
f 72/134/134 71/131/131 91/130/130
f 73/135/135 72/134/134 91/130/130
f 131/133/133 137/132/132 136/136/136
f 132/137/137 131/133/133 136/136/136
f 73/135/135 91/130/130 90/138/138
f 74/139/139 73/135/135 90/138/138
f 75/140/140 74/139/139 90/138/138
f 76/141/141 75/140/140 90/138/138
f 132/137/137 136/136/136 135/142/142
f 133/143/143 132/137/137 135/142/142
f 77/144/144 76/141/141 90/138/138
f 78/145/145 77/144/144 90/138/138
f 79/146/146 78/145/145 90/138/138
f 80/147/147 79/146/146 90/138/138
f 81/148/148 80/147/147 90/138/138
f 82/149/149 81/148/148 90/138/138
f 133/143/143 135/142/142 134/150/150
f 83/151/151 82/149/149 90/138/138
f 84/152/152 83/151/151 90/138/138
f 85/153/153 84/152/152 90/138/138
f 86/154/154 85/153/153 90/138/138
f 86/154/154 90/138/138 89/155/155
f 86/154/154 89/155/155 88/156/156
f 86/154/154 88/156/156 87/157/157
f 158/1/158 159/3/159 160/2/160
f 158/1/158 161/4/161 159/3/159
f 162/5/162 161/4/161 158/1/158
f 162/5/162 163/6/163 161/4/161
f 164/7/164 163/6/163 162/5/162
f 164/7/164 165/8/165 163/6/163
f 166/9/166 165/8/165 164/7/164
f 166/9/166 167/10/167 165/8/165
f 168/11/168 169/12/169 166/9/166
f 169/12/169 170/13/170 166/9/166
f 170/13/170 167/10/167 166/9/166
f 169/12/169 171/14/171 170/13/170
f 172/15/172 167/10/167 170/13/170
f 168/11/168 173/16/173 169/12/169
f 174/17/174 171/14/171 169/12/169
f 172/15/172 175/18/175 167/10/167
f 176/19/176 175/18/175 172/15/172
f 168/11/168 177/20/177 173/16/173
f 178/21/178 177/20/177 168/11/168
f 179/22/179 175/18/175 176/19/176
f 174/17/174 180/23/180 171/14/171
f 178/21/178 181/24/181 177/20/177
f 182/25/182 180/23/180 174/17/174
f 183/26/183 175/18/175 179/22/179
f 183/26/183 184/27/184 175/18/175
f 178/21/178 185/28/185 181/24/181
f 182/25/182 186/29/186 180/23/180
f 187/30/187 185/28/185 178/21/178
f 188/31/188 186/29/186 182/25/182
f 189/32/189 184/27/184 183/26/183
f 187/30/187 190/33/190 185/28/185
f 189/32/189 191/34/191 184/27/184
f 192/35/192 191/34/191 189/32/189
f 193/36/193 186/29/186 188/31/188
f 193/36/193 194/37/194 186/29/186
f 195/38/195 190/33/190 187/30/187
f 195/38/195 196/39/196 190/33/190
f 197/40/197 194/37/194 193/36/193
f 198/41/198 191/34/191 192/35/192
f 197/40/197 199/42/199 194/37/194
f 198/41/198 200/43/200 191/34/191
f 201/44/201 199/42/199 197/40/197
f 201/44/201 202/45/202 199/42/199
f 203/46/203 200/43/200 198/41/198
f 195/38/195 204/47/204 196/39/196
f 205/48/205 204/47/204 195/38/195
f 206/49/206 202/45/202 201/44/201
f 206/49/206 207/50/207 202/45/202
f 203/46/203 208/51/208 200/43/200
f 209/52/209 208/51/208 203/46/203
f 205/48/205 210/53/210 204/47/204
f 211/54/211 207/50/207 206/49/206
f 211/54/211 212/55/212 207/50/207
f 213/56/213 210/53/210 205/48/205
f 214/57/214 208/51/208 209/52/209
f 215/58/215 212/55/212 211/54/211
f 213/56/213 216/59/216 210/53/210
f 215/58/215 217/60/217 212/55/212
f 214/57/214 218/61/218 208/51/208
f 219/62/219 217/60/217 215/58/215
f 219/62/219 220/63/220 217/60/217
f 221/64/221 218/61/218 214/57/214
f 213/56/213 222/65/222 216/59/216
f 223/66/223 222/65/222 213/56/213
f 224/67/224 220/63/220 219/62/219
f 224/67/224 225/68/225 220/63/220
f 221/64/221 226/69/226 218/61/218
f 227/70/227 225/68/225 224/67/224
f 228/71/228 226/69/226 221/64/221
f 223/66/223 229/72/229 222/65/222
f 227/70/227 230/73/230 225/68/225
f 231/74/231 230/73/230 227/70/227
f 232/75/232 229/72/229 223/66/223
f 231/74/231 233/76/233 230/73/230
f 234/77/234 226/69/226 228/71/228
f 232/75/232 235/78/235 229/72/229
f 234/77/234 236/79/236 226/69/226
f 237/80/237 233/76/233 231/74/231
f 232/75/232 238/81/238 235/78/235
f 239/82/239 236/79/236 234/77/234
f 240/83/240 238/81/238 232/75/232
f 237/80/237 241/84/241 233/76/233
f 239/82/239 242/85/242 236/79/236
f 243/86/243 241/84/241 237/80/237
f 240/83/240 244/87/244 238/81/238
f 245/88/245 242/85/242 239/82/239
f 246/89/246 244/87/244 240/83/240
f 247/90/247 241/84/241 243/86/243
f 246/89/246 248/91/248 244/87/244
f 247/90/247 249/92/249 241/84/241
f 245/88/245 250/93/250 242/85/242
f 251/94/251 250/93/250 245/88/245
f 246/89/246 252/95/252 248/91/248
f 253/96/253 249/92/249 247/90/247
f 254/97/254 252/95/252 246/89/246
f 253/96/253 255/98/255 249/92/249
f 254/97/254 256/99/256 252/95/252
f 257/100/257 255/98/255 253/96/253
f 251/94/251 258/101/258 250/93/250
f 259/102/259 258/101/258 251/94/251
f 260/103/260 256/99/256 254/97/254
f 260/103/260 261/104/261 256/99/256
f 262/105/262 255/98/255 257/100/257
f 262/105/262 263/106/263 255/98/255
f 260/103/260 264/107/264 261/104/261
f 265/108/265 258/101/258 259/102/259
f 266/109/266 263/106/263 262/105/262
f 267/110/267 264/107/264 260/103/260
f 267/110/267 268/111/268 264/107/264
f 265/108/265 269/112/269 258/101/258
f 270/113/270 263/106/263 266/109/266
f 267/110/267 271/114/271 268/111/268
f 272/115/272 269/112/269 265/108/265
f 270/113/270 273/116/273 263/106/263
f 274/117/274 273/116/273 270/113/270
f 267/110/267 275/118/275 271/114/271
f 276/119/276 273/116/273 274/117/274
f 267/110/267 277/120/277 275/118/275
f 278/121/278 277/120/277 267/110/267
f 279/122/279 273/116/273 276/119/276
f 278/121/278 279/122/279 277/120/277
f 278/121/278 273/116/273 279/122/279
f 280/123/280 269/112/269 272/115/272
f 280/123/280 281/124/281 269/112/269
f 278/121/278 282/125/282 273/116/273
f 283/126/283 282/125/282 278/121/278
f 284/127/284 281/124/281 280/123/280
f 283/126/283 285/128/285 282/125/282
f 286/129/286 285/128/285 283/126/283
f 284/127/284 287/130/287 281/124/281
f 288/131/288 287/130/287 284/127/284
f 286/129/286 289/132/289 285/128/285
f 290/133/290 289/132/289 286/129/286
f 291/134/291 287/130/287 288/131/288
f 292/135/292 287/130/287 291/134/291
f 290/133/290 293/136/293 289/132/289
f 294/137/294 293/136/293 290/133/290
f 292/135/292 295/138/295 287/130/287
f 296/139/296 295/138/295 292/135/292
f 297/140/297 295/138/295 296/139/296
f 298/141/298 295/138/295 297/140/297
f 294/137/294 299/142/299 293/136/293
f 300/143/300 299/142/299 294/137/294
f 301/144/301 295/138/295 298/141/298
f 302/145/302 295/138/295 301/144/301
f 303/146/303 295/138/295 302/145/302
f 304/147/304 295/138/295 303/146/303
f 305/148/305 295/138/295 304/147/304
f 306/149/306 295/138/295 305/148/305
f 300/143/300 307/150/307 299/142/299
f 308/151/308 295/138/295 306/149/306
f 309/152/309 295/138/295 308/151/308
f 310/153/310 295/138/295 309/152/309
f 311/154/311 295/138/295 310/153/310
f 311/154/311 312/155/312 295/138/295
f 311/154/311 313/156/313 312/155/312
f 311/154/311 314/157/314 313/156/313
f 110/2/2 159/3/159 109/3/3
f 111/1/1 160/2/160 110/2/2
f 108/4/4 159/3/159 161/4/161
f 112/5/5 158/1/158 111/1/1
f 107/6/6 161/4/161 163/6/163
f 113/7/7 162/5/162 112/5/5
f 106/8/8 163/6/163 165/8/165
f 114/9/9 164/7/164 113/7/7
f 105/10/10 165/8/165 167/10/167
f 115/11/11 166/9/166 114/9/9
f 157/14/14 170/13/170 171/14/171
f 50/15/15 170/13/170 49/13/13
f 48/16/16 169/12/169 173/16/173
f 2/17/17 169/12/169 1/12/12
f 104/18/18 167/10/167 175/18/175
f 51/19/19 172/15/172 50/15/15
f 47/20/20 173/16/173 177/20/177
f 116/21/21 168/11/168 115/11/11
f 52/22/22 176/19/176 51/19/19
f 157/14/14 180/23/180 156/23/23
f 47/20/20 181/24/181 46/24/24
f 2/17/17 182/25/182 174/17/174
f 52/22/22 183/26/183 179/22/179
f 103/27/27 175/18/175 184/27/184
f 46/24/24 185/28/185 45/28/28
f 155/29/29 180/23/180 186/29/186
f 117/30/30 178/21/178 116/21/21
f 4/31/31 182/25/182 3/25/25
f 54/32/32 183/26/183 53/26/26
f 45/28/28 190/33/190 44/33/33
f 103/27/27 191/34/191 102/34/34
f 54/32/32 192/35/192 189/32/189
f 4/31/31 193/36/193 188/31/188
f 155/29/29 194/37/194 154/37/37
f 118/38/38 187/30/187 117/30/30
f 44/33/33 196/39/196 43/39/39
f 6/40/40 193/36/193 5/36/36
f 56/41/41 192/35/192 55/35/35
f 154/37/37 199/42/199 153/42/42
f 101/43/43 191/34/191 200/43/200
f 7/44/44 197/40/197 6/40/40
f 153/42/42 202/45/202 152/45/45
f 56/41/41 203/46/203 198/41/198
f 43/39/39 204/47/204 42/47/47
f 118/38/38 205/48/205 195/38/195
f 7/44/44 206/49/206 201/44/201
f 152/45/45 207/50/207 151/50/50
f 101/43/43 208/51/208 100/51/51
f 58/52/52 203/46/203 57/46/46
f 42/47/47 210/53/210 41/53/53
f 8/49/49 211/54/211 206/49/206
f 150/55/55 207/50/207 212/55/212
f 120/56/56 205/48/205 119/48/48
f 58/52/52 214/57/214 209/52/209
f 10/58/58 211/54/211 9/54/54
f 41/53/53 216/59/216 40/59/59
f 150/55/55 217/60/217 149/60/60
f 100/51/51 218/61/218 99/61/61
f 30/107/107 268/111/268 29/111/111
f 10/58/58 219/62/219 215/58/215
f 93/112/112 258/101/258 269/112/269
f 149/60/60 220/63/220 148/63/63
f 21/109/109 270/113/270 266/109/266
f 60/64/64 214/57/214 59/57/57
f 29/111/111 271/114/271 28/114/114
f 39/65/65 216/59/216 222/65/222
f 68/115/115 265/108/265 67/108/108
f 121/66/66 213/56/213 120/56/56
f 141/106/106 273/116/273 140/116/116
f 11/62/62 224/67/224 219/62/219
f 23/117/117 270/113/270 22/113/113
f 148/63/63 225/68/225 147/68/68
f 27/118/118 271/114/271 275/118/275
f 99/61/61 226/69/226 98/69/69
f 24/119/119 274/117/274 23/117/117
f 13/70/70 224/67/224 12/67/67
f 27/118/118 277/120/277 26/120/120
f 60/64/64 228/71/228 221/64/221
f 127/110/110 278/121/278 267/110/267
f 39/65/65 229/72/229 38/72/72
f 25/122/122 276/119/276 24/119/119
f 147/68/68 230/73/230 146/73/73
f 26/120/120 279/122/279 25/122/122
f 13/70/70 231/74/231 227/70/227
f 122/75/75 223/66/223 121/66/66
f 68/115/115 280/123/280 272/115/272
f 145/76/76 230/73/230 233/76/233
f 93/112/112 281/124/281 92/124/124
f 62/77/77 228/71/228 61/71/71
f 139/125/125 273/116/273 282/125/282
f 37/78/78 229/72/229 235/78/235
f 129/126/126 278/121/278 128/121/121
f 97/79/79 226/69/226 236/79/236
f 69/123/123 284/127/284 280/123/280
f 15/80/80 231/74/231 14/74/74
f 138/128/128 282/125/282 285/128/285
f 37/78/78 238/81/238 36/81/81
f 130/129/129 283/126/283 129/126/126
f 62/77/77 239/82/239 234/77/234
f 92/124/124 287/130/287 91/130/130
f 122/75/75 240/83/240 232/75/232
f 71/131/131 284/127/284 70/127/127
f 145/76/76 241/84/241 144/84/84
f 138/128/128 289/132/289 137/132/132
f 96/85/85 236/79/236 242/85/242
f 130/129/129 290/133/290 286/129/286
f 16/86/86 237/80/237 15/80/80
f 72/134/134 288/131/288 71/131/131
f 35/87/87 238/81/238 244/87/244
f 72/134/134 292/135/292 291/134/291
f 64/88/88 239/82/239 63/82/82
f 137/132/132 293/136/293 136/136/136
f 124/89/89 240/83/240 123/83/83
f 131/133/133 294/137/294 290/133/290
f 16/86/86 247/90/247 243/86/243
f 91/130/130 295/138/295 90/138/138
f 35/87/87 248/91/248 34/91/91
f 74/139/139 292/135/292 73/135/135
f 144/84/84 249/92/249 143/92/92
f 75/140/140 296/139/296 74/139/139
f 96/85/85 250/93/250 95/93/93
f 76/141/141 297/140/297 75/140/140
f 65/94/94 245/88/245 64/88/88
f 136/136/136 299/142/299 135/142/142
f 34/91/91 252/95/252 33/95/95
f 133/143/143 294/137/294 132/137/137
f 17/90/90 253/96/253 247/90/247
f 77/144/144 298/141/298 76/141/141
f 125/97/97 246/89/246 124/89/89
f 78/145/145 301/144/301 77/144/144
f 143/92/92 255/98/255 142/98/98
f 78/145/145 303/146/303 302/145/302
f 32/99/99 252/95/252 256/99/256
f 79/146/146 304/147/304 303/146/303
f 19/100/100 253/96/253 18/96/96
f 81/148/148 304/147/304 80/147/147
f 95/93/93 258/101/258 94/101/101
f 82/149/149 305/148/305 81/148/148
f 133/143/143 307/150/307 300/143/300
f 65/94/94 259/102/259 251/94/251
f 135/142/142 307/150/307 134/150/150
f 125/97/97 260/103/260 254/97/254
f 83/151/151 306/149/306 82/149/149
f 32/99/99 261/104/261 31/104/104
f 84/152/152 308/151/308 83/151/151
f 19/100/100 262/105/262 257/100/257
f 85/153/153 309/152/309 84/152/152
f 142/98/98 263/106/263 141/106/106
f 86/154/154 310/153/310 85/153/153
f 31/104/104 264/107/264 30/107/107
f 89/155/155 295/138/295 312/155/312
f 66/102/102 265/108/265 259/102/259
f 88/156/156 312/155/312 313/156/313
f 86/154/154 314/157/314 311/154/311
f 20/105/105 266/109/266 262/105/262
f 88/156/156 314/157/314 87/157/157
f 127/110/110 260/103/260 126/103/103
s 0
f 316/158/315 317/159/315 315/160/315
f 318/161/316 321/162/316 317/159/316
f 322/163/317 319/164/317 321/162/317
f 320/165/318 315/166/318 319/164/318
f 321/162/319 315/167/319 317/168/319
f 318/169/320 320/165/320 322/163/320
s 1
f 110/2/2 160/2/160 159/3/159
f 111/1/1 158/1/158 160/2/160
f 108/4/4 109/3/3 159/3/159
f 112/5/5 162/5/162 158/1/158
f 107/6/6 108/4/4 161/4/161
f 113/7/7 164/7/164 162/5/162
f 106/8/8 107/6/6 163/6/163
f 114/9/9 166/9/166 164/7/164
f 105/10/10 106/8/8 165/8/165
f 115/11/11 168/11/168 166/9/166
f 157/14/14 49/13/13 170/13/170
f 50/15/15 172/15/172 170/13/170
f 48/16/16 1/12/12 169/12/169
f 2/17/17 174/17/174 169/12/169
f 104/18/18 105/10/10 167/10/167
f 51/19/19 176/19/176 172/15/172
f 47/20/20 48/16/16 173/16/173
f 116/21/21 178/21/178 168/11/168
f 52/22/22 179/22/179 176/19/176
f 157/14/14 171/14/171 180/23/180
f 47/20/20 177/20/177 181/24/181
f 2/17/17 3/25/25 182/25/182
f 52/22/22 53/26/26 183/26/183
f 103/27/27 104/18/18 175/18/175
f 46/24/24 181/24/181 185/28/185
f 155/29/29 156/23/23 180/23/180
f 117/30/30 187/30/187 178/21/178
f 4/31/31 188/31/188 182/25/182
f 54/32/32 189/32/189 183/26/183
f 45/28/28 185/28/185 190/33/190
f 103/27/27 184/27/184 191/34/191
f 54/32/32 55/35/35 192/35/192
f 4/31/31 5/36/36 193/36/193
f 155/29/29 186/29/186 194/37/194
f 118/38/38 195/38/195 187/30/187
f 44/33/33 190/33/190 196/39/196
f 6/40/40 197/40/197 193/36/193
f 56/41/41 198/41/198 192/35/192
f 154/37/37 194/37/194 199/42/199
f 101/43/43 102/34/34 191/34/191
f 7/44/44 201/44/201 197/40/197
f 153/42/42 199/42/199 202/45/202
f 56/41/41 57/46/46 203/46/203
f 43/39/39 196/39/196 204/47/204
f 118/38/38 119/48/48 205/48/205
f 7/44/44 8/49/49 206/49/206
f 152/45/45 202/45/202 207/50/207
f 101/43/43 200/43/200 208/51/208
f 58/52/52 209/52/209 203/46/203
f 42/47/47 204/47/204 210/53/210
f 8/49/49 9/54/54 211/54/211
f 150/55/55 151/50/50 207/50/207
f 120/56/56 213/56/213 205/48/205
f 58/52/52 59/57/57 214/57/214
f 10/58/58 215/58/215 211/54/211
f 41/53/53 210/53/210 216/59/216
f 150/55/55 212/55/212 217/60/217
f 100/51/51 208/51/208 218/61/218
f 30/107/107 264/107/264 268/111/268
f 10/58/58 11/62/62 219/62/219
f 93/112/112 94/101/101 258/101/258
f 149/60/60 217/60/217 220/63/220
f 21/109/109 22/113/113 270/113/270
f 60/64/64 221/64/221 214/57/214
f 29/111/111 268/111/268 271/114/271
f 39/65/65 40/59/59 216/59/216
f 68/115/115 272/115/272 265/108/265
f 121/66/66 223/66/223 213/56/213
f 141/106/106 263/106/263 273/116/273
f 11/62/62 12/67/67 224/67/224
f 23/117/117 274/117/274 270/113/270
f 148/63/63 220/63/220 225/68/225
f 27/118/118 28/114/114 271/114/271
f 99/61/61 218/61/218 226/69/226
f 24/119/119 276/119/276 274/117/274
f 13/70/70 227/70/227 224/67/224
f 27/118/118 275/118/275 277/120/277
f 60/64/64 61/71/71 228/71/228
f 127/110/110 128/121/121 278/121/278
f 39/65/65 222/65/222 229/72/229
f 25/122/122 279/122/279 276/119/276
f 147/68/68 225/68/225 230/73/230
f 26/120/120 277/120/277 279/122/279
f 13/70/70 14/74/74 231/74/231
f 122/75/75 232/75/232 223/66/223
f 68/115/115 69/123/123 280/123/280
f 145/76/76 146/73/73 230/73/230
f 93/112/112 269/112/269 281/124/281
f 62/77/77 234/77/234 228/71/228
f 139/125/125 140/116/116 273/116/273
f 37/78/78 38/72/72 229/72/229
f 129/126/126 283/126/283 278/121/278
f 97/79/79 98/69/69 226/69/226
f 69/123/123 70/127/127 284/127/284
f 15/80/80 237/80/237 231/74/231
f 138/128/128 139/125/125 282/125/282
f 37/78/78 235/78/235 238/81/238
f 130/129/129 286/129/286 283/126/283
f 62/77/77 63/82/82 239/82/239
f 92/124/124 281/124/281 287/130/287
f 122/75/75 123/83/83 240/83/240
f 71/131/131 288/131/288 284/127/284
f 145/76/76 233/76/233 241/84/241
f 138/128/128 285/128/285 289/132/289
f 96/85/85 97/79/79 236/79/236
f 130/129/129 131/133/133 290/133/290
f 16/86/86 243/86/243 237/80/237
f 72/134/134 291/134/291 288/131/288
f 35/87/87 36/81/81 238/81/238
f 72/134/134 73/135/135 292/135/292
f 64/88/88 245/88/245 239/82/239
f 137/132/132 289/132/289 293/136/293
f 124/89/89 246/89/246 240/83/240
f 131/133/133 132/137/137 294/137/294
f 16/86/86 17/90/90 247/90/247
f 91/130/130 287/130/287 295/138/295
f 35/87/87 244/87/244 248/91/248
f 74/139/139 296/139/296 292/135/292
f 144/84/84 241/84/241 249/92/249
f 75/140/140 297/140/297 296/139/296
f 96/85/85 242/85/242 250/93/250
f 76/141/141 298/141/298 297/140/297
f 65/94/94 251/94/251 245/88/245
f 136/136/136 293/136/293 299/142/299
f 34/91/91 248/91/248 252/95/252
f 133/143/143 300/143/300 294/137/294
f 17/90/90 18/96/96 253/96/253
f 77/144/144 301/144/301 298/141/298
f 125/97/97 254/97/254 246/89/246
f 78/145/145 302/145/302 301/144/301
f 143/92/92 249/92/249 255/98/255
f 78/145/145 79/146/146 303/146/303
f 32/99/99 33/95/95 252/95/252
f 79/146/146 80/147/147 304/147/304
f 19/100/100 257/100/257 253/96/253
f 81/148/148 305/148/305 304/147/304
f 95/93/93 250/93/250 258/101/258
f 82/149/149 306/149/306 305/148/305
f 133/143/143 134/150/150 307/150/307
f 65/94/94 66/102/102 259/102/259
f 135/142/142 299/142/299 307/150/307
f 125/97/97 126/103/103 260/103/260
f 83/151/151 308/151/308 306/149/306
f 32/99/99 256/99/256 261/104/261
f 84/152/152 309/152/309 308/151/308
f 19/100/100 20/105/105 262/105/262
f 85/153/153 310/153/310 309/152/309
f 142/98/98 255/98/255 263/106/263
f 86/154/154 311/154/311 310/153/310
f 31/104/104 261/104/261 264/107/264
f 89/155/155 90/138/138 295/138/295
f 66/102/102 67/108/108 265/108/265
f 88/156/156 89/155/155 312/155/312
f 86/154/154 87/157/157 314/157/314
f 20/105/105 21/109/109 266/109/266
f 88/156/156 313/156/313 314/157/314
f 127/110/110 267/110/267 260/103/260
s 0
f 316/158/315 318/161/315 317/159/315
f 318/161/316 322/163/316 321/162/316
f 322/163/317 320/165/317 319/164/317
f 320/165/318 316/170/318 315/166/318
f 321/162/319 319/164/319 315/167/319
f 318/169/320 316/171/320 320/165/320
