# Blender 4.4.1
# www.blender.org
mtllib Title_Ice5.mtl
o 5.み
v 0.400428 -0.000000 -0.092214
v 0.261109 -0.000000 -0.107694
v 0.261864 -0.000000 -0.095449
v 0.262422 -0.000000 -0.082833
v 0.262802 -0.000000 -0.069907
v 0.263020 -0.000000 -0.056731
v 0.263094 -0.000000 -0.043363
v 0.263044 -0.000000 -0.029864
v 0.262886 -0.000000 -0.016293
v 0.262638 -0.000000 -0.002710
v 0.262318 -0.000000 0.010825
v 0.261945 -0.000000 0.024253
v 0.261536 -0.000000 0.037513
v 0.261109 -0.000000 0.050546
v 0.260246 -0.000000 0.060902
v 0.259365 -0.000000 0.071330
v 0.258448 -0.000000 0.081829
v 0.257477 -0.000000 0.092400
v 0.256435 -0.000000 0.103042
v 0.255303 -0.000000 0.113756
v 0.254064 -0.000000 0.124542
v 0.252699 -0.000000 0.135400
v 0.251192 -0.000000 0.146329
v 0.249523 -0.000000 0.157330
v 0.247674 -0.000000 0.168402
v 0.245628 -0.000000 0.179546
v 0.210767 -0.000000 0.163436
v 0.175004 -0.000000 0.147846
v 0.138370 -0.000000 0.132865
v 0.100894 -0.000000 0.118582
v 0.062604 -0.000000 0.105088
v 0.023533 -0.000000 0.092471
v -0.016290 -0.000000 0.080823
v -0.056837 -0.000000 0.070231
v -0.098076 -0.000000 0.060786
v -0.139978 -0.000000 0.052577
v -0.182513 -0.000000 0.045694
v -0.225651 -0.000000 0.040226
v -0.207538 -0.000000 -0.000020
v -0.189388 -0.000000 -0.040518
v -0.171310 -0.000000 -0.080872
v -0.153412 -0.000000 -0.120689
v -0.135800 -0.000000 -0.159574
v -0.118582 -0.000000 -0.197134
v -0.101865 -0.000000 -0.232973
v -0.085758 -0.000000 -0.266698
v -0.070368 -0.000000 -0.297915
v -0.055801 -0.000000 -0.326229
v -0.042167 -0.000000 -0.351247
v -0.029572 -0.000000 -0.372574
v -0.026097 -0.000000 -0.377665
v -0.022556 -0.000000 -0.382631
v -0.018956 -0.000000 -0.387489
v -0.015302 -0.000000 -0.392258
v -0.011600 -0.000000 -0.396955
v -0.007857 -0.000000 -0.401599
v -0.004077 -0.000000 -0.406206
v -0.000268 -0.000000 -0.410796
v 0.003565 -0.000000 -0.415386
v 0.007416 -0.000000 -0.419993
v 0.011280 -0.000000 -0.424637
v 0.015149 -0.000000 -0.429334
v -0.070852 -0.000000 -0.499854
v -0.076617 -0.000000 -0.497741
v -0.082717 -0.000000 -0.495705
v -0.089127 -0.000000 -0.493753
v -0.095824 -0.000000 -0.491891
v -0.102783 -0.000000 -0.490124
v -0.109982 -0.000000 -0.488459
v -0.117395 -0.000000 -0.486901
v -0.125000 -0.000000 -0.485457
v -0.132771 -0.000000 -0.484132
v -0.140687 -0.000000 -0.482932
v -0.148721 -0.000000 -0.481864
v -0.156851 -0.000000 -0.480934
v -0.177935 -0.000000 -0.479511
v -0.204399 -0.000000 -0.477868
v -0.235246 -0.000000 -0.476069
v -0.269480 -0.000000 -0.474181
v -0.306103 -0.000000 -0.472269
v -0.344117 -0.000000 -0.470399
v -0.382525 -0.000000 -0.468636
v -0.420331 -0.000000 -0.467046
v -0.456535 -0.000000 -0.465696
v -0.490142 -0.000000 -0.464649
v -0.520153 -0.000000 -0.463973
v -0.545572 -0.000000 -0.463734
v -0.554482 -0.000000 -0.463770
v -0.563966 -0.000000 -0.463877
v -0.573952 -0.000000 -0.464056
v -0.584367 -0.000000 -0.464307
v -0.595141 -0.000000 -0.464630
v -0.606202 -0.000000 -0.465024
v -0.617477 -0.000000 -0.465490
v -0.628896 -0.000000 -0.466027
v -0.640386 -0.000000 -0.466636
v -0.651876 -0.000000 -0.467317
v -0.663295 -0.000000 -0.468069
v -0.674572 -0.000000 -0.468894
v -0.667691 -0.000000 -0.329574
v -0.657238 -0.000000 -0.330467
v -0.646558 -0.000000 -0.331413
v -0.635710 -0.000000 -0.332396
v -0.624755 -0.000000 -0.333396
v -0.613753 -0.000000 -0.334396
v -0.602762 -0.000000 -0.335379
v -0.591843 -0.000000 -0.336325
v -0.581055 -0.000000 -0.337218
v -0.570458 -0.000000 -0.338040
v -0.560112 -0.000000 -0.338771
v -0.550076 -0.000000 -0.339395
v -0.540411 -0.000000 -0.339894
v -0.518065 -0.000000 -0.341250
v -0.491216 -0.000000 -0.342721
v -0.460808 -0.000000 -0.344274
v -0.427783 -0.000000 -0.345882
v -0.393087 -0.000000 -0.347513
v -0.357662 -0.000000 -0.349139
v -0.322452 -0.000000 -0.350728
v -0.288400 -0.000000 -0.352252
v -0.256451 -0.000000 -0.353681
v -0.227547 -0.000000 -0.354984
v -0.202633 -0.000000 -0.356131
v -0.182652 -0.000000 -0.357094
v -0.196223 -0.000000 -0.329571
v -0.210236 -0.000000 -0.300453
v -0.224630 -0.000000 -0.269938
v -0.239348 -0.000000 -0.238223
v -0.254328 -0.000000 -0.205504
v -0.269512 -0.000000 -0.171979
v -0.284838 -0.000000 -0.137844
v -0.300249 -0.000000 -0.103298
v -0.315683 -0.000000 -0.068537
v -0.331081 -0.000000 -0.033758
v -0.346384 -0.000000 0.000843
v -0.361531 -0.000000 0.035066
v -0.443981 -0.000000 0.041013
v -0.521611 -0.000000 0.054257
v -0.593973 -0.000000 0.074358
v -0.660620 -0.000000 0.100872
v -0.721104 -0.000000 0.133359
v -0.774977 -0.000000 0.171376
v -0.821790 -0.000000 0.214482
v -0.861096 -0.000000 0.262234
v -0.892447 -0.000000 0.314190
v -0.915396 -0.000000 0.369909
v -0.929493 -0.000000 0.428948
v -0.934292 0.000000 0.490866
v -0.932323 0.000000 0.525854
v -0.926568 0.000000 0.558488
v -0.917253 0.000000 0.588638
v -0.904606 0.000000 0.616172
v -0.888853 0.000000 0.640958
v -0.870222 0.000000 0.662866
v -0.848938 0.000000 0.681764
v -0.825231 0.000000 0.697521
v -0.799325 0.000000 0.710005
v -0.771449 0.000000 0.719085
v -0.741828 0.000000 0.724629
v -0.710691 0.000000 0.726506
v -0.688821 0.000000 0.725846
v -0.667883 0.000000 0.723807
v -0.647804 0.000000 0.720298
v -0.628514 0.000000 0.715231
v -0.609940 0.000000 0.708515
v -0.592011 0.000000 0.700061
v -0.574656 0.000000 0.689780
v -0.557802 0.000000 0.677582
v -0.541378 0.000000 0.663377
v -0.525313 0.000000 0.647076
v -0.509535 0.000000 0.628589
v -0.493971 0.000000 0.607826
v -0.477258 0.000000 0.581616
v -0.459882 0.000000 0.551512
v -0.441968 0.000000 0.518064
v -0.423643 0.000000 0.481820
v -0.405030 0.000000 0.443331
v -0.386257 -0.000000 0.403146
v -0.367447 -0.000000 0.361815
v -0.348728 -0.000000 0.319886
v -0.330223 -0.000000 0.277909
v -0.312058 -0.000000 0.236434
v -0.294359 -0.000000 0.196010
v -0.277252 -0.000000 0.157186
v -0.232755 -0.000000 0.162008
v -0.188735 -0.000000 0.168669
v -0.145242 -0.000000 0.177074
v -0.102321 -0.000000 0.187127
v -0.060022 -0.000000 0.198733
v -0.018392 -0.000000 0.211796
v 0.022522 -0.000000 0.226221
v 0.062671 -0.000000 0.241912
v 0.102008 -0.000000 0.258774
v 0.140485 -0.000000 0.276711
v 0.178054 -0.000000 0.295627
v 0.214668 -0.000000 0.315426
v 0.199429 -0.000000 0.361792
v 0.181049 -0.000000 0.407853
v 0.159253 0.000000 0.453376
v 0.133766 0.000000 0.498129
v 0.104312 0.000000 0.541878
v 0.070619 0.000000 0.584391
v 0.032411 0.000000 0.625435
v -0.010587 0.000000 0.664777
v -0.058649 0.000000 0.702184
v -0.112051 0.000000 0.737424
v -0.171066 0.000000 0.770262
v -0.235971 0.000000 0.800466
v -0.122451 0.000000 0.895066
v -0.062506 0.000000 0.863270
v -0.007243 0.000000 0.829754
v 0.043529 0.000000 0.794446
v 0.090001 0.000000 0.757275
v 0.132364 0.000000 0.718169
v 0.170809 0.000000 0.677056
v 0.205528 0.000000 0.633865
v 0.236711 0.000000 0.588524
v 0.264550 0.000000 0.540961
v 0.289235 0.000000 0.491105
v 0.310957 0.000000 0.438884
v 0.329909 -0.000000 0.384226
v 0.346534 -0.000000 0.395440
v 0.362867 -0.000000 0.406714
v 0.378901 -0.000000 0.418035
v 0.394631 -0.000000 0.429392
v 0.410050 0.000000 0.440773
v 0.425152 0.000000 0.452166
v 0.439932 0.000000 0.463559
v 0.454384 0.000000 0.474940
v 0.468502 0.000000 0.486298
v 0.482278 0.000000 0.497619
v 0.495709 0.000000 0.508893
v 0.508789 0.000000 0.520106
v 0.572428 -0.000000 0.372186
v 0.558347 -0.000000 0.362157
v 0.543634 -0.000000 0.351865
v 0.528299 -0.000000 0.341334
v 0.512355 -0.000000 0.330588
v 0.495814 -0.000000 0.319651
v 0.478688 -0.000000 0.308546
v 0.460989 -0.000000 0.297299
v 0.442728 -0.000000 0.285932
v 0.423917 -0.000000 0.274469
v 0.404569 -0.000000 0.262935
v 0.384696 -0.000000 0.251352
v 0.364309 -0.000000 0.239746
v 0.368863 -0.000000 0.214590
v 0.373076 -0.000000 0.188998
v 0.376967 -0.000000 0.162964
v 0.380553 -0.000000 0.136483
v 0.383852 -0.000000 0.109547
v 0.386883 -0.000000 0.082151
v 0.389663 -0.000000 0.054290
v 0.392210 -0.000000 0.025957
v 0.394542 -0.000000 -0.002854
v 0.396677 -0.000000 -0.032149
v 0.398633 -0.000000 -0.061933
v -0.414852 -0.000000 0.155466
v -0.430004 -0.000000 0.189483
v -0.445342 -0.000000 0.224211
v -0.460835 -0.000000 0.259284
v -0.476453 -0.000000 0.294340
v -0.492167 -0.000000 0.329014
v -0.507946 -0.000000 0.362941
v -0.523761 -0.000000 0.395758
v -0.539583 -0.000000 0.427099
v -0.555380 0.000000 0.456601
v -0.571124 0.000000 0.483899
v -0.586784 0.000000 0.508629
v -0.602332 0.000000 0.530426
v -0.611195 0.000000 0.541005
v -0.619771 0.000000 0.550413
v -0.628131 0.000000 0.558699
v -0.636349 0.000000 0.565909
v -0.644495 0.000000 0.572093
v -0.652641 0.000000 0.577296
v -0.660859 0.000000 0.581568
v -0.669220 0.000000 0.584957
v -0.677796 0.000000 0.587509
v -0.686659 0.000000 0.589273
v -0.695880 0.000000 0.590296
v -0.705532 0.000000 0.590626
v -0.719124 0.000000 0.589770
v -0.732287 0.000000 0.587218
v -0.744876 0.000000 0.582994
v -0.756749 0.000000 0.577121
v -0.767762 0.000000 0.569624
v -0.777771 0.000000 0.560526
v -0.786634 0.000000 0.549852
v -0.794207 0.000000 0.537625
v -0.800346 0.000000 0.523869
v -0.804909 0.000000 0.508608
v -0.807752 0.000000 0.491866
v -0.808732 0.000000 0.473666
v -0.805777 0.000000 0.436693
v -0.796994 -0.000000 0.400049
v -0.782501 -0.000000 0.364205
v -0.762419 -0.000000 0.329632
v -0.736866 -0.000000 0.296804
v -0.705961 -0.000000 0.266191
v -0.669825 -0.000000 0.238266
v -0.628577 -0.000000 0.213500
v -0.582336 -0.000000 0.192366
v -0.531222 -0.000000 0.175334
v -0.475354 -0.000000 0.162877
v -0.076617 0.199906 -0.497741
v 0.015149 0.199906 -0.429334
v -0.070852 0.199906 -0.499854
v -0.082717 0.199906 -0.495705
v -0.089127 0.199906 -0.493753
v -0.095824 0.199906 -0.491891
v -0.102783 0.199906 -0.490124
v -0.109982 0.199906 -0.488459
v -0.117395 0.199906 -0.486901
v -0.125000 0.199906 -0.485457
v -0.132771 0.199906 -0.484132
v -0.140687 0.199906 -0.482932
v -0.148721 0.199906 -0.481864
v -0.156851 0.199906 -0.480934
v -0.177935 0.199906 -0.479511
v -0.204399 0.199906 -0.477868
v -0.235246 0.199906 -0.476069
v -0.269480 0.199906 -0.474181
v -0.306103 0.199906 -0.472269
v -0.344117 0.199906 -0.470399
v -0.382525 0.199906 -0.468636
v -0.667691 0.199906 -0.329574
v -0.663295 0.199906 -0.468069
v -0.674572 0.199906 -0.468894
v -0.420331 0.199906 -0.467046
v -0.651876 0.199906 -0.467317
v -0.640386 0.199906 -0.466636
v -0.456535 0.199906 -0.465696
v -0.628896 0.199906 -0.466027
v -0.617477 0.199906 -0.465490
v -0.490142 0.199906 -0.464649
v -0.606202 0.199906 -0.465024
v -0.595141 0.199906 -0.464630
v -0.520153 0.199906 -0.463973
v -0.584367 0.199906 -0.464307
v -0.573952 0.199906 -0.464056
v -0.563966 0.199906 -0.463877
v -0.545572 0.199906 -0.463734
v -0.554482 0.199906 -0.463770
v 0.011280 0.199906 -0.424637
v 0.007416 0.199906 -0.419993
v 0.003565 0.199906 -0.415386
v -0.000268 0.199906 -0.410796
v -0.004077 0.199906 -0.406206
v -0.007857 0.199906 -0.401599
v -0.011600 0.199906 -0.396955
v -0.015302 0.199906 -0.392258
v -0.613753 0.199906 -0.334396
v -0.602762 0.199906 -0.335379
v -0.018956 0.199906 -0.387489
v -0.591843 0.199906 -0.336325
v -0.581055 0.199906 -0.337218
v -0.022556 0.199906 -0.382631
v -0.570458 0.199906 -0.338040
v -0.026097 0.199906 -0.377665
v -0.560112 0.199906 -0.338771
v -0.029572 0.199906 -0.372574
v -0.550076 0.199906 -0.339395
v -0.518065 0.199906 -0.341251
v -0.491216 0.199906 -0.342721
v -0.460808 0.199906 -0.344274
v -0.427783 0.199906 -0.345882
v -0.393087 0.199906 -0.347513
v -0.357662 0.199906 -0.349139
v -0.182652 0.199906 -0.357094
v -0.042167 0.199906 -0.351247
v -0.322452 0.199906 -0.350728
v -0.202633 0.199906 -0.356131
v -0.196223 0.199906 -0.329571
v -0.227547 0.199906 -0.354984
v -0.288400 0.199906 -0.352252
v -0.256451 0.199906 -0.353681
v -0.055801 0.199906 -0.326229
v -0.540411 0.199906 -0.339894
v -0.624755 0.199906 -0.333396
v -0.635710 0.199906 -0.332396
v -0.646558 0.199906 -0.331413
v -0.657238 0.199906 -0.330467
v -0.210236 0.199906 -0.300453
v -0.070368 0.199906 -0.297915
v -0.224630 0.199906 -0.269938
v -0.085758 0.199906 -0.266698
v -0.239348 0.199906 -0.238223
v -0.101865 0.199906 -0.232973
v -0.254328 0.199906 -0.205504
v -0.118582 0.199906 -0.197134
v -0.269512 0.199906 -0.171979
v -0.135800 0.199906 -0.159574
v -0.284838 0.199906 -0.137844
v -0.153412 0.199906 -0.120689
v -0.300249 0.199906 -0.103298
v -0.171310 0.199906 -0.080872
v 0.261864 0.199906 -0.095449
v 0.400428 0.199906 -0.092214
v 0.261109 0.199906 -0.107694
v -0.315683 0.199906 -0.068537
v 0.262422 0.199906 -0.082833
v 0.398633 0.199906 -0.061933
v 0.262802 0.199906 -0.069907
v -0.189388 0.199906 -0.040518
v 0.263020 0.199906 -0.056731
v -0.331081 0.199906 -0.033758
v 0.396677 0.199906 -0.032149
v 0.263094 0.199906 -0.043363
v 0.263044 0.199906 -0.029864
v -0.207538 0.199906 -0.000020
v -0.346384 0.199906 0.000843
v 0.394542 0.199906 -0.002854
v 0.262886 0.199906 -0.016293
v 0.262638 0.199906 -0.002710
v 0.392210 0.199906 0.025957
v 0.262318 0.199906 0.010825
v -0.225651 0.199906 0.040226
v -0.361531 0.199906 0.035066
v 0.261945 0.199906 0.024253
v 0.261536 0.199906 0.037513
v 0.389663 0.199906 0.054290
v -0.443981 0.199906 0.041013
v 0.261109 0.199906 0.050546
v -0.182513 0.199906 0.045694
v -0.521611 0.199906 0.054257
v -0.139978 0.199906 0.052577
v 0.260246 0.199906 0.060902
v -0.098076 0.199906 0.060786
v -0.593973 0.199906 0.074358
v 0.386883 0.199906 0.082151
v -0.056837 0.199906 0.070231
v 0.259365 0.199906 0.071330
v -0.016290 0.199906 0.080822
v 0.258448 0.199906 0.081829
v -0.660620 0.199906 0.100872
v 0.023533 0.199906 0.092471
v 0.257477 0.199906 0.092400
v 0.383852 0.199906 0.109547
v 0.256435 0.199906 0.103042
v 0.062604 0.199906 0.105088
v -0.721104 0.199906 0.133359
v 0.255303 0.199906 0.113756
v 0.100894 0.199906 0.118582
v 0.380553 0.199906 0.136483
v 0.254064 0.199906 0.124542
v 0.138370 0.199906 0.132864
v 0.252699 0.199906 0.135400
v 0.175004 0.199906 0.147846
v -0.774977 0.199906 0.171376
v -0.414852 0.199906 0.155466
v 0.251192 0.199906 0.146329
v 0.376967 0.199906 0.162964
v 0.249523 0.199906 0.157330
v -0.277252 0.199906 0.157186
v 0.210767 0.199906 0.163436
v -0.475354 0.199906 0.162877
v -0.430004 0.199906 0.189483
v -0.294359 0.199906 0.196010
v -0.232755 0.199906 0.162008
v 0.247674 0.199906 0.168402
v -0.188735 0.199906 0.168669
v -0.531222 0.199906 0.175334
v 0.373076 0.199906 0.188998
v 0.245628 0.199906 0.179546
v -0.145242 0.199906 0.177074
v -0.821790 0.199906 0.214482
v -0.582336 0.199906 0.192366
v -0.102321 0.199906 0.187127
v -0.060022 0.199906 0.198733
v 0.368863 0.199906 0.214590
v -0.445342 0.199906 0.224211
v -0.628577 0.199906 0.213500
v -0.312058 0.199906 0.236434
v -0.018392 0.199906 0.211796
v 0.022522 0.199906 0.226221
v -0.669825 0.199906 0.238266
v -0.861096 0.199906 0.262234
v 0.364309 0.199906 0.239746
v -0.460835 0.199906 0.259284
v 0.062671 0.199906 0.241912
v -0.330223 0.199906 0.277909
v -0.705961 0.199906 0.266191
v 0.384696 0.199906 0.251352
v 0.102008 0.199906 0.258774
v 0.404569 0.199906 0.262935
v 0.140485 0.199906 0.276710
v -0.476453 0.199906 0.294340
v -0.892447 0.199906 0.314190
v 0.423917 0.199906 0.274469
v -0.736866 0.199906 0.296804
v 0.442728 0.199906 0.285932
v 0.178054 0.199906 0.295626
v -0.348728 0.199906 0.319886
v 0.460989 0.199906 0.297299
v -0.492167 0.199906 0.329014
v 0.214668 0.199906 0.315426
v -0.762419 0.199906 0.329632
v 0.478688 0.199906 0.308546
v 0.495814 0.199906 0.319651
v -0.915396 0.199906 0.369909
v 0.199429 0.199906 0.361792
v 0.512355 0.199906 0.330588
v -0.367447 0.199906 0.361815
v -0.507946 0.199906 0.362941
v -0.782501 0.199906 0.364204
v 0.528299 0.199906 0.341334
v 0.543634 0.199906 0.351865
v 0.558347 0.199906 0.362157
v 0.181049 0.199906 0.407852
v 0.329909 0.199906 0.384226
v -0.386257 0.199906 0.403146
v 0.572428 0.199906 0.372186
v -0.523761 0.199906 0.395758
v -0.796994 0.199906 0.400049
v -0.929493 0.199906 0.428948
v 0.346534 0.199906 0.395440
v 0.362867 0.199906 0.406714
v 0.378901 0.199906 0.418035
v 0.394631 0.199906 0.429392
v 0.410050 0.199906 0.440773
v 0.425152 0.199906 0.452166
v 0.439932 0.199906 0.463559
v 0.454384 0.199906 0.474940
v 0.468502 0.199906 0.486298
v 0.482278 0.199906 0.497619
v 0.495709 0.199906 0.508892
v 0.508789 0.199906 0.520106
v 0.310957 0.199906 0.438884
v -0.539583 0.199906 0.427099
v -0.805777 0.199906 0.436693
v -0.405030 0.199906 0.443331
v 0.159253 0.199906 0.453376
v -0.555380 0.199906 0.456601
v -0.934292 0.199906 0.490866
v -0.808732 0.199906 0.473666
v 0.289235 0.199906 0.491105
v -0.423643 0.199906 0.481820
v 0.133766 0.199906 0.498129
v -0.571124 0.199906 0.483899
v -0.807752 0.199906 0.491866
v -0.441968 0.199906 0.518064
v -0.586784 0.199906 0.508629
v -0.932323 0.199906 0.525854
v 0.264550 0.199906 0.540961
v -0.804909 0.199906 0.508608
v 0.104312 0.199906 0.541878
v -0.800346 0.199906 0.523869
v -0.602332 0.199906 0.530426
v -0.459882 0.199906 0.551512
v -0.794207 0.199906 0.537625
v -0.926568 0.199906 0.558488
v -0.611195 0.199906 0.541005
v -0.786634 0.199906 0.549852
v 0.236711 0.199906 0.588524
v -0.619771 0.199906 0.550413
v 0.070619 0.199906 0.584391
v -0.777771 0.199906 0.560526
v -0.628131 0.199906 0.558699
v -0.477258 0.199906 0.581616
v -0.917253 0.199906 0.588638
v -0.636349 0.199906 0.565909
v -0.767762 0.199906 0.569624
v -0.644495 0.199906 0.572093
v -0.756749 0.199906 0.577121
v -0.652641 0.199906 0.577296
v -0.744876 0.199906 0.582994
v -0.660859 0.199906 0.581568
v -0.669220 0.199906 0.584957
v -0.493971 0.199906 0.607826
v -0.732287 0.199906 0.587218
v 0.032411 0.199906 0.625435
v -0.677796 0.199906 0.587509
v -0.719124 0.199906 0.589770
v -0.686659 0.199906 0.589273
v 0.205528 0.199906 0.633865
v -0.904606 0.199906 0.616171
v -0.695880 0.199906 0.590296
v -0.705532 0.199906 0.590626
v -0.509535 0.199906 0.628589
v -0.888853 0.199906 0.640958
v -0.010587 0.199906 0.664777
v -0.525313 0.199906 0.647076
v 0.170809 0.199906 0.677056
v -0.870222 0.199906 0.662866
v -0.541378 0.199906 0.663377
v -0.848938 0.199906 0.681764
v -0.557802 0.199906 0.677582
v -0.058649 0.199906 0.702184
v 0.132364 0.199906 0.718169
v -0.574656 0.199906 0.689780
v -0.825231 0.199906 0.697521
v -0.592011 0.199906 0.700061
v -0.799325 0.199906 0.710005
v -0.609940 0.199906 0.708515
v -0.112051 0.199906 0.737424
v -0.628514 0.199906 0.715231
v -0.771449 0.199906 0.719085
v -0.647804 0.199906 0.720298
v 0.090001 0.199906 0.757275
v -0.741828 0.199906 0.724629
v -0.667883 0.199906 0.723807
v -0.688821 0.199906 0.725846
v -0.710691 0.199906 0.726506
v -0.171066 0.199906 0.770262
v 0.043529 0.199906 0.794446
v -0.235971 0.199906 0.800466
v -0.007243 0.199906 0.829754
v -0.122451 0.199906 0.895066
v -0.062506 0.199906 0.863270
v -1.000000 -1.000000 1.000000
v -1.000000 1.000000 1.000000
v -1.000000 -1.000000 -1.000000
v -1.000000 1.000000 -1.000000
v 1.000000 -1.000000 1.000000
v 1.000000 1.000000 1.000000
v 1.000000 -1.000000 -1.000000
v 1.000000 1.000000 -1.000000
vn -0.2325 -0.7104 -0.6643
vn 0.1322 -0.6107 -0.7808
vn 0.8127 -0.5772 -0.0795
vn -0.2140 -0.7101 -0.6708
vn -0.1970 -0.7099 -0.6762
vn -0.1811 -0.7097 -0.6809
vn -0.1661 -0.7095 -0.6848
vn -0.1519 -0.7094 -0.6883
vn -0.1382 -0.7093 -0.6912
vn -0.1250 -0.7092 -0.6938
vn -0.1121 -0.7092 -0.6961
vn -0.0993 -0.7092 -0.6980
vn -0.0865 -0.7092 -0.6997
vn -0.0635 -0.7124 -0.6989
vn -0.0457 -0.7077 -0.7050
vn -0.0425 -0.7075 -0.7054
vn -0.0400 -0.7075 -0.7056
vn -0.0379 -0.7074 -0.7058
vn -0.0358 -0.7074 -0.7059
vn -0.0336 -0.7075 -0.7059
vn -0.0310 -0.7075 -0.7060
vn -0.5382 -0.5753 0.6159
vn -0.5735 -0.5712 -0.5872
vn 0.0490 -0.7079 -0.7046
vn -0.0280 -0.7076 -0.7060
vn 0.0441 -0.7078 -0.7050
vn 0.0396 -0.7078 -0.7053
vn -0.0242 -0.7078 -0.7060
vn 0.0353 -0.7078 -0.7056
vn 0.0312 -0.7078 -0.7058
vn -0.0189 -0.7081 -0.7059
vn 0.0272 -0.7077 -0.7059
vn 0.0231 -0.7077 -0.7061
vn -0.0113 -0.7086 -0.7055
vn 0.0191 -0.7078 -0.7062
vn 0.0148 -0.7078 -0.7063
vn 0.0103 -0.7078 -0.7063
vn -0.0019 -0.7086 -0.7056
vn 0.0054 -0.7079 -0.7063
vn 0.5451 -0.7066 0.4513
vn 0.5433 -0.7069 0.4530
vn 0.5426 -0.7071 0.4533
vn 0.5431 -0.7074 0.4522
vn 0.5449 -0.7078 0.4496
vn 0.5479 -0.7081 0.4455
vn 0.5520 -0.7084 0.4400
vn 0.5571 -0.7086 0.4329
vn 0.0635 -0.7073 0.7041
vn 0.0620 -0.7074 0.7041
vn 0.5633 -0.7089 0.4244
vn 0.0597 -0.7075 0.7041
vn 0.0564 -0.7077 0.7043
vn 0.5703 -0.7092 0.4145
vn 0.0522 -0.7079 0.7044
vn 0.5780 -0.7095 0.4032
vn 0.0468 -0.7080 0.7046
vn 0.5905 -0.7145 0.3753
vn 0.0401 -0.7083 0.7048
vn 0.0407 -0.7078 0.7053
vn 0.0374 -0.7075 0.7057
vn 0.0352 -0.7074 0.7060
vn 0.0338 -0.7073 0.7061
vn 0.0328 -0.7072 0.7062
vn 0.0321 -0.7072 0.7063
vn -0.2443 -0.9564 0.1602
vn 0.6116 -0.7110 0.3471
vn 0.0317 -0.7072 0.7063
vn 0.0333 -0.7069 0.7066
vn -0.6367 -0.7060 -0.3101
vn 0.0322 -0.7070 0.7065
vn 0.0316 -0.7071 0.7064
vn 0.0317 -0.7071 0.7064
vn 0.6225 -0.7098 0.3297
vn 0.0397 -0.7061 0.7070
vn 0.0642 -0.7072 0.7041
vn 0.0640 -0.7070 0.7043
vn 0.0631 -0.7069 0.7045
vn 0.0613 -0.7067 0.7049
vn -0.6391 -0.7062 -0.3045
vn 0.6298 -0.7090 0.3172
vn -0.6411 -0.7064 -0.3000
vn 0.6349 -0.7085 0.3081
vn -0.6427 -0.7065 -0.2962
vn 0.6385 -0.7081 0.3014
vn -0.6439 -0.7066 -0.2932
vn 0.6411 -0.7079 0.2965
vn -0.6449 -0.7067 -0.2908
vn 0.6430 -0.7076 0.2930
vn -0.6457 -0.7068 -0.2890
vn 0.6442 -0.7074 0.2907
vn -0.6462 -0.7069 -0.2876
vn 0.6450 -0.7073 0.2894
vn -0.7042 -0.7091 0.0373
vn -0.5671 -0.5688 -0.5957
vn 0.6228 -0.5801 -0.5250
vn -0.6465 -0.7070 -0.2867
vn -0.7050 -0.7088 0.0259
vn 0.7064 -0.7064 0.0441
vn -0.7055 -0.7085 0.0162
vn 0.6453 -0.7071 0.2891
vn -0.7058 -0.7083 0.0078
vn -0.6467 -0.7071 -0.2862
vn 0.7062 -0.7063 0.0489
vn -0.7061 -0.7082 0.0006
vn -0.7062 -0.7080 -0.0054
vn 0.6452 -0.7069 0.2898
vn -0.6466 -0.7071 -0.2861
vn 0.7059 -0.7062 0.0543
vn -0.7063 -0.7078 -0.0106
vn -0.7064 -0.7077 -0.0148
vn 0.7055 -0.7061 0.0603
vn -0.7064 -0.7076 -0.0181
vn 0.3049 -0.9369 -0.1709
vn -0.3093 -0.8432 -0.4397
vn -0.7065 -0.7074 -0.0207
vn -0.7065 -0.7073 -0.0225
vn 0.7050 -0.7060 0.0669
vn -0.0863 -0.6964 -0.7125
vn -0.7002 -0.7128 -0.0406
vn 0.1015 -0.7033 -0.7036
vn -0.1567 -0.6958 -0.7009
vn 0.1251 -0.7034 -0.6997
vn -0.7045 -0.7072 -0.0591
vn 0.1477 -0.7036 -0.6951
vn -0.2294 -0.6952 -0.6812
vn 0.7044 -0.7059 0.0741
vn 0.1691 -0.7037 -0.6901
vn -0.7042 -0.7074 -0.0605
vn 0.1895 -0.7039 -0.6846
vn -0.7038 -0.7076 -0.0630
vn -0.3037 -0.6945 -0.6523
vn 0.2088 -0.7040 -0.6788
vn -0.7033 -0.7078 -0.0667
vn 0.7037 -0.7058 0.0820
vn -0.7026 -0.7080 -0.0715
vn 0.2271 -0.7041 -0.6728
vn -0.3788 -0.6937 -0.6127
vn -0.7018 -0.7081 -0.0774
vn 0.2444 -0.7043 -0.6665
vn 0.7027 -0.7057 0.0906
vn -0.7009 -0.7083 -0.0843
vn 0.2607 -0.7044 -0.6602
vn -0.6997 -0.7085 -0.0922
vn 0.2761 -0.7045 -0.6537
vn -0.4531 -0.6928 -0.5610
vn -0.2271 -0.9593 0.1680
vn -0.6983 -0.7086 -0.1011
vn 0.7016 -0.7056 0.0999
vn -0.6967 -0.7088 -0.1110
vn 0.2495 -0.8667 0.4319
vn 0.2906 -0.7047 -0.6473
vn 0.1181 -0.7182 0.6857
vn -0.6467 -0.7068 -0.2868
vn 0.6472 -0.7074 0.2843
vn -0.0904 -0.7119 0.6964
vn -0.6947 -0.7089 -0.1218
vn -0.1192 -0.7117 0.6923
vn 0.1858 -0.7188 0.6699
vn 0.7002 -0.7054 0.1100
vn -0.1664 -0.9323 -0.3211
vn -0.1468 -0.7116 0.6871
vn -0.5245 -0.6919 -0.4961
vn 0.2545 -0.7194 0.6463
vn -0.1732 -0.7114 0.6811
vn -0.1983 -0.7112 0.6744
vn 0.6985 -0.7053 0.1207
vn -0.6468 -0.7071 -0.2857
vn 0.3234 -0.7199 0.6141
vn 0.6477 -0.7071 0.2836
vn -0.2222 -0.7111 0.6671
vn -0.2450 -0.7109 0.6592
vn 0.3911 -0.7205 0.5726
vn -0.5900 -0.6911 -0.4175
vn 0.4582 -0.8627 -0.2141
vn -0.6460 -0.7075 -0.2866
vn -0.2666 -0.7108 0.6509
vn 0.6476 -0.7068 0.2846
vn 0.4564 -0.7212 0.5211
vn 0.3535 -0.7060 -0.6137
vn -0.2873 -0.7106 0.6422
vn 0.3596 -0.7060 -0.6101
vn -0.3069 -0.7105 0.6332
vn -0.6443 -0.7078 -0.2895
vn -0.6460 -0.6904 -0.3256
vn 0.3656 -0.7060 -0.6065
vn 0.5176 -0.7219 0.4593
vn 0.3714 -0.7060 -0.6030
vn -0.3257 -0.7104 0.6239
vn 0.6468 -0.7066 0.2870
vn 0.3770 -0.7061 -0.5994
vn -0.6416 -0.7082 -0.2946
vn -0.4361 -0.8830 0.1736
vn 0.5729 -0.7226 0.3868
vn 0.3825 -0.7061 -0.5959
vn 0.3879 -0.7061 -0.5924
vn -0.6888 -0.6899 -0.2226
vn -0.6579 -0.7142 -0.2391
vn 0.3932 -0.7061 -0.5889
vn 0.6454 -0.7063 0.2909
vn -0.6377 -0.7086 -0.3019
vn 0.6201 -0.7234 0.3035
vn 0.3983 -0.7061 -0.5854
vn 0.4034 -0.7061 -0.5820
vn 0.4083 -0.7061 -0.5785
vn -0.6406 -0.7147 -0.2808
vn 0.1137 -0.9332 0.3410
vn 0.6432 -0.7060 0.2966
vn 0.7780 -0.5893 -0.2177
vn -0.6323 -0.7092 -0.3119
vn 0.6567 -0.7242 0.2102
vn -0.7152 -0.6899 -0.1124
vn -0.3979 -0.7083 0.5831
vn -0.4041 -0.7083 0.5788
vn -0.4102 -0.7083 0.5745
vn -0.4162 -0.7083 0.5702
vn -0.4222 -0.7083 0.5658
vn -0.4281 -0.7083 0.5613
vn -0.4339 -0.7083 0.5569
vn -0.4396 -0.7083 0.5523
vn -0.4454 -0.7083 0.5477
vn -0.4510 -0.7083 0.5431
vn -0.4567 -0.7083 0.5383
vn 0.1867 -0.5631 0.8050
vn 0.6670 -0.7004 0.2541
vn -0.6249 -0.7098 -0.3250
vn 0.6802 -0.7250 0.1080
vn 0.6400 -0.7056 0.3042
vn -0.6192 -0.7152 -0.3241
vn -0.6149 -0.7107 -0.3418
vn -0.7215 -0.6924 -0.0076
vn 0.6914 -0.7224 0.0090
vn 0.6502 -0.6998 0.2958
vn 0.6356 -0.7051 0.3143
vn -0.5936 -0.7156 -0.3681
vn -0.6011 -0.7118 -0.3634
vn 0.6895 -0.7202 -0.0768
vn 0.6296 -0.7045 0.3277
vn -0.5815 -0.7134 -0.3911
vn -0.7152 -0.6940 0.0829
vn 0.6291 -0.6993 0.3393
vn 0.6747 -0.7211 -0.1575
vn -0.5636 -0.7160 -0.4121
vn 0.6488 -0.7219 -0.2406
vn -0.5522 -0.7160 -0.4272
vn 0.6210 -0.7035 0.3454
vn 0.6109 -0.7226 -0.3236
vn -0.7005 -0.6933 0.1693
vn -0.5288 -0.7118 -0.4622
vn 0.5608 -0.7230 -0.4035
vn 0.6036 -0.6990 0.3835
vn -0.5061 -0.7129 -0.4854
vn -0.5293 -0.7162 -0.4549
vn 0.4992 -0.7232 -0.4773
vn -0.4775 -0.7140 -0.5120
vn 0.6086 -0.7022 0.3695
vn -0.6737 -0.6927 0.2575
vn -0.4421 -0.7152 -0.5414
vn 0.4276 -0.7232 -0.5423
vn -0.3991 -0.7163 -0.5724
vn 0.3484 -0.7230 -0.5966
vn -0.3486 -0.7173 -0.6033
vn 0.2638 -0.7227 -0.6389
vn -0.2916 -0.7179 -0.6321
vn -0.2302 -0.7180 -0.6568
vn 0.5882 -0.6987 0.4072
vn 0.1762 -0.7223 -0.6688
vn -0.4913 -0.7162 -0.4956
vn -0.1674 -0.7177 -0.6759
vn 0.0878 -0.7219 -0.6865
vn -0.1066 -0.7169 -0.6890
vn 0.5738 -0.6988 0.4270
vn -0.6339 -0.6922 0.3450
vn -0.0505 -0.7158 -0.6965
vn 0.0100 -0.7182 -0.6958
vn 0.5575 -0.7001 0.4462
vn -0.5811 -0.6919 0.4286
vn -0.4503 -0.7162 -0.5333
vn 0.5269 -0.6991 0.4833
vn 0.5404 -0.6988 0.4687
vn -0.5161 -0.6917 0.5052
vn 0.4895 -0.6983 0.5224
vn -0.4407 -0.6917 0.5721
vn 0.4449 -0.6975 0.5618
vn -0.4069 -0.7160 -0.5672
vn 0.5041 -0.6989 0.5073
vn 0.3934 -0.6969 0.5996
vn -0.3574 -0.6920 0.6273
vn 0.3362 -0.6967 0.6338
vn -0.2690 -0.6923 0.6696
vn 0.2752 -0.6967 0.6624
vn -0.3624 -0.7157 -0.5970
vn 0.2132 -0.6971 0.6845
vn -0.1784 -0.6928 0.6987
vn 0.1528 -0.6978 0.6998
vn 0.4660 -0.6992 0.5421
vn -0.0881 -0.6933 0.7152
vn 0.0963 -0.6987 0.7089
vn 0.0454 -0.6996 0.7130
vn -0.0108 -0.6971 0.7169
vn -0.3175 -0.7153 -0.6225
vn 0.4274 -0.6996 0.5726
vn -0.8231 -0.5576 -0.1072
vn 0.3891 -0.7002 0.5986
vn -0.0826 -0.6006 0.7953
vn 0.3523 -0.7007 0.6204
vn -0.2325 0.7104 -0.6643
vn 0.8127 0.5772 -0.0795
vn 0.1322 0.6107 -0.7808
vn -0.2140 0.7101 -0.6708
vn -0.1970 0.7099 -0.6762
vn -0.1811 0.7097 -0.6809
vn -0.1661 0.7095 -0.6848
vn -0.1519 0.7094 -0.6883
vn -0.1382 0.7093 -0.6912
vn -0.1250 0.7092 -0.6938
vn -0.1121 0.7092 -0.6961
vn -0.0993 0.7092 -0.6980
vn -0.0865 0.7092 -0.6997
vn -0.0635 0.7124 -0.6989
vn -0.0457 0.7077 -0.7050
vn -0.0425 0.7075 -0.7054
vn -0.0400 0.7075 -0.7056
vn -0.0379 0.7074 -0.7058
vn -0.0358 0.7074 -0.7059
vn -0.0336 0.7075 -0.7059
vn -0.0310 0.7075 -0.7060
vn -0.5382 0.5753 0.6159
vn 0.0490 0.7079 -0.7046
vn -0.5735 0.5712 -0.5872
vn -0.0280 0.7076 -0.7060
vn 0.0441 0.7078 -0.7050
vn 0.0396 0.7078 -0.7053
vn -0.0242 0.7078 -0.7060
vn 0.0353 0.7078 -0.7056
vn 0.0312 0.7078 -0.7058
vn -0.0189 0.7081 -0.7059
vn 0.0272 0.7077 -0.7059
vn 0.0231 0.7077 -0.7061
vn -0.0113 0.7086 -0.7055
vn 0.0191 0.7078 -0.7062
vn 0.0148 0.7078 -0.7063
vn 0.0103 0.7078 -0.7063
vn -0.0019 0.7086 -0.7056
vn 0.0054 0.7079 -0.7063
vn 0.5451 0.7066 0.4513
vn 0.5433 0.7069 0.4530
vn 0.5426 0.7071 0.4533
vn 0.5431 0.7075 0.4522
vn 0.5449 0.7078 0.4496
vn 0.5479 0.7081 0.4455
vn 0.5520 0.7084 0.4400
vn 0.5571 0.7086 0.4329
vn 0.0635 0.7073 0.7041
vn 0.0620 0.7074 0.7041
vn 0.5633 0.7089 0.4244
vn 0.0597 0.7076 0.7041
vn 0.0564 0.7077 0.7043
vn 0.5703 0.7092 0.4145
vn 0.0522 0.7079 0.7044
vn 0.5780 0.7094 0.4032
vn 0.0468 0.7081 0.7046
vn 0.5905 0.7145 0.3753
vn 0.0401 0.7083 0.7048
vn 0.0407 0.7078 0.7053
vn 0.0374 0.7075 0.7057
vn 0.0352 0.7074 0.7060
vn 0.0338 0.7073 0.7061
vn 0.0328 0.7072 0.7062
vn 0.0321 0.7072 0.7063
vn -0.2443 0.9564 0.1602
vn 0.6116 0.7110 0.3471
vn 0.0317 0.7072 0.7063
vn 0.0333 0.7069 0.7066
vn -0.6367 0.7060 -0.3101
vn 0.0322 0.7070 0.7065
vn 0.0319 0.7071 0.7064
vn 0.0316 0.7071 0.7064
vn 0.6225 0.7098 0.3297
vn 0.0397 0.7061 0.7070
vn 0.0642 0.7071 0.7042
vn 0.0641 0.7070 0.7043
vn 0.0631 0.7068 0.7046
vn 0.0613 0.7069 0.7046
vn -0.6391 0.7062 -0.3045
vn 0.6298 0.7090 0.3172
vn -0.6411 0.7064 -0.3000
vn 0.6349 0.7085 0.3081
vn -0.6427 0.7065 -0.2962
vn 0.6385 0.7081 0.3014
vn -0.6439 0.7066 -0.2932
vn 0.6411 0.7079 0.2965
vn -0.6449 0.7067 -0.2908
vn 0.6430 0.7076 0.2930
vn -0.6457 0.7068 -0.2890
vn 0.6442 0.7074 0.2907
vn -0.6462 0.7069 -0.2876
vn 0.6450 0.7073 0.2894
vn -0.7042 0.7091 0.0373
vn 0.6227 0.5801 -0.5250
vn -0.5671 0.5688 -0.5957
vn -0.6465 0.7070 -0.2867
vn -0.7050 0.7088 0.0259
vn 0.7064 0.7064 0.0441
vn -0.7055 0.7085 0.0162
vn 0.6453 0.7071 0.2891
vn -0.7058 0.7083 0.0078
vn -0.6467 0.7071 -0.2862
vn 0.7062 0.7063 0.0489
vn -0.7061 0.7081 0.0006
vn -0.7062 0.7080 -0.0054
vn 0.6452 0.7069 0.2898
vn -0.6466 0.7071 -0.2861
vn 0.7059 0.7062 0.0543
vn -0.7063 0.7078 -0.0106
vn -0.7064 0.7077 -0.0148
vn 0.7055 0.7061 0.0603
vn -0.7064 0.7076 -0.0181
vn 0.3049 0.9369 -0.1709
vn -0.3093 0.8432 -0.4397
vn -0.7065 0.7075 -0.0207
vn -0.7065 0.7073 -0.0225
vn 0.7050 0.7060 0.0669
vn -0.0863 0.6964 -0.7125
vn -0.7002 0.7128 -0.0406
vn 0.1015 0.7033 -0.7036
vn -0.1567 0.6958 -0.7009
vn 0.1251 0.7034 -0.6997
vn -0.7045 0.7072 -0.0591
vn 0.1477 0.7036 -0.6951
vn -0.2294 0.6952 -0.6812
vn 0.7044 0.7059 0.0741
vn 0.1691 0.7037 -0.6901
vn -0.7042 0.7074 -0.0605
vn 0.1895 0.7039 -0.6846
vn -0.7038 0.7076 -0.0630
vn -0.3037 0.6945 -0.6523
vn 0.2088 0.7040 -0.6788
vn -0.7033 0.7078 -0.0667
vn 0.7037 0.7058 0.0820
vn -0.7026 0.7080 -0.0715
vn 0.2271 0.7041 -0.6728
vn -0.3788 0.6937 -0.6127
vn -0.7018 0.7081 -0.0774
vn 0.2444 0.7043 -0.6665
vn 0.7027 0.7057 0.0906
vn -0.7009 0.7083 -0.0843
vn 0.2607 0.7044 -0.6602
vn -0.6997 0.7085 -0.0922
vn 0.2761 0.7045 -0.6537
vn -0.4531 0.6928 -0.5610
vn -0.2271 0.9593 0.1680
vn -0.6983 0.7086 -0.1011
vn 0.7016 0.7056 0.0999
vn -0.6966 0.7088 -0.1110
vn 0.2495 0.8667 0.4319
vn 0.2906 0.7047 -0.6473
vn 0.1181 0.7183 0.6857
vn -0.6467 0.7068 -0.2868
vn 0.6472 0.7074 0.2843
vn -0.0904 0.7119 0.6964
vn -0.6947 0.7089 -0.1218
vn -0.1192 0.7117 0.6923
vn 0.1858 0.7188 0.6699
vn 0.7002 0.7054 0.1100
vn -0.1664 0.9323 -0.3211
vn -0.1468 0.7115 0.6871
vn -0.5245 0.6919 -0.4961
vn 0.2545 0.7194 0.6463
vn -0.1732 0.7114 0.6811
vn -0.1983 0.7112 0.6744
vn 0.6985 0.7053 0.1207
vn -0.6468 0.7071 -0.2857
vn 0.3234 0.7199 0.6141
vn 0.6477 0.7071 0.2836
vn -0.2222 0.7111 0.6671
vn -0.2450 0.7109 0.6592
vn 0.3911 0.7205 0.5726
vn -0.5900 0.6911 -0.4175
vn 0.4582 0.8627 -0.2141
vn -0.6460 0.7075 -0.2866
vn -0.2666 0.7108 0.6509
vn 0.6476 0.7068 0.2846
vn 0.4564 0.7212 0.5211
vn 0.3535 0.7060 -0.6137
vn -0.2873 0.7107 0.6422
vn 0.3596 0.7060 -0.6101
vn -0.3069 0.7105 0.6332
vn -0.6443 0.7078 -0.2895
vn -0.6460 0.6904 -0.3256
vn 0.3656 0.7060 -0.6065
vn 0.5176 0.7219 0.4593
vn 0.3714 0.7060 -0.6030
vn -0.3257 0.7104 0.6239
vn 0.6468 0.7066 0.2870
vn 0.3770 0.7061 -0.5994
vn -0.6416 0.7082 -0.2946
vn -0.4361 0.8830 0.1736
vn 0.5729 0.7226 0.3868
vn 0.3825 0.7061 -0.5959
vn 0.3879 0.7061 -0.5924
vn -0.6888 0.6900 -0.2226
vn -0.6579 0.7142 -0.2391
vn 0.3932 0.7061 -0.5889
vn 0.6454 0.7063 0.2909
vn -0.6377 0.7087 -0.3019
vn 0.6201 0.7234 0.3035
vn 0.3983 0.7061 -0.5854
vn 0.4034 0.7061 -0.5820
vn 0.4083 0.7061 -0.5785
vn -0.6406 0.7147 -0.2808
vn 0.1137 0.9332 0.3410
vn 0.6431 0.7060 0.2966
vn 0.7780 0.5893 -0.2177
vn -0.6323 0.7092 -0.3119
vn 0.6567 0.7242 0.2102
vn -0.7152 0.6899 -0.1124
vn -0.3979 0.7083 0.5831
vn -0.4041 0.7083 0.5788
vn -0.4102 0.7083 0.5745
vn -0.4162 0.7083 0.5702
vn -0.4222 0.7083 0.5658
vn -0.4281 0.7083 0.5613
vn -0.4339 0.7083 0.5569
vn -0.4396 0.7083 0.5523
vn -0.4454 0.7083 0.5477
vn -0.4510 0.7083 0.5431
vn -0.4567 0.7083 0.5383
vn 0.1867 0.5631 0.8050
vn 0.6670 0.7004 0.2541
vn -0.6249 0.7098 -0.3250
vn 0.6802 0.7250 0.1080
vn 0.6400 0.7056 0.3042
vn -0.6192 0.7152 -0.3241
vn -0.6149 0.7107 -0.3418
vn -0.7215 0.6924 -0.0076
vn 0.6914 0.7224 0.0090
vn 0.6502 0.6998 0.2958
vn 0.6356 0.7051 0.3143
vn -0.5936 0.7156 -0.3681
vn -0.6011 0.7118 -0.3634
vn 0.6895 0.7202 -0.0768
vn 0.6296 0.7045 0.3277
vn -0.5815 0.7134 -0.3911
vn -0.7152 0.6940 0.0829
vn 0.6291 0.6993 0.3393
vn 0.6747 0.7211 -0.1575
vn -0.5636 0.7159 -0.4121
vn 0.6488 0.7219 -0.2406
vn -0.5522 0.7160 -0.4272
vn 0.6210 0.7035 0.3454
vn 0.6109 0.7226 -0.3236
vn -0.7005 0.6933 0.1693
vn -0.5288 0.7118 -0.4622
vn 0.5608 0.7230 -0.4035
vn 0.6036 0.6990 0.3835
vn -0.5061 0.7129 -0.4854
vn -0.5293 0.7162 -0.4549
vn 0.4992 0.7232 -0.4773
vn -0.4775 0.7140 -0.5120
vn 0.6086 0.7022 0.3695
vn -0.6737 0.6927 0.2575
vn -0.4421 0.7152 -0.5414
vn 0.4276 0.7232 -0.5423
vn -0.3991 0.7163 -0.5724
vn 0.3484 0.7230 -0.5966
vn -0.3486 0.7173 -0.6033
vn 0.2638 0.7227 -0.6389
vn -0.2916 0.7179 -0.6321
vn -0.2302 0.7180 -0.6568
vn 0.5882 0.6987 0.4072
vn 0.1762 0.7223 -0.6688
vn -0.4913 0.7162 -0.4956
vn -0.1674 0.7177 -0.6759
vn 0.0878 0.7219 -0.6865
vn -0.1066 0.7169 -0.6890
vn 0.5738 0.6988 0.4270
vn -0.6339 0.6922 0.3450
vn -0.0505 0.7158 -0.6965
vn 0.0100 0.7182 -0.6958
vn 0.5575 0.7001 0.4462
vn -0.5811 0.6919 0.4286
vn -0.4502 0.7162 -0.5332
vn 0.5269 0.6991 0.4833
vn 0.5404 0.6988 0.4687
vn -0.5161 0.6917 0.5052
vn 0.4895 0.6983 0.5224
vn -0.4407 0.6917 0.5721
vn 0.4449 0.6975 0.5618
vn -0.4069 0.7160 -0.5672
vn 0.5041 0.6989 0.5073
vn 0.3934 0.6969 0.5996
vn -0.3574 0.6920 0.6273
vn 0.3362 0.6967 0.6338
vn -0.2690 0.6923 0.6696
vn 0.2752 0.6967 0.6624
vn -0.3624 0.7157 -0.5970
vn 0.2132 0.6971 0.6845
vn -0.1784 0.6928 0.6987
vn 0.1528 0.6978 0.6998
vn 0.4660 0.6992 0.5421
vn -0.0881 0.6933 0.7152
vn 0.0963 0.6987 0.7089
vn 0.0454 0.6997 0.7130
vn -0.0108 0.6971 0.7169
vn -0.3175 0.7153 -0.6225
vn 0.4273 0.6997 0.5726
vn -0.8231 0.5576 -0.1073
vn 0.3891 0.7002 0.5986
vn -0.0826 0.6006 0.7953
vn 0.3523 0.7007 0.6204
vn -1.0000 -0.0000 -0.0000
vn -0.0000 -0.0000 -1.0000
vn 1.0000 -0.0000 -0.0000
vn -0.0000 -0.0000 1.0000
vn -0.0000 -1.0000 -0.0000
vn -0.0000 1.0000 -0.0000
vt 0.875000 0.792763
vt 0.875000 0.796053
vt 0.875000 0.799342
vt 0.875000 0.789474
vt 0.875000 0.786184
vt 0.875000 0.782895
vt 0.875000 0.779605
vt 0.875000 0.776316
vt 0.875000 0.773026
vt 0.875000 0.769737
vt 0.875000 0.766447
vt 0.875000 0.763158
vt 0.875000 0.759868
vt 0.875000 0.756579
vt 0.875000 0.753289
vt 0.875000 0.750000
vt 0.875000 0.746711
vt 0.875000 0.743421
vt 0.875000 0.740132
vt 0.875000 0.736842
vt 0.875000 0.733553
vt 0.875000 0.674342
vt 0.875000 0.677632
vt 0.875000 0.680921
vt 0.875000 0.730263
vt 0.875000 0.684211
vt 0.875000 0.687500
vt 0.875000 0.726974
vt 0.875000 0.690789
vt 0.875000 0.694079
vt 0.875000 0.723684
vt 0.875000 0.697368
vt 0.875000 0.700658
vt 0.875000 0.720395
vt 0.875000 0.703947
vt 0.875000 0.707237
vt 0.875000 0.710526
vt 0.875000 0.717105
vt 0.875000 0.713816
vt 0.875000 0.802632
vt 0.875000 0.805921
vt 0.875000 0.809211
vt 0.875000 0.812500
vt 0.875000 0.815789
vt 0.875000 0.819079
vt 0.875000 0.822368
vt 0.875000 0.825658
vt 0.875000 0.657895
vt 0.875000 0.654605
vt 0.875000 0.828947
vt 0.875000 0.651316
vt 0.875000 0.648026
vt 0.875000 0.832237
vt 0.875000 0.644737
vt 0.875000 0.835526
vt 0.875000 0.641447
vt 0.875000 0.838816
vt 0.875000 0.638158
vt 0.875000 0.631579
vt 0.875000 0.628289
vt 0.875000 0.625000
vt 0.875000 0.621711
vt 0.875000 0.618421
vt 0.875000 0.615132
vt 0.875000 0.595395
vt 0.875000 0.842105
vt 0.875000 0.611842
vt 0.875000 0.598684
vt 0.875000 0.592105
vt 0.875000 0.601974
vt 0.875000 0.608553
vt 0.875000 0.605263
vt 0.875000 0.845395
vt 0.875000 0.634868
vt 0.875000 0.661184
vt 0.875000 0.664474
vt 0.875000 0.667763
vt 0.875000 0.671053
vt 0.875000 0.588816
vt 0.875000 0.848684
vt 0.875000 0.585526
vt 0.875000 0.851974
vt 0.875000 0.582237
vt 0.875000 0.855263
vt 0.875000 0.578947
vt 0.875000 0.858553
vt 0.875000 0.575658
vt 0.875000 0.861842
vt 0.875000 0.572368
vt 0.875000 0.865132
vt 0.875000 0.569079
vt 0.875000 0.868421
vt 0.875000 0.993421
vt 0.875000 0.996711
vt 0.875000 1.000000
vt 0.875000 0.565789
vt 0.875000 0.990132
vt 0.875000 0.157895
vt 0.875000 0.986842
vt 0.875000 0.871711
vt 0.875000 0.983553
vt 0.875000 0.562500
vt 0.875000 0.161184
vt 0.875000 0.980263
vt 0.875000 0.976974
vt 0.875000 0.875000
vt 0.875000 0.559211
vt 0.875000 0.164474
vt 0.875000 0.973684
vt 0.875000 0.970395
vt 0.875000 0.167763
vt 0.875000 0.967105
vt 0.875000 0.878289
vt 0.875000 0.555921
vt 0.875000 0.963816
vt 0.875000 0.960526
vt 0.875000 0.171053
vt 0.875000 0.552632
vt 0.875000 0.957237
vt 0.875000 0.881579
vt 0.875000 0.549342
vt 0.875000 0.884868
vt 0.875000 0.953947
vt 0.875000 0.888158
vt 0.875000 0.546053
vt 0.875000 0.174342
vt 0.875000 0.891447
vt 0.875000 0.950658
vt 0.875000 0.894737
vt 0.875000 0.947368
vt 0.875000 0.542763
vt 0.875000 0.898026
vt 0.875000 0.944079
vt 0.875000 0.177632
vt 0.875000 0.940789
vt 0.875000 0.901316
vt 0.875000 0.539474
vt 0.875000 0.937500
vt 0.875000 0.904605
vt 0.875000 0.180921
vt 0.875000 0.934211
vt 0.875000 0.907895
vt 0.875000 0.930921
vt 0.875000 0.911184
vt 0.875000 0.536184
vt 0.875000 0.154605
vt 0.875000 0.927632
vt 0.875000 0.184211
vt 0.875000 0.924342
vt 0.875000 0.398026
vt 0.875000 0.914474
vt 0.875000 -0.000000
vt 0.875000 0.151316
vt 0.875000 0.401316
vt 0.875000 0.394737
vt 0.875000 0.921053
vt 0.875000 0.391447
vt 0.875000 0.003289
vt 0.875000 0.187500
vt 0.875000 0.917763
vt 0.875000 0.388158
vt 0.875000 0.532895
vt 0.875000 0.006579
vt 0.875000 0.384868
vt 0.875000 0.381579
vt 0.875000 0.190789
vt 0.875000 0.148026
vt 0.875000 0.009868
vt 0.875000 0.404605
vt 0.875000 0.378289
vt 0.875000 0.375000
vt 0.875000 0.013158
vt 0.875000 0.529605
vt 0.875000 0.194079
vt 0.875000 0.144737
vt 0.875000 0.371711
vt 0.875000 0.407895
vt 0.875000 0.016447
vt 0.875000 0.197368
vt 0.875000 0.368421
vt 0.875000 0.200658
vt 0.875000 0.365132
vt 0.875000 0.141447
vt 0.875000 0.526316
vt 0.875000 0.203947
vt 0.875000 0.019737
vt 0.875000 0.207237
vt 0.875000 0.361842
vt 0.875000 0.411184
vt 0.875000 0.210526
vt 0.875000 0.138158
vt 0.875000 0.358553
vt 0.875000 0.023026
vt 0.875000 0.213816
vt 0.875000 0.217105
vt 0.875000 0.523026
vt 0.875000 0.355263
vt 0.875000 0.220395
vt 0.875000 0.414474
vt 0.875000 0.134868
vt 0.875000 0.026316
vt 0.875000 0.223684
vt 0.875000 0.226974
vt 0.875000 0.230263
vt 0.875000 0.351974
vt 0.875000 0.276316
vt 0.875000 0.417763
vt 0.875000 0.233553
vt 0.875000 0.131579
vt 0.875000 0.029605
vt 0.875000 0.519737
vt 0.875000 0.273026
vt 0.875000 0.269737
vt 0.875000 0.266447
vt 0.875000 0.263158
vt 0.875000 0.259868
vt 0.875000 0.256579
vt 0.875000 0.253289
vt 0.875000 0.250000
vt 0.875000 0.246711
vt 0.875000 0.243421
vt 0.875000 0.240132
vt 0.875000 0.236842
vt 0.875000 0.279605
vt 0.875000 0.128289
vt 0.875000 0.032895
vt 0.875000 0.421053
vt 0.875000 0.348684
vt 0.875000 0.125000
vt 0.875000 0.516447
vt 0.875000 0.036184
vt 0.875000 0.282895
vt 0.875000 0.424342
vt 0.875000 0.345395
vt 0.875000 0.121711
vt 0.875000 0.039474
vt 0.875000 0.427632
vt 0.875000 0.118421
vt 0.875000 0.513158
vt 0.875000 0.286184
vt 0.875000 0.042763
vt 0.875000 0.342105
vt 0.875000 0.046053
vt 0.875000 0.115132
vt 0.875000 0.430921
vt 0.875000 0.049342
vt 0.875000 0.509868
vt 0.875000 0.111842
vt 0.875000 0.052632
vt 0.875000 0.289474
vt 0.875000 0.108553
vt 0.875000 0.338816
vt 0.875000 0.055921
vt 0.875000 0.105263
vt 0.875000 0.434211
vt 0.875000 0.506579
vt 0.875000 0.101974
vt 0.875000 0.059211
vt 0.875000 0.098684
vt 0.875000 0.062500
vt 0.875000 0.095395
vt 0.875000 0.065789
vt 0.875000 0.092105
vt 0.875000 0.088816
vt 0.875000 0.437500
vt 0.875000 0.069079
vt 0.875000 0.335526
vt 0.875000 0.085526
vt 0.875000 0.072368
vt 0.875000 0.082237
vt 0.875000 0.292763
vt 0.875000 0.503289
vt 0.875000 0.078947
vt 0.875000 0.075658
vt 0.875000 0.440789
vt 0.875000 0.500000
vt 0.875000 0.332237
vt 0.875000 0.444079
vt 0.875000 0.296053
vt 0.875000 0.496711
vt 0.875000 0.447368
vt 0.875000 0.493421
vt 0.875000 0.450658
vt 0.875000 0.328947
vt 0.875000 0.299342
vt 0.875000 0.453947
vt 0.875000 0.490132
vt 0.875000 0.457237
vt 0.875000 0.486842
vt 0.875000 0.460526
vt 0.875000 0.325658
vt 0.875000 0.463816
vt 0.875000 0.483553
vt 0.875000 0.467105
vt 0.875000 0.302632
vt 0.875000 0.480263
vt 0.875000 0.470395
vt 0.875000 0.473684
vt 0.875000 0.476974
vt 0.875000 0.322368
vt 0.875000 0.305921
vt 0.875000 0.319079
vt 0.875000 0.309211
vt 0.875000 0.315789
vt 0.875000 0.312500
vt 0.324467 0.239771
vt 0.194352 0.369885
vt 0.194352 0.239771
vt 0.324467 0.369885
vt 0.194352 0.500000
vt 0.324467 0.500000
vt 0.194352 0.630115
vt 0.324467 0.630115
vt 0.194352 0.760229
vt 0.064237 0.630115
vt 0.064237 0.500000
vt 0.454582 0.500000
vt 0.324467 0.760229
vt 0.454582 0.630115
s 1
usemtl マテリアル
f 64/1/1 63/2/2 62/3/3
f 65/4/4 64/1/1 62/3/3
f 66/5/5 65/4/4 62/3/3
f 67/6/6 66/5/5 62/3/3
f 68/7/7 67/6/6 62/3/3
f 69/8/8 68/7/7 62/3/3
f 70/9/9 69/8/8 62/3/3
f 71/10/10 70/9/9 62/3/3
f 72/11/11 71/10/10 62/3/3
f 73/12/12 72/11/11 62/3/3
f 74/13/13 73/12/12 62/3/3
f 75/14/14 74/13/13 62/3/3
f 76/15/15 75/14/14 62/3/3
f 77/16/16 76/15/15 62/3/3
f 78/17/17 77/16/16 62/3/3
f 79/18/18 78/17/17 62/3/3
f 80/19/19 79/18/18 62/3/3
f 81/20/20 80/19/19 62/3/3
f 82/21/21 81/20/20 62/3/3
f 100/22/22 99/23/23 98/24/24
f 83/25/25 82/21/21 62/3/3
f 100/22/22 98/24/24 97/26/26
f 100/22/22 97/26/26 96/27/27
f 84/28/28 83/25/25 62/3/3
f 100/22/22 96/27/27 95/29/29
f 100/22/22 95/29/29 94/30/30
f 85/31/31 84/28/28 62/3/3
f 100/22/22 94/30/30 93/32/32
f 100/22/22 93/32/32 92/33/33
f 86/34/34 85/31/31 62/3/3
f 100/22/22 92/33/33 91/35/35
f 100/22/22 91/35/35 90/36/36
f 100/22/22 90/36/36 89/37/37
f 87/38/38 86/34/34 62/3/3
f 100/22/22 89/37/37 88/39/39
f 100/22/22 88/39/39 87/38/38
f 100/22/22 87/38/38 62/3/3
f 100/22/22 62/3/3 61/40/40
f 100/22/22 61/40/40 60/41/41
f 100/22/22 60/41/41 59/42/42
f 100/22/22 59/42/42 58/43/43
f 100/22/22 58/43/43 57/44/44
f 100/22/22 57/44/44 56/45/45
f 100/22/22 56/45/45 55/46/46
f 100/22/22 55/46/46 54/47/47
f 100/22/22 54/47/47 105/48/48
f 105/48/48 54/47/47 106/49/49
f 106/49/49 54/47/47 53/50/50
f 106/49/49 53/50/50 107/51/51
f 107/51/51 53/50/50 108/52/52
f 108/52/52 53/50/50 52/53/53
f 108/52/52 52/53/53 109/54/54
f 109/54/54 52/53/53 51/55/55
f 109/54/54 51/55/55 110/56/56
f 110/56/56 51/55/55 50/57/57
f 110/56/56 50/57/57 111/58/58
f 111/58/58 50/57/57 113/59/59
f 113/59/59 50/57/57 114/60/60
f 114/60/60 50/57/57 115/61/61
f 115/61/61 50/57/57 116/62/62
f 116/62/62 50/57/57 117/63/63
f 117/63/63 50/57/57 118/64/64
f 118/64/64 50/57/57 124/65/65
f 124/65/65 50/57/57 49/66/66
f 118/64/64 124/65/65 119/67/67
f 119/67/67 124/65/65 123/68/68
f 125/69/69 124/65/65 49/66/66
f 119/67/67 123/68/68 122/70/70
f 119/67/67 122/70/70 120/71/71
f 120/71/71 122/70/70 121/72/72
f 125/69/69 49/66/66 48/73/73
f 111/58/58 113/59/59 112/74/74
f 100/22/22 105/48/48 104/75/75
f 100/22/22 104/75/75 103/76/76
f 100/22/22 103/76/76 102/77/77
f 100/22/22 102/77/77 101/78/78
f 126/79/79 125/69/69 48/73/73
f 126/79/79 48/73/73 47/80/80
f 127/81/81 126/79/79 47/80/80
f 127/81/81 47/80/80 46/82/82
f 128/83/83 127/81/81 46/82/82
f 128/83/83 46/82/82 45/84/84
f 129/85/85 128/83/83 45/84/84
f 129/85/85 45/84/84 44/86/86
f 130/87/87 129/85/85 44/86/86
f 130/87/87 44/86/86 43/88/88
f 131/89/89 130/87/87 43/88/88
f 131/89/89 43/88/88 42/90/90
f 132/91/91 131/89/89 42/90/90
f 132/91/91 42/90/90 41/92/92
f 3/93/93 2/94/94 1/95/95
f 133/96/96 132/91/91 41/92/92
f 4/97/97 3/93/93 1/95/95
f 4/97/97 1/95/95 257/98/98
f 5/99/99 4/97/97 257/98/98
f 133/96/96 41/92/92 40/100/100
f 6/101/101 5/99/99 257/98/98
f 134/102/102 133/96/96 40/100/100
f 6/101/101 257/98/98 256/103/103
f 7/104/104 6/101/101 256/103/103
f 8/105/105 7/104/104 256/103/103
f 134/102/102 40/100/100 39/106/106
f 135/107/107 134/102/102 39/106/106
f 8/105/105 256/103/103 255/108/108
f 9/109/109 8/105/105 255/108/108
f 10/110/110 9/109/109 255/108/108
f 10/110/110 255/108/108 254/111/111
f 11/112/112 10/110/110 254/111/111
f 135/107/107 39/106/106 38/113/113
f 136/114/114 135/107/107 38/113/113
f 12/115/115 11/112/112 254/111/111
f 13/116/116 12/115/115 254/111/111
f 13/116/116 254/111/111 253/117/117
f 137/118/118 136/114/114 38/113/113
f 14/119/119 13/116/116 253/117/117
f 137/118/118 38/113/113 37/120/120
f 138/121/121 137/118/118 37/120/120
f 138/121/121 37/120/120 36/122/122
f 15/123/123 14/119/119 253/117/117
f 138/121/121 36/122/122 35/124/124
f 139/125/125 138/121/121 35/124/124
f 15/123/123 253/117/117 252/126/126
f 139/125/125 35/124/124 34/127/127
f 16/128/128 15/123/123 252/126/126
f 139/125/125 34/127/127 33/129/129
f 17/130/130 16/128/128 252/126/126
f 140/131/131 139/125/125 33/129/129
f 140/131/131 33/129/129 32/132/132
f 18/133/133 17/130/130 252/126/126
f 18/133/133 252/126/126 251/134/134
f 19/135/135 18/133/133 251/134/134
f 140/131/131 32/132/132 31/136/136
f 141/137/137 140/131/131 31/136/136
f 20/138/138 19/135/135 251/134/134
f 141/137/137 31/136/136 30/139/139
f 20/138/138 251/134/134 250/140/140
f 21/141/141 20/138/138 250/140/140
f 141/137/137 30/139/139 29/142/142
f 22/143/143 21/141/141 250/140/140
f 141/137/137 29/142/142 28/144/144
f 142/145/145 141/137/137 258/146/146
f 258/146/146 141/137/137 28/144/144
f 23/147/147 22/143/143 250/140/140
f 23/147/147 250/140/140 249/148/148
f 24/149/149 23/147/147 249/148/148
f 258/146/146 28/144/144 184/150/150
f 184/150/150 28/144/144 27/151/151
f 142/145/145 258/146/146 305/152/152
f 259/153/153 258/146/146 184/150/150
f 259/153/153 184/150/150 183/154/154
f 185/155/155 184/150/150 27/151/151
f 25/156/156 24/149/149 249/148/148
f 186/157/157 185/155/155 27/151/151
f 142/145/145 305/152/152 304/158/158
f 25/156/156 249/148/148 248/159/159
f 186/157/157 27/151/151 26/160/160
f 26/160/160 25/156/156 248/159/159
f 187/161/161 186/157/157 26/160/160
f 143/162/162 142/145/145 304/158/158
f 143/162/162 304/158/158 303/163/163
f 188/164/164 187/161/161 26/160/160
f 188/164/164 26/160/160 248/159/159
f 189/165/165 188/164/164 248/159/159
f 189/165/165 248/159/159 247/166/166
f 260/167/167 259/153/153 183/154/154
f 143/162/162 303/163/163 302/168/168
f 260/167/167 183/154/154 182/169/169
f 190/170/170 189/165/165 247/166/166
f 191/171/171 190/170/170 247/166/166
f 143/162/162 302/168/168 301/172/172
f 144/173/173 143/162/162 301/172/172
f 191/171/171 247/166/166 246/174/174
f 261/175/175 260/167/167 182/169/169
f 192/176/176 191/171/171 246/174/174
f 261/175/175 182/169/169 181/177/177
f 144/173/173 301/172/172 300/178/178
f 192/176/176 246/174/174 245/179/179
f 193/180/180 192/176/176 245/179/179
f 193/180/180 245/179/179 244/181/181
f 194/182/182 193/180/180 244/181/181
f 262/183/183 261/175/175 181/177/177
f 145/184/184 144/173/173 300/178/178
f 194/182/182 244/181/181 243/185/185
f 145/184/184 300/178/178 299/186/186
f 194/182/182 243/185/185 242/187/187
f 195/188/188 194/182/182 242/187/187
f 262/183/183 181/177/177 180/189/189
f 195/188/188 242/187/187 241/190/190
f 263/191/191 262/183/183 180/189/189
f 196/192/192 195/188/188 241/190/190
f 145/184/184 299/186/186 298/193/193
f 196/192/192 241/190/190 240/194/194
f 196/192/192 240/194/194 239/195/195
f 146/196/196 145/184/184 298/193/193
f 197/197/197 196/192/192 239/195/195
f 197/197/197 239/195/195 238/198/198
f 263/191/191 180/189/189 179/199/199
f 264/200/200 263/191/191 179/199/199
f 146/196/196 298/193/193 297/201/201
f 197/197/197 238/198/198 237/202/202
f 197/197/197 237/202/202 236/203/203
f 197/197/197 236/203/203 235/204/204
f 198/205/205 197/197/197 221/206/206
f 221/206/206 197/197/197 235/204/204
f 264/200/200 179/199/199 178/207/207
f 221/206/206 235/204/204 234/208/208
f 265/209/209 264/200/200 178/207/207
f 146/196/196 297/201/201 296/210/210
f 147/211/211 146/196/196 296/210/210
f 221/206/206 234/208/208 222/212/212
f 222/212/212 234/208/208 223/213/213
f 223/213/213 234/208/208 224/214/214
f 224/214/214 234/208/208 225/215/215
f 225/215/215 234/208/208 226/216/216
f 226/216/216 234/208/208 227/217/217
f 227/217/217 234/208/208 228/218/218
f 228/218/218 234/208/208 229/219/219
f 229/219/219 234/208/208 230/220/220
f 230/220/220 234/208/208 231/221/221
f 231/221/221 234/208/208 232/222/222
f 232/222/222 234/208/208 233/223/223
f 198/205/205 221/206/206 220/224/224
f 266/225/225 265/209/209 178/207/207
f 147/211/211 296/210/210 295/226/226
f 266/225/225 178/207/207 177/227/227
f 199/228/228 198/205/205 220/224/224
f 267/229/229 266/225/225 177/227/227
f 148/230/230 147/211/211 295/226/226
f 148/230/230 295/226/226 294/231/231
f 199/228/228 220/224/224 219/232/232
f 267/229/229 177/227/227 176/233/233
f 200/234/234 199/228/228 219/232/232
f 268/235/235 267/229/229 176/233/233
f 148/230/230 294/231/231 293/236/236
f 268/235/235 176/233/233 175/237/237
f 269/238/238 268/235/235 175/237/237
f 149/239/239 148/230/230 293/236/236
f 200/234/234 219/232/232 218/240/240
f 149/239/239 293/236/236 292/241/241
f 201/242/242 200/234/234 218/240/240
f 149/239/239 292/241/241 291/243/243
f 270/244/244 269/238/238 175/237/237
f 270/244/244 175/237/237 174/245/245
f 149/239/239 291/243/243 290/246/246
f 150/247/247 149/239/239 290/246/246
f 271/248/248 270/244/244 174/245/245
f 150/247/247 290/246/246 289/249/249
f 201/242/242 218/240/240 217/250/250
f 272/251/251 271/248/248 174/245/245
f 202/252/252 201/242/242 217/250/250
f 150/247/247 289/249/249 288/253/253
f 273/254/254 272/251/251 174/245/245
f 273/254/254 174/245/245 173/255/255
f 151/256/256 150/247/247 288/253/253
f 274/257/257 273/254/254 173/255/255
f 151/256/256 288/253/253 287/258/258
f 275/259/259 274/257/257 173/255/255
f 151/256/256 287/258/258 286/260/260
f 276/261/261 275/259/259 173/255/255
f 151/256/256 286/260/260 285/262/262
f 277/263/263 276/261/261 173/255/255
f 278/264/264 277/263/263 173/255/255
f 278/264/264 173/255/255 172/265/265
f 151/256/256 285/262/262 284/266/266
f 203/267/267 202/252/252 217/250/250
f 279/268/268 278/264/264 172/265/265
f 151/256/256 284/266/266 283/269/269
f 280/270/270 279/268/268 172/265/265
f 203/267/267 217/250/250 216/271/271
f 152/272/272 151/256/256 283/269/269
f 281/273/273 280/270/270 172/265/265
f 152/272/272 283/269/269 282/274/274
f 282/274/274 281/273/273 172/265/265
f 152/272/272 282/274/274 172/265/265
f 152/272/272 172/265/265 171/275/275
f 153/276/276 152/272/272 171/275/275
f 204/277/277 203/267/267 216/271/271
f 153/276/276 171/275/275 170/278/278
f 204/277/277 216/271/271 215/279/279
f 154/280/280 153/276/276 170/278/278
f 154/280/280 170/278/278 169/281/281
f 155/282/282 154/280/280 169/281/281
f 155/282/282 169/281/281 168/283/283
f 205/284/284 204/277/277 215/279/279
f 205/284/284 215/279/279 214/285/285
f 155/282/282 168/283/283 167/286/286
f 156/287/287 155/282/282 167/286/286
f 156/287/287 167/286/286 166/288/288
f 157/289/289 156/287/287 166/288/288
f 157/289/289 166/288/288 165/290/290
f 206/291/291 205/284/284 214/285/285
f 157/289/289 165/290/290 164/292/292
f 158/293/293 157/289/289 164/292/292
f 158/293/293 164/292/292 163/294/294
f 206/291/291 214/285/285 213/295/295
f 159/296/296 158/293/293 163/294/294
f 159/296/296 163/294/294 162/297/297
f 159/296/296 162/297/297 161/298/298
f 160/299/299 159/296/296 161/298/298
f 207/300/300 206/291/291 213/295/295
f 207/300/300 213/295/295 212/301/301
f 208/302/302 207/300/300 212/301/301
f 208/302/302 212/301/301 211/303/303
f 209/304/304 208/302/302 211/303/303
f 209/304/304 211/303/303 210/305/305
f 306/1/306 307/3/307 308/2/308
f 309/4/309 307/3/307 306/1/306
f 310/5/310 307/3/307 309/4/309
f 311/6/311 307/3/307 310/5/310
f 312/7/312 307/3/307 311/6/311
f 313/8/313 307/3/307 312/7/312
f 314/9/314 307/3/307 313/8/313
f 315/10/315 307/3/307 314/9/314
f 316/11/316 307/3/307 315/10/315
f 317/12/317 307/3/307 316/11/316
f 318/13/318 307/3/307 317/12/317
f 319/14/319 307/3/307 318/13/318
f 320/15/320 307/3/307 319/14/319
f 321/16/321 307/3/307 320/15/320
f 322/17/322 307/3/307 321/16/321
f 323/18/323 307/3/307 322/17/322
f 324/19/324 307/3/307 323/18/323
f 325/20/325 307/3/307 324/19/324
f 326/21/326 307/3/307 325/20/325
f 327/22/327 328/24/328 329/23/329
f 330/25/330 307/3/307 326/21/326
f 327/22/327 331/26/331 328/24/328
f 327/22/327 332/27/332 331/26/331
f 333/28/333 307/3/307 330/25/330
f 327/22/327 334/29/334 332/27/332
f 327/22/327 335/30/335 334/29/334
f 336/31/336 307/3/307 333/28/333
f 327/22/327 337/32/337 335/30/335
f 327/22/327 338/33/338 337/32/337
f 339/34/339 307/3/307 336/31/336
f 327/22/327 340/35/340 338/33/338
f 327/22/327 341/36/341 340/35/340
f 327/22/327 342/37/342 341/36/341
f 343/38/343 307/3/307 339/34/339
f 327/22/327 344/39/344 342/37/342
f 327/22/327 343/38/343 344/39/344
f 327/22/327 307/3/307 343/38/343
f 327/22/327 345/40/345 307/3/307
f 327/22/327 346/41/346 345/40/345
f 327/22/327 347/42/347 346/41/346
f 327/22/327 348/43/348 347/42/347
f 327/22/327 349/44/349 348/43/348
f 327/22/327 350/45/350 349/44/349
f 327/22/327 351/46/351 350/45/350
f 327/22/327 352/47/352 351/46/351
f 327/22/327 353/48/353 352/47/352
f 353/48/353 354/49/354 352/47/352
f 354/49/354 355/50/355 352/47/352
f 354/49/354 356/51/356 355/50/355
f 356/51/356 357/52/357 355/50/355
f 357/52/357 358/53/358 355/50/355
f 357/52/357 359/54/359 358/53/358
f 359/54/359 360/55/360 358/53/358
f 359/54/359 361/56/361 360/55/360
f 361/56/361 362/57/362 360/55/360
f 361/56/361 363/58/363 362/57/362
f 363/58/363 364/59/364 362/57/362
f 364/59/364 365/60/365 362/57/362
f 365/60/365 366/61/366 362/57/362
f 366/61/366 367/62/367 362/57/362
f 367/62/367 368/63/368 362/57/362
f 368/63/368 369/64/369 362/57/362
f 369/64/369 370/65/370 362/57/362
f 370/65/370 371/66/371 362/57/362
f 369/64/369 372/67/372 370/65/370
f 372/67/372 373/68/373 370/65/370
f 374/69/374 371/66/371 370/65/370
f 372/67/372 375/70/375 373/68/373
f 372/67/372 376/71/376 375/70/375
f 376/71/376 377/72/377 375/70/375
f 374/69/374 378/73/378 371/66/371
f 363/58/363 379/74/379 364/59/364
f 327/22/327 380/75/380 353/48/353
f 327/22/327 381/76/381 380/75/380
f 327/22/327 382/77/382 381/76/381
f 327/22/327 383/78/383 382/77/382
f 384/79/384 378/73/378 374/69/374
f 384/79/384 385/80/385 378/73/378
f 386/81/386 385/80/385 384/79/384
f 386/81/386 387/82/387 385/80/385
f 388/83/388 387/82/387 386/81/386
f 388/83/388 389/84/389 387/82/387
f 390/85/390 389/84/389 388/83/388
f 390/85/390 391/86/391 389/84/389
f 392/87/392 391/86/391 390/85/390
f 392/87/392 393/88/393 391/86/391
f 394/89/394 393/88/393 392/87/392
f 394/89/394 395/90/395 393/88/393
f 396/91/396 395/90/395 394/89/394
f 396/91/396 397/92/397 395/90/395
f 398/93/398 399/95/399 400/94/400
f 401/96/401 397/92/397 396/91/396
f 402/97/402 399/95/399 398/93/398
f 402/97/402 403/98/403 399/95/399
f 404/99/404 403/98/403 402/97/402
f 401/96/401 405/100/405 397/92/397
f 406/101/406 403/98/403 404/99/404
f 407/102/407 405/100/405 401/96/401
f 406/101/406 408/103/408 403/98/403
f 409/104/409 408/103/408 406/101/406
f 410/105/410 408/103/408 409/104/409
f 407/102/407 411/106/411 405/100/405
f 412/107/412 411/106/411 407/102/407
f 410/105/410 413/108/413 408/103/408
f 414/109/414 413/108/413 410/105/410
f 415/110/415 413/108/413 414/109/414
f 415/110/415 416/111/416 413/108/413
f 417/112/417 416/111/416 415/110/415
f 412/107/412 418/113/418 411/106/411
f 419/114/419 418/113/418 412/107/412
f 420/115/420 416/111/416 417/112/417
f 421/116/421 416/111/416 420/115/420
f 421/116/421 422/117/422 416/111/416
f 423/118/423 418/113/418 419/114/419
f 424/119/424 422/117/422 421/116/421
f 423/118/423 425/120/425 418/113/418
f 426/121/426 425/120/425 423/118/423
f 426/121/426 427/122/427 425/120/425
f 428/123/428 422/117/422 424/119/424
f 426/121/426 429/124/429 427/122/427
f 430/125/430 429/124/429 426/121/426
f 428/123/428 431/126/431 422/117/422
f 430/125/430 432/127/432 429/124/429
f 433/128/433 431/126/431 428/123/428
f 430/125/430 434/129/434 432/127/432
f 435/130/435 431/126/431 433/128/433
f 436/131/436 434/129/434 430/125/430
f 436/131/436 437/132/437 434/129/434
f 438/133/438 431/126/431 435/130/435
f 438/133/438 439/134/439 431/126/431
f 440/135/440 439/134/439 438/133/438
f 436/131/436 441/136/441 437/132/437
f 442/137/442 441/136/441 436/131/436
f 443/138/443 439/134/439 440/135/440
f 442/137/442 444/139/444 441/136/441
f 443/138/443 445/140/445 439/134/439
f 446/141/446 445/140/445 443/138/443
f 442/137/442 447/142/447 444/139/444
f 448/143/448 445/140/445 446/141/446
f 442/137/442 449/144/449 447/142/447
f 450/145/450 451/146/451 442/137/442
f 451/146/451 449/144/449 442/137/442
f 452/147/452 445/140/445 448/143/448
f 452/147/452 453/148/453 445/140/445
f 454/149/454 453/148/453 452/147/452
f 451/146/451 455/150/455 449/144/449
f 455/150/455 456/151/456 449/144/449
f 450/145/450 457/152/457 451/146/451
f 458/153/458 455/150/455 451/146/451
f 458/153/458 459/154/459 455/150/455
f 460/155/460 456/151/456 455/150/455
f 461/156/461 453/148/453 454/149/454
f 462/157/462 456/151/456 460/155/460
f 450/145/450 463/158/463 457/152/457
f 461/156/461 464/159/464 453/148/453
f 462/157/462 465/160/465 456/151/456
f 465/160/465 464/159/464 461/156/461
f 466/161/466 465/160/465 462/157/462
f 467/162/467 463/158/463 450/145/450
f 467/162/467 468/163/468 463/158/463
f 469/164/469 465/160/465 466/161/466
f 469/164/469 464/159/464 465/160/465
f 470/165/470 464/159/464 469/164/469
f 470/165/470 471/166/471 464/159/464
f 472/167/472 459/154/459 458/153/458
f 467/162/467 473/168/473 468/163/468
f 472/167/472 474/169/474 459/154/459
f 475/170/475 471/166/471 470/165/470
f 476/171/476 471/166/471 475/170/475
f 467/162/467 477/172/477 473/168/473
f 478/173/478 477/172/477 467/162/467
f 476/171/476 479/174/479 471/166/471
f 480/175/480 474/169/474 472/167/472
f 481/176/481 479/174/479 476/171/476
f 480/175/480 482/177/482 474/169/474
f 478/173/478 483/178/483 477/172/477
f 481/176/481 484/179/484 479/174/479
f 485/180/485 484/179/484 481/176/481
f 485/180/485 486/181/486 484/179/484
f 487/182/487 486/181/486 485/180/485
f 488/183/488 482/177/482 480/175/480
f 489/184/489 483/178/483 478/173/478
f 487/182/487 490/185/490 486/181/486
f 489/184/489 491/186/491 483/178/483
f 487/182/487 492/187/492 490/185/490
f 493/188/493 492/187/492 487/182/487
f 488/183/488 494/189/494 482/177/482
f 493/188/493 495/190/495 492/187/492
f 496/191/496 494/189/494 488/183/488
f 497/192/497 495/190/495 493/188/493
f 489/184/489 498/193/498 491/186/491
f 497/192/497 499/194/499 495/190/495
f 497/192/497 500/195/500 499/194/499
f 501/196/501 498/193/498 489/184/489
f 502/197/502 500/195/500 497/192/497
f 502/197/502 503/198/503 500/195/500
f 496/191/496 504/199/504 494/189/494
f 505/200/505 504/199/504 496/191/496
f 501/196/501 506/201/506 498/193/498
f 502/197/502 507/202/507 503/198/503
f 502/197/502 508/203/508 507/202/507
f 502/197/502 509/204/509 508/203/508
f 510/205/510 511/206/511 502/197/502
f 511/206/511 509/204/509 502/197/502
f 505/200/505 512/207/512 504/199/504
f 511/206/511 513/208/513 509/204/509
f 514/209/514 512/207/512 505/200/505
f 501/196/501 515/210/515 506/201/506
f 516/211/516 515/210/515 501/196/501
f 511/206/511 517/212/517 513/208/513
f 517/212/517 518/213/518 513/208/513
f 518/213/518 519/214/519 513/208/513
f 519/214/519 520/215/520 513/208/513
f 520/215/520 521/216/521 513/208/513
f 521/216/521 522/217/522 513/208/513
f 522/217/522 523/218/523 513/208/513
f 523/218/523 524/219/524 513/208/513
f 524/219/524 525/220/525 513/208/513
f 525/220/525 526/221/526 513/208/513
f 526/221/526 527/222/527 513/208/513
f 527/222/527 528/223/528 513/208/513
f 510/205/510 529/224/529 511/206/511
f 530/225/530 512/207/512 514/209/514
f 516/211/516 531/226/531 515/210/515
f 530/225/530 532/227/532 512/207/512
f 533/228/533 529/224/529 510/205/510
f 534/229/534 532/227/532 530/225/530
f 535/230/535 531/226/531 516/211/516
f 535/230/535 536/231/536 531/226/531
f 533/228/533 537/232/537 529/224/529
f 534/229/534 538/233/538 532/227/532
f 539/234/539 537/232/537 533/228/533
f 540/235/540 538/233/538 534/229/534
f 535/230/535 541/236/541 536/231/536
f 540/235/540 542/237/542 538/233/538
f 543/238/543 542/237/542 540/235/540
f 544/239/544 541/236/541 535/230/535
f 539/234/539 545/240/545 537/232/537
f 544/239/544 546/241/546 541/236/541
f 547/242/547 545/240/545 539/234/539
f 544/239/544 548/243/548 546/241/546
f 549/244/549 542/237/542 543/238/543
f 549/244/549 550/245/550 542/237/542
f 544/239/544 551/246/551 548/243/548
f 552/247/552 551/246/551 544/239/544
f 553/248/553 550/245/550 549/244/549
f 552/247/552 554/249/554 551/246/551
f 547/242/547 555/250/555 545/240/545
f 556/251/556 550/245/550 553/248/553
f 557/252/557 555/250/555 547/242/547
f 552/247/552 558/253/558 554/249/554
f 559/254/559 550/245/550 556/251/556
f 559/254/559 560/255/560 550/245/550
f 561/256/561 558/253/558 552/247/552
f 562/257/562 560/255/560 559/254/559
f 561/256/561 563/258/563 558/253/558
f 564/259/564 560/255/560 562/257/562
f 561/256/561 565/260/565 563/258/563
f 566/261/566 560/255/560 564/259/564
f 561/256/561 567/262/567 565/260/565
f 568/263/568 560/255/560 566/261/566
f 569/264/569 560/255/560 568/263/568
f 569/264/569 570/265/570 560/255/560
f 561/256/561 571/266/571 567/262/567
f 572/267/572 555/250/555 557/252/557
f 573/268/573 570/265/570 569/264/569
f 561/256/561 574/269/574 571/266/571
f 575/270/575 570/265/570 573/268/573
f 572/267/572 576/271/576 555/250/555
f 577/272/577 574/269/574 561/256/561
f 578/273/578 570/265/570 575/270/575
f 577/272/577 579/274/579 574/269/574
f 579/274/579 570/265/570 578/273/578
f 577/272/577 570/265/570 579/274/579
f 577/272/577 580/275/580 570/265/570
f 581/276/581 580/275/580 577/272/577
f 582/277/582 576/271/576 572/267/572
f 581/276/581 583/278/583 580/275/580
f 582/277/582 584/279/584 576/271/576
f 585/280/585 583/278/583 581/276/581
f 585/280/585 586/281/586 583/278/583
f 587/282/587 586/281/586 585/280/585
f 587/282/587 588/283/588 586/281/586
f 589/284/589 584/279/584 582/277/582
f 589/284/589 590/285/590 584/279/584
f 587/282/587 591/286/591 588/283/588
f 592/287/592 591/286/591 587/282/587
f 592/287/592 593/288/593 591/286/591
f 594/289/594 593/288/593 592/287/592
f 594/289/594 595/290/595 593/288/593
f 596/291/596 590/285/590 589/284/589
f 594/289/594 597/292/597 595/290/595
f 598/293/598 597/292/597 594/289/594
f 598/293/598 599/294/599 597/292/597
f 596/291/596 600/295/600 590/285/590
f 601/296/601 599/294/599 598/293/598
f 601/296/601 602/297/602 599/294/599
f 601/296/601 603/298/603 602/297/602
f 604/299/604 603/298/603 601/296/601
f 605/300/605 600/295/600 596/291/596
f 605/300/605 606/301/606 600/295/600
f 607/302/607 606/301/606 605/300/605
f 607/302/607 608/303/608 606/301/606
f 609/304/609 608/303/608 607/302/607
f 609/304/609 610/305/610 608/303/608
f 56/45/45 351/46/351 55/46/46
f 55/46/46 352/47/352 54/47/47
f 106/49/49 353/48/353 105/48/48
f 54/47/47 355/50/355 53/50/50
f 107/51/51 354/49/354 106/49/49
f 108/52/52 356/51/356 107/51/51
f 53/50/50 358/53/358 52/53/53
f 109/54/54 357/52/357 108/52/52
f 52/53/53 360/55/360 51/55/55
f 110/56/56 359/54/359 109/54/54
f 51/55/55 362/57/362 50/57/57
f 111/58/58 361/56/361 110/56/56
f 114/60/60 364/59/364 113/59/59
f 115/61/61 365/60/365 114/60/60
f 116/62/62 366/61/366 115/61/61
f 117/63/63 367/62/367 116/62/62
f 118/64/64 368/63/368 117/63/63
f 49/66/66 362/57/362 371/66/371
f 119/67/67 369/64/369 118/64/64
f 124/65/65 373/68/373 123/68/68
f 124/65/65 374/69/374 370/65/370
f 123/68/68 375/70/375 122/70/70
f 120/71/71 372/67/372 119/67/67
f 121/72/72 376/71/376 120/71/71
f 122/70/70 377/72/377 121/72/72
f 49/66/66 378/73/378 48/73/73
f 112/74/74 363/58/363 111/58/58
f 113/59/59 379/74/379 112/74/74
f 105/48/48 380/75/380 104/75/75
f 104/75/75 381/76/381 103/76/76
f 103/76/76 382/77/382 102/77/77
f 101/78/78 327/22/327 100/22/22
f 101/78/78 382/77/382 383/78/383
f 125/69/69 384/79/384 374/69/374
f 48/73/73 385/80/385 47/80/80
f 126/79/79 386/81/386 384/79/384
f 47/80/80 387/82/387 46/82/82
f 128/83/83 386/81/386 127/81/81
f 46/82/82 389/84/389 45/84/84
f 128/83/83 390/85/390 388/83/388
f 45/84/84 391/86/391 44/86/86
f 129/85/85 392/87/392 390/85/390
f 44/86/86 393/88/393 43/88/88
f 131/89/89 392/87/392 130/87/87
f 43/88/88 395/90/395 42/90/90
f 131/89/89 396/91/396 394/89/394
f 42/90/90 397/92/397 41/92/92
f 2/94/94 399/95/399 1/95/95
f 2/94/94 398/93/398 400/94/400
f 132/91/91 401/96/401 396/91/396
f 4/97/97 398/93/398 3/93/93
f 1/95/95 403/98/403 257/98/98
f 4/97/97 404/99/404 402/97/402
f 41/92/92 405/100/405 40/100/100
f 5/99/99 406/101/406 404/99/404
f 134/102/102 401/96/401 133/96/96
f 257/98/98 408/103/408 256/103/103
f 6/101/101 409/104/409 406/101/406
f 8/105/105 409/104/409 7/104/104
f 39/106/106 405/100/405 411/106/411
f 134/102/102 412/107/412 407/102/407
f 256/103/103 413/108/413 255/108/108
f 8/105/105 414/109/414 410/105/410
f 10/110/110 414/109/414 9/109/109
f 255/108/108 416/111/416 254/111/111
f 10/110/110 417/112/417 415/110/415
f 39/106/106 418/113/418 38/113/113
f 135/107/107 419/114/419 412/107/412
f 12/115/115 417/112/417 11/112/112
f 12/115/115 421/116/421 420/115/420
f 254/111/111 422/117/422 253/117/117
f 136/114/114 423/118/423 419/114/419
f 13/116/116 424/119/424 421/116/421
f 38/113/113 425/120/425 37/120/120
f 138/121/121 423/118/423 137/118/118
f 37/120/120 427/122/427 36/122/122
f 15/123/123 424/119/424 14/119/119
f 36/122/122 429/124/429 35/124/124
f 139/125/125 426/121/426 138/121/121
f 253/117/117 431/126/431 252/126/126
f 34/127/127 429/124/429 432/127/432
f 16/128/128 428/123/428 15/123/123
f 34/127/127 434/129/434 33/129/129
f 17/130/130 433/128/433 16/128/128
f 139/125/125 436/131/436 430/125/430
f 32/132/132 434/129/434 437/132/437
f 18/133/133 435/130/435 17/130/130
f 252/126/126 439/134/439 251/134/134
f 18/133/133 440/135/440 438/133/438
f 32/132/132 441/136/441 31/136/136
f 140/131/131 442/137/442 436/131/436
f 19/135/135 443/138/443 440/135/440
f 31/136/136 444/139/444 30/139/139
f 251/134/134 445/140/445 250/140/140
f 21/141/141 443/138/443 20/138/138
f 30/139/139 447/142/447 29/142/142
f 21/141/141 448/143/448 446/141/446
f 29/142/142 449/144/449 28/144/144
f 142/145/145 442/137/442 141/137/137
f 23/147/147 448/143/448 22/143/143
f 250/140/140 453/148/453 249/148/148
f 24/149/149 452/147/452 23/147/147
f 28/144/144 456/151/456 27/151/151
f 258/146/146 457/152/457 305/152/152
f 259/153/153 451/146/451 258/146/146
f 184/150/150 459/154/459 183/154/154
f 184/150/150 460/155/460 455/150/455
f 24/149/149 461/156/461 454/149/454
f 185/155/155 462/157/462 460/155/460
f 304/158/158 457/152/457 463/158/463
f 248/159/159 453/148/453 464/159/464
f 26/160/160 456/151/456 465/160/465
f 26/160/160 461/156/461 25/156/156
f 187/161/161 462/157/462 186/157/157
f 142/145/145 467/162/467 450/145/450
f 304/158/158 468/163/468 303/163/163
f 187/161/161 469/164/469 466/161/466
f 189/165/165 469/164/469 188/164/164
f 248/159/159 471/166/471 247/166/166
f 260/167/167 458/153/458 259/153/153
f 303/163/163 473/168/473 302/168/168
f 183/154/154 474/169/474 182/169/169
f 190/170/170 470/165/470 189/165/165
f 190/170/170 476/171/476 475/170/475
f 302/168/168 477/172/477 301/172/172
f 143/162/162 478/173/478 467/162/467
f 247/166/166 479/174/479 246/174/174
f 260/167/167 480/175/480 472/167/472
f 191/171/171 481/176/481 476/171/476
f 182/169/169 482/177/482 181/177/177
f 301/172/172 483/178/483 300/178/178
f 246/174/174 484/179/484 245/179/179
f 192/176/176 485/180/485 481/176/481
f 245/179/179 486/181/486 244/181/181
f 194/182/182 485/180/485 193/180/180
f 262/183/183 480/175/480 261/175/175
f 145/184/184 478/173/478 144/173/173
f 244/181/181 490/185/490 243/185/185
f 300/178/178 491/186/491 299/186/186
f 242/187/187 490/185/490 492/187/492
f 194/182/182 493/188/493 487/182/487
f 181/177/177 494/189/494 180/189/189
f 242/187/187 495/190/495 241/190/190
f 262/183/183 496/191/496 488/183/488
f 196/192/192 493/188/493 195/188/188
f 298/193/193 491/186/491 498/193/498
f 240/194/194 495/190/495 499/194/499
f 240/194/194 500/195/500 239/195/195
f 145/184/184 501/196/501 489/184/489
f 196/192/192 502/197/502 497/192/497
f 239/195/195 503/198/503 238/198/198
f 180/189/189 504/199/504 179/199/199
f 263/191/191 505/200/505 496/191/496
f 298/193/193 506/201/506 297/201/201
f 238/198/198 507/202/507 237/202/202
f 237/202/202 508/203/508 236/203/203
f 236/203/203 509/204/509 235/204/204
f 197/197/197 510/205/510 502/197/502
f 179/199/199 512/207/512 178/207/207
f 235/204/204 513/208/513 234/208/208
f 265/209/209 505/200/505 264/200/200
f 297/201/201 515/210/515 296/210/210
f 147/211/211 501/196/501 146/196/196
f 221/206/206 517/212/517 511/206/511
f 222/212/212 518/213/518 517/212/517
f 224/214/214 518/213/518 223/213/213
f 224/214/214 520/215/520 519/214/519
f 225/215/215 521/216/521 520/215/520
f 226/216/216 522/217/522 521/216/521
f 227/217/217 523/218/523 522/217/522
f 228/218/218 524/219/524 523/218/523
f 229/219/219 525/220/525 524/219/524
f 231/221/221 525/220/525 230/220/220
f 231/221/221 527/222/527 526/221/526
f 233/223/223 527/222/527 232/222/222
f 233/223/223 513/208/513 528/223/528
f 221/206/206 529/224/529 220/224/224
f 265/209/209 530/225/530 514/209/514
f 295/226/226 515/210/515 531/226/531
f 177/227/227 512/207/512 532/227/532
f 199/228/228 510/205/510 198/205/205
f 266/225/225 534/229/534 530/225/530
f 148/230/230 516/211/516 147/211/211
f 295/226/226 536/231/536 294/231/231
f 220/224/224 537/232/537 219/232/232
f 177/227/227 538/233/538 176/233/233
f 200/234/234 533/228/533 199/228/228
f 267/229/229 540/235/540 534/229/534
f 293/236/236 536/231/536 541/236/541
f 175/237/237 538/233/538 542/237/542
f 269/238/238 540/235/540 268/235/235
f 148/230/230 544/239/544 535/230/535
f 219/232/232 545/240/545 218/240/240
f 293/236/236 546/241/546 292/241/241
f 201/242/242 539/234/539 200/234/234
f 291/243/243 546/241/546 548/243/548
f 270/244/244 543/238/543 269/238/238
f 175/237/237 550/245/550 174/245/245
f 291/243/243 551/246/551 290/246/246
f 149/239/239 552/247/552 544/239/544
f 271/248/248 549/244/549 270/244/244
f 290/246/246 554/249/554 289/249/249
f 218/240/240 555/250/555 217/250/250
f 272/251/251 553/248/553 271/248/248
f 201/242/242 557/252/557 547/242/547
f 289/249/249 558/253/558 288/253/253
f 272/251/251 559/254/559 556/251/556
f 174/245/245 560/255/560 173/255/255
f 150/247/247 561/256/561 552/247/552
f 273/254/254 562/257/562 559/254/559
f 288/253/253 563/258/563 287/258/258
f 274/257/257 564/259/564 562/257/562
f 287/258/258 565/260/565 286/260/260
f 276/261/261 564/259/564 275/259/259
f 286/260/260 567/262/567 285/262/262
f 277/263/263 566/261/566 276/261/261
f 278/264/264 568/263/568 277/263/263
f 172/265/265 560/255/560 570/265/570
f 285/262/262 571/266/571 284/266/266
f 203/267/267 557/252/557 202/252/252
f 279/268/268 569/264/569 278/264/264
f 284/266/266 574/269/574 283/269/269
f 280/270/270 573/268/573 279/268/268
f 216/271/271 555/250/555 576/271/576
f 152/272/272 561/256/561 151/256/256
f 281/273/273 575/270/575 280/270/270
f 283/269/269 579/274/579 282/274/274
f 282/274/274 578/273/578 281/273/273
f 171/275/275 570/265/570 580/275/580
f 152/272/272 581/276/581 577/272/577
f 203/267/267 582/277/582 572/267/572
f 171/275/275 583/278/583 170/278/278
f 216/271/271 584/279/584 215/279/279
f 154/280/280 581/276/581 153/276/276
f 170/278/278 586/281/586 169/281/281
f 155/282/282 585/280/585 154/280/280
f 169/281/281 588/283/588 168/283/283
f 205/284/284 582/277/582 204/277/277
f 214/285/285 584/279/584 590/285/590
f 168/283/283 591/286/591 167/286/286
f 156/287/287 587/282/587 155/282/282
f 166/288/288 591/286/591 593/288/593
f 157/289/289 592/287/592 156/287/287
f 166/288/288 595/290/595 165/290/290
f 206/291/291 589/284/589 205/284/284
f 165/290/290 597/292/597 164/292/292
f 158/293/293 594/289/594 157/289/289
f 164/292/292 599/294/599 163/294/294
f 213/295/295 590/285/590 600/295/600
f 159/296/296 598/293/598 158/293/293
f 163/294/294 602/297/602 162/297/297
f 161/298/298 602/297/602 603/298/603
f 161/298/298 604/299/604 160/299/299
f 160/299/299 601/296/601 159/296/296
f 207/300/300 596/291/596 206/291/291
f 213/295/295 606/301/606 212/301/301
f 208/302/302 605/300/605 207/300/300
f 211/303/303 606/301/606 608/303/608
f 209/304/304 607/302/607 208/302/302
f 210/305/305 609/304/609 209/304/304
f 210/305/305 608/303/608 610/305/610
f 62/3/3 308/2/308 307/3/307
f 64/1/1 308/2/308 63/2/2
f 65/4/4 306/1/306 64/1/1
f 66/5/5 309/4/309 65/4/4
f 67/6/6 310/5/310 66/5/5
f 68/7/7 311/6/311 67/6/6
f 69/8/8 312/7/312 68/7/7
f 70/9/9 313/8/313 69/8/8
f 71/10/10 314/9/314 70/9/9
f 72/11/11 315/10/315 71/10/10
f 73/12/12 316/11/316 72/11/11
f 74/13/13 317/12/317 73/12/12
f 75/14/14 318/13/318 74/13/13
f 76/15/15 319/14/319 75/14/14
f 77/16/16 320/15/320 76/15/15
f 78/17/17 321/16/321 77/16/16
f 79/18/18 322/17/322 78/17/17
f 80/19/19 323/18/323 79/18/18
f 81/20/20 324/19/324 80/19/19
f 82/21/21 325/20/325 81/20/20
f 99/23/23 328/24/328 98/24/24
f 100/22/22 329/23/329 99/23/23
f 83/25/25 326/21/326 82/21/21
f 98/24/24 331/26/331 97/26/26
f 97/26/26 332/27/332 96/27/27
f 84/28/28 330/25/330 83/25/25
f 96/27/27 334/29/334 95/29/29
f 95/29/29 335/30/335 94/30/30
f 85/31/31 333/28/333 84/28/28
f 94/30/30 337/32/337 93/32/32
f 93/32/32 338/33/338 92/33/33
f 86/34/34 336/31/336 85/31/31
f 92/33/33 340/35/340 91/35/35
f 91/35/35 341/36/341 90/36/36
f 90/36/36 342/37/342 89/37/37
f 87/38/38 339/34/339 86/34/34
f 89/37/37 344/39/344 88/39/39
f 88/39/39 343/38/343 87/38/38
f 62/3/3 345/40/345 61/40/40
f 61/40/40 346/41/346 60/41/41
f 60/41/41 347/42/347 59/42/42
f 59/42/42 348/43/348 58/43/43
f 58/43/43 349/44/349 57/44/44
f 57/44/44 350/45/350 56/45/45
s 0
f 612/306/611 613/307/611 611/308/611
f 614/309/612 617/310/612 613/307/612
f 618/311/613 615/312/613 617/310/613
f 616/313/614 611/314/614 615/312/614
f 617/310/615 611/315/615 613/316/615
f 614/317/616 616/313/616 618/311/616
s 1
f 56/45/45 350/45/350 351/46/351
f 55/46/46 351/46/351 352/47/352
f 106/49/49 354/49/354 353/48/353
f 54/47/47 352/47/352 355/50/355
f 107/51/51 356/51/356 354/49/354
f 108/52/52 357/52/357 356/51/356
f 53/50/50 355/50/355 358/53/358
f 109/54/54 359/54/359 357/52/357
f 52/53/53 358/53/358 360/55/360
f 110/56/56 361/56/361 359/54/359
f 51/55/55 360/55/360 362/57/362
f 111/58/58 363/58/363 361/56/361
f 114/60/60 365/60/365 364/59/364
f 115/61/61 366/61/366 365/60/365
f 116/62/62 367/62/367 366/61/366
f 117/63/63 368/63/368 367/62/367
f 118/64/64 369/64/369 368/63/368
f 49/66/66 50/57/57 362/57/362
f 119/67/67 372/67/372 369/64/369
f 124/65/65 370/65/370 373/68/373
f 124/65/65 125/69/69 374/69/374
f 123/68/68 373/68/373 375/70/375
f 120/71/71 376/71/376 372/67/372
f 121/72/72 377/72/377 376/71/376
f 122/70/70 375/70/375 377/72/377
f 49/66/66 371/66/371 378/73/378
f 112/74/74 379/74/379 363/58/363
f 113/59/59 364/59/364 379/74/379
f 105/48/48 353/48/353 380/75/380
f 104/75/75 380/75/380 381/76/381
f 103/76/76 381/76/381 382/77/382
f 101/78/78 383/78/383 327/22/327
f 101/78/78 102/77/77 382/77/382
f 125/69/69 126/79/79 384/79/384
f 48/73/73 378/73/378 385/80/385
f 126/79/79 127/81/81 386/81/386
f 47/80/80 385/80/385 387/82/387
f 128/83/83 388/83/388 386/81/386
f 46/82/82 387/82/387 389/84/389
f 128/83/83 129/85/85 390/85/390
f 45/84/84 389/84/389 391/86/391
f 129/85/85 130/87/87 392/87/392
f 44/86/86 391/86/391 393/88/393
f 131/89/89 394/89/394 392/87/392
f 43/88/88 393/88/393 395/90/395
f 131/89/89 132/91/91 396/91/396
f 42/90/90 395/90/395 397/92/397
f 2/94/94 400/94/400 399/95/399
f 2/94/94 3/93/93 398/93/398
f 132/91/91 133/96/96 401/96/401
f 4/97/97 402/97/402 398/93/398
f 1/95/95 399/95/399 403/98/403
f 4/97/97 5/99/99 404/99/404
f 41/92/92 397/92/397 405/100/405
f 5/99/99 6/101/101 406/101/406
f 134/102/102 407/102/407 401/96/401
f 257/98/98 403/98/403 408/103/408
f 6/101/101 7/104/104 409/104/409
f 8/105/105 410/105/410 409/104/409
f 39/106/106 40/100/100 405/100/405
f 134/102/102 135/107/107 412/107/412
f 256/103/103 408/103/408 413/108/413
f 8/105/105 9/109/109 414/109/414
f 10/110/110 415/110/415 414/109/414
f 255/108/108 413/108/413 416/111/416
f 10/110/110 11/112/112 417/112/417
f 39/106/106 411/106/411 418/113/418
f 135/107/107 136/114/114 419/114/419
f 12/115/115 420/115/420 417/112/417
f 12/115/115 13/116/116 421/116/421
f 254/111/111 416/111/416 422/117/422
f 136/114/114 137/118/118 423/118/423
f 13/116/116 14/119/119 424/119/424
f 38/113/113 418/113/418 425/120/425
f 138/121/121 426/121/426 423/118/423
f 37/120/120 425/120/425 427/122/427
f 15/123/123 428/123/428 424/119/424
f 36/122/122 427/122/427 429/124/429
f 139/125/125 430/125/430 426/121/426
f 253/117/117 422/117/422 431/126/431
f 34/127/127 35/124/124 429/124/429
f 16/128/128 433/128/433 428/123/428
f 34/127/127 432/127/432 434/129/434
f 17/130/130 435/130/435 433/128/433
f 139/125/125 140/131/131 436/131/436
f 32/132/132 33/129/129 434/129/434
f 18/133/133 438/133/438 435/130/435
f 252/126/126 431/126/431 439/134/439
f 18/133/133 19/135/135 440/135/440
f 32/132/132 437/132/437 441/136/441
f 140/131/131 141/137/137 442/137/442
f 19/135/135 20/138/138 443/138/443
f 31/136/136 441/136/441 444/139/444
f 251/134/134 439/134/439 445/140/445
f 21/141/141 446/141/446 443/138/443
f 30/139/139 444/139/444 447/142/447
f 21/141/141 22/143/143 448/143/448
f 29/142/142 447/142/447 449/144/449
f 142/145/145 450/145/450 442/137/442
f 23/147/147 452/147/452 448/143/448
f 250/140/140 445/140/445 453/148/453
f 24/149/149 454/149/454 452/147/452
f 28/144/144 449/144/449 456/151/456
f 258/146/146 451/146/451 457/152/457
f 259/153/153 458/153/458 451/146/451
f 184/150/150 455/150/455 459/154/459
f 184/150/150 185/155/155 460/155/460
f 24/149/149 25/156/156 461/156/461
f 185/155/155 186/157/157 462/157/462
f 304/158/158 305/152/152 457/152/457
f 248/159/159 249/148/148 453/148/453
f 26/160/160 27/151/151 456/151/456
f 26/160/160 465/160/465 461/156/461
f 187/161/161 466/161/466 462/157/462
f 142/145/145 143/162/162 467/162/467
f 304/158/158 463/158/463 468/163/468
f 187/161/161 188/164/164 469/164/469
f 189/165/165 470/165/470 469/164/469
f 248/159/159 464/159/464 471/166/471
f 260/167/167 472/167/472 458/153/458
f 303/163/163 468/163/468 473/168/473
f 183/154/154 459/154/459 474/169/474
f 190/170/170 475/170/475 470/165/470
f 190/170/170 191/171/171 476/171/476
f 302/168/168 473/168/473 477/172/477
f 143/162/162 144/173/173 478/173/478
f 247/166/166 471/166/471 479/174/479
f 260/167/167 261/175/175 480/175/480
f 191/171/171 192/176/176 481/176/481
f 182/169/169 474/169/474 482/177/482
f 301/172/172 477/172/477 483/178/483
f 246/174/174 479/174/479 484/179/484
f 192/176/176 193/180/180 485/180/485
f 245/179/179 484/179/484 486/181/486
f 194/182/182 487/182/487 485/180/485
f 262/183/183 488/183/488 480/175/480
f 145/184/184 489/184/489 478/173/478
f 244/181/181 486/181/486 490/185/490
f 300/178/178 483/178/483 491/186/491
f 242/187/187 243/185/185 490/185/490
f 194/182/182 195/188/188 493/188/493
f 181/177/177 482/177/482 494/189/494
f 242/187/187 492/187/492 495/190/495
f 262/183/183 263/191/191 496/191/496
f 196/192/192 497/192/497 493/188/493
f 298/193/193 299/186/186 491/186/491
f 240/194/194 241/190/190 495/190/495
f 240/194/194 499/194/499 500/195/500
f 145/184/184 146/196/196 501/196/501
f 196/192/192 197/197/197 502/197/502
f 239/195/195 500/195/500 503/198/503
f 180/189/189 494/189/494 504/199/504
f 263/191/191 264/200/200 505/200/505
f 298/193/193 498/193/498 506/201/506
f 238/198/198 503/198/503 507/202/507
f 237/202/202 507/202/507 508/203/508
f 236/203/203 508/203/508 509/204/509
f 197/197/197 198/205/205 510/205/510
f 179/199/199 504/199/504 512/207/512
f 235/204/204 509/204/509 513/208/513
f 265/209/209 514/209/514 505/200/505
f 297/201/201 506/201/506 515/210/515
f 147/211/211 516/211/516 501/196/501
f 221/206/206 222/212/212 517/212/517
f 222/212/212 223/213/213 518/213/518
f 224/214/214 519/214/519 518/213/518
f 224/214/214 225/215/215 520/215/520
f 225/215/215 226/216/216 521/216/521
f 226/216/216 227/217/217 522/217/522
f 227/217/217 228/218/218 523/218/523
f 228/218/218 229/219/219 524/219/524
f 229/219/219 230/220/220 525/220/525
f 231/221/221 526/221/526 525/220/525
f 231/221/221 232/222/222 527/222/527
f 233/223/223 528/223/528 527/222/527
f 233/223/223 234/208/208 513/208/513
f 221/206/206 511/206/511 529/224/529
f 265/209/209 266/225/225 530/225/530
f 295/226/226 296/210/210 515/210/515
f 177/227/227 178/207/207 512/207/512
f 199/228/228 533/228/533 510/205/510
f 266/225/225 267/229/229 534/229/534
f 148/230/230 535/230/535 516/211/516
f 295/226/226 531/226/531 536/231/536
f 220/224/224 529/224/529 537/232/537
f 177/227/227 532/227/532 538/233/538
f 200/234/234 539/234/539 533/228/533
f 267/229/229 268/235/235 540/235/540
f 293/236/236 294/231/231 536/231/536
f 175/237/237 176/233/233 538/233/538
f 269/238/238 543/238/543 540/235/540
f 148/230/230 149/239/239 544/239/544
f 219/232/232 537/232/537 545/240/545
f 293/236/236 541/236/541 546/241/546
f 201/242/242 547/242/547 539/234/539
f 291/243/243 292/241/241 546/241/546
f 270/244/244 549/244/549 543/238/543
f 175/237/237 542/237/542 550/245/550
f 291/243/243 548/243/548 551/246/551
f 149/239/239 150/247/247 552/247/552
f 271/248/248 553/248/553 549/244/549
f 290/246/246 551/246/551 554/249/554
f 218/240/240 545/240/545 555/250/555
f 272/251/251 556/251/556 553/248/553
f 201/242/242 202/252/252 557/252/557
f 289/249/249 554/249/554 558/253/558
f 272/251/251 273/254/254 559/254/559
f 174/245/245 550/245/550 560/255/560
f 150/247/247 151/256/256 561/256/561
f 273/254/254 274/257/257 562/257/562
f 288/253/253 558/253/558 563/258/563
f 274/257/257 275/259/259 564/259/564
f 287/258/258 563/258/563 565/260/565
f 276/261/261 566/261/566 564/259/564
f 286/260/260 565/260/565 567/262/567
f 277/263/263 568/263/568 566/261/566
f 278/264/264 569/264/569 568/263/568
f 172/265/265 173/255/255 560/255/560
f 285/262/262 567/262/567 571/266/571
f 203/267/267 572/267/572 557/252/557
f 279/268/268 573/268/573 569/264/569
f 284/266/266 571/266/571 574/269/574
f 280/270/270 575/270/575 573/268/573
f 216/271/271 217/250/250 555/250/555
f 152/272/272 577/272/577 561/256/561
f 281/273/273 578/273/578 575/270/575
f 283/269/269 574/269/574 579/274/579
f 282/274/274 579/274/579 578/273/578
f 171/275/275 172/265/265 570/265/570
f 152/272/272 153/276/276 581/276/581
f 203/267/267 204/277/277 582/277/582
f 171/275/275 580/275/580 583/278/583
f 216/271/271 576/271/576 584/279/584
f 154/280/280 585/280/585 581/276/581
f 170/278/278 583/278/583 586/281/586
f 155/282/282 587/282/587 585/280/585
f 169/281/281 586/281/586 588/283/588
f 205/284/284 589/284/589 582/277/582
f 214/285/285 215/279/279 584/279/584
f 168/283/283 588/283/588 591/286/591
f 156/287/287 592/287/592 587/282/587
f 166/288/288 167/286/286 591/286/591
f 157/289/289 594/289/594 592/287/592
f 166/288/288 593/288/593 595/290/595
f 206/291/291 596/291/596 589/284/589
f 165/290/290 595/290/595 597/292/597
f 158/293/293 598/293/598 594/289/594
f 164/292/292 597/292/597 599/294/599
f 213/295/295 214/285/285 590/285/590
f 159/296/296 601/296/601 598/293/598
f 163/294/294 599/294/599 602/297/602
f 161/298/298 162/297/297 602/297/602
f 161/298/298 603/298/603 604/299/604
f 160/299/299 604/299/604 601/296/601
f 207/300/300 605/300/605 596/291/596
f 213/295/295 600/295/600 606/301/606
f 208/302/302 607/302/607 605/300/605
f 211/303/303 212/301/301 606/301/606
f 209/304/304 609/304/609 607/302/607
f 210/305/305 610/305/610 609/304/609
f 210/305/305 211/303/303 608/303/608
f 62/3/3 63/2/2 308/2/308
f 64/1/1 306/1/306 308/2/308
f 65/4/4 309/4/309 306/1/306
f 66/5/5 310/5/310 309/4/309
f 67/6/6 311/6/311 310/5/310
f 68/7/7 312/7/312 311/6/311
f 69/8/8 313/8/313 312/7/312
f 70/9/9 314/9/314 313/8/313
f 71/10/10 315/10/315 314/9/314
f 72/11/11 316/11/316 315/10/315
f 73/12/12 317/12/317 316/11/316
f 74/13/13 318/13/318 317/12/317
f 75/14/14 319/14/319 318/13/318
f 76/15/15 320/15/320 319/14/319
f 77/16/16 321/16/321 320/15/320
f 78/17/17 322/17/322 321/16/321
f 79/18/18 323/18/323 322/17/322
f 80/19/19 324/19/324 323/18/323
f 81/20/20 325/20/325 324/19/324
f 82/21/21 326/21/326 325/20/325
f 99/23/23 329/23/329 328/24/328
f 100/22/22 327/22/327 329/23/329
f 83/25/25 330/25/330 326/21/326
f 98/24/24 328/24/328 331/26/331
f 97/26/26 331/26/331 332/27/332
f 84/28/28 333/28/333 330/25/330
f 96/27/27 332/27/332 334/29/334
f 95/29/29 334/29/334 335/30/335
f 85/31/31 336/31/336 333/28/333
f 94/30/30 335/30/335 337/32/337
f 93/32/32 337/32/337 338/33/338
f 86/34/34 339/34/339 336/31/336
f 92/33/33 338/33/338 340/35/340
f 91/35/35 340/35/340 341/36/341
f 90/36/36 341/36/341 342/37/342
f 87/38/38 343/38/343 339/34/339
f 89/37/37 342/37/342 344/39/344
f 88/39/39 344/39/344 343/38/343
f 62/3/3 307/3/307 345/40/345
f 61/40/40 345/40/345 346/41/346
f 60/41/41 346/41/346 347/42/347
f 59/42/42 347/42/347 348/43/348
f 58/43/43 348/43/348 349/44/349
f 57/44/44 349/44/349 350/45/350
s 0
f 612/306/611 614/309/611 613/307/611
f 614/309/612 618/311/612 617/310/612
f 618/311/613 616/313/613 615/312/613
f 616/313/614 612/318/614 611/314/614
f 617/310/615 615/312/615 611/315/615
f 614/317/616 612/319/616 616/313/616
