# Blender 4.4.1
# www.blender.org
mtllib Water.mtl
o Cube
v -0.080328 0.116037 -0.080328
v -0.076285 -0.254382 -0.047154
v -0.097321 -0.267565 -0.000000
v -0.131948 0.116037 -0.000000
v 0.000000 -0.267565 -0.097321
v 0.000000 0.116037 -0.131948
v 0.000000 -0.258126 -0.000000
v -0.095094 0.006604 -0.062782
v -0.058166 -0.267835 -0.055439
v -0.082364 -0.267835 -0.000000
v 0.000000 -0.267835 -0.082472
v 0.000000 0.116037 -0.118078
v -0.113655 0.116037 -0.000000
v -0.058166 -0.258126 -0.055439
v -0.082364 -0.258126 -0.000000
v 0.000000 -0.258126 -0.082472
v -0.061885 0.003338 -0.093828
v -0.043629 -0.251115 -0.078543
v -0.115631 0.006672 -0.013293
v -0.090120 -0.254468 -0.020644
v -0.065491 -0.267565 -0.066275
v -0.023656 -0.251201 -0.089116
v -0.092131 0.116037 -0.092131
v -0.018698 0.003404 -0.111647
v -0.112174 0.007097 -0.009828
v -0.086663 -0.254043 -0.017179
v -0.015241 0.003829 -0.108182
v -0.020199 -0.250776 -0.085651
v -0.091637 0.007029 -0.059317
v -0.072828 -0.253957 -0.043689
v -0.040172 -0.250690 -0.075078
v -0.058428 0.003762 -0.090362
v 0.080328 0.116037 -0.080328
v 0.076285 -0.254382 -0.047154
v 0.097321 -0.267565 -0.000000
v 0.131948 0.116037 -0.000000
v 0.095094 0.006604 -0.062782
v 0.058166 -0.267835 -0.055439
v 0.082364 -0.267835 -0.000000
v 0.113655 0.116037 -0.000000
v 0.058166 -0.258126 -0.055439
v 0.082364 -0.258126 -0.000000
v 0.061885 0.003338 -0.093828
v 0.043629 -0.251115 -0.078543
v 0.115631 0.006672 -0.013293
v 0.090120 -0.254468 -0.020644
v 0.065491 -0.267565 -0.066275
v 0.023656 -0.251201 -0.089116
v 0.092131 0.116037 -0.092131
v 0.018698 0.003404 -0.111647
v 0.112174 0.007097 -0.009828
v 0.086664 -0.254043 -0.017179
v 0.015241 0.003829 -0.108182
v 0.020199 -0.250776 -0.085651
v 0.091637 0.007029 -0.059317
v 0.072828 -0.253957 -0.043689
v 0.040172 -0.250690 -0.075078
v 0.058428 0.003762 -0.090362
v -0.080328 0.116037 0.080328
v -0.076285 -0.254382 0.047154
v 0.000000 -0.267565 0.097321
v 0.000000 0.116037 0.131948
v -0.095094 0.006604 0.062782
v -0.058166 -0.267835 0.055439
v 0.000000 -0.267835 0.082472
v 0.000000 0.116037 0.118078
v -0.058166 -0.258126 0.055439
v 0.000000 -0.258126 0.082472
v -0.061885 0.003338 0.093828
v -0.043629 -0.251115 0.078543
v -0.115631 0.006672 0.013293
v -0.090120 -0.254468 0.020644
v -0.065491 -0.267565 0.066275
v -0.023656 -0.251201 0.089116
v -0.092131 0.116037 0.092131
v -0.018698 0.003404 0.111647
v -0.112174 0.007097 0.009828
v -0.086663 -0.254043 0.017179
v -0.015241 0.003829 0.108182
v -0.020199 -0.250776 0.085651
v -0.091637 0.007029 0.059317
v -0.072828 -0.253957 0.043689
v -0.040172 -0.250690 0.075078
v -0.058428 0.003762 0.090362
v 0.080328 0.116037 0.080328
v 0.076285 -0.254382 0.047154
v 0.095094 0.006604 0.062782
v 0.058166 -0.267835 0.055439
v 0.058166 -0.258126 0.055439
v 0.061885 0.003338 0.093828
v 0.043629 -0.251115 0.078543
v 0.115631 0.006672 0.013293
v 0.090120 -0.254468 0.020644
v 0.065491 -0.267565 0.066275
v 0.023656 -0.251201 0.089116
v 0.092131 0.116037 0.092131
v 0.018698 0.003404 0.111647
v 0.112174 0.007097 0.009828
v 0.086664 -0.254043 0.017179
v 0.015241 0.003829 0.108182
v 0.020199 -0.250776 0.085651
v 0.091637 0.007029 0.059317
v 0.072828 -0.253957 0.043689
v 0.040172 -0.250690 0.075078
v 0.058428 0.003762 0.090362
v 0.000000 -0.251606 -0.087118
v -0.060161 -0.246751 -0.058977
v -0.085150 -0.246751 -0.000000
v 0.060161 -0.246751 -0.058977
v 0.085150 -0.246751 -0.000000
v 0.000000 -0.251606 0.087118
v -0.060161 -0.246751 0.058977
v 0.060161 -0.246751 0.058977
vn 0.7074 0.0083 -0.7067
vn 0.4275 0.0759 0.9008
vn -0.0180 -0.9998 -0.0079
vn -0.7074 -0.0087 0.7068
vn -0.0000 1.0000 -0.0000
vn 0.4215 -0.0000 0.9068
vn -0.0000 -1.0000 -0.0000
vn 0.9165 -0.0000 0.4000
vn -0.0088 -0.9998 -0.0189
vn 0.9184 0.0722 0.3891
vn -0.8927 -0.0908 -0.4413
vn -0.9149 -0.0813 -0.3954
vn -0.8611 -0.2362 -0.4502
vn -0.8969 -0.0810 -0.4348
vn -0.4260 -0.1040 -0.8987
vn -0.3814 -0.0885 -0.9202
vn -0.3793 -0.1028 -0.9196
vn -0.3724 -0.0746 -0.9251
vn -0.8827 -0.0912 -0.4610
vn -0.4664 -0.0863 -0.8803
vn 0.0854 -0.9957 0.0368
vn 0.0368 -0.9957 0.0854
vn 0.6998 0.0883 -0.7089
vn -0.0395 0.9958 -0.0827
vn -0.7106 0.0757 0.6995
vn -0.0825 0.9958 -0.0398
vn -0.7074 0.0083 -0.7067
vn -0.4275 0.0759 0.9008
vn 0.0215 -0.9997 -0.0103
vn 0.7074 -0.0087 0.7068
vn -0.4215 -0.0000 0.9068
vn -0.9165 -0.0000 0.4000
vn 0.0086 -0.9998 -0.0182
vn -0.9211 0.0737 0.3822
vn 0.8927 -0.0908 -0.4413
vn 0.9199 -0.0909 -0.3816
vn 0.8611 -0.2362 -0.4502
vn 0.9244 -0.0798 -0.3730
vn 0.4563 -0.2284 -0.8600
vn 0.4381 -0.0852 -0.8949
vn 0.3793 -0.1028 -0.9196
vn 0.3724 -0.0746 -0.9251
vn 0.9208 -0.0792 -0.3820
vn 0.4664 -0.0863 -0.8803
vn -0.0854 -0.9957 0.0368
vn -0.0368 -0.9957 0.0854
vn -0.6998 0.0883 -0.7089
vn 0.0395 0.9958 -0.0827
vn 0.7106 0.0757 0.6995
vn 0.0825 0.9958 -0.0398
vn 0.7074 0.0083 0.7067
vn 0.4275 0.0759 -0.9008
vn -0.0215 -0.9997 0.0103
vn -0.7074 -0.0087 -0.7068
vn 0.4215 -0.0000 -0.9068
vn 0.9165 -0.0000 -0.4000
vn -0.0086 -0.9998 0.0182
vn 0.9211 0.0737 -0.3822
vn -0.8927 -0.0908 0.4413
vn -0.9199 -0.0909 0.3816
vn -0.8611 -0.2362 0.4502
vn -0.9244 -0.0798 0.3730
vn -0.4563 -0.2284 0.8600
vn -0.4381 -0.0852 0.8949
vn -0.3793 -0.1028 0.9196
vn -0.3724 -0.0746 0.9251
vn -0.9208 -0.0792 0.3820
vn -0.4664 -0.0863 0.8803
vn 0.0854 -0.9957 -0.0368
vn 0.0368 -0.9957 -0.0854
vn 0.6998 0.0883 0.7089
vn -0.0395 0.9958 0.0827
vn -0.7106 0.0757 -0.6995
vn -0.0825 0.9958 0.0398
vn -0.7074 0.0083 0.7067
vn -0.4275 0.0759 -0.9008
vn 0.0180 -0.9998 0.0079
vn 0.7074 -0.0087 -0.7068
vn -0.4215 -0.0000 -0.9068
vn -0.9165 -0.0000 -0.4000
vn 0.0088 -0.9998 0.0189
vn -0.9184 0.0722 -0.3891
vn 0.8927 -0.0908 0.4413
vn 0.9149 -0.0813 0.3954
vn 0.8611 -0.2362 0.4502
vn 0.8969 -0.0810 0.4348
vn 0.4260 -0.1040 0.8987
vn 0.3814 -0.0885 0.9202
vn 0.3793 -0.1028 0.9196
vn 0.3724 -0.0746 0.9251
vn 0.8827 -0.0912 0.4610
vn 0.4664 -0.0863 0.8803
vn -0.0854 -0.9957 -0.0368
vn -0.0368 -0.9957 -0.0854
vn -0.6998 0.0883 0.7089
vn 0.0395 0.9958 0.0827
vn 0.7106 0.0757 -0.6995
vn 0.0825 0.9958 0.0398
vn 0.4241 0.0767 0.9024
vn -0.0215 -0.9997 -0.0103
vn -0.0086 -0.9998 -0.0182
vn 0.9211 0.0737 0.3822
vn -0.8975 -0.0914 -0.4314
vn -0.9199 -0.0909 -0.3816
vn -0.8960 -0.1095 -0.4303
vn -0.9244 -0.0798 -0.3730
vn -0.4563 -0.2284 -0.8600
vn -0.4381 -0.0852 -0.8949
vn -0.3950 -0.0923 -0.9140
vn -0.4750 -0.0791 -0.8764
vn -0.9208 -0.0792 -0.3820
vn -0.3803 -0.0742 -0.9219
vn -0.4241 0.0767 0.9024
vn 0.0180 -0.9998 -0.0079
vn 0.0088 -0.9998 -0.0189
vn -0.9184 0.0722 0.3891
vn 0.8975 -0.0914 -0.4314
vn 0.9149 -0.0813 -0.3954
vn 0.8960 -0.1095 -0.4303
vn 0.8969 -0.0810 -0.4348
vn 0.4260 -0.1040 -0.8987
vn 0.3814 -0.0885 -0.9202
vn 0.3950 -0.0923 -0.9140
vn 0.4750 -0.0791 -0.8764
vn 0.8827 -0.0912 -0.4610
vn 0.3803 -0.0742 -0.9219
vn 0.4241 0.0767 -0.9024
vn -0.0180 -0.9998 0.0079
vn -0.0088 -0.9998 0.0189
vn 0.9184 0.0722 -0.3891
vn -0.8975 -0.0914 0.4314
vn -0.9149 -0.0813 0.3954
vn -0.8960 -0.1095 0.4303
vn -0.8969 -0.0810 0.4348
vn -0.4260 -0.1040 0.8987
vn -0.3814 -0.0885 0.9202
vn -0.3950 -0.0923 0.9140
vn -0.4750 -0.0791 0.8764
vn -0.8827 -0.0912 0.4610
vn -0.3803 -0.0742 0.9219
vn -0.4241 0.0767 -0.9024
vn 0.0215 -0.9997 0.0103
vn 0.7074 -0.0087 -0.7067
vn 0.0086 -0.9998 0.0182
vn -0.9211 0.0737 -0.3822
vn 0.8975 -0.0914 0.4314
vn 0.9199 -0.0909 0.3816
vn 0.8960 -0.1095 0.4303
vn 0.9244 -0.0798 0.3730
vn 0.4563 -0.2284 0.8600
vn 0.4381 -0.0852 0.8949
vn 0.3950 -0.0923 0.9140
vn 0.4750 -0.0791 0.8764
vn 0.9208 -0.0792 0.3820
vn 0.3803 -0.0742 0.9219
vn -0.0000 0.9854 0.1700
vn -0.0000 0.9854 -0.1700
vt 0.391800 0.293368
vt 0.608200 0.283074
vt 0.750000 0.562500
vt 0.426679 0.260821
vt 0.375000 0.281250
vt 0.375000 0.125000
vt 0.375000 0.250000
vt 0.389671 0.212556
vt 0.610329 0.221175
vt 0.853358 0.521642
vt 0.750000 0.500000
vt 0.875000 0.500000
vt 0.375000 0.375000
vt 0.125000 0.500000
vt 0.250000 0.625000
vt 0.125000 0.625000
vt 0.812500 0.625000
vt 0.875000 0.625000
vt 0.000000 0.000000
vt 0.625000 0.125000
vt 0.625000 0.250000
vt 0.389674 0.162446
vt 0.610326 0.153825
vt 0.625000 0.375000
vt 0.608197 0.341926
vt 0.391803 0.331631
vt 0.250000 0.500000
s 0
usemtl Material
f 18/1/1 32/2/1 31/1/1
f 12/3/2 107/4/2 106/5/2
f 3/6/3 9/7/3 10/6/3
f 2/8/4 29/9/4 8/9/4
f 1/10/5 6/11/5 23/12/5
f 11/13/6 14/7/6 9/7/6
f 14/14/7 7/15/7 15/16/7
f 9/7/8 15/6/8 10/6/8
f 21/7/9 11/13/9 9/7/9
f 13/17/5 23/12/5 4/18/5
f 107/19/10 13/19/10 108/19/10
f 8/9/11 21/7/11 2/8/11
f 8/9/12 4/20/12 23/21/12
f 2/8/13 3/6/13 20/22/13
f 19/23/14 3/6/14 4/20/14
f 18/1/15 5/13/15 21/7/15
f 17/2/16 21/7/16 23/21/16
f 17/2/17 6/24/17 24/25/17
f 24/25/18 5/13/18 22/26/18
f 26/22/19 29/9/19 30/8/19
f 32/2/20 28/26/20 31/1/20
f 19/23/21 29/9/21 25/23/21
f 24/25/22 32/2/22 17/2/22
f 19/23/23 26/22/23 20/22/23
f 22/26/24 31/1/24 28/26/24
f 24/25/25 28/26/25 27/25/25
f 20/22/26 30/8/26 2/8/26
f 44/1/27 58/2/27 43/2/27
f 109/4/28 12/3/28 106/5/28
f 35/6/29 38/7/29 47/7/29
f 55/9/30 34/8/30 37/9/30
f 33/10/5 6/11/5 12/3/5
f 41/7/31 11/13/31 38/7/31
f 41/14/7 7/15/7 16/27/7
f 42/6/32 38/7/32 39/6/32
f 47/7/33 11/13/33 5/13/33
f 49/12/5 40/17/5 36/18/5
f 109/19/34 40/19/34 33/19/34
f 47/7/35 37/9/35 34/8/35
f 37/9/36 36/20/36 45/23/36
f 35/6/37 34/8/37 46/22/37
f 45/23/38 35/6/38 46/22/38
f 44/1/39 5/13/39 48/26/39
f 43/2/40 47/7/40 44/1/40
f 6/24/41 43/2/41 50/25/41
f 5/13/42 50/25/42 48/26/42
f 52/22/43 55/9/43 51/23/43
f 54/26/44 58/2/44 57/1/44
f 45/23/45 55/9/45 37/9/45
f 58/2/46 50/25/46 43/2/46
f 52/22/47 45/23/47 46/22/47
f 48/26/48 57/1/48 44/1/48
f 50/25/49 54/26/49 48/26/49
f 56/8/50 46/22/50 34/8/50
f 70/1/51 84/2/51 69/2/51
f 112/4/52 66/3/52 111/5/52
f 3/6/53 64/7/53 73/7/53
f 81/9/54 60/8/54 63/9/54
f 59/10/5 62/11/5 66/3/5
f 67/7/55 65/13/55 64/7/55
f 67/14/7 7/15/7 68/27/7
f 15/6/56 64/7/56 10/6/56
f 73/7/57 65/13/57 61/13/57
f 75/12/5 13/17/5 4/18/5
f 112/19/58 13/19/58 59/19/58
f 73/7/59 63/9/59 60/8/59
f 63/9/60 4/20/60 71/23/60
f 3/6/61 60/8/61 72/22/61
f 71/23/62 3/6/62 72/22/62
f 70/1/63 61/13/63 74/26/63
f 69/2/64 73/7/64 70/1/64
f 62/24/65 69/2/65 76/25/65
f 61/13/66 76/25/66 74/26/66
f 78/22/67 81/9/67 77/23/67
f 80/26/68 84/2/68 83/1/68
f 71/23/69 81/9/69 63/9/69
f 84/2/70 76/25/70 69/2/70
f 78/22/71 71/23/71 72/22/71
f 74/26/72 83/1/72 70/1/72
f 76/25/73 80/26/73 74/26/73
f 82/8/74 72/22/74 60/8/74
f 91/1/75 105/2/75 104/1/75
f 66/3/76 113/4/76 111/5/76
f 35/6/77 88/7/77 39/6/77
f 86/8/78 102/9/78 87/9/78
f 85/10/5 62/11/5 96/12/5
f 65/13/79 89/7/79 88/7/79
f 89/14/7 7/15/7 42/16/7
f 88/7/80 42/6/80 39/6/80
f 94/7/81 65/13/81 88/7/81
f 40/17/5 96/12/5 36/18/5
f 113/19/82 40/19/82 110/19/82
f 87/9/83 94/7/83 86/8/83
f 87/9/84 36/20/84 96/21/84
f 86/8/85 35/6/85 93/22/85
f 92/23/86 35/6/86 36/20/86
f 91/1/87 61/13/87 94/7/87
f 90/2/88 94/7/88 96/21/88
f 90/2/89 62/24/89 97/25/89
f 97/25/90 61/13/90 95/26/90
f 99/22/91 102/9/91 103/8/91
f 105/2/92 101/26/92 104/1/92
f 92/23/93 102/9/93 98/23/93
f 97/25/94 105/2/94 90/2/94
f 92/23/95 99/22/95 93/22/95
f 95/26/96 104/1/96 101/26/96
f 97/25/97 101/26/97 100/25/97
f 93/22/98 103/8/98 86/8/98
f 109/4/5 107/19/5 113/4/5
f 18/1/1 17/2/1 32/2/1
f 12/3/99 1/10/99 107/4/99
f 3/6/100 21/7/100 9/7/100
f 2/8/4 30/8/4 29/9/4
f 1/10/5 12/3/5 6/11/5
f 11/13/6 16/13/6 14/7/6
f 14/14/7 16/27/7 7/15/7
f 9/7/8 14/7/8 15/6/8
f 21/7/101 5/13/101 11/13/101
f 13/17/5 1/10/5 23/12/5
f 107/19/102 1/19/102 13/19/102
f 8/9/103 23/21/103 21/7/103
f 8/9/104 19/23/104 4/20/104
f 2/8/105 21/7/105 3/6/105
f 19/23/106 20/22/106 3/6/106
f 18/1/107 22/26/107 5/13/107
f 17/2/108 18/1/108 21/7/108
f 17/2/109 23/21/109 6/24/109
f 24/25/110 6/24/110 5/13/110
f 26/22/111 25/23/111 29/9/111
f 32/2/112 27/25/112 28/26/112
f 19/23/21 8/9/21 29/9/21
f 24/25/22 27/25/22 32/2/22
f 19/23/23 25/23/23 26/22/23
f 22/26/24 18/1/24 31/1/24
f 24/25/25 22/26/25 28/26/25
f 20/22/26 26/22/26 30/8/26
f 44/1/27 57/1/27 58/2/27
f 109/4/113 33/10/113 12/3/113
f 35/6/114 39/6/114 38/7/114
f 55/9/30 56/8/30 34/8/30
f 33/10/5 49/12/5 6/11/5
f 41/7/31 16/13/31 11/13/31
f 41/14/7 42/16/7 7/15/7
f 42/6/32 41/7/32 38/7/32
f 47/7/115 38/7/115 11/13/115
f 49/12/5 33/10/5 40/17/5
f 109/19/116 110/19/116 40/19/116
f 47/7/117 49/21/117 37/9/117
f 37/9/118 49/21/118 36/20/118
f 35/6/119 47/7/119 34/8/119
f 45/23/120 36/20/120 35/6/120
f 44/1/121 47/7/121 5/13/121
f 43/2/122 49/21/122 47/7/122
f 6/24/123 49/21/123 43/2/123
f 5/13/124 6/24/124 50/25/124
f 52/22/125 56/8/125 55/9/125
f 54/26/126 53/25/126 58/2/126
f 45/23/45 51/23/45 55/9/45
f 58/2/46 53/25/46 50/25/46
f 52/22/47 51/23/47 45/23/47
f 48/26/48 54/26/48 57/1/48
f 50/25/49 53/25/49 54/26/49
f 56/8/50 52/22/50 46/22/50
f 70/1/51 83/1/51 84/2/51
f 112/4/127 59/10/127 66/3/127
f 3/6/128 10/6/128 64/7/128
f 81/9/54 82/8/54 60/8/54
f 59/10/5 75/12/5 62/11/5
f 67/7/55 68/13/55 65/13/55
f 67/14/7 15/16/7 7/15/7
f 15/6/56 67/7/56 64/7/56
f 73/7/129 64/7/129 65/13/129
f 75/12/5 59/10/5 13/17/5
f 112/19/130 108/19/130 13/19/130
f 73/7/131 75/21/131 63/9/131
f 63/9/132 75/21/132 4/20/132
f 3/6/133 73/7/133 60/8/133
f 71/23/134 4/20/134 3/6/134
f 70/1/135 73/7/135 61/13/135
f 69/2/136 75/21/136 73/7/136
f 62/24/137 75/21/137 69/2/137
f 61/13/138 62/24/138 76/25/138
f 78/22/139 82/8/139 81/9/139
f 80/26/140 79/25/140 84/2/140
f 71/23/69 77/23/69 81/9/69
f 84/2/70 79/25/70 76/25/70
f 78/22/71 77/23/71 71/23/71
f 74/26/72 80/26/72 83/1/72
f 76/25/73 79/25/73 80/26/73
f 82/8/74 78/22/74 72/22/74
f 91/1/75 90/2/75 105/2/75
f 66/3/141 85/10/141 113/4/141
f 35/6/142 94/7/142 88/7/142
f 86/8/143 103/8/143 102/9/143
f 85/10/5 66/3/5 62/11/5
f 65/13/79 68/13/79 89/7/79
f 89/14/7 68/27/7 7/15/7
f 88/7/80 89/7/80 42/6/80
f 94/7/144 61/13/144 65/13/144
f 40/17/5 85/10/5 96/12/5
f 113/19/145 85/19/145 40/19/145
f 87/9/146 96/21/146 94/7/146
f 87/9/147 92/23/147 36/20/147
f 86/8/148 94/7/148 35/6/148
f 92/23/149 93/22/149 35/6/149
f 91/1/150 95/26/150 61/13/150
f 90/2/151 91/1/151 94/7/151
f 90/2/152 96/21/152 62/24/152
f 97/25/153 62/24/153 61/13/153
f 99/22/154 98/23/154 102/9/154
f 105/2/155 100/25/155 101/26/155
f 92/23/93 87/9/93 102/9/93
f 97/25/94 100/25/94 105/2/94
f 92/23/95 98/23/95 99/22/95
f 95/26/96 91/1/96 104/1/96
f 97/25/97 95/26/97 101/26/97
f 93/22/98 99/22/98 103/8/98
f 111/5/156 113/4/156 112/4/156
f 113/4/5 110/19/5 109/4/5
f 112/4/5 107/19/5 108/19/5
f 109/4/157 106/5/157 107/19/157
f 107/19/5 112/4/5 113/4/5
