# Blender 4.4.1
# www.blender.org
mtllib piece9.mtl
o 立方体.002_cell.050
v -0.016968 0.026130 0.013908
v -0.024172 0.026221 0.021112
v -0.002335 0.026221 0.036403
v 0.003129 0.026130 0.028567
v -0.039463 0.026221 -0.000725
v -0.031627 0.026130 -0.006189
v -0.030116 0.001634 -0.030868
v -0.025357 0.004894 -0.033589
v -0.004066 -0.014745 -0.024974
v -0.008078 -0.018355 -0.022156
v 0.008699 -0.031038 -0.017064
v 0.002944 -0.020129 -0.022794
v 0.012637 -0.033994 -0.015835
v 0.015046 -0.029349 -0.018937
v 0.024682 -0.029973 -0.003163
v 0.026877 -0.025545 -0.006277
v 0.028114 -0.025685 0.002246
v 0.026490 -0.017069 0.009407
v 0.026780 -0.013247 0.004548
v 0.024537 -0.006833 0.017903
v 0.024738 -0.002322 0.013276
v 0.017907 0.026221 0.045197
v 0.019149 0.026130 0.035885
v -0.043424 0.026221 -0.009841
v -0.036127 0.026130 -0.016040
v -0.025357 0.004894 -0.033589
v -0.004066 -0.014745 -0.024974
v 0.002944 -0.020129 -0.022794
v -0.008078 -0.018355 -0.022156
v 0.008699 -0.031038 -0.017064
v 0.024682 -0.029973 -0.003163
v 0.012637 -0.033994 -0.015835
v -0.030116 0.001634 -0.030868
v 0.015046 -0.029349 -0.018937
v 0.028114 -0.025685 0.002246
v 0.026490 -0.017069 0.009407
v 0.024537 -0.006833 0.017903
v 0.024738 -0.002322 0.013276
v 0.026780 -0.013247 0.004548
v 0.019149 0.026130 0.035885
v 0.019149 0.026130 0.035885
v 0.017907 0.026221 0.045197
v 0.017907 0.026221 0.045197
v -0.043424 0.026221 -0.009841
v -0.043424 0.026221 -0.009841
v -0.036127 0.026130 -0.016040
v -0.036127 0.026130 -0.016040
v 0.026877 -0.025545 -0.006277
v -0.024172 0.026221 0.021112
v -0.039463 0.026221 -0.000725
v -0.016968 0.026130 0.013908
v -0.031627 0.026130 -0.006189
v 0.003129 0.026130 0.028567
v -0.002335 0.026221 0.036403
vn -0.1319 -0.5146 -0.8472
vn -0.1162 -0.5092 -0.8527
vn 0.6556 -0.6240 -0.4252
vn 0.9814 0.1312 -0.1403
vn 0.9885 0.0845 0.1255
vn 0.9873 0.0900 0.1308
vn -0.6173 0.2910 -0.7310
vn -0.3746 -0.6474 0.6637
vn -0.3057 -0.6420 0.7031
vn -0.3056 -0.6420 0.7032
vn 0.0064 1.0000 -0.0064
vn 0.0082 1.0000 -0.0047
vn 0.0063 1.0000 -0.0063
vn 0.0048 1.0000 -0.0082
vn 0.0048 1.0000 -0.0083
vn 0.6683 0.6314 -0.3933
vn 0.7089 0.6267 -0.3235
vn 0.7086 0.6269 -0.3237
vn 0.0083 1.0000 -0.0048
vn 0.0089 1.0000 -0.0040
vn 0.0040 1.0000 -0.0091
vn -0.6637 -0.6474 0.3746
vn -0.7032 -0.6420 0.3056
vn -0.6421 -0.6487 0.4087
vn -0.5346 -0.6545 0.5346
vn -0.6231 -0.6489 0.4367
vn 0.4379 0.6335 -0.6379
vn 0.5453 0.6367 -0.5453
vn 0.3933 0.6314 -0.6683
vn 0.6268 0.6317 -0.4562
vn 0.6462 0.6319 -0.4279
vn 0.3233 0.6267 -0.7091
vn 0.3238 0.6268 -0.7087
vn -0.3965 -0.6486 0.6497
vn 0.8483 -0.5130 -0.1315
vn 0.9888 0.0830 0.1244
vn -0.3055 -0.6420 0.7032
vn -0.3270 -0.6398 0.6955
vn 0.0090 1.0000 -0.0041
vn 0.0040 0.9999 -0.0092
vn -0.7033 -0.6419 0.3055
vn -0.5106 -0.6544 0.5578
vn 0.5262 0.6371 -0.5633
vn 0.3197 0.6272 -0.7102
vt 0.968330 0.515571
vt 1.000000 0.892758
vt 0.836073 0.000000
vt 0.892758 0.892758
vt 1.000000 0.817215
vt 1.000000 0.939927
vt 0.956806 0.207655
vt 0.820742 0.796069
vt 0.834004 0.000000
vt 1.000000 0.368704
vt 0.283961 0.283961
vt 0.249854 0.249854
vt 1.000000 0.442784
vt 0.368704 0.368704
vt 1.000000 0.414086
vt 0.553493 0.259208
vt 0.442784 0.442784
vt 0.414086 0.414086
vt 0.780436 0.004993
vt 1.000000 0.163927
vt 0.741378 0.041140
vt 0.625000 0.968750
vt 0.595468 0.958750
vt 0.606194 0.951546
vt 0.861254 0.736254
vt 0.875000 0.718750
vt 0.875000 0.750000
vt 0.843750 0.750000
vt 0.833441 0.736254
vt 0.861254 0.708441
vt 0.861254 0.683829
vt 0.861254 0.696500
vt 0.875000 0.707306
vt 0.814022 0.736254
vt 0.625000 0.031250
vt 0.611011 0.058265
vt 0.599638 0.031250
vt 0.625000 0.000000
vt 0.592422 0.006765
vt 0.861254 0.717489
vt 0.824514 0.736254
vt 0.625000 1.000000
vt 0.593028 0.968750
vt 0.885293 0.000000
vt 1.000000 0.669019
vt 0.923377 0.528556
vt 0.669019 0.669019
vt 0.946735 0.000000
vt 0.939927 0.939927
vt 1.000000 0.398428
vt 0.398428 0.398428
vt 0.611101 0.263369
vt 1.000000 0.114707
vt 0.625000 0.943340
vt 0.600370 0.955160
vt 0.861254 0.696500
vt 0.818340 0.750000
vt 0.625000 0.042694
vt 0.590742 0.000000
vt 0.861254 0.736254
vt 0.861254 0.735253
vt 0.820935 0.736254
vt 0.590742 1.000000
s 0
usemtl マテリアル
f 27/1/1 30/2/1 33/3/1
f 30/4/2 34/5/2 32/6/2
f 31/7/3 34/8/3 48/9/3
f 39/10/4 35/11/4 48/12/4
f 37/13/5 39/14/5 38/15/5
f 40/16/6 37/17/6 38/18/6
f 46/19/7 33/20/7 44/21/7
s 1
f 3/22/8 17/23/9 20/24/10
f 51/25/11 50/26/12 49/27/13
f 51/25/11 54/28/14 53/29/15
f 6/30/16 8/31/17 47/32/18
f 52/30/19 45/33/20 50/26/12
f 54/28/14 41/34/21 53/29/15
f 5/35/22 7/36/23 10/37/24
f 2/38/25 10/37/24 11/39/26
f 16/29/27 1/25/28 4/29/29
f 1/25/28 12/40/30 9/30/31
f 19/41/32 4/29/29 23/34/33
f 2/42/25 15/43/34 3/22/8
s 0
f 33/3/1 26/44/1 27/1/1
f 27/1/1 28/45/1 30/2/1
f 30/2/1 29/46/1 33/3/1
f 30/4/2 28/47/2 34/5/2
f 48/9/35 35/48/35 31/7/35
f 31/7/3 32/49/3 34/8/3
f 39/10/36 36/50/36 35/11/36
f 37/13/5 36/51/5 39/14/5
f 40/16/6 42/52/6 37/17/6
f 46/19/7 26/53/7 33/20/7
s 1
f 20/24/10 43/54/37 3/22/8
f 3/22/8 15/43/34 17/23/9
f 17/23/9 18/55/38 20/24/10
f 51/25/11 52/30/19 50/26/12
f 51/25/11 49/27/13 54/28/14
f 6/30/16 9/30/31 8/31/17
f 52/30/19 25/56/39 45/33/20
f 54/28/14 22/57/40 41/34/21
f 5/35/22 24/58/41 7/36/23
f 11/39/26 13/59/42 2/38/25
f 2/38/25 5/35/22 10/37/24
f 16/29/27 14/60/43 1/25/28
f 9/30/31 6/30/16 1/25/28
f 1/25/28 14/61/43 12/40/30
f 23/34/33 21/62/44 19/41/32
f 19/41/32 16/29/27 4/29/29
f 2/42/25 13/63/42 15/43/34
