# Blender 4.4.1
# www.blender.org
mtllib piece15.mtl
o 立方体.002_cell.073
v 0.012947 0.023120 0.012458
v 0.016493 0.019375 0.017225
v 0.018404 0.017945 -0.009530
v 0.022528 0.013665 -0.007755
v 0.026466 0.010064 -0.030273
v 0.008486 0.026954 0.039645
v 0.004303 0.031334 0.035467
v 0.008099 -0.008301 -0.022855
v 0.005504 -0.003178 -0.024466
v 0.022408 0.014085 -0.031417
v -0.005505 -0.014389 -0.019819
v -0.002426 -0.018784 -0.018494
v -0.014140 -0.022399 -0.016392
v -0.009011 0.018339 0.042931
v -0.009907 0.023979 0.038412
v -0.021707 -0.019411 0.012524
v -0.022899 -0.015943 0.007613
v -0.017519 -0.023037 0.002750
v -0.016776 -0.020916 -0.007712
v -0.011613 -0.026923 -0.014463
v -0.014134 -0.025578 -0.005848
v 0.012947 0.023120 0.012458
v 0.018404 0.017945 -0.009530
v 0.022528 0.013665 -0.007755
v 0.026466 0.010064 -0.030273
v 0.008099 -0.008301 -0.022855
v 0.005504 -0.003178 -0.024466
v 0.022408 0.014085 -0.031417
v -0.005505 -0.014389 -0.019819
v -0.002426 -0.018784 -0.018494
v -0.022899 -0.015943 0.007613
v -0.016776 -0.020916 -0.007712
v -0.014140 -0.022399 -0.016392
v -0.017519 -0.023037 0.002750
v -0.014134 -0.025578 -0.005848
v -0.011613 -0.026923 -0.014463
v 0.004303 0.031334 0.035467
v 0.016493 0.019375 0.017225
v 0.008486 0.026954 0.039645
v -0.009011 0.018339 0.042931
v -0.009907 0.023979 0.038412
v -0.021707 -0.019411 0.012524
vn 0.7171 0.6968 0.0140
vn 0.7142 0.6997 0.0185
vn -0.1501 0.6036 0.7830
vn -0.0560 -0.3252 -0.9440
vn -0.0378 -0.3770 -0.9254
vn -0.9527 0.0855 0.2916
vn -0.8313 -0.5313 -0.1630
vn -0.8014 -0.5806 -0.1439
vn 0.7151 -0.6406 0.2797
vn 0.7330 -0.6400 0.2306
vn -0.7224 0.6270 -0.2916
vn -0.7405 0.6257 -0.2453
vn -0.7152 0.6268 -0.3092
vn 0.6739 -0.6460 0.3586
vn 0.7031 -0.6419 0.3060
vn -0.4568 0.6318 -0.6263
vn -0.5532 0.6356 -0.5386
vn -0.6107 0.6333 -0.4754
vn 0.6456 -0.6509 0.3994
vn 0.5766 -0.6464 0.4997
vn 0.6094 -0.6457 0.4601
vn -0.6586 0.6312 -0.4096
vn -0.7094 0.6266 -0.3226
vn 0.5414 -0.6584 0.5229
vn 0.4365 -0.6488 0.6233
vn 0.7034 0.7108 0.0033
vn -0.0009 -0.3925 -0.9197
vn -0.0633 -0.3284 -0.9424
vn -0.5269 0.1838 -0.8298
vn -0.9524 0.0837 0.2933
vn -0.8482 -0.4987 -0.1784
vn -0.8370 -0.5216 -0.1651
vn -0.8307 -0.5328 -0.1613
vn 0.7088 -0.6419 0.2927
vn -0.7402 0.6258 -0.2458
vn -0.6792 0.6305 -0.3756
vt 0.794903 0.162177
vt 0.982082 0.340179
vt 0.574024 0.000000
vt 0.353674 0.353674
vt 1.000000 0.155373
vt 0.986274 0.194634
vt 0.190599 0.190599
vt 0.195665 0.000000
vt 0.237550 0.000000
vt 1.000000 0.425976
vt 0.462975 0.000000
vt 1.000000 0.396859
vt 0.784662 0.212359
vt 0.425529 0.425529
vt 1.000000 0.000000
vt 1.000000 0.757566
vt 0.235047 0.000000
vt 0.270046 0.000000
vt 0.053322 0.000000
vt 0.710335 0.599997
vt 1.000000 1.000000
vt 1.000000 0.397929
vt 0.890500 0.890500
vt 0.869539 0.586805
vt 0.609362 0.687500
vt 0.596864 0.674337
vt 0.607313 0.656539
vt 0.638746 0.680627
vt 0.638746 0.667931
vt 0.587034 0.718750
vt 0.586331 0.700348
vt 0.655048 0.736254
vt 0.638746 0.736254
vt 0.640469 0.736254
vt 0.612610 0.721152
vt 0.589753 0.750000
vt 0.588480 0.736013
vt 0.638746 0.708350
vt 0.638746 0.692519
vt 0.638746 0.708441
vt 0.638746 0.736254
vt 0.589753 0.750000
vt 0.616922 0.750596
vt 0.612021 0.770895
vt 0.603551 0.000384
vt 1.000000 0.327656
vt 0.768544 0.166022
vt 0.329642 0.327203
vt 0.155373 0.155373
vt 0.425529 0.000000
vt 1.000000 0.050243
vt 0.462975 0.462975
vt 0.731919 0.188846
vt 1.000000 0.799881
vt 0.397929 0.397929
vt 0.176709 0.002640
vt 1.000000 0.888552
vt 0.590900 0.687500
vt 0.638746 0.652814
vt 0.612274 0.718750
vt 0.587034 0.718750
vt 0.616790 0.750000
s 0
usemtl マテリアル
f 23/1/1 38/2/1 25/3/1
f 38/4/2 37/5/2 39/6/2
f 39/7/3 41/8/3 40/9/3
f 25/10/4 27/11/4 28/12/4
f 29/13/5 26/14/5 36/15/5
f 40/16/6 31/17/6 42/18/6
f 42/19/7 32/20/7 36/21/7
f 34/22/8 36/23/8 35/24/8
s 1
f 4/25/9 8/26/10 5/27/10
f 3/28/11 9/29/12 11/28/13
f 4/25/9 21/30/14 20/31/15
f 15/32/16 7/33/17 17/34/18
f 2/35/19 16/36/20 18/37/21
f 1/38/22 11/28/13 13/39/23
f 1/40/22 17/41/18 7/33/17
f 16/42/20 6/43/24 14/44/25
s 0
f 25/3/26 28/45/26 23/1/26
f 23/1/1 22/46/1 38/2/1
f 38/2/1 24/47/1 25/3/1
f 38/4/2 22/48/2 37/5/2
f 39/7/3 37/49/3 41/8/3
f 25/10/4 26/50/4 27/11/4
f 36/15/27 33/51/27 29/13/27
f 29/13/28 27/52/28 26/14/28
f 26/14/29 30/53/29 36/15/29
f 40/16/30 41/54/30 31/17/30
f 36/21/31 34/55/31 42/19/31
f 42/19/32 31/56/32 32/20/32
f 32/20/33 33/57/33 36/21/33
s 1
f 4/25/9 12/58/34 8/26/10
f 3/28/11 10/59/35 9/29/12
f 20/31/15 12/58/34 4/25/9
f 4/25/9 2/60/19 21/30/14
f 18/37/21 21/61/14 2/35/19
f 2/35/19 6/62/24 16/36/20
f 13/39/23 19/40/36 1/38/22
f 1/38/22 3/28/11 11/28/13
f 1/40/22 19/40/36 17/41/18
