# Blender 4.4.1
# www.blender.org
mtllib piece11.mtl
o 立方体.002_cell.058
v 0.009856 0.007505 0.008879
v 0.006341 0.007414 0.000709
v -0.016626 0.007505 0.017202
v -0.018449 0.007414 0.008955
v 0.018597 -0.010991 -0.011805
v 0.018108 -0.006229 -0.016730
v -0.000649 -0.012709 -0.013975
v 0.020043 0.001839 -0.000719
v 0.020442 0.007505 0.004280
v 0.019588 0.007414 -0.005343
v 0.018781 -0.000709 -0.012157
v 0.019194 -0.006236 -0.007723
v -0.037080 0.007414 0.010992
v -0.020101 -0.002593 0.001041
v -0.041102 0.007505 0.019467
v 0.001931 -0.016445 -0.009539
v -0.018876 -0.005604 0.006467
v 0.020442 0.007505 0.004280
v 0.020442 0.007505 0.004280
v 0.019588 0.007414 -0.005343
v 0.019588 0.007414 -0.005343
v 0.020043 0.001839 -0.000719
v 0.019194 -0.006236 -0.007723
v 0.018597 -0.010991 -0.011805
v 0.018108 -0.006229 -0.016730
v 0.018781 -0.000709 -0.012157
v -0.037080 0.007414 0.010992
v -0.037080 0.007414 0.010992
v -0.041102 0.007505 0.019467
v -0.041102 0.007505 0.019467
v -0.020101 -0.002593 0.001041
v -0.000649 -0.012709 -0.013975
v 0.001931 -0.016445 -0.009539
v -0.018876 -0.005604 0.006467
v -0.016626 0.007505 0.017202
v -0.018449 0.007414 0.008955
v 0.009856 0.007505 0.008879
v 0.006341 0.007414 0.000709
vn 0.1413 -0.7046 -0.6953
vn 0.9960 0.0080 -0.0885
vn 0.9942 -0.0117 -0.1071
vn 0.9926 -0.0219 -0.1197
vn -0.6035 -0.7472 -0.2784
vn -0.0022 0.9999 -0.0106
vn -0.0011 0.9999 -0.0111
vn -0.0010 0.9999 -0.0112
vn 0.2690 -0.6415 0.7184
vn 0.3057 -0.6420 0.7032
vn 0.3056 -0.6419 0.7032
vn -0.0037 0.9999 -0.0095
vn -0.0041 0.9999 -0.0092
vn -0.0041 1.0000 -0.0091
vn 0.1799 -0.6416 0.7457
vn -0.0022 0.9999 -0.0105
vn -0.0037 0.9999 -0.0096
vn 0.1514 -0.6417 0.7519
vn 0.0709 -0.6392 0.7657
vn -0.2856 0.6272 -0.7246
vn -0.3238 0.6267 -0.7088
vn -0.3221 0.6279 -0.7085
vn -0.0847 0.6266 -0.7747
vn -0.1657 0.6284 -0.7600
vn -0.1951 0.6279 -0.7534
vn -0.2837 0.6276 -0.7250
vn 0.1410 -0.7153 -0.6845
vn 0.9941 -0.0083 -0.1079
vn 0.3055 -0.6420 0.7032
vt 0.570030 0.000000
vt 1.000000 0.322122
vt 0.509788 0.000000
vt 0.592346 0.009286
vt 0.593106 0.084730
vt 0.547031 0.000000
vt 1.000000 0.431718
vt 0.547031 0.547031
vt 1.000000 0.377814
vt 0.377814 0.377814
vt 0.490212 0.000000
vt 0.431718 0.431718
vt 0.761026 0.432819
vt 0.998975 0.675145
vt 0.491752 0.222036
vt 0.718750 0.750000
vt 0.741584 0.736254
vt 0.745554 0.750000
vt 0.611691 0.809575
vt 0.617182 0.793469
vt 0.625000 0.799211
vt 0.694373 0.736254
vt 0.674211 0.750000
vt 0.678315 0.736254
vt 0.625000 0.812500
vt 0.617542 0.843750
vt 0.611374 0.812500
vt 0.722186 0.736254
vt 0.687500 0.750000
vt 0.625000 0.843750
vt 0.625000 0.870554
vt 0.675222 0.736254
vt 0.673053 0.736254
vt 0.722186 0.736254
vt 0.695121 0.736254
vt 1.000000 0.284452
vt 0.587219 0.587219
vt 0.429970 0.000000
vt 0.568503 0.250420
vt 1.000000 0.633019
vt 0.743642 0.460866
vt 0.614476 0.791461
vt 0.621776 0.796797
vt 0.694373 0.736254
vt 0.678064 0.736254
s 0
usemtl マテリアル
f 24/1/1 32/2/1 25/3/1
f 20/4/2 18/5/2 22/6/2
f 26/7/3 22/8/3 23/9/3
f 23/10/4 25/11/4 26/12/4
f 31/13/5 33/14/5 29/15/5
s 1
f 35/16/6 28/17/7 30/18/8
f 16/19/9 12/20/10 19/21/11
f 38/22/12 9/23/13 21/24/14
f 37/25/9 17/26/15 16/27/9
f 36/28/16 1/29/17 38/22/12
f 17/26/15 3/30/18 15/31/19
f 2/22/20 11/32/21 6/33/22
f 13/17/23 4/28/24 14/34/25
f 14/34/25 2/22/20 7/35/26
s 0
f 24/1/27 33/36/27 32/2/27
f 26/7/28 20/37/28 22/8/28
f 23/10/4 24/38/4 25/11/4
f 29/15/5 27/39/5 31/13/5
f 31/13/5 32/40/5 33/14/5
f 33/14/5 34/41/5 29/15/5
s 1
f 35/16/6 36/28/16 28/17/7
f 19/21/11 37/25/9 16/19/9
f 16/19/9 5/42/10 12/20/10
f 12/20/10 8/43/29 19/21/11
f 38/22/12 1/29/17 9/23/13
f 37/25/9 3/30/18 17/26/15
f 36/28/16 35/16/6 1/29/17
f 6/33/22 7/44/26 2/22/20
f 2/22/20 10/45/21 11/32/21
f 14/34/25 4/28/24 2/22/20
