# Blender 4.4.1
# www.blender.org
mtllib piece1.mtl
o 立方体.002_cell
v 0.001565 0.008107 0.013303
v -0.003900 0.008016 0.005466
v 0.021860 0.008096 -0.002387
v 0.015501 0.008016 -0.008685
v 0.015517 -0.003511 -0.008562
v -0.011400 0.008107 0.018935
v -0.012268 0.008016 0.009289
v -0.012880 -0.010244 0.002824
v -0.002451 -0.010905 -0.003674
v -0.003591 -0.005774 -0.008671
v -0.007623 -0.011002 -0.000152
v 0.009983 -0.000986 -0.013742
v -0.010313 -0.005938 -0.003943
v 0.021860 0.008096 -0.002387
v 0.021860 0.008096 -0.002387
v 0.015501 0.008016 -0.008685
v 0.015501 0.008016 -0.008685
v -0.011400 0.008107 0.018935
v -0.011400 0.008107 0.018935
v -0.012268 0.008016 0.009289
v -0.012268 0.008016 0.009289
v -0.012880 -0.010244 0.002824
v -0.002451 -0.010905 -0.003674
v -0.007623 -0.011002 -0.000152
v -0.003591 -0.005774 -0.008671
v 0.009983 -0.000986 -0.013742
v 0.001565 0.008107 0.013303
v -0.003900 0.008016 0.005466
v 0.015517 -0.003511 -0.008562
v -0.010313 -0.005938 -0.003943
vn 0.7037 -0.0066 -0.7104
vn -0.9960 0.0017 0.0896
vn -0.4127 -0.6762 -0.6103
vn 0.1728 -0.7999 -0.5746
vn 0.4512 -0.6266 0.6355
vn 0.3840 -0.6407 0.6649
vn 0.4470 -0.6159 0.6488
vn 0.3895 -0.6481 0.6544
vn 0.3055 -0.6420 0.7032
vn -0.0048 1.0000 -0.0083
vn -0.0040 1.0000 -0.0090
vn -0.0039 1.0000 -0.0091
vn -0.0053 1.0000 -0.0075
vn -0.0052 1.0000 -0.0074
vn -0.4254 0.6322 -0.6476
vn -0.3238 0.6267 -0.7088
vn -0.3933 0.6313 -0.6684
vn -0.4568 0.6318 -0.6262
vn -0.4565 0.6319 -0.6263
vn 0.6817 -0.0068 -0.7316
vn -0.9517 0.1304 -0.2781
vn -0.4024 -0.6830 -0.6096
vn -0.4343 -0.6763 -0.5950
vn -0.0199 -0.6998 -0.7141
vn 0.4297 -0.5958 0.6785
vt 0.743064 0.000000
vt 0.743876 0.432413
vt 0.689790 0.689790
vt 0.520969 0.166409
vt 0.529384 0.000000
vt 0.604954 0.229656
vt 0.655433 0.059058
vt 0.623568 0.000000
vt 1.000000 0.204063
vt 0.246404 0.246404
vt 0.161770 0.000000
vt 0.197350 0.000000
vt 0.625000 0.750964
vt 0.614128 0.781250
vt 0.614183 0.772944
vt 0.625000 0.781250
vt 0.614231 0.783664
vt 0.656250 0.750000
vt 0.676703 0.736254
vt 0.672525 0.750000
vt 0.639710 0.736254
vt 0.627614 0.748337
vt 0.670816 0.736254
vt 0.666559 0.736254
vt 0.640174 0.736254
vt 0.656478 0.736254
vt 0.776295 0.000000
vt 0.468828 0.000000
vt 1.000000 0.246404
vt 0.550009 0.000000
vt 0.204063 0.204063
vt 0.618390 0.751195
vt 0.625000 0.797525
s 0
usemtl マテリアル
f 29/1/1 16/2/1 14/3/1
f 20/4/2 22/5/2 18/6/2
f 24/7/3 13/8/3 25/9/3
f 23/10/4 26/11/4 29/12/4
s 1
f 15/13/5 11/14/6 9/15/7
f 27/16/8 8/17/9 11/14/6
f 1/18/10 21/19/11 6/20/12
f 17/21/13 1/18/10 3/22/14
f 30/23/15 7/19/16 2/24/17
f 2/24/17 12/25/18 10/26/19
s 0
f 29/1/20 26/27/20 16/2/20
f 20/4/21 13/28/21 22/5/21
f 25/9/22 23/29/22 24/7/22
f 24/7/23 22/30/23 13/8/23
f 23/10/24 25/31/24 26/11/24
s 1
f 9/15/7 5/32/25 15/13/5
f 15/13/5 27/16/8 11/14/6
f 27/16/8 19/33/9 8/17/9
f 1/18/10 28/24/10 21/19/11
f 17/21/13 28/24/10 1/18/10
f 10/26/19 30/24/15 2/24/17
f 2/24/17 4/21/18 12/25/18
