# Blender 4.4.1
# www.blender.org
mtllib piece8.mtl
o 立方体.002_cell.045
v -0.015182 -0.020545 0.003441
v -0.016824 -0.020545 -0.011872
v -0.016824 -0.020545 0.018754
v -0.023363 -0.023101 -0.025133
v -0.021663 -0.029066 -0.024755
v -0.004703 -0.006897 -0.032369
v -0.017431 -0.015019 -0.027841
v -0.008245 -0.002469 -0.032041
v 0.010551 0.012930 -0.038905
v 0.005101 0.015619 -0.037857
v -0.007040 -0.010582 0.036451
v -0.001891 -0.005422 0.034406
v -0.006682 -0.002666 0.033765
v -0.014443 -0.010562 0.036820
v -0.010872 -0.014412 0.037892
v -0.023265 -0.022909 0.032213
v -0.016243 -0.019509 0.039537
v -0.018969 -0.025105 0.034062
v -0.025095 -0.031004 0.017028
v -0.026217 -0.033311 0.009992
v -0.022092 -0.035120 0.012964
v -0.035285 -0.039367 -0.019637
v -0.030743 -0.038146 -0.008967
v -0.023666 -0.038074 0.003441
v -0.019664 -0.015630 0.038452
v 0.010205 0.022357 -0.039734
v 0.017150 0.021352 -0.041303
v 0.033495 0.034417 -0.025596
v 0.025862 0.035856 -0.026947
v 0.031064 0.040008 -0.021865
v 0.039001 0.048532 -0.012337
v 0.046977 0.048618 -0.009636
v 0.038812 0.047287 -0.004842
v 0.044676 0.044828 -0.005737
v 0.033275 0.039326 0.003441
v 0.038293 0.036162 0.003441
v 0.013802 0.018181 0.025145
v 0.018137 0.014534 0.026127
v -0.023363 -0.023101 -0.025133
v -0.017431 -0.015019 -0.027841
v -0.008245 -0.002469 -0.032041
v -0.021663 -0.029066 -0.024755
v -0.004703 -0.006897 -0.032369
v 0.010551 0.012930 -0.038905
v 0.005101 0.015619 -0.037857
v -0.007040 -0.010582 0.036451
v -0.001891 -0.005422 0.034406
v -0.006682 -0.002666 0.033765
v -0.014443 -0.010562 0.036820
v -0.016243 -0.019509 0.039537
v -0.018969 -0.025105 0.034062
v -0.025095 -0.031004 0.017028
v -0.025095 -0.031004 0.017028
v -0.025095 -0.031004 0.017028
v -0.026217 -0.033311 0.009992
v -0.022092 -0.035120 0.012964
v -0.023666 -0.038074 0.003441
v -0.019664 -0.015630 0.038452
v -0.010872 -0.014412 0.037892
v -0.035285 -0.039367 -0.019637
v 0.017150 0.021352 -0.041303
v 0.010205 0.022357 -0.039734
v 0.033495 0.034417 -0.025596
v 0.025862 0.035856 -0.026947
v 0.031064 0.040008 -0.021865
v 0.039001 0.048532 -0.012337
v 0.039001 0.048532 -0.012337
v 0.046977 0.048618 -0.009636
v 0.046977 0.048618 -0.009636
v 0.046977 0.048618 -0.009636
v 0.038812 0.047287 -0.004842
v 0.038812 0.047287 -0.004842
v 0.033275 0.039326 0.003441
v 0.044676 0.044828 -0.005737
v 0.038293 0.036162 0.003441
v 0.018137 0.014534 0.026127
v 0.013802 0.018181 0.025145
v -0.023265 -0.022909 0.032213
vn -0.2555 -0.1334 -0.9576
vn -0.2471 -0.1266 -0.9607
vn 0.0480 0.3191 0.9465
vn -0.6303 -0.3640 0.6858
vn -0.5518 -0.7066 0.4431
vn 0.0213 0.2866 0.9578
vn -0.2580 -0.1341 -0.9568
vn -0.2323 -0.0936 -0.9681
vn -0.0528 0.7183 -0.6937
vn 0.2482 0.6100 -0.7525
vn 0.3496 0.5602 0.7510
vn 0.4042 0.4708 0.7842
vn 0.0626 0.3282 0.9425
vn -0.0654 0.9846 0.1620
vn 0.7030 -0.6419 0.3061
vn 0.7314 -0.6780 0.0728
vn 0.7256 -0.6400 0.2529
vn 0.7282 -0.6712 -0.1387
vn 0.7506 -0.6474 -0.1321
vn -0.0379 -0.1746 0.9839
vn 0.6897 -0.5546 0.4656
vn 0.7218 -0.5565 0.4115
vn 0.7616 -0.6469 -0.0382
vn 0.7278 -0.6858 0.0009
vn 0.7326 -0.6399 0.2320
vn -0.7405 0.6258 0.2452
vn -0.7742 0.6015 0.1969
vn -0.7401 0.6258 0.2460
vn -0.7661 0.6280 -0.1366
vn -0.7352 0.6262 -0.2595
vn -0.7706 0.6280 -0.1090
vn -0.8185 0.5736 -0.0315
vn -0.6372 0.7182 -0.2795
vn 0.0481 0.3093 0.9498
vn -0.7399 0.6257 0.2471
vn -0.7094 0.6270 0.3220
vn -0.7677 0.6282 0.1265
vn -0.7746 0.6268 0.0846
vn -0.7407 0.6258 0.2445
vn -0.6013 -0.7292 0.3268
vn -0.0749 -0.6757 -0.7333
vn -0.7917 0.5184 -0.3233
vn -0.5676 -0.7551 0.3281
vn -0.5710 -0.7488 0.3366
vn 0.7748 -0.6236 -0.1043
vn -0.7398 0.6232 -0.2536
vn -0.7094 0.6270 -0.3220
vn 0.0566 0.3186 0.9462
vn -0.5247 -0.3893 0.7571
vn 0.2479 0.6022 -0.7589
vn 0.3466 0.5497 0.7600
vn 0.2826 0.5479 0.7874
vn -0.0354 0.7389 0.6729
vn 0.2763 0.1097 0.9548
vn 0.7327 -0.6400 -0.2314
vn 0.7330 -0.6400 -0.2304
vn 0.7330 -0.6404 0.2295
vn -0.7117 0.7025 0.0078
vn -0.7764 0.6284 0.0492
vn -0.7088 0.6270 0.3234
vn -0.7747 0.6267 0.0846
vn 0.7858 -0.6058 -0.1249
vt 0.435963 0.028888
vt 0.608541 0.091323
vt 1.000000 0.258152
vt 0.368291 0.000000
vt 0.232854 0.232854
vt 0.329237 0.000000
vt 1.000000 0.231793
vt 0.764771 0.000000
vt 1.000000 0.202300
vt 0.038227 0.000000
vt 0.657698 0.351187
vt 0.000000 0.000000
vt 0.520800 0.520800
vt 0.481571 0.481571
vt 0.878366 0.462379
vt 0.938160 0.000000
vt 0.412624 0.412624
vt 0.360288 0.360288
vt 1.000000 0.706451
vt 0.549852 0.549852
vt 1.000000 0.643886
vt 1.000000 0.631709
vt 0.262210 0.000000
vt 0.306479 0.000000
vt 0.379975 0.000000
vt 0.306479 0.306479
vt 0.262210 0.262210
vt 0.559264 0.448329
vt 1.000000 0.640580
vt 0.379975 0.379975
vt 1.000000 0.608248
vt 0.638146 0.638146
vt 1.000000 0.565884
vt 0.526246 0.405884
vt 0.436795 0.000000
vt 0.608248 0.608248
vt 1.000000 0.270073
vt 0.489438 0.386002
vt 1.000000 0.235229
vt 0.638746 0.608572
vt 0.638746 0.614990
vt 0.625850 0.610721
vt 0.586236 0.695151
vt 0.583052 0.687500
vt 0.589137 0.688084
vt 0.604692 0.563756
vt 0.618114 0.593750
vt 0.573290 0.565928
vt 0.578243 0.656250
vt 0.577354 0.645982
vt 0.617911 0.625000
vt 0.605605 0.656250
vt 0.591315 0.683098
vt 0.581324 0.682784
vt 0.638746 0.569373
vt 0.638746 0.597186
vt 0.638746 0.590146
vt 0.638746 0.652814
vt 0.638746 0.677819
vt 0.638746 0.652814
vt 0.638746 0.650373
vt 0.638746 0.625000
vt 0.392695 0.025835
vt 0.231794 0.231794
vt 0.360288 0.000000
vt 0.638746 0.569373
vt 0.638746 0.569007
vt 0.638746 0.597186
vt 0.638746 0.569659
vt 0.638746 0.638796
vt 0.390077 0.390077
vt 0.512433 0.312705
vt 0.435468 0.435468
vt 0.823775 0.427930
vt 1.000000 0.390077
vt 1.000000 0.435468
vt 0.622841 0.614662
vt 0.575674 0.625000
vt 0.638746 0.680627
vt 0.638746 0.688441
vt 0.293549 0.000000
vt 1.000000 0.232854
vt 0.258152 0.258152
vt 0.729927 0.000000
vt 1.000000 0.481571
vt 1.000000 0.045059
vt 1.000000 0.670763
vt 0.444771 0.000000
vt 0.890443 0.562936
vt 0.444771 0.444771
vt 0.565884 0.565884
vt 0.407955 0.000000
vt 0.562542 0.429779
vt 0.436795 0.436795
vt 0.580799 0.565028
vt 0.593412 0.563979
vt 0.609484 0.564233
vt 0.574000 0.593750
vt 0.575674 0.625000
vt 0.594251 0.676713
vt 0.589370 0.687500
vt 0.638746 0.569556
vt 0.638746 0.672599
vt 0.638746 0.568981
vt 0.638746 0.570492
vt 0.624895 0.610630
vt 0.617911 0.625000
s 0
usemtl マテリアル
f 39/1/1 40/2/1 43/3/1
f 44/4/2 41/5/2 45/6/2
f 46/7/3 48/8/3 49/9/3
f 58/10/4 51/11/4 50/12/4
f 51/13/5 78/14/5 54/15/5
f 58/16/6 59/17/6 49/18/6
f 42/19/7 22/20/7 39/21/7
f 44/22/8 62/23/8 61/24/8
f 64/25/9 61/26/9 62/27/9
f 65/28/10 68/29/10 64/30/10
f 74/31/11 69/32/11 71/33/11
f 73/34/12 76/35/12 74/36/12
f 47/37/13 77/38/13 48/39/13
s 1
f 67/40/14 72/41/14 32/42/14
f 17/43/15 18/44/16 15/45/17
f 9/46/18 28/47/19 60/48/20
f 53/49/21 21/50/22 36/51/23
f 38/52/24 11/53/25 18/54/16
f 7/55/26 2/56/27 29/57/28
f 52/58/29 14/59/30 37/60/31
f 37/61/31 1/62/32 3/60/33
s 0
f 59/63/34 46/64/34 49/65/34
s 1
f 26/66/35 8/67/36 7/55/26
f 30/68/37 1/62/32 33/41/38
f 4/69/39 23/56/40 2/56/27
f 57/62/41 2/56/27 23/56/40
f 1/62/32 55/70/42 52/60/29
s 0
f 20/71/43 24/72/43 56/73/43
f 19/74/44 20/75/44 56/76/44
s 1
f 28/47/19 34/77/45 57/78/41
f 14/79/30 16/79/46 25/80/47
s 0
f 43/3/1 42/81/1 39/1/1
f 40/2/1 41/82/1 43/3/1
f 44/4/2 43/83/2 41/5/2
f 46/7/48 47/84/48 48/8/48
f 58/10/49 78/85/49 51/11/49
f 58/16/6 50/86/6 59/17/6
f 44/22/8 45/87/8 62/23/8
f 64/25/50 63/88/50 61/26/50
f 65/28/10 66/89/10 68/29/10
f 68/29/10 63/90/10 64/30/10
f 74/36/51 71/91/51 73/34/51
f 73/34/52 77/92/52 76/35/52
f 76/35/53 75/93/53 74/36/53
f 47/37/13 76/94/13 77/38/13
s 1
f 5/95/54 6/96/55 9/46/18
f 9/46/18 27/97/56 28/47/19
f 28/47/19 23/98/40 60/48/20
f 60/48/20 5/95/54 9/46/18
f 36/51/23 38/52/24 53/49/21
f 21/50/22 57/99/41 36/51/23
f 18/54/16 53/49/21 38/52/24
f 38/52/24 12/100/57 11/53/25
f 11/53/25 15/101/17 18/54/16
f 29/57/28 26/66/35 7/55/26
f 7/55/26 4/102/39 2/56/27
f 2/56/27 30/68/37 29/57/28
f 37/60/31 3/60/33 52/58/29
f 52/58/29 16/79/46 14/59/30
f 14/59/30 13/103/58 37/60/31
f 37/61/31 35/62/59 1/62/32
f 26/66/35 10/104/60 8/67/36
f 33/41/38 31/40/61 30/68/37
f 30/68/37 2/56/27 1/62/32
f 1/62/32 35/62/59 33/41/38
f 4/69/39 60/105/20 23/56/40
f 57/62/41 1/62/32 2/56/27
f 52/60/29 3/60/33 1/62/32
f 1/62/32 57/62/41 55/70/42
f 57/78/41 23/98/40 28/47/19
f 28/47/19 70/106/62 34/77/45
f 34/77/45 36/107/23 57/78/41
