# Blender 4.4.1
# www.blender.org
mtllib piece5.mtl
o 立方体.002_cell.022
v 0.005559 -0.039144 -0.003785
v 0.001854 0.028374 -0.003874
v 0.004809 0.028175 0.000947
v -0.000632 0.000564 0.003392
v -0.003444 0.000564 -0.004233
v 0.004851 0.000564 0.005998
v -0.005366 0.027463 0.001085
v -0.005046 0.026476 -0.010004
v -0.000725 0.027560 0.007077
v -0.006452 0.027414 -0.004233
v -0.002978 -0.016438 -0.008523
v -0.004178 -0.039755 -0.006572
v -0.003474 -0.039082 0.000271
v 0.004661 -0.038099 0.006899
v 0.004999 0.026922 0.008962
v 0.005562 -0.021557 0.006591
v -0.006452 0.027414 -0.004233
v -0.005366 0.027463 0.001085
v -0.005046 0.026476 -0.010004
v -0.000725 0.027560 0.007077
v 0.004999 0.026922 0.008962
v -0.002978 -0.016438 -0.008523
v -0.004178 -0.039755 -0.006572
v -0.003444 0.000564 -0.004233
v -0.003474 -0.039082 0.000271
v 0.004661 -0.038099 0.006899
v 0.004851 0.000564 0.005998
v 0.005562 -0.021557 0.006591
vn -0.1154 0.9932 0.0145
vn -0.1049 0.9772 -0.1845
vn -0.0411 0.9916 0.1223
vn 0.8525 0.0461 -0.5206
vn 0.6583 0.0351 -0.7519
vn 0.7859 0.1715 -0.5941
vn 0.0382 -0.9942 0.1005
vn 0.9847 -0.0250 0.1727
vn 0.9947 -0.0525 0.0887
vn -0.9058 -0.1035 0.4109
vn -0.7343 -0.0534 0.6768
vn -0.5809 -0.1007 0.8077
vn -0.9629 -0.0470 0.2658
vn -0.9938 -0.1113 0.0027
vn -0.4181 -0.0494 0.9071
vn -0.8957 0.0018 0.4447
vn -0.6005 -0.0113 0.7995
vn -0.0941 0.0237 0.9953
vn -0.9697 -0.1086 -0.2186
vn -0.9974 0.0140 0.0707
vn -0.3216 -0.1040 0.9411
vn 0.0354 -0.9949 0.0943
vn -0.9730 0.0310 -0.2285
vn 0.1536 0.9789 -0.1348
vn -0.1895 0.9694 0.1561
vn -0.7753 -0.1826 -0.6047
vn 0.2794 -0.0943 -0.9555
vn 0.9982 0.0307 -0.0524
vn 0.9997 0.0127 -0.0218
vt 0.916805 0.000000
vt 1.000000 0.000000
vt 0.981644 0.047025
vt 0.087338 0.087338
vt 0.000000 0.000000
vt 0.768805 0.023294
vt 0.933666 0.000000
vt 1.000000 1.000000
vt 0.916805 0.916805
vt 0.464169 0.350083
vt 0.646537 0.605582
vt 0.084537 0.084537
vt 0.125948 0.056196
vt 0.782842 0.388849
vt 0.749766 0.749766
vt 0.717755 0.717755
vt 1.000000 0.839205
vt 0.520508 0.031250
vt 0.500000 0.000000
vt 0.520546 0.000000
vt 0.500000 0.062500
vt 0.520461 0.062500
vt 0.520437 0.093750
vt 0.500000 1.000000
vt 0.500000 0.968750
vt 0.520546 1.000000
vt 0.520461 0.062500
vt 0.500000 0.031250
vt 0.489884 0.031250
vt 0.500000 0.906250
vt 0.490092 0.893161
vt 0.494324 0.894862
vt 0.520107 0.168615
vt 0.519876 0.187500
vt 0.500000 0.156250
vt 0.489654 0.156250
vt 0.489709 0.125000
vt 0.489994 0.968750
vt 0.489942 1.000000
vt 0.520544 0.952992
vt 0.520535 0.968750
vt 0.500000 0.937500
vt 0.211879 0.211879
vt 0.192960 0.166646
vt 0.500000 0.187500
vt 0.495637 0.187500
vt 0.926748 0.255599
vt 0.213981 0.000000
vt 0.717755 0.000000
s 0
usemtl マテリアル
f 18/1/1 2/2/1 10/3/1
f 10/4/2 2/5/2 19/6/2
f 21/7/3 2/8/3 18/9/3
f 3/5/4 1/2/4 2/8/4
f 2/8/5 1/5/5 19/2/5
f 1/5/6 22/10/6 5/11/6
f 13/12/7 1/5/7 14/13/7
f 6/14/8 1/2/8 21/15/8
f 1/8/9 28/16/9 14/17/9
s 1
f 7/18/10 4/19/11 9/20/12
f 24/21/13 7/22/10 17/23/14
f 4/24/11 27/25/15 9/26/12
f 7/27/10 24/21/13 4/28/11
f 25/29/16 4/28/11 24/21/13
f 27/30/15 26/31/17 16/32/18
f 17/33/14 8/34/19 24/35/13
f 24/35/13 12/36/20 25/37/16
f 26/38/17 4/24/11 25/39/16
f 15/40/21 9/41/12 27/42/15
s 0
f 23/43/22 1/5/22 13/44/22
s 1
f 24/45/13 11/46/23 12/36/20
s 0
f 18/9/24 20/47/24 21/7/24
f 21/7/25 3/2/25 2/8/25
f 5/11/26 19/8/26 1/5/26
f 1/5/27 23/48/27 22/10/27
f 6/14/28 28/49/28 1/2/28
f 1/2/29 3/8/29 21/15/29
s 1
f 26/38/17 27/25/15 4/24/11
