# Blender 4.4.1
# www.blender.org
mtllib piece10.mtl
o 立方体.002_cell.056
v 0.027417 0.007814 -0.017542
v 0.027417 0.007723 -0.009575
v -0.027602 0.007814 -0.006578
v -0.024087 0.007723 0.001592
v -0.001120 0.007814 -0.014901
v 0.000704 0.007723 -0.006654
v 0.039557 0.004208 -0.005402
v 0.043195 0.007723 -0.007849
v 0.046723 0.007814 -0.015755
v 0.040105 0.001529 -0.011122
v 0.014617 -0.008441 0.004907
v 0.027417 -0.002460 -0.001333
v 0.012655 -0.012219 0.000548
v 0.027417 -0.005295 -0.006601
v -0.021178 -0.011600 0.008352
v -0.036422 -0.005631 0.019035
v -0.019200 -0.007634 0.012947
v 0.003460 -0.008977 0.006553
v 0.002416 -0.012784 0.001967
v -0.042338 -0.009211 0.015367
v -0.043865 0.000833 0.016720
v -0.050834 0.007814 0.003515
v -0.046453 0.007723 0.011810
v 0.046723 0.007814 -0.015755
v 0.046723 0.007814 -0.015755
v 0.040105 0.001529 -0.011122
v 0.043195 0.007723 -0.007849
v 0.043195 0.007723 -0.007849
v 0.039557 0.004208 -0.005402
v 0.027417 -0.002460 -0.001333
v 0.014617 -0.008441 0.004907
v 0.012655 -0.012219 0.000548
v 0.027417 -0.005295 -0.006601
v -0.021178 -0.011600 0.008352
v -0.042338 -0.009211 0.015367
v -0.050834 0.007814 0.003515
v -0.050834 0.007814 0.003515
v -0.036422 -0.005631 0.019035
v -0.019200 -0.007634 0.012947
v 0.002416 -0.012784 0.001967
v 0.003460 -0.008977 0.006553
v -0.046453 0.007723 0.011810
v -0.046453 0.007723 0.011810
v -0.043865 0.000833 0.016720
v 0.027417 0.007814 -0.017542
v 0.027417 0.007723 -0.009575
v -0.027602 0.007814 -0.006578
v -0.001120 0.007814 -0.014901
v -0.024087 0.007723 0.001592
v 0.000704 0.007723 -0.006654
vn 0.7614 -0.5560 0.3333
vn 0.5405 -0.7408 0.3987
vn -0.8843 0.0006 0.4670
vn -0.4346 -0.1847 0.8815
vn -0.0000 0.9999 0.0113
vn -0.0011 0.9999 0.0111
vn -0.0010 0.9999 0.0110
vn -0.2690 -0.6415 -0.7184
vn -0.3056 -0.6420 -0.7032
vn -0.3055 -0.6420 -0.7032
vn -0.0000 -0.6408 -0.7677
vn -0.0709 -0.6392 -0.7658
vn -0.1511 -0.6417 -0.7519
vn -0.1514 -0.6417 -0.7518
vn -0.2651 -0.6414 -0.7200
vn 0.0021 0.9999 0.0106
vn 0.0037 0.9999 0.0095
vn 0.0040 1.0000 0.0090
vn 0.0039 1.0000 0.0089
vn 0.0709 -0.6392 -0.7658
vn -0.0261 -0.6405 -0.7675
vn 0.1656 0.6284 0.7601
vn 0.2820 0.6268 0.7264
vn 0.1657 0.6285 0.7599
vn -0.0847 0.6269 0.7745
vn -0.0000 0.6291 0.7773
vn 0.0310 0.6288 0.7769
vn 0.3236 0.6268 0.7088
vn 0.3236 0.6267 0.7089
vn 0.0842 0.6271 0.7744
vn 0.1164 -0.7964 0.5934
vn -0.9062 -0.1887 0.3785
vn -0.0000 0.9999 0.0114
vn 0.0709 -0.6392 -0.7657
vn 0.2857 0.6269 0.7248
vn 0.3235 0.6265 0.7091
vn 0.1285 -0.7753 0.6184
vn 0.1282 -0.7773 0.6160
vn 0.1162 -0.7980 0.5914
vn 0.1275 -0.7780 0.6152
vn 0.1430 -0.7218 0.6772
vt 0.516733 0.000000
vt 0.560824 0.130133
vt 0.467400 0.000000
vt 0.432092 0.246623
vt 0.415618 0.000000
vt 0.516733 0.516733
vt 0.404589 0.170973
vt 0.321024 0.031257
vt 0.403350 0.111202
vt 0.710843 0.000000
vt 1.000000 0.200952
vt 1.000000 0.249607
vt 0.750000 0.500000
vt 0.733571 0.513746
vt 0.728858 0.500000
vt 0.625000 0.312500
vt 0.616769 0.281762
vt 0.625000 0.283336
vt 0.625000 0.375000
vt 0.613602 0.356606
vt 0.613281 0.343750
vt 0.625000 0.343750
vt 0.613954 0.312500
vt 0.777814 0.513746
vt 0.812500 0.500000
vt 0.805627 0.513746
vt 0.832740 0.513746
vt 0.841664 0.500000
vt 0.781250 0.500000
vt 0.621424 0.389457
vt 0.617542 0.375000
vt 0.805627 0.513746
vt 0.777814 0.513746
vt 0.737070 0.513746
vt 0.750000 0.513746
vt 0.750000 0.513746
vt 0.805627 0.513746
vt 0.833441 0.513746
vt 0.764803 0.513746
vt 0.415618 0.415618
vt 0.490805 0.297327
vt 0.480659 0.000000
vt 0.687886 0.236062
vt 0.467400 0.467400
vt 0.378054 0.000000
vt 0.477524 0.284099
vt 0.231726 0.000000
vt 0.613954 0.312500
vt 0.625000 0.396142
vt 0.733571 0.513746
vt 0.827531 0.513746
vt 0.519909 0.308321
vt 0.718888 0.486664
vt 0.378054 0.378054
vt 0.708981 0.454960
vt 0.451638 0.000000
s 0
usemtl マテリアル
f 26/1/1 27/2/1 29/3/1
f 30/4/2 32/5/2 26/6/2
f 36/7/3 44/8/3 42/9/3
f 44/10/4 20/11/4 38/12/4
s 1
f 45/13/5 28/14/6 25/15/7
f 47/16/8 35/17/9 37/18/10
f 1/19/11 13/20/12 40/21/13
f 48/22/14 34/23/15 47/16/8
f 50/24/16 3/25/17 49/26/17
f 43/27/18 3/25/17 22/28/19
f 50/24/16 45/13/5 5/29/16
f 1/19/11 10/30/20 14/31/21
f 6/24/22 39/32/23 41/33/24
f 7/34/25 2/35/26 12/36/27
f 39/37/23 23/27/28 21/38/29
f 2/35/26 41/33/24 11/39/30
s 0
f 32/40/31 17/41/31 20/42/31
f 26/1/1 24/43/1 27/2/1
f 26/6/2 29/44/2 30/4/2
f 30/4/2 31/45/2 32/5/2
f 32/5/2 33/46/2 26/6/2
f 36/7/32 20/47/32 44/8/32
s 1
f 45/13/5 46/35/33 28/14/6
f 47/16/8 34/48/15 35/17/9
f 40/21/13 48/22/14 1/19/11
f 1/19/11 14/31/21 13/20/12
f 48/22/14 40/21/13 34/23/15
f 50/24/16 5/29/16 3/25/17
f 43/27/18 49/26/17 3/25/17
f 50/24/16 46/35/33 45/13/5
f 1/19/11 9/49/34 10/30/20
f 6/24/22 4/26/35 39/32/23
f 7/34/25 8/50/25 2/35/26
f 21/38/29 16/51/36 39/37/23
f 39/37/23 4/26/35 23/27/28
f 11/39/30 12/36/27 2/35/26
f 2/35/26 6/24/22 41/33/24
s 0
f 15/52/37 19/53/37 32/40/37
f 32/40/38 31/54/38 18/55/38
f 17/41/39 38/56/39 20/42/39
f 32/40/40 18/55/40 17/41/40
f 20/42/41 15/52/41 32/40/41
