# Blender 4.4.1
# www.blender.org
mtllib piece12.mtl
o 立方体.002_cell.062
v 0.003051 -0.000446 -0.012594
v 0.008465 0.000038 -0.011732
v 0.009504 -0.005554 0.007351
v 0.014616 0.002300 0.002162
v 0.013715 -0.005554 -0.003804
v 0.013321 0.003384 -0.004543
v 0.010014 0.004610 -0.009498
v 0.008514 -0.005554 -0.011786
v 0.004340 0.005462 -0.008114
v 0.001754 0.001528 0.013263
v -0.002645 -0.005554 0.017143
v -0.002846 0.001035 0.016994
v 0.008593 0.002057 0.007726
v -0.019565 0.003138 0.009430
v -0.016834 -0.005554 0.010740
v -0.021581 -0.005554 0.008452
v -0.000567 0.005645 -0.005689
v -0.010503 0.005415 -0.000912
v -0.005387 0.005591 -0.003332
v 0.002706 -0.005554 -0.012604
v -0.016348 0.004672 0.002926
v -0.002317 -0.005554 -0.011581
v 0.013715 -0.005554 -0.003804
v 0.008514 -0.005554 -0.011786
v 0.001754 0.001528 0.013263
v -0.002846 0.001035 0.016994
v 0.014616 0.002300 0.002162
v 0.013321 0.003384 -0.004543
v 0.009504 -0.005554 0.007351
v -0.002645 -0.005554 0.017143
v 0.008593 0.002057 0.007726
v 0.010014 0.004610 -0.009498
v -0.016834 -0.005554 0.010740
v -0.021581 -0.005554 0.008452
v -0.010503 0.005415 -0.000912
v -0.005387 0.005591 -0.003332
v -0.002317 -0.005554 -0.011581
v 0.004340 0.005462 -0.008114
v -0.000567 0.005645 -0.005689
v -0.019565 0.003138 0.009430
v -0.016348 0.004672 0.002926
v 0.002706 -0.005554 -0.012604
vn 0.6769 0.0448 0.7347
vn 0.8758 -0.3516 0.3306
vn 0.9823 0.0280 -0.1852
vn 0.8306 -0.0094 -0.5567
vn -0.1411 0.4729 -0.8697
vn -0.3310 0.6149 -0.7158
vn 0.6271 0.0367 0.7781
vn -0.4113 0.0081 0.9115
vn -0.4342 -0.0007 0.9008
vn -0.5613 0.4524 -0.6931
vn -0.3893 0.4763 -0.7884
vn 0.1394 -0.0075 -0.9902
vn -0.1996 0.0154 -0.9798
vn -0.8901 0.2494 -0.3815
vn 0.1422 0.9771 0.1584
vn 0.1767 0.9765 0.1237
vn 0.1042 0.9762 0.1900
vn 0.1040 0.9762 0.1901
vn 0.0749 0.9756 0.2066
vn 0.0474 0.9748 0.2182
vn 0.0493 0.9746 0.2184
vn 0.0771 0.9756 0.2057
vn -0.0000 -1.0000 -0.0000
vn 0.0207 0.9726 0.2316
vn 0.8377 0.0126 -0.5459
vn 0.0746 0.5921 -0.8024
vn -0.3906 0.4757 -0.7881
vn -0.5462 0.3378 -0.7665
vn 0.1561 0.0108 -0.9877
vn -0.7208 -0.0057 -0.6931
vn 0.1384 0.9770 0.1622
vn 0.0152 0.9715 0.2366
vt 0.973846 0.890556
vt 0.231742 0.000000
vt 1.000000 0.796666
vt 0.921732 0.921732
vt 0.796666 0.796666
vt 1.000000 0.797371
vt 0.729066 0.000000
vt 0.858854 0.000000
vt 0.920994 0.920994
vt 1.000000 0.000000
vt 0.863892 0.863892
vt 0.727655 0.727655
vt 0.000000 0.000000
vt 1.000000 0.412869
vt 0.349924 0.349924
vt 0.412869 0.412869
vt 0.197948 0.000000
vt 0.415244 0.000000
vt 0.878269 0.628923
vt 0.554526 0.253046
vt 0.506742 0.275429
vt 1.000000 0.235448
vt 0.415244 0.415244
vt 0.235448 0.235448
vt 0.099204 0.000000
vt 0.234195 0.000000
vt 0.197948 0.197948
vt 0.524359 0.083988
vt 0.262281 0.262281
vt 1.000000 0.100860
vt 0.092930 0.092930
vt 1.000000 1.000000
vt 0.907235 0.907235
vt 0.366732 0.000000
vt 0.234195 0.234195
vt 0.099204 0.099204
vt 0.432008 0.750000
vt 0.417919 0.729833
vt 0.424876 0.724281
vt 0.403898 0.768852
vt 0.433539 0.781250
vt 0.399055 0.812500
vt 0.431618 0.843750
vt 0.394927 0.831173
vt 0.403487 0.781250
vt 0.433085 0.812500
vt 0.399055 0.812500
vt 0.237845 0.701624
vt 0.292265 0.659976
vt 0.326048 0.695050
vt 0.425392 0.875000
vt 0.400905 0.843750
vt 0.899140 0.000000
vt 1.000000 0.349924
vt 0.338174 0.000000
vt 1.000000 0.666185
vt 1.000000 0.102512
vt 1.000000 0.262281
vt 0.633268 0.000000
vt 1.000000 0.048040
vt 0.404942 0.741884
vt 0.405527 0.750000
vt 0.433085 0.812500
vt 0.312139 0.707749
vt 0.283630 0.724658
vt 0.248864 0.705070
vt 0.281656 0.658972
vt 0.303121 0.662696
vt 0.410361 0.875000
s 0
usemtl マテリアル
f 27/1/1 31/2/1 29/3/1
f 27/4/2 29/5/2 23/6/2
f 23/7/3 28/8/3 27/9/3
f 2/10/4 28/11/4 23/12/4
f 2/13/5 38/14/5 32/15/5
f 38/16/6 1/13/6 17/17/6
f 30/18/7 31/19/7 25/20/7
f 26/21/8 33/22/8 30/23/8
f 33/24/9 40/25/9 34/26/9
f 37/10/10 17/27/10 1/13/10
f 37/13/11 35/28/11 36/29/11
f 1/13/12 24/30/12 42/31/12
f 37/10/13 1/32/13 42/33/13
f 41/34/14 34/35/14 40/36/14
s 1
f 9/37/15 6/38/16 7/39/16
f 13/40/17 9/37/15 39/41/18
f 10/42/19 18/43/20 12/44/21
f 13/45/17 19/46/22 10/47/19
f 16/48/23 20/49/23 5/50/23
f 21/51/24 12/52/21 18/43/20
s 0
f 23/12/25 24/53/25 2/10/25
f 2/10/4 32/54/4 28/11/4
f 2/13/26 1/10/26 38/14/26
f 25/20/7 26/55/7 30/18/7
f 30/18/7 29/56/7 31/19/7
f 26/21/8 40/57/8 33/22/8
f 37/10/27 36/58/27 17/27/27
f 37/13/28 41/59/28 35/28/28
f 1/13/29 2/10/29 24/30/29
f 41/34/30 37/60/30 34/35/30
s 1
f 9/37/15 4/61/31 6/38/16
f 13/40/17 4/62/31 9/37/15
f 10/42/19 19/63/22 18/43/20
f 13/45/17 39/41/18 19/46/22
f 5/50/23 3/64/23 11/65/23
f 11/65/23 15/66/23 16/48/23
f 16/48/23 22/67/23 20/49/23
f 20/49/23 8/68/23 5/50/23
f 5/50/23 11/65/23 16/48/23
f 21/51/24 14/69/32 12/52/21
