# Blender 4.4.1
# www.blender.org
mtllib piece19.mtl
o 立方体.002_cell.093
v -0.006541 0.011033 -0.028480
v 0.000663 0.011124 -0.035684
v 0.026769 0.011124 0.011046
v 0.018600 0.011033 0.014561
v 0.015954 0.011124 -0.013847
v 0.008118 0.011033 -0.008383
v 0.035092 0.011124 0.037528
v 0.026845 0.011033 0.039352
v -0.021174 0.011124 -0.050976
v -0.026639 0.011033 -0.043139
v 0.021957 0.004852 0.040372
v 0.015165 -0.000616 0.033855
v 0.022948 -0.001986 0.035299
v 0.027043 0.001294 0.039216
v 0.027693 0.011033 0.047108
v 0.036242 0.011124 0.049954
v -0.011630 -0.018254 0.005076
v -0.009725 -0.023089 0.000331
v 0.002378 -0.010906 0.021542
v 0.006676 -0.015004 0.019692
v -0.040244 0.008453 -0.056822
v -0.017923 -0.020061 -0.001064
v -0.021933 -0.015351 -0.013089
v -0.019058 -0.021087 -0.015964
v -0.029712 -0.006635 -0.038472
v -0.032293 -0.001270 -0.034843
v -0.040862 0.011033 -0.049637
v -0.014410 -0.024317 -0.004530
v 0.021957 0.004852 0.040372
v 0.027693 0.011033 0.047108
v 0.027693 0.011033 0.047108
v 0.015165 -0.000616 0.033855
v 0.022948 -0.001986 0.035299
v 0.027043 0.001294 0.039216
v 0.036242 0.011124 0.049954
v 0.036242 0.011124 0.049954
v 0.002378 -0.010906 0.021542
v 0.006676 -0.015004 0.019692
v -0.040244 0.008453 -0.056822
v -0.040244 0.008453 -0.056822
v -0.029712 -0.006635 -0.038472
v -0.019058 -0.021087 -0.015964
v -0.017923 -0.020061 -0.001064
v -0.021933 -0.015351 -0.013089
v -0.032293 -0.001270 -0.034843
v -0.040862 0.011033 -0.049637
v -0.040862 0.011033 -0.049637
v 0.035092 0.011124 0.037528
v 0.026845 0.011033 0.039352
v 0.018600 0.011033 0.014561
v 0.026769 0.011124 0.011046
v 0.008118 0.011033 -0.008383
v 0.015954 0.011124 -0.013847
v -0.026639 0.011033 -0.043139
v -0.006541 0.011033 -0.028480
v 0.000663 0.011124 -0.035684
v -0.021174 0.011124 -0.050976
v -0.011630 -0.018254 0.005076
v -0.009725 -0.023089 0.000331
v -0.014410 -0.024317 -0.004530
vn -0.2469 -0.6001 0.7608
vn -0.3313 -0.7241 0.6049
vn -0.2469 -0.6019 0.7595
vn -0.8576 -0.4984 0.1270
vn -0.3704 -0.7511 0.5466
vn -0.0106 0.9999 0.0022
vn -0.0109 0.9999 0.0011
vn -0.0110 0.9999 0.0010
vn 0.7433 -0.6414 -0.1900
vn 0.7519 -0.6417 -0.1514
vn 0.7657 -0.6392 -0.0709
vn -0.0105 0.9999 0.0022
vn -0.0095 0.9999 0.0037
vn -0.0084 1.0000 0.0047
vn -0.0082 1.0000 0.0047
vn 0.7184 -0.6415 -0.2690
vn 0.7330 -0.6400 -0.2304
vn -0.0217 0.9672 -0.2530
vn -0.0081 0.9992 -0.0394
vn -0.0275 0.9400 -0.3399
vn -0.0064 1.0000 0.0064
vn -0.0063 1.0000 0.0063
vn 0.5673 -0.6538 -0.5007
vn 0.6629 -0.6487 -0.3738
vn 0.6517 -0.6507 -0.3898
vn -0.0048 1.0000 0.0083
vn 0.7082 -0.6454 -0.2861
vn 0.3055 -0.6420 -0.7032
vn 0.3788 -0.6476 -0.6611
vn 0.4026 -0.6485 -0.6460
vn 0.5346 -0.6546 -0.5346
vn -0.5454 0.6365 0.5454
vn -0.4224 0.6320 0.6497
vn -0.5775 0.6357 0.5123
vn -0.7747 0.6266 0.0847
vn -0.7600 0.6284 0.1657
vn -0.7509 0.6277 0.2054
vn -0.7193 0.6269 0.2993
vn -0.6683 0.6314 0.3933
vn -0.6617 0.6316 0.4040
vn -0.3238 0.6267 0.7088
vn -0.3934 0.6314 0.6683
vn -0.7248 0.6269 0.2856
vn -0.7402 0.6258 0.2461
vn -0.2469 -0.6001 0.7609
vn -0.3664 -0.7212 0.5879
vn -0.3887 -0.6856 0.6156
vn -0.8687 -0.4853 0.0996
vn -0.9285 -0.1724 0.3288
vn -0.7688 -0.6395 0.0059
vn -0.6996 -0.7039 -0.1225
vn 0.6232 -0.6488 -0.4366
vn -0.6267 0.6317 0.4564
vt 0.605371 0.137708
vt 0.445320 0.000000
vt 0.950125 0.319278
vt 0.265511 0.184184
vt 0.178342 0.071225
vt 1.000000 0.742646
vt 1.000000 0.621432
vt 0.702218 0.693907
vt 1.000000 0.554679
vt 0.789087 0.420924
vt 0.947296 0.000000
vt 0.824134 0.444195
vt 1.000000 0.919323
vt 0.993133 0.993133
vt 0.954995 0.954995
vt 0.625000 0.593750
vt 0.638746 0.605262
vt 0.625000 0.607357
vt 0.619407 0.593750
vt 0.638746 0.597186
vt 0.625000 0.562500
vt 0.638746 0.569373
vt 0.638746 0.541559
vt 0.625000 0.531250
vt 0.617541 0.587981
vt 0.683801 0.513746
vt 0.656250 0.500000
vt 0.683049 0.506121
vt 0.638746 0.513746
vt 0.625000 0.500000
vt 0.606674 0.500000
vt 0.605535 0.527228
vt 0.666559 0.513746
vt 0.610003 0.561957
vt 0.605892 0.531250
vt 0.625000 0.442555
vt 0.625000 0.468750
vt 0.614896 0.468750
vt 0.666559 0.513746
vt 0.638746 0.605262
vt 0.638746 0.588196
vt 0.378568 0.000000
vt 0.581644 0.082683
vt 0.836430 0.286296
vt 0.012378 0.000000
vt 1.000000 0.696791
vt 0.742646 0.742646
vt 0.760004 0.677900
vt 0.709140 0.709140
vt 0.896498 0.106371
vt 0.992008 0.000000
vt 0.927684 0.139098
vt 0.610134 0.562500
vt 0.604716 0.513261
vt 0.638746 0.531637
s 0
usemtl マテリアル
f 29/1/1 33/2/1 35/3/1
f 17/4/2 59/5/2 37/6/2
f 32/7/3 38/8/3 33/9/3
f 41/10/4 60/11/4 45/12/4
f 59/13/5 43/14/5 60/15/5
s 1
f 48/16/6 31/17/7 36/18/8
f 14/19/9 7/16/10 16/18/11
f 49/20/12 51/21/13 50/22/13
f 52/23/14 51/21/13 53/24/15
f 3/21/16 14/19/9 13/25/17
f 47/26/18 57/27/19 40/28/20
f 55/29/21 53/24/15 56/30/22
f 24/31/23 5/24/24 18/32/25
f 55/29/21 57/27/19 54/33/26
f 5/24/24 20/34/27 18/35/25
f 21/36/28 9/37/29 25/38/30
f 25/38/30 2/30/31 24/31/23
f 1/29/32 26/39/33 23/29/34
f 15/40/35 8/20/36 11/20/37
f 19/22/38 6/23/39 58/23/40
f 27/26/41 26/33/33 10/33/42
f 4/22/43 12/41/44 11/20/37
f 58/23/40 1/29/32 23/29/34
s 0
f 29/1/45 32/42/45 33/2/45
f 33/2/45 34/43/45 35/3/45
f 35/3/45 30/44/45 29/1/45
f 17/4/46 43/45/46 59/5/46
f 59/5/47 38/46/47 37/6/47
f 32/7/3 37/47/3 38/8/3
f 46/48/48 39/49/48 41/10/48
f 41/10/49 42/50/49 60/11/49
f 60/11/50 43/51/50 44/52/50
f 45/12/48 46/48/48 41/10/48
f 60/11/51 44/52/51 45/12/51
s 1
f 48/16/6 49/20/12 31/17/7
f 49/20/12 48/16/6 51/21/13
f 52/23/14 50/22/13 51/21/13
f 13/25/17 20/53/27 3/21/16
f 3/21/16 7/16/10 14/19/9
f 47/26/18 54/33/26 57/27/19
f 55/29/21 52/23/14 53/24/15
f 18/32/25 28/54/52 24/31/23
f 24/31/23 2/30/31 5/24/24
f 55/29/21 56/30/22 57/27/19
f 5/24/24 3/21/16 20/34/27
f 25/38/30 9/37/29 2/30/31
f 1/29/32 10/33/42 26/39/33
f 19/22/38 4/22/43 6/23/39
f 11/20/37 8/20/36 4/22/43
f 4/22/43 19/22/38 12/41/44
f 23/29/34 22/55/53 58/23/40
f 58/23/40 6/23/39 1/29/32
