# Blender 4.4.1
# www.blender.org
mtllib piece3.mtl
o 立方体.002_cell.011
v 0.022522 0.010578 -0.018912
v 0.022208 -0.000218 -0.018993
v 0.016512 0.007170 -0.010193
v 0.000882 -0.006988 0.001155
v 0.014585 0.004616 0.001352
v 0.010892 -0.006988 -0.014060
v 0.010348 0.003373 0.005539
v -0.015402 -0.006988 -0.002531
v 0.009680 0.006501 -0.013472
v 0.013500 0.013303 -0.014567
v -0.007898 -0.006988 0.014246
v 0.006703 0.002305 0.009133
v -0.018201 -0.006988 0.002121
v -0.019929 -0.001041 0.002532
v -0.019698 -0.002779 0.018254
v -0.000453 0.000525 0.014655
v -0.023099 -0.002402 0.010422
v -0.023153 -0.006988 0.013319
v 0.000882 -0.006988 0.001155
v 0.010892 -0.006988 -0.014060
v 0.014585 0.004616 0.001352
v 0.010348 0.003373 0.005539
v 0.009680 0.006501 -0.013472
v 0.013500 0.013303 -0.014567
v -0.019929 -0.001041 0.002532
v -0.015402 -0.006988 -0.002531
v 0.006703 0.002305 0.009133
v 0.016512 0.007170 -0.010193
v -0.023099 -0.002402 0.010422
v -0.023153 -0.006988 0.013319
v -0.023153 -0.006988 0.013319
v -0.023153 -0.006988 0.013319
v -0.018201 -0.006988 0.002121
v -0.000453 0.000525 0.014655
v -0.007898 -0.006988 0.014246
v -0.019698 -0.002779 0.018254
vn 0.8852 0.4007 0.2364
vn 0.5920 -0.7056 0.3894
vn -0.4537 0.1144 -0.8838
vn -0.4114 0.0849 -0.9075
vn 0.4795 0.6534 0.5859
vn 0.5765 -0.6013 0.5532
vn 0.5877 -0.7065 0.3942
vn -0.8380 -0.2086 -0.5042
vn -0.0404 -0.7460 0.6647
vn -0.8884 -0.2307 -0.3968
vn -0.0874 0.9756 0.2012
vn -0.2815 0.8478 0.4494
vn -0.2827 0.8658 0.4128
vn -0.1351 0.9775 0.1620
vn -0.4481 0.8645 0.2275
vn -0.2012 0.9756 0.0874
vn -0.4084 0.8822 0.2345
vn -0.8810 0.2600 0.3952
vn -0.0000 -1.0000 -0.0000
vn -0.4308 0.3741 0.8212
vn 0.8282 -0.0283 0.5598
vn -0.3629 0.4284 -0.8275
vn -0.4504 -0.1118 -0.8858
vn -0.3949 0.0184 -0.9185
vn 0.5915 -0.7056 0.3903
vn 0.2217 -0.2706 0.9368
vn -0.8883 -0.2377 -0.3929
vt 1.000000 1.000000
vt 0.613578 0.236679
vt 1.000000 0.340810
vt 1.000000 0.661143
vt 0.273265 0.204803
vt 0.173365 0.000000
vt 0.437697 0.000000
vt 0.661143 0.661143
vt 1.000000 0.000000
vt 0.794749 0.599633
vt 0.810423 0.000000
vt 1.000000 0.717865
vt 0.877707 0.863372
vt 1.000000 0.411058
vt 1.000000 0.768679
vt 0.315285 0.000000
vt 1.000000 0.463259
vt 0.768679 0.768679
vt 0.411058 0.411058
vt 0.000000 0.000000
vt 1.000000 0.562303
vt 1.000000 0.711045
vt 1.000000 0.397401
vt 0.240376 0.173932
vt 0.431186 0.112798
vt 0.521072 0.061909
vt 0.108391 0.108391
vt 0.417581 0.956188
vt 0.436940 0.937500
vt 0.458333 0.968750
vt 0.458333 1.000000
vt 0.402670 0.968750
vt 0.378156 0.031250
vt 0.452724 0.042850
vt 0.389556 0.046324
vt 0.383171 0.000000
vt 0.375000 0.028059
vt 0.161093 0.672589
vt 0.196489 0.677604
vt 0.125000 0.725331
vt 0.467179 1.000000
vt 0.465369 0.968750
vt 0.536741 0.000000
vt 0.288955 0.000000
vt 1.000000 0.738913
vt 1.000000 0.826635
vt 0.938245 0.646009
vt 0.621345 0.049082
vt 0.404427 0.964428
vt 0.426526 0.949096
vt 0.383171 1.000000
vt 0.458333 0.031250
vt 0.157994 0.675477
vt 0.222227 0.641964
vt 0.169880 0.712822
s 0
usemtl マテリアル
f 2/1/1 28/2/1 21/3/1
f 20/4/2 21/5/2 22/6/2
f 25/7/3 2/1/3 20/8/3
f 1/9/4 23/10/4 24/11/4
f 28/12/5 1/1/5 24/13/5
f 35/14/6 27/15/6 16/16/6
f 19/17/7 27/18/7 35/19/7
f 33/20/8 25/21/8 26/22/8
f 35/23/9 36/24/9 31/25/9
f 33/20/10 29/26/10 25/27/10
s 1
f 12/28/11 5/29/11 3/30/12
f 9/31/13 34/32/14 3/30/12
f 17/33/15 9/34/13 14/35/16
f 15/36/17 17/33/15 32/37/18
f 8/38/19 4/39/19 18/40/19
f 10/41/20 9/31/13 3/42/12
s 0
f 2/1/21 1/20/21 28/2/21
f 22/6/2 19/43/2 20/4/2
f 20/4/2 2/1/2 21/5/2
f 20/8/22 26/44/22 25/7/22
f 25/7/23 23/45/23 2/1/23
f 1/9/24 2/1/24 23/10/24
f 19/17/25 22/46/25 27/18/25
f 35/23/26 16/47/26 36/24/26
f 33/20/27 30/48/27 29/26/27
s 1
f 3/30/12 34/49/14 12/28/11
f 12/28/11 7/50/11 5/29/11
f 9/31/13 15/51/17 34/32/14
f 15/36/17 9/52/13 17/33/15
f 18/40/19 13/53/19 8/38/19
f 8/38/19 6/54/19 4/39/19
f 4/39/19 11/55/19 18/40/19
