# Blender 4.4.1
# www.blender.org
mtllib piece18.mtl
o 立方体.002_cell.092
v -0.019261 0.020923 -0.007612
v -0.022482 0.017023 -0.011848
v -0.030509 0.019003 -0.000778
v -0.033291 0.014786 -0.005109
v -0.019603 -0.005014 0.015478
v -0.010056 -0.016622 0.013467
v -0.008009 -0.013618 0.017797
v -0.003298 -0.017202 0.011055
v -0.001444 -0.014238 0.015365
v 0.004843 -0.017514 0.008765
v 0.005813 -0.014566 0.013244
v 0.014680 -0.017846 0.005957
v 0.015652 -0.014970 0.010322
v 0.024721 -0.017273 0.004547
v -0.021426 -0.008662 0.011142
v 0.020151 0.019108 -0.017727
v 0.018242 0.015352 -0.022086
v -0.012381 0.020137 -0.010053
v -0.014347 0.016185 -0.014620
v 0.010072 0.018842 -0.016418
v 0.009034 0.015048 -0.020980
v 0.026117 -0.011893 0.006706
v 0.022396 -0.004647 -0.005778
v 0.024389 -0.002344 -0.000835
v -0.030509 0.019003 -0.000778
v -0.019261 0.020923 -0.007612
v -0.019603 -0.005014 0.015478
v -0.033291 0.014786 -0.005109
v -0.022482 0.017023 -0.011848
v -0.008009 -0.013618 0.017797
v -0.001444 -0.014238 0.015365
v -0.010056 -0.016622 0.013467
v -0.003298 -0.017202 0.011055
v 0.004843 -0.017514 0.008765
v 0.005813 -0.014566 0.013244
v 0.014680 -0.017846 0.005957
v 0.024721 -0.017273 0.004547
v 0.015652 -0.014970 0.010322
v -0.021426 -0.008662 0.011142
v -0.014347 0.016185 -0.014620
v 0.009034 0.015048 -0.020980
v -0.012381 0.020137 -0.010053
v 0.010072 0.018842 -0.016418
v 0.026117 -0.011893 0.006706
v 0.024389 -0.002344 -0.000835
v 0.020151 0.019108 -0.017727
v 0.022396 -0.004647 -0.005778
v 0.018242 0.015352 -0.022086
vn -0.4021 0.8053 -0.4356
vn -0.8862 -0.0957 0.4533
vn 0.1164 -0.8410 0.5283
vn 0.1220 -0.8410 0.5271
vn -0.5133 -0.5380 0.6686
vn -0.1004 0.7761 -0.6225
vn -0.1299 0.7767 -0.6163
vn 0.9345 -0.1059 -0.3400
vn 0.9370 -0.0822 -0.3395
vn -0.2660 -0.6415 -0.7195
vn -0.3058 -0.6420 -0.7031
vn -0.3057 -0.6420 -0.7032
vn -0.1519 -0.6418 -0.7517
vn -0.0709 -0.6392 -0.7657
vn -0.0712 -0.6392 -0.7657
vn -0.2714 -0.6415 -0.7175
vn 0.1662 0.6283 0.7600
vn 0.2812 0.6270 0.7265
vn 0.2450 0.6261 0.7403
vn 0.2879 0.6269 0.7239
vn 0.3234 0.6269 0.7088
vn 0.3225 0.6269 0.7092
vn 0.1739 0.6284 0.7582
vn 0.0837 0.6267 0.7748
vn 0.0841 0.6266 0.7748
vn -0.4460 0.7674 -0.4607
vn -0.8275 -0.0301 0.5607
vn 0.4051 -0.4291 0.8073
vn -0.5374 -0.5524 0.6372
vn -0.1014 0.7752 -0.6235
vn 0.9378 -0.0942 -0.3342
vn -0.3060 -0.6423 -0.7027
vn -0.3056 -0.6420 -0.7032
vn -0.0711 -0.6392 -0.7657
vn -0.1519 -0.6417 -0.7518
vn -0.2233 -0.6759 -0.7023
vn 0.3229 0.6282 0.7079
vn 0.3232 0.6267 0.7091
vn 0.0834 0.6268 0.7747
vt 0.489846 0.000000
vt 1.000000 0.544734
vt 0.462618 0.000000
vt 0.507666 0.507666
vt 0.563413 0.000000
vt 0.595759 0.000000
vt 0.627889 0.627889
vt 1.000000 0.601004
vt 0.819626 0.639844
vt 0.880492 0.000000
vt 0.763762 0.320295
vt 0.601004 0.601004
vt 1.000000 0.627889
vt 0.641972 0.641972
vt 0.613527 0.613527
vt 1.000000 0.482133
vt 0.410717 0.000000
vt 1.000000 0.453262
vt 0.855718 0.492890
vt 1.000000 0.537382
vt 0.876951 0.522165
vt 0.678004 0.000000
vt 0.900193 0.900193
vt 0.853057 0.853057
vt 0.626123 0.000000
vt 0.678004 0.678004
vt 0.589283 0.000000
vt 0.594228 0.312500
vt 0.599730 0.284748
vt 0.613700 0.301262
vt 0.593861 0.343750
vt 0.612749 0.355378
vt 0.601371 0.358330
vt 0.594228 0.312500
vt 0.613223 0.312500
vt 0.777814 0.513746
vt 0.805627 0.513746
vt 0.793870 0.513746
vt 0.805627 0.513746
vt 0.830812 0.513746
vt 0.816855 0.513746
vt 0.777814 0.513746
vt 0.762965 0.513746
vt 0.765981 0.513746
vt 1.000000 0.516381
vt 0.477247 0.477247
vt 0.653842 0.653842
vt 0.798076 0.614027
vt 1.000000 0.627761
vt 0.737286 0.294983
vt 0.918430 0.000000
vt 0.627762 0.627762
vt 1.000000 0.653842
vt 0.373877 0.000000
vt 0.482133 0.482133
vt 0.458269 0.453532
vt 1.000000 0.510154
vt 0.716961 0.000000
vt 0.716961 0.716961
vt 0.613223 0.312500
vt 0.594557 0.300289
vt 0.614230 0.287484
vt 0.594187 0.360212
vt 0.612587 0.344155
vt 0.612577 0.343750
vt 0.594050 0.326597
vt 0.814564 0.513746
vt 0.829298 0.513746
vt 0.761480 0.513746
s 0
usemtl マテリアル
f 29/1/1 25/2/1 26/3/1
f 25/4/2 39/5/2 27/6/2
f 32/7/3 34/8/3 31/9/3
f 37/10/4 38/11/4 34/12/4
f 32/13/5 27/14/5 39/15/5
f 43/16/6 48/17/6 41/18/6
f 40/19/7 26/20/7 42/21/7
f 47/22/8 44/23/8 37/24/8
f 46/25/9 47/26/9 48/27/9
s 1
f 8/28/10 15/29/11 2/30/12
f 12/31/13 17/32/14 23/33/15
f 12/31/13 8/34/10 19/35/16
f 20/36/17 9/37/18 11/38/19
f 18/39/20 3/40/21 7/41/22
f 13/42/23 24/43/24 16/44/25
s 0
f 29/1/26 28/45/26 25/2/26
f 25/4/27 28/46/27 39/5/27
f 31/9/3 30/47/3 32/7/3
f 32/7/3 33/48/3 34/8/3
f 34/8/3 35/49/3 31/9/3
f 34/12/4 36/50/4 37/10/4
f 37/10/28 44/51/28 38/11/28
f 38/11/4 35/52/4 34/12/4
f 32/13/29 30/53/29 27/14/29
f 43/16/30 46/54/30 48/17/30
f 43/55/7 41/56/7 40/19/7
f 40/19/7 29/57/7 26/20/7
f 42/21/7 43/55/7 40/19/7
f 47/22/31 45/58/31 44/23/31
f 46/25/9 45/59/9 47/26/9
s 1
f 2/30/12 19/60/16 8/28/10
f 8/28/10 6/61/32 15/29/11
f 15/29/11 4/62/33 2/30/12
f 23/33/15 14/63/34 12/31/13
f 12/31/13 21/64/35 17/32/14
f 19/35/16 21/65/35 12/31/13
f 12/31/13 10/66/36 8/34/10
f 11/38/19 13/42/23 20/36/17
f 20/36/17 18/39/20 9/37/18
f 7/41/22 9/37/18 18/39/20
f 18/39/20 1/67/37 3/40/21
f 3/40/21 5/68/38 7/41/22
f 16/44/25 20/36/17 13/42/23
f 13/42/23 22/69/39 24/43/24
