# Blender 4.4.1
# www.blender.org
mtllib piece16.mtl
o 立方体.002_cell.087
v 0.008456 0.007825 -0.020421
v 0.001252 0.007916 -0.027625
v -0.024855 0.007916 0.019106
v -0.016685 0.007825 0.022621
v -0.014040 0.007916 -0.005788
v -0.006203 0.007825 -0.000324
v -0.029056 0.007916 0.032472
v -0.020722 0.007825 0.034759
v -0.022068 0.000054 0.032078
v -0.014686 -0.005307 0.023481
v -0.010498 -0.000543 0.025284
v -0.003052 -0.004549 0.016730
v -0.007164 -0.009431 0.014839
v 0.002298 -0.005756 0.007353
v -0.002157 -0.010663 0.005905
v 0.012660 -0.005639 -0.007562
v 0.008740 -0.010895 -0.010354
v 0.027746 0.007825 -0.034491
v 0.023838 0.006358 -0.041820
v 0.012721 -0.010817 -0.016155
v 0.029868 -0.001591 -0.026537
v 0.016229 -0.005500 -0.012647
v 0.027377 -0.006510 -0.030904
v -0.029056 0.007916 0.032472
v -0.029056 0.007916 0.032472
v -0.020722 0.007825 0.034759
v -0.020722 0.007825 0.034759
v -0.022068 0.000054 0.032078
v -0.014686 -0.005307 0.023481
v -0.003052 -0.004549 0.016730
v 0.002298 -0.005756 0.007353
v -0.007164 -0.009431 0.014839
v -0.002157 -0.010663 0.005905
v 0.008740 -0.010895 -0.010354
v 0.012721 -0.010817 -0.016155
v 0.027377 -0.006510 -0.030904
v 0.029868 -0.001591 -0.026537
v 0.016229 -0.005500 -0.012647
v 0.012660 -0.005639 -0.007562
v 0.008456 0.007825 -0.020421
v -0.006203 0.007825 -0.000324
v 0.001252 0.007916 -0.027625
v -0.014040 0.007916 -0.005788
v -0.016685 0.007825 0.022621
v -0.024855 0.007916 0.019106
v 0.027746 0.007825 -0.034491
v 0.027746 0.007825 -0.034491
v -0.010498 -0.000543 0.025284
v 0.023838 0.006358 -0.041820
v 0.023838 0.006358 -0.041820
vn -0.2572 -0.2751 0.9264
vn 0.4586 -0.3598 0.8126
vn 0.4232 -0.6214 0.6594
vn 0.6017 -0.6731 0.4300
vn 0.6082 -0.6753 0.4172
vn 0.9145 -0.1201 -0.3862
vn 0.6123 -0.6752 0.4112
vn 0.0133 0.9996 -0.0247
vn 0.0082 1.0000 0.0047
vn 0.0084 1.0000 0.0047
vn 0.0096 0.9999 0.0037
vn 0.0099 0.9999 0.0032
vn 0.0100 0.9999 0.0033
vn 0.0095 0.9999 0.0036
vn -0.0649 0.9913 -0.1146
vn 0.0269 0.9995 -0.0143
vn -0.7184 -0.6415 -0.2690
vn -0.7331 -0.6400 -0.2304
vn -0.6692 -0.6486 -0.3625
vn -0.7032 -0.6420 -0.3056
vn -0.5381 -0.6571 -0.5278
vn -0.6346 -0.6444 -0.4267
vn 0.5549 0.6361 0.5361
vn 0.6655 0.6347 0.3928
vn 0.6713 0.6349 0.3825
vn 0.7190 0.6269 0.3000
vn 0.7248 0.6269 0.2857
vn 0.7402 0.6257 0.2462
vn 0.7089 0.6266 0.3237
vn 0.4568 0.6318 0.6262
vn 0.5454 0.6364 0.5455
vn -0.4365 -0.6488 -0.6233
vn -0.5432 -0.6545 -0.5259
vn 0.3814 -0.6010 0.7024
vn 0.4254 -0.6152 0.6638
vn 0.8853 -0.1341 -0.4452
vn -0.1035 0.9845 -0.1419
vn -0.7139 -0.6417 -0.2803
vn -0.6550 -0.6555 -0.3759
vn 0.7884 -0.2844 0.5455
vn 0.4568 0.6319 0.6262
vt 0.969244 0.537003
vt 0.899666 0.468100
vt 1.000000 0.511580
vt 0.527934 0.527934
vt 0.933779 0.621299
vt 0.565114 0.565114
vt 0.600783 0.600783
vt 0.608460 0.000000
vt 0.632131 0.632131
vt 0.608459 0.608459
vt 0.573170 0.000000
vt 0.603837 0.000000
vt 0.648589 0.000000
vt 1.000000 0.396163
vt 0.945546 0.362489
vt 0.569639 0.569639
vt 0.647354 0.570368
vt 0.602900 0.602900
vt 0.732974 0.614988
vt 1.000000 0.573349
vt 0.750425 0.646226
vt 0.861254 0.513746
vt 0.875000 0.531250
vt 0.861254 0.541559
vt 0.861254 0.569373
vt 0.875000 0.578273
vt 0.861254 0.582991
vt 0.875000 0.562500
vt 0.843750 0.500000
vt 0.875000 0.500000
vt 0.625000 0.187500
vt 0.621274 0.171959
vt 0.625000 0.171727
vt 0.614429 0.214872
vt 0.615130 0.201575
vt 0.625000 0.250000
vt 0.614297 0.240755
vt 0.614245 0.218750
vt 0.861254 0.569373
vt 0.861254 0.580664
vt 0.861254 0.567183
vt 0.861254 0.556443
vt 0.835263 0.513746
vt 0.616792 0.277065
vt 0.614342 0.250000
vt 1.000000 0.600783
vt 0.578095 0.000000
vt 0.578095 0.578095
vt 0.675538 0.000000
vt 0.647749 0.517321
vt 0.675538 0.675538
vt 0.648589 0.648589
vt 1.000000 0.537920
vt 0.834558 0.513746
vt 0.617477 0.187500
vt 0.617477 0.187500
vt 0.625000 0.218750
vt 0.861254 0.521298
vt 0.624114 0.281250
s 0
usemtl マテリアル
f 26/1/1 24/2/1 28/3/1
f 28/4/2 11/5/2 26/6/2
f 29/7/3 30/8/3 11/9/3
f 30/10/4 33/11/4 31/12/4
f 34/13/5 31/14/5 33/15/5
f 36/16/6 47/17/6 37/18/6
f 35/19/7 37/20/7 38/21/7
s 1
f 40/22/8 43/23/9 41/24/10
f 44/25/11 25/26/12 27/27/13
f 41/24/10 45/28/14 44/25/11
f 40/22/8 50/29/15 42/30/16
f 3/31/17 9/32/18 7/33/18
f 3/31/17 15/34/19 13/35/20
f 2/36/21 17/37/22 15/38/19
f 22/22/23 6/24/24 14/24/25
f 48/39/26 4/25/27 8/40/28
f 6/24/24 48/41/26 12/42/29
f 21/43/30 1/22/31 22/22/23
f 2/36/21 23/44/32 20/45/33
s 0
f 28/4/34 29/46/34 11/5/34
f 29/7/35 32/47/35 30/8/35
f 30/10/4 32/48/4 33/11/4
f 34/13/5 39/49/5 31/14/5
f 36/16/36 49/50/36 47/17/36
f 39/51/7 34/52/7 35/19/7
f 35/19/7 36/53/7 37/20/7
f 38/21/7 39/51/7 35/19/7
s 1
f 40/22/8 42/30/16 43/23/9
f 44/25/11 45/28/14 25/26/12
f 41/24/10 43/23/9 45/28/14
f 40/22/8 46/54/37 50/29/15
f 3/31/17 10/55/38 9/32/18
f 13/35/20 10/56/38 3/31/17
f 3/31/17 5/57/39 15/34/19
f 15/38/19 5/57/39 2/36/21
f 2/36/21 20/45/33 17/37/22
f 14/24/25 16/58/40 22/22/23
f 22/22/23 1/22/31 6/24/24
f 12/42/29 14/24/25 6/24/24
f 6/24/24 4/25/27 48/41/26
f 21/43/30 18/54/41 1/22/31
f 2/36/21 19/59/32 23/44/32
