# Blender 4.4.1
# www.blender.org
mtllib piece4.mtl
o 立方体.002_cell.019
v 0.023499 0.009618 -0.041097
v 0.015532 0.009527 -0.041097
v 0.012535 0.009618 0.013922
v 0.004366 0.009527 0.010407
v 0.020858 0.009618 -0.012560
v 0.012611 0.009527 -0.014384
v 0.001720 0.009618 0.038816
v -0.006116 0.009527 0.033351
v -0.013812 0.008229 0.058932
v -0.023986 0.002662 0.048355
v -0.020077 0.009527 0.052491
v 0.009757 0.002392 -0.041097
v -0.004894 -0.013298 -0.023172
v -0.001013 -0.017609 -0.021825
v 0.014815 -0.000787 -0.041097
v 0.022485 0.009618 -0.052057
v 0.014725 0.009527 -0.048480
v -0.017446 -0.007046 0.025947
v -0.013875 -0.010816 0.030715
v -0.007701 -0.016697 0.005214
v -0.011843 -0.012394 0.003432
v -0.007739 -0.016205 -0.018630
v -0.003706 -0.020379 -0.017709
v -0.020695 -0.003301 0.051621
v -0.023986 0.002662 0.048355
v -0.020077 0.009527 0.052491
v -0.020077 0.009527 0.052491
v -0.001013 -0.017609 -0.021825
v 0.014815 -0.000787 -0.041097
v 0.009757 0.002392 -0.041097
v -0.004894 -0.013298 -0.023172
v 0.014725 0.009527 -0.048480
v 0.014725 0.009527 -0.048480
v 0.022485 0.009618 -0.052057
v 0.022485 0.009618 -0.052057
v -0.007701 -0.016697 0.005214
v -0.003706 -0.020379 -0.017709
v -0.011843 -0.012394 0.003432
v -0.007739 -0.016205 -0.018630
v -0.013875 -0.010816 0.030715
v -0.020695 -0.003301 0.051621
v 0.015532 0.009527 -0.041097
v 0.023499 0.009618 -0.041097
v 0.004366 0.009527 0.010407
v -0.006116 0.009527 0.033351
v 0.012535 0.009618 0.013922
v 0.001720 0.009618 0.038816
v 0.012611 0.009527 -0.014384
v 0.020858 0.009618 -0.012560
v -0.013812 0.008229 0.058932
v -0.013812 0.008229 0.058932
v -0.017446 -0.007046 0.025947
vn -0.7180 -0.0126 0.6959
vn -0.3447 -0.5484 -0.7618
vn -0.4412 -0.6045 -0.6633
vn -0.7176 -0.6963 -0.0132
vn -0.7606 -0.6467 0.0582
vn -0.0113 0.9999 -0.0000
vn -0.0113 0.9999 0.0011
vn -0.0114 0.9999 -0.0000
vn 0.7677 -0.6408 -0.0000
vn 0.7671 -0.6403 0.0393
vn 0.7658 -0.6392 -0.0709
vn -0.0084 1.0000 -0.0047
vn -0.0095 0.9999 -0.0037
vn -0.0106 0.9999 -0.0021
vn 0.0019 0.9999 0.0114
vn 0.0571 0.9936 0.0977
vn 0.0751 0.9892 0.1262
vn 0.6630 -0.6519 0.3680
vn 0.6233 -0.6488 0.4365
vn 0.6701 -0.6486 0.3609
vn 0.7518 -0.6417 0.1514
vn 0.7194 -0.6414 0.2665
vn 0.7485 -0.6417 0.1672
vn 0.7154 -0.6440 0.2710
vn 0.7657 -0.6392 0.0709
vn -0.7774 0.6291 0.0001
vn -0.7742 0.6275 -0.0832
vn -0.7566 0.6284 -0.1809
vn -0.7745 0.6269 0.0847
vn -0.7765 0.6284 -0.0465
vn -0.6262 0.6319 -0.4567
vn -0.6681 0.6321 -0.3925
vn -0.6806 0.6309 -0.3725
vn -0.7245 0.6272 -0.2860
vn -0.7601 0.6283 -0.1656
vn -0.7275 0.6268 -0.2789
vn -0.7161 -0.0128 0.6979
vn -0.4450 -0.5805 -0.6819
vn -0.8500 -0.5188 -0.0908
vn -0.0112 0.9999 0.0010
vn -0.6262 0.6318 -0.4568
vt 0.724044 0.456146
vt 0.268364 0.000000
vt 1.000000 0.690434
vt 0.626782 0.445363
vt 0.377343 0.357611
vt 0.598306 0.410180
vt 0.518904 0.518904
vt 0.591068 0.000000
vt 0.546000 0.546000
vt 0.566935 0.562086
vt 1.000000 0.635587
vt 0.790482 0.621140
vt 0.635587 0.635587
vt 0.828434 0.000000
vt 0.661694 0.661694
vt 0.625000 0.625000
vt 0.638746 0.617312
vt 0.638746 0.625000
vt 0.619080 0.625000
vt 0.625000 0.612997
vt 0.638746 0.708441
vt 0.625000 0.687500
vt 0.638746 0.680627
vt 0.638746 0.652814
vt 0.625000 0.718750
vt 0.638746 0.734930
vt 0.625000 0.748760
vt 0.617650 0.748252
vt 0.612976 0.718750
vt 0.625000 0.656250
vt 0.610028 0.687500
vt 0.607933 0.656250
vt 0.610028 0.687500
vt 0.609509 0.650307
vt 0.638746 0.646765
vt 0.638746 0.734655
vt 0.638746 0.708769
vt 0.235674 0.000000
vt 1.000000 0.518904
vt 1.000000 0.546000
vt 0.479054 0.411338
vt 0.561806 0.000000
vt 0.591068 0.591068
vt 0.764299 0.590905
vt 0.997357 0.661019
vt 0.793226 0.000000
vt 0.624210 0.748713
vt 0.607917 0.655370
vt 0.638746 0.734930
vt 0.638746 0.652814
s 0
usemtl マテリアル
f 26/1/1 41/2/1 50/3/1
f 30/4/2 34/5/2 29/6/2
f 28/7/3 39/8/3 31/9/3
f 37/10/4 40/11/4 38/12/4
f 40/13/5 25/14/5 52/15/5
s 1
f 43/16/6 33/17/7 42/18/8
f 1/16/9 15/19/10 16/20/11
f 45/21/12 46/22/13 44/23/13
f 48/24/14 43/16/6 42/18/8
f 47/25/15 27/26/16 51/27/17
f 46/22/13 48/24/14 44/23/13
f 7/25/18 24/28/19 19/29/20
f 5/30/21 20/31/22 23/32/23
f 3/22/24 19/29/20 20/33/22
f 14/34/25 1/16/9 5/30/21
f 2/18/26 13/35/27 22/24/28
f 17/17/29 12/18/30 2/18/26
f 10/36/31 8/21/32 18/37/33
f 4/23/34 18/21/33 8/21/32
f 6/24/35 21/23/36 4/23/34
s 0
f 26/1/37 25/38/37 41/2/37
f 29/6/2 28/39/2 31/40/2
f 30/4/2 32/41/2 34/5/2
f 29/6/2 31/40/2 30/4/2
f 28/7/38 37/42/38 39/8/38
f 38/12/4 39/43/4 37/10/4
f 37/10/4 36/44/4 40/11/4
f 40/11/4 52/45/4 38/12/4
f 40/13/39 41/46/39 25/14/39
s 1
f 43/16/6 35/20/40 33/17/7
f 45/21/12 47/25/15 46/22/13
f 48/24/14 49/30/14 43/16/6
f 47/25/15 45/21/12 27/26/16
f 46/22/13 49/30/14 48/24/14
f 7/25/18 9/47/19 24/28/19
f 5/30/21 3/22/24 20/31/22
f 3/22/24 7/25/18 19/29/20
f 5/30/21 23/48/23 14/34/25
f 14/34/25 15/19/10 1/16/9
f 22/24/28 6/24/35 2/18/26
f 2/18/26 12/18/30 13/35/27
f 10/36/31 11/49/41 8/21/32
f 4/23/34 21/23/36 18/21/33
f 6/24/35 22/50/28 21/23/36
