# Blender 4.4.1
# www.blender.org
mtllib piece2.mtl
o 立方体.002_cell.007
v -0.033279 -0.002892 -0.003307
v 0.009532 -0.002892 0.012291
v -0.013617 -0.002892 0.007677
v -0.024091 -0.002892 0.003127
v -0.002475 -0.002892 0.011179
v 0.021539 -0.002892 0.011179
v -0.021404 -0.002892 -0.007379
v -0.012569 0.004537 -0.007474
v -0.010457 -0.002892 -0.007625
v -0.007047 0.005056 -0.007591
v -0.000983 -0.002892 -0.007591
v -0.001571 0.005427 -0.007588
v 0.009532 0.004867 -0.003448
v 0.011426 -0.002892 -0.002947
v 0.019324 0.003747 0.000611
v 0.023909 -0.002892 0.002765
v 0.023905 0.002967 0.002787
v 0.025853 0.001318 0.009823
v -0.017526 0.003890 -0.006489
v -0.007047 0.005056 -0.007591
v -0.001571 0.005427 -0.007588
v -0.010457 -0.002892 -0.007625
v -0.021404 -0.002892 -0.007379
v -0.012569 0.004537 -0.007474
v -0.000983 -0.002892 -0.007591
v 0.011426 -0.002892 -0.002947
v 0.009532 0.004867 -0.003448
v 0.019324 0.003747 0.000611
v 0.023905 0.002967 0.002787
v 0.025853 0.001318 0.009823
v -0.017526 0.003890 -0.006489
v 0.023909 -0.002892 0.002765
v 0.021539 -0.002892 0.011179
v -0.033279 -0.002892 -0.003307
vn -0.0225 0.0140 -0.9996
vn 0.0004 0.0004 -1.0000
vn 0.3504 0.0251 -0.9363
vn 0.3861 0.0347 -0.9218
vn 0.4296 0.0037 -0.9030
vn 0.7157 -0.6686 0.2016
vn -0.3099 0.2958 -0.9036
vn -0.4361 -0.2347 0.8687
vn -0.0960 0.8993 0.4267
vn -0.0530 0.8440 0.5338
vn -0.5322 -0.3729 0.7600
vn -0.0607 0.8348 0.5472
vn -0.1998 -0.2066 0.9578
vn -0.0818 0.9021 0.4237
vn -0.0807 0.9127 0.4006
vn -0.0000 -1.0000 -0.0000
vn -0.3428 -0.2146 0.9146
vn -0.3293 0.1597 0.9306
vn -0.2487 0.8257 0.5063
vn -0.0584 0.8661 0.4964
vn -0.0490 -0.2281 0.9724
vn 0.0036 0.0028 -1.0000
vn 0.4161 -0.0077 -0.9093
vn 0.9639 0.0016 -0.2664
vn -0.2199 0.2496 -0.9431
vn -0.6014 0.7247 0.3364
vt 1.000000 0.245209
vt 0.691013 0.000000
vt 1.000000 0.124195
vt 0.245261 0.000000
vt 0.124195 0.124195
vt 0.119380 0.000000
vt 0.245261 0.245261
vt 1.000000 0.340250
vt 1.000000 0.425713
vt 0.340250 0.340250
vt 1.000000 0.357311
vt 0.425713 0.425713
vt 0.437405 0.000000
vt 0.361973 0.214116
vt 0.371130 0.000000
vt 0.562595 0.000000
vt 0.660751 0.050385
vt 0.613237 0.050487
vt 0.422801 0.055941
vt 0.570466 0.000000
vt 0.783875 0.223681
vt 0.375000 0.968750
vt 0.406310 0.937500
vt 0.401963 0.955810
vt 0.375000 1.000000
vt 0.396542 0.968750
vt 0.375000 0.906250
vt 0.404726 0.875000
vt 0.409112 0.906250
vt 0.173503 0.717105
vt 0.286073 0.731919
vt 0.187500 0.750000
vt 0.406310 0.937500
vt 0.409415 0.917846
vt 0.375000 0.843750
vt 0.388816 0.831286
vt 0.395348 0.843750
vt 0.375000 0.875000
vt 0.398634 0.852750
vt 0.429534 0.000000
vt 0.245209 0.245209
vt 0.290615 0.160737
vt 0.436722 0.436722
vt 0.628870 0.000000
vt 0.308987 0.000000
vt 0.396542 0.968750
vt 0.375000 0.937500
vt 0.156250 0.750000
vt 0.125000 0.746191
vt 0.202045 0.710286
vt 0.225370 0.706289
vt 0.262086 0.717538
vt 0.281250 0.750000
vt 0.250000 0.750000
vt 0.218750 0.750000
vt 0.375000 0.831650
s 0
usemtl マテリアル
f 22/1/1 24/2/1 20/3/1
f 25/4/2 20/5/2 21/6/2
f 25/7/3 27/8/3 26/9/3
f 27/10/4 28/11/4 26/12/4
f 32/13/5 28/14/5 29/15/5
f 32/16/6 30/17/6 33/18/6
f 31/19/7 23/20/7 1/21/7
s 1
f 4/22/8 10/23/9 8/24/10
f 34/25/11 4/22/8 19/26/12
f 5/27/13 13/28/14 12/29/15
f 7/30/16 16/31/16 3/32/17
f 10/33/9 5/27/13 12/34/15
f 6/35/18 17/36/19 15/37/20
f 2/38/21 15/39/20 13/28/14
s 0
f 22/1/1 23/40/1 24/2/1
f 25/4/22 22/41/22 20/5/22
f 25/7/3 21/42/3 27/8/3
f 32/13/23 26/43/23 28/14/23
f 32/16/24 29/44/24 30/17/24
f 31/19/25 24/45/25 23/20/25
s 1
f 8/24/10 19/46/12 4/22/8
f 4/22/8 3/47/17 10/23/9
f 5/27/13 2/38/21 13/28/14
f 4/48/8 34/49/11 7/30/16
f 7/30/16 9/50/16 11/51/16
f 11/51/16 14/52/16 16/31/16
f 16/31/16 6/53/18 2/54/21
f 2/54/21 5/55/13 3/32/17
f 3/32/17 4/48/8 7/30/16
f 7/30/16 11/51/16 16/31/16
f 16/31/16 2/54/21 3/32/17
f 10/33/9 3/47/17 5/27/13
f 6/35/18 18/56/26 17/36/19
f 2/38/21 6/35/18 15/39/20
