# Blender 4.4.1
# www.blender.org
mtllib piece13.mtl
o 立方体.002_cell.066
v -0.011546 0.009095 0.017071
v -0.011416 -0.001490 0.016963
v -0.002574 0.006382 0.008127
v 0.000112 0.006382 0.012936
v -0.010672 -0.007776 0.002154
v -0.009448 -0.007776 -0.012219
v -0.010946 -0.007776 0.008208
v 0.013710 0.003279 0.010414
v -0.003933 0.012631 0.008397
v -0.007617 0.010156 0.005983
v 0.001161 -0.007776 -0.012282
v -0.005937 0.001805 -0.015329
v 0.001379 0.001397 -0.014923
v 0.011541 0.000548 -0.014234
v 0.008038 -0.007776 -0.011982
v 0.002817 -0.007776 0.001086
v 0.008640 -0.007776 -0.005526
v 0.013985 0.002568 0.002309
v 0.012706 0.001681 -0.007154
v -0.010672 -0.007776 0.002154
v -0.009448 -0.007776 -0.012219
v -0.010946 -0.007776 0.008208
v 0.001161 -0.007776 -0.012282
v 0.008038 -0.007776 -0.011982
v 0.002817 -0.007776 0.001086
v 0.011541 0.000548 -0.014234
v 0.012706 0.001681 -0.007154
v 0.008640 -0.007776 -0.005526
v -0.007617 0.010156 0.005983
v -0.005937 0.001805 -0.015329
v 0.013710 0.003279 0.010414
v 0.000112 0.006382 0.012936
v -0.003933 0.012631 0.008397
v 0.001379 0.001397 -0.014923
v 0.013985 0.002568 0.002309
vn -0.8853 0.3726 -0.2781
vn -0.9989 -0.0118 -0.0452
vn 0.2176 0.1727 0.9606
vn -0.5096 0.8547 -0.0988
vn -0.0057 -0.3068 -0.9518
vn 0.0375 -0.2803 -0.9592
vn 0.4582 -0.7920 0.4035
vn 0.2939 -0.7688 0.5679
vn 0.8624 -0.5009 0.0731
vn 0.9100 -0.4059 -0.0849
vn 0.3790 0.6918 0.6147
vn -0.0000 -1.0000 -0.0000
vn 0.0718 0.9306 -0.3590
vn 0.5885 0.6382 -0.4964
vn 0.1333 0.9588 -0.2509
vn 0.1064 0.9765 -0.1876
vn 0.5766 0.7402 -0.3458
vn 0.1415 0.9771 -0.1591
vn 0.1980 0.9765 -0.0849
vn 0.1893 0.9767 -0.1014
vn 0.6332 0.1703 -0.7550
vn 0.4587 0.8508 -0.2563
vn -0.9405 0.2845 -0.1856
vn -0.9961 0.0234 -0.0848
vn 0.3331 -0.0056 0.9429
vn 0.0419 -0.2773 -0.9599
vn 0.0419 -0.2744 -0.9607
vt 0.551318 0.000000
vt 1.000000 1.000000
vt 0.683813 0.614126
vt 0.654519 0.000000
vt 1.000000 0.000000
vt 1.000000 0.551023
vt 0.000000 0.000000
vt 0.949890 0.000000
vt 1.000000 0.640471
vt 0.770456 0.770456
vt 0.300308 0.300308
vt 1.000000 0.448682
vt 0.756346 0.756346
vt 0.837098 0.000000
vt 1.000000 0.756346
vt 0.848373 0.459362
vt 0.357130 0.000000
vt 1.000000 0.020485
vt 1.000000 0.487005
vt 0.487005 0.487005
vt 0.050110 0.000000
vt 0.969332 0.969332
vt 0.252462 0.000000
vt 0.668261 0.000000
vt 0.378788 0.000000
vt 0.668261 0.668261
vt 0.252462 0.252462
vt 1.000000 0.770456
vt 0.655196 0.629505
vt 0.258044 0.563159
vt 0.298982 0.557150
vt 0.283720 0.588036
vt 0.419996 0.406250
vt 0.458333 0.437500
vt 0.416575 0.437500
vt 0.411413 0.468750
vt 0.458333 0.500000
vt 0.418957 0.500000
vt 0.458333 0.531250
vt 0.428887 0.562500
vt 0.425310 0.531250
vt 0.458333 0.468750
vt 0.416575 0.437500
vt 0.425310 0.531250
vt 0.468425 0.500000
vt 0.467255 0.468750
vt 0.458333 0.562500
vt 0.466610 0.531250
vt 0.188002 0.000000
vt 1.000000 0.413804
vt 0.413804 0.413804
vt 0.621212 0.000000
vt 1.000000 0.300308
vt 1.000000 0.345481
vt 0.162902 0.000000
vt 0.510653 0.288854
vt 0.254244 0.604941
vt 0.254987 0.593136
vt 0.282067 0.559980
vt 0.298231 0.577301
s 0
usemtl マテリアル
f 21/1/1 1/2/1 29/3/1
f 1/2/2 22/4/2 2/5/2
f 32/6/3 2/7/3 31/8/3
f 29/9/4 1/2/4 33/10/4
f 23/11/5 21/12/5 30/13/5
f 24/14/6 30/15/6 34/16/6
f 28/17/7 31/18/7 25/19/7
f 2/5/8 25/20/8 31/21/8
f 31/22/9 28/23/9 35/24/9
f 26/25/10 35/26/10 28/27/10
f 33/28/11 1/2/11 32/29/11
s 1
f 6/30/12 15/31/12 16/32/12
f 12/33/13 10/34/14 13/35/15
f 14/36/16 3/37/17 19/38/18
f 3/39/17 8/40/19 18/41/20
f 3/42/17 13/43/15 10/34/14
f 19/38/18 3/39/17 18/44/20
f 9/45/21 3/42/17 10/46/14
f 4/47/22 3/39/17 9/48/21
s 0
f 29/3/23 30/49/23 21/1/23
f 21/1/24 20/50/24 1/2/24
f 1/2/2 20/51/2 22/4/2
f 32/6/25 1/2/25 2/7/25
f 34/16/26 26/52/26 24/14/26
f 24/14/27 23/53/27 30/15/27
f 2/5/8 22/54/8 25/20/8
f 28/27/10 24/55/10 26/25/10
f 26/25/10 27/56/10 35/26/10
s 1
f 7/57/12 5/58/12 6/30/12
f 6/30/12 11/59/12 15/31/12
f 15/31/12 17/60/12 16/32/12
f 16/32/12 7/57/12 6/30/12
f 3/39/17 4/47/22 8/40/19
f 3/42/17 14/36/16 13/43/15
