# Blender 4.4.1
# www.blender.org
mtllib piece7.mtl
o 立方体.002_cell.034
v -0.002178 -0.024314 0.016073
v -0.002962 -0.020750 0.019751
v 0.007072 -0.021407 0.014368
v 0.006745 -0.017676 0.017983
v 0.009126 0.003660 -0.006366
v 0.008484 0.004221 0.000453
v 0.010677 0.024447 -0.023574
v 0.010134 0.027099 -0.017880
v -0.013349 0.015022 -0.008064
v -0.001421 0.020677 -0.013945
v -0.015276 0.011269 -0.012410
v -0.001421 0.017860 -0.019197
v -0.007124 -0.017687 0.017725
v -0.008509 -0.022421 0.015084
v 0.006745 -0.017676 0.017983
v 0.008484 0.004221 0.000453
v -0.002178 -0.024314 0.016073
v 0.007072 -0.021407 0.014368
v 0.010134 0.027099 -0.017880
v 0.009126 0.003660 -0.006366
v 0.010677 0.024447 -0.023574
v -0.015276 0.011269 -0.012410
v -0.001421 0.017860 -0.019197
v -0.013349 0.015022 -0.008064
v -0.001421 0.020677 -0.013945
v -0.002962 -0.020750 0.019751
v -0.007124 -0.017687 0.017725
v -0.008509 -0.022421 0.015084
vn 0.3294 -0.6419 0.6924
vn 0.9956 -0.0037 0.0941
vn 0.9956 0.0031 0.0935
vn -0.5455 0.7386 -0.3961
vn -0.9376 0.0865 0.3367
vn -0.5728 -0.2651 0.7756
vn -0.3116 -0.7147 0.6262
vn -0.0711 -0.6392 -0.7658
vn -0.0064 -0.6408 -0.7677
vn -0.0715 -0.6392 -0.7657
vn 0.0001 0.6288 0.7776
vn -0.0573 0.6268 0.7771
vn -0.0828 0.6300 0.7722
vn 0.0676 -0.6404 -0.7651
vn 0.0267 -0.6408 -0.7672
vn -0.0356 0.6314 0.7746
vn 0.0842 0.6269 0.7746
vn -0.5454 0.7386 -0.3961
vn -0.9367 0.0888 0.3387
vn -0.0569 0.6267 0.7772
vn 0.0710 -0.6392 -0.7658
vn 0.0595 -0.6391 -0.7668
vn 0.0847 0.6268 0.7746
vt 0.182999 0.057692
vt 1.000000 0.755940
vt 0.066842 0.000000
vt 0.769687 0.769687
vt 1.000000 0.660522
vt 0.799267 0.799267
vt 0.605538 0.605538
vt 0.551792 0.000000
vt 0.660522 0.660522
vt 0.765952 0.585606
vt 0.502381 0.502381
vt 0.728444 0.540013
vt 0.928645 0.000000
vt 0.598516 0.598516
vt 0.879900 0.000000
vt 1.000000 0.942462
vt 0.928645 0.928645
vt 1.000000 0.903681
vt 0.903681 0.903681
vt 1.000000 0.889088
vt 0.942462 0.942462
vt 0.613099 0.357632
vt 0.592855 0.373749
vt 0.595714 0.362718
vt 0.750000 0.513746
vt 0.737561 0.513746
vt 0.737572 0.513746
vt 0.608771 0.388927
vt 0.592949 0.375000
vt 0.616850 0.375000
vt 0.758581 0.513746
vt 0.750000 0.513746
vt 1.000000 0.720038
vt 1.000000 0.605538
vt 0.502381 0.000000
vt 1.000000 0.598515
vt 1.000000 0.636296
vt 0.551792 0.551792
vt 0.636296 0.636296
vt 0.750000 0.513746
vt 0.737626 0.513746
vt 0.620598 0.388917
vt 0.594509 0.388734
vt 0.763881 0.513746
s 0
usemtl マテリアル
f 17/1/1 15/2/1 26/3/1
f 18/4/2 16/5/2 15/6/2
f 20/7/3 19/8/3 16/9/3
f 25/10/4 21/11/4 23/12/4
f 27/13/5 22/14/5 28/15/5
f 26/16/6 27/17/6 28/18/6
f 28/19/7 17/20/7 26/21/7
s 1
f 11/22/8 1/23/9 14/24/10
f 2/25/11 6/26/12 8/27/13
f 5/28/14 1/29/9 12/30/15
f 10/25/16 13/31/17 2/32/11
s 0
f 17/1/1 18/33/1 15/2/1
f 18/4/2 20/34/2 16/5/2
f 20/7/3 21/35/3 19/8/3
f 23/12/4 22/36/4 24/37/4
f 25/10/18 19/38/18 21/11/18
f 23/12/4 24/37/4 25/10/4
f 27/13/19 24/39/19 22/14/19
s 1
f 11/22/8 12/30/15 1/23/9
f 8/27/13 10/40/16 2/25/11
f 2/25/11 4/41/20 6/26/12
f 12/30/15 7/42/21 5/28/14
f 5/28/14 3/43/22 1/29/9
f 10/25/16 9/44/23 13/31/17
