# Blender 4.4.1
# www.blender.org
mtllib piece17.mtl
o 立方体.002_cell.088
v 0.009584 -0.010625 -0.005699
v 0.011225 -0.010625 0.009614
v 0.006165 -0.009651 -0.028791
v 0.009795 -0.006134 -0.028167
v -0.013077 0.010227 0.003857
v -0.008473 0.003644 -0.005699
v -0.004499 0.006775 -0.005699
v -0.008734 0.013238 0.003474
v 0.005324 -0.003163 -0.022243
v 0.001823 -0.006757 -0.023027
v -0.014295 0.021987 0.015814
v -0.022746 0.027177 0.027690
v -0.018877 0.018521 0.015968
v -0.018214 0.031630 0.028563
v 0.017434 -0.023757 -0.025464
v 0.019646 -0.028522 -0.019292
v 0.026138 -0.037784 -0.005345
v -0.016839 0.020752 0.028637
v -0.013874 0.027042 0.029958
v 0.032493 -0.043975 0.005849
v -0.004499 0.006775 -0.005699
v 0.005324 -0.003163 -0.022243
v -0.008473 0.003644 -0.005699
v 0.001823 -0.006757 -0.023027
v -0.013077 0.010227 0.003857
v -0.008734 0.013238 0.003474
v 0.006165 -0.009651 -0.028791
v -0.022746 0.027177 0.027690
v -0.018877 0.018521 0.015968
v -0.014295 0.021987 0.015814
v -0.018214 0.031630 0.028563
v 0.009795 -0.006134 -0.028167
v -0.016839 0.020752 0.028637
v 0.032493 -0.043975 0.005849
v 0.017434 -0.023757 -0.025464
v -0.013874 0.027042 0.029958
vn -0.4668 0.5975 -0.6520
vn -0.4740 0.6017 -0.6428
vn -0.4769 0.6019 -0.6406
vn -0.4879 0.6175 -0.6170
vn 0.2198 -0.0541 -0.9740
vn -0.2464 0.0611 0.9672
vn 0.1106 -0.2540 0.9609
vn -0.7427 -0.6413 0.1927
vn -0.7673 -0.6405 0.0315
vn 0.4362 -0.7340 -0.5206
vn 0.8323 0.5375 0.1353
vn 0.8226 0.5680 -0.0246
vn 0.7543 0.6077 -0.2484
vn 0.6161 -0.7345 -0.2845
vn 0.8302 0.5574 0.0112
vn 0.4279 -0.6470 -0.6311
vn -0.7574 -0.6413 -0.1226
vn 0.5586 -0.6578 -0.5052
vn 0.7713 0.6291 -0.0964
vn 0.7497 0.6276 -0.2101
vn -0.7330 -0.6399 0.2306
vn 0.8140 0.4152 0.4063
vn -0.4673 0.5972 -0.6519
vn -0.4746 0.6028 -0.6413
vn -0.2481 -0.0858 0.9649
vn -0.8071 -0.5901 0.0176
vn 0.7768 0.6287 -0.0376
vn 0.7334 0.5922 -0.3338
vn -0.7329 -0.6399 -0.2309
vt 0.088033 0.000000
vt 1.000000 0.452002
vt 0.034448 0.000000
vt 0.456194 0.428785
vt 1.000000 0.491699
vt 0.812860 0.488599
vt 0.625300 0.039100
vt 0.491699 0.491699
vt 0.603962 0.000000
vt 0.799779 0.000000
vt 0.635130 0.635130
vt 0.609319 0.586331
vt 0.563591 0.563591
vt 0.494582 0.000000
vt 0.523479 0.000000
vt 0.831506 0.831506
vt 1.000000 0.904495
vt 0.877806 0.877806
vt 0.813029 0.000000
vt 0.904495 0.904495
vt 0.869409 0.869409
vt 0.602103 0.094208
vt 0.593766 0.125000
vt 0.570195 0.124085
vt 0.861254 0.597186
vt 0.861254 0.625000
vt 0.861254 0.672979
vt 0.861254 0.652814
vt 0.861254 0.652814
vt 0.575465 0.156250
vt 0.570311 0.125000
vt 0.587441 0.159313
vt 0.578175 0.168789
vt 0.861254 0.638256
vt 0.861254 0.652814
vt 0.602230 0.093750
vt 0.603499 0.075006
vt 0.607155 0.078872
vt 0.861254 0.585146
vt 0.861254 0.585244
vt 1.000000 0.426940
vt 0.452002 0.452002
vt 0.805403 0.465273
vt 1.000000 0.515046
vt 0.515046 0.515046
vt 0.844092 0.000000
vt 1.000000 0.869409
vt 0.566815 0.093750
vt 0.597510 0.110236
vt 0.861254 0.597186
vt 0.861254 0.654034
vt 0.861254 0.672540
vt 0.587848 0.156250
vt 0.585529 0.168938
vt 0.566673 0.091912
vt 0.861254 0.594317
s 0
usemtl マテリアル
f 27/1/1 22/2/1 32/3/1
f 24/4/2 25/5/2 21/6/2
f 30/7/3 25/8/3 29/9/3
f 28/10/4 30/11/4 29/12/4
f 15/13/5 27/14/5 32/15/5
f 28/16/6 36/17/6 31/18/6
f 34/19/7 36/20/7 33/21/7
s 1
f 13/22/8 6/23/9 17/24/10
f 9/25/11 1/26/12 17/26/10
f 14/27/13 20/28/14 2/29/15
f 6/23/9 16/30/16 17/31/10
f 10/32/17 35/33/18 16/30/16
f 1/26/12 8/34/19 11/35/20
f 17/26/10 2/29/15 20/28/14
f 13/36/8 18/37/21 12/38/21
f 9/25/11 35/39/18 4/40/22
s 0
f 27/1/23 24/41/23 22/2/23
f 21/6/2 22/42/2 24/4/2
f 24/4/2 23/43/2 25/5/2
f 25/5/2 26/44/2 21/6/2
f 30/7/24 26/45/24 25/8/24
f 28/10/4 31/46/4 30/11/4
f 28/16/25 33/47/25 36/17/25
s 1
f 17/24/10 20/48/14 13/22/8
f 13/22/8 5/49/26 6/23/9
f 17/26/10 16/50/16 9/25/11
f 9/25/11 7/26/27 1/26/12
f 2/29/15 11/51/20 14/27/13
f 14/27/13 19/52/28 20/28/14
f 6/23/9 10/53/17 16/30/16
f 10/32/17 3/54/29 35/33/18
f 11/35/20 2/29/15 1/26/12
f 1/26/12 7/26/27 8/34/19
f 17/26/10 1/26/12 2/29/15
f 13/36/8 20/55/14 18/37/21
f 9/25/11 16/56/16 35/39/18
