# Blender 4.4.1
# www.blender.org
mtllib piece6.mtl
o 立方体.002_cell.027
v -0.016969 0.033128 0.034923
v 0.029208 0.008035 0.004832
v 0.026564 0.000440 -0.000967
v 0.026548 0.011759 0.000460
v 0.023685 0.003145 -0.005869
v -0.012409 0.033037 0.026457
v 0.009032 0.018357 0.020187
v 0.007811 0.021325 0.014773
v 0.019101 -0.009570 -0.015094
v 0.021461 -0.013098 -0.011182
v -0.026528 -0.001716 0.004955
v -0.025658 0.002182 0.001038
v -0.030987 0.033128 0.033626
v -0.029446 0.033037 0.025592
v -0.024517 -0.016711 -0.007377
v -0.023806 -0.012201 -0.010400
v -0.016969 -0.016159 -0.012861
v -0.016969 -0.019803 -0.009254
v 0.002257 -0.021116 -0.012137
v 0.001440 -0.017279 -0.015756
v 0.011398 -0.020637 -0.014599
v 0.009831 -0.016757 -0.018098
v 0.016877 -0.014386 -0.018427
v 0.019042 -0.018139 -0.014822
v 0.026548 0.011759 0.000460
v 0.023685 0.003145 -0.005869
v 0.029208 0.008035 0.004832
v 0.026564 0.000440 -0.000967
v 0.009032 0.018357 0.020187
v 0.007811 0.021325 0.014773
v -0.012409 0.033037 0.026457
v -0.012409 0.033037 0.026457
v -0.016969 0.033128 0.034923
v -0.016969 0.033128 0.034923
v 0.019101 -0.009570 -0.015094
v -0.023806 -0.012201 -0.010400
v -0.016969 -0.016159 -0.012861
v 0.021461 -0.013098 -0.011182
v -0.026528 -0.001716 0.004955
v -0.030987 0.033128 0.033626
v -0.030987 0.033128 0.033626
v -0.029446 0.033037 0.025592
v -0.029446 0.033037 0.025592
v -0.025658 0.002182 0.001038
v -0.024517 -0.016711 -0.007377
v -0.016969 -0.019803 -0.009254
v 0.001440 -0.017279 -0.015756
v 0.009831 -0.016757 -0.018098
v 0.002257 -0.021116 -0.012137
v 0.011398 -0.020637 -0.014599
v 0.016877 -0.014386 -0.018427
v 0.019042 -0.018139 -0.014822
vn 0.8752 0.0617 -0.4799
vn 0.6009 0.7382 0.3066
vn 0.8713 0.0407 -0.4891
vn -0.9816 0.0296 -0.1886
vn -0.9811 0.0262 -0.1918
vn -0.1528 -0.6952 -0.7024
vn 0.1819 -0.6245 -0.7595
vn 0.8465 -0.0226 -0.5320
vn 0.0007 0.9999 -0.0106
vn 0.0009 0.9999 -0.0109
vn 0.0010 0.9999 -0.0111
vn -0.0709 -0.6392 0.7658
vn -0.0714 -0.6392 0.7657
vn 0.0147 -0.6408 0.7676
vn 0.2307 -0.6400 0.7329
vn 0.2306 -0.6399 0.7330
vn 0.1518 -0.6418 0.7517
vn -0.2455 0.6259 -0.7403
vn -0.2454 0.6259 -0.7403
vn -0.1363 0.6284 -0.7659
vn -0.0077 0.6267 -0.7792
vn 0.0715 0.6191 -0.7820
vn 0.0399 0.6251 -0.7795
vn 0.1225 -0.6413 0.7575
vn -0.0216 0.6253 -0.7801
vn -0.1655 0.6284 -0.7601
vn 0.5755 0.7853 0.2282
vn 0.5967 0.7528 0.2780
vn 0.6062 0.7286 0.3187
vn -0.3894 -0.4697 -0.7923
vn -0.5526 -0.5863 -0.5924
vn 0.1730 -0.6202 -0.7651
vn 0.8468 -0.0226 -0.5314
vn 0.0005 0.9999 -0.0105
vn -0.0181 -0.6407 0.7676
vn -0.0614 -0.6389 0.7668
vn 0.2308 -0.6401 0.7328
vn 0.2306 -0.6400 0.7330
vn 0.2310 -0.6400 0.7328
vn -0.2460 0.6257 -0.7402
vn -0.2405 0.6254 -0.7424
vn -0.2451 0.6257 -0.7406
vn 0.0396 0.6252 -0.7795
vt 1.000000 0.608196
vt 0.608363 0.608363
vt 0.562468 0.562468
vt 0.650602 0.650602
vt 0.648221 0.417128
vt 0.711843 0.173533
vt 1.000000 0.562468
vt 0.610335 0.000000
vt 0.638172 0.000000
vt 0.597103 0.479666
vt 0.457752 0.000000
vt 0.651647 0.549812
vt 0.457752 0.457752
vt 0.848357 0.000000
vt 0.897818 0.000000
vt 0.891901 0.217415
vt 0.959427 0.000000
vt 0.909744 0.708502
vt 0.927631 0.927631
vt 0.808749 0.000000
vt 0.928366 0.000000
vt 1.000000 0.361828
vt 0.040146 0.000000
vt 0.107210 0.000000
vt 0.750000 0.750000
vt 0.762991 0.736254
vt 0.765351 0.750000
vt 0.625000 0.890351
vt 0.595591 0.886607
vt 0.594885 0.875000
vt 0.598700 0.814641
vt 0.610724 0.813237
vt 0.594138 0.843750
vt 0.697273 0.736254
vt 0.708733 0.736254
vt 0.722186 0.736254
vt 0.750000 0.736254
vt 0.759904 0.736254
vt 0.761143 0.736254
vt 0.616596 0.843750
vt 0.750000 0.736254
vt 0.722186 0.736254
vt 1.000000 0.650602
vt 0.693267 0.444725
vt 0.608196 0.608196
vt 0.663170 0.201966
vt 1.000000 0.608363
vt 0.431073 0.000000
vt 0.431073 0.431073
vt 0.880172 0.880172
vt 0.822819 0.822819
vt 0.850194 0.671307
vt 0.955624 0.235916
vt 0.894033 0.000000
vt 0.810753 0.810753
vt 1.000000 0.389665
vt 0.625000 0.875000
vt 0.605176 0.888225
vt 0.594442 0.827560
vt 0.595848 0.815990
vt 0.606403 0.813452
vt 0.616596 0.843750
vt 0.695931 0.736254
vt 0.696168 0.736254
vt 0.698471 0.736254
vt 0.762991 0.736254
vt 0.750000 0.736254
vt 0.745252 0.736254
s 0
usemtl マテリアル
f 25/1/1 28/2/1 26/3/1
f 27/4/2 30/5/2 33/6/2
f 26/7/3 38/8/3 35/9/3
f 42/10/4 39/11/4 40/12/4
f 39/13/5 36/14/5 45/15/5
f 47/16/6 50/17/6 46/18/6
f 50/19/7 51/20/7 52/21/7
f 35/22/8 52/23/8 51/24/8
s 1
f 34/25/9 43/26/10 41/27/11
f 13/28/12 15/29/13 18/30/14
f 10/31/15 2/32/16 19/33/17
f 9/34/18 22/35/19 8/36/20
f 6/37/21 16/38/22 12/39/23
f 7/40/24 18/30/14 19/33/17
f 17/41/25 8/42/20 20/42/26
s 0
f 25/1/1 27/43/1 28/2/1
f 33/6/27 29/44/27 27/4/27
f 27/4/28 25/45/28 30/5/28
f 30/5/29 31/46/29 33/6/29
f 26/7/3 28/47/3 38/8/3
f 42/10/4 44/48/4 39/11/4
f 39/13/5 44/49/5 36/14/5
f 46/18/30 45/50/30 36/51/30
f 46/18/31 36/51/31 37/52/31
f 50/17/6 49/53/6 46/18/6
f 47/16/6 48/54/6 50/17/6
f 46/18/6 37/52/6 47/16/6
f 50/19/32 48/55/32 51/20/32
f 35/22/33 38/56/33 52/23/33
s 1
f 34/25/9 32/37/34 43/26/10
f 18/30/14 1/57/35 13/28/12
f 13/28/12 11/58/36 15/29/13
f 21/59/37 24/60/38 10/31/15
f 10/31/15 3/61/39 2/32/16
f 2/32/16 7/62/24 19/33/17
f 19/33/17 21/59/37 10/31/15
f 4/63/40 5/64/41 9/34/18
f 9/34/18 23/65/42 22/35/19
f 22/35/19 20/42/26 8/36/20
f 8/36/20 4/63/40 9/34/18
f 12/39/23 14/66/43 6/37/21
f 6/37/21 17/67/25 16/38/22
f 7/40/24 1/57/35 18/30/14
f 17/41/25 6/68/21 8/42/20
