# Blender 4.4.1
# www.blender.org
mtllib piece14.mtl
o 立方体.002_cell.069
v 0.011104 -0.001929 -0.009352
v 0.002970 -0.002213 0.012599
v -0.009830 -0.002166 0.005603
v -0.002587 -0.002202 0.025006
v -0.006726 -0.002182 0.015479
v 0.000769 0.000862 0.016009
v -0.001275 0.001149 -0.021810
v -0.011339 -0.002123 -0.007670
v -0.010228 -0.002089 -0.019677
v 0.004356 0.002348 0.006697
v 0.009411 0.004042 -0.007670
v 0.006386 0.003182 0.000855
v 0.006989 0.003321 -0.016069
v -0.009830 -0.002166 0.005603
v -0.006726 -0.002182 0.015479
v -0.002587 -0.002202 0.025006
v -0.011339 -0.002123 -0.007670
v -0.010228 -0.002089 -0.019677
v 0.004356 0.002348 0.006697
v 0.006386 0.003182 0.000855
v 0.009411 0.004042 -0.007670
v 0.000769 0.000862 0.016009
v -0.001275 0.001149 -0.021810
v 0.006989 0.003321 -0.016069
vn -0.0034 -1.0000 -0.0006
vn 0.8950 0.1962 0.4007
vn -0.0020 -1.0000 -0.0030
vn -0.1687 -0.9828 -0.0752
vn 0.9241 0.1650 0.3446
vn 0.8980 0.2201 0.3810
vn 0.8971 0.3354 -0.2875
vn -0.3486 0.9325 0.0948
vn -0.3811 0.9093 0.1674
vn -0.3795 0.9228 0.0668
vn -0.2950 0.9555 0.0036
vn -0.3019 0.9531 0.0221
vn -0.2848 0.9586 -0.0022
vn -0.3776 0.9260 0.0012
vn -0.2928 0.9561 0.0099
vn -0.3004 0.9538 0.0032
vn -0.3173 0.9430 0.1000
vn 0.3096 -0.9419 -0.1302
vn 0.5896 -0.4203 -0.6897
vn -0.2950 0.9532 0.0661
vt 1.000000 0.000000
vt 0.953258 0.293196
vt 0.911402 0.000000
vt 0.097546 0.000000
vt 0.553609 0.553609
vt 0.000000 0.000000
vt 0.619892 0.095457
vt 0.072755 0.072755
vt 1.000000 1.000000
vt 0.435883 0.178411
vt 0.779317 0.554054
vt 1.000000 0.884675
vt 0.807300 0.807300
vt 0.772371 0.410726
vt 0.734337 0.000000
vt 0.375000 0.062500
vt 0.375000 0.035235
vt 0.394027 0.062500
vt 0.375000 0.125000
vt 0.406988 0.093750
vt 0.414192 0.125000
vt 0.400005 0.075339
vt 0.408150 0.156250
vt 0.375000 0.156250
vt 0.408150 0.156250
vt 0.389962 0.168510
vt 1.000000 0.553609
vt 0.967967 0.091051
vt 1.000000 0.807300
vt 0.816892 0.816892
vt 0.375000 0.093750
vt 0.394027 0.062500
vt 0.416221 0.141586
s 0
usemtl マテリアル
f 2/1/1 15/2/1 14/3/1
f 22/4/2 16/5/2 2/6/2
f 2/1/3 17/7/3 18/8/3
f 23/6/4 1/1/4 2/9/4
f 2/9/5 21/10/5 20/11/5
f 22/12/6 2/9/6 19/13/6
f 1/1/7 24/14/7 21/15/7
s 1
f 5/16/8 4/17/9 6/18/10
f 8/19/11 12/20/12 11/21/13
f 5/16/8 10/22/14 12/20/12
f 8/19/11 13/23/15 9/24/16
f 13/25/15 7/26/17 9/24/16
s 0
f 2/1/1 16/27/1 15/2/1
f 18/8/18 23/6/18 2/1/18
f 2/1/3 14/28/3 17/7/3
f 20/11/5 19/29/5 2/9/5
f 2/9/5 1/6/5 21/10/5
f 1/1/19 23/30/19 24/14/19
s 1
f 8/19/11 3/31/20 12/20/12
f 12/20/12 3/31/20 5/16/8
f 5/16/8 6/32/10 10/22/14
f 8/19/11 11/33/13 13/23/15
