# Blender 4.4.1
# www.blender.org
mtllib piece0.mtl
o 立方体.002_cell.009
v 0.010211 0.007238 0.013688
v 0.004216 0.013059 0.012099
v 0.000557 0.004590 0.004593
v 0.005366 0.004590 0.001906
v 0.011122 0.006531 0.001088
v 0.011373 -0.009569 -0.000253
v 0.009835 -0.000194 -0.020326
v 0.010549 -0.009569 -0.016447
v 0.005153 0.012181 0.003296
v -0.002847 -0.009569 0.010197
v 0.005969 -0.009569 0.012167
v 0.009726 -0.009569 0.007739
v -0.012131 0.000723 -0.007805
v -0.006870 0.000800 -0.011151
v -0.008986 -0.009569 -0.004569
v -0.001734 0.000614 -0.014285
v 0.004362 -0.009569 -0.012960
v 0.004205 0.000326 -0.017498
v 0.001769 0.015136 0.005805
v -0.000966 0.014052 0.010615
v -0.013989 -0.009569 0.007018
v -0.017850 0.000959 0.005863
v -0.002398 0.004590 0.010254
v -0.011926 -0.009569 0.001480
v -0.014716 0.000926 -0.002513
v 0.011373 -0.009569 -0.000253
v 0.009726 -0.009569 0.007739
v -0.006870 0.000800 -0.011151
v -0.001734 0.000614 -0.014285
v 0.010549 -0.009569 -0.016447
v -0.008986 -0.009569 -0.004569
v 0.004362 -0.009569 -0.012960
v -0.002847 -0.009569 0.010197
v -0.013989 -0.009569 0.007018
v -0.000966 0.014052 0.010615
v -0.002398 0.004590 0.010254
v -0.017850 0.000959 0.005863
v -0.011926 -0.009569 0.001480
v 0.011122 0.006531 0.001088
v 0.009835 -0.000194 -0.020326
v 0.005153 0.012181 0.003296
v 0.005969 -0.009569 0.012167
v -0.012131 0.000723 -0.007805
v 0.004205 0.000326 -0.017498
v 0.001769 0.015136 0.005805
v -0.014716 0.000926 -0.002513
vn 0.9975 0.0655 -0.0253
vn 0.6891 0.7246 0.0092
vn -0.2571 -0.0009 0.9664
vn -0.2179 -0.0333 0.9754
vn 0.7396 -0.2434 0.6275
vn -0.4891 -0.3941 -0.7781
vn -0.4502 -0.3705 -0.8124
vn 0.6555 0.7552 -0.0056
vn -0.2744 0.0049 0.9616
vn -0.8754 -0.3568 -0.3261
vn -0.8335 -0.3757 -0.4050
vn -0.1505 0.9771 -0.1507
vn -0.4790 0.7447 -0.4646
vn -0.1069 0.9763 -0.1879
vn -0.8744 0.1524 -0.4606
vn -0.7460 0.1601 -0.6464
vn -0.0895 0.9627 -0.2551
vn -0.2962 0.7367 -0.6078
vn -0.0605 0.9533 -0.2958
vn -0.3182 0.7289 -0.6062
vn -0.0762 0.9756 -0.2061
vn -0.1891 0.9763 -0.1049
vn -0.6190 0.7181 -0.3180
vn -0.2061 0.9752 -0.0810
vn -0.0000 -1.0000 -0.0000
vn -0.4227 0.1586 -0.8923
vn 0.8860 -0.4550 0.0896
vn 0.9926 0.1105 -0.0505
vn 0.6963 0.7177 0.0024
vn 0.9746 -0.0992 0.2008
vn -0.4547 -0.3772 -0.8068
vn -0.4024 -0.6017 -0.6900
vn 0.1043 0.9558 0.2749
vn -0.8369 -0.3797 -0.3943
vt 1.000000 0.000000
vt 0.640334 0.640334
vt 0.227990 0.227990
vt 0.288649 0.288649
vt 0.536817 0.321279
vt 0.000000 0.000000
vt 1.000000 0.494037
vt 1.000000 1.000000
vt 0.494037 0.494037
vt 0.213864 0.000000
vt 0.754598 0.306728
vt 1.000000 0.774772
vt 0.348125 0.000000
vt 0.605458 0.598444
vt 1.000000 0.298321
vt 1.000000 0.589725
vt 0.907735 0.139429
vt 1.000000 0.244291
vt 1.000000 0.420373
vt 0.818195 0.818195
vt 0.868582 0.633257
vt 0.579068 0.446058
vt 1.000000 0.735128
vt 0.631193 0.631193
vt 0.566354 0.566354
vt 0.651875 0.000000
vt 0.735128 0.735128
vt 0.426085 0.250000
vt 0.458333 0.281250
vt 0.426591 0.281250
vt 0.458333 0.250000
vt 0.477932 0.218750
vt 0.476081 0.250000
vt 0.422624 0.343750
vt 0.458333 0.375000
vt 0.418513 0.367624
vt 0.458333 0.312500
vt 0.425031 0.311882
vt 0.458333 0.343750
vt 0.425009 0.312500
vt 0.427645 0.218750
vt 0.458333 0.218750
vt 0.427645 0.218750
vt 0.428197 0.187500
vt 0.250704 0.595731
vt 0.199094 0.607390
vt 0.206624 0.582374
vt 0.468810 0.323838
vt 0.466272 0.343750
vt 0.470129 0.312500
vt 0.637970 0.000000
vt 1.000000 0.668259
vt 1.000000 0.440653
vt 0.504372 0.010356
vt 1.000000 0.601563
vt 0.774772 0.774772
vt 0.816381 0.433974
vt 0.858877 0.000000
vt 0.394587 0.000000
vt 0.631193 0.000000
vt 1.000000 0.566354
vt 0.504577 0.000000
vt 0.425947 0.248939
vt 0.235233 0.568173
vt 0.254360 0.562292
vt 0.247398 0.610909
vt 0.240150 0.619273
vt 0.222757 0.614943
vt 0.202120 0.595522
vt 0.473372 0.281250
s 0
usemtl マテリアル
f 1/1/1 30/2/1 40/3/1
f 41/4/2 1/1/2 39/5/2
f 2/6/3 33/7/3 1/8/3
f 42/1/4 1/8/4 33/9/4
f 27/10/5 1/8/5 42/6/5
f 28/11/6 32/12/6 31/13/6
f 29/14/7 40/15/7 30/16/7
f 19/17/8 2/1/8 41/18/8
f 33/19/9 35/20/9 36/21/9
f 37/22/10 38/23/10 34/24/10
f 46/25/11 31/26/11 38/27/11
s 1
f 13/28/12 3/29/13 14/30/14
f 3/31/13 20/32/15 45/33/16
f 18/34/17 5/35/18 7/36/19
f 14/30/14 4/37/20 16/38/21
f 4/39/20 18/34/17 16/40/21
f 3/31/13 25/41/22 23/42/23
f 23/42/23 25/43/22 22/44/24
f 6/45/25 21/46/25 15/47/25
f 4/37/20 9/48/26 5/49/18
f 3/29/13 9/50/26 4/37/20
s 0
f 40/3/27 39/51/27 1/1/27
f 1/1/28 26/52/28 30/2/28
f 41/4/29 2/6/29 1/1/29
f 27/10/30 26/53/30 1/8/30
f 31/13/6 43/54/6 28/11/6
f 28/11/6 29/55/6 32/12/6
f 30/16/31 32/56/31 29/14/31
f 29/14/32 44/57/32 40/15/32
f 19/17/33 35/58/33 2/1/33
f 37/59/9 34/60/9 33/19/9
f 33/19/9 2/8/9 35/20/9
f 36/21/9 37/59/9 33/19/9
f 37/22/10 46/61/10 38/23/10
f 46/25/34 43/62/34 31/26/34
s 1
f 3/31/13 23/42/23 20/32/15
f 18/34/17 4/39/20 5/35/18
f 14/30/14 3/29/13 4/37/20
f 3/31/13 13/63/12 25/41/22
f 17/64/25 8/65/25 6/45/25
f 6/45/25 12/66/25 11/67/25
f 11/67/25 10/68/25 21/46/25
f 21/46/25 24/69/25 15/47/25
f 15/47/25 17/64/25 6/45/25
f 6/45/25 11/67/25 21/46/25
f 3/29/13 45/70/16 9/50/26
