# Blender 4.4.1
# www.blender.org
mtllib Bottle.mtl
o vin_rouge
v 0.000000 -0.263413 -0.130581
v 0.000000 0.267984 -0.036022
v 0.025475 -0.263413 -0.128072
v 0.007028 0.267984 -0.035330
v 0.049971 -0.263413 -0.120641
v 0.013785 0.267984 -0.033280
v 0.072547 -0.263413 -0.108574
v 0.020013 0.267984 -0.029951
v 0.092334 -0.263413 -0.092334
v 0.025472 0.267984 -0.025472
v 0.108574 -0.263413 -0.072547
v 0.029951 0.267984 -0.020013
v 0.120641 -0.263413 -0.049971
v 0.033280 0.267984 -0.013785
v 0.128072 -0.263413 -0.025475
v 0.035330 0.267984 -0.007028
v 0.130581 -0.263413 0.000000
v 0.036022 0.267984 -0.000000
v 0.128072 -0.263413 0.025475
v 0.035330 0.267984 0.007028
v 0.120641 -0.263413 0.049971
v 0.033280 0.267984 0.013785
v 0.108574 -0.263413 0.072547
v 0.029951 0.267984 0.020013
v 0.092334 -0.263413 0.092334
v 0.025472 0.267984 0.025472
v 0.072547 -0.263413 0.108574
v 0.020013 0.267984 0.029951
v 0.049971 -0.263413 0.120641
v 0.013785 0.267984 0.033280
v 0.025475 -0.263413 0.128072
v 0.007028 0.267984 0.035330
v 0.000000 -0.263413 0.130581
v 0.000000 0.267984 0.036022
v -0.025475 -0.263413 0.128072
v -0.007028 0.267984 0.035330
v -0.049971 -0.263413 0.120641
v -0.013785 0.267984 0.033280
v -0.072547 -0.263413 0.108574
v -0.020013 0.267984 0.029951
v -0.092334 -0.263413 0.092334
v -0.025472 0.267984 0.025472
v -0.108574 -0.263413 0.072547
v -0.029951 0.267984 0.020013
v -0.120641 -0.263413 0.049971
v -0.033280 0.267984 0.013785
v -0.128072 -0.263413 0.025475
v -0.035330 0.267984 0.007028
v -0.130581 -0.263413 0.000000
v -0.036022 0.267984 -0.000000
v -0.128072 -0.263413 -0.025475
v -0.035330 0.267984 -0.007028
v -0.120641 -0.263413 -0.049971
v -0.033280 0.267984 -0.013785
v -0.108574 -0.263413 -0.072547
v -0.029951 0.267984 -0.020013
v -0.092334 -0.263413 -0.092334
v -0.025472 0.267984 -0.025472
v -0.072547 -0.263413 -0.108574
v -0.020013 0.267984 -0.029951
v -0.049971 -0.263413 -0.120641
v -0.013785 0.267984 -0.033280
v -0.025475 -0.263413 -0.128072
v -0.007028 0.267984 -0.035330
v 0.027233 0.181528 -0.136908
v 0.000000 0.181528 -0.139590
v 0.053419 0.181528 -0.128964
v 0.077552 0.181528 -0.116065
v 0.098705 0.181528 -0.098705
v 0.116065 0.181528 -0.077552
v 0.128964 0.181528 -0.053419
v 0.136908 0.181528 -0.027233
v 0.139590 0.181528 0.000000
v 0.136908 0.181528 0.027233
v 0.128964 0.181528 0.053419
v 0.116065 0.181528 0.077552
v 0.098705 0.181528 0.098705
v 0.077552 0.181528 0.116065
v 0.053419 0.181528 0.128964
v 0.027233 0.181528 0.136908
v 0.000000 0.181528 0.139590
v -0.027233 0.181528 0.136908
v -0.053419 0.181528 0.128964
v -0.077552 0.181528 0.116065
v -0.098705 0.181528 0.098705
v -0.116065 0.181528 0.077552
v -0.128964 0.181528 0.053419
v -0.136908 0.181528 0.027233
v -0.139590 0.181528 0.000000
v -0.136908 0.181528 -0.027233
v -0.128964 0.181528 -0.053419
v -0.116065 0.181528 -0.077552
v -0.098705 0.181528 -0.098705
v -0.077552 0.181528 -0.116065
v -0.053419 0.181528 -0.128964
v -0.027233 0.181528 -0.136908
v 0.007027 0.472352 -0.035330
v -0.000000 0.472352 -0.036022
v 0.013785 0.472352 -0.033280
v 0.020013 0.472352 -0.029951
v 0.025471 0.472352 -0.025472
v 0.029951 0.472352 -0.020013
v 0.033280 0.472352 -0.013785
v 0.035330 0.472352 -0.007028
v 0.036022 0.472352 -0.000000
v 0.035330 0.472352 0.007028
v 0.033280 0.472352 0.013785
v 0.029951 0.472352 0.020013
v 0.025471 0.472352 0.025472
v 0.020013 0.472352 0.029951
v 0.013785 0.472352 0.033280
v 0.007027 0.472352 0.035330
v -0.000000 0.472352 0.036022
v -0.007028 0.472352 0.035330
v -0.013785 0.472352 0.033280
v -0.020013 0.472352 0.029951
v -0.025472 0.472352 0.025472
v -0.029952 0.472352 0.020013
v -0.033280 0.472352 0.013785
v -0.035330 0.472352 0.007028
v -0.036022 0.472352 -0.000000
v -0.035330 0.472352 -0.007028
v -0.033280 0.472352 -0.013785
v -0.029952 0.472352 -0.020013
v -0.025472 0.472352 -0.025472
v -0.020013 0.472352 -0.029951
v -0.013785 0.472352 -0.033280
v -0.007028 0.472352 -0.035330
v 0.000000 0.237823 -0.087806
v 0.017130 0.237823 -0.086119
v 0.033602 0.237823 -0.081122
v 0.048782 0.237823 -0.073008
v 0.062088 0.237823 -0.062088
v 0.073008 0.237823 -0.048782
v 0.081122 0.237823 -0.033602
v 0.086119 0.237823 -0.017130
v 0.087806 0.237823 -0.000000
v 0.086119 0.237823 0.017130
v 0.081122 0.237823 0.033602
v 0.073008 0.237823 0.048782
v 0.062088 0.237823 0.062088
v 0.048782 0.237823 0.073008
v 0.033602 0.237823 0.081122
v 0.017130 0.237823 0.086119
v 0.000000 0.237823 0.087806
v -0.017130 0.237823 0.086119
v -0.033602 0.237823 0.081122
v -0.048782 0.237823 0.073008
v -0.062088 0.237823 0.062088
v -0.073008 0.237823 0.048782
v -0.081122 0.237823 0.033602
v -0.086119 0.237823 0.017130
v -0.087806 0.237823 -0.000000
v -0.086119 0.237823 -0.017130
v -0.081122 0.237823 -0.033602
v -0.073008 0.237823 -0.048782
v -0.062088 0.237823 -0.062088
v -0.048782 0.237823 -0.073008
v -0.033602 0.237823 -0.081122
v -0.017130 0.237823 -0.086119
v 0.008180 0.473614 -0.041123
v -0.000000 0.473614 -0.041929
v 0.016045 0.473614 -0.038737
v 0.023294 0.473614 -0.034862
v 0.029648 0.473614 -0.029648
v 0.034862 0.473614 -0.023294
v 0.038737 0.473614 -0.016045
v 0.041123 0.473614 -0.008180
v 0.041928 0.473614 -0.000000
v 0.041123 0.473614 0.008180
v 0.038737 0.473614 0.016045
v 0.034862 0.473614 0.023294
v 0.029648 0.473614 0.029648
v 0.023294 0.473614 0.034862
v 0.016045 0.473614 0.038737
v 0.008180 0.473614 0.041123
v -0.000000 0.473614 0.041929
v -0.008180 0.473614 0.041123
v -0.016046 0.473614 0.038737
v -0.023294 0.473614 0.034862
v -0.029648 0.473614 0.029648
v -0.034862 0.473614 0.023294
v -0.038737 0.473614 0.016045
v -0.041123 0.473614 0.008180
v -0.041929 0.473614 -0.000000
v -0.041123 0.473614 -0.008180
v -0.038737 0.473614 -0.016045
v -0.034862 0.473614 -0.023294
v -0.029648 0.473614 -0.029648
v -0.023294 0.473614 -0.034862
v -0.016046 0.473614 -0.038737
v -0.008180 0.473614 -0.041123
v 0.006870 0.552061 -0.034540
v -0.000000 0.552061 -0.035216
v 0.013476 0.552061 -0.032536
v 0.019565 0.552061 -0.029281
v 0.024901 0.552061 -0.024902
v 0.029281 0.552061 -0.019565
v 0.032535 0.552061 -0.013477
v 0.034539 0.552061 -0.006870
v 0.035216 0.552061 -0.000000
v 0.034539 0.552061 0.006870
v 0.032535 0.552061 0.013477
v 0.029281 0.552061 0.019565
v 0.024901 0.552061 0.024902
v 0.019565 0.552061 0.029281
v 0.013476 0.552061 0.032536
v 0.006870 0.552061 0.034540
v -0.000000 0.552061 0.035216
v -0.006871 0.552061 0.034540
v -0.013477 0.552061 0.032536
v -0.019565 0.552061 0.029281
v -0.024902 0.552061 0.024902
v -0.029281 0.552061 0.019565
v -0.032536 0.552061 0.013477
v -0.034540 0.552061 0.006870
v -0.035216 0.552061 -0.000000
v -0.034540 0.552061 -0.006870
v -0.032536 0.552061 -0.013477
v -0.029281 0.552061 -0.019565
v -0.024902 0.552061 -0.024902
v -0.019565 0.552061 -0.029281
v -0.013477 0.552061 -0.032536
v -0.006871 0.552061 -0.034540
v 0.008180 0.552061 -0.041123
v -0.000000 0.552061 -0.041929
v 0.016045 0.552061 -0.038737
v 0.023294 0.552061 -0.034862
v 0.029648 0.552061 -0.029648
v 0.034862 0.552061 -0.023294
v 0.038737 0.552061 -0.016045
v 0.041123 0.552061 -0.008180
v 0.041928 0.552061 -0.000000
v 0.041123 0.552061 0.008180
v 0.038737 0.552061 0.016045
v 0.034862 0.552061 0.023294
v 0.029648 0.552061 0.029648
v 0.023294 0.552061 0.034862
v 0.016045 0.552061 0.038737
v 0.008180 0.552061 0.041123
v -0.000000 0.552061 0.041929
v -0.008180 0.552061 0.041123
v -0.016046 0.552061 0.038737
v -0.023294 0.552061 0.034862
v -0.029648 0.552061 0.029648
v -0.034863 0.552061 0.023294
v -0.038737 0.552061 0.016045
v -0.041123 0.552061 0.008180
v -0.041929 0.552061 -0.000000
v -0.041123 0.552061 -0.008180
v -0.038737 0.552061 -0.016045
v -0.034863 0.552061 -0.023294
v -0.029648 0.552061 -0.029648
v -0.023294 0.552061 -0.034862
v -0.016046 0.552061 -0.038737
v -0.008180 0.552061 -0.041123
v 0.006870 0.559559 -0.034540
v -0.000000 0.559559 -0.035216
v 0.013476 0.559559 -0.032536
v 0.019565 0.559559 -0.029281
v 0.024901 0.559559 -0.024902
v 0.029281 0.559559 -0.019565
v 0.032535 0.559559 -0.013477
v 0.034539 0.559559 -0.006870
v 0.035216 0.559559 -0.000000
v 0.034539 0.559559 0.006870
v 0.032535 0.559559 0.013477
v 0.029281 0.559559 0.019565
v 0.024901 0.559559 0.024902
v 0.019565 0.559559 0.029281
v 0.013476 0.559559 0.032536
v 0.006870 0.559559 0.034540
v -0.000000 0.559559 0.035216
v -0.006871 0.559559 0.034540
v -0.013477 0.559559 0.032536
v -0.019565 0.559559 0.029281
v -0.024902 0.559559 0.024902
v -0.029281 0.559559 0.019565
v -0.032536 0.559559 0.013477
v -0.034540 0.559559 0.006870
v -0.035216 0.559559 -0.000000
v -0.034540 0.559559 -0.006870
v -0.032536 0.559559 -0.013477
v -0.029281 0.559559 -0.019565
v -0.024902 0.559559 -0.024902
v -0.019565 0.559559 -0.029281
v -0.013477 0.559559 -0.032536
v -0.006871 0.559559 -0.034540
v 0.000000 -0.255177 -0.139590
v 0.027233 -0.255177 -0.136908
v 0.053419 -0.255177 -0.128964
v 0.077552 -0.255177 -0.116065
v 0.098705 -0.255177 -0.098705
v 0.116065 -0.255177 -0.077552
v 0.128964 -0.255177 -0.053419
v 0.136908 -0.255177 -0.027233
v 0.139590 -0.255177 0.000000
v 0.136908 -0.255177 0.027233
v 0.128964 -0.255177 0.053419
v 0.116065 -0.255177 0.077552
v 0.098705 -0.255177 0.098705
v 0.077552 -0.255177 0.116065
v 0.053419 -0.255177 0.128964
v 0.027233 -0.255177 0.136908
v 0.000000 -0.255177 0.139590
v -0.027233 -0.255177 0.136908
v -0.053419 -0.255177 0.128964
v -0.077552 -0.255177 0.116065
v -0.098705 -0.255177 0.098705
v -0.116065 -0.255177 0.077552
v -0.128964 -0.255177 0.053419
v -0.136908 -0.255177 0.027233
v -0.139590 -0.255177 0.000000
v -0.136908 -0.255177 -0.027233
v -0.128964 -0.255177 -0.053419
v -0.116065 -0.255177 -0.077552
v -0.098705 -0.255177 -0.098705
v -0.077552 -0.255177 -0.116065
v -0.053419 -0.255177 -0.128964
v -0.027233 -0.255177 -0.136908
v 0.022822 0.209975 -0.114733
v 0.044767 0.209975 -0.108076
v 0.064991 0.209975 -0.097266
v 0.082718 0.209975 -0.082718
v 0.097266 0.209975 -0.064991
v 0.108076 0.209975 -0.044767
v 0.114733 0.209975 -0.022822
v 0.116981 0.209975 -0.000000
v 0.114733 0.209975 0.022822
v 0.108076 0.209975 0.044767
v 0.097266 0.209975 0.064991
v 0.082718 0.209975 0.082718
v 0.064991 0.209975 0.097266
v 0.044767 0.209975 0.108076
v 0.022822 0.209975 0.114733
v 0.000000 0.209975 0.116981
v -0.022822 0.209975 0.114733
v -0.044767 0.209975 0.108076
v -0.064991 0.209975 0.097266
v -0.082718 0.209975 0.082718
v -0.097266 0.209975 0.064991
v -0.108076 0.209975 0.044767
v -0.114733 0.209975 0.022822
v -0.116981 0.209975 -0.000000
v -0.114733 0.209975 -0.022822
v -0.108076 0.209975 -0.044767
v -0.097266 0.209975 -0.064991
v -0.082718 0.209975 -0.082718
v -0.064991 0.209975 -0.097266
v -0.044767 0.209975 -0.108076
v -0.022822 0.209975 -0.114733
v 0.000000 0.209975 -0.116981
v 0.000000 0.252904 -0.066988
v 0.013069 0.252904 -0.065701
v 0.025635 0.252904 -0.061889
v 0.037216 0.252904 -0.055698
v 0.047368 0.252904 -0.047368
v 0.055698 0.252904 -0.037216
v 0.061889 0.252904 -0.025635
v 0.065701 0.252904 -0.013069
v 0.066988 0.252904 -0.000000
v 0.065701 0.252904 0.013069
v 0.061889 0.252904 0.025635
v 0.055698 0.252904 0.037216
v 0.047368 0.252904 0.047368
v 0.037216 0.252904 0.055698
v 0.025635 0.252904 0.061889
v 0.013069 0.252904 0.065701
v 0.000000 0.252904 0.066988
v -0.013069 0.252904 0.065701
v -0.025635 0.252904 0.061889
v -0.037216 0.252904 0.055698
v -0.047368 0.252904 0.047368
v -0.055698 0.252904 0.037216
v -0.061889 0.252904 0.025635
v -0.065701 0.252904 0.013069
v -0.066988 0.252904 -0.000000
v -0.065701 0.252904 -0.013069
v -0.061889 0.252904 -0.025635
v -0.055698 0.252904 -0.037216
v -0.047368 0.252904 -0.047368
v -0.037216 0.252904 -0.055698
v -0.025635 0.252904 -0.061889
v -0.013069 0.252904 -0.065701
vn -0.0000 0.3233 -0.9463
vn 0.1793 -0.3943 -0.9013
vn -0.0000 -0.3943 -0.9190
vn 0.1846 0.3233 -0.9281
vn 0.3517 -0.3943 -0.8490
vn 0.3621 0.3233 -0.8743
vn 0.5106 -0.3943 -0.7641
vn 0.5257 0.3233 -0.7868
vn 0.6498 -0.3943 -0.6498
vn 0.6691 0.3233 -0.6691
vn 0.7641 -0.3943 -0.5106
vn 0.7868 0.3233 -0.5257
vn 0.8490 -0.3943 -0.3517
vn 0.8743 0.3233 -0.3621
vn 0.9013 -0.3943 -0.1793
vn 0.9281 0.3233 -0.1846
vn 0.9190 -0.3943 -0.0000
vn 0.9463 0.3233 -0.0000
vn 0.9013 -0.3943 0.1793
vn 0.9281 0.3233 0.1846
vn 0.8490 -0.3943 0.3517
vn 0.8743 0.3233 0.3621
vn 0.7641 -0.3943 0.5106
vn 0.7868 0.3233 0.5257
vn 0.6498 -0.3943 0.6498
vn 0.6691 0.3233 0.6691
vn 0.5106 -0.3943 0.7641
vn 0.5257 0.3233 0.7868
vn 0.3517 -0.3943 0.8490
vn 0.3621 0.3233 0.8743
vn 0.1793 -0.3943 0.9013
vn 0.1846 0.3233 0.9281
vn -0.0000 -0.3943 0.9190
vn -0.0000 0.3233 0.9463
vn -0.1793 -0.3943 0.9013
vn -0.1846 0.3233 0.9281
vn -0.3517 -0.3943 0.8490
vn -0.3621 0.3233 0.8743
vn -0.5106 -0.3943 0.7641
vn -0.5257 0.3233 0.7868
vn -0.6498 -0.3943 0.6498
vn -0.6691 0.3233 0.6691
vn -0.7641 -0.3943 0.5106
vn -0.7868 0.3233 0.5257
vn -0.8490 -0.3943 0.3517
vn -0.8743 0.3233 0.3621
vn -0.9013 -0.3943 0.1793
vn -0.9281 0.3233 0.1846
vn -0.9190 -0.3943 -0.0000
vn -0.9463 0.3233 -0.0000
vn -0.9013 -0.3943 -0.1793
vn -0.9281 0.3233 -0.1846
vn -0.8490 -0.3943 -0.3517
vn -0.8743 0.3233 -0.3621
vn -0.7641 -0.3943 -0.5106
vn -0.7868 0.3233 -0.5257
vn -0.6498 -0.3943 -0.6498
vn -0.6691 0.3233 -0.6691
vn -0.5106 -0.3943 -0.7641
vn -0.5257 0.3233 -0.7868
vn -0.3517 -0.3943 -0.8490
vn -0.8220 0.5456 0.1635
vn -1.0000 -0.0000 -0.0000
vn -0.8381 0.5456 -0.0000
vn -0.3621 0.3233 -0.8743
vn -0.1793 -0.3943 -0.9013
vn -0.1846 0.3233 -0.9281
vn 0.0744 -0.9245 0.3739
vn -0.3739 -0.9245 0.0744
vn -0.0744 -0.9245 -0.3739
vn -0.0000 0.6722 -0.7403
vn 0.2833 0.6722 -0.6840
vn 0.1444 0.6722 -0.7261
vn 0.4113 0.6722 -0.6156
vn 0.6156 0.6722 -0.4113
vn 0.5235 0.6722 -0.5235
vn 0.6840 0.6722 -0.2833
vn 0.7403 0.6722 -0.0000
vn 0.7261 0.6722 -0.1444
vn 0.6840 0.6722 0.2833
vn 0.7261 0.6722 0.1444
vn 0.6156 0.6722 0.4113
vn 0.4113 0.6722 0.6156
vn 0.5235 0.6722 0.5235
vn 0.2833 0.6722 0.6840
vn -0.0000 0.6722 0.7403
vn 0.1444 0.6722 0.7261
vn -0.2833 0.6722 0.6840
vn -0.1444 0.6722 0.7261
vn -0.4113 0.6722 0.6156
vn -0.6156 0.6722 0.4113
vn -0.5235 0.6722 0.5235
vn -0.6840 0.6722 0.2833
vn -0.7403 0.6722 -0.0000
vn -0.7261 0.6722 0.1444
vn -0.6840 0.6722 -0.2833
vn -0.7261 0.6722 -0.1444
vn -0.6156 0.6722 -0.4113
vn -0.4113 0.6722 -0.6156
vn -0.5235 0.6722 -0.5235
vn -0.2833 0.6722 -0.6840
vn -0.1444 0.6722 -0.7261
vn -0.1931 -0.9779 -0.0800
vn -0.6586 -0.6104 -0.4401
vn -0.1738 -0.9779 -0.1161
vn 0.7743 0.5456 0.3207
vn 0.8315 -0.0000 0.5556
vn 0.6968 0.5456 0.4656
vn -0.9808 -0.0000 -0.1951
vn -0.8220 0.5456 -0.1635
vn 0.7071 -0.0000 0.7071
vn 0.5926 0.5456 0.5926
vn -0.9239 -0.0000 -0.3827
vn -0.7743 0.5456 -0.3207
vn 0.5556 -0.0000 0.8315
vn 0.4656 0.5456 0.6968
vn -0.8315 -0.0000 -0.5556
vn -0.6968 0.5456 -0.4656
vn 0.3827 -0.0000 0.9239
vn 0.3207 0.5456 0.7743
vn -0.0000 0.5456 -0.8381
vn 0.1951 -0.0000 -0.9808
vn 0.1635 0.5456 -0.8220
vn -0.7071 -0.0000 -0.7071
vn -0.5926 0.5456 -0.5926
vn 0.1951 -0.0000 0.9808
vn 0.1635 0.5456 0.8219
vn 0.3827 -0.0000 -0.9239
vn 0.3207 0.5456 -0.7743
vn -0.5556 -0.0000 -0.8315
vn -0.4656 0.5456 -0.6968
vn -0.0000 0.5456 0.8381
vn -0.0000 -0.0000 1.0000
vn 0.5556 -0.0000 -0.8315
vn 0.4656 0.5456 -0.6968
vn -0.3827 -0.0000 -0.9239
vn -0.3207 0.5456 -0.7743
vn -0.1635 0.5456 0.8220
vn -0.1951 -0.0000 0.9808
vn 0.7071 -0.0000 -0.7071
vn 0.5926 0.5456 -0.5926
vn -0.1951 -0.0000 -0.9808
vn -0.1635 0.5456 -0.8220
vn -0.3827 -0.0000 0.9239
vn -0.3207 0.5456 0.7743
vn 0.8315 -0.0000 -0.5556
vn 0.6968 0.5456 -0.4656
vn -0.0000 -0.0000 -1.0000
vn -0.5556 -0.0000 0.8315
vn -0.4656 0.5456 0.6968
vn 0.9239 -0.0000 -0.3827
vn 0.7743 0.5456 -0.3207
vn -0.7071 -0.0000 0.7071
vn -0.5926 0.5456 0.5926
vn 0.9808 -0.0000 -0.1951
vn 0.8220 0.5456 -0.1635
vn -0.8315 -0.0000 0.5556
vn -0.6968 0.5456 0.4656
vn 1.0000 -0.0000 -0.0000
vn 0.8381 0.5456 -0.0000
vn -0.9239 -0.0000 0.3827
vn -0.7743 0.5456 0.3207
vn 0.9808 -0.0000 0.1951
vn 0.8220 0.5456 0.1635
vn -0.9808 -0.0000 0.1951
vn 0.9239 -0.0000 0.3827
vn -0.0000 0.8553 -0.5181
vn -0.1253 0.7663 -0.6301
vn -0.1011 0.8553 -0.5082
vn -0.1983 0.8553 -0.4787
vn -0.2459 0.7663 -0.5936
vn -0.3570 0.7663 -0.5342
vn -0.2879 0.8553 -0.4308
vn -0.4543 0.7663 -0.4543
vn -0.3664 0.8553 -0.3664
vn -0.4308 0.8553 -0.2879
vn -0.5342 0.7663 -0.3570
vn -0.5936 0.7663 -0.2459
vn -0.4787 0.8553 -0.1983
vn -0.6301 0.7663 -0.1253
vn -0.5082 0.8553 -0.1011
vn -0.5181 0.8553 -0.0000
vn -0.6425 0.7663 -0.0000
vn -0.6301 0.7663 0.1253
vn -0.5082 0.8553 0.1011
vn -0.4787 0.8553 0.1983
vn -0.5936 0.7663 0.2459
vn -0.5342 0.7663 0.3570
vn -0.4308 0.8553 0.2879
vn -0.4543 0.7663 0.4543
vn -0.3664 0.8553 0.3664
vn -0.3569 0.7663 0.5342
vn -0.2879 0.8553 0.4308
vn -0.2459 0.7663 0.5936
vn -0.1983 0.8553 0.4787
vn -0.1253 0.7663 0.6301
vn -0.1011 0.8553 0.5082
vn -0.0000 0.8553 0.5181
vn -0.0000 0.7663 0.6425
vn 0.1253 0.7663 0.6301
vn 0.1011 0.8553 0.5082
vn 0.1983 0.8553 0.4787
vn 0.2459 0.7663 0.5936
vn 0.3570 0.7663 0.5342
vn 0.2879 0.8553 0.4308
vn 0.4543 0.7663 0.4543
vn 0.3664 0.8553 0.3664
vn 0.4308 0.8553 0.2879
vn 0.5342 0.7663 0.3570
vn 0.5936 0.7663 0.2459
vn 0.4787 0.8553 0.1983
vn 0.6301 0.7663 0.1253
vn 0.5082 0.8553 0.1011
vn 0.5181 0.8553 -0.0000
vn 0.6425 0.7663 -0.0000
vn 0.6301 0.7663 -0.1253
vn 0.5082 0.8553 -0.1011
vn 0.4787 0.8553 -0.1983
vn 0.5936 0.7663 -0.2459
vn 0.5342 0.7663 -0.3570
vn 0.4308 0.8553 -0.2879
vn 0.4543 0.7663 -0.4543
vn 0.3664 0.8553 -0.3664
vn 0.2879 0.8553 -0.4308
vn 0.3570 0.7663 -0.5342
vn 0.1983 0.8553 -0.4787
vn 0.2459 0.7663 -0.5936
vn 0.1253 0.7663 -0.6301
vn 0.1011 0.8553 -0.5082
vn -0.0000 0.7663 -0.6425
vn -0.0000 -0.6104 -0.7921
vn 0.1420 0.6857 -0.7139
vn 0.1545 -0.6104 -0.7769
vn 0.0800 -0.9779 0.1931
vn 0.4401 -0.6104 0.6586
vn 0.3031 -0.6104 0.7318
vn -0.0000 -0.9779 -0.2090
vn 0.0408 -0.9779 -0.2050
vn -0.5601 -0.6104 -0.5601
vn -0.1478 -0.9779 -0.1478
vn 0.0408 -0.9779 0.2050
vn 0.1545 -0.6104 0.7769
vn 0.3031 -0.6104 -0.7318
vn 0.0800 -0.9779 -0.1931
vn -0.4401 -0.6104 -0.6586
vn -0.1161 -0.9779 -0.1738
vn -0.0000 -0.9779 0.2090
vn -0.0000 -0.6104 0.7921
vn 0.4401 -0.6104 -0.6586
vn 0.1161 -0.9779 -0.1738
vn -0.3031 -0.6104 -0.7318
vn -0.0800 -0.9779 -0.1931
vn -0.0408 -0.9779 0.2050
vn -0.1545 -0.6104 0.7769
vn 0.5601 -0.6104 -0.5601
vn 0.1478 -0.9779 -0.1478
vn -0.1545 -0.6104 -0.7769
vn -0.0408 -0.9779 -0.2050
vn -0.0800 -0.9779 0.1931
vn -0.3031 -0.6104 0.7318
vn 0.6586 -0.6104 -0.4401
vn 0.1738 -0.9779 -0.1161
vn -0.1161 -0.9779 0.1738
vn -0.4401 -0.6104 0.6586
vn 0.7318 -0.6104 -0.3031
vn 0.1931 -0.9779 -0.0800
vn -0.1478 -0.9779 0.1478
vn -0.5601 -0.6104 0.5601
vn 0.2050 -0.9779 -0.0408
vn 0.7769 -0.6104 -0.1545
vn -0.1738 -0.9779 0.1161
vn -0.6586 -0.6104 0.4401
vn 0.2090 -0.9779 -0.0000
vn 0.7921 -0.6104 -0.0000
vn -0.1931 -0.9779 0.0800
vn -0.7318 -0.6104 0.3031
vn 0.7769 -0.6104 0.1545
vn 0.2050 -0.9779 0.0408
vn -0.7769 -0.6104 0.1545
vn -0.2050 -0.9779 0.0408
vn 0.7318 -0.6104 0.3031
vn 0.1931 -0.9779 0.0800
vn -0.2090 -0.9779 -0.0000
vn -0.7921 -0.6104 -0.0000
vn 0.1738 -0.9779 0.1161
vn 0.6586 -0.6104 0.4401
vn -0.7769 -0.6104 -0.1545
vn -0.2050 -0.9779 -0.0408
vn 0.1478 -0.9779 0.1478
vn 0.5601 -0.6104 0.5601
vn -0.7318 -0.6104 -0.3031
vn 0.1161 -0.9779 0.1738
vn -0.5147 0.6857 -0.5147
vn 0.2785 0.6857 0.6725
vn 0.1420 0.6857 0.7139
vn 0.2785 0.6857 -0.6725
vn -0.4044 0.6857 -0.6052
vn -0.0000 0.6857 0.7279
vn 0.4044 0.6857 -0.6052
vn -0.2785 0.6857 -0.6725
vn -0.1420 0.6857 0.7139
vn 0.5147 0.6857 -0.5147
vn -0.1420 0.6857 -0.7139
vn -0.2785 0.6857 0.6725
vn 0.6052 0.6857 -0.4044
vn -0.0000 0.6857 -0.7279
vn -0.4044 0.6857 0.6052
vn 0.6725 0.6857 -0.2785
vn -0.5147 0.6857 0.5147
vn 0.7139 0.6857 -0.1420
vn -0.6052 0.6857 0.4044
vn 0.7279 0.6857 -0.0000
vn -0.6725 0.6857 0.2785
vn 0.7139 0.6857 0.1420
vn -0.7139 0.6857 0.1420
vn 0.6725 0.6857 0.2785
vn -0.7279 0.6857 -0.0000
vn 0.6052 0.6857 0.4044
vn -0.7139 0.6857 -0.1420
vn 0.5147 0.6857 0.5147
vn -0.6725 0.6857 -0.2785
vn 0.4044 0.6857 0.6052
vn -0.6052 0.6857 -0.4044
vn -0.0000 1.0000 -0.0000
vn -0.0000 -0.9245 -0.3812
vn 0.0744 -0.9245 -0.3739
vn 0.1459 -0.9245 -0.3522
vn 0.2118 -0.9245 -0.3170
vn 0.2696 -0.9245 -0.2696
vn 0.3170 -0.9245 -0.2118
vn 0.3522 -0.9245 -0.1459
vn 0.3739 -0.9245 -0.0744
vn 0.3812 -0.9245 -0.0000
vn 0.3739 -0.9245 0.0744
vn 0.3522 -0.9245 0.1459
vn 0.3170 -0.9245 0.2118
vn 0.2696 -0.9245 0.2696
vn 0.2118 -0.9245 0.3170
vn 0.1459 -0.9245 0.3522
vn -0.0000 -0.9245 0.3812
vn -0.0744 -0.9245 0.3739
vn -0.1459 -0.9245 0.3522
vn -0.2118 -0.9245 0.3170
vn -0.2696 -0.9245 0.2696
vn -0.3170 -0.9245 0.2118
vn -0.3522 -0.9245 0.1459
vn -0.3812 -0.9245 -0.0000
vn -0.3739 -0.9245 -0.0744
vn -0.3522 -0.9245 -0.1459
vn -0.3170 -0.9245 -0.2118
vn -0.2696 -0.9245 -0.2696
vn -0.2118 -0.9245 -0.3170
vn -0.1459 -0.9245 -0.3522
vn -0.0001 1.0000 -0.0000
vn 0.0001 1.0000 -0.0000
vt 0.000162 0.250081
vt 0.498716 0.218841
vt 0.498716 0.250081
vt 0.000162 0.218841
vt 0.498716 0.187601
vt 0.000162 0.187601
vt 0.498716 0.156361
vt 0.000162 0.156361
vt 0.498716 0.125122
vt 0.000162 0.125122
vt 0.498716 0.093882
vt 0.000162 0.093882
vt 0.498716 0.062642
vt 0.000162 0.062642
vt 0.498716 0.031402
vt 0.000162 0.031402
vt 0.498716 0.000162
vt 0.000162 0.999838
vt 0.498716 0.968598
vt 0.498716 0.999838
vt 0.000162 0.968598
vt 0.498716 0.937358
vt 0.000162 0.937358
vt 0.498716 0.906118
vt 0.000162 0.906118
vt 0.498716 0.874878
vt 0.000162 0.874878
vt 0.498716 0.843638
vt 0.000162 0.843639
vt 0.498716 0.812399
vt 0.000162 0.812399
vt 0.498716 0.781159
vt 0.000162 0.781159
vt 0.498716 0.749919
vt 0.000162 0.749919
vt 0.498716 0.718679
vt 0.000162 0.718679
vt 0.498716 0.687439
vt 0.000162 0.687439
vt 0.498716 0.656199
vt 0.000162 0.656199
vt 0.498716 0.624959
vt 0.000162 0.624959
vt 0.498716 0.593720
vt 0.000162 0.593720
vt 0.498716 0.562480
vt 0.000162 0.562480
vt 0.498716 0.531240
vt 0.000162 0.531240
vt 0.498716 0.500000
vt 0.000162 0.500000
vt 0.498716 0.468760
vt 0.000162 0.468760
vt 0.498716 0.437520
vt 0.000162 0.437520
vt 0.498716 0.406280
vt 0.000162 0.406280
vt 0.498716 0.375041
vt 0.000162 0.375041
vt 0.498716 0.343801
vt 0.000162 0.343801
vt 0.498716 0.312561
vt 0.794756 0.265878
vt 0.821740 0.343697
vt 0.793576 0.259184
vt 0.000162 0.312561
vt 0.498716 0.281321
vt 0.000162 0.281321
vt 0.596799 0.840134
vt 0.730540 0.678202
vt 0.892293 0.812419
vt 0.716972 0.095173
vt 0.654338 0.043067
vt 0.706730 0.031157
vt 0.647650 0.125359
vt 0.680749 0.105647
vt 0.621301 0.153156
vt 0.603426 0.069173
vt 0.542948 0.161123
vt 0.566635 0.112970
vt 0.591844 0.220867
vt 0.602716 0.185831
vt 0.529801 0.258873
vt 0.530808 0.210509
vt 0.589146 0.256210
vt 0.537994 0.304485
vt 0.604286 0.322058
vt 0.593489 0.290374
vt 0.577386 0.381987
vt 0.554280 0.345911
vt 0.641112 0.373996
vt 0.620504 0.350176
vt 0.665174 0.392980
vt 0.605808 0.412099
vt 0.673380 0.452861
vt 0.638247 0.435740
vt 0.719787 0.415853
vt 0.691700 0.407018
vt 0.747241 0.466925
vt 0.710081 0.463269
vt 0.748479 0.419382
vt 0.783855 0.464204
vt 0.804318 0.411477
vt 0.776902 0.417887
vt 0.852020 0.441090
vt 0.819066 0.455501
vt 0.853309 0.385155
vt 0.830056 0.400503
vt 0.873530 0.365995
vt 0.881853 0.421291
vt 0.929561 0.368028
vt 0.907920 0.396746
vt 0.902798 0.318376
vt 0.890154 0.343518
vt 0.957270 0.300792
vt 0.946286 0.335861
vt 0.910771 0.291039
vt 0.962272 0.263786
vt 0.911827 0.232953
vt 0.913900 0.262328
vt 0.952209 0.187552
vt 0.960743 0.225695
vt 0.891333 0.175992
vt 0.904335 0.203825
vt 0.872823 0.150486
vt 0.936566 0.150546
vt 0.883954 0.085137
vt 0.913698 0.115971
vt 0.821007 0.110464
vt 0.849274 0.128274
vt 0.805000 0.041116
vt 0.847540 0.059598
vt 0.788648 0.098355
vt 0.757568 0.031157
vt 0.753505 0.092905
vt 0.821727 0.343521
vt 0.821757 0.343682
vt 0.821673 0.343471
vt 0.733811 0.289336
vt 0.819935 0.344635
vt 0.738692 0.294223
vt 0.821751 0.343601
vt 0.791122 0.252759
vt 0.820042 0.344683
vt 0.744420 0.298051
vt 0.787498 0.246775
vt 0.820172 0.344704
vt 0.750704 0.300708
vt 0.782790 0.241549
vt 0.820331 0.344705
vt 0.757308 0.302107
vt 0.750238 0.233093
vt 0.820851 0.343703
vt 0.743738 0.235501
vt 0.821590 0.343450
vt 0.777172 0.237287
vt 0.820507 0.344678
vt 0.763990 0.302211
vt 0.820657 0.343788
vt 0.737900 0.239228
vt 0.821482 0.343458
vt 0.770868 0.234249
vt 0.770512 0.301023
vt 0.820694 0.344625
vt 0.820470 0.343884
vt 0.732922 0.244025
vt 0.821351 0.343492
vt 0.764093 0.232481
vt 0.776639 0.298656
vt 0.820882 0.344548
vt 0.820296 0.343983
vt 0.729130 0.249856
vt 0.821201 0.343549
vt 0.757120 0.232081
vt 0.821066 0.344450
vt 0.782153 0.295148
vt 0.820136 0.344079
vt 0.726539 0.256303
vt 0.821033 0.343621
vt 0.821238 0.344335
vt 0.786836 0.290590
vt 0.820005 0.344181
vt 0.725381 0.263250
vt 0.821392 0.344207
vt 0.790549 0.285176
vt 0.819909 0.344285
vt 0.725531 0.270262
vt 0.821522 0.344074
vt 0.793206 0.279108
vt 0.819853 0.344386
vt 0.727034 0.277107
vt 0.821625 0.343940
vt 0.794644 0.272591
vt 0.819836 0.344480
vt 0.729896 0.283567
vt 0.821699 0.343812
vt 0.819866 0.344566
vt 0.738140 0.189374
vt 0.753144 0.153046
vt 0.754075 0.187312
vt 0.769997 0.188609
vt 0.775921 0.155460
vt 0.797421 0.162328
vt 0.785147 0.193074
vt 0.816759 0.173178
vt 0.798941 0.200389
vt 0.810950 0.210009
vt 0.833284 0.187328
vt 0.846583 0.204038
vt 0.820771 0.221611
vt 0.856200 0.222572
vt 0.828094 0.234678
vt 0.832626 0.248693
vt 0.862014 0.242203
vt 0.864162 0.262278
vt 0.834459 0.263136
vt 0.833563 0.277502
vt 0.862597 0.282133
vt 0.857512 0.301154
vt 0.830142 0.291335
vt 0.849062 0.318691
vt 0.824261 0.304147
vt 0.837706 0.334366
vt 0.816072 0.315527
vt 0.823733 0.347690
vt 0.805928 0.325169
vt 0.807580 0.358285
vt 0.794223 0.332848
vt 0.781263 0.338214
vt 0.789688 0.365711
vt 0.770663 0.369867
vt 0.767447 0.341005
vt 0.753222 0.341196
vt 0.751009 0.370444
vt 0.731378 0.367403
vt 0.739049 0.338707
vt 0.712340 0.360711
vt 0.725437 0.333550
vt 0.712879 0.325844
vt 0.694550 0.350497
vt 0.678681 0.336922
vt 0.701759 0.315846
vt 0.665453 0.320205
vt 0.692620 0.303730
vt 0.686030 0.289801
vt 0.655595 0.300865
vt 0.649449 0.279666
vt 0.682068 0.274734
vt 0.681173 0.258973
vt 0.647689 0.257215
vt 0.650518 0.234450
vt 0.683644 0.243294
vt 0.658334 0.212452
vt 0.689173 0.228240
vt 0.697967 0.214756
vt 0.670786 0.192557
vt 0.709287 0.203316
vt 0.687426 0.175711
vt 0.707601 0.163126
vt 0.722953 0.194767
vt 0.729923 0.155630
vt 0.821244 0.343950
vt 0.831563 0.357573
vt 0.821074 0.344043
vt 0.820288 0.344716
vt 0.820423 0.344697
vt 0.821703 0.343689
vt 0.820577 0.344659
vt 0.820887 0.344131
vt 0.821623 0.343723
vt 0.820742 0.344601
vt 0.820693 0.344206
vt 0.821520 0.343781
vt 0.820911 0.344526
vt 0.820511 0.344275
vt 0.821393 0.343859
vt 0.821079 0.344435
vt 0.820352 0.344346
vt 0.821238 0.344333
vt 0.820219 0.344415
vt 0.821384 0.344224
vt 0.820118 0.344484
vt 0.821513 0.344112
vt 0.820054 0.344549
vt 0.821619 0.344004
vt 0.820030 0.344611
vt 0.821700 0.343904
vt 0.820041 0.344659
vt 0.821755 0.343816
vt 0.820090 0.344694
vt 0.821782 0.343746
vt 0.820173 0.344711
vt 0.821784 0.343702
vt 0.883854 0.622688
vt 0.889247 0.633710
vt 0.880493 0.631308
vt 0.828806 0.353404
vt 0.825519 0.350468
vt 0.825456 0.350291
vt 0.831035 0.357089
vt 0.829377 0.354209
vt 0.825447 0.350168
vt 0.830287 0.356272
vt 0.830003 0.355088
vt 0.825480 0.350091
vt 0.829495 0.355420
vt 0.830643 0.356048
vt 0.825563 0.350070
vt 0.828781 0.354612
vt 0.831231 0.356979
vt 0.825689 0.350103
vt 0.828126 0.353881
vt 0.825857 0.350190
vt 0.827566 0.353227
vt 0.826070 0.350351
vt 0.827079 0.352648
vt 0.826325 0.350578
vt 0.826665 0.352138
vt 0.826620 0.350862
vt 0.826308 0.351690
vt 0.826969 0.351193
vt 0.826024 0.351303
vt 0.827363 0.351599
vt 0.825801 0.350972
vt 0.827799 0.352108
vt 0.825635 0.350695
vt 0.828277 0.352713
vt 0.832243 0.357264
vt 0.832911 0.359292
vt 0.829911 0.357075
vt 0.831088 0.358153
vt 0.829038 0.356091
vt 0.828316 0.355194
vt 0.827195 0.353678
vt 0.827713 0.354392
vt 0.826753 0.353042
vt 0.826377 0.352476
vt 0.825819 0.351544
vt 0.826069 0.351979
vt 0.825629 0.351168
vt 0.825495 0.350845
vt 0.825390 0.350367
vt 0.825417 0.350579
vt 0.825411 0.350206
vt 0.825483 0.350100
vt 0.825764 0.350039
vt 0.825599 0.350045
vt 0.826244 0.350219
vt 0.825979 0.350096
vt 0.826546 0.350449
vt 0.827272 0.350975
vt 0.826866 0.350736
vt 0.828242 0.351839
vt 0.827737 0.351359
vt 0.828798 0.352417
vt 0.830056 0.353885
vt 0.829401 0.353100
vt 0.831501 0.355890
vt 0.830761 0.354807
vt 0.896258 0.669737
vt 0.887916 0.641142
vt 0.964083 0.650970
vt 0.920925 0.597457
vt 0.914528 0.608087
vt 0.911730 0.599310
vt 0.961923 0.677871
vt 0.949579 0.676884
vt 0.955071 0.671706
vt 0.878840 0.640342
vt 0.907587 0.610967
vt 0.903109 0.602945
vt 0.967447 0.670230
vt 0.959435 0.665507
vt 0.887777 0.648763
vt 0.878762 0.649478
vt 0.901368 0.615184
vt 0.895399 0.608207
vt 0.971365 0.661589
vt 0.962486 0.658508
vt 0.889175 0.656234
vt 0.880051 0.658877
vt 0.896091 0.620503
vt 0.888887 0.614873
vt 0.973553 0.652280
vt 0.892023 0.663330
vt 0.883791 0.667782
vt 0.892001 0.626759
vt 0.973977 0.642565
vt 0.964299 0.643111
vt 0.889090 0.675576
vt 0.972465 0.632714
vt 0.962929 0.635371
vt 0.901476 0.675300
vt 0.895537 0.682159
vt 0.968578 0.623660
vt 0.960047 0.628039
vt 0.907670 0.679669
vt 0.903045 0.687888
vt 0.963479 0.615275
vt 0.955731 0.621424
vt 0.911887 0.691519
vt 0.914567 0.682725
vt 0.956478 0.608309
vt 0.950363 0.615759
vt 0.920974 0.693224
vt 0.921918 0.684328
vt 0.948442 0.602956
vt 0.944016 0.611327
vt 0.929861 0.693224
vt 0.929264 0.684625
vt 0.936971 0.608285
vt 0.939627 0.599305
vt 0.938599 0.691957
vt 0.936472 0.683445
vt 0.929488 0.606728
vt 0.930336 0.597458
vt 0.947145 0.688947
vt 0.943331 0.680844
vt 0.921927 0.606649
vt 0.955036 0.684197
vt 0.892300 0.841586
vt 0.900097 0.874228
vt 0.886575 0.870166
vt 0.875411 0.897076
vt 0.887874 0.903703
vt 0.870098 0.930210
vt 0.859175 0.921264
vt 0.847464 0.952719
vt 0.838508 0.941803
vt 0.814210 0.957881
vt 0.820847 0.970345
vt 0.787218 0.968873
vt 0.791282 0.982402
vt 0.759919 0.988437
vt 0.758552 0.974351
vt 0.729320 0.974285
vt 0.727946 0.988378
vt 0.696532 0.982063
vt 0.700653 0.968467
vt 0.673638 0.957141
vt 0.666834 0.969701
vt 0.640394 0.951583
vt 0.649420 0.940758
vt 0.617912 0.928877
vt 0.628956 0.919967
vt 0.613004 0.895673
vt 0.600594 0.902143
vt 0.602158 0.868748
vt 0.588691 0.872750
vt 0.582751 0.841487
vt 0.596792 0.810966
vt 0.582751 0.809625
vt 0.588994 0.778325
vt 0.602516 0.782386
vt 0.613681 0.755476
vt 0.601217 0.748850
vt 0.618994 0.722343
vt 0.629917 0.731289
vt 0.641628 0.699834
vt 0.650584 0.710750
vt 0.674882 0.694672
vt 0.668244 0.682207
vt 0.701874 0.683680
vt 0.697810 0.670151
vt 0.729173 0.664115
vt 0.759771 0.678268
vt 0.761145 0.664175
vt 0.792560 0.670489
vt 0.788439 0.684085
vt 0.815453 0.695411
vt 0.822258 0.682851
vt 0.848697 0.700969
vt 0.839671 0.711794
vt 0.871180 0.723676
vt 0.860136 0.732585
vt 0.876088 0.756880
vt 0.888497 0.750409
vt 0.886934 0.783804
vt 0.900401 0.779802
vt 0.906341 0.811065
vt 0.906341 0.842927
vt 0.000162 0.000162
s 1
usemtl マテリアル.001
f 66/1/1 290/2/2 289/3/3
f 65/4/4 291/5/5 290/2/2
f 67/6/6 292/7/7 291/5/5
f 68/8/8 293/9/9 292/7/7
f 69/10/10 294/11/11 293/9/9
f 70/12/12 295/13/13 294/11/11
f 71/14/14 296/15/15 295/13/13
f 72/16/16 297/17/17 296/15/15
f 73/18/18 298/19/19 297/20/17
f 74/21/20 299/22/21 298/19/19
f 75/23/22 300/24/23 299/22/21
f 76/25/24 301/26/25 300/24/23
f 77/27/26 302/28/27 301/26/25
f 78/29/28 303/30/29 302/28/27
f 79/31/30 304/32/31 303/30/29
f 80/33/32 305/34/33 304/32/31
f 81/35/34 306/36/35 305/34/33
f 82/37/36 307/38/37 306/36/35
f 83/39/38 308/40/39 307/38/37
f 84/41/40 309/42/41 308/40/39
f 85/43/42 310/44/43 309/42/41
f 86/45/44 311/46/45 310/44/43
f 87/47/46 312/48/47 311/46/45
f 88/49/48 313/50/49 312/48/47
f 89/51/50 314/52/51 313/50/49
f 90/53/52 315/54/53 314/52/51
f 91/55/54 316/56/55 315/54/53
f 92/57/56 317/58/57 316/56/55
f 93/59/58 318/60/59 317/58/57
f 94/61/60 319/62/61 318/60/59
f 48/63/62 121/64/63 50/65/64
f 95/66/65 320/67/66 319/62/61
f 96/68/67 289/3/3 320/67/66
f 31/69/68 47/70/69 63/71/70
f 352/72/71 65/73/4 66/74/1
f 322/75/72 65/73/4 321/76/73
f 323/77/74 67/78/6 322/75/72
f 323/77/74 69/79/10 68/80/8
f 325/81/75 69/79/10 324/82/76
f 325/81/75 71/83/14 70/84/12
f 326/85/77 72/86/16 71/83/14
f 328/87/78 72/86/16 327/88/79
f 328/87/78 74/89/20 73/90/18
f 330/91/80 74/89/20 329/92/81
f 331/93/82 75/94/22 330/91/80
f 331/93/82 77/95/26 76/96/24
f 333/97/83 77/95/26 332/98/84
f 333/97/83 79/99/30 78/100/28
f 334/101/85 80/102/32 79/99/30
f 336/103/86 80/102/32 335/104/87
f 336/103/86 82/105/36 81/106/34
f 338/107/88 82/105/36 337/108/89
f 339/109/90 83/110/38 338/107/88
f 339/109/90 85/111/42 84/112/40
f 341/113/91 85/111/42 340/114/92
f 341/113/91 87/115/46 86/116/44
f 342/117/93 88/118/48 87/115/46
f 344/119/94 88/118/48 343/120/95
f 344/119/94 90/121/52 89/122/50
f 346/123/96 90/121/52 345/124/97
f 347/125/98 91/126/54 346/123/96
f 347/125/98 93/127/58 92/128/56
f 349/129/99 93/127/58 348/130/100
f 349/129/99 95/131/65 94/132/60
f 350/133/101 96/134/67 95/131/65
f 352/72/71 96/134/67 351/135/102
f 123/136/103 188/137/104 124/138/105
f 22/139/106 108/140/107 24/141/108
f 50/65/64 122/142/109 52/143/110
f 24/141/108 109/144/111 26/145/112
f 52/143/110 123/136/113 54/146/114
f 26/145/112 110/147/115 28/148/116
f 54/146/114 124/138/117 56/149/118
f 28/148/116 111/150/119 30/151/120
f 2/152/121 97/153/122 4/154/123
f 56/149/118 125/155/124 58/156/125
f 30/151/120 112/157/126 32/158/127
f 4/154/123 99/159/128 6/160/129
f 58/156/125 126/161/130 60/162/131
f 34/163/132 112/157/126 113/164/133
f 6/160/129 100/165/134 8/166/135
f 60/162/131 127/167/136 62/168/137
f 36/169/138 113/164/133 114/170/139
f 8/166/135 101/171/140 10/172/141
f 62/168/137 128/173/142 64/174/143
f 36/169/138 115/175/144 38/176/145
f 10/172/141 102/177/146 12/178/147
f 64/174/143 98/179/148 2/152/121
f 38/176/145 116/180/149 40/181/150
f 12/178/147 103/182/151 14/183/152
f 40/181/150 117/184/153 42/185/154
f 14/183/152 104/186/155 16/187/156
f 42/185/154 118/188/157 44/189/158
f 16/187/156 105/190/159 18/191/160
f 44/189/158 119/192/161 46/193/162
f 18/191/160 106/194/163 20/195/164
f 46/193/162 120/196/165 48/63/62
f 20/195/164 107/197/166 22/139/106
f 353/198/167 160/199/168 384/200/169
f 383/201/170 160/199/168 159/202/171
f 383/201/170 158/203/172 382/204/173
f 382/204/173 157/205/174 381/206/175
f 380/207/176 157/205/174 156/208/177
f 380/207/176 155/209/178 379/210/179
f 379/210/179 154/211/180 378/212/181
f 377/213/182 154/211/180 153/214/183
f 377/213/182 152/215/184 376/216/185
f 375/217/186 152/215/184 151/218/187
f 375/217/186 150/219/188 374/220/189
f 374/220/189 149/221/190 373/222/191
f 373/222/191 148/223/192 372/224/193
f 372/224/193 147/225/194 371/226/195
f 371/226/195 146/227/196 370/228/197
f 369/229/198 146/227/196 145/230/199
f 369/229/198 144/231/200 368/232/201
f 367/233/202 144/231/200 143/234/203
f 367/233/202 142/235/204 366/236/205
f 366/236/205 141/237/206 365/238/207
f 364/239/208 141/237/206 140/240/209
f 364/239/208 139/241/210 363/242/211
f 363/242/211 138/243/212 362/244/213
f 361/245/214 138/243/212 137/246/215
f 361/245/214 136/247/216 360/248/217
f 359/249/218 136/247/216 135/250/219
f 359/249/218 134/251/220 358/252/221
f 358/252/221 133/253/222 357/254/223
f 356/255/224 133/253/222 132/256/225
f 355/257/226 132/256/225 131/258/227
f 355/257/226 130/259/228 354/260/229
f 353/198/167 130/259/228 129/261/230
f 162/262/231 225/263/232 161/264/233
f 111/150/234 174/265/235 175/266/236
f 98/179/237 161/264/233 97/153/238
f 124/138/105 189/267/239 125/155/240
f 112/157/241 175/266/236 176/268/242
f 97/153/238 163/269/243 99/159/244
f 125/155/240 190/270/245 126/161/246
f 113/164/247 176/268/242 177/271/248
f 99/159/244 164/272/249 100/165/250
f 126/161/246 191/273/251 127/167/252
f 114/170/253 177/271/248 178/274/254
f 100/165/250 165/275/255 101/171/256
f 127/167/252 192/276/257 128/173/258
f 115/175/259 178/274/254 179/277/260
f 101/171/256 166/278/261 102/177/262
f 128/173/258 162/262/231 98/179/237
f 116/180/263 179/277/260 180/279/264
f 102/177/262 167/280/265 103/182/266
f 117/184/267 180/279/264 181/281/268
f 104/186/269 167/280/265 168/282/270
f 118/188/271 181/281/268 182/283/272
f 105/190/273 168/282/270 169/284/274
f 119/192/275 182/283/272 183/285/276
f 105/190/273 170/286/277 106/194/278
f 119/192/275 184/287/279 120/196/280
f 106/194/278 171/288/281 107/197/282
f 121/64/283 184/287/279 185/289/284
f 108/140/285 171/288/281 172/290/286
f 121/64/283 186/291/287 122/142/288
f 109/144/289 172/290/286 173/292/290
f 123/136/103 186/291/287 187/293/291
f 110/147/292 173/292/290 174/265/235
f 194/294/148 257/295/122 193/296/122
f 188/137/104 253/297/293 189/267/239
f 176/268/242 239/298/294 240/299/295
f 161/264/233 227/300/296 163/269/243
f 189/267/239 254/301/297 190/270/245
f 177/271/248 240/299/295 241/302/298
f 163/269/243 228/303/299 164/272/249
f 190/270/245 255/304/300 191/273/251
f 178/274/254 241/302/298 242/305/301
f 164/272/249 229/306/302 165/275/255
f 191/273/251 256/307/303 192/276/257
f 179/277/260 242/305/301 243/308/304
f 165/275/255 230/309/305 166/278/261
f 192/276/257 226/310/306 162/262/231
f 180/279/264 243/308/304 244/311/307
f 166/278/261 231/312/308 167/280/265
f 181/281/268 244/311/307 245/313/309
f 167/280/265 232/314/310 168/282/270
f 182/283/272 245/313/309 246/315/311
f 168/282/270 233/316/312 169/284/274
f 183/285/276 246/315/311 247/317/313
f 169/284/274 234/318/314 170/286/277
f 184/287/279 247/317/313 248/319/315
f 171/288/281 234/318/314 235/320/316
f 184/287/279 249/321/317 185/289/284
f 172/290/286 235/320/316 236/322/318
f 185/289/284 250/323/319 186/291/287
f 173/292/290 236/322/318 237/324/320
f 186/291/287 251/325/321 187/293/291
f 174/265/235 237/324/320 238/326/322
f 187/293/291 252/327/323 188/137/104
f 175/266/236 238/326/322 239/298/294
f 194/328/324 225/263/232 226/310/306
f 193/329/324 227/300/296 225/263/232
f 196/330/324 227/300/296 195/331/324
f 196/330/324 229/306/302 228/303/299
f 197/332/324 230/309/305 229/306/302
f 198/333/324 231/312/308 230/309/305
f 200/334/324 231/312/308 199/335/324
f 201/336/324 232/314/310 200/334/324
f 201/336/324 234/318/314 233/316/312
f 202/337/324 235/320/316 234/318/314
f 204/338/324 235/320/316 203/339/324
f 205/340/324 236/322/318 204/338/324
f 206/341/324 237/324/320 205/340/324
f 206/341/324 239/298/294 238/326/322
f 208/342/324 239/298/294 207/343/324
f 209/344/324 240/299/295 208/342/324
f 209/344/324 242/305/301 241/302/298
f 210/345/324 243/308/304 242/305/301
f 212/346/324 243/308/304 211/347/324
f 212/346/324 245/313/309 244/311/307
f 214/348/324 245/313/309 213/349/324
f 214/348/324 247/317/313 246/315/311
f 215/350/324 248/319/315 247/317/313
f 217/351/324 248/319/315 216/352/324
f 217/351/324 250/323/319 249/321/317
f 219/353/324 250/323/319 218/354/324
f 220/355/324 251/325/321 219/353/324
f 220/355/324 253/297/293 252/327/323
f 222/356/324 253/297/293 221/357/324
f 222/356/324 255/304/300 254/301/297
f 224/358/324 255/304/300 223/359/324
f 194/328/324 256/307/303 224/358/324
f 263/360/324 259/361/324 275/362/324
f 220/363/117 285/364/124 221/365/124
f 208/366/126 271/367/119 272/368/126
f 193/296/122 259/361/128 195/369/128
f 221/365/124 286/370/130 222/371/130
f 209/372/133 272/368/126 273/373/133
f 195/369/128 260/374/134 196/375/134
f 222/371/130 287/376/136 223/377/136
f 210/378/139 273/373/133 274/379/139
f 196/375/134 261/380/140 197/381/140
f 223/377/136 288/382/142 224/383/142
f 211/384/144 274/379/139 275/362/144
f 197/381/140 262/385/146 198/386/146
f 224/383/142 258/387/148 194/294/148
f 212/388/149 275/362/144 276/389/149
f 198/386/146 263/360/151 199/390/151
f 213/391/153 276/389/149 277/392/153
f 199/390/151 264/393/155 200/394/155
f 214/395/157 277/392/153 278/396/157
f 200/394/155 265/397/159 201/398/159
f 215/399/161 278/396/157 279/400/161
f 202/401/163 265/397/159 266/402/163
f 216/403/165 279/400/161 280/404/165
f 203/405/166 266/402/163 267/406/166
f 217/407/63 280/404/165 281/408/63
f 204/409/107 267/406/166 268/410/107
f 217/407/63 282/411/109 218/412/109
f 205/413/111 268/410/107 269/414/111
f 218/412/109 283/415/113 219/416/113
f 206/417/115 269/414/111 270/418/115
f 219/416/113 284/419/117 220/363/117
f 207/420/119 270/418/115 271/367/119
f 1/421/325 290/422/2 3/423/326
f 5/424/327 290/422/2 291/425/5
f 5/424/327 292/426/7 7/427/328
f 7/427/328 293/428/9 9/429/329
f 11/430/330 293/428/9 294/431/11
f 13/432/331 294/431/11 295/433/13
f 13/432/331 296/434/15 15/435/332
f 17/436/333 296/434/15 297/437/17
f 17/436/333 298/438/19 19/439/334
f 21/440/335 298/438/19 299/441/21
f 21/440/335 300/442/23 23/443/336
f 23/443/336 301/444/25 25/445/337
f 27/446/338 301/444/25 302/447/27
f 29/448/339 302/447/27 303/449/29
f 29/448/339 304/450/31 31/69/68
f 33/451/340 304/450/31 305/452/33
f 33/451/340 306/453/35 35/454/341
f 37/455/342 306/453/35 307/456/37
f 37/455/342 308/457/39 39/458/343
f 39/458/343 309/459/41 41/460/344
f 43/461/345 309/459/41 310/462/43
f 45/463/346 310/462/43 311/464/45
f 45/463/346 312/465/47 47/70/69
f 49/466/347 312/465/47 313/467/49
f 49/466/347 314/468/51 51/469/348
f 53/470/349 314/468/51 315/471/53
f 53/470/349 316/472/55 55/473/350
f 55/473/350 317/474/57 57/475/351
f 59/476/352 317/474/57 318/477/59
f 61/478/353 318/477/59 319/479/61
f 61/478/353 320/480/66 63/71/70
f 1/421/325 320/480/66 289/481/3
f 129/261/230 351/135/102 160/199/168
f 159/202/171 351/135/102 350/133/101
f 159/202/171 349/129/99 158/203/172
f 158/203/172 348/130/100 157/205/174
f 156/208/177 348/130/100 347/125/98
f 156/208/177 346/123/96 155/209/178
f 155/209/178 345/124/97 154/211/180
f 153/214/183 345/124/97 344/119/94
f 153/214/183 343/120/95 152/215/184
f 151/218/187 343/120/95 342/117/93
f 151/218/187 341/113/91 150/219/188
f 150/219/188 340/114/92 149/221/190
f 148/223/192 340/114/92 339/109/90
f 148/223/192 338/107/88 147/225/194
f 147/225/194 337/108/89 146/227/196
f 145/230/199 337/108/89 336/103/86
f 145/230/199 335/104/87 144/231/200
f 143/234/203 335/104/87 334/101/85
f 143/234/203 333/97/83 142/235/204
f 142/235/204 332/98/84 141/237/206
f 140/240/209 332/98/84 331/93/82
f 140/240/209 330/91/80 139/241/210
f 139/241/210 329/92/81 138/243/212
f 137/246/215 329/92/81 328/87/78
f 137/246/215 327/88/79 136/247/216
f 135/250/219 327/88/79 326/85/77
f 135/250/219 325/81/75 134/251/220
f 134/251/220 324/82/76 133/253/222
f 132/256/225 324/82/76 323/77/74
f 131/258/227 323/77/74 322/75/72
f 131/258/227 321/76/73 130/259/228
f 129/261/230 321/76/73 352/72/71
f 2/152/121 354/260/229 353/198/167
f 6/160/129 354/260/229 4/154/123
f 8/166/135 355/257/226 6/160/129
f 8/166/135 357/254/223 356/255/224
f 12/178/147 357/254/223 10/172/141
f 12/178/147 359/249/218 358/252/221
f 14/183/152 360/248/217 359/249/218
f 18/191/160 360/248/217 16/187/156
f 18/191/160 362/244/213 361/245/214
f 22/139/106 362/244/213 20/195/164
f 24/141/108 363/242/211 22/139/106
f 24/141/108 365/238/207 364/239/208
f 28/148/116 365/238/207 26/145/112
f 28/148/116 367/233/202 366/236/205
f 30/151/120 368/232/201 367/233/202
f 34/163/132 368/232/201 32/158/127
f 34/163/132 370/228/197 369/229/198
f 38/176/145 370/228/197 36/169/138
f 40/181/150 371/226/195 38/176/145
f 40/181/150 373/222/191 372/224/193
f 44/189/158 373/222/191 42/185/154
f 44/189/158 375/217/186 374/220/189
f 46/193/162 376/216/185 375/217/186
f 50/65/64 376/216/185 48/63/62
f 50/65/64 378/212/181 377/213/182
f 54/146/114 378/212/181 52/143/110
f 56/149/118 379/210/179 54/146/114
f 56/149/118 381/206/175 380/207/176
f 60/162/131 381/206/175 58/156/125
f 60/162/131 383/201/170 382/204/173
f 62/168/137 384/200/169 383/201/170
f 2/152/121 384/200/169 64/174/143
f 66/1/1 65/4/4 290/2/2
f 65/4/4 67/6/6 291/5/5
f 67/6/6 68/8/8 292/7/7
f 68/8/8 69/10/10 293/9/9
f 69/10/10 70/12/12 294/11/11
f 70/12/12 71/14/14 295/13/13
f 71/14/14 72/16/16 296/15/15
f 72/16/16 73/482/18 297/17/17
f 73/18/18 74/21/20 298/19/19
f 74/21/20 75/23/22 299/22/21
f 75/23/22 76/25/24 300/24/23
f 76/25/24 77/27/26 301/26/25
f 77/27/26 78/29/28 302/28/27
f 78/29/28 79/31/30 303/30/29
f 79/31/30 80/33/32 304/32/31
f 80/33/32 81/35/34 305/34/33
f 81/35/34 82/37/36 306/36/35
f 82/37/36 83/39/38 307/38/37
f 83/39/38 84/41/40 308/40/39
f 84/41/40 85/43/42 309/42/41
f 85/43/42 86/45/44 310/44/43
f 86/45/44 87/47/46 311/46/45
f 87/47/46 88/49/48 312/48/47
f 88/49/48 89/51/50 313/50/49
f 89/51/50 90/53/52 314/52/51
f 90/53/52 91/55/54 315/54/53
f 91/55/54 92/57/56 316/56/55
f 92/57/56 93/59/58 317/58/57
f 93/59/58 94/61/60 318/60/59
f 94/61/60 95/66/65 319/62/61
f 48/63/62 120/196/165 121/64/63
f 95/66/65 96/68/67 320/67/66
f 96/68/67 66/1/1 289/3/3
f 63/71/70 1/421/325 3/423/326
f 3/423/326 5/424/327 7/427/328
f 7/427/328 9/429/329 15/435/332
f 9/429/329 11/430/330 15/435/332
f 11/430/330 13/432/331 15/435/332
f 15/435/332 17/436/333 19/439/334
f 19/439/334 21/440/335 23/443/336
f 23/443/336 25/445/337 31/69/68
f 25/445/337 27/446/338 31/69/68
f 27/446/338 29/448/339 31/69/68
f 31/69/68 33/451/340 35/454/341
f 35/454/341 37/455/342 39/458/343
f 39/458/343 41/460/344 47/70/69
f 41/460/344 43/461/345 47/70/69
f 43/461/345 45/463/346 47/70/69
f 47/70/69 49/466/347 51/469/348
f 51/469/348 53/470/349 55/473/350
f 55/473/350 57/475/351 63/71/70
f 57/475/351 59/476/352 63/71/70
f 59/476/352 61/478/353 63/71/70
f 63/71/70 3/423/326 15/435/332
f 3/423/326 7/427/328 15/435/332
f 15/435/332 19/439/334 31/69/68
f 19/439/334 23/443/336 31/69/68
f 31/69/68 35/454/341 47/70/69
f 35/454/341 39/458/343 47/70/69
f 47/70/69 51/469/348 63/71/70
f 51/469/348 55/473/350 63/71/70
f 63/71/70 15/435/332 31/69/68
f 352/72/71 321/76/73 65/73/4
f 322/75/72 67/78/6 65/73/4
f 323/77/74 68/80/8 67/78/6
f 323/77/74 324/82/76 69/79/10
f 325/81/75 70/84/12 69/79/10
f 325/81/75 326/85/77 71/83/14
f 326/85/77 327/88/79 72/86/16
f 328/87/78 73/90/18 72/86/16
f 328/87/78 329/92/81 74/89/20
f 330/91/80 75/94/22 74/89/20
f 331/93/82 76/96/24 75/94/22
f 331/93/82 332/98/84 77/95/26
f 333/97/83 78/100/28 77/95/26
f 333/97/83 334/101/85 79/99/30
f 334/101/85 335/104/87 80/102/32
f 336/103/86 81/106/34 80/102/32
f 336/103/86 337/108/89 82/105/36
f 338/107/88 83/110/38 82/105/36
f 339/109/90 84/112/40 83/110/38
f 339/109/90 340/114/92 85/111/42
f 341/113/91 86/116/44 85/111/42
f 341/113/91 342/117/93 87/115/46
f 342/117/93 343/120/95 88/118/48
f 344/119/94 89/122/50 88/118/48
f 344/119/94 345/124/97 90/121/52
f 346/123/96 91/126/54 90/121/52
f 347/125/98 92/128/56 91/126/54
f 347/125/98 348/130/100 93/127/58
f 349/129/99 94/132/60 93/127/58
f 349/129/99 350/133/101 95/131/65
f 350/133/101 351/135/102 96/134/67
f 352/72/71 66/74/1 96/134/67
f 123/136/103 187/293/291 188/137/104
f 22/139/106 107/197/166 108/140/107
f 50/65/64 121/64/63 122/142/109
f 24/141/108 108/140/107 109/144/111
f 52/143/110 122/142/109 123/136/113
f 26/145/112 109/144/111 110/147/115
f 54/146/114 123/136/113 124/138/117
f 28/148/116 110/147/115 111/150/119
f 2/152/121 98/179/148 97/153/122
f 56/149/118 124/138/117 125/155/124
f 30/151/120 111/150/119 112/157/126
f 4/154/123 97/153/122 99/159/128
f 58/156/125 125/155/124 126/161/130
f 34/163/132 32/158/127 112/157/126
f 6/160/129 99/159/128 100/165/134
f 60/162/131 126/161/130 127/167/136
f 36/169/138 34/163/132 113/164/133
f 8/166/135 100/165/134 101/171/140
f 62/168/137 127/167/136 128/173/142
f 36/169/138 114/170/139 115/175/144
f 10/172/141 101/171/140 102/177/146
f 64/174/143 128/173/142 98/179/148
f 38/176/145 115/175/144 116/180/149
f 12/178/147 102/177/146 103/182/151
f 40/181/150 116/180/149 117/184/153
f 14/183/152 103/182/151 104/186/155
f 42/185/154 117/184/153 118/188/157
f 16/187/156 104/186/155 105/190/159
f 44/189/158 118/188/157 119/192/161
f 18/191/160 105/190/159 106/194/163
f 46/193/162 119/192/161 120/196/165
f 20/195/164 106/194/163 107/197/166
f 353/198/167 129/261/230 160/199/168
f 383/201/170 384/200/169 160/199/168
f 383/201/170 159/202/171 158/203/172
f 382/204/173 158/203/172 157/205/174
f 380/207/176 381/206/175 157/205/174
f 380/207/176 156/208/177 155/209/178
f 379/210/179 155/209/178 154/211/180
f 377/213/182 378/212/181 154/211/180
f 377/213/182 153/214/183 152/215/184
f 375/217/186 376/216/185 152/215/184
f 375/217/186 151/218/187 150/219/188
f 374/220/189 150/219/188 149/221/190
f 373/222/191 149/221/190 148/223/192
f 372/224/193 148/223/192 147/225/194
f 371/226/195 147/225/194 146/227/196
f 369/229/198 370/228/197 146/227/196
f 369/229/198 145/230/199 144/231/200
f 367/233/202 368/232/201 144/231/200
f 367/233/202 143/234/203 142/235/204
f 366/236/205 142/235/204 141/237/206
f 364/239/208 365/238/207 141/237/206
f 364/239/208 140/240/209 139/241/210
f 363/242/211 139/241/210 138/243/212
f 361/245/214 362/244/213 138/243/212
f 361/245/214 137/246/215 136/247/216
f 359/249/218 360/248/217 136/247/216
f 359/249/218 135/250/219 134/251/220
f 358/252/221 134/251/220 133/253/222
f 356/255/224 357/254/223 133/253/222
f 355/257/226 356/255/224 132/256/225
f 355/257/226 131/258/227 130/259/228
f 353/198/167 354/260/229 130/259/228
f 162/262/231 226/310/306 225/263/232
f 111/150/234 110/147/292 174/265/235
f 98/179/237 162/262/231 161/264/233
f 124/138/105 188/137/104 189/267/239
f 112/157/241 111/150/234 175/266/236
f 97/153/238 161/264/233 163/269/243
f 125/155/240 189/267/239 190/270/245
f 113/164/247 112/157/241 176/268/242
f 99/159/244 163/269/243 164/272/249
f 126/161/246 190/270/245 191/273/251
f 114/170/253 113/164/247 177/271/248
f 100/165/250 164/272/249 165/275/255
f 127/167/252 191/273/251 192/276/257
f 115/175/259 114/170/253 178/274/254
f 101/171/256 165/275/255 166/278/261
f 128/173/258 192/276/257 162/262/231
f 116/180/263 115/175/259 179/277/260
f 102/177/262 166/278/261 167/280/265
f 117/184/267 116/180/263 180/279/264
f 104/186/269 103/182/266 167/280/265
f 118/188/271 117/184/267 181/281/268
f 105/190/273 104/186/269 168/282/270
f 119/192/275 118/188/271 182/283/272
f 105/190/273 169/284/274 170/286/277
f 119/192/275 183/285/276 184/287/279
f 106/194/278 170/286/277 171/288/281
f 121/64/283 120/196/280 184/287/279
f 108/140/285 107/197/282 171/288/281
f 121/64/283 185/289/284 186/291/287
f 109/144/289 108/140/285 172/290/286
f 123/136/103 122/142/288 186/291/287
f 110/147/292 109/144/289 173/292/290
f 194/294/148 258/387/148 257/295/122
f 188/137/104 252/327/323 253/297/293
f 176/268/242 175/266/236 239/298/294
f 161/264/233 225/263/232 227/300/296
f 189/267/239 253/297/293 254/301/297
f 177/271/248 176/268/242 240/299/295
f 163/269/243 227/300/296 228/303/299
f 190/270/245 254/301/297 255/304/300
f 178/274/254 177/271/248 241/302/298
f 164/272/249 228/303/299 229/306/302
f 191/273/251 255/304/300 256/307/303
f 179/277/260 178/274/254 242/305/301
f 165/275/255 229/306/302 230/309/305
f 192/276/257 256/307/303 226/310/306
f 180/279/264 179/277/260 243/308/304
f 166/278/261 230/309/305 231/312/308
f 181/281/268 180/279/264 244/311/307
f 167/280/265 231/312/308 232/314/310
f 182/283/272 181/281/268 245/313/309
f 168/282/270 232/314/310 233/316/312
f 183/285/276 182/283/272 246/315/311
f 169/284/274 233/316/312 234/318/314
f 184/287/279 183/285/276 247/317/313
f 171/288/281 170/286/277 234/318/314
f 184/287/279 248/319/315 249/321/317
f 172/290/286 171/288/281 235/320/316
f 185/289/284 249/321/317 250/323/319
f 173/292/290 172/290/286 236/322/318
f 186/291/287 250/323/319 251/325/321
f 174/265/235 173/292/290 237/324/320
f 187/293/291 251/325/321 252/327/323
f 175/266/236 174/265/235 238/326/322
f 194/328/324 193/329/324 225/263/232
f 193/329/324 195/331/324 227/300/296
f 196/330/324 228/303/299 227/300/296
f 196/330/324 197/332/324 229/306/302
f 197/332/324 198/333/324 230/309/305
f 198/333/324 199/335/324 231/312/308
f 200/334/324 232/314/310 231/312/308
f 201/336/324 233/316/312 232/314/310
f 201/336/324 202/337/324 234/318/314
f 202/337/324 203/339/324 235/320/316
f 204/338/324 236/322/318 235/320/316
f 205/340/324 237/324/320 236/322/318
f 206/341/324 238/326/322 237/324/320
f 206/341/324 207/343/324 239/298/294
f 208/342/324 240/299/295 239/298/294
f 209/344/324 241/302/298 240/299/295
f 209/344/324 210/345/324 242/305/301
f 210/345/324 211/347/324 243/308/304
f 212/346/324 244/311/307 243/308/304
f 212/346/324 213/349/324 245/313/309
f 214/348/324 246/315/311 245/313/309
f 214/348/324 215/350/324 247/317/313
f 215/350/324 216/352/324 248/319/315
f 217/351/324 249/321/317 248/319/315
f 217/351/324 218/354/324 250/323/319
f 219/353/324 251/325/321 250/323/319
f 220/355/324 252/327/323 251/325/321
f 220/355/324 221/357/324 253/297/293
f 222/356/324 254/301/297 253/297/293
f 222/356/324 223/359/324 255/304/300
f 224/358/324 256/307/303 255/304/300
f 194/328/324 226/310/306 256/307/303
f 259/361/324 257/295/324 287/376/324
f 257/295/324 258/387/324 287/376/324
f 258/387/324 288/382/324 287/376/324
f 287/376/324 286/370/324 285/364/324
f 285/364/324 284/419/324 283/415/324
f 283/415/324 282/411/324 281/408/324
f 281/408/324 280/404/324 283/415/324
f 280/404/324 279/400/324 283/415/324
f 279/400/324 278/396/324 277/392/324
f 277/392/324 276/389/324 275/362/324
f 275/362/324 274/379/324 273/373/324
f 273/373/324 272/368/324 275/362/324
f 272/368/324 271/367/324 275/362/324
f 271/367/324 270/418/324 269/414/324
f 269/414/324 268/410/354 267/406/324
f 267/406/324 266/402/355 265/397/324
f 265/397/324 264/393/355 263/360/324
f 263/360/324 262/385/354 261/380/324
f 261/380/324 260/374/324 259/361/324
f 287/376/324 285/364/324 283/415/324
f 279/400/324 277/392/324 275/362/324
f 271/367/324 269/414/324 267/406/324
f 267/406/324 265/397/324 263/360/324
f 263/360/324 261/380/324 259/361/324
f 259/361/324 287/376/324 283/415/324
f 283/415/324 279/400/324 259/361/324
f 279/400/324 275/362/324 259/361/324
f 275/362/324 271/367/324 267/406/324
f 267/406/324 263/360/324 275/362/324
f 220/363/117 284/419/117 285/364/124
f 208/366/126 207/420/119 271/367/119
f 193/296/122 257/295/122 259/361/128
f 221/365/124 285/364/124 286/370/130
f 209/372/133 208/366/126 272/368/126
f 195/369/128 259/361/128 260/374/134
f 222/371/130 286/370/130 287/376/136
f 210/378/139 209/372/133 273/373/133
f 196/375/134 260/374/134 261/380/140
f 223/377/136 287/376/136 288/382/142
f 211/384/144 210/378/139 274/379/139
f 197/381/140 261/380/140 262/385/146
f 224/383/142 288/382/142 258/387/148
f 212/388/149 211/384/144 275/362/144
f 198/386/146 262/385/146 263/360/151
f 213/391/153 212/388/149 276/389/149
f 199/390/151 263/360/151 264/393/155
f 214/395/157 213/391/153 277/392/153
f 200/394/155 264/393/155 265/397/159
f 215/399/161 214/395/157 278/396/157
f 202/401/163 201/398/159 265/397/159
f 216/403/165 215/399/161 279/400/161
f 203/405/166 202/401/163 266/402/163
f 217/407/63 216/403/165 280/404/165
f 204/409/107 203/405/166 267/406/166
f 217/407/63 281/408/63 282/411/109
f 205/413/111 204/409/107 268/410/107
f 218/412/109 282/411/109 283/415/113
f 206/417/115 205/413/111 269/414/111
f 219/416/113 283/415/113 284/419/117
f 207/420/119 206/417/115 270/418/115
f 1/421/325 289/481/3 290/422/2
f 5/424/327 3/423/326 290/422/2
f 5/424/327 291/425/5 292/426/7
f 7/427/328 292/426/7 293/428/9
f 11/430/330 9/429/329 293/428/9
f 13/432/331 11/430/330 294/431/11
f 13/432/331 295/433/13 296/434/15
f 17/436/333 15/435/332 296/434/15
f 17/436/333 297/437/17 298/438/19
f 21/440/335 19/439/334 298/438/19
f 21/440/335 299/441/21 300/442/23
f 23/443/336 300/442/23 301/444/25
f 27/446/338 25/445/337 301/444/25
f 29/448/339 27/446/338 302/447/27
f 29/448/339 303/449/29 304/450/31
f 33/451/340 31/69/68 304/450/31
f 33/451/340 305/452/33 306/453/35
f 37/455/342 35/454/341 306/453/35
f 37/455/342 307/456/37 308/457/39
f 39/458/343 308/457/39 309/459/41
f 43/461/345 41/460/344 309/459/41
f 45/463/346 43/461/345 310/462/43
f 45/463/346 311/464/45 312/465/47
f 49/466/347 47/70/69 312/465/47
f 49/466/347 313/467/49 314/468/51
f 53/470/349 51/469/348 314/468/51
f 53/470/349 315/471/53 316/472/55
f 55/473/350 316/472/55 317/474/57
f 59/476/352 57/475/351 317/474/57
f 61/478/353 59/476/352 318/477/59
f 61/478/353 319/479/61 320/480/66
f 1/421/325 63/71/70 320/480/66
f 129/261/230 352/72/71 351/135/102
f 159/202/171 160/199/168 351/135/102
f 159/202/171 350/133/101 349/129/99
f 158/203/172 349/129/99 348/130/100
f 156/208/177 157/205/174 348/130/100
f 156/208/177 347/125/98 346/123/96
f 155/209/178 346/123/96 345/124/97
f 153/214/183 154/211/180 345/124/97
f 153/214/183 344/119/94 343/120/95
f 151/218/187 152/215/184 343/120/95
f 151/218/187 342/117/93 341/113/91
f 150/219/188 341/113/91 340/114/92
f 148/223/192 149/221/190 340/114/92
f 148/223/192 339/109/90 338/107/88
f 147/225/194 338/107/88 337/108/89
f 145/230/199 146/227/196 337/108/89
f 145/230/199 336/103/86 335/104/87
f 143/234/203 144/231/200 335/104/87
f 143/234/203 334/101/85 333/97/83
f 142/235/204 333/97/83 332/98/84
f 140/240/209 141/237/206 332/98/84
f 140/240/209 331/93/82 330/91/80
f 139/241/210 330/91/80 329/92/81
f 137/246/215 138/243/212 329/92/81
f 137/246/215 328/87/78 327/88/79
f 135/250/219 136/247/216 327/88/79
f 135/250/219 326/85/77 325/81/75
f 134/251/220 325/81/75 324/82/76
f 132/256/225 133/253/222 324/82/76
f 131/258/227 132/256/225 323/77/74
f 131/258/227 322/75/72 321/76/73
f 129/261/230 130/259/228 321/76/73
f 2/152/121 4/154/123 354/260/229
f 6/160/129 355/257/226 354/260/229
f 8/166/135 356/255/224 355/257/226
f 8/166/135 10/172/141 357/254/223
f 12/178/147 358/252/221 357/254/223
f 12/178/147 14/183/152 359/249/218
f 14/183/152 16/187/156 360/248/217
f 18/191/160 361/245/214 360/248/217
f 18/191/160 20/195/164 362/244/213
f 22/139/106 363/242/211 362/244/213
f 24/141/108 364/239/208 363/242/211
f 24/141/108 26/145/112 365/238/207
f 28/148/116 366/236/205 365/238/207
f 28/148/116 30/151/120 367/233/202
f 30/151/120 32/158/127 368/232/201
f 34/163/132 369/229/198 368/232/201
f 34/163/132 36/169/138 370/228/197
f 38/176/145 371/226/195 370/228/197
f 40/181/150 372/224/193 371/226/195
f 40/181/150 42/185/154 373/222/191
f 44/189/158 374/220/189 373/222/191
f 44/189/158 46/193/162 375/217/186
f 46/193/162 48/63/62 376/216/185
f 50/65/64 377/213/182 376/216/185
f 50/65/64 52/143/110 378/212/181
f 54/146/114 379/210/179 378/212/181
f 56/149/118 380/207/176 379/210/179
f 56/149/118 58/156/125 381/206/175
f 60/162/131 382/204/173 381/206/175
f 60/162/131 62/168/137 383/201/170
f 62/168/137 64/174/143 384/200/169
f 2/152/121 353/198/167 384/200/169
