# Blender 4.4.1
# www.blender.org
mtllib minus.mtl
o Text.004
v -0.156029 -0.027253 0.050000
v -0.156029 0.027253 0.050000
v 0.156029 0.027253 0.050000
v 0.156029 -0.027253 0.050000
v -0.156029 -0.027253 -0.050000
v -0.156029 0.027253 -0.050000
v 0.156029 0.027253 -0.050000
v 0.156029 -0.027253 -0.050000
vn -0.0000 -0.0000 1.0000
vn -0.0000 -0.0000 -1.0000
vn -1.0000 -0.0000 -0.0000
vn -0.0000 1.0000 -0.0000
vn -0.0000 -1.0000 -0.0000
vn 1.0000 -0.0000 -0.0000
vt 0.000000 0.000000
vt 0.666667 0.000000
vt 0.333333 0.000000
vt 1.000000 0.000000
s 0
f 1/1/1 3/2/1 2/3/1
f 1/1/1 4/4/1 3/2/1
f 5/1/2 6/3/2 7/2/2
f 5/1/2 7/2/2 8/4/2
f 1/1/3 6/3/3 5/1/3
f 3/2/4 6/3/4 2/3/4
f 1/1/5 8/4/5 4/4/5
f 3/2/6 8/4/6 7/2/6
f 1/1/3 2/3/3 6/3/3
f 3/2/4 7/2/4 6/3/4
f 1/1/5 5/1/5 8/4/5
f 3/2/6 4/4/6 8/4/6
