# Blender 4.4.1
# www.blender.org
mtllib Plumwine.mtl
o Plumwine
v 0.000000 -0.264853 0.137888
v 0.000000 0.296282 0.063019
v -0.026901 -0.264853 0.135238
v -0.012294 0.296282 0.061808
v -0.052767 -0.264853 0.127392
v -0.024116 0.296282 0.058222
v -0.076606 -0.264853 0.114650
v -0.035011 0.296282 0.052398
v -0.097501 -0.264853 0.097501
v -0.044561 0.296282 0.044561
v -0.114650 -0.264853 0.076606
v -0.052398 0.296282 0.035011
v -0.127392 -0.264853 0.052767
v -0.058222 0.296282 0.024116
v -0.135238 -0.264853 0.026901
v -0.061808 0.296282 0.012294
v -0.137888 -0.264853 0.000000
v -0.063019 0.296282 0.000000
v -0.135238 -0.264853 -0.026901
v -0.061808 0.296282 -0.012294
v -0.127392 -0.264853 -0.052767
v -0.058222 0.296282 -0.024116
v -0.114650 -0.264853 -0.076606
v -0.052398 0.296282 -0.035011
v -0.097501 -0.264853 -0.097501
v -0.044561 0.296282 -0.044561
v -0.076606 -0.264853 -0.114650
v -0.035011 0.296282 -0.052398
v -0.052767 -0.264853 -0.127392
v -0.024116 0.296282 -0.058222
v -0.026901 -0.264853 -0.135238
v -0.012294 0.296282 -0.061808
v -0.000000 -0.264853 -0.137888
v -0.000000 0.296282 -0.063019
v 0.026901 -0.264853 -0.135238
v 0.012294 0.296282 -0.061808
v 0.052767 -0.264853 -0.127392
v 0.024116 0.296282 -0.058222
v 0.076606 -0.264853 -0.114650
v 0.035011 0.296282 -0.052398
v 0.097501 -0.264853 -0.097501
v 0.044561 0.296282 -0.044561
v 0.114650 -0.264853 -0.076606
v 0.052398 0.296282 -0.035011
v 0.127392 -0.264853 -0.052767
v 0.058222 0.296282 -0.024116
v 0.135238 -0.264853 -0.026901
v 0.061808 0.296282 -0.012294
v 0.137888 -0.264853 -0.000000
v 0.063019 0.296282 -0.000000
v 0.135238 -0.264853 0.026901
v 0.061808 0.296282 0.012294
v 0.127392 -0.264853 0.052767
v 0.058222 0.296282 0.024116
v 0.114650 -0.264853 0.076606
v 0.052398 0.296282 0.035011
v 0.097501 -0.264853 0.097501
v 0.044561 0.296282 0.044561
v 0.076606 -0.264853 0.114650
v 0.035011 0.296282 0.052398
v 0.052767 -0.264853 0.127392
v 0.024116 0.296282 0.058222
v 0.026901 -0.264853 0.135238
v 0.012294 0.296282 0.061808
v -0.026852 0.204988 0.134995
v 0.000000 0.204988 0.137640
v -0.052673 0.204988 0.127163
v -0.076469 0.204988 0.114444
v -0.097326 0.204988 0.097326
v -0.114444 0.204988 0.076469
v -0.127163 0.204988 0.052673
v -0.134995 0.204988 0.026852
v -0.137640 0.204988 0.000000
v -0.134995 0.204988 -0.026852
v -0.127163 0.204988 -0.052673
v -0.114444 0.204988 -0.076469
v -0.097326 0.204988 -0.097326
v -0.076469 0.204988 -0.114444
v -0.052673 0.204988 -0.127163
v -0.026852 0.204988 -0.134995
v -0.000000 0.204988 -0.137640
v 0.026852 0.204988 -0.134995
v 0.052673 0.204988 -0.127163
v 0.076469 0.204988 -0.114444
v 0.097326 0.204988 -0.097326
v 0.114444 0.204988 -0.076469
v 0.127163 0.204988 -0.052673
v 0.134995 0.204988 -0.026852
v 0.137640 0.204988 -0.000000
v 0.134995 0.204988 0.026852
v 0.127163 0.204988 0.052673
v 0.114444 0.204988 0.076469
v 0.097326 0.204988 0.097326
v 0.076469 0.204988 0.114444
v 0.052673 0.204988 0.127163
v 0.026852 0.204988 0.134995
v -0.008447 0.512086 0.042466
v 0.000000 0.512086 0.043298
v -0.016569 0.512086 0.040002
v -0.024055 0.512086 0.036001
v -0.030616 0.512086 0.030616
v -0.036001 0.512086 0.024055
v -0.040002 0.512086 0.016569
v -0.042466 0.512086 0.008447
v -0.043298 0.512086 0.000000
v -0.042466 0.512086 -0.008447
v -0.040002 0.512086 -0.016569
v -0.036001 0.512086 -0.024055
v -0.030616 0.512086 -0.030616
v -0.024055 0.512086 -0.036001
v -0.016569 0.512086 -0.040002
v -0.008447 0.512086 -0.042466
v 0.000000 0.512086 -0.043298
v 0.008447 0.512086 -0.042466
v 0.016570 0.512086 -0.040002
v 0.024055 0.512086 -0.036001
v 0.030616 0.512086 -0.030616
v 0.036001 0.512086 -0.024055
v 0.040002 0.512086 -0.016569
v 0.042466 0.512086 -0.008447
v 0.043298 0.512086 -0.000000
v 0.042466 0.512086 0.008447
v 0.040002 0.512086 0.016569
v 0.036001 0.512086 0.024055
v 0.030616 0.512086 0.030616
v 0.024055 0.512086 0.036001
v 0.016570 0.512086 0.040002
v 0.008447 0.512086 0.042466
v 0.000000 0.264433 0.100542
v -0.019615 0.264433 0.098611
v -0.038476 0.264433 0.092889
v -0.055858 0.264433 0.083598
v -0.071094 0.264433 0.071094
v -0.083598 0.264433 0.055858
v -0.092889 0.264433 0.038476
v -0.098611 0.264433 0.019615
v -0.100542 0.264433 0.000000
v -0.098611 0.264433 -0.019615
v -0.092889 0.264433 -0.038476
v -0.083598 0.264433 -0.055858
v -0.071094 0.264433 -0.071094
v -0.055858 0.264433 -0.083598
v -0.038476 0.264433 -0.092889
v -0.019615 0.264433 -0.098611
v -0.000000 0.264433 -0.100542
v 0.019615 0.264433 -0.098611
v 0.038476 0.264433 -0.092889
v 0.055858 0.264433 -0.083598
v 0.071094 0.264433 -0.071094
v 0.083598 0.264433 -0.055858
v 0.092889 0.264433 -0.038476
v 0.098611 0.264433 -0.019615
v 0.100542 0.264433 -0.000000
v 0.098611 0.264433 0.019615
v 0.092889 0.264433 0.038476
v 0.083598 0.264433 0.055858
v 0.071094 0.264433 0.071094
v 0.055858 0.264433 0.083598
v 0.038476 0.264433 0.092889
v 0.019615 0.264433 0.098611
v -0.008637 0.513419 0.043424
v 0.000000 0.513419 0.044275
v -0.016943 0.513419 0.040905
v -0.024598 0.513419 0.036813
v -0.031307 0.513419 0.031307
v -0.036813 0.513419 0.024598
v -0.040904 0.513419 0.016943
v -0.043424 0.513419 0.008638
v -0.044275 0.513419 0.000000
v -0.043424 0.513419 -0.008638
v -0.040904 0.513419 -0.016943
v -0.036813 0.513419 -0.024598
v -0.031307 0.513419 -0.031307
v -0.024598 0.513419 -0.036813
v -0.016943 0.513419 -0.040905
v -0.008637 0.513419 -0.043424
v 0.000000 0.513419 -0.044275
v 0.008638 0.513419 -0.043424
v 0.016943 0.513419 -0.040905
v 0.024598 0.513419 -0.036813
v 0.031307 0.513419 -0.031307
v 0.036813 0.513419 -0.024598
v 0.040905 0.513419 -0.016943
v 0.043424 0.513419 -0.008638
v 0.044275 0.513419 -0.000000
v 0.043424 0.513419 0.008638
v 0.040905 0.513419 0.016943
v 0.036813 0.513419 0.024598
v 0.031307 0.513419 0.031307
v 0.024598 0.513419 0.036813
v 0.016943 0.513419 0.040905
v 0.008638 0.513419 0.043424
v -0.008128 0.600681 0.040862
v 0.000000 0.600681 0.041662
v -0.015943 0.600681 0.038491
v -0.023146 0.600681 0.034641
v -0.029460 0.600681 0.029460
v -0.034641 0.600681 0.023146
v -0.038491 0.600681 0.015944
v -0.040862 0.600681 0.008128
v -0.041662 0.600681 0.000000
v -0.040862 0.600681 -0.008128
v -0.038491 0.600681 -0.015944
v -0.034641 0.600681 -0.023146
v -0.029460 0.600681 -0.029460
v -0.023146 0.600681 -0.034641
v -0.015943 0.600681 -0.038491
v -0.008128 0.600681 -0.040862
v 0.000000 0.600681 -0.041662
v 0.008128 0.600681 -0.040862
v 0.015944 0.600681 -0.038491
v 0.023147 0.600681 -0.034641
v 0.029460 0.600681 -0.029460
v 0.034641 0.600681 -0.023146
v 0.038491 0.600681 -0.015944
v 0.040862 0.600681 -0.008128
v 0.041663 0.600681 -0.000000
v 0.040862 0.600681 0.008128
v 0.038491 0.600681 0.015944
v 0.034641 0.600681 0.023146
v 0.029460 0.600681 0.029460
v 0.023147 0.600681 0.034641
v 0.015944 0.600681 0.038491
v 0.008128 0.600681 0.040862
v -0.008637 0.596256 0.043424
v 0.000000 0.596256 0.044275
v -0.016943 0.596256 0.040905
v -0.024598 0.596256 0.036813
v -0.031307 0.596256 0.031307
v -0.036813 0.596256 0.024598
v -0.040904 0.596256 0.016943
v -0.043424 0.596256 0.008638
v -0.044275 0.596256 0.000000
v -0.043424 0.596256 -0.008638
v -0.040904 0.596256 -0.016943
v -0.036813 0.596256 -0.024598
v -0.031307 0.596256 -0.031307
v -0.024598 0.596256 -0.036813
v -0.016943 0.596256 -0.040905
v -0.008637 0.596256 -0.043424
v 0.000000 0.596256 -0.044275
v 0.008638 0.596256 -0.043424
v 0.016943 0.596256 -0.040905
v 0.024598 0.596256 -0.036813
v 0.031307 0.596256 -0.031307
v 0.036813 0.596256 -0.024598
v 0.040905 0.596256 -0.016943
v 0.043424 0.596256 -0.008638
v 0.044275 0.596256 -0.000000
v 0.043424 0.596256 0.008638
v 0.040905 0.596256 0.016943
v 0.036813 0.596256 0.024598
v 0.031307 0.596256 0.031307
v 0.024598 0.596256 0.036813
v 0.016943 0.596256 0.040905
v 0.008638 0.596256 0.043424
v -0.007255 0.604173 0.036472
v 0.000000 0.604173 0.037187
v -0.014231 0.604173 0.034356
v -0.020660 0.604173 0.030920
v -0.026295 0.604173 0.026295
v -0.030920 0.604173 0.020660
v -0.034356 0.604173 0.014231
v -0.036472 0.604173 0.007255
v -0.037187 0.604173 0.000000
v -0.036472 0.604173 -0.007255
v -0.034356 0.604173 -0.014231
v -0.030920 0.604173 -0.020660
v -0.026295 0.604173 -0.026295
v -0.020660 0.604173 -0.030920
v -0.014231 0.604173 -0.034356
v -0.007255 0.604173 -0.036472
v 0.000000 0.604173 -0.037187
v 0.007255 0.604173 -0.036472
v 0.014231 0.604173 -0.034356
v 0.020660 0.604173 -0.030920
v 0.026295 0.604173 -0.026295
v 0.030920 0.604173 -0.020660
v 0.034357 0.604173 -0.014231
v 0.036473 0.604173 -0.007255
v 0.037187 0.604173 -0.000000
v 0.036473 0.604173 0.007255
v 0.034357 0.604173 0.014231
v 0.030920 0.604173 0.020660
v 0.026295 0.604173 0.026295
v 0.020660 0.604173 0.030920
v 0.014231 0.604173 0.034356
v 0.007255 0.604173 0.036472
v 0.000000 -0.256155 0.147401
v -0.028757 -0.256155 0.144569
v -0.056408 -0.256155 0.136181
v -0.081892 -0.256155 0.122560
v -0.104228 -0.256155 0.104228
v -0.122560 -0.256155 0.081892
v -0.136181 -0.256155 0.056408
v -0.144569 -0.256155 0.028757
v -0.147401 -0.256155 0.000000
v -0.144569 -0.256155 -0.028757
v -0.136181 -0.256155 -0.056408
v -0.122560 -0.256155 -0.081892
v -0.104228 -0.256155 -0.104228
v -0.081892 -0.256155 -0.122560
v -0.056408 -0.256155 -0.136181
v -0.028757 -0.256155 -0.144569
v -0.000000 -0.256155 -0.147401
v 0.028757 -0.256155 -0.144569
v 0.056408 -0.256155 -0.136181
v 0.081892 -0.256155 -0.122560
v 0.104228 -0.256155 -0.104228
v 0.122560 -0.256155 -0.081892
v 0.136181 -0.256155 -0.056408
v 0.144569 -0.256155 -0.028757
v 0.147401 -0.256155 -0.000000
v 0.144569 -0.256155 0.028757
v 0.136181 -0.256155 0.056408
v 0.122560 -0.256155 0.081892
v 0.104228 -0.256155 0.104228
v 0.081892 -0.256155 0.122560
v 0.056408 -0.256155 0.136181
v 0.028757 -0.256155 0.144569
v -0.024099 0.235027 0.121154
v -0.047272 0.235027 0.114124
v -0.068628 0.235027 0.102709
v -0.087347 0.235027 0.087347
v -0.102709 0.235027 0.068628
v -0.114124 0.235027 0.047272
v -0.121154 0.235027 0.024099
v -0.123527 0.235027 0.000000
v -0.121154 0.235027 -0.024099
v -0.114124 0.235027 -0.047272
v -0.102709 0.235027 -0.068628
v -0.087347 0.235027 -0.087347
v -0.068628 0.235027 -0.102709
v -0.047272 0.235027 -0.114124
v -0.024099 0.235027 -0.121154
v -0.000000 0.235027 -0.123527
v 0.024099 0.235027 -0.121154
v 0.047272 0.235027 -0.114124
v 0.068628 0.235027 -0.102709
v 0.087347 0.235027 -0.087347
v 0.102709 0.235027 -0.068628
v 0.114124 0.235027 -0.047272
v 0.121154 0.235027 -0.024099
v 0.123527 0.235027 -0.000000
v 0.121154 0.235027 0.024099
v 0.114124 0.235027 0.047272
v 0.102709 0.235027 0.068628
v 0.087347 0.235027 0.087347
v 0.068628 0.235027 0.102709
v 0.047272 0.235027 0.114124
v 0.024099 0.235027 0.121154
v 0.000000 0.235027 0.123527
v 0.000000 0.280357 0.079233
v -0.015458 0.280357 0.077711
v -0.030321 0.280357 0.073202
v -0.044020 0.280357 0.065880
v -0.056027 0.280357 0.056027
v -0.065880 0.280357 0.044020
v -0.073202 0.280357 0.030321
v -0.077711 0.280357 0.015458
v -0.079233 0.280357 0.000000
v -0.077711 0.280357 -0.015458
v -0.073202 0.280357 -0.030321
v -0.065880 0.280357 -0.044020
v -0.056027 0.280357 -0.056027
v -0.044020 0.280357 -0.065880
v -0.030321 0.280357 -0.073202
v -0.015458 0.280357 -0.077711
v -0.000000 0.280357 -0.079233
v 0.015458 0.280357 -0.077711
v 0.030321 0.280357 -0.073202
v 0.044020 0.280357 -0.065880
v 0.056027 0.280357 -0.056027
v 0.065880 0.280357 -0.044020
v 0.073202 0.280357 -0.030321
v 0.077711 0.280357 -0.015458
v 0.079233 0.280357 -0.000000
v 0.077711 0.280357 0.015458
v 0.073202 0.280357 0.030321
v 0.065880 0.280357 0.044020
v 0.056027 0.280357 0.056027
v 0.044020 0.280357 0.065880
v 0.030321 0.280357 0.073202
v 0.015458 0.280357 0.077711
v 0.062205 0.315935 -0.012373
v 0.063424 0.315935 -0.000000
v -0.058596 0.315935 -0.024271
v -0.052735 0.315935 -0.035236
v 0.062205 0.315935 0.012373
v -0.044847 0.315935 -0.044847
v 0.058596 0.315935 0.024271
v -0.035236 0.315935 -0.052735
v 0.052735 0.315935 0.035236
v -0.024271 0.315935 -0.058596
v 0.000000 0.315935 0.063424
v -0.012373 0.315935 0.062205
v 0.044848 0.315935 0.044847
v -0.012373 0.315935 -0.062205
v -0.024271 0.315935 0.058596
v 0.035236 0.315935 0.052735
v 0.000000 0.315935 -0.063424
v -0.035236 0.315935 0.052735
v 0.024271 0.315935 0.058596
v 0.012373 0.315935 -0.062205
v -0.044847 0.315935 0.044847
v 0.012373 0.315935 0.062205
v 0.024271 0.315935 -0.058596
v -0.052735 0.315935 0.035236
v 0.035236 0.315935 -0.052735
v -0.058596 0.315935 0.024271
v 0.044848 0.315935 -0.044847
v -0.062205 0.315935 0.012373
v 0.052735 0.315935 -0.035236
v -0.063424 0.315935 0.000000
v 0.058596 0.315935 -0.024271
v -0.062205 0.315935 -0.012373
v 0.061310 0.414011 -0.012195
v -0.057753 0.414011 -0.023922
v 0.000000 0.414011 0.062511
v 0.044202 0.414011 0.044202
v 0.012195 0.414011 -0.061310
v -0.044202 0.414011 0.044202
v 0.034730 0.414011 0.051976
v -0.012195 0.414011 -0.061310
v 0.044202 0.414011 -0.044202
v 0.051976 0.414011 -0.034730
v 0.051976 0.414011 0.034729
v -0.044202 0.414011 -0.044202
v -0.034729 0.414011 0.051976
v -0.023922 0.414011 0.057753
v 0.034730 0.414011 -0.051976
v 0.057753 0.414011 -0.023922
v 0.061310 0.414011 0.012195
v -0.023922 0.414011 -0.057753
v -0.062511 0.414011 0.000000
v -0.051976 0.414011 0.034730
v -0.051976 0.414011 -0.034729
v 0.000000 0.414011 -0.062511
v -0.034729 0.414011 -0.051976
v -0.061310 0.414011 0.012195
v 0.012195 0.414011 0.061310
v 0.023922 0.414011 -0.057753
v 0.023922 0.414011 0.057753
v 0.057753 0.414011 0.023922
v -0.012195 0.414011 0.061310
v 0.062512 0.414011 -0.000000
v -0.057753 0.414011 0.023922
v -0.061310 0.414011 -0.012195
v 0.043532 0.463048 -0.008659
v -0.041006 0.463048 -0.016985
v 0.000000 0.463048 0.044385
v 0.008659 0.463048 -0.043532
v -0.008659 0.463048 0.043532
v -0.043532 0.463048 -0.008659
v -0.008659 0.463048 -0.043532
v 0.036905 0.463048 -0.024659
v -0.031384 0.463048 -0.031385
v 0.008659 0.463048 0.043532
v -0.036904 0.463048 0.024659
v -0.031384 0.463048 0.031385
v -0.036904 0.463048 -0.024659
v 0.041006 0.463048 0.016985
v -0.041006 0.463048 0.016985
v 0.016985 0.463048 0.041006
v 0.024659 0.463048 0.036904
v -0.044384 0.463048 0.000000
v -0.016985 0.463048 0.041006
v 0.043532 0.463048 0.008659
v 0.031385 0.463048 -0.031385
v 0.036905 0.463048 0.024659
v -0.024659 0.463048 -0.036904
v 0.031385 0.463048 0.031385
v 0.000000 0.463048 -0.044385
v 0.016985 0.463048 -0.041006
v -0.024659 0.463048 0.036904
v 0.041006 0.463048 -0.016985
v 0.044385 0.463048 -0.000000
v -0.043532 0.463048 0.008659
v 0.024659 0.463048 -0.036904
v -0.016985 0.463048 -0.041006
v 0.047162 0.364973 0.047162
v 0.013012 0.364973 -0.065416
v -0.047162 0.364973 0.047162
v 0.037055 0.364973 0.055457
v -0.013012 0.364973 -0.065416
v 0.047162 0.364973 -0.047162
v 0.055457 0.364973 -0.037055
v 0.055457 0.364973 0.037055
v -0.047162 0.364973 -0.047162
v -0.037055 0.364973 0.055457
v -0.025524 0.364973 0.061620
v 0.037055 0.364973 -0.055457
v 0.061620 0.364973 -0.025524
v 0.065416 0.364973 0.013012
v -0.025524 0.364973 -0.061620
v -0.066697 0.364973 0.000000
v -0.055457 0.364973 0.037055
v -0.055457 0.364973 -0.037055
v 0.000000 0.364973 -0.066697
v -0.037055 0.364973 -0.055457
v -0.065416 0.364973 0.013012
v 0.013012 0.364973 0.065416
v 0.025524 0.364973 -0.061620
v 0.025524 0.364973 0.061620
v 0.061620 0.364973 0.025524
v -0.013012 0.364973 0.065416
v 0.066697 0.364973 -0.000000
v -0.061620 0.364973 0.025524
v -0.065416 0.364973 -0.013012
v 0.000000 0.364973 0.066697
v 0.065416 0.364973 -0.013012
v -0.061620 0.364973 -0.025524
v 0.038883 0.487567 -0.007734
v -0.036626 0.487567 -0.015171
v 0.000000 0.487567 0.039644
v 0.015171 0.487567 0.036626
v 0.032963 0.487567 -0.022025
v 0.036627 0.487567 -0.015171
v -0.028033 0.487567 0.028033
v 0.038883 0.487567 0.007734
v -0.038882 0.487567 0.007734
v -0.022025 0.487567 -0.032963
v 0.036627 0.487567 0.015171
v -0.038882 0.487567 -0.007734
v -0.022025 0.487567 0.032963
v 0.007734 0.487567 0.038882
v -0.015171 0.487567 0.036626
v 0.039644 0.487567 -0.000000
v 0.032963 0.487567 0.022025
v -0.036626 0.487567 0.015171
v -0.007734 0.487567 -0.038882
v 0.015171 0.487567 -0.036626
v -0.032963 0.487567 0.022025
v -0.039644 0.487567 0.000000
v 0.022025 0.487567 -0.032963
v 0.028033 0.487567 -0.028033
v -0.032963 0.487567 -0.022025
v -0.007734 0.487567 0.038882
v 0.000000 0.487567 -0.039644
v -0.028033 0.487567 -0.028033
v 0.022025 0.487567 0.032963
v -0.015171 0.487567 -0.036626
v 0.007734 0.487567 -0.038882
v 0.028033 0.487567 0.028033
vn -0.8101 0.2253 0.5413
vn -0.6527 -0.3845 0.6527
vn -0.6889 0.2253 0.6889
vn -0.5129 -0.3845 0.7675
vn -0.5413 0.2253 0.8101
vn -0.8797 -0.3054 0.3644
vn -0.9472 0.2594 0.1884
vn -0.9339 -0.3054 0.1858
vn -0.3533 -0.3845 0.8528
vn -0.3728 0.2253 0.9001
vn -0.1801 -0.3845 0.9054
vn -0.1901 0.2253 0.9556
vn -0.0000 -0.3845 0.9231
vn -0.0000 0.2253 0.9743
vn -0.9001 0.2253 0.3728
vn -0.7675 -0.3845 0.5129
vn -0.9556 0.2253 0.1901
vn -0.8528 -0.3845 0.3533
vn -0.8101 0.2253 -0.5413
vn -0.8528 -0.3845 -0.3533
vn -0.9001 0.2253 -0.3728
vn 0.8101 0.2253 -0.5413
vn 0.6527 -0.3845 -0.6527
vn 0.6889 0.2253 -0.6889
vn -0.9054 -0.3845 -0.1801
vn -0.9556 0.2253 -0.1901
vn -0.9231 -0.3845 -0.0000
vn -0.9743 0.2253 -0.0000
vn -0.6889 0.2253 -0.6889
vn -0.7675 -0.3845 -0.5129
vn 0.5129 -0.3845 -0.7675
vn 0.5413 0.2253 -0.8101
vn -0.3728 0.2253 -0.9001
vn -0.5129 -0.3845 -0.7675
vn -0.5413 0.2253 -0.8101
vn -0.1901 0.2253 -0.9556
vn -0.3533 -0.3845 -0.8528
vn 0.3533 -0.3845 -0.8528
vn 0.3728 0.2253 -0.9001
vn -0.9522 -0.3054 -0.0000
vn 0.1801 -0.3845 -0.9054
vn 0.1901 0.2253 -0.9556
vn -0.0000 -0.3845 -0.9231
vn -0.0000 0.2253 -0.9743
vn -0.1801 -0.3845 -0.9054
vn -0.6527 -0.3845 -0.6527
vn 0.3728 0.2253 0.9001
vn 0.5129 -0.3845 0.7675
vn 0.5413 0.2253 0.8101
vn 0.9556 0.2253 -0.1901
vn 0.8528 -0.3845 -0.3533
vn 0.9001 0.2253 -0.3728
vn -0.9701 -0.1474 0.1930
vn -0.9998 0.0218 -0.0000
vn -0.9806 0.0218 0.1950
vn 0.8101 0.2253 0.5413
vn 0.8528 -0.3845 0.3533
vn 0.9001 0.2253 0.3728
vn 0.9556 0.2253 0.1901
vn 0.9231 -0.3845 -0.0000
vn 0.9743 0.2253 -0.0000
vn 0.9054 -0.3845 0.1801
vn 0.9658 0.2594 -0.0000
vn 0.9339 -0.3054 0.1858
vn 0.9522 -0.3054 -0.0000
vn 0.6889 0.2253 0.6889
vn 0.7675 -0.3845 0.5129
vn 0.9339 -0.3054 -0.1858
vn 0.8923 0.2594 -0.3696
vn 0.9472 0.2594 -0.1884
vn 0.9054 -0.3845 -0.1801
vn 0.6527 -0.3845 0.6527
vn -0.7887 0.5207 0.3267
vn -0.1666 0.5207 0.8373
vn -0.0000 0.5207 0.8537
vn -0.7098 0.5207 0.4743
vn -0.6037 0.5207 0.6037
vn -0.6037 0.5207 -0.6037
vn -0.7098 0.5207 -0.4743
vn -0.7887 0.5207 -0.3267
vn -0.8373 0.5207 -0.1666
vn -0.8537 0.5207 -0.0000
vn -0.3267 0.5207 -0.7887
vn -0.8373 0.5207 0.1666
vn 0.3267 0.5207 -0.7887
vn 0.1666 0.5207 -0.8373
vn -0.4743 0.5207 -0.7098
vn 0.6037 0.5207 -0.6037
vn 0.4743 0.5207 -0.7098
vn 0.8373 0.5207 -0.1666
vn 0.7887 0.5207 -0.3267
vn -0.1666 0.5207 -0.8373
vn -0.0000 0.5207 -0.8537
vn 0.7098 0.5207 -0.4743
vn 0.6037 0.5207 0.6037
vn 0.7098 0.5207 0.4743
vn 0.7887 0.5207 0.3267
vn 0.8373 0.5207 0.1666
vn 0.8537 0.5207 -0.0000
vn 0.3267 0.5207 0.7887
vn 0.1901 0.2253 0.9556
vn 0.1666 0.5207 0.8373
vn 0.4743 0.5207 0.7098
vn -0.4743 0.5207 0.7098
vn -0.3267 0.5207 0.7887
vn 0.3909 0.7106 0.5850
vn 0.4975 0.7106 0.4975
vn 0.8797 -0.3054 -0.3644
vn 0.7910 -0.5912 -0.1573
vn 0.7451 -0.5912 -0.3086
vn 0.8224 -0.1474 -0.5495
vn 0.9237 0.0218 -0.3826
vn 0.8313 0.0218 -0.5554
vn -0.9054 -0.3845 0.1801
vn -0.4350 0.7884 -0.4350
vn -0.5115 0.7884 -0.3418
vn -0.9138 -0.1474 0.3785
vn -0.9237 0.0218 0.3826
vn 0.1930 -0.1474 -0.9701
vn 0.3826 0.0218 -0.9237
vn 0.1950 0.0218 -0.9806
vn 0.4350 0.7884 -0.4350
vn 0.5115 0.7884 -0.3418
vn 0.5554 0.0218 0.8313
vn 0.3785 -0.1474 0.9138
vn 0.3826 0.0218 0.9237
vn -0.3785 -0.1474 -0.9138
vn -0.1950 0.0218 -0.9806
vn -0.3826 0.0218 -0.9237
vn -0.5554 0.0218 0.8313
vn -0.6994 -0.1474 0.6994
vn -0.7069 0.0218 0.7069
vn -0.0000 0.0218 -0.9998
vn -0.1930 -0.1474 -0.9701
vn -0.0000 -0.1474 -0.9891
vn 0.6994 -0.1474 -0.6994
vn 0.7069 0.0218 -0.7069
vn -0.1950 0.0218 0.9806
vn -0.3785 -0.1474 0.9138
vn -0.3826 0.0218 0.9237
vn -0.5495 -0.1474 -0.8224
vn -0.5554 0.0218 -0.8313
vn 0.3785 -0.1474 -0.9138
vn 0.5554 0.0218 -0.8313
vn 0.1950 0.0218 0.9806
vn -0.0000 -0.1474 0.9891
vn -0.0000 0.0218 0.9998
vn 0.7069 0.0218 0.7069
vn 0.5495 -0.1474 0.8224
vn 0.8313 0.0218 0.5554
vn 0.6994 -0.1474 0.6994
vn 0.1930 -0.1474 0.9701
vn -0.9701 -0.1474 -0.1930
vn -0.9237 0.0218 -0.3826
vn -0.9806 0.0218 -0.1950
vn -0.1858 -0.3054 0.9339
vn -0.3696 0.2594 0.8923
vn -0.3644 -0.3054 0.8797
vn -0.1858 -0.3054 -0.9339
vn -0.3696 0.2594 -0.8923
vn -0.1884 0.2594 -0.9472
vn -0.8224 -0.1474 0.5495
vn -0.8313 0.0218 0.5554
vn -0.5495 -0.1474 0.8224
vn 0.9138 -0.1474 -0.3785
vn 0.9806 0.0218 -0.1950
vn 0.5495 -0.1474 -0.8224
vn -0.3739 -0.9245 0.0744
vn 0.3739 -0.9245 -0.0744
vn 0.0744 -0.9245 0.3739
vn 0.6033 0.7884 -0.1200
vn 0.6151 0.7884 -0.0000
vn 0.6152 0.7884 -0.0000
vn -0.6033 0.7884 0.1200
vn -0.6151 0.7884 -0.0000
vn 0.9806 0.0218 0.1950
vn 0.9138 -0.1474 0.3785
vn 0.9237 0.0218 0.3826
vn -0.3604 0.7611 0.5394
vn -0.2692 0.7106 0.6500
vn -0.2482 0.7611 0.5993
vn -0.5993 0.7611 -0.2482
vn -0.6901 0.7106 -0.1373
vn -0.6362 0.7611 -0.1266
vn -0.3604 0.7611 -0.5394
vn -0.4975 0.7106 -0.4975
vn -0.4587 0.7611 -0.4587
vn 0.4975 0.7106 -0.4975
vn 0.3604 0.7611 -0.5394
vn 0.4587 0.7611 -0.4587
vn -0.6487 0.7611 -0.0000
vn -0.7036 0.7106 -0.0000
vn -0.6500 0.7106 0.2692
vn -0.5394 0.7611 0.3604
vn -0.5993 0.7611 0.2482
vn -0.6901 0.7106 0.1373
vn -0.0000 0.7611 -0.6487
vn 0.1373 0.7106 -0.6901
vn -0.0000 0.7106 -0.7036
vn -0.1373 0.7106 -0.6901
vn -0.1266 0.7611 -0.6362
vn 0.2482 0.7611 -0.5993
vn 0.1266 0.7611 -0.6362
vn 0.2692 0.7106 0.6500
vn 0.3604 0.7611 0.5394
vn 0.2482 0.7611 0.5993
vn -0.5394 0.7611 -0.3604
vn -0.5850 0.7106 -0.3909
vn -0.4975 0.7106 0.4975
vn -0.4587 0.7611 0.4587
vn -0.6500 0.7106 -0.2692
vn -0.2482 0.7611 -0.5993
vn -0.2692 0.7106 -0.6500
vn -0.6362 0.7611 0.1266
vn 0.6487 0.7611 -0.0000
vn 0.6901 0.7106 0.1373
vn 0.7036 0.7106 -0.0000
vn -0.1373 0.7106 0.6901
vn -0.1266 0.7611 0.6362
vn 0.6500 0.7106 -0.2692
vn 0.5394 0.7611 -0.3604
vn 0.5993 0.7611 -0.2482
vn -0.3909 0.7106 0.5850
vn 0.5394 0.7611 0.3604
vn 0.6500 0.7106 0.2692
vn 0.5993 0.7611 0.2482
vn 0.6901 0.7106 -0.1373
vn -0.0000 0.7611 0.6487
vn -0.0000 0.7106 0.7036
vn 0.1373 0.7106 0.6901
vn 0.1266 0.7611 0.6362
vn -0.5125 0.3863 0.7669
vn -0.3530 0.3863 0.8522
vn 0.5850 0.7106 0.3909
vn 0.4587 0.7611 0.4587
vn 0.2692 0.7106 -0.6500
vn 0.6362 0.7611 -0.1266
vn 0.4481 -0.5912 0.6706
vn 0.3644 -0.3054 0.8797
vn 0.3086 -0.5912 0.7451
vn 0.7917 -0.3054 -0.5290
vn 0.8065 -0.5912 -0.0000
vn -0.7451 -0.5912 0.3086
vn -0.7910 -0.5912 0.1574
vn 0.1573 -0.5912 0.7910
vn -0.0000 -0.3054 0.9522
vn -0.0000 -0.5912 0.8065
vn -0.3086 -0.5912 0.7451
vn -0.5290 -0.3054 0.7917
vn -0.4481 -0.5912 0.6706
vn -0.1573 -0.5912 0.7910
vn -0.0000 -0.5912 -0.8065
vn -0.0000 -0.3054 -0.9522
vn 0.4481 -0.5912 -0.6706
vn 0.3644 -0.3054 -0.8797
vn 0.5290 -0.3054 -0.7917
vn 0.1858 -0.3054 0.9339
vn -0.5703 -0.5912 -0.5703
vn -0.7917 -0.3054 -0.5290
vn -0.6733 -0.3054 -0.6733
vn 0.3086 -0.5912 -0.7451
vn 0.1858 -0.3054 -0.9339
vn -0.9339 -0.3054 -0.1858
vn -0.7451 -0.5912 -0.3086
vn -0.7910 -0.5912 -0.1574
vn -0.6733 -0.3054 0.6733
vn -0.5703 -0.5912 0.5703
vn -0.4481 -0.5912 -0.6706
vn -0.5290 -0.3054 -0.7917
vn 0.6706 -0.5912 -0.4481
vn 0.6733 -0.3054 -0.6733
vn -0.6706 -0.5912 -0.4481
vn -0.8797 -0.3054 -0.3644
vn 0.5703 -0.5912 0.5703
vn 0.5290 -0.3054 0.7917
vn 0.1884 0.2594 0.9472
vn 0.3295 0.5084 0.7956
vn 0.1680 0.5084 0.8446
vn 0.6706 -0.5912 0.4481
vn 0.6733 -0.3054 0.6733
vn 0.7910 -0.5912 0.1573
vn -0.8065 -0.5912 -0.0000
vn -0.6706 -0.5912 0.4481
vn -0.1573 -0.5912 -0.7910
vn -0.3644 -0.3054 -0.8797
vn -0.7917 -0.3054 0.5290
vn 0.7451 -0.5912 0.3086
vn 0.7917 -0.3054 0.5290
vn 0.5703 -0.5912 -0.5703
vn -0.3086 -0.5912 -0.7451
vn 0.1573 -0.5912 -0.7910
vn -0.0000 0.7884 -0.6151
vn -0.1200 0.7884 -0.6033
vn -0.8030 0.2594 0.5366
vn 0.5366 0.2594 0.8030
vn -0.0000 0.2594 -0.9658
vn -0.5365 0.2594 0.8030
vn 0.1884 0.2594 -0.9472
vn -0.6829 0.2594 0.6829
vn 0.3696 0.2594 -0.8923
vn 0.5366 0.2594 -0.8030
vn 0.3696 0.2594 0.8923
vn -0.0000 0.2594 0.9658
vn 0.6829 0.2594 -0.6829
vn 0.8030 0.2594 -0.5366
vn -0.1884 0.2594 0.9472
vn -0.0000 0.7884 0.6151
vn -0.1200 0.7884 0.6033
vn -0.6829 0.2594 -0.6829
vn -0.5366 0.2594 -0.8030
vn 0.9701 -0.1474 -0.1930
vn 0.9998 0.0218 -0.0000
vn -0.8030 0.2594 -0.5366
vn 0.3533 -0.3845 0.8528
vn 0.8797 -0.3054 0.3644
vn 0.8030 0.2594 0.5366
vn 0.7675 -0.3845 -0.5129
vn -0.9472 0.2594 -0.1884
vn -0.8923 0.2594 -0.3696
vn 0.8923 0.2594 0.3696
vn 0.9701 -0.1474 0.1930
vn -0.8923 0.2594 0.3696
vn 0.1801 -0.3845 0.9054
vn -0.6994 -0.1474 -0.6994
vn -0.7069 0.0218 -0.7069
vn 0.5683 0.7884 -0.2354
vn -0.2354 0.7884 -0.5683
vn -0.1930 -0.1474 0.9701
vn 0.7160 0.5084 0.4784
vn 0.6829 0.2594 0.6829
vn 0.8446 0.5083 0.1680
vn 0.7956 0.5084 0.3295
vn -0.3295 0.5084 0.7956
vn -0.1680 0.5084 0.8446
vn -0.7160 0.5084 -0.4784
vn -0.7956 0.5084 -0.3295
vn -0.0000 0.5084 0.8611
vn 0.4784 0.5084 0.7160
vn 0.7956 0.5084 -0.3295
vn 0.7160 0.5084 -0.4784
vn -0.1680 0.5084 -0.8446
vn -0.0000 0.5084 -0.8611
vn 0.6089 0.5083 -0.6089
vn -0.7160 0.5084 0.4784
vn -0.6089 0.5084 0.6089
vn 0.1680 0.5084 -0.8446
vn 0.6089 0.5084 0.6089
vn 0.3295 0.5084 -0.7956
vn 0.4784 0.5084 -0.7160
vn -0.9658 0.2594 -0.0000
vn -0.8446 0.5084 0.1680
vn -0.8612 0.5083 -0.0000
vn -0.7956 0.5084 0.3295
vn 0.8611 0.5084 -0.0000
vn 0.9472 0.2594 0.1884
vn -0.4784 0.5084 -0.7160
vn -0.6089 0.5084 -0.6089
vn -0.4784 0.5084 0.7160
vn 0.8446 0.5083 -0.1680
vn -0.8446 0.5083 -0.1680
vn -0.3295 0.5084 -0.7956
vn -0.9230 -0.0437 -0.3823
vn -0.7669 0.3863 -0.5125
vn -0.8522 0.3863 -0.3530
vn 0.3418 0.7884 0.5115
vn 0.2354 0.7884 0.5683
vn -0.2354 0.7884 0.5683
vn 0.5115 0.7884 0.3418
vn 0.4350 0.7884 0.4350
vn 0.1200 0.7884 0.6033
vn 0.8224 -0.1474 0.5495
vn 0.2354 0.7884 -0.5683
vn 0.1200 0.7884 -0.6033
vn -0.5115 0.7884 0.3418
vn -0.5683 0.7884 0.2354
vn 0.5683 0.7884 0.2354
vn -0.3418 0.7884 -0.5115
vn -0.4350 0.7884 0.4350
vn -0.8224 -0.1474 -0.5495
vn -0.8313 0.0218 -0.5554
vn -0.3418 0.7884 0.5115
vn 0.3418 0.7884 -0.5115
vn -0.6033 0.7884 -0.1200
vn -0.0000 1.0000 -0.0000
vn -0.9891 -0.1474 -0.0000
vn -0.5683 0.7884 -0.2354
vn -0.9138 -0.1474 -0.3785
vn 0.6033 0.7884 0.1200
vn -0.0000 -0.9245 -0.3812
vn 0.0744 -0.9245 -0.3739
vn 0.1459 -0.9245 -0.3522
vn -0.3522 -0.9245 -0.1459
vn -0.3170 -0.9245 -0.2118
vn 0.2118 -0.9245 -0.3170
vn 0.2696 -0.9245 -0.2696
vn -0.2118 -0.9245 -0.3170
vn -0.1459 -0.9245 -0.3522
vn 0.3522 -0.9245 -0.1459
vn 0.3812 -0.9245 -0.0000
vn 0.3739 -0.9245 0.0744
vn 0.3522 -0.9245 0.1459
vn 0.3170 -0.9245 0.2118
vn 0.2696 -0.9245 0.2696
vn 0.3170 -0.9245 -0.2118
vn -0.1459 -0.9245 0.3522
vn -0.2118 -0.9245 0.3170
vn -0.3522 -0.9245 0.1459
vn -0.3812 -0.9245 -0.0000
vn -0.3739 -0.9245 -0.0744
vn -0.2696 -0.9245 -0.2696
vn 0.2118 -0.9245 0.3170
vn 0.6362 0.7611 0.1266
vn -0.3170 -0.9245 0.2118
vn -0.2696 -0.9245 0.2696
vn 0.1459 -0.9245 0.3522
vn -0.0000 -0.9245 0.3812
vn -0.0744 -0.9245 0.3739
vn -0.0744 -0.9245 -0.3739
vn 0.5850 0.7106 -0.3909
vn 0.3909 0.7106 -0.5850
vn -0.5850 0.7106 0.3909
vn -0.3909 0.7106 -0.5850
vn 0.9224 0.3863 -0.0000
vn 0.9047 0.3863 -0.1800
vn -0.5125 0.3863 -0.7669
vn -0.6522 0.3863 -0.6522
vn -0.0000 0.3863 -0.9224
vn -0.1800 0.3863 -0.9047
vn 0.6522 0.3863 -0.6522
vn 0.5125 0.3863 -0.7669
vn 0.7669 0.3863 -0.5125
vn 0.3530 0.3863 0.8522
vn 0.5125 0.3863 0.7669
vn 0.8522 0.3863 -0.3530
vn -0.0000 0.3863 0.9224
vn -0.9224 0.3863 -0.0000
vn -0.9047 0.3863 0.1800
vn -0.3530 0.3863 -0.8522
vn 0.6522 0.3863 0.6522
vn 0.9047 0.3863 0.1800
vn 0.8522 0.3863 0.3530
vn -0.9047 0.3863 -0.1799
vn 0.1800 0.3863 0.9047
vn 0.7669 0.3863 0.5125
vn -0.6522 0.3863 0.6522
vn -0.7669 0.3863 0.5125
vn -0.8522 0.3863 0.3530
vn -0.1800 0.3863 0.9047
vn 0.1800 0.3863 -0.9047
vn 0.3530 0.3863 -0.8522
vn 0.1951 0.0092 -0.9807
vn -0.0000 0.2161 -0.9764
vn 0.1905 0.2161 -0.9576
vn 0.9230 -0.0437 0.3823
vn 0.8314 0.0092 0.5555
vn 0.8307 -0.0437 0.5550
vn -0.9807 0.0092 0.1951
vn -0.9990 -0.0437 -0.0000
vn -0.9798 -0.0437 0.1949
vn 0.1949 -0.0437 0.9798
vn -0.0000 0.0092 1.0000
vn -0.0000 -0.0437 0.9990
vn 0.3827 0.0092 -0.9238
vn 0.5550 -0.0437 -0.8307
vn 0.3823 -0.0437 -0.9230
vn -0.1949 -0.0437 0.9798
vn -0.3827 0.0092 0.9238
vn -0.3823 -0.0437 0.9230
vn 0.7064 -0.0437 0.7064
vn 0.5555 0.0092 0.8314
vn 0.5550 -0.0437 0.8307
vn -0.8005 0.2705 -0.5349
vn -0.8894 0.2705 -0.3684
vn 0.9238 0.0092 -0.3827
vn 0.9798 -0.0437 -0.1949
vn 0.9230 -0.0437 -0.3823
vn 0.1949 -0.0437 -0.9798
vn 0.3827 0.0092 0.9238
vn 0.3823 -0.0437 0.9230
vn 0.9990 -0.0437 -0.0000
vn 0.9807 0.0092 0.1951
vn 0.9798 -0.0437 0.1949
vn -0.7064 -0.0437 0.7064
vn -0.8314 0.0092 0.5555
vn -0.8307 -0.0437 0.5550
vn 0.9238 0.0092 0.3827
vn -0.5555 0.0092 -0.8314
vn -0.3823 -0.0437 -0.9230
vn -0.5550 -0.0437 -0.8307
vn -0.8314 0.0092 -0.5555
vn -0.7064 -0.0437 -0.7064
vn -0.8307 -0.0437 -0.5550
vn 0.5555 0.0092 -0.8314
vn 0.7064 -0.0437 -0.7064
vn -0.5550 -0.0437 0.8307
vn -0.7071 0.0092 0.7071
vn -0.9238 0.0092 0.3827
vn -0.9230 -0.0437 0.3823
vn 0.8314 0.0092 -0.5555
vn 0.8307 -0.0437 -0.5550
vn -0.7071 0.0092 -0.7071
vn -0.9807 0.0092 -0.1951
vn -0.9798 -0.0437 -0.1949
vn -0.0000 -0.0437 -0.9990
vn -0.1951 0.0092 -0.9807
vn -0.0000 0.0092 -1.0000
vn -0.5555 0.0092 0.8314
vn 0.7071 0.0092 0.7071
vn 0.7071 0.0092 -0.7071
vn 0.9807 0.0092 -0.1951
vn -0.1951 0.0092 0.9807
vn -0.3827 0.0092 -0.9238
vn -0.1949 -0.0437 -0.9798
vn 0.1951 0.0092 0.9807
vn -1.0000 0.0092 -0.0000
vn -0.9764 0.2161 -0.0000
vn -0.5424 0.2161 0.8118
vn 0.3736 0.2161 0.9020
vn -0.8118 0.2161 -0.5424
vn -0.9021 0.2161 0.3736
vn 0.1905 0.2161 0.9576
vn -0.8118 0.2161 0.5424
vn -0.9576 0.2161 -0.1905
vn -0.9238 0.0092 -0.3827
vn 0.8118 0.2161 -0.5424
vn 0.9764 0.2161 -0.0000
vn 1.0000 0.0092 -0.0000
vn -0.0000 0.2161 0.9764
vn -0.6904 0.2161 -0.6904
vn -0.1905 0.2161 0.9576
vn 0.3736 0.2161 -0.9021
vn 0.9021 0.2161 0.3736
vn -0.9576 0.2161 0.1905
vn -0.3736 0.2161 0.9020
vn 0.6904 0.2161 0.6904
vn -0.6904 0.2161 0.6904
vn 0.9021 0.2161 -0.3736
vn 0.5424 0.2161 -0.8118
vn 0.6904 0.2161 -0.6904
vn 0.8118 0.2161 0.5424
vn -0.3736 0.2161 -0.9020
vn -0.5424 0.2161 -0.8118
vn -0.1905 0.2161 -0.9576
vn 0.5424 0.2161 0.8118
vn -0.9020 0.2161 -0.3736
vn 0.9576 0.2161 -0.1905
vn 0.0001 1.0000 -0.0000
vn -0.0001 1.0000 -0.0000
vn 0.8005 0.2705 0.5349
vn 0.6807 0.2705 0.6807
vn 0.9442 0.2705 0.1878
vn 0.8894 0.2705 0.3684
vn 0.3684 0.2705 -0.8894
vn 0.1878 0.2705 -0.9442
vn -0.3684 0.2705 0.8894
vn -0.5349 0.2705 0.8005
vn -0.3684 0.2705 -0.8894
vn -0.5349 0.2705 -0.8005
vn 0.8894 0.2705 -0.3684
vn 0.8005 0.2705 -0.5349
vn -0.6807 0.2705 -0.6807
vn -0.9442 0.2705 -0.1878
vn 0.9627 0.2705 -0.0000
vn 0.5349 0.2705 0.8005
vn 0.3684 0.2705 0.8894
vn 0.6807 0.2705 -0.6807
vn 0.5349 0.2705 -0.8005
vn -0.8894 0.2705 0.3684
vn -0.9442 0.2705 0.1878
vn 0.1878 0.2705 0.9442
vn 0.9442 0.2705 -0.1878
vn -0.1878 0.2705 -0.9442
vn -0.0000 0.2705 0.9627
vn -0.9627 0.2705 -0.0000
vn -0.1878 0.2705 0.9442
vn -0.6807 0.2705 0.6807
vn -0.8005 0.2705 0.5349
vn -0.0000 0.2705 -0.9627
vn 0.9576 0.2161 0.1905
vn 0.9891 -0.1474 -0.0000
vt 0.005222 0.116038
vt 0.485900 0.120192
vt 0.006677 0.144069
vt 0.487333 0.150217
vt 0.008016 0.172106
vt 0.752016 0.250255
vt 0.750977 0.250783
vt 0.751881 0.250058
vt 0.488642 0.180247
vt 0.009238 0.200147
vt 0.489826 0.210283
vt 0.010344 0.228194
vt 0.490886 0.240324
vt 0.011333 0.256245
vt 0.003651 0.088014
vt 0.484341 0.090173
vt 0.001963 0.059996
vt 0.482659 0.060161
vt 0.005222 0.845466
vt 0.482659 0.901343
vt 0.003651 0.873491
vt 0.014535 0.564956
vt 0.493879 0.600983
vt 0.014128 0.593021
vt 0.480852 0.931348
vt 0.001963 0.901509
vt 0.478920 0.961345
vt 0.000160 0.929519
vt 0.006677 0.817436
vt 0.484342 0.871331
vt 0.493318 0.631037
vt 0.013604 0.621085
vt 0.009238 0.761357
vt 0.487333 0.811288
vt 0.008016 0.789399
vt 0.010344 0.733310
vt 0.488642 0.781257
vt 0.492632 0.661088
vt 0.012963 0.649146
vt 0.751716 0.249888
vt 0.491821 0.691137
vt 0.012206 0.677204
vt 0.490886 0.721181
vt 0.011333 0.705259
vt 0.489826 0.751221
vt 0.485900 0.841313
vt 0.012963 0.312358
vt 0.493318 0.330468
vt 0.013604 0.340420
vt 0.015001 0.508821
vt 0.494627 0.540870
vt 0.014826 0.536889
vt 0.751918 0.250028
vt 0.752476 0.248987
vt 0.752800 0.249326
vt 0.014535 0.396549
vt 0.494627 0.420635
vt 0.014826 0.424616
vt 0.015001 0.452684
vt 0.494876 0.480752
vt 0.015059 0.480752
vt 0.494814 0.450693
vt 0.750910 0.250848
vt 0.750365 0.251859
vt 0.750172 0.251728
vt 0.014128 0.368483
vt 0.494315 0.390577
vt 0.750011 0.251558
vt 0.750898 0.250834
vt 0.750904 0.250842
vt 0.494814 0.510811
vt 0.493879 0.360521
vt 0.924044 0.164069
vt 0.947448 0.099036
vt 0.973421 0.139069
vt 0.923483 0.345706
vt 0.947895 0.413826
vt 0.902342 0.378219
vt 0.937900 0.198601
vt 0.990514 0.183674
vt 0.945233 0.235338
vt 0.740488 0.055653
vt 0.787050 0.002837
vt 0.778243 0.058290
vt 0.833702 0.015596
vt 0.814631 0.067343
vt 0.848632 0.083011
vt 0.915197 0.063946
vt 0.878679 0.105276
vt 0.666338 0.073288
vt 0.599210 0.046327
vt 0.643015 0.021948
vt 0.904462 0.132314
vt 0.563956 0.184796
vt 0.531575 0.120393
vt 0.580911 0.149792
vt 0.702834 0.061194
vt 0.689792 0.005805
vt 0.551738 0.261588
vt 0.497856 0.214087
vt 0.554281 0.222525
vt 0.510062 0.165663
vt 0.591079 0.372148
vt 0.517186 0.361988
vt 0.570610 0.337827
vt 0.561581 0.080096
vt 0.633340 0.093269
vt 0.604222 0.118753
vt 0.557524 0.300485
vt 0.501229 0.313485
vt 0.766218 0.450980
vt 0.719190 0.509436
vt 0.726271 0.449831
vt 0.668265 0.497612
vt 0.687284 0.441404
vt 0.650583 0.425340
vt 0.578235 0.446361
vt 0.618388 0.401487
vt 0.842258 0.428455
vt 0.912718 0.451136
vt 0.869886 0.479678
vt 0.874706 0.405840
vt 0.805292 0.443138
vt 0.822347 0.500182
vt 0.944963 0.272942
vt 0.991704 0.325177
vt 0.937853 0.310214
vt 0.789649 0.388481
vt 0.761779 0.393786
vt 0.621246 0.476192
vt 0.999840 0.277544
vt 0.749884 0.251361
vt 0.749973 0.251588
vt 0.749843 0.251382
vt 0.749749 0.251159
vt 0.748821 0.251912
vt 0.748648 0.251478
vt 0.000160 0.031985
vt 0.480852 0.030157
vt 0.864417 0.596673
vt 0.855198 0.592459
vt 0.862615 0.590950
vt 0.752059 0.250232
vt 0.753033 0.249729
vt 0.749846 0.250212
vt 0.748659 0.250090
vt 0.748841 0.249657
vt 0.893657 0.540977
vt 0.885049 0.535803
vt 0.890262 0.532986
vt 0.751597 0.253089
vt 0.751514 0.251918
vt 0.752040 0.252941
vt 0.750363 0.249703
vt 0.749449 0.248949
vt 0.749840 0.248693
vt 0.753316 0.251077
vt 0.752190 0.250705
vt 0.753313 0.250609
vt 0.749116 0.249277
vt 0.750156 0.249835
vt 0.749982 0.250008
vt 0.749700 0.250920
vt 0.748561 0.251018
vt 0.753040 0.251972
vt 0.752134 0.251191
vt 0.753229 0.251539
vt 0.750592 0.249615
vt 0.750274 0.248519
vt 0.749747 0.250436
vt 0.748564 0.250550
vt 0.752434 0.252687
vt 0.751895 0.251617
vt 0.752772 0.252360
vt 0.751143 0.253187
vt 0.751290 0.252015
vt 0.750676 0.253193
vt 0.751048 0.252056
vt 0.751717 0.251784
vt 0.751545 0.249712
vt 0.751661 0.248534
vt 0.752092 0.248720
vt 0.751998 0.251395
vt 0.750985 0.250826
vt 0.752089 0.251177
vt 0.750185 0.249871
vt 0.750919 0.250771
vt 0.750911 0.250776
vt 0.752150 0.250463
vt 0.753218 0.250153
vt 0.752183 0.250950
vt 0.749075 0.252305
vt 0.749699 0.250676
vt 0.793066 0.652820
vt 0.508722 0.678797
vt 0.637910 0.523241
vt 0.879299 0.519646
vt 0.869217 0.520065
vt 0.872051 0.514797
vt 0.823109 0.588680
vt 0.833229 0.588188
vt 0.830454 0.593493
vt 0.749783 0.252914
vt 0.750568 0.251991
vt 0.750213 0.253108
vt 0.855020 0.263470
vt 0.885071 0.294164
vt 0.850854 0.283565
vt 0.784675 0.152215
vt 0.821145 0.129943
vt 0.803087 0.160610
vt 0.724429 0.149414
vt 0.742658 0.110578
vt 0.744650 0.146351
vt 0.608408 0.258961
vt 0.645824 0.236274
vt 0.644975 0.257155
vt 0.819436 0.172493
vt 0.842838 0.145949
vt 0.875985 0.188155
vt 0.851659 0.223056
vt 0.844180 0.204233
vt 0.861397 0.165391
vt 0.672218 0.180727
vt 0.628541 0.178591
vt 0.645453 0.156476
vt 0.665891 0.137766
vt 0.687520 0.166872
vt 0.651033 0.216096
vt 0.659880 0.197345
vt 0.815713 0.377781
vt 0.779307 0.353135
vt 0.798744 0.345420
vt 0.765000 0.147256
vt 0.769962 0.111832
vt 0.890774 0.240163
vt 0.855269 0.243053
vt 0.796541 0.118260
vt 0.705142 0.156343
vt 0.689771 0.123905
vt 0.833376 0.187122
vt 0.680530 0.331013
vt 0.679126 0.375493
vt 0.656079 0.358623
vt 0.874674 0.319754
vt 0.842762 0.302494
vt 0.622063 0.313571
vt 0.648068 0.277871
vt 0.655377 0.297496
vt 0.890760 0.267388
vt 0.737607 0.356472
vt 0.705225 0.387390
vt 0.716969 0.352091
vt 0.637000 0.337650
vt 0.831083 0.319562
vt 0.858986 0.342665
vt 0.839309 0.362565
vt 0.816230 0.334083
vt 0.826480 0.260182
vt 0.823357 0.274753
vt 0.733250 0.393435
vt 0.758648 0.356833
vt 0.616745 0.203900
vt 0.666318 0.315421
vt 0.974333 0.371213
vt 0.751492 0.251877
vt 0.749793 0.251145
vt 0.750143 0.251762
vt 0.751860 0.251586
vt 0.752136 0.250945
vt 0.752038 0.251417
vt 0.750018 0.250038
vt 0.749791 0.250450
vt 0.749745 0.250680
vt 0.751688 0.251747
vt 0.750832 0.249567
vt 0.751073 0.249612
vt 0.750836 0.249614
vt 0.749886 0.250234
vt 0.751522 0.249752
vt 0.751320 0.249613
vt 0.752143 0.250708
vt 0.750605 0.249660
vt 0.749746 0.250915
vt 0.751078 0.249566
vt 0.751306 0.249658
vt 0.751276 0.251970
vt 0.750970 0.250849
vt 0.750959 0.250849
vt 0.750966 0.250844
vt 0.750804 0.252046
vt 0.751045 0.252009
vt 0.750343 0.251901
vt 0.751746 0.249852
vt 0.750384 0.249745
vt 0.752106 0.250475
vt 0.750810 0.252000
vt 0.890600 0.574891
vt 0.881106 0.578420
vt 0.885252 0.572093
vt 0.750985 0.250799
vt 0.750953 0.250857
vt 0.750905 0.250782
vt 0.750987 0.250817
vt 0.750899 0.250790
vt 0.750987 0.250808
vt 0.750896 0.250798
vt 0.750894 0.250807
vt 0.750962 0.250854
vt 0.750976 0.250842
vt 0.750893 0.250816
vt 0.750895 0.250825
vt 0.750981 0.250834
vt 0.811759 0.533344
vt 0.814229 0.543073
vt 0.808516 0.541418
vt 0.750937 0.250766
vt 0.750927 0.250767
vt 0.749399 0.252643
vt 0.750946 0.250766
vt 0.012207 0.284300
vt 0.492632 0.300416
vt 0.750582 0.251947
vt 0.750935 0.250859
vt 0.494315 0.570927
vt 0.750963 0.250771
vt 0.750955 0.250768
vt 0.750926 0.250857
vt 0.750982 0.250791
vt 0.491821 0.270368
vt 0.750734 0.248432
vt 0.885439 0.525801
vt 0.880835 0.529570
vt 0.885740 0.582205
vt 0.875810 0.583797
vt 0.750936 0.250853
vt 0.750944 0.250859
vt 0.750920 0.250849
vt 0.750928 0.250852
vt 0.750980 0.250824
vt 0.750977 0.250832
vt 0.750945 0.250771
vt 0.750953 0.250773
vt 0.750972 0.250839
vt 0.750952 0.250852
vt 0.750903 0.250831
vt 0.750900 0.250824
vt 0.750915 0.250780
vt 0.750909 0.250786
vt 0.750899 0.250816
vt 0.750980 0.250801
vt 0.750982 0.250808
vt 0.750904 0.250793
vt 0.750944 0.250853
vt 0.750901 0.250800
vt 0.750899 0.250808
vt 0.750971 0.250776
vt 0.750973 0.250786
vt 0.750967 0.250781
vt 0.750977 0.250793
vt 0.750913 0.250844
vt 0.750918 0.250853
vt 0.750929 0.250773
vt 0.750937 0.250771
vt 0.750982 0.250817
vt 0.750908 0.250838
vt 0.750961 0.250776
vt 0.750921 0.250776
vt 0.768764 0.198432
vt 0.761026 0.175588
vt 0.775390 0.179055
vt 0.832822 0.520169
vt 0.822669 0.519797
vt 0.829951 0.514842
vt 0.812820 0.550476
vt 0.806911 0.549927
vt 0.847233 0.515756
vt 0.838090 0.511498
vt 0.846638 0.509817
vt 0.821211 0.529789
vt 0.816537 0.526043
vt 0.895420 0.558158
vt 0.888079 0.565076
vt 0.889473 0.557644
vt 0.817301 0.572387
vt 0.816912 0.582461
vt 0.812055 0.575230
vt 0.893843 0.566728
vt 0.817058 0.536092
vt 0.855372 0.509756
vt 0.879606 0.588362
vt 0.869572 0.588025
vt 0.808625 0.567194
vt 0.751203 0.248437
vt 0.806911 0.558606
vt 0.814369 0.565419
vt 0.889452 0.550105
vt 0.887954 0.542734
vt 0.838513 0.596748
vt 0.840214 0.591050
vt 0.826923 0.584003
vt 0.895352 0.549496
vt 0.812854 0.558022
vt 0.847036 0.598444
vt 0.847629 0.592484
vt 0.872443 0.593249
vt 0.855813 0.598465
vt 0.863975 0.511456
vt 0.854798 0.515753
vt 0.635821 0.808241
vt 0.604367 0.815497
vt 0.608376 0.802607
vt 0.582576 0.791711
vt 0.576140 0.803673
vt 0.776535 0.734369
vt 0.771235 0.766264
vt 0.760825 0.757610
vt 0.559368 0.775920
vt 0.529182 0.764432
vt 0.539699 0.755962
vt 0.717439 0.792704
vt 0.749439 0.787934
vt 0.723713 0.804684
vt 0.691447 0.803192
vt 0.695286 0.816297
vt 0.513877 0.706452
vt 0.495196 0.680022
vt 0.665101 0.821862
vt 0.634403 0.821819
vt 0.508807 0.650666
vt 0.501458 0.619145
vt 0.514409 0.623134
vt 0.525253 0.597248
vt 0.513225 0.590744
vt 0.550601 0.786428
vt 0.540963 0.574007
vt 0.552348 0.543684
vt 0.560942 0.554307
vt 0.524351 0.732525
vt 0.512329 0.738873
vt 0.719212 0.539906
vt 0.751187 0.545189
vt 0.742420 0.555698
vt 0.787911 0.625165
vt 0.806592 0.651595
vt 0.495196 0.649268
vt 0.792980 0.680952
vt 0.800330 0.712472
vt 0.787378 0.708484
vt 0.788562 0.740873
vt 0.530552 0.565353
vt 0.740846 0.777311
vt 0.584349 0.538913
vt 0.578075 0.526933
vt 0.789458 0.592744
vt 0.801071 0.621331
vt 0.697731 0.343317
vt 0.777436 0.599092
vt 0.772605 0.567185
vt 0.762089 0.575655
vt 0.610340 0.528425
vt 0.636687 0.509756
vt 0.665966 0.523376
vt 0.667385 0.509799
vt 0.697420 0.516121
vt 0.725647 0.527945
vt 0.693411 0.529011
vt 0.500717 0.710286
vt 0.663878 0.808376
vt 0.806592 0.682349
vt 0.612253 0.286923
vt 0.609613 0.230931
vt 0.886069 0.213394
vt 0.715600 0.114647
vt 0.606501 0.515320
vt 0.699780 0.309141
vt 0.689523 0.297793
vt 0.731527 0.177151
vt 0.746221 0.174921
vt 0.693656 0.200039
vt 0.704740 0.189967
vt 0.674062 0.255526
vt 0.674765 0.240414
vt 0.676425 0.270504
vt 0.785449 0.319518
vt 0.771370 0.325075
vt 0.681667 0.284776
vt 0.808999 0.300891
vt 0.800636 0.193975
vt 0.810884 0.204570
vt 0.717537 0.182264
vt 0.756409 0.327751
vt 0.712328 0.317890
vt 0.726318 0.324055
vt 0.788739 0.185272
vt 0.798163 0.311366
vt 0.741197 0.327374
vt 0.826678 0.245353
vt 0.824074 0.230789
vt 0.818771 0.217019
vt 0.817491 0.288509
vt 0.684779 0.212145
vt 0.678353 0.225756
vt 0.729659 0.238657
vt 0.742428 0.243467
vt 0.741097 0.245236
vt 0.732974 0.304126
vt 0.747917 0.275436
vt 0.743850 0.306310
vt 0.770370 0.235694
vt 0.787615 0.208890
vt 0.794867 0.216898
vt 0.785289 0.294963
vt 0.769489 0.266779
vt 0.793325 0.287517
vt 0.727674 0.243012
vt 0.695464 0.243313
vt 0.698075 0.232651
vt 0.799440 0.278427
vt 0.774208 0.258524
vt 0.803680 0.268383
vt 0.754877 0.306741
vt 0.757550 0.274460
vt 0.765757 0.304988
vt 0.751435 0.246481
vt 0.752273 0.246657
vt 0.728784 0.261812
vt 0.706548 0.284822
vt 0.700799 0.275414
vt 0.702703 0.222724
vt 0.762063 0.272779
vt 0.775944 0.300725
vt 0.714108 0.292845
vt 0.738709 0.272307
vt 0.722961 0.299443
vt 0.805917 0.246908
vt 0.774705 0.244261
vt 0.804238 0.236246
vt 0.743208 0.274150
vt 0.744454 0.227018
vt 0.726505 0.200863
vt 0.736714 0.197129
vt 0.754051 0.226377
vt 0.747432 0.195458
vt 0.758252 0.195903
vt 0.726584 0.247683
vt 0.694975 0.254302
vt 0.805878 0.257742
vt 0.775550 0.249019
vt 0.772955 0.239762
vt 0.800493 0.226120
vt 0.727240 0.257218
vt 0.696631 0.265199
vt 0.749226 0.226230
vt 0.763153 0.229414
vt 0.778579 0.202949
vt 0.709161 0.213901
vt 0.735879 0.231390
vt 0.732347 0.234669
vt 0.775425 0.253860
vt 0.752807 0.275421
vt 0.726437 0.252483
vt 0.731381 0.265937
vt 0.772259 0.262889
vt 0.739911 0.228718
vt 0.717198 0.206525
vt 0.766040 0.270077
vt 0.766952 0.232333
vt 0.758279 0.242240
vt 0.762155 0.252161
vt 0.756037 0.260884
vt 0.752297 0.239632
vt 0.760983 0.245692
vt 0.757915 0.259702
vt 0.761833 0.247745
vt 0.756470 0.240983
vt 0.758752 0.227453
vt 0.740089 0.253823
vt 0.743637 0.259304
vt 0.734732 0.269480
vt 0.759454 0.258120
vt 0.750095 0.239591
vt 0.760759 0.256348
vt 0.740216 0.247271
vt 0.747420 0.261497
vt 0.759762 0.243860
vt 0.761703 0.254339
vt 0.751774 0.262014
vt 0.762239 0.249937
vt 0.740891 0.255882
vt 0.739746 0.249435
vt 0.739702 0.251646
vt 0.749582 0.261909
vt 0.745885 0.240790
vt 0.747929 0.239982
vt 0.744005 0.241934
vt 0.753962 0.261679
vt 0.754450 0.240102
vt 0.742083 0.257744
vt 0.826533 0.524411
vt 0.839816 0.517246
vt 0.862226 0.517195
vt 0.875499 0.524244
vt 0.821553 0.578654
vt 0.750434 0.255162
vt 0.751294 0.255170
vt 0.748817 0.254621
vt 0.749601 0.254956
vt 0.746792 0.249489
vt 0.747130 0.248706
vt 0.755067 0.252127
vt 0.755237 0.251304
vt 0.748954 0.246944
vt 0.749743 0.246628
vt 0.747076 0.252798
vt 0.746760 0.252010
vt 0.750581 0.246471
vt 0.753062 0.246994
vt 0.748112 0.254137
vt 0.752137 0.255013
vt 0.752938 0.254702
vt 0.746604 0.251174
vt 0.746614 0.250322
vt 0.754816 0.248831
vt 0.754352 0.248114
vt 0.753665 0.254239
vt 0.747538 0.253506
vt 0.748218 0.247384
vt 0.754288 0.253641
vt 0.753773 0.247480
vt 0.754756 0.252918
vt 0.755273 0.250459
vt 0.755110 0.249628
vt 0.747598 0.247985
vt 0.745436 0.260545
vt 0.999049 0.230108
vt 0.738544 0.000160
vt 0.876396 0.036354
vt 0.495196 0.263720
vt 0.543053 0.407068
vt 0.771323 0.509436
vt 0.478920 0.000160
s 1
usemtl マテリアル.007
f 70/1/1 293/2/2 69/3/3
f 69/3/3 292/4/4 68/5/5
f 167/6/6 232/7/7 168/8/8
f 68/5/5 291/9/9 67/10/10
f 67/10/10 290/11/11 65/12/12
f 65/12/12 289/13/13 66/14/14
f 71/15/15 294/16/16 70/1/1
f 72/17/17 295/18/18 71/15/15
f 76/19/19 299/20/20 75/21/21
f 86/22/22 309/23/23 85/24/24
f 75/21/21 298/25/25 74/26/26
f 74/26/26 297/27/27 73/28/28
f 77/29/29 300/30/30 76/19/19
f 85/24/24 308/31/31 84/32/32
f 79/33/33 302/34/34 78/35/35
f 80/36/36 303/37/37 79/33/33
f 84/32/32 307/38/38 83/39/39
f 232/7/7 169/40/40 168/8/8
f 83/39/39 306/41/41 82/42/42
f 82/42/42 305/43/43 81/44/44
f 81/44/44 304/45/45 80/36/36
f 78/35/35 301/46/46 77/29/29
f 95/47/47 318/48/48 94/49/49
f 88/50/50 311/51/51 87/52/52
f 104/53/53 534/54/54 521/55/55
f 92/56/56 315/57/57 91/58/58
f 90/59/59 313/60/60 89/61/61
f 91/58/58 314/62/62 90/59/59
f 249/63/63 186/64/64 185/65/65
f 93/66/66 316/67/67 92/56/56
f 184/68/68 247/69/69 248/70/70
f 89/61/61 312/71/71 88/50/50
f 248/70/70 185/65/65 184/68/68
f 94/49/49 317/72/72 93/66/66
f 326/73/73 72/74/17 71/75/15
f 321/76/74 66/77/14 352/78/75
f 325/79/76 71/75/15 70/80/1
f 70/80/1 324/81/77 325/79/76
f 332/82/78 76/83/19 331/84/79
f 331/84/79 75/85/21 330/86/80
f 329/87/81 73/88/28 328/89/82
f 334/90/83 80/91/36 79/92/33
f 73/88/28 327/93/84 328/89/82
f 338/94/85 82/95/42 337/96/86
f 333/97/87 79/92/33 78/98/35
f 78/98/35 332/82/78 333/97/87
f 340/99/88 84/100/32 339/101/89
f 339/101/89 83/102/39 338/94/85
f 75/85/21 329/87/81 330/86/80
f 343/103/90 87/104/52 342/105/91
f 81/106/44 335/107/92 336/108/93
f 337/96/86 81/106/44 336/108/93
f 341/109/94 87/104/52 86/110/22
f 86/110/22 340/99/88 341/109/94
f 348/111/95 92/112/56 347/113/96
f 347/113/96 91/114/58 346/115/97
f 345/116/98 89/117/61 344/118/99
f 350/119/100 96/120/101 95/121/47
f 89/117/61 343/103/90 344/118/99
f 66/77/14 351/122/102 352/78/75
f 349/123/103 95/121/47 94/124/49
f 94/124/49 348/111/95 349/123/103
f 323/125/104 67/126/10 322/127/105
f 158/128/106 348/111/95 157/129/107
f 346/115/97 90/130/59 345/116/98
f 324/81/77 68/131/5 323/125/104
f 183/132/108 120/133/109 119/134/110
f 118/135/111 518/136/112 517/137/113
f 73/138/28 296/139/114 72/17/17
f 205/140/115 268/141/116 269/142/115
f 103/143/117 521/55/55 530/144/118
f 114/145/119 532/146/120 543/147/121
f 213/148/122 278/149/123 214/150/123
f 541/151/124 127/152/125 516/153/126
f 111/154/127 531/155/128 542/156/129
f 525/157/130 101/158/131 519/159/132
f 539/160/133 112/161/134 113/162/135
f 543/147/121 113/162/135 114/145/119
f 117/163/136 517/137/113 536/164/137
f 538/165/138 99/166/139 527/167/140
f 110/168/141 542/156/129 522/169/142
f 115/170/143 535/171/144 532/146/120
f 526/172/145 98/173/146 515/174/147
f 544/175/148 126/176/149 541/151/124
f 529/177/150 125/178/151 544/175/148
f 516/153/126 128/179/152 526/172/145
f 106/180/153 514/181/154 524/182/155
f 161/183/156 227/184/157 163/185/158
f 176/186/159 239/187/160 240/188/161
f 519/159/132 102/189/162 533/190/163
f 527/167/140 100/191/164 525/157/130
f 119/134/165 513/192/166 518/136/112
f 116/193/167 536/164/137 535/171/144
f 15/194/168 47/195/169 63/196/170
f 533/190/163 103/143/117 530/144/118
f 216/197/171 281/198/172 217/199/173
f 200/200/174 265/201/175 201/202/175
f 520/203/176 123/204/177 523/205/178
f 356/206/179 131/207/180 355/208/181
f 363/209/182 138/210/183 362/211/184
f 366/212/185 141/213/186 365/214/187
f 149/215/188 372/216/189 373/217/190
f 361/218/191 138/210/183 137/219/192
f 135/220/193 358/221/194 359/222/195
f 359/222/195 136/223/196 135/220/193
f 369/224/197 146/225/198 145/226/199
f 369/224/197 144/227/200 368/228/201
f 371/229/202 146/225/198 370/230/203
f 159/231/204 382/232/205 383/233/206
f 364/234/207 141/213/186 140/235/208
f 358/221/194 133/236/209 357/237/210
f 364/234/207 139/238/211 363/209/182
f 367/239/212 144/227/200 143/240/213
f 361/218/191 136/223/196 360/241/214
f 377/242/215 154/243/216 153/244/217
f 355/208/181 130/245/218 354/246/219
f 151/247/220 374/248/221 375/249/222
f 356/206/179 133/236/209 132/250/223
f 143/240/213 366/212/185 367/239/212
f 380/251/224 155/252/225 379/253/226
f 375/249/222 152/254/227 151/247/220
f 353/255/228 130/245/218 129/256/229
f 353/255/228 160/257/230 384/258/231
f 383/233/206 160/257/230 159/231/204
f 8/259/232 355/208/181 6/260/233
f 380/251/224 157/129/107 156/261/234
f 158/128/106 381/262/235 382/232/205
f 372/216/189 147/263/236 371/229/202
f 374/248/221 149/215/188 373/217/190
f 377/242/215 152/254/227 376/264/237
f 322/127/105 65/265/12 321/76/74
f 126/176/238 191/266/239 127/152/240
f 119/134/110 182/267/241 183/132/108
f 121/268/242 184/68/68 185/65/65
f 103/143/243 168/8/8 104/53/244
f 128/179/245 162/269/246 98/173/247
f 99/166/248 164/270/249 100/191/250
f 98/173/247 161/183/156 97/271/251
f 113/162/252 176/186/159 177/272/253
f 116/193/254 179/273/255 180/274/256
f 127/152/240 192/275/257 128/179/245
f 109/276/258 172/277/259 173/278/260
f 115/170/261 178/279/262 179/273/255
f 170/280/263 107/281/264 106/180/265
f 100/191/250 165/282/266 101/158/267
f 110/168/268 173/278/260 174/283/269
f 118/135/270 181/284/271 182/267/241
f 108/285/272 171/286/273 172/277/259
f 125/178/274 190/287/275 126/176/238
f 256/288/276 223/289/277 224/290/278
f 124/291/279 189/292/280 125/178/274
f 121/268/242 186/64/64 122/293/281
f 105/294/282 170/280/263 106/180/265
f 97/271/251 163/185/158 99/166/248
f 102/189/283 167/6/6 103/143/243
f 112/161/284 175/295/285 176/186/159
f 105/294/282 168/8/8 169/40/40
f 101/158/267 166/296/286 102/189/283
f 123/204/287 188/297/288 124/291/279
f 117/163/289 180/274/256 181/284/271
f 111/154/290 174/283/269 175/295/285
f 114/145/291 177/272/253 178/279/262
f 209/298/292 272/299/293 273/300/292
f 165/282/266 230/301/294 166/296/286
f 189/292/280 254/302/295 190/287/275
f 177/272/253 240/188/161 241/303/296
f 163/185/158 228/304/297 164/270/249
f 178/279/262 241/303/296 242/305/298
f 164/270/249 229/306/299 165/282/266
f 180/274/256 243/307/300 244/308/301
f 191/266/239 256/288/276 192/275/257
f 190/287/275 255/309/302 191/266/239
f 179/273/255 242/305/298 243/307/300
f 192/275/257 226/310/303 162/269/246
f 182/267/241 245/311/304 246/312/305
f 162/269/246 225/313/306 161/183/156
f 181/284/271 244/308/301 245/311/304
f 194/314/307 257/315/308 193/316/308
f 174/283/269 237/317/309 238/318/310
f 120/133/311 528/319/312 513/192/166
f 173/278/260 236/320/313 237/317/309
f 96/321/101 319/322/314 95/47/47
f 187/323/315 252/324/316 188/297/288
f 87/52/52 310/325/317 86/22/22
f 171/286/273 234/326/318 235/327/319
f 186/64/64 251/328/320 187/323/315
f 528/319/312 122/293/321 520/203/176
f 166/296/286 231/329/322 167/6/6
f 66/14/14 320/330/323 96/321/101
f 109/276/324 522/169/142 540/331/325
f 215/332/326 278/149/123 279/333/326
f 175/295/285 238/318/310 239/187/160
f 208/334/293 271/335/327 272/299/293
f 515/174/147 97/271/328 538/165/138
f 220/336/329 253/337/330 252/324/316
f 251/328/320 218/338/331 219/339/332
f 195/340/333 225/313/306 193/341/334
f 204/342/335 235/327/319 203/343/336
f 193/341/334 226/310/303 194/344/337
f 223/289/277 254/302/295 222/345/338
f 215/346/339 248/70/70 247/69/69
f 215/346/339 246/312/305 214/347/340
f 241/303/296 208/348/341 209/349/342
f 214/347/340 245/311/304 213/350/343
f 198/351/344 229/306/299 197/352/345
f 210/353/346 241/303/296 209/349/342
f 222/345/338 253/337/330 221/354/347
f 244/308/301 211/355/348 212/356/349
f 211/355/348 242/305/298 210/353/346
f 212/356/349 245/311/304 244/308/301
f 233/357/350 200/358/351 201/359/352
f 232/7/7 199/360/353 200/358/351
f 217/361/354 250/362/355 249/63/63
f 206/363/356 237/317/309 205/364/357
f 196/365/358 229/306/299 228/304/297
f 252/324/316 219/339/332 220/336/329
f 199/360/353 230/301/294 198/351/344
f 196/365/358 227/184/157 195/340/333
f 217/361/354 248/70/70 216/366/359
f 203/343/336 234/326/318 202/367/360
f 202/367/360 233/357/350 201/359/352
f 237/317/309 204/342/335 205/364/357
f 226/310/303 224/290/278 194/344/337
f 207/368/361 238/318/310 206/363/356
f 240/188/161 207/368/361 208/348/341
f 387/369/362 24/370/363 22/371/364
f 233/357/350 170/280/263 169/40/40
f 286/372/365 223/373/366 222/374/365
f 193/316/308 259/375/367 195/376/367
f 188/297/288 253/337/330 189/292/280
f 284/377/368 221/378/369 220/379/368
f 223/373/366 288/380/370 224/381/370
f 221/378/369 286/372/365 222/374/365
f 523/205/178 124/291/371 529/177/150
f 211/382/372 274/383/373 275/384/372
f 262/385/374 199/386/375 198/387/374
f 210/388/373 273/300/292 274/383/373
f 224/381/370 258/389/307 194/314/307
f 219/390/376 284/377/368 220/379/368
f 183/132/108 246/312/305 247/69/69
f 207/391/327 270/392/377 271/335/327
f 197/393/378 262/385/374 198/387/374
f 108/285/379 540/331/325 537/394/380
f 196/395/381 261/396/378 197/393/378
f 213/148/122 276/397/382 277/398/122
f 202/399/383 265/201/175 266/400/383
f 199/386/375 264/401/174 200/200/174
f 211/382/372 276/397/382 212/402/382
f 275/384/384 259/375/384 279/333/384
f 105/294/385 524/182/155 534/54/54
f 195/376/367 260/403/381 196/395/381
f 203/404/386 266/400/383 267/405/386
f 172/277/259 235/327/319 236/320/313
f 206/406/377 269/142/115 270/392/377
f 203/404/386 268/141/116 204/407/116
f 107/281/387 537/394/380 514/181/154
f 218/408/388 283/409/376 219/390/376
f 281/198/172 218/408/388 217/199/173
f 33/410/389 306/411/41 35/412/390
f 37/413/391 306/411/41 307/414/38
f 21/415/392 300/416/30 23/417/393
f 39/418/394 309/419/23 41/420/395
f 27/421/396 301/422/46 302/423/34
f 29/424/397 302/423/34 303/425/37
f 45/426/398 312/427/71 47/195/169
f 33/410/389 304/428/45 305/429/43
f 49/430/399 314/431/62 51/432/400
f 53/433/401 314/431/62 315/434/57
f 37/413/391 308/435/31 39/418/394
f 55/436/402 317/437/72 57/438/403
f 43/439/404 309/419/23 310/440/317
f 5/441/405 292/442/4 7/443/406
f 13/444/407 296/445/114 15/194/168
f 49/430/399 312/427/71 313/446/60
f 17/447/408 298/448/25 19/449/409
f 21/415/392 298/448/25 299/450/20
f 53/433/401 316/451/67 55/436/402
f 23/417/393 301/422/46 25/452/410
f 59/453/411 317/437/72 318/454/48
f 13/444/407 294/455/16 295/456/18
f 379/253/226 154/243/216 378/457/412
f 11/458/413 293/459/2 294/455/16
f 7/443/406 293/459/2 9/460/414
f 61/461/415 320/462/323 63/196/170
f 1/463/416 320/462/323 289/464/13
f 5/441/405 290/465/11 291/466/9
f 1/463/416 290/465/11 3/467/417
f 45/426/398 310/440/317 311/468/51
f 29/424/397 304/428/45 31/469/418
f 17/447/408 296/445/114 297/470/27
f 153/244/217 343/103/90 152/254/227
f 135/220/193 327/93/84 326/73/73
f 342/105/91 150/471/419 151/247/220
f 148/472/420 340/99/88 339/101/89
f 341/109/94 149/215/188 150/471/419
f 339/101/89 147/263/236 148/472/420
f 147/263/236 337/96/86 146/225/198
f 145/226/199 337/96/86 336/108/93
f 145/226/199 335/107/92 144/227/200
f 159/231/204 351/122/102 350/119/100
f 326/73/73 134/473/421 135/220/193
f 325/79/76 133/236/209 134/473/421
f 142/474/422 332/82/78 141/213/186
f 331/84/79 139/238/211 140/235/208
f 61/461/415 318/454/48 319/475/314
f 129/256/229 321/76/74 352/78/75
f 137/219/192 327/93/84 136/223/196
f 131/207/180 321/76/74 130/245/218
f 132/250/223 322/127/105 131/207/180
f 132/250/223 324/81/77 323/125/104
f 157/129/107 347/113/96 156/261/234
f 141/213/186 331/84/79 140/235/208
f 155/252/225 345/116/98 154/243/216
f 143/240/213 335/107/92 334/90/83
f 347/113/96 155/252/225 156/261/234
f 153/244/217 345/116/98 344/118/99
f 129/256/229 351/122/102 160/257/230
f 334/90/83 142/474/422 143/240/213
f 350/119/100 158/128/106 159/231/204
f 151/247/220 343/103/90 342/105/91
f 139/238/211 329/87/81 138/210/183
f 137/219/192 329/87/81 328/89/82
f 50/476/423 376/264/237 48/477/424
f 28/478/425 365/214/187 26/479/426
f 28/478/425 367/239/212 366/212/185
f 34/480/427 368/228/201 32/481/428
f 42/482/429 372/216/189 40/483/430
f 44/484/431 373/217/190 42/482/429
f 62/485/432 382/232/205 60/486/433
f 34/480/427 370/230/203 369/224/197
f 46/487/434 376/264/237 375/249/222
f 2/488/435 354/246/219 353/255/228
f 18/489/436 360/241/214 16/490/437
f 122/293/281 187/323/315 123/204/287
f 30/491/438 368/228/201 367/239/212
f 382/232/205 58/492/439 60/486/433
f 379/253/226 52/493/440 54/494/441
f 22/371/364 362/211/184 20/495/442
f 2/488/435 384/258/231 64/496/443
f 56/497/444 379/253/226 54/494/441
f 56/497/444 381/262/235 380/251/224
f 8/259/232 357/237/210 356/206/179
f 358/221/194 10/498/445 12/499/446
f 50/476/423 378/457/412 377/242/215
f 26/479/426 364/234/207 24/370/363
f 18/489/436 362/211/184 361/218/191
f 364/234/207 22/371/364 24/370/363
f 16/490/437 359/222/195 14/500/447
f 12/499/446 359/222/195 358/221/194
f 64/496/443 383/233/206 62/485/432
f 6/260/233 354/246/219 4/501/448
f 46/487/434 374/248/221 44/484/431
f 371/229/202 36/502/449 38/503/450
f 372/216/189 38/503/450 40/483/430
f 63/196/170 1/463/416 3/467/417
f 3/467/417 5/441/405 7/443/406
f 7/443/406 9/460/414 15/194/168
f 9/460/414 11/458/413 15/194/168
f 11/458/413 13/444/407 15/194/168
f 15/194/168 17/447/408 19/449/409
f 19/449/409 21/415/392 23/417/393
f 23/417/393 25/452/410 31/469/418
f 25/452/410 27/421/396 31/469/418
f 27/421/396 29/424/397 31/469/418
f 31/469/418 33/410/389 35/412/390
f 35/412/390 37/413/391 39/418/394
f 39/418/394 41/420/395 47/195/169
f 41/420/395 43/439/404 47/195/169
f 43/439/404 45/426/398 47/195/169
f 47/195/169 49/430/399 51/432/400
f 51/432/400 53/433/401 55/436/402
f 55/436/402 57/438/403 63/196/170
f 57/438/403 59/453/411 63/196/170
f 59/453/411 61/461/415 63/196/170
f 63/196/170 3/467/417 15/194/168
f 3/467/417 7/443/406 15/194/168
f 15/194/168 19/449/409 31/469/418
f 19/449/409 23/417/393 31/469/418
f 31/469/418 35/412/390 47/195/169
f 35/412/390 39/418/394 47/195/169
f 47/195/169 51/432/400 63/196/170
f 51/432/400 55/436/402 63/196/170
f 482/504/451 438/505/452 421/506/453
f 391/507/454 488/508/455 393/509/456
f 501/510/457 414/511/458 412/512/459
f 406/513/460 510/514/461 395/515/462
f 503/516/463 409/517/464 407/518/465
f 396/519/466 491/520/467 399/521/468
f 397/522/469 484/523/470 400/524/471
f 514/181/154 461/525/472 450/526/473
f 493/527/474 385/528/475 415/529/476
f 482/504/451 407/518/465 404/530/477
f 400/524/471 504/531/478 403/532/479
f 386/533/480 494/534/481 389/535/482
f 405/536/483 497/537/484 408/538/485
f 389/535/482 505/539/486 391/507/454
f 500/540/487 394/541/488 392/542/489
f 498/543/490 390/544/491 388/545/492
f 492/546/493 411/547/494 409/517/464
f 402/548/495 483/549/496 405/536/483
f 408/538/485 508/550/497 410/551/498
f 487/552/499 415/529/476 413/553/500
f 489/554/501 392/542/489 390/544/491
f 509/555/502 387/369/362 416/556/503
f 401/557/504 485/558/505 499/559/506
f 399/521/468 490/560/507 402/548/495
f 393/509/456 481/561/508 397/522/469
f 486/562/509 413/553/500 411/547/494
f 404/530/477 499/559/506 482/504/451
f 511/563/510 386/533/480 385/528/475
f 410/551/498 501/510/457 412/512/459
f 395/515/462 506/564/511 396/519/466
f 495/565/512 398/566/513 394/541/488
f 403/532/479 502/567/514 406/513/460
f 496/568/515 416/556/503 414/511/458
f 501/510/457 435/569/516 496/568/515
f 491/520/467 429/570/517 490/560/507
f 484/523/470 443/571/518 504/531/478
f 437/572/519 489/554/501 498/543/490
f 497/537/484 447/573/520 508/550/497
f 504/531/478 441/574/521 502/567/514
f 483/549/496 436/575/522 497/537/484
f 448/576/523 512/577/524 509/555/502
f 426/578/525 493/527/474 487/552/499
f 446/579/526 494/534/481 507/580/527
f 502/567/514 419/581/528 510/514/461
f 428/582/529 500/540/487 489/554/501
f 510/514/461 445/583/530 506/564/511
f 442/584/531 492/546/493 503/516/463
f 494/534/481 444/585/532 505/539/486
f 508/550/497 440/586/533 501/510/457
f 506/564/511 430/587/534 491/520/467
f 488/508/455 420/588/535 481/561/508
f 435/569/516 509/555/502 496/568/515
f 421/506/453 503/516/463 482/504/451
f 490/560/507 422/589/536 483/549/496
f 432/590/537 511/563/510 493/527/474
f 431/591/538 486/562/509 492/546/493
f 425/592/539 487/552/499 486/562/509
f 505/539/486 427/593/540 488/508/455
f 434/594/541 485/558/505 495/565/512
f 439/595/542 495/565/512 500/540/487
f 499/559/506 424/596/543 438/505/452
f 481/561/508 423/597/544 484/523/470
f 450/526/473 437/572/519 418/598/545
f 417/599/546 507/580/527 511/563/510
f 10/498/445 408/538/485 12/499/446
f 392/542/489 30/491/438 28/478/425
f 4/501/448 399/521/468 6/260/233
f 56/497/444 397/522/469 58/492/439
f 416/556/503 22/371/364 20/495/442
f 60/486/433 403/532/479 62/485/432
f 14/500/447 412/512/459 16/490/437
f 12/499/446 410/551/498 14/500/447
f 50/476/423 389/535/482 52/493/440
f 64/496/443 395/515/462 2/488/435
f 62/485/432 406/513/460 64/496/443
f 415/529/476 48/477/424 46/487/434
f 54/494/441 393/509/456 56/497/444
f 8/259/232 405/536/483 10/498/445
f 16/490/437 414/511/458 18/489/436
f 390/544/491 28/478/425 26/479/426
f 409/517/464 42/482/429 40/483/430
f 413/553/500 46/487/434 44/484/431
f 34/480/427 398/566/513 401/557/504
f 2/488/435 396/519/466 4/501/448
f 58/492/439 400/524/471 60/486/433
f 52/493/440 391/507/454 54/494/441
f 404/530/477 38/503/450 36/502/449
f 411/547/494 44/484/431 42/482/429
f 36/502/449 401/557/504 404/530/477
f 407/518/465 40/483/430 38/503/450
f 385/528/475 50/476/423 48/477/424
f 6/260/233 402/548/495 8/259/232
f 388/545/492 26/479/426 24/370/363
f 394/541/488 32/481/428 30/491/438
f 418/598/545 498/543/490 512/577/524
f 414/511/458 20/495/442 18/489/436
f 259/375/384 257/315/384 287/600/384
f 257/315/384 258/389/384 287/600/384
f 258/389/384 288/380/384 287/600/384
f 287/600/384 286/372/384 285/601/384
f 285/601/384 284/377/384 283/409/384
f 283/409/384 282/602/547 281/198/384
f 281/198/384 280/603/384 283/409/384
f 280/603/384 279/333/384 283/409/384
f 279/333/384 278/149/384 277/398/384
f 277/398/384 276/397/384 275/384/384
f 275/384/384 274/383/384 273/300/384
f 273/300/384 272/299/384 275/384/384
f 272/299/384 271/335/384 275/384/384
f 271/335/384 270/392/384 269/142/384
f 269/142/384 268/141/384 267/405/384
f 267/405/384 266/400/548 265/201/384
f 265/201/384 264/401/384 263/604/384
f 263/604/384 262/385/384 261/396/384
f 261/396/384 260/403/384 259/375/384
f 287/600/384 285/601/384 283/409/384
f 279/333/384 277/398/384 275/384/384
f 271/335/384 269/142/384 267/405/384
f 267/405/384 265/201/384 263/604/384
f 263/604/384 261/396/384 259/375/384
f 259/375/384 287/600/384 283/409/384
f 283/409/384 279/333/384 259/375/384
f 275/384/384 271/335/384 267/405/384
f 267/405/384 263/604/384 275/384/384
f 470/605/549 544/175/148 472/606/550
f 468/607/551 523/205/178 462/608/552
f 543/147/121 474/609/553 452/610/554
f 467/611/555 525/157/130 475/612/556
f 522/169/142 480/613/557 471/614/558
f 517/137/113 476/615/559 456/616/560
f 537/394/380 457/617/561 461/525/472
f 452/610/554 539/160/133 543/147/121
f 524/182/155 450/526/473 454/618/562
f 528/319/312 468/607/551 477/619/563
f 465/620/564 516/153/126 464/621/565
f 535/171/144 469/622/566 479/623/567
f 532/146/120 479/623/567 474/609/553
f 463/624/568 521/55/55 478/625/569
f 462/608/552 529/177/150 470/605/549
f 536/164/137 456/616/560 469/622/566
f 464/621/565 526/172/145 458/626/570
f 449/627/571 528/319/312 477/619/563
f 542/156/129 455/628/572 480/613/557
f 518/136/112 449/627/571 476/615/559
f 458/626/570 515/174/147 451/629/573
f 478/625/569 534/54/54 466/630/574
f 534/54/54 454/618/562 466/630/574
f 453/631/575 527/167/140 467/611/555
f 460/632/576 533/190/163 459/633/577
f 540/331/325 471/614/558 457/617/561
f 475/612/556 519/159/132 460/632/576
f 459/633/577 530/144/118 463/624/568
f 472/606/550 541/151/124 465/620/564
f 451/629/573 538/165/138 453/631/575
f 473/634/578 531/155/128 539/160/133
f 457/617/561 439/595/542 428/582/529
f 447/573/520 478/625/569 440/586/533
f 512/577/524 388/545/492 387/369/362
f 468/607/551 444/585/532 433/635/579
f 479/623/567 425/592/539 431/591/538
f 430/587/534 475/612/556 429/570/517
f 429/570/517 460/632/576 422/589/536
f 471/614/558 434/594/541 439/595/542
f 444/585/532 470/605/549 427/593/540
f 477/619/563 433/635/579 446/579/526
f 445/583/530 467/611/555 430/587/534
f 466/630/574 448/576/523 435/569/516
f 452/610/554 442/584/531 421/506/453
f 440/586/533 466/630/574 435/569/516
f 423/597/544 464/621/565 443/571/518
f 417/599/546 477/619/563 446/579/526
f 474/609/553 431/591/538 442/584/531
f 454/618/562 418/598/545 448/576/523
f 420/588/535 465/620/564 423/597/544
f 459/633/577 447/573/520 436/575/522
f 476/615/559 417/599/546 432/590/537
f 421/506/453 473/634/578 452/610/554
f 461/525/472 428/582/529 437/572/519
f 419/581/528 453/631/575 445/583/530
f 469/622/566 426/578/525 425/592/539
f 480/613/557 424/596/543 434/594/541
f 422/589/536 459/633/577 436/575/522
f 427/593/540 472/606/550 420/588/535
f 456/616/560 432/590/537 426/578/525
f 438/505/452 455/628/572 473/634/578
f 443/571/518 458/626/570 441/574/521
f 441/574/521 451/629/573 419/581/528
f 216/197/171 279/333/326 280/603/171
f 70/1/1 294/16/16 293/2/2
f 69/3/3 293/2/2 292/4/4
f 167/6/6 231/329/322 232/7/7
f 68/5/5 292/4/4 291/9/9
f 67/10/10 291/9/9 290/11/11
f 65/12/12 290/11/11 289/13/13
f 71/15/15 295/18/18 294/16/16
f 72/17/17 296/139/114 295/18/18
f 76/19/19 300/30/30 299/20/20
f 86/22/22 310/325/317 309/23/23
f 75/21/21 299/20/20 298/25/25
f 74/26/26 298/25/25 297/27/27
f 77/29/29 301/46/46 300/30/30
f 85/24/24 309/23/23 308/31/31
f 79/33/33 303/37/37 302/34/34
f 80/36/36 304/45/45 303/37/37
f 84/32/32 308/31/31 307/38/38
f 232/7/7 233/357/350 169/40/40
f 83/39/39 307/38/38 306/41/41
f 82/42/42 306/41/41 305/43/43
f 81/44/44 305/43/43 304/45/45
f 78/35/35 302/34/34 301/46/46
f 95/47/47 319/322/314 318/48/48
f 88/50/50 312/71/71 311/51/51
f 104/53/53 105/294/385 534/54/54
f 92/56/56 316/67/67 315/57/57
f 90/59/59 314/62/62 313/60/60
f 91/58/58 315/57/57 314/62/62
f 249/63/63 250/362/355 186/64/64
f 93/66/66 317/72/72 316/67/67
f 184/68/68 183/132/108 247/69/69
f 89/61/61 313/60/60 312/71/71
f 248/70/70 249/63/63 185/65/65
f 94/49/49 318/48/48 317/72/72
f 326/73/73 327/93/84 72/74/17
f 321/76/74 65/265/12 66/77/14
f 325/79/76 326/73/73 71/75/15
f 70/80/1 69/636/3 324/81/77
f 332/82/78 77/637/29 76/83/19
f 331/84/79 76/83/19 75/85/21
f 329/87/81 74/638/26 73/88/28
f 334/90/83 335/107/92 80/91/36
f 73/88/28 72/74/17 327/93/84
f 338/94/85 83/102/39 82/95/42
f 333/97/87 334/90/83 79/92/33
f 78/98/35 77/637/29 332/82/78
f 340/99/88 85/639/24 84/100/32
f 339/101/89 84/100/32 83/102/39
f 75/85/21 74/638/26 329/87/81
f 343/103/90 88/640/50 87/104/52
f 81/106/44 80/91/36 335/107/92
f 337/96/86 82/95/42 81/106/44
f 341/109/94 342/105/91 87/104/52
f 86/110/22 85/639/24 340/99/88
f 348/111/95 93/641/66 92/112/56
f 347/113/96 92/112/56 91/114/58
f 345/116/98 90/130/59 89/117/61
f 350/119/100 351/122/102 96/120/101
f 89/117/61 88/640/50 343/103/90
f 66/77/14 96/120/101 351/122/102
f 349/123/103 350/119/100 95/121/47
f 94/124/49 93/641/66 348/111/95
f 323/125/104 68/131/5 67/126/10
f 158/128/106 349/123/103 348/111/95
f 346/115/97 91/114/58 90/130/59
f 324/81/77 69/636/3 68/131/5
f 183/132/108 184/68/68 120/133/109
f 118/135/111 119/134/165 518/136/112
f 73/138/28 297/642/27 296/139/114
f 205/140/115 204/407/116 268/141/116
f 103/143/117 104/53/53 521/55/55
f 114/145/119 115/170/143 532/146/120
f 213/148/122 277/398/122 278/149/123
f 541/151/124 126/176/149 127/152/125
f 111/154/127 112/161/134 531/155/128
f 525/157/130 100/191/164 101/158/131
f 539/160/133 531/155/128 112/161/134
f 543/147/121 539/160/133 113/162/135
f 117/163/136 118/135/111 517/137/113
f 538/165/138 97/271/328 99/166/139
f 110/168/141 111/154/127 542/156/129
f 115/170/143 116/193/167 535/171/144
f 526/172/145 128/179/152 98/173/146
f 544/175/148 125/178/151 126/176/149
f 529/177/150 124/291/371 125/178/151
f 516/153/126 127/152/125 128/179/152
f 106/180/153 107/281/387 514/181/154
f 161/183/156 225/313/306 227/184/157
f 176/186/159 175/295/285 239/187/160
f 519/159/132 101/158/131 102/189/162
f 527/167/140 99/166/139 100/191/164
f 119/134/165 120/133/311 513/192/166
f 116/193/167 117/163/136 536/164/137
f 15/194/168 31/469/418 47/195/169
f 533/190/163 102/189/162 103/143/117
f 216/197/171 280/603/171 281/198/172
f 200/200/174 264/401/174 265/201/175
f 520/203/176 122/293/321 123/204/177
f 356/206/179 132/250/223 131/207/180
f 363/209/182 139/238/211 138/210/183
f 366/212/185 142/474/422 141/213/186
f 149/215/188 148/472/420 372/216/189
f 361/218/191 362/211/184 138/210/183
f 135/220/193 134/473/421 358/221/194
f 359/222/195 360/241/214 136/223/196
f 369/224/197 370/230/203 146/225/198
f 369/224/197 145/226/199 144/227/200
f 371/229/202 147/263/236 146/225/198
f 159/231/204 158/128/106 382/232/205
f 364/234/207 365/214/187 141/213/186
f 358/221/194 134/473/421 133/236/209
f 364/234/207 140/235/208 139/238/211
f 367/239/212 368/228/201 144/227/200
f 361/218/191 137/219/192 136/223/196
f 377/242/215 378/457/412 154/243/216
f 355/208/181 131/207/180 130/245/218
f 151/247/220 150/471/419 374/248/221
f 356/206/179 357/237/210 133/236/209
f 143/240/213 142/474/422 366/212/185
f 380/251/224 156/261/234 155/252/225
f 375/249/222 376/264/237 152/254/227
f 353/255/228 354/246/219 130/245/218
f 353/255/228 129/256/229 160/257/230
f 383/233/206 384/258/231 160/257/230
f 8/259/232 356/206/179 355/208/181
f 380/251/224 381/262/235 157/129/107
f 158/128/106 157/129/107 381/262/235
f 372/216/189 148/472/420 147/263/236
f 374/248/221 150/471/419 149/215/188
f 377/242/215 153/244/217 152/254/227
f 322/127/105 67/126/10 65/265/12
f 126/176/238 190/287/275 191/266/239
f 119/134/110 118/135/270 182/267/241
f 121/268/242 120/133/109 184/68/68
f 103/143/243 167/6/6 168/8/8
f 128/179/245 192/275/257 162/269/246
f 99/166/248 163/185/158 164/270/249
f 98/173/247 162/269/246 161/183/156
f 113/162/252 112/161/284 176/186/159
f 116/193/254 115/170/261 179/273/255
f 127/152/240 191/266/239 192/275/257
f 109/276/258 108/285/272 172/277/259
f 115/170/261 114/145/291 178/279/262
f 170/280/263 171/286/273 107/281/264
f 100/191/250 164/270/249 165/282/266
f 110/168/268 109/276/258 173/278/260
f 118/135/270 117/163/289 181/284/271
f 108/285/272 107/281/264 171/286/273
f 125/178/274 189/292/280 190/287/275
f 256/288/276 255/309/302 223/289/277
f 124/291/279 188/297/288 189/292/280
f 121/268/242 185/65/65 186/64/64
f 105/294/282 169/40/40 170/280/263
f 97/271/251 161/183/156 163/185/158
f 102/189/283 166/296/286 167/6/6
f 112/161/284 111/154/290 175/295/285
f 105/294/282 104/53/244 168/8/8
f 101/158/267 165/282/266 166/296/286
f 123/204/287 187/323/315 188/297/288
f 117/163/289 116/193/254 180/274/256
f 111/154/290 110/168/268 174/283/269
f 114/145/291 113/162/252 177/272/253
f 209/298/292 208/334/293 272/299/293
f 165/282/266 229/306/299 230/301/294
f 189/292/280 253/337/330 254/302/295
f 177/272/253 176/186/159 240/188/161
f 163/185/158 227/184/157 228/304/297
f 178/279/262 177/272/253 241/303/296
f 164/270/249 228/304/297 229/306/299
f 180/274/256 179/273/255 243/307/300
f 191/266/239 255/309/302 256/288/276
f 190/287/275 254/302/295 255/309/302
f 179/273/255 178/279/262 242/305/298
f 192/275/257 256/288/276 226/310/303
f 182/267/241 181/284/271 245/311/304
f 162/269/246 226/310/303 225/313/306
f 181/284/271 180/274/256 244/308/301
f 194/314/307 258/389/307 257/315/308
f 174/283/269 173/278/260 237/317/309
f 120/133/311 121/268/580 528/319/312
f 173/278/260 172/277/259 236/320/313
f 96/321/101 320/330/323 319/322/314
f 187/323/315 251/328/320 252/324/316
f 87/52/52 311/51/51 310/325/317
f 171/286/273 170/280/263 234/326/318
f 186/64/64 250/362/355 251/328/320
f 528/319/312 121/268/580 122/293/321
f 166/296/286 230/301/294 231/329/322
f 66/14/14 289/13/13 320/330/323
f 109/276/324 110/168/141 522/169/142
f 215/332/326 214/150/123 278/149/123
f 175/295/285 174/283/269 238/318/310
f 208/334/293 207/391/327 271/335/327
f 515/174/147 98/173/146 97/271/328
f 220/336/329 221/354/347 253/337/330
f 251/328/320 250/362/355 218/338/331
f 195/340/333 227/184/157 225/313/306
f 204/342/335 236/320/313 235/327/319
f 193/341/334 225/313/306 226/310/303
f 223/289/277 255/309/302 254/302/295
f 215/346/339 216/366/359 248/70/70
f 215/346/339 247/69/69 246/312/305
f 241/303/296 240/188/161 208/348/341
f 214/347/340 246/312/305 245/311/304
f 198/351/344 230/301/294 229/306/299
f 210/353/346 242/305/298 241/303/296
f 222/345/338 254/302/295 253/337/330
f 244/308/301 243/307/300 211/355/348
f 211/355/348 243/307/300 242/305/298
f 212/356/349 213/350/343 245/311/304
f 233/357/350 232/7/7 200/358/351
f 232/7/7 231/329/322 199/360/353
f 217/361/354 218/338/331 250/362/355
f 206/363/356 238/318/310 237/317/309
f 196/365/358 197/352/345 229/306/299
f 252/324/316 251/328/320 219/339/332
f 199/360/353 231/329/322 230/301/294
f 196/365/358 228/304/297 227/184/157
f 217/361/354 249/63/63 248/70/70
f 203/343/336 235/327/319 234/326/318
f 202/367/360 234/326/318 233/357/350
f 237/317/309 236/320/313 204/342/335
f 226/310/303 256/288/276 224/290/278
f 207/368/361 239/187/160 238/318/310
f 240/188/161 239/187/160 207/368/361
f 387/369/362 388/545/492 24/370/363
f 233/357/350 234/326/318 170/280/263
f 286/372/365 287/600/366 223/373/366
f 193/316/308 257/315/308 259/375/367
f 188/297/288 252/324/316 253/337/330
f 284/377/368 285/601/369 221/378/369
f 223/373/366 287/600/366 288/380/370
f 221/378/369 285/601/369 286/372/365
f 523/205/178 123/204/177 124/291/371
f 211/382/372 210/388/373 274/383/373
f 262/385/374 263/604/375 199/386/375
f 210/388/373 209/298/292 273/300/292
f 224/381/370 288/380/370 258/389/307
f 219/390/376 283/409/376 284/377/368
f 183/132/108 182/267/241 246/312/305
f 207/391/327 206/406/377 270/392/377
f 197/393/378 261/396/378 262/385/374
f 108/285/379 109/276/324 540/331/325
f 196/395/381 260/403/381 261/396/378
f 213/148/122 212/402/382 276/397/382
f 202/399/383 201/202/175 265/201/175
f 199/386/375 263/604/375 264/401/174
f 211/382/372 275/384/372 276/397/382
f 275/384/384 263/604/384 259/375/384
f 105/294/385 106/180/153 524/182/155
f 195/376/367 259/375/367 260/403/381
f 203/404/386 202/399/383 266/400/383
f 172/277/259 171/286/273 235/327/319
f 206/406/377 205/140/115 269/142/115
f 203/404/386 267/405/386 268/141/116
f 107/281/387 108/285/379 537/394/380
f 218/408/388 282/602/388 283/409/376
f 281/198/172 282/602/388 218/408/388
f 33/410/389 305/429/43 306/411/41
f 37/413/391 35/412/390 306/411/41
f 21/415/392 299/450/20 300/416/30
f 39/418/394 308/435/31 309/419/23
f 27/421/396 25/452/410 301/422/46
f 29/424/397 27/421/396 302/423/34
f 45/426/398 311/468/51 312/427/71
f 33/410/389 31/469/418 304/428/45
f 49/430/399 313/446/60 314/431/62
f 53/433/401 51/432/400 314/431/62
f 37/413/391 307/414/38 308/435/31
f 55/436/402 316/451/67 317/437/72
f 43/439/404 41/420/395 309/419/23
f 5/441/405 291/466/9 292/442/4
f 13/444/407 295/456/18 296/445/114
f 49/430/399 47/195/169 312/427/71
f 17/447/408 297/470/27 298/448/25
f 21/415/392 19/449/409 298/448/25
f 53/433/401 315/434/57 316/451/67
f 23/417/393 300/416/30 301/422/46
f 59/453/411 57/438/403 317/437/72
f 13/444/407 11/458/413 294/455/16
f 379/253/226 155/252/225 154/243/216
f 11/458/413 9/460/414 293/459/2
f 7/443/406 292/442/4 293/459/2
f 61/461/415 319/475/314 320/462/323
f 1/463/416 63/196/170 320/462/323
f 5/441/405 3/467/417 290/465/11
f 1/463/416 289/464/13 290/465/11
f 45/426/398 43/439/404 310/440/317
f 29/424/397 303/425/37 304/428/45
f 17/447/408 15/194/168 296/445/114
f 153/244/217 344/118/99 343/103/90
f 135/220/193 136/223/196 327/93/84
f 342/105/91 341/109/94 150/471/419
f 148/472/420 149/215/188 340/99/88
f 341/109/94 340/99/88 149/215/188
f 339/101/89 338/94/85 147/263/236
f 147/263/236 338/94/85 337/96/86
f 145/226/199 146/225/198 337/96/86
f 145/226/199 336/108/93 335/107/92
f 159/231/204 160/257/230 351/122/102
f 326/73/73 325/79/76 134/473/421
f 325/79/76 324/81/77 133/236/209
f 142/474/422 333/97/87 332/82/78
f 331/84/79 330/86/80 139/238/211
f 61/461/415 59/453/411 318/454/48
f 129/256/229 130/245/218 321/76/74
f 137/219/192 328/89/82 327/93/84
f 131/207/180 322/127/105 321/76/74
f 132/250/223 323/125/104 322/127/105
f 132/250/223 133/236/209 324/81/77
f 157/129/107 348/111/95 347/113/96
f 141/213/186 332/82/78 331/84/79
f 155/252/225 346/115/97 345/116/98
f 143/240/213 144/227/200 335/107/92
f 347/113/96 346/115/97 155/252/225
f 153/244/217 154/243/216 345/116/98
f 129/256/229 352/78/75 351/122/102
f 334/90/83 333/97/87 142/474/422
f 350/119/100 349/123/103 158/128/106
f 151/247/220 152/254/227 343/103/90
f 139/238/211 330/86/80 329/87/81
f 137/219/192 138/210/183 329/87/81
f 50/476/423 377/242/215 376/264/237
f 28/478/425 366/212/185 365/214/187
f 28/478/425 30/491/438 367/239/212
f 34/480/427 369/224/197 368/228/201
f 42/482/429 373/217/190 372/216/189
f 44/484/431 374/248/221 373/217/190
f 62/485/432 383/233/206 382/232/205
f 34/480/427 36/502/449 370/230/203
f 46/487/434 48/477/424 376/264/237
f 2/488/435 4/501/448 354/246/219
f 18/489/436 361/218/191 360/241/214
f 122/293/281 186/64/64 187/323/315
f 30/491/438 32/481/428 368/228/201
f 382/232/205 381/262/235 58/492/439
f 379/253/226 378/457/412 52/493/440
f 22/371/364 363/209/182 362/211/184
f 2/488/435 353/255/228 384/258/231
f 56/497/444 380/251/224 379/253/226
f 56/497/444 58/492/439 381/262/235
f 8/259/232 10/498/445 357/237/210
f 358/221/194 357/237/210 10/498/445
f 50/476/423 52/493/440 378/457/412
f 26/479/426 365/214/187 364/234/207
f 18/489/436 20/495/442 362/211/184
f 364/234/207 363/209/182 22/371/364
f 16/490/437 360/241/214 359/222/195
f 12/499/446 14/500/447 359/222/195
f 64/496/443 384/258/231 383/233/206
f 6/260/233 355/208/181 354/246/219
f 46/487/434 375/249/222 374/248/221
f 371/229/202 370/230/203 36/502/449
f 372/216/189 371/229/202 38/503/450
f 482/504/451 499/559/506 438/505/452
f 391/507/454 505/539/486 488/508/455
f 501/510/457 496/568/515 414/511/458
f 406/513/460 502/567/514 510/514/461
f 503/516/463 492/546/493 409/517/464
f 396/519/466 506/564/511 491/520/467
f 397/522/469 481/561/508 484/523/470
f 514/181/154 537/394/380 461/525/472
f 493/527/474 511/563/510 385/528/475
f 482/504/451 503/516/463 407/518/465
f 400/524/471 484/523/470 504/531/478
f 386/533/480 507/580/527 494/534/481
f 405/536/483 483/549/496 497/537/484
f 389/535/482 494/534/481 505/539/486
f 500/540/487 495/565/512 394/541/488
f 498/543/490 489/554/501 390/544/491
f 492/546/493 486/562/509 411/547/494
f 402/548/495 490/560/507 483/549/496
f 408/538/485 497/537/484 508/550/497
f 487/552/499 493/527/474 415/529/476
f 489/554/501 500/540/487 392/542/489
f 509/555/502 512/577/524 387/369/362
f 401/557/504 398/566/513 485/558/505
f 399/521/468 491/520/467 490/560/507
f 393/509/456 488/508/455 481/561/508
f 486/562/509 487/552/499 413/553/500
f 404/530/477 401/557/504 499/559/506
f 511/563/510 507/580/527 386/533/480
f 410/551/498 508/550/497 501/510/457
f 395/515/462 510/514/461 506/564/511
f 495/565/512 485/558/505 398/566/513
f 403/532/479 504/531/478 502/567/514
f 496/568/515 509/555/502 416/556/503
f 501/510/457 440/586/533 435/569/516
f 491/520/467 430/587/534 429/570/517
f 484/523/470 423/597/544 443/571/518
f 437/572/519 428/582/529 489/554/501
f 497/537/484 436/575/522 447/573/520
f 504/531/478 443/571/518 441/574/521
f 483/549/496 422/589/536 436/575/522
f 448/576/523 418/598/545 512/577/524
f 426/578/525 432/590/537 493/527/474
f 446/579/526 433/635/579 494/534/481
f 502/567/514 441/574/521 419/581/528
f 428/582/529 439/595/542 500/540/487
f 510/514/461 419/581/528 445/583/530
f 442/584/531 431/591/538 492/546/493
f 494/534/481 433/635/579 444/585/532
f 508/550/497 447/573/520 440/586/533
f 506/564/511 445/583/530 430/587/534
f 488/508/455 427/593/540 420/588/535
f 435/569/516 448/576/523 509/555/502
f 421/506/453 442/584/531 503/516/463
f 490/560/507 429/570/517 422/589/536
f 432/590/537 417/599/546 511/563/510
f 431/591/538 425/592/539 486/562/509
f 425/592/539 426/578/525 487/552/499
f 505/539/486 444/585/532 427/593/540
f 434/594/541 424/596/543 485/558/505
f 439/595/542 434/594/541 495/565/512
f 499/559/506 485/558/505 424/596/543
f 481/561/508 420/588/535 423/597/544
f 450/526/473 461/525/472 437/572/519
f 417/599/546 446/579/526 507/580/527
f 10/498/445 405/536/483 408/538/485
f 392/542/489 394/541/488 30/491/438
f 4/501/448 396/519/466 399/521/468
f 56/497/444 393/509/456 397/522/469
f 416/556/503 387/369/362 22/371/364
f 60/486/433 400/524/471 403/532/479
f 14/500/447 410/551/498 412/512/459
f 12/499/446 408/538/485 410/551/498
f 50/476/423 386/533/480 389/535/482
f 64/496/443 406/513/460 395/515/462
f 62/485/432 403/532/479 406/513/460
f 415/529/476 385/528/475 48/477/424
f 54/494/441 391/507/454 393/509/456
f 8/259/232 402/548/495 405/536/483
f 16/490/437 412/512/459 414/511/458
f 390/544/491 392/542/489 28/478/425
f 409/517/464 411/547/494 42/482/429
f 413/553/500 415/529/476 46/487/434
f 34/480/427 32/481/428 398/566/513
f 2/488/435 395/515/462 396/519/466
f 58/492/439 397/522/469 400/524/471
f 52/493/440 389/535/482 391/507/454
f 404/530/477 407/518/465 38/503/450
f 411/547/494 413/553/500 44/484/431
f 36/502/449 34/480/427 401/557/504
f 407/518/465 409/517/464 40/483/430
f 385/528/475 386/533/480 50/476/423
f 6/260/233 399/521/468 402/548/495
f 388/545/492 390/544/491 26/479/426
f 394/541/488 398/566/513 32/481/428
f 418/598/545 437/572/519 498/543/490
f 414/511/458 416/556/503 20/495/442
f 470/605/549 529/177/150 544/175/148
f 468/607/551 520/203/176 523/205/178
f 543/147/121 532/146/120 474/609/553
f 467/611/555 527/167/140 525/157/130
f 522/169/142 542/156/129 480/613/557
f 517/137/113 518/136/112 476/615/559
f 537/394/380 540/331/325 457/617/561
f 452/610/554 473/634/578 539/160/133
f 524/182/155 514/181/154 450/526/473
f 528/319/312 520/203/176 468/607/551
f 465/620/564 541/151/124 516/153/126
f 535/171/144 536/164/137 469/622/566
f 532/146/120 535/171/144 479/623/567
f 463/624/568 530/144/118 521/55/55
f 462/608/552 523/205/178 529/177/150
f 536/164/137 517/137/113 456/616/560
f 464/621/565 516/153/126 526/172/145
f 449/627/571 513/192/166 528/319/312
f 542/156/129 531/155/128 455/628/572
f 518/136/112 513/192/166 449/627/571
f 458/626/570 526/172/145 515/174/147
f 478/625/569 521/55/55 534/54/54
f 534/54/54 524/182/155 454/618/562
f 453/631/575 538/165/138 527/167/140
f 460/632/576 519/159/132 533/190/163
f 540/331/325 522/169/142 471/614/558
f 475/612/556 525/157/130 519/159/132
f 459/633/577 533/190/163 530/144/118
f 472/606/550 544/175/148 541/151/124
f 451/629/573 515/174/147 538/165/138
f 473/634/578 455/628/572 531/155/128
f 457/617/561 471/614/558 439/595/542
f 447/573/520 463/624/568 478/625/569
f 512/577/524 498/543/490 388/545/492
f 468/607/551 462/608/552 444/585/532
f 479/623/567 469/622/566 425/592/539
f 430/587/534 467/611/555 475/612/556
f 429/570/517 475/612/556 460/632/576
f 471/614/558 480/613/557 434/594/541
f 444/585/532 462/608/552 470/605/549
f 477/619/563 468/607/551 433/635/579
f 445/583/530 453/631/575 467/611/555
f 466/630/574 454/618/562 448/576/523
f 452/610/554 474/609/553 442/584/531
f 440/586/533 478/625/569 466/630/574
f 423/597/544 465/620/564 464/621/565
f 417/599/546 449/627/571 477/619/563
f 474/609/553 479/623/567 431/591/538
f 454/618/562 450/526/473 418/598/545
f 420/588/535 472/606/550 465/620/564
f 459/633/577 463/624/568 447/573/520
f 476/615/559 449/627/571 417/599/546
f 421/506/453 438/505/452 473/634/578
f 461/525/472 457/617/561 428/582/529
f 419/581/528 451/629/573 453/631/575
f 469/622/566 456/616/560 426/578/525
f 480/613/557 455/628/572 424/596/543
f 422/589/536 460/632/576 459/633/577
f 427/593/540 470/605/549 472/606/550
f 456/616/560 476/615/559 432/590/537
f 438/505/452 424/596/543 455/628/572
f 443/571/518 464/621/565 458/626/570
f 441/574/521 458/626/570 451/629/573
f 216/197/171 215/332/326 279/333/326
