# Blender 4.4.1
# www.blender.org
mtllib Gin.mtl
o gin
v -0.122944 -0.170684 0.089993
v -0.122255 0.237755 0.089488
v -0.122944 -0.170684 -0.089993
v -0.122255 0.237755 -0.089488
v 0.122944 -0.170684 0.089993
v 0.122255 0.237755 0.089488
v 0.122944 -0.170684 -0.089993
v 0.122255 0.237755 -0.089488
v -0.130510 0.363090 0.098274
v -0.130510 0.363090 -0.098274
v 0.130510 0.363090 -0.098274
v 0.130510 0.363090 0.098274
v -0.133125 -0.233898 -0.097446
v -0.133125 -0.233898 0.097446
v 0.133125 -0.233898 -0.097446
v 0.133125 -0.233898 0.097446
v -0.036347 0.455801 0.036514
v -0.036347 0.455801 -0.036514
v 0.036306 0.455801 -0.036514
v 0.036306 0.455801 0.036514
v -0.029764 0.534690 0.029918
v -0.029764 0.534690 -0.029918
v 0.029764 0.534690 -0.029918
v 0.029764 0.534690 0.029918
v -0.040255 0.535401 0.042263
v -0.040255 0.535401 -0.042263
v 0.040255 0.535401 -0.042263
v 0.040255 0.535401 0.042263
v -0.133125 -0.252133 -0.097446
v -0.133125 -0.252133 0.097446
v 0.133125 -0.252133 -0.097446
v 0.133125 -0.252133 0.097446
v -0.127407 -0.262142 -0.093260
v -0.127407 -0.262142 0.093260
v 0.127407 -0.262142 -0.093260
v 0.127407 -0.262142 0.093260
v -0.119366 -0.143382 0.087374
v -0.119366 -0.143382 -0.087374
v 0.119366 -0.143382 -0.087374
v 0.119366 -0.143382 0.087374
v -0.040255 0.662900 0.042263
v -0.040255 0.662900 -0.042263
v 0.040255 0.662900 -0.042263
v 0.040255 0.662900 0.042263
v -0.151047 -0.170684 0.000000
v -0.150201 0.237755 0.000000
v 0.150836 -0.170684 0.000000
v 0.149990 0.237755 0.000000
v -0.157055 0.363090 0.000000
v 0.156844 0.363090 0.000000
v -0.163548 -0.233898 0.000000
v 0.163337 -0.233898 0.000000
v -0.048815 0.455801 0.000000
v 0.050577 0.455801 0.000000
v -0.039980 0.534690 0.000000
v 0.039980 0.534690 0.000000
v -0.054835 0.535401 0.000000
v 0.054835 0.535401 0.000000
v -0.163548 -0.252133 0.000000
v 0.163337 -0.252133 0.000000
v -0.156526 -0.262142 0.000000
v 0.156315 -0.262142 0.000000
v 0.146443 -0.143382 0.000000
v -0.146654 -0.143382 0.000000
v -0.054835 0.662900 0.000000
v 0.054835 0.662900 0.000000
v -0.145195 -0.170684 0.054666
v 0.144382 0.237755 0.054360
v 0.150974 0.363090 0.056842
v -0.157220 -0.233898 0.059194
v 0.044987 0.455801 0.022620
v 0.036877 0.534690 0.018534
v 0.049755 0.535401 0.026118
v -0.157220 -0.252133 0.059194
v -0.150466 -0.262142 0.056651
v 0.140970 -0.143382 0.053075
v 0.049755 0.662900 0.026118
v -0.144382 0.237755 0.054360
v 0.145195 -0.170684 0.054666
v -0.150974 0.363090 0.056842
v 0.157220 -0.233898 0.059194
v -0.045028 0.455801 0.022620
v -0.036877 0.534690 0.018534
v -0.049755 0.535401 0.026118
v 0.157220 -0.252133 0.059194
v 0.150466 -0.262142 0.056651
v -0.140970 -0.143382 0.053075
v -0.049755 0.662900 0.026118
v -0.144382 0.237755 -0.054360
v 0.145195 -0.170684 -0.054666
v -0.150974 0.363090 -0.056842
v 0.157220 -0.233898 -0.059194
v -0.045028 0.455801 -0.022620
v -0.036877 0.534690 -0.018534
v -0.049755 0.535401 -0.026118
v 0.157220 -0.252133 -0.059194
v 0.150466 -0.262142 -0.056651
v -0.140970 -0.143382 -0.053075
v -0.049755 0.662900 -0.026118
v -0.145195 -0.170684 -0.054666
v 0.144382 0.237755 -0.054360
v 0.150974 0.363090 -0.056842
v -0.157220 -0.233898 -0.059194
v 0.044987 0.455801 -0.022620
v 0.036877 0.534690 -0.018534
v 0.049755 0.535401 -0.026118
v -0.157220 -0.252133 -0.059194
v -0.150466 -0.262142 -0.056651
v 0.140970 -0.143382 -0.053075
v 0.049755 0.662900 -0.026118
v 0.000000 -0.170684 -0.115360
v 0.000000 0.237755 -0.114713
v 0.000000 -0.170684 0.115360
v 0.000000 0.237755 0.114713
v 0.000000 0.363090 -0.119952
v 0.000000 0.363090 0.119952
v 0.000000 -0.233898 -0.124914
v 0.000000 -0.233898 0.124914
v -0.000020 0.455801 -0.051751
v -0.000020 0.455801 0.051751
v 0.000000 0.534690 -0.040187
v 0.000000 0.534690 0.040187
v -0.000000 0.535401 -0.057570
v -0.000000 0.535401 0.057570
v 0.000000 -0.252133 -0.124914
v 0.000000 -0.252133 0.124914
v 0.000000 -0.262142 -0.119548
v 0.000000 -0.262142 0.119548
v 0.000000 -0.143382 0.112003
v 0.000000 -0.143382 -0.112003
v -0.000000 0.662900 -0.057570
v -0.000000 0.662900 0.057570
v 0.000000 0.670014 0.000000
v 0.000000 -0.262142 0.000000
v 0.000000 0.670014 0.026118
v 0.000000 -0.262142 0.056651
v 0.000000 -0.262142 -0.056651
v 0.000000 0.670014 -0.026118
v -0.072598 -0.170684 -0.109333
v -0.072191 0.237755 0.108720
v -0.075487 0.363090 0.113684
v -0.078610 -0.233898 -0.118387
v -0.022524 0.455801 0.045240
v -0.018439 0.534690 0.037068
v -0.024878 0.535401 0.052237
v -0.078610 -0.252133 -0.118387
v -0.075233 -0.262142 -0.113301
v -0.070485 -0.143382 0.106151
v -0.024878 0.662900 0.052237
v -0.075233 -0.262142 0.000000
v -0.075233 -0.262142 0.056651
v -0.075233 -0.262142 -0.056651
v -0.072191 0.237755 -0.108720
v -0.072598 -0.170684 0.109333
v -0.075487 0.363090 -0.113684
v -0.078610 -0.233898 0.118387
v -0.022524 0.455801 -0.045240
v -0.018439 0.534690 -0.037068
v -0.024878 0.535401 -0.052237
v -0.078610 -0.252133 0.118387
v -0.075233 -0.262142 0.113301
v -0.070485 -0.143382 -0.106151
v -0.024878 0.662900 -0.052237
v -0.034686 0.670014 0.000000
v -0.034686 0.670014 0.026118
v -0.034686 0.670014 -0.026118
v 0.072191 0.237755 -0.108720
v 0.072598 -0.170684 0.109333
v 0.075487 0.363090 -0.113684
v 0.078610 -0.233898 0.118387
v 0.022483 0.455801 -0.045240
v 0.018439 0.534690 -0.037068
v 0.024878 0.535401 -0.052237
v 0.078610 -0.252133 0.118387
v 0.075233 -0.262142 0.113301
v 0.070485 -0.143382 -0.106151
v 0.024878 0.662900 -0.052237
v 0.034686 0.670014 0.000000
v 0.034686 0.670014 0.026118
v 0.034686 0.670014 -0.026118
v 0.072598 -0.170684 -0.109333
v 0.072191 0.237755 0.108720
v 0.075487 0.363090 0.113684
v 0.078610 -0.233898 -0.118387
v 0.022483 0.455801 0.045240
v 0.018439 0.534690 0.037068
v 0.024878 0.535401 0.052237
v 0.078610 -0.252133 -0.118387
v 0.075233 -0.262142 -0.113301
v 0.070485 -0.143382 0.106151
v 0.024878 0.662900 0.052237
v 0.075233 -0.262142 0.000000
v 0.075233 -0.262142 0.056651
v 0.075233 -0.262142 -0.056651
v 0.072508 0.409445 -0.057992
v 0.072508 0.409445 0.057992
v -0.072501 0.409445 0.057992
v -0.072501 0.409445 -0.057992
v -0.089131 0.409445 0.000000
v 0.089711 0.409445 0.000000
v 0.084984 0.409445 0.034099
v -0.084976 0.409445 0.034099
v -0.084976 0.409445 -0.034099
v 0.084984 0.409445 -0.034099
v 0.000004 0.409445 -0.073446
v 0.000004 0.409445 0.073446
v -0.042486 0.409445 0.068197
v -0.042486 0.409445 -0.068197
v 0.042494 0.409445 -0.068197
v 0.042494 0.409445 0.068197
v 0.050391 0.432623 -0.043760
v -0.050396 0.432623 0.043760
v -0.063870 0.432623 0.000000
v 0.064964 0.432623 0.000000
v 0.060187 0.432623 0.026263
v -0.060193 0.432623 0.026263
v -0.060193 0.432623 -0.026263
v 0.060187 0.432623 -0.026263
v -0.000003 0.432623 -0.057971
v -0.000003 0.432623 0.057971
v -0.030098 0.432623 0.052526
v -0.030098 0.432623 -0.052526
v 0.030092 0.432623 -0.052526
v 0.030092 0.432623 0.052526
v 0.050391 0.432623 0.043760
v -0.050396 0.432623 -0.043760
v 0.029839 0.495245 0.029998
v -0.029848 0.495245 0.029998
v -0.029848 0.495245 -0.029998
v 0.029839 0.495245 -0.029998
v -0.040091 0.495245 0.000000
v 0.040896 0.495245 0.000000
v 0.036970 0.495245 0.018583
v -0.036980 0.495245 0.018583
v -0.036980 0.495245 -0.018583
v 0.036970 0.495245 -0.018583
v -0.000005 0.495245 -0.041515
v -0.000005 0.495245 0.041515
v -0.018492 0.495245 0.037166
v -0.018492 0.495245 -0.037166
v 0.018483 0.495245 -0.037166
v 0.018483 0.495245 0.037166
vn -0.9418 0.0780 -0.3269
vn -0.6336 -0.0365 -0.7728
vn -0.6296 0.0745 -0.7734
vn 0.2222 -0.0260 -0.9747
vn 0.6296 0.0745 -0.7734
vn 0.2202 0.0615 -0.9735
vn 0.9425 0.0781 0.3250
vn 0.6336 -0.0365 0.7728
vn 0.6296 0.0745 0.7734
vn -0.2222 -0.0260 0.9747
vn -0.6296 0.0745 0.7734
vn -0.2202 0.0615 0.9735
vn 0.9296 0.1816 0.3208
vn 0.6354 0.0938 0.7664
vn 0.9405 0.0986 0.3252
vn -0.1810 0.3731 -0.9100
vn -0.2222 -0.0260 -0.9747
vn 0.4966 0.6433 -0.5827
vn 0.8415 0.4080 -0.3541
vn 0.7097 0.6578 -0.2523
vn 0.6336 -0.0365 -0.7728
vn 0.8691 0.4211 -0.2595
vn 0.9448 -0.0330 -0.3261
vn -0.6336 -0.0365 0.7728
vn -0.8685 0.4214 0.2610
vn -0.9441 -0.0329 0.3279
vn 0.1810 0.3731 0.9100
vn 0.2222 -0.0260 0.9747
vn -0.6354 0.0938 -0.7664
vn -0.9023 -0.2950 -0.3142
vn -0.9399 0.0987 -0.3268
vn -0.6239 0.1731 0.7620
vn -0.2247 0.0792 0.9712
vn -0.2199 0.1444 0.9648
vn 0.6239 0.1731 -0.7620
vn 0.2247 0.0792 -0.9712
vn 0.2199 0.1444 -0.9648
vn -0.9290 0.1816 -0.3226
vn 0.3791 0.1200 0.9175
vn 0.7088 0.0028 0.7055
vn 0.3572 0.0027 0.9340
vn -0.4968 0.6429 0.5830
vn -0.8535 0.4080 0.3241
vn -0.7107 0.6629 0.2354
vn 0.2499 0.5147 0.8201
vn 0.6332 0.3773 0.6758
vn 0.3675 0.2949 0.8820
vn -0.2499 0.5145 -0.8203
vn -0.6333 0.3772 -0.6758
vn -0.3676 0.2948 -0.8820
vn 0.0323 -0.9990 -0.0306
vn 0.7065 -0.6549 -0.2683
vn 0.0451 -0.9988 -0.0164
vn -0.3791 0.1202 -0.9175
vn -0.7087 0.0029 -0.7055
vn -0.3572 0.0028 -0.9340
vn 0.9225 0.1176 -0.3677
vn 0.7088 0.0028 -0.7055
vn 0.9351 0.0027 -0.3543
vn -0.9295 0.1144 0.3506
vn -0.7087 0.0029 0.7055
vn -0.9351 0.0029 0.3543
vn -0.5521 -0.6444 0.5291
vn -0.8084 0.5159 0.2835
vn -0.7065 -0.6549 0.2683
vn -0.0323 -0.9990 0.0306
vn -0.0451 -0.9988 0.0164
vn 0.0159 -0.9991 0.0397
vn 0.5521 -0.6444 0.5291
vn 0.2899 -0.6541 0.6987
vn -0.0159 -0.9991 -0.0397
vn -0.5521 -0.6444 -0.5291
vn -0.2899 -0.6541 -0.6987
vn 0.2224 -0.2520 -0.9418
vn 0.3257 -0.8442 -0.4257
vn 0.1101 -0.8442 -0.5245
vn -0.6354 0.0938 0.7664
vn -0.2224 -0.2520 0.9418
vn 0.6354 0.0938 -0.7664
vn 0.9029 -0.2949 0.3127
vn -0.0000 -1.0000 -0.0000
vn 0.3257 -0.8442 0.4257
vn 0.1101 -0.8442 0.5245
vn 0.6169 -0.2817 0.7349
vn 0.4780 -0.8630 0.1637
vn -0.6169 -0.2817 -0.7349
vn -0.4773 -0.8632 -0.1645
vn -0.3257 -0.8442 0.4257
vn -0.1101 -0.8442 0.5245
vn 0.6239 0.1731 0.7620
vn -0.6239 0.1731 -0.7620
vn -0.2142 0.9672 0.1368
vn -0.6137 0.5076 0.6047
vn -0.2939 0.5717 0.7660
vn 0.2939 0.5717 0.7660
vn -0.2939 0.5717 -0.7660
vn 0.5521 -0.6444 -0.5291
vn 0.8084 0.5159 -0.2835
vn 0.7596 -0.6503 -0.0000
vn 0.8084 0.5159 0.2835
vn 0.7065 -0.6549 0.2683
vn -0.8084 0.5159 -0.2835
vn -0.1869 0.9824 -0.0000
vn -0.2142 0.9672 -0.1368
vn -0.9418 0.0780 0.3269
vn -0.9843 0.1767 -0.0000
vn -0.9290 0.1816 0.3226
vn 0.9425 0.0781 -0.3250
vn 0.9843 0.1766 -0.0000
vn 0.9296 0.1816 -0.3208
vn -0.9554 -0.2954 -0.0000
vn -0.4773 -0.8632 0.1645
vn -0.9023 -0.2950 0.3143
vn 0.9553 -0.2956 -0.0000
vn 0.4780 -0.8630 -0.1637
vn 0.9029 -0.2949 -0.3127
vn 0.9953 0.0968 -0.0000
vn 0.9405 0.0986 -0.3252
vn -0.0451 -0.9988 -0.0164
vn -0.7596 -0.6503 -0.0000
vn -0.7065 -0.6549 -0.2683
vn -0.9938 0.1113 -0.0000
vn -0.9351 0.0029 -0.3543
vn -0.9295 0.1144 -0.3506
vn 0.9225 0.1176 0.3677
vn 1.0000 0.0084 -0.0000
vn 0.9351 0.0027 0.3543
vn 0.0451 -0.9988 0.0164
vn -0.7107 0.6629 -0.2354
vn -0.9170 0.3989 -0.0000
vn -0.8535 0.4080 -0.3241
vn -0.9953 0.0969 -0.0000
vn -0.9399 0.0987 0.3268
vn -0.9441 -0.0329 -0.3279
vn -0.9023 0.4311 -0.0000
vn -0.8685 0.4214 -0.2610
vn 0.9448 -0.0330 0.3261
vn 0.9025 0.4308 -0.0000
vn 0.8691 0.4211 0.2595
vn 0.7097 0.6578 0.2523
vn 0.9121 0.4099 -0.0000
vn 0.8415 0.4080 0.3541
vn 0.9995 -0.0320 -0.0000
vn 0.9971 0.0755 -0.0000
vn -0.9995 -0.0320 -0.0000
vn -0.9971 0.0755 -0.0000
vn 0.4966 0.6433 0.5827
vn 0.6007 0.3829 0.7018
vn -0.6169 -0.2817 0.7349
vn 0.0323 -0.9990 0.0306
vn 0.7039 0.1173 0.7005
vn 0.6137 0.5076 0.6047
vn 0.4845 -0.8748 -0.0000
vn -0.0478 -0.9989 -0.0000
vn -0.8374 0.5466 -0.0000
vn -1.0000 0.0028 -0.0000
vn -0.7587 0.6514 -0.0000
vn -0.6007 0.3829 -0.7018
vn -0.4968 0.6429 -0.5830
vn -0.7039 0.1177 -0.7005
vn -0.6137 0.5076 -0.6047
vn -0.0323 -0.9990 -0.0306
vn 0.6169 -0.2817 -0.7349
vn 0.8374 0.5466 -0.0000
vn -0.4853 -0.8743 -0.0000
vn 0.9919 0.1267 -0.0000
vn 0.0478 -0.9989 -0.0000
vn 0.7671 0.6415 -0.0000
vn 0.2939 0.5717 -0.7660
vn -0.0000 0.9925 -0.1224
vn 0.2142 0.9672 -0.1368
vn -0.1101 -0.8442 -0.5245
vn -0.0000 1.0000 -0.0000
vn 0.2142 0.9672 0.1368
vn 0.1869 0.9824 -0.0000
vn -0.0000 -0.6490 -0.7608
vn 0.2899 -0.6541 -0.6987
vn -0.0000 -0.6490 0.7608
vn -0.2899 -0.6541 0.6987
vn -0.0000 0.9925 0.1224
vn -0.2202 0.0615 -0.9735
vn -0.0000 0.1359 -0.9907
vn -0.2199 0.1444 -0.9648
vn 0.2202 0.0615 0.9735
vn -0.0000 0.1359 0.9907
vn 0.2199 0.1444 0.9648
vn -0.0000 -0.2406 0.9706
vn 0.2224 -0.2520 0.9418
vn -0.0000 0.0746 -0.9972
vn -0.2224 -0.2520 -0.9418
vn -0.2247 0.0792 -0.9712
vn -0.0000 0.0746 0.9972
vn 0.2247 0.0792 0.9712
vn -0.0000 -0.2406 -0.9706
vn 0.0159 -0.9991 -0.0397
vn -0.0159 -0.9991 0.0397
vn 0.3791 0.1200 -0.9175
vn -0.0000 0.0114 -0.9999
vn 0.3572 0.0027 -0.9340
vn -0.0000 0.4418 -0.8971
vn 0.3675 0.2949 -0.8820
vn 0.2499 0.5147 -0.8201
vn -0.0000 0.4418 0.8971
vn -0.3676 0.2948 0.8820
vn -0.2499 0.5145 0.8203
vn -0.3791 0.1202 0.9175
vn -0.0000 0.0114 0.9999
vn -0.3572 0.0028 0.9340
vn -0.0000 0.3622 0.9321
vn -0.1810 0.3731 0.9100
vn -0.0000 0.3622 -0.9321
vn 0.1810 0.3731 -0.9100
vn -0.0000 -0.0245 0.9997
vn -0.0000 0.0578 0.9983
vn -0.0000 -0.0245 -0.9997
vn -0.0000 0.0578 -0.9983
vn -0.6007 0.3829 0.7018
vn -0.7039 0.1177 0.7005
vn -0.6333 0.3772 0.6758
vn -0.3257 -0.8442 -0.4257
vn -0.0000 0.5864 -0.8100
vn -0.0000 0.5864 0.8100
vn -0.0000 -0.8461 0.5330
vn -0.0000 -0.9992 -0.0409
vn -0.0000 0.1355 -0.9908
vn -0.0001 0.2554 -0.9668
vn 0.6007 0.3829 -0.7018
vn 0.6332 0.3773 -0.6758
vn 0.7039 0.1173 -0.7005
vn 0.6137 0.5076 -0.6047
vn -0.0000 -0.8461 -0.5330
vn -0.0000 -0.9992 0.0409
vn -0.0001 0.2554 0.9668
vn -0.0000 0.1355 0.9908
vn 0.1624 0.6873 0.7080
vn -0.0000 0.6475 0.7620
vn 0.3891 0.7846 -0.4828
vn -0.1624 0.6873 -0.7080
vn -0.0000 0.6475 -0.7620
vn -0.3891 0.7845 0.4828
vn -0.1624 0.6873 0.7080
vn 0.1624 0.6873 -0.7080
vn 0.5800 0.7940 -0.1821
vn 0.6189 0.7855 -0.0000
vn -0.3891 0.7845 -0.4828
vn -0.5800 0.7949 0.1782
vn -0.6161 0.7877 -0.0000
vn 0.3891 0.7846 0.4828
vn 0.5800 0.7940 0.1821
vn -0.5800 0.7949 -0.1782
vt 0.502526 0.258680
vt 0.518150 0.543349
vt 0.471819 0.263654
vt 0.383186 0.566887
vt 0.287731 0.298048
vt 0.327295 0.291000
vt 0.176324 0.322209
vt 0.211066 0.617402
vt 0.145789 0.329620
vt 0.842198 0.696946
vt 0.803514 0.403787
vt 0.843685 0.403924
vt 0.171414 0.301418
vt 0.128046 0.261138
vt 0.161112 0.254910
vt 0.494957 0.628836
vt 0.481317 0.548761
vt 0.405004 0.729484
vt 0.401748 0.763913
vt 0.386571 0.738048
vt 0.347096 0.575065
vt 0.343173 0.657117
vt 0.318908 0.582614
vt 0.660839 0.531665
vt 0.626973 0.626844
vt 0.627873 0.533882
vt 0.994978 0.696584
vt 0.956007 0.793378
vt 0.953754 0.696946
vt 0.462139 0.198105
vt 0.489478 0.180314
vt 0.491860 0.192593
vt 0.610688 0.220187
vt 0.642101 0.170518
vt 0.650025 0.215627
vt 0.283239 0.277566
vt 0.312477 0.225652
vt 0.322821 0.270871
vt 0.499225 0.237974
vt 0.626512 0.845648
vt 0.614030 0.883816
vt 0.604017 0.876470
vt 0.615896 0.740686
vt 0.584967 0.763070
vt 0.595264 0.731602
vt 0.677665 0.806331
vt 0.664836 0.830115
vt 0.655424 0.817659
vt 0.493212 0.717016
vt 0.510923 0.745550
vt 0.491233 0.745814
vt 0.841432 0.195584
vt 0.847615 0.208931
vt 0.837734 0.204549
vt 0.491498 0.793844
vt 0.503581 0.836874
vt 0.490539 0.836316
vt 0.418079 0.806449
vt 0.442736 0.842095
vt 0.430265 0.845701
vt 0.566095 0.808231
vt 0.563118 0.852393
vt 0.551153 0.847584
vt 0.858055 0.096956
vt 0.933573 0.103263
vt 0.858043 0.107360
vt 0.847435 0.098735
vt 0.848301 0.108971
vt 0.840993 0.061388
vt 0.847723 0.046872
vt 0.851661 0.058012
vt 0.845936 0.156977
vt 0.858566 0.147931
vt 0.857817 0.158359
vt 0.309962 0.212927
vt 0.270433 0.212589
vt 0.309853 0.204544
vt 0.602954 0.175883
vt 0.640296 0.157823
vt 0.273260 0.233173
vt 0.158553 0.242117
vt 0.120293 0.189911
vt 0.124775 0.237800
vt 0.087738 0.217621
vt 0.125725 0.247006
vt 0.157092 0.233144
vt 0.459802 0.185951
vt 0.487888 0.171419
vt 0.601223 0.155358
vt 0.640642 0.149541
vt 0.614259 0.240554
vt 0.140444 0.309158
vt 0.468647 0.243001
vt 0.879464 0.355928
vt 0.868320 0.361907
vt 0.860042 0.352006
vt 0.927641 0.046198
vt 0.933811 0.162400
vt 0.851941 0.197759
vt 0.927963 0.220936
vt 0.835173 0.221459
vt 0.872476 0.297921
vt 0.821825 0.231480
vt 0.916352 0.363127
vt 0.897091 0.354117
vt 0.914605 0.351870
vt 0.583461 0.245683
vt 0.539730 0.231739
vt 0.580131 0.225013
vt 0.257154 0.304547
vt 0.212325 0.292770
vt 0.252739 0.283905
vt 0.530355 0.172789
vt 0.570173 0.158481
vt 0.571369 0.167387
vt 0.199961 0.233470
vt 0.239410 0.217338
vt 0.241045 0.226226
vt 0.222201 0.177725
vt 0.152847 0.162201
vt 0.185402 0.134492
vt 0.202552 0.246519
vt 0.243417 0.238662
vt 0.848437 0.135934
vt 0.858135 0.122336
vt 0.858312 0.137390
vt 0.934446 0.138100
vt 0.545004 0.801135
vt 0.516517 0.838556
vt 0.523079 0.796479
vt 0.381187 0.823246
vt 0.413504 0.851322
vt 0.397312 0.858387
vt 0.818088 0.222093
vt 0.538390 0.716436
vt 0.558140 0.754381
vt 0.530748 0.747949
vt 0.532429 0.185741
vt 0.573127 0.179821
vt 0.547354 0.540024
vt 0.588242 0.622903
vt 0.552306 0.619612
vt 0.242412 0.606900
vt 0.312031 0.673043
vt 0.278662 0.691436
vt 0.342641 0.766529
vt 0.378740 0.775543
vt 0.358543 0.788976
vt 0.281429 0.594078
vt 0.216799 0.313297
vt 0.586716 0.536705
vt 0.543003 0.252219
vt 0.329455 0.779620
vt 0.346107 0.799258
vt 0.249023 0.712567
vt 0.601138 0.163784
vt 0.809160 0.226001
vt 0.810966 0.237700
vt 0.385833 0.863702
vt 0.369782 0.829848
vt 0.862038 0.305842
vt 0.880313 0.367304
vt 0.198303 0.224825
vt 0.848883 0.122400
vt 0.934272 0.120586
vt 0.534046 0.842465
vt 0.566874 0.722602
vt 0.526369 0.620194
vt 0.516987 0.713418
vt 0.507314 0.794595
vt 0.934250 0.150264
vt 0.847708 0.146360
vt 0.270796 0.221076
vt 0.231959 0.146567
vt 0.217956 0.106782
vt 0.926789 0.355206
vt 0.932648 0.343751
vt 0.887178 0.286355
vt 0.529001 0.164177
vt 0.398899 0.814456
vt 0.828753 0.214267
vt 0.363574 0.751468
vt 0.928785 0.309041
vt 0.912208 0.328506
vt 0.909364 0.305119
vt 0.144358 0.020316
vt 0.148603 0.091258
vt 0.111804 0.048025
vt 0.116048 0.118968
vt 0.046694 0.103445
vt 0.079249 0.075735
vt 0.894414 0.330524
vt 0.874223 0.309178
vt 0.891736 0.306930
vt 0.856124 0.172750
vt 0.931193 0.196285
vt 0.854197 0.187218
vt 0.854746 0.072486
vt 0.931756 0.079254
vt 0.857016 0.086682
vt 0.876619 0.332541
vt 0.856179 0.317296
vt 0.432481 0.271353
vt 0.376188 0.261236
vt 0.429402 0.250995
vt 0.757251 0.222365
vt 0.702906 0.209018
vt 0.755763 0.202122
vt 0.695327 0.150360
vt 0.747957 0.135219
vt 0.750680 0.143167
vt 0.083493 0.146678
vt 0.014140 0.131155
vt 0.367633 0.215337
vt 0.420496 0.192268
vt 0.422829 0.205162
vt 0.697068 0.163336
vt 0.752555 0.155977
vt 0.365191 0.202323
vt 0.417597 0.184425
vt 0.842764 0.185381
vt 0.845494 0.088418
vt 0.447337 0.798284
vt 0.472870 0.836541
vt 0.455431 0.839373
vt 0.460154 0.720869
vt 0.437274 0.752675
vt 0.427854 0.726307
vt 0.658205 0.781622
vt 0.619065 0.782705
vt 0.634228 0.757798
vt 0.593799 0.821762
vt 0.589818 0.866563
vt 0.574637 0.858123
vt 0.897976 0.793465
vt 0.839945 0.793378
vt 0.447225 0.640101
vt 0.398700 0.645673
vt 0.952268 0.403924
vt 0.897976 0.697072
vt 0.897976 0.403966
vt 0.432101 0.557313
vt 0.379952 0.281386
vt 0.800975 0.696584
vt 0.796089 0.793104
vt 0.580335 0.814527
vt 0.603041 0.771675
vt 0.457145 0.177902
vt 0.000137 0.091370
vt 0.009895 0.060212
vt 0.932774 0.091024
vt 0.075005 0.004792
vt 0.039485 0.029020
vt 0.107321 0.000137
vt 0.934446 0.326002
vt 0.932788 0.179244
vt 0.854382 0.335046
vt 0.653450 0.235750
vt 0.694259 0.142360
vt 0.844917 0.171417
vt 0.469183 0.795114
vt 0.463779 0.747659
vt 0.992438 0.403787
vt 0.366914 0.648585
vt 0.795290 0.197589
vt 0.794157 0.149790
vt 0.418961 0.757136
vt 0.432464 0.801936
vt 0.792131 0.136596
vt 0.787955 0.128546
vt 0.795816 0.218063
vt 0.929722 0.208368
vt 0.908514 0.293743
vt 0.890060 0.292353
vt 0.920508 0.299140
vt 0.184747 0.060493
vt 0.929910 0.062644
vt 0.047349 0.177443
vt 0.363693 0.194296
vt 0.843933 0.074449
vt 0.639473 0.799721
vt 0.611157 0.833409
vt 0.729642 0.725865
vt 0.705198 0.796539
vt 0.680317 0.763021
vt 0.390635 0.699863
vt 0.494769 0.686561
vt 0.456015 0.693175
vt 0.691513 0.673365
vt 0.631401 0.706105
vt 0.663022 0.633906
vt 0.652058 0.730219
vt 0.417590 0.698567
vt 0.370652 0.710034
vt 0.345650 0.724870
vt 0.521734 0.678981
vt 0.607018 0.696667
vt 0.575629 0.688447
vt 0.305681 0.759375
vt 0.321969 0.742613
vt 0.545250 0.682192
vt 0.769929 0.779795
vt 0.719912 0.821622
vt 0.688870 0.823672
vt 0.636118 0.854305
vt 0.999863 0.793104
vt 0.837600 0.052460
vt 0.925928 0.034956
vt 0.898767 0.368695
vt 0.192507 0.208796
vt 0.901010 0.275212
vt 0.705482 0.229082
vt 0.795816 0.824168
s 1
usemtl マテリアル.003
f 98/1/1 4/2/2 38/3/3
f 167/4/4 39/5/5 176/6/6
f 76/7/7 6/8/8 40/9/9
f 140/10/10 37/11/11 148/12/12
f 79/13/13 16/14/14 81/15/15
f 4/2/2 155/16/16 153/17/17
f 211/18/18 104/19/19 218/20/20
f 8/21/21 102/22/22 101/23/23
f 2/24/24 80/25/25 78/26/26
f 6/27/8 183/28/27 182/29/28
f 13/30/29 107/31/30 103/32/31
f 1/33/32 156/34/33 154/35/34
f 7/36/35 184/37/36 181/38/37
f 100/39/38 13/30/29 103/32/31
f 242/40/39 24/41/40 186/42/41
f 212/43/42 82/44/43 216/45/44
f 224/46/45 20/47/46 185/48/47
f 222/49/48 18/50/49 157/51/50
f 23/52/51 106/53/52 105/54/53
f 240/55/54 22/56/55 158/57/56
f 236/58/57 23/59/58 105/60/59
f 234/61/60 21/62/61 83/63/62
f 25/64/63 88/65/64 84/66/65
f 21/67/66 84/66/65 83/68/67
f 186/69/68 28/70/69 187/71/70
f 158/72/71 26/73/72 159/74/73
f 188/75/74 35/76/75 189/77/76
f 14/78/77 160/79/78 156/34/33
f 15/80/79 188/75/74 184/37/36
f 16/14/14 85/81/80 81/15/15
f 193/82/81 36/83/82 175/84/83
f 32/85/84 86/86/85 85/81/80
f 29/87/86 108/88/87 107/31/30
f 160/79/78 34/89/88 161/90/89
f 154/35/34 37/91/11 1/33/32
f 76/7/7 5/92/90 79/13/13
f 181/38/37 39/5/5 7/36/35
f 98/1/1 3/93/91 100/39/38
f 165/94/92 41/95/93 149/96/94
f 28/70/69 191/97/95 187/71/70
f 26/73/72 163/98/96 159/74/73
f 27/99/97 110/100/98 106/53/52
f 58/101/99 77/102/100 73/103/101
f 99/104/102 164/105/103 166/106/104
f 87/107/105 45/108/106 67/109/107
f 109/110/108 47/111/109 90/112/110
f 59/113/111 75/114/112 74/115/113
f 60/116/114 97/117/115 96/118/116
f 97/119/115 192/120/81 194/121/81
f 52/122/117 96/118/116 92/123/118
f 94/124/119 57/125/120 95/126/121
f 57/125/120 99/127/102 95/126/121
f 231/128/122 94/129/123 235/130/124
f 233/131/125 56/132/126 72/133/127
f 72/134/128 58/101/99 73/103/101
f 217/135/129 53/136/130 93/137/131
f 67/109/107 51/138/132 70/139/133
f 51/138/132 74/115/113 70/139/133
f 89/140/134 49/141/135 91/142/136
f 68/143/137 50/144/138 69/145/139
f 215/146/140 54/147/141 71/148/142
f 90/112/110 52/122/117 92/123/118
f 109/110/108 48/149/143 63/150/144
f 87/107/105 46/151/145 64/152/146
f 2/24/24 87/107/105 37/91/11
f 225/153/147 71/148/142 20/154/46
f 6/8/8 69/145/139 12/155/148
f 70/139/133 30/156/149 14/78/77
f 67/109/107 14/78/77 1/33/32
f 24/157/150 73/103/101 28/158/69
f 233/131/125 24/159/40 227/160/151
f 30/156/149 75/114/112 34/89/88
f 1/33/32 87/107/105 67/109/107
f 73/103/101 44/161/152 28/158/69
f 164/105/103 88/162/64 165/94/92
f 47/111/109 76/7/7 79/13/13
f 60/116/114 86/86/85 62/163/153
f 192/120/81 86/86/85 193/82/81
f 81/15/15 60/116/114 52/122/117
f 83/68/67 57/125/120 55/164/154
f 84/66/65 65/165/155 57/125/120
f 231/128/122 83/63/62 55/166/156
f 216/45/44 53/136/130 213/167/157
f 78/26/26 49/141/135 46/151/145
f 79/13/13 52/122/117 47/111/109
f 48/149/143 76/7/7 63/150/144
f 8/21/21 109/110/108 39/5/5
f 90/112/110 15/80/79 7/36/35
f 4/2/2 91/142/136 10/168/158
f 226/169/159 93/137/131 18/50/49
f 235/130/124 22/56/55 229/170/160
f 95/126/121 42/171/161 26/73/72
f 22/172/162 95/126/121 26/73/72
f 92/123/118 31/173/163 15/80/79
f 35/174/75 194/121/81 189/175/76
f 31/173/163 97/117/115 35/76/75
f 7/36/35 109/110/108 90/112/110
f 42/176/161 166/106/104 163/177/96
f 106/53/52 66/178/164 58/101/99
f 45/108/106 98/1/1 100/39/38
f 59/113/111 108/88/87 61/179/165
f 236/58/57 56/132/126 232/180/166
f 105/54/53 58/101/99 56/181/167
f 100/39/38 51/138/132 45/108/106
f 103/32/31 59/113/111 51/138/132
f 101/23/23 50/144/138 48/149/143
f 218/20/20 54/147/141 214/182/168
f 46/151/145 98/1/1 64/152/146
f 177/183/169 138/184/170 180/185/171
f 147/186/172 137/187/81 152/188/81
f 134/189/81 151/190/81 150/191/81
f 133/192/173 179/193/174 178/194/175
f 137/187/81 150/191/81 152/188/81
f 138/184/170 178/194/175 180/185/171
f 123/195/176 177/196/169 173/197/177
f 124/198/178 149/199/94 145/200/179
f 135/201/180 191/202/95 179/193/174
f 162/203/181 111/204/182 139/205/183
f 190/206/184 113/207/185 168/208/186
f 126/209/187 175/210/83 174/211/188
f 136/212/81 161/213/89 151/190/81
f 117/214/189 146/215/190 142/216/191
f 118/217/192 174/211/188 170/218/193
f 125/219/194 147/220/172 146/215/190
f 172/221/195 123/195/176 173/197/177
f 144/222/196 124/198/178 145/200/179
f 241/223/197 121/224/198 172/225/199
f 219/226/200 171/227/201 223/228/202
f 220/229/203 143/230/204 221/231/205
f 239/232/206 122/233/207 144/234/208
f 139/205/183 117/214/189 142/216/191
f 168/208/186 118/217/192 170/218/193
f 140/10/10 116/235/209 141/236/210
f 167/4/4 115/237/211 169/238/212
f 190/239/184 114/240/213 129/241/214
f 162/203/181 112/242/215 130/243/216
f 38/3/3 153/17/17 162/203/181
f 2/244/24 141/236/210 9/245/217
f 3/93/91 142/216/191 13/30/29
f 239/232/206 21/62/61 228/246/218
f 221/231/205 17/247/219 212/43/42
f 144/222/196 25/64/63 21/67/66
f 146/215/190 33/248/220 29/87/86
f 142/216/191 29/87/86 13/30/29
f 151/190/81 34/249/88 75/250/112
f 38/3/3 139/205/183 3/93/91
f 145/200/179 41/251/93 25/64/63
f 108/252/87 150/191/81 61/253/165
f 150/191/81 75/250/112 61/253/165
f 33/254/220 152/188/81 108/252/87
f 163/177/96 138/184/170 131/255/221
f 164/105/103 135/201/180 133/192/173
f 166/106/104 133/192/173 138/184/170
f 159/74/73 131/256/221 123/195/176
f 135/201/180 149/96/94 132/257/222
f 113/207/185 148/258/12 154/35/34
f 126/209/187 161/90/89 128/259/223
f 156/34/33 126/209/187 118/217/192
f 158/72/71 123/195/176 121/260/224
f 240/55/54 121/224/198 237/261/225
f 219/226/200 157/51/50 119/262/226
f 154/35/34 118/217/192 113/207/185
f 153/17/17 115/237/211 112/242/215
f 114/240/213 148/12/12 129/241/214
f 40/263/9 182/29/28 190/239/184
f 8/21/21 169/238/212 11/264/227
f 5/265/90 170/218/193 16/266/14
f 223/228/202 19/267/228 211/18/18
f 241/223/197 23/59/58 230/268/229
f 172/221/195 27/99/97 23/52/51
f 170/218/193 32/269/84 16/266/14
f 174/211/188 36/270/82 32/269/84
f 40/271/9 168/208/186 5/265/90
f 179/193/174 44/161/152 77/102/100
f 173/197/177 43/272/230 27/99/97
f 110/273/98 178/194/175 66/274/164
f 178/194/175 77/102/100 66/274/164
f 43/275/230 180/185/171 110/273/98
f 189/175/76 137/187/81 127/276/231
f 192/120/81 136/212/81 134/189/81
f 194/121/81 134/189/81 137/187/81
f 187/71/70 132/277/222 124/198/178
f 111/204/182 176/6/6 181/38/37
f 136/212/81 175/84/83 128/278/223
f 184/37/36 125/219/194 117/214/189
f 125/219/194 189/77/76 127/279/231
f 186/69/68 124/198/178 122/280/232
f 220/229/203 185/48/47 120/281/233
f 242/40/39 122/233/207 238/282/234
f 181/38/37 117/214/189 111/204/182
f 182/29/28 116/235/209 114/240/213
f 112/242/215 176/6/6 130/243/216
f 116/283/209 210/284/235 206/285/236
f 169/238/212 195/286/237 11/264/227
f 115/237/211 208/287/238 205/288/239
f 141/289/210 197/290/240 9/291/217
f 116/283/209 207/292/241 141/289/210
f 115/237/211 209/293/242 169/238/212
f 50/144/138 204/294/243 200/295/244
f 91/142/136 198/296/245 10/168/158
f 49/141/135 202/297/246 199/298/247
f 69/145/139 196/299/248 12/155/148
f 50/144/138 201/300/249 69/145/139
f 49/141/135 203/301/250 91/142/136
f 155/16/16 198/296/245 208/287/238
f 183/302/27 196/303/248 210/284/235
f 80/25/25 197/290/240 202/297/246
f 102/22/22 195/286/237 204/294/243
f 206/285/236 224/46/45 220/229/203
f 209/293/242 211/18/18 195/286/237
f 205/288/239 222/49/48 219/226/200
f 207/292/241 212/43/42 197/290/240
f 206/285/236 221/231/205 207/292/241
f 205/288/239 223/228/202 209/293/242
f 200/295/244 218/20/20 214/182/168
f 198/296/245 217/135/129 226/169/159
f 199/298/247 216/45/44 213/167/157
f 196/299/248 215/146/140 225/153/147
f 200/295/244 215/146/140 201/300/249
f 199/298/247 217/135/129 203/301/250
f 208/287/238 226/169/159 222/49/48
f 210/284/235 225/304/147 224/46/45
f 197/290/240 216/45/44 202/297/246
f 195/286/237 218/20/20 204/294/243
f 185/48/47 238/282/234 120/281/233
f 171/227/201 230/268/229 19/267/228
f 157/51/50 237/261/225 119/262/226
f 143/230/204 228/246/218 17/247/219
f 143/230/204 238/282/234 239/232/206
f 171/227/201 237/261/225 241/223/197
f 104/19/19 232/180/166 54/147/141
f 93/137/131 229/170/160 18/50/49
f 53/136/130 234/61/60 231/128/122
f 71/148/142 227/160/151 20/154/46
f 71/148/142 232/180/166 233/131/125
f 53/136/130 235/130/124 93/137/131
f 82/44/43 228/246/218 234/61/60
f 104/19/19 230/268/229 236/58/57
f 157/51/50 229/170/160 240/55/54
f 185/48/47 227/305/151 242/40/39
f 98/1/1 89/140/134 4/2/2
f 167/4/4 8/21/21 39/5/5
f 76/7/7 68/143/137 6/8/8
f 140/10/10 2/244/24 37/11/11
f 79/13/13 5/92/90 16/14/14
f 4/2/2 10/168/158 155/16/16
f 211/18/18 19/267/228 104/19/19
f 8/21/21 11/264/227 102/22/22
f 2/24/24 9/291/217 80/25/25
f 6/27/8 12/306/148 183/28/27
f 13/30/29 29/87/86 107/31/30
f 1/33/32 14/78/77 156/34/33
f 7/36/35 15/80/79 184/37/36
f 100/39/38 3/93/91 13/30/29
f 242/40/39 227/305/151 24/41/40
f 212/43/42 17/247/219 82/44/43
f 224/46/45 225/304/147 20/47/46
f 222/49/48 226/169/159 18/50/49
f 23/52/51 27/99/97 106/53/52
f 240/55/54 229/170/160 22/56/55
f 236/58/57 230/268/229 23/59/58
f 234/61/60 228/246/218 21/62/61
f 25/64/63 41/251/93 88/65/64
f 21/67/66 25/64/63 84/66/65
f 186/69/68 24/307/150 28/70/69
f 158/72/71 22/172/162 26/73/72
f 188/75/74 31/173/163 35/76/75
f 14/78/77 30/156/149 160/79/78
f 15/80/79 31/173/163 188/75/74
f 16/14/14 32/85/84 85/81/80
f 193/82/81 86/86/85 36/83/82
f 32/85/84 36/83/82 86/86/85
f 29/87/86 33/248/220 108/88/87
f 160/79/78 30/156/149 34/89/88
f 154/35/34 148/258/12 37/91/11
f 76/7/7 40/9/9 5/92/90
f 181/38/37 176/6/6 39/5/5
f 98/1/1 38/3/3 3/93/91
f 165/94/92 88/162/64 41/95/93
f 28/70/69 44/308/152 191/97/95
f 26/73/72 42/171/161 163/98/96
f 27/99/97 43/272/230 110/100/98
f 58/101/99 66/178/164 77/102/100
f 99/104/102 65/309/155 164/105/103
f 87/107/105 64/152/146 45/108/106
f 109/110/108 63/150/144 47/111/109
f 59/113/111 61/179/165 75/114/112
f 60/116/114 62/163/153 97/117/115
f 97/119/115 62/310/153 192/120/81
f 52/122/117 60/116/114 96/118/116
f 94/124/119 55/164/154 57/125/120
f 57/125/120 65/165/155 99/127/102
f 231/128/122 55/166/156 94/129/123
f 233/131/125 232/180/166 56/132/126
f 72/134/128 56/181/167 58/101/99
f 217/135/129 213/167/157 53/136/130
f 67/109/107 45/108/106 51/138/132
f 51/138/132 59/113/111 74/115/113
f 89/140/134 46/151/145 49/141/135
f 68/143/137 48/149/143 50/144/138
f 215/146/140 214/182/168 54/147/141
f 90/112/110 47/111/109 52/122/117
f 109/110/108 101/23/23 48/149/143
f 87/107/105 78/26/26 46/151/145
f 2/24/24 78/26/26 87/107/105
f 225/153/147 215/146/140 71/148/142
f 6/8/8 68/143/137 69/145/139
f 70/139/133 74/115/113 30/156/149
f 67/109/107 70/139/133 14/78/77
f 24/157/150 72/134/128 73/103/101
f 233/131/125 72/133/127 24/159/40
f 30/156/149 74/115/113 75/114/112
f 1/33/32 37/91/11 87/107/105
f 73/103/101 77/102/100 44/161/152
f 164/105/103 65/309/155 88/162/64
f 47/111/109 63/150/144 76/7/7
f 60/116/114 85/81/80 86/86/85
f 192/120/81 62/310/153 86/86/85
f 81/15/15 85/81/80 60/116/114
f 83/68/67 84/66/65 57/125/120
f 84/66/65 88/65/64 65/165/155
f 231/128/122 234/61/60 83/63/62
f 216/45/44 82/44/43 53/136/130
f 78/26/26 80/25/25 49/141/135
f 79/13/13 81/15/15 52/122/117
f 48/149/143 68/143/137 76/7/7
f 8/21/21 101/23/23 109/110/108
f 90/112/110 92/123/118 15/80/79
f 4/2/2 89/140/134 91/142/136
f 226/169/159 217/135/129 93/137/131
f 235/130/124 94/129/123 22/56/55
f 95/126/121 99/127/102 42/171/161
f 22/172/162 94/124/119 95/126/121
f 92/123/118 96/118/116 31/173/163
f 35/174/75 97/119/115 194/121/81
f 31/173/163 96/118/116 97/117/115
f 7/36/35 39/5/5 109/110/108
f 42/176/161 99/104/102 166/106/104
f 106/53/52 110/311/98 66/178/164
f 45/108/106 64/152/146 98/1/1
f 59/113/111 107/31/30 108/88/87
f 236/58/57 105/60/59 56/132/126
f 105/54/53 106/53/52 58/101/99
f 100/39/38 103/32/31 51/138/132
f 103/32/31 107/31/30 59/113/111
f 101/23/23 102/22/22 50/144/138
f 218/20/20 104/19/19 54/147/141
f 46/151/145 89/140/134 98/1/1
f 177/183/169 131/255/221 138/184/170
f 147/186/172 127/276/231 137/187/81
f 134/189/81 136/212/81 151/190/81
f 133/192/173 135/201/180 179/193/174
f 137/187/81 134/189/81 150/191/81
f 138/184/170 133/192/173 178/194/175
f 123/195/176 131/256/221 177/196/169
f 124/198/178 132/277/222 149/199/94
f 135/201/180 132/257/222 191/202/95
f 162/203/181 130/243/216 111/204/182
f 190/206/184 129/312/214 113/207/185
f 126/209/187 128/259/223 175/210/83
f 136/212/81 128/278/223 161/213/89
f 117/214/189 125/219/194 146/215/190
f 118/217/192 126/209/187 174/211/188
f 125/219/194 127/279/231 147/220/172
f 172/221/195 121/260/224 123/195/176
f 144/222/196 122/280/232 124/198/178
f 241/223/197 237/261/225 121/224/198
f 219/226/200 119/262/226 171/227/201
f 220/229/203 120/281/233 143/230/204
f 239/232/206 238/282/234 122/233/207
f 139/205/183 111/204/182 117/214/189
f 168/208/186 113/207/185 118/217/192
f 140/10/10 114/240/213 116/235/209
f 167/4/4 112/242/215 115/237/211
f 190/239/184 182/29/28 114/240/213
f 162/203/181 153/17/17 112/242/215
f 38/3/3 4/2/2 153/17/17
f 2/244/24 140/10/10 141/236/210
f 3/93/91 139/205/183 142/216/191
f 239/232/206 144/234/208 21/62/61
f 221/231/205 143/230/204 17/247/219
f 144/222/196 145/200/179 25/64/63
f 146/215/190 147/220/172 33/248/220
f 142/216/191 146/215/190 29/87/86
f 151/190/81 161/213/89 34/249/88
f 38/3/3 162/203/181 139/205/183
f 145/200/179 149/199/94 41/251/93
f 108/252/87 152/188/81 150/191/81
f 150/191/81 151/190/81 75/250/112
f 33/254/220 147/186/172 152/188/81
f 163/177/96 166/106/104 138/184/170
f 164/105/103 165/94/92 135/201/180
f 166/106/104 164/105/103 133/192/173
f 159/74/73 163/98/96 131/256/221
f 135/201/180 165/94/92 149/96/94
f 113/207/185 129/312/214 148/258/12
f 126/209/187 160/79/78 161/90/89
f 156/34/33 160/79/78 126/209/187
f 158/72/71 159/74/73 123/195/176
f 240/55/54 158/57/56 121/224/198
f 219/226/200 222/49/48 157/51/50
f 154/35/34 156/34/33 118/217/192
f 153/17/17 155/16/16 115/237/211
f 114/240/213 140/10/10 148/12/12
f 40/263/9 6/27/8 182/29/28
f 8/21/21 167/4/4 169/238/212
f 5/265/90 168/208/186 170/218/193
f 223/228/202 171/227/201 19/267/228
f 241/223/197 172/225/199 23/59/58
f 172/221/195 173/197/177 27/99/97
f 170/218/193 174/211/188 32/269/84
f 174/211/188 175/210/83 36/270/82
f 40/271/9 190/206/184 168/208/186
f 179/193/174 191/202/95 44/161/152
f 173/197/177 177/196/169 43/272/230
f 110/273/98 180/185/171 178/194/175
f 178/194/175 179/193/174 77/102/100
f 43/275/230 177/183/169 180/185/171
f 189/175/76 194/121/81 137/187/81
f 192/120/81 193/82/81 136/212/81
f 194/121/81 192/120/81 134/189/81
f 187/71/70 191/97/95 132/277/222
f 111/204/182 130/243/216 176/6/6
f 136/212/81 193/82/81 175/84/83
f 184/37/36 188/75/74 125/219/194
f 125/219/194 188/75/74 189/77/76
f 186/69/68 187/71/70 124/198/178
f 220/229/203 224/46/45 185/48/47
f 242/40/39 186/42/41 122/233/207
f 181/38/37 184/37/36 117/214/189
f 182/29/28 183/28/27 116/235/209
f 112/242/215 167/4/4 176/6/6
f 116/283/209 183/302/27 210/284/235
f 169/238/212 209/293/242 195/286/237
f 115/237/211 155/16/16 208/287/238
f 141/289/210 207/292/241 197/290/240
f 116/283/209 206/285/236 207/292/241
f 115/237/211 205/288/239 209/293/242
f 50/144/138 102/22/22 204/294/243
f 91/142/136 203/301/250 198/296/245
f 49/141/135 80/25/25 202/297/246
f 69/145/139 201/300/249 196/299/248
f 50/144/138 200/295/244 201/300/249
f 49/141/135 199/298/247 203/301/250
f 155/16/16 10/168/158 198/296/245
f 183/302/27 12/313/148 196/303/248
f 80/25/25 9/291/217 197/290/240
f 102/22/22 11/264/227 195/286/237
f 206/285/236 210/284/235 224/46/45
f 209/293/242 223/228/202 211/18/18
f 205/288/239 208/287/238 222/49/48
f 207/292/241 221/231/205 212/43/42
f 206/285/236 220/229/203 221/231/205
f 205/288/239 219/226/200 223/228/202
f 200/295/244 204/294/243 218/20/20
f 198/296/245 203/301/250 217/135/129
f 199/298/247 202/297/246 216/45/44
f 196/299/248 201/300/249 215/146/140
f 200/295/244 214/182/168 215/146/140
f 199/298/247 213/167/157 217/135/129
f 208/287/238 198/296/245 226/169/159
f 210/284/235 196/303/248 225/304/147
f 197/290/240 212/43/42 216/45/44
f 195/286/237 211/18/18 218/20/20
f 185/48/47 242/40/39 238/282/234
f 171/227/201 241/223/197 230/268/229
f 157/51/50 240/55/54 237/261/225
f 143/230/204 239/232/206 228/246/218
f 143/230/204 120/281/233 238/282/234
f 171/227/201 119/262/226 237/261/225
f 104/19/19 236/58/57 232/180/166
f 93/137/131 235/130/124 229/170/160
f 53/136/130 82/44/43 234/61/60
f 71/148/142 233/131/125 227/160/151
f 71/148/142 54/147/141 232/180/166
f 53/136/130 231/128/122 235/130/124
f 82/44/43 17/247/219 228/246/218
f 104/19/19 19/267/228 230/268/229
f 157/51/50 18/50/49 229/170/160
f 185/48/47 20/47/46 227/305/151
