# Blender 4.4.1
# www.blender.org
mtllib Champagne.mtl
o Champagne
v 0.000000 -0.274535 -0.143220
v 0.000000 0.187004 -0.168428
v 0.027941 -0.274535 -0.140468
v 0.032859 0.187004 -0.165191
v 0.054808 -0.274535 -0.132318
v 0.064455 0.187004 -0.155607
v 0.079569 -0.274535 -0.119083
v 0.093573 0.187004 -0.140043
v 0.101272 -0.274535 -0.101272
v 0.119096 0.187004 -0.119096
v 0.119083 -0.274535 -0.079569
v 0.140043 0.187004 -0.093573
v 0.132318 -0.274535 -0.054808
v 0.155607 0.187004 -0.064455
v 0.140468 -0.274535 -0.027941
v 0.165191 0.187004 -0.032859
v 0.143220 -0.274535 0.000000
v 0.168428 0.187004 0.000000
v 0.140468 -0.274535 0.027941
v 0.165191 0.187004 0.032859
v 0.132318 -0.274535 0.054808
v 0.155607 0.187004 0.064455
v 0.119083 -0.274535 0.079569
v 0.140043 0.187004 0.093573
v 0.101272 -0.274535 0.101272
v 0.119096 0.187004 0.119096
v 0.079569 -0.274535 0.119083
v 0.093573 0.187004 0.140043
v 0.054808 -0.274535 0.132318
v 0.064455 0.187004 0.155607
v 0.027941 -0.274535 0.140468
v 0.032859 0.187004 0.165191
v 0.000000 -0.274535 0.143220
v 0.000000 0.187004 0.168428
v -0.027941 -0.274535 0.140468
v -0.032859 0.187004 0.165191
v -0.054808 -0.274535 0.132318
v -0.064455 0.187004 0.155607
v -0.079569 -0.274535 0.119083
v -0.093573 0.187004 0.140043
v -0.101272 -0.274535 0.101272
v -0.119096 0.187004 0.119096
v -0.119083 -0.274535 0.079569
v -0.140043 0.187004 0.093573
v -0.132318 -0.274535 0.054808
v -0.155607 0.187004 0.064455
v -0.140468 -0.274535 0.027941
v -0.165191 0.187004 0.032859
v -0.143220 -0.274535 0.000000
v -0.168428 0.187004 0.000000
v -0.140468 -0.274535 -0.027941
v -0.165191 0.187004 -0.032859
v -0.132318 -0.274535 -0.054808
v -0.155607 0.187004 -0.064455
v -0.119083 -0.274535 -0.079569
v -0.140043 0.187004 -0.093573
v -0.101272 -0.274535 -0.101272
v -0.119096 0.187004 -0.119096
v -0.079569 -0.274535 -0.119083
v -0.093573 0.187004 -0.140043
v -0.054808 -0.274535 -0.132318
v -0.064455 0.187004 -0.155607
v -0.027941 -0.274535 -0.140468
v -0.032859 0.187004 -0.165191
v 0.025228 0.341557 -0.126830
v 0.000000 0.341557 -0.129315
v 0.049487 0.341557 -0.119472
v 0.071844 0.341557 -0.107522
v 0.091440 0.341557 -0.091440
v 0.107522 0.341557 -0.071844
v 0.119472 0.341557 -0.049487
v 0.126830 0.341557 -0.025228
v 0.129315 0.341557 0.000000
v 0.126830 0.341557 0.025228
v 0.119472 0.341557 0.049487
v 0.107522 0.341557 0.071844
v 0.091440 0.341557 0.091440
v 0.071844 0.341557 0.107522
v 0.049487 0.341557 0.119472
v 0.025228 0.341557 0.126830
v 0.000000 0.341557 0.129315
v -0.025228 0.341557 0.126830
v -0.049487 0.341557 0.119472
v -0.071844 0.341557 0.107522
v -0.091440 0.341557 0.091440
v -0.107522 0.341557 0.071844
v -0.119472 0.341557 0.049487
v -0.126830 0.341557 0.025228
v -0.129315 0.341557 0.000000
v -0.126830 0.341557 -0.025228
v -0.119472 0.341557 -0.049487
v -0.107522 0.341557 -0.071844
v -0.091440 0.341557 -0.091440
v -0.071844 0.341557 -0.107522
v -0.049487 0.341557 -0.119472
v -0.025228 0.341557 -0.126830
v 0.010991 0.724179 -0.055253
v -0.000000 0.724179 -0.056336
v 0.021559 0.724179 -0.052047
v 0.031298 0.724179 -0.046841
v 0.039835 0.724179 -0.039835
v 0.046841 0.724179 -0.031298
v 0.052047 0.724179 -0.021559
v 0.055253 0.724179 -0.010991
v 0.056336 0.724179 -0.000000
v 0.055253 0.724179 0.010991
v 0.052047 0.724179 0.021559
v 0.046841 0.724179 0.031298
v 0.039835 0.724179 0.039835
v 0.031298 0.724179 0.046841
v 0.021559 0.724179 0.052047
v 0.010991 0.724179 0.055253
v -0.000000 0.724179 0.056336
v -0.010991 0.724179 0.055253
v -0.021559 0.724179 0.052047
v -0.031298 0.724179 0.046841
v -0.039835 0.724179 0.039835
v -0.046841 0.724179 0.031298
v -0.052047 0.724179 0.021559
v -0.055253 0.724179 0.010991
v -0.056336 0.724179 -0.000000
v -0.055253 0.724179 -0.010991
v -0.052047 0.724179 -0.021559
v -0.046841 0.724179 -0.031298
v -0.039835 0.724179 -0.039835
v -0.031298 0.724179 -0.046841
v -0.021559 0.724179 -0.052047
v -0.010991 0.724179 -0.055253
v 0.089476 0.264280 -0.124396
v 0.113881 0.264280 -0.105790
v 0.113881 0.264280 0.105790
v 0.089476 0.264280 0.124396
v -0.133910 0.264280 0.083119
v -0.148793 0.264280 0.057253
v -0.061632 0.264280 -0.138221
v -0.031420 0.264280 -0.146735
v 0.161052 0.264280 0.000000
v 0.157958 0.264280 0.029187
v -0.031420 0.264280 0.146735
v -0.061632 0.264280 0.138221
v -0.148793 0.264280 -0.057253
v -0.133910 0.264280 -0.083119
v 0.133910 0.264280 -0.083119
v 0.061632 0.264280 0.138221
v -0.157958 0.264280 0.029187
v 0.000000 0.264280 -0.149610
v 0.031420 0.264280 -0.146735
v 0.148793 0.264280 0.057253
v -0.089476 0.264280 0.124396
v -0.113881 0.264280 -0.105790
v 0.148793 0.264280 -0.057253
v 0.031420 0.264280 0.146735
v -0.161052 0.264280 0.000000
v 0.061632 0.264280 -0.138221
v 0.133910 0.264280 0.083119
v -0.113881 0.264280 0.105790
v -0.089476 0.264280 -0.124396
v 0.157958 0.264280 -0.029187
v 0.000000 0.264280 0.149610
v -0.157958 0.264280 -0.029187
v 0.116515 0.225642 -0.112643
v 0.091545 0.225642 0.132455
v -0.152235 0.225642 0.060962
v -0.032146 0.225642 -0.156241
v 0.161611 0.225642 0.031078
v -0.063058 0.225642 0.147176
v -0.137007 0.225642 -0.088503
v 0.137007 0.225642 -0.088503
v 0.063058 0.225642 0.147176
v -0.161611 0.225642 0.031078
v 0.032146 0.225642 -0.156241
v 0.152235 0.225642 0.060962
v -0.091545 0.225642 0.132455
v -0.116515 0.225642 -0.112643
v 0.152235 0.225642 -0.060962
v 0.032146 0.225642 0.156241
v -0.164777 0.225642 0.000000
v 0.063058 0.225642 -0.147176
v 0.137007 0.225642 0.088503
v -0.116515 0.225642 0.112643
v -0.091545 0.225642 -0.132455
v 0.161611 0.225642 -0.031078
v 0.000000 0.225642 0.159302
v -0.161611 0.225642 -0.031078
v 0.091545 0.225642 -0.132455
v 0.116515 0.225642 0.112643
v -0.137007 0.225642 0.088503
v -0.063058 0.225642 -0.147176
v 0.164777 0.225642 0.000000
v -0.032146 0.225642 0.156241
v -0.152235 0.225642 -0.060962
v 0.000000 0.225642 -0.159302
v 0.009497 0.807214 -0.051093
v -0.000000 0.807214 -0.052094
v 0.018630 0.807214 -0.048129
v 0.027046 0.807214 -0.043315
v 0.034423 0.807214 -0.036836
v 0.040477 0.807214 -0.028942
v 0.044976 0.807214 -0.019936
v 0.047746 0.807214 -0.010163
v 0.048682 0.807214 -0.000000
v 0.047746 0.807214 0.010163
v 0.044976 0.807214 0.019935
v 0.040477 0.807214 0.028942
v 0.034423 0.807214 0.036836
v 0.027046 0.807214 0.043315
v 0.018630 0.807214 0.048129
v 0.009497 0.807214 0.051093
v -0.000000 0.807214 0.052094
v -0.009497 0.807214 0.051093
v -0.018630 0.807214 0.048129
v -0.027046 0.807214 0.043315
v -0.034423 0.807214 0.036836
v -0.040477 0.807214 0.028942
v -0.044976 0.807214 0.019935
v -0.047746 0.807214 0.010163
v -0.048682 0.807214 -0.000000
v -0.047746 0.807214 -0.010163
v -0.044976 0.807214 -0.019936
v -0.040477 0.807214 -0.028942
v -0.034423 0.807214 -0.036836
v -0.027046 0.807214 -0.043315
v -0.018630 0.807214 -0.048129
v -0.009497 0.807214 -0.051093
v 0.011660 0.817988 -0.062729
v -0.000000 0.817988 -0.063957
v 0.022872 0.817988 -0.059089
v 0.033205 0.817988 -0.053179
v 0.042262 0.817988 -0.045225
v 0.049695 0.817988 -0.035533
v 0.055218 0.817988 -0.024475
v 0.058620 0.817988 -0.012477
v 0.059768 0.817988 -0.000000
v 0.058620 0.817988 0.012477
v 0.055218 0.817988 0.024475
v 0.049695 0.817988 0.035533
v 0.042262 0.817988 0.045225
v 0.033205 0.817988 0.053179
v 0.022872 0.817988 0.059089
v 0.011660 0.817988 0.062728
v -0.000000 0.817988 0.063957
v -0.011660 0.817988 0.062728
v -0.022872 0.817988 0.059089
v -0.033205 0.817988 0.053179
v -0.042262 0.817988 0.045225
v -0.049695 0.817988 0.035533
v -0.055218 0.817988 0.024475
v -0.058620 0.817988 0.012477
v -0.059768 0.817988 -0.000000
v -0.058620 0.817988 -0.012477
v -0.055218 0.817988 -0.024475
v -0.049695 0.817988 -0.035533
v -0.042262 0.817988 -0.045225
v -0.033205 0.817988 -0.053179
v -0.022872 0.817988 -0.059089
v -0.011660 0.817988 -0.062729
v 0.011660 0.934112 -0.062729
v 0.000000 0.934112 -0.063957
v 0.022872 0.934112 -0.059089
v 0.033205 0.934112 -0.053179
v 0.042262 0.934112 -0.045225
v 0.049695 0.934112 -0.035533
v 0.055219 0.934112 -0.024475
v 0.058620 0.934112 -0.012477
v 0.059768 0.934112 -0.000000
v 0.058620 0.934112 0.012477
v 0.055219 0.934112 0.024475
v 0.049695 0.934112 0.035533
v 0.042262 0.934112 0.045225
v 0.033205 0.934112 0.053179
v 0.022872 0.934112 0.059089
v 0.011660 0.934112 0.062728
v 0.000000 0.934112 0.063957
v -0.011660 0.934112 0.062728
v -0.022872 0.934112 0.059089
v -0.033205 0.934112 0.053179
v -0.042262 0.934112 0.045225
v -0.049695 0.934112 0.035533
v -0.055218 0.934112 0.024475
v -0.058620 0.934112 0.012477
v -0.059768 0.934112 -0.000000
v -0.058620 0.934112 -0.012477
v -0.055218 0.934112 -0.024475
v -0.049695 0.934112 -0.035533
v -0.042262 0.934112 -0.045225
v -0.033205 0.934112 -0.053179
v -0.022872 0.934112 -0.059089
v -0.011660 0.934112 -0.062729
v 0.006512 0.955642 -0.036482
v 0.000000 0.955642 -0.037168
v 0.012806 0.955642 -0.034439
v 0.018660 0.955642 -0.031090
v 0.023849 0.955642 -0.026533
v 0.028156 0.955642 -0.020918
v 0.031388 0.955642 -0.014448
v 0.033392 0.955642 -0.007379
v 0.034071 0.955642 -0.000000
v 0.033392 0.955642 0.007379
v 0.031388 0.955642 0.014448
v 0.028156 0.955642 0.020918
v 0.023849 0.955642 0.026533
v 0.018660 0.955642 0.031090
v 0.012806 0.955642 0.034439
v 0.006512 0.955642 0.036482
v 0.000000 0.955642 0.037168
v -0.006512 0.955642 0.036482
v -0.012806 0.955642 0.034439
v -0.018660 0.955642 0.031090
v -0.023849 0.955642 0.026533
v -0.028156 0.955642 0.020918
v -0.031388 0.955642 0.014448
v -0.033392 0.955642 0.007379
v -0.034071 0.955642 -0.000000
v -0.033392 0.955642 -0.007379
v -0.031388 0.955642 -0.014448
v -0.028156 0.955642 -0.020918
v -0.023849 0.955642 -0.026533
v -0.018660 0.955642 -0.031090
v -0.012806 0.955642 -0.034439
v -0.006512 0.955642 -0.036482
v 0.008659 0.951452 -0.046582
v 0.000000 0.951452 -0.047495
v 0.016985 0.951452 -0.043879
v 0.024658 0.951452 -0.039490
v 0.031384 0.951452 -0.033584
v 0.036904 0.951452 -0.026387
v 0.041005 0.951452 -0.018175
v 0.043531 0.951452 -0.009266
v 0.044384 0.951452 -0.000000
v 0.043531 0.951452 0.009266
v 0.041005 0.951452 0.018175
v 0.036904 0.951452 0.026387
v 0.031384 0.951452 0.033584
v 0.024658 0.951452 0.039490
v 0.016985 0.951452 0.043879
v 0.008659 0.951452 0.046582
v 0.000000 0.951452 0.047495
v -0.008659 0.951452 0.046582
v -0.016985 0.951452 0.043879
v -0.024658 0.951452 0.039490
v -0.031384 0.951452 0.033584
v -0.036903 0.951452 0.026387
v -0.041005 0.951452 0.018175
v -0.043531 0.951452 0.009266
v -0.044383 0.951452 -0.000000
v -0.043531 0.951452 -0.009266
v -0.041005 0.951452 -0.018175
v -0.036903 0.951452 -0.026387
v -0.031384 0.951452 -0.033584
v -0.024658 0.951452 -0.039490
v -0.016985 0.951452 -0.043879
v -0.008659 0.951452 -0.046582
v -0.076586 0.532868 0.031723
v -0.081303 0.532868 0.016172
v 0.081303 0.532868 0.016172
v 0.076586 0.532868 0.031723
v -0.082896 0.532868 -0.000000
v 0.068926 0.532868 0.046055
v -0.081303 0.532868 -0.016172
v 0.058616 0.532868 0.058617
v -0.076586 0.532868 -0.031723
v 0.046055 0.532868 0.068926
v -0.068926 0.532868 -0.046055
v 0.031723 0.532868 0.076586
v -0.000000 0.532868 -0.082896
v 0.016172 0.532868 -0.081303
v -0.058617 0.532868 -0.058617
v 0.016172 0.532868 0.081303
v 0.031723 0.532868 -0.076586
v -0.046055 0.532868 -0.068926
v -0.000000 0.532868 0.082896
v 0.046055 0.532868 -0.068926
v -0.031723 0.532868 -0.076586
v -0.016172 0.532868 0.081303
v 0.058616 0.532868 -0.058617
v -0.016172 0.532868 -0.081303
v -0.031723 0.532868 0.076586
v 0.068926 0.532868 -0.046055
v -0.046055 0.532868 0.068926
v 0.076586 0.532868 -0.031723
v -0.058617 0.532868 0.058617
v 0.081303 0.532868 -0.016172
v -0.068926 0.532868 0.046055
v 0.082896 0.532868 -0.000000
v -0.102332 0.437212 0.020355
v 0.096395 0.437212 0.039928
v -0.104337 0.437212 0.000000
v 0.086753 0.437212 0.057967
v -0.102332 0.437212 -0.020355
v 0.073778 0.437212 0.073778
v -0.096395 0.437212 -0.039928
v 0.057967 0.437212 0.086753
v -0.086753 0.437212 -0.057967
v 0.039928 0.437212 0.096395
v 0.020355 0.437212 -0.102332
v -0.073778 0.437212 -0.073778
v 0.020355 0.437212 0.102332
v 0.039928 0.437212 -0.096395
v -0.057967 0.437212 -0.086753
v -0.000000 0.437212 0.104337
v 0.057967 0.437212 -0.086753
v -0.039928 0.437212 -0.096395
v -0.020355 0.437212 0.102332
v 0.073778 0.437212 -0.073778
v -0.020355 0.437212 -0.102332
v -0.039928 0.437212 0.096395
v 0.086753 0.437212 -0.057967
v -0.057967 0.437212 0.086753
v 0.096395 0.437212 -0.039928
v -0.073778 0.437212 0.073778
v 0.102332 0.437212 -0.020355
v -0.086753 0.437212 0.057967
v 0.104337 0.437212 0.000000
v -0.096395 0.437212 0.039928
v 0.102332 0.437212 0.020355
v -0.000000 0.437212 -0.104337
v -0.060946 0.628524 0.025244
v 0.064699 0.628524 0.012870
v -0.000000 0.628524 -0.065967
v -0.064699 0.628524 0.012870
v 0.060946 0.628524 0.025244
v -0.065967 0.628524 -0.000000
v 0.054850 0.628524 0.036649
v -0.064699 0.628524 -0.012870
v 0.046646 0.628524 0.046646
v -0.060946 0.628524 -0.025244
v 0.036649 0.628524 0.054850
v -0.054850 0.628524 -0.036649
v 0.025244 0.628524 0.060946
v 0.012870 0.628524 -0.064699
v -0.046646 0.628524 -0.046646
v 0.012870 0.628524 0.064699
v 0.025244 0.628524 -0.060946
v -0.036649 0.628524 -0.054850
v -0.000000 0.628524 0.065967
v 0.036649 0.628524 -0.054850
v -0.025244 0.628524 -0.060946
v -0.012870 0.628524 0.064699
v 0.046646 0.628524 -0.046646
v -0.012870 0.628524 -0.064699
v -0.025244 0.628524 0.060946
v 0.054850 0.628524 -0.036649
v -0.036649 0.628524 0.054850
v 0.060946 0.628524 -0.025244
v -0.046646 0.628524 0.046646
v 0.064699 0.628524 -0.012870
v -0.054850 0.628524 0.036649
v 0.065967 0.628524 -0.000000
v 0.000000 -0.255613 -0.168428
v 0.032859 -0.255613 -0.165191
v 0.064455 -0.255613 -0.155607
v 0.093573 -0.255613 -0.140043
v 0.119096 -0.255613 -0.119096
v 0.140043 -0.255613 -0.093573
v 0.155607 -0.255613 -0.064455
v 0.165191 -0.255613 -0.032859
v 0.168428 -0.255613 0.000000
v 0.165191 -0.255613 0.032859
v 0.155607 -0.255613 0.064455
v 0.140043 -0.255613 0.093573
v 0.119096 -0.255613 0.119096
v 0.093573 -0.255613 0.140043
v 0.064455 -0.255613 0.155607
v 0.032859 -0.255613 0.165191
v 0.000000 -0.255613 0.168428
v -0.032859 -0.255613 0.165191
v -0.064455 -0.255613 0.155607
v -0.093573 -0.255613 0.140043
v -0.119096 -0.255613 0.119096
v -0.140043 -0.255613 0.093573
v -0.155607 -0.255613 0.064455
v -0.165191 -0.255613 0.032859
v -0.168428 -0.255613 0.000000
v -0.165191 -0.255613 -0.032859
v -0.155607 -0.255613 -0.064455
v -0.140043 -0.255613 -0.093573
v -0.119096 -0.255613 -0.119096
v -0.093573 -0.255613 -0.140043
v -0.064455 -0.255613 -0.155607
v -0.032859 -0.255613 -0.165191
vn -0.0000 0.1149 -0.9934
vn 0.1755 -0.4362 -0.8825
vn -0.0000 -0.4362 -0.8998
vn 0.1927 0.1128 -0.9747
vn 0.3443 -0.4362 -0.8313
vn 0.3782 0.1064 -0.9196
vn 0.4999 -0.4362 -0.7482
vn 0.5501 0.0962 -0.8295
vn 0.6363 -0.4362 -0.6363
vn 0.7019 0.0836 -0.7074
vn 0.7482 -0.4362 -0.4999
vn 0.8273 0.0705 -0.5573
vn 0.8313 -0.4362 -0.3444
vn 0.9211 0.0589 -0.3848
vn 0.8825 -0.4362 -0.1755
vn 0.9792 0.0507 -0.1967
vn 0.8998 -0.4362 -0.0000
vn 0.9989 0.0477 -0.0000
vn 0.8825 -0.4362 0.1755
vn 0.9792 0.0507 0.1967
vn 0.8313 -0.4362 0.3443
vn 0.9211 0.0589 0.3848
vn 0.7482 -0.4362 0.4999
vn 0.8273 0.0705 0.5573
vn 0.6363 -0.4362 0.6363
vn 0.7019 0.0836 0.7074
vn 0.4999 -0.4362 0.7482
vn 0.5501 0.0962 0.8295
vn 0.3444 -0.4362 0.8313
vn 0.3782 0.1064 0.9196
vn 0.1755 -0.4362 0.8825
vn 0.1927 0.1128 0.9747
vn -0.0000 -0.4362 0.8998
vn -0.0000 0.1149 0.9934
vn -0.1755 -0.4362 0.8825
vn -0.1927 0.1128 0.9747
vn -0.3443 -0.4362 0.8313
vn -0.3782 0.1064 0.9196
vn -0.4999 -0.4362 0.7482
vn -0.5501 0.0962 0.8295
vn -0.6363 -0.4362 0.6363
vn -0.7019 0.0836 0.7074
vn -0.7482 -0.4362 0.4999
vn -0.8273 0.0705 0.5573
vn -0.8313 -0.4362 0.3444
vn -0.9211 0.0589 0.3848
vn -0.8825 -0.4362 0.1755
vn -0.9792 0.0507 0.1967
vn -0.8998 -0.4362 -0.0000
vn -0.9989 0.0477 -0.0000
vn -0.8825 -0.4362 -0.1755
vn -0.9792 0.0507 -0.1967
vn -0.8313 -0.4362 -0.3443
vn -0.9211 0.0589 -0.3848
vn -0.7482 -0.4362 -0.4999
vn -0.8273 0.0705 -0.5573
vn -0.6363 -0.4362 -0.6363
vn -0.7019 0.0836 -0.7074
vn -0.4999 -0.4362 -0.7482
vn -0.5501 0.0962 -0.8295
vn -0.3444 -0.4362 -0.8313
vn 0.5183 0.2464 -0.8190
vn 0.6750 0.2838 -0.6811
vn 0.6666 0.2446 -0.7042
vn -0.3782 0.1064 -0.9196
vn -0.1755 -0.4362 -0.8825
vn -0.1927 0.1128 -0.9747
vn 0.0652 -0.9426 0.3276
vn -0.3276 -0.9426 0.0652
vn -0.0652 -0.9426 -0.3276
vn -0.9151 0.1376 0.3790
vn -0.9764 0.0954 0.1938
vn -0.9715 0.1376 0.1932
vn 0.5183 0.2464 0.8190
vn 0.6750 0.2838 0.6811
vn 0.5315 0.2716 0.8023
vn -0.7924 0.2424 0.5597
vn -0.8780 0.3069 0.3672
vn -0.8891 0.2403 0.3897
vn -0.1798 0.2484 -0.9518
vn -0.3668 0.2616 -0.8928
vn -0.1874 0.2554 -0.9485
vn 0.9502 0.2388 0.2004
vn 0.9483 0.3173 -0.0000
vn 0.9306 0.3145 0.1871
vn -0.1798 0.2484 0.9518
vn -0.3668 0.2616 0.8928
vn -0.3541 0.2477 0.9018
vn -0.7924 0.2424 -0.5597
vn -0.8780 0.3069 -0.3672
vn -0.7919 0.2962 -0.5340
vn 0.7919 0.2962 -0.5340
vn 0.7924 0.2424 -0.5597
vn 0.3541 0.2477 0.9018
vn 0.3668 0.2616 0.8928
vn -0.9306 0.3145 0.1871
vn -0.9502 0.2388 0.2004
vn -0.0000 0.2486 -0.9686
vn 0.1874 0.2554 -0.9485
vn 0.1798 0.2484 -0.9518
vn -0.0000 0.2533 -0.9674
vn 0.8891 0.2403 0.3897
vn 0.8780 0.3069 0.3672
vn -0.5315 0.2716 0.8023
vn -0.5183 0.2464 0.8190
vn -0.6666 0.2446 -0.7042
vn -0.6750 0.2838 -0.6811
vn 0.8780 0.3069 -0.3672
vn 0.8891 0.2403 -0.3897
vn 0.1798 0.2484 0.9518
vn 0.1874 0.2554 0.9485
vn -0.9483 0.3173 -0.0000
vn -0.9712 0.2383 -0.0000
vn 0.3668 0.2616 -0.8928
vn 0.3541 0.2477 -0.9018
vn 0.7924 0.2424 0.5597
vn 0.7919 0.2962 0.5340
vn -0.6750 0.2838 0.6811
vn -0.6666 0.2446 0.7042
vn -0.5183 0.2464 -0.8190
vn -0.5315 0.2716 -0.8023
vn 0.9306 0.3145 -0.1871
vn 0.9502 0.2388 -0.2004
vn -0.0000 0.2486 0.9686
vn -0.0000 0.2533 0.9674
vn -0.9502 0.2388 -0.2004
vn -0.9306 0.3145 -0.1871
vn 0.5315 0.2716 -0.8023
vn 0.6666 0.2446 0.7042
vn -0.7919 0.2962 0.5340
vn -0.3541 0.2477 -0.9018
vn 0.9712 0.2383 -0.0000
vn -0.1874 0.2554 0.9485
vn -0.8891 0.2403 -0.3897
vn 0.1951 0.0770 -0.9778
vn 0.4026 0.0561 -0.9137
vn 0.3824 0.0795 -0.9206
vn 0.9715 0.1376 0.1932
vn 0.9201 0.0936 0.3803
vn 0.9151 0.1376 0.3790
vn -0.9954 0.0960 -0.0000
vn -0.9905 0.1376 -0.0000
vn 0.8287 0.0906 0.5524
vn 0.8236 0.1376 0.5503
vn -0.9764 0.0954 -0.1938
vn -0.9715 0.1376 -0.1932
vn 0.7053 0.0868 0.7036
vn 0.7004 0.1376 0.7004
vn -0.9201 0.0936 -0.3803
vn -0.9151 0.1376 -0.3790
vn 0.5547 0.0830 0.8279
vn 0.5503 0.1376 0.8236
vn -0.8287 0.0906 -0.5524
vn -0.8236 0.1376 -0.5503
vn 0.3824 0.0795 0.9206
vn 0.3790 0.1376 0.9151
vn -0.0000 0.1376 -0.9905
vn 0.1932 0.1376 -0.9715
vn -0.7053 0.0868 -0.7036
vn -0.7004 0.1376 -0.7004
vn 0.1951 0.0770 0.9778
vn 0.1932 0.1376 0.9715
vn 0.3790 0.1376 -0.9151
vn -0.5547 0.0830 -0.8279
vn -0.5503 0.1376 -0.8236
vn -0.0000 0.0761 0.9971
vn -0.0000 0.1376 0.9905
vn 0.5547 0.0830 -0.8279
vn 0.5503 0.1376 -0.8236
vn -0.3824 0.0795 -0.9206
vn -0.3790 0.1376 -0.9151
vn -0.1951 0.0770 0.9778
vn -0.1932 0.1376 0.9715
vn 0.7053 0.0868 -0.7036
vn 0.7004 0.1376 -0.7004
vn -0.1951 0.0770 -0.9778
vn -0.1932 0.1376 -0.9715
vn -0.3824 0.0795 0.9206
vn -0.3790 0.1376 0.9151
vn 0.8287 0.0906 -0.5524
vn 0.8236 0.1376 -0.5503
vn -0.0000 0.0761 -0.9971
vn -0.5547 0.0830 0.8279
vn -0.5503 0.1376 0.8236
vn 0.9201 0.0936 -0.3803
vn 0.9151 0.1376 -0.3790
vn -0.7053 0.0868 0.7036
vn -0.7004 0.1376 0.7004
vn 0.9764 0.0954 -0.1938
vn 0.9715 0.1376 -0.1932
vn -0.8287 0.0906 0.5524
vn -0.8236 0.1376 0.5503
vn 0.9954 0.0960 -0.0000
vn 0.9905 0.1376 -0.0000
vn -0.9201 0.0936 0.3803
vn 0.9764 0.0954 0.1938
vn -0.9743 0.1017 -0.2012
vn -0.9126 0.1178 -0.3915
vn -0.1845 0.2308 0.9553
vn 0.9954 0.0959 -0.0000
vn -0.5326 0.1948 -0.8236
vn -0.3636 0.2166 -0.9060
vn -0.8143 0.1413 0.5630
vn 0.8143 0.1413 0.5630
vn 0.6853 0.1684 0.7086
vn 0.5326 0.1948 -0.8236
vn -0.9954 0.0959 -0.0000
vn 0.1845 0.2308 0.9553
vn -0.0000 0.2358 0.9718
vn 0.9743 0.1017 -0.2012
vn -0.6853 0.1684 -0.7086
vn -0.6853 0.1684 0.7086
vn 0.9126 0.1178 0.3915
vn 0.3636 0.2166 -0.9060
vn 0.3636 0.2166 0.9060
vn 0.9126 0.1178 -0.3915
vn -0.8143 0.1413 -0.5630
vn -0.5326 0.1948 0.8236
vn 0.9743 0.1017 0.2012
vn -0.1845 0.2308 -0.9553
vn -0.0000 0.2358 -0.9718
vn 0.1845 0.2308 -0.9553
vn -0.9743 0.1017 0.2012
vn 0.5326 0.1948 0.8236
vn 0.8143 0.1413 -0.5630
vn -0.3636 0.2166 0.9060
vn -0.9126 0.1178 0.3915
vn 0.6853 0.1684 -0.7086
vn 0.5860 -0.7240 0.3640
vn 0.8609 -0.3833 0.3344
vn 0.7819 -0.3855 0.4899
vn -0.7267 0.0700 -0.6834
vn -0.5781 0.0624 -0.8136
vn 0.2069 0.0522 0.9770
vn -0.0000 0.0510 0.9987
vn 0.5781 0.0624 -0.8136
vn -0.4026 0.0561 -0.9137
vn -0.2069 0.0522 0.9770
vn 0.7267 0.0700 -0.6834
vn -0.2069 0.0522 -0.9770
vn -0.4026 0.0561 0.9137
vn 0.8441 0.0777 -0.5306
vn -0.0000 0.0510 -0.9987
vn -0.5781 0.0624 0.8136
vn 0.9284 0.0844 -0.3619
vn -0.7267 0.0700 0.6834
vn 0.9790 0.0892 -0.1834
vn -0.8441 0.0777 0.5306
vn 0.9958 0.0910 -0.0000
vn -0.9284 0.0844 0.3619
vn 0.9790 0.0892 0.1834
vn -0.9790 0.0892 0.1834
vn 0.9284 0.0844 0.3619
vn -0.9958 0.0910 -0.0000
vn 0.8441 0.0777 0.5306
vn -0.9790 0.0892 -0.1834
vn 0.7267 0.0700 0.6834
vn -0.9284 0.0844 -0.3619
vn 0.5781 0.0624 0.8136
vn -0.8441 0.0777 -0.5306
vn 0.4026 0.0561 0.9137
vn 0.2069 0.0522 -0.9770
vn -0.7819 -0.3855 -0.4899
vn -0.8731 0.3503 -0.3391
vn -0.7930 0.3525 -0.4969
vn -0.6845 -0.7180 -0.1266
vn -0.9244 -0.3814 -0.0000
vn -0.9085 -0.3819 -0.1695
vn 0.5018 -0.7284 0.4665
vn 0.6722 -0.3881 0.6304
vn -0.6473 -0.7204 -0.2492
vn -0.8609 -0.3833 -0.3344
vn 0.3971 -0.7329 0.5525
vn 0.5341 -0.3908 0.7497
vn -0.5860 -0.7240 -0.3640
vn 0.2752 -0.7367 0.6177
vn 0.3715 -0.3930 0.8411
vn -0.0000 -0.7403 -0.6723
vn 0.1906 -0.3946 -0.8989
vn 0.1409 -0.7394 -0.6584
vn -0.5018 -0.7284 -0.4665
vn -0.6722 -0.3881 -0.6304
vn 0.1409 -0.7394 0.6584
vn 0.1906 -0.3946 0.8989
vn 0.3715 -0.3930 -0.8411
vn 0.2752 -0.7367 -0.6176
vn -0.3971 -0.7329 -0.5525
vn -0.5341 -0.3908 -0.7497
vn -0.0000 -0.7403 0.6723
vn -0.0000 -0.3951 0.9186
vn 0.5341 -0.3908 -0.7497
vn 0.3971 -0.7328 -0.5525
vn -0.2752 -0.7367 -0.6176
vn -0.3715 -0.3930 -0.8411
vn -0.1906 -0.3946 0.8989
vn -0.1409 -0.7394 0.6584
vn 0.6722 -0.3881 -0.6304
vn 0.5018 -0.7284 -0.4665
vn -0.1409 -0.7394 -0.6584
vn -0.1906 -0.3946 -0.8989
vn -0.3715 -0.3930 0.8411
vn -0.2752 -0.7367 0.6176
vn 0.7819 -0.3855 -0.4899
vn 0.5860 -0.7240 -0.3640
vn -0.0000 -0.3951 -0.9186
vn -0.5341 -0.3908 0.7497
vn -0.3971 -0.7329 0.5525
vn 0.8609 -0.3833 -0.3344
vn 0.6473 -0.7204 -0.2492
vn -0.6722 -0.3881 0.6304
vn -0.5018 -0.7284 0.4665
vn 0.9085 -0.3819 -0.1695
vn 0.6845 -0.7180 -0.1266
vn -0.7819 -0.3855 0.4899
vn -0.5860 -0.7240 0.3640
vn 0.9244 -0.3814 -0.0000
vn 0.6969 -0.7171 -0.0000
vn -0.8609 -0.3833 0.3344
vn -0.6473 -0.7204 0.2492
vn 0.6845 -0.7180 0.1266
vn 0.9085 -0.3819 0.1695
vn -0.9085 -0.3819 0.1695
vn -0.6845 -0.7180 0.1266
vn 0.6473 -0.7204 0.2492
vn -0.6969 -0.7171 -0.0000
vn 0.5418 0.3579 -0.7605
vn 0.2335 0.8182 -0.5253
vn 0.3363 0.8166 -0.4690
vn 0.3769 0.3603 0.8533
vn -0.0000 0.3624 -0.9320
vn 0.1934 0.3619 -0.9119
vn -0.6819 0.3552 -0.6394
vn 0.1934 0.3619 0.9119
vn 0.3769 0.3603 -0.8533
vn -0.5418 0.3579 -0.7605
vn -0.0000 0.3624 0.9320
vn -0.3769 0.3603 -0.8533
vn -0.1934 0.3619 0.9119
vn 0.6819 0.3552 -0.6394
vn -0.1934 0.3619 -0.9119
vn -0.3769 0.3603 0.8533
vn 0.7930 0.3525 -0.4969
vn -0.5418 0.3579 0.7605
vn 0.8731 0.3503 -0.3391
vn -0.6819 0.3552 0.6394
vn 0.9213 0.3488 -0.1718
vn -0.7930 0.3525 0.4969
vn 0.9374 0.3482 -0.0000
vn -0.8731 0.3503 0.3391
vn 0.9213 0.3488 0.1718
vn -0.9213 0.3488 0.1718
vn 0.8731 0.3503 0.3391
vn -0.9374 0.3482 -0.0000
vn 0.7930 0.3525 0.4969
vn -0.9213 0.3488 -0.1718
vn 0.6819 0.3552 0.6394
vn 0.5418 0.3579 0.7605
vn 0.1483 0.9792 -0.1388
vn 0.1182 0.9791 -0.1655
vn -0.1483 0.9792 -0.1388
vn -0.2335 0.8182 -0.5253
vn -0.0000 0.8197 0.5728
vn -0.1197 0.8193 0.5607
vn 0.4241 0.8148 -0.3952
vn -0.1197 0.8193 -0.5607
vn -0.2335 0.8182 0.5253
vn 0.4942 0.8130 -0.3077
vn -0.0000 0.8197 -0.5728
vn -0.3363 0.8166 0.4690
vn 0.5451 0.8116 -0.2104
vn -0.4241 0.8148 0.3952
vn 0.5758 0.8106 -0.1067
vn -0.4942 0.8130 0.3077
vn 0.5861 0.8103 -0.0000
vn -0.5451 0.8116 0.2104
vn 0.5758 0.8106 0.1067
vn -0.5758 0.8106 0.1067
vn 0.5451 0.8116 0.2104
vn -0.5861 0.8103 -0.0000
vn 0.4942 0.8130 0.3077
vn -0.5758 0.8106 -0.1067
vn 0.4241 0.8148 0.3952
vn -0.5451 0.8116 -0.2104
vn 0.3363 0.8166 0.4690
vn -0.4942 0.8130 -0.3077
vn 0.2335 0.8182 0.5253
vn 0.1197 0.8193 -0.5607
vn -0.4241 0.8148 -0.3952
vn 0.1197 0.8193 0.5607
vn -0.3363 0.8166 -0.4690
vn -0.0000 0.9790 -0.2038
vn 0.0424 0.9790 -0.1993
vn 0.0824 0.9791 -0.1862
vn 0.1720 0.9792 -0.1075
vn 0.1890 0.9792 -0.0732
vn 0.1991 0.9793 -0.0371
vn 0.1991 0.9793 0.0371
vn 0.2025 0.9793 -0.0000
vn 0.1890 0.9792 0.0732
vn 0.1720 0.9792 0.1075
vn 0.1483 0.9792 0.1388
vn 0.1182 0.9791 0.1655
vn 0.0824 0.9791 0.1862
vn 0.0424 0.9790 0.1993
vn -0.0000 0.9790 0.2038
vn -0.0424 0.9790 0.1993
vn -0.0824 0.9791 0.1862
vn -0.1182 0.9791 0.1655
vn -0.1483 0.9792 0.1388
vn -0.1720 0.9792 0.1075
vn -0.1890 0.9792 0.0732
vn -0.1991 0.9793 0.0371
vn -0.1991 0.9793 -0.0371
vn -0.2025 0.9793 -0.0000
vn -0.1890 0.9792 -0.0732
vn -0.1720 0.9792 -0.1075
vn -0.1182 0.9791 -0.1655
vn -0.0824 0.9791 -0.1862
vn -0.0424 0.9790 -0.1993
vn 0.9718 0.2360 -0.0000
vn 0.9616 0.1968 0.1913
vn 0.9531 0.2360 0.1896
vn -0.8080 0.2360 0.5399
vn -0.9058 0.1968 0.3752
vn -0.8978 0.2360 0.3719
vn 0.9616 0.1968 -0.1913
vn 0.9804 0.1968 -0.0000
vn -0.6871 0.2360 0.6871
vn -0.8152 0.1968 0.5447
vn 0.8978 0.2360 -0.3719
vn 0.9531 0.2360 -0.1896
vn -0.5447 0.1968 0.8152
vn -0.6933 0.1968 0.6933
vn 0.8152 0.1968 -0.5447
vn 0.9058 0.1968 -0.3752
vn -0.3719 0.2360 0.8978
vn -0.5399 0.2360 0.8080
vn -0.1896 0.2360 -0.9531
vn -0.0000 0.1968 -0.9804
vn -0.0000 0.2360 -0.9718
vn 0.6871 0.2360 -0.6871
vn 0.8080 0.2360 -0.5399
vn -0.1913 0.1968 0.9616
vn -0.3752 0.1968 0.9058
vn -0.3719 0.2360 -0.8978
vn -0.1913 0.1968 -0.9616
vn 0.5399 0.2360 -0.8080
vn 0.6933 0.1968 -0.6933
vn -0.1896 0.2360 0.9531
vn -0.0000 0.1968 0.9804
vn -0.5399 0.2360 -0.8080
vn -0.3752 0.1968 -0.9058
vn 0.3719 0.2360 -0.8978
vn 0.5447 0.1968 -0.8152
vn 0.1896 0.2360 0.9531
vn -0.0000 0.2360 0.9718
vn -0.6871 0.2360 -0.6871
vn -0.5447 0.1968 -0.8152
vn 0.1896 0.2360 -0.9531
vn 0.3752 0.1968 -0.9058
vn 0.3719 0.2360 0.8978
vn 0.1913 0.1968 0.9616
vn -0.8080 0.2360 -0.5399
vn -0.6933 0.1968 -0.6933
vn 0.1913 0.1968 -0.9616
vn 0.5447 0.1968 0.8152
vn 0.3752 0.1968 0.9058
vn -0.8978 0.2360 -0.3719
vn -0.8152 0.1968 -0.5447
vn 0.6871 0.2360 0.6871
vn 0.5399 0.2360 0.8080
vn -0.9531 0.2360 -0.1896
vn -0.9058 0.1968 -0.3752
vn 0.8152 0.1968 0.5447
vn 0.6933 0.1968 0.6933
vn -0.9718 0.2360 -0.0000
vn -0.9616 0.1968 -0.1913
vn 0.8978 0.2360 0.3719
vn 0.8080 0.2360 0.5399
vn -0.9531 0.2360 0.1896
vn -0.9804 0.1968 -0.0000
vn 0.9058 0.1968 0.3752
vn -0.9616 0.1968 0.1913
vn -0.0000 -0.9426 -0.3340
vn 0.0652 -0.9426 -0.3276
vn 0.1278 -0.9426 -0.3086
vn 0.1856 -0.9426 -0.2777
vn 0.2362 -0.9426 -0.2362
vn 0.2777 -0.9426 -0.1856
vn 0.3086 -0.9426 -0.1278
vn 0.3276 -0.9426 -0.0652
vn 0.3340 -0.9426 -0.0000
vn 0.3276 -0.9426 0.0652
vn 0.3086 -0.9426 0.1278
vn 0.2777 -0.9426 0.1856
vn 0.2362 -0.9426 0.2362
vn 0.1856 -0.9426 0.2777
vn 0.1278 -0.9426 0.3086
vn -0.0000 -0.9426 0.3340
vn -0.0652 -0.9426 0.3276
vn -0.1278 -0.9426 0.3086
vn -0.1856 -0.9426 0.2777
vn -0.2362 -0.9426 0.2362
vn -0.2777 -0.9426 0.1856
vn -0.3086 -0.9426 0.1278
vn -0.3340 -0.9426 -0.0000
vn -0.3276 -0.9426 -0.0652
vn -0.3086 -0.9426 -0.1278
vn -0.2777 -0.9426 -0.1856
vn -0.2362 -0.9426 -0.2362
vn -0.1856 -0.9426 -0.2777
vn -0.1278 -0.9426 -0.3086
vt 0.207228 0.341407
vt 0.170203 0.030349
vt 0.194391 0.029242
vt 0.184377 0.344051
vt 0.146053 0.031537
vt 0.161248 0.347026
vt 0.121931 0.032754
vt 0.137758 0.350312
vt 0.097840 0.033930
vt 0.113810 0.353868
vt 0.073771 0.034945
vt 0.089301 0.357631
vt 0.049669 0.035588
vt 0.064106 0.361500
vt 0.025332 0.035488
vt 0.038108 0.365298
vt 0.000131 0.034077
vt 0.759777 0.372409
vt 0.748625 0.038411
vt 0.774084 0.037464
vt 0.732608 0.368584
vt 0.723855 0.038683
vt 0.706438 0.364392
vt 0.699319 0.037852
vt 0.681113 0.360168
vt 0.675096 0.036697
vt 0.656492 0.356091
vt 0.651069 0.035245
vt 0.632452 0.352260
vt 0.626901 0.034228
vt 0.608891 0.348735
vt 0.602524 0.032764
vt 0.585706 0.345546
vt 0.578292 0.031499
vt 0.562814 0.342709
vt 0.554161 0.030360
vt 0.540206 0.340406
vt 0.530100 0.029333
vt 0.517800 0.338421
vt 0.506088 0.028425
vt 0.495534 0.336749
vt 0.482117 0.027646
vt 0.473360 0.335380
vt 0.458185 0.027006
vt 0.451242 0.334299
vt 0.434297 0.026504
vt 0.429154 0.333501
vt 0.410462 0.026129
vt 0.407075 0.332987
vt 0.386695 0.025842
vt 0.384993 0.332772
vt 0.362997 0.025554
vt 0.362908 0.332826
vt 0.339112 0.025918
vt 0.340831 0.333180
vt 0.314964 0.025971
vt 0.318743 0.333818
vt 0.290966 0.026261
vt 0.296626 0.334739
vt 0.267072 0.026591
vt 0.274455 0.335948
vt 0.243007 0.027587
vt 0.143697 0.408983
vt 0.141066 0.477909
vt 0.120237 0.413413
vt 0.252200 0.337457
vt 0.218644 0.028280
vt 0.229811 0.339276
vt 0.774347 0.423081
vt 0.876002 0.299214
vt 0.999869 0.400869
vt 0.410099 0.716793
vt 0.394768 0.812720
vt 0.396979 0.716324
vt 0.625851 0.411075
vt 0.627591 0.480059
vt 0.606692 0.474233
vt 0.445010 0.386950
vt 0.424529 0.446897
vt 0.424589 0.385746
vt 0.237183 0.394933
vt 0.264370 0.453379
vt 0.244164 0.456149
vt 0.720270 0.433589
vt 0.712809 0.512861
vt 0.691359 0.502910
vt 0.532381 0.396070
vt 0.504715 0.454282
vt 0.509686 0.393175
vt 0.324592 0.386510
vt 0.344632 0.446669
vt 0.324625 0.447665
vt 0.119863 0.484236
vt 0.096794 0.418308
vt 0.602350 0.406771
vt 0.586037 0.469174
vt 0.404551 0.446261
vt 0.404579 0.384983
vt 0.214041 0.398017
vt 0.203429 0.463170
vt 0.190689 0.401294
vt 0.223858 0.459344
vt 0.696300 0.426915
vt 0.669953 0.494247
vt 0.484615 0.451767
vt 0.487527 0.390679
vt 0.303626 0.387999
vt 0.304584 0.449125
vt 0.098381 0.491527
vt 0.073220 0.423774
vt 0.578866 0.402865
vt 0.565511 0.464642
vt 0.384584 0.446052
vt 0.384807 0.384653
vt 0.182837 0.467481
vt 0.167201 0.404952
vt 0.672743 0.421054
vt 0.648682 0.486684
vt 0.464559 0.449693
vt 0.465968 0.388598
vt 0.282056 0.389912
vt 0.284503 0.451034
vt 0.076791 0.499825
vt 0.049218 0.429980
vt 0.555517 0.399361
vt 0.545144 0.460617
vt 0.365033 0.384838
vt 0.364618 0.446089
vt 0.162056 0.472362
vt 0.649307 0.415813
vt 0.444533 0.448066
vt 0.259887 0.392229
vt 0.055093 0.509392
vt 0.024249 0.437244
vt 0.524881 0.457231
vt 0.345018 0.385456
vt 0.286343 0.822197
vt 0.291713 0.902433
vt 0.275754 0.824313
vt 0.572798 0.751016
vt 0.533368 0.834482
vt 0.561240 0.746654
vt 0.383848 0.812608
vt 0.383847 0.716162
vt 0.523182 0.831650
vt 0.549451 0.742552
vt 0.372927 0.812730
vt 0.370713 0.716330
vt 0.512879 0.828999
vt 0.537453 0.738722
vt 0.362011 0.813107
vt 0.357592 0.716817
vt 0.502467 0.826528
vt 0.525267 0.735174
vt 0.351105 0.813734
vt 0.344497 0.717624
vt 0.491956 0.824240
vt 0.512912 0.731915
vt 0.279875 0.726363
vt 0.267227 0.729049
vt 0.340217 0.814601
vt 0.331434 0.718717
vt 0.481363 0.822141
vt 0.500396 0.728942
vt 0.254708 0.732039
vt 0.329353 0.815700
vt 0.318430 0.720159
vt 0.470689 0.820222
vt 0.487761 0.726281
vt 0.265255 0.826613
vt 0.242336 0.735329
vt 0.318524 0.817017
vt 0.305492 0.721916
vt 0.459955 0.818507
vt 0.475012 0.723925
vt 0.254858 0.829095
vt 0.230104 0.738903
vt 0.307739 0.818543
vt 0.292635 0.723985
vt 0.449167 0.816989
vt 0.462164 0.721877
vt 0.244573 0.831761
vt 0.218085 0.742776
vt 0.297010 0.820268
vt 0.438337 0.815678
vt 0.449234 0.720142
vt 0.234408 0.834608
vt 0.206275 0.746926
vt 0.427475 0.814585
vt 0.436236 0.718721
vt 0.224371 0.837632
vt 0.194696 0.751342
vt 0.416588 0.813721
vt 0.423184 0.717616
vt 0.214468 0.840827
vt 0.183370 0.756009
vt 0.405683 0.813097
vt 0.584109 0.755628
vt 0.543429 0.837488
vt 0.363872 0.358774
vt 0.342750 0.359208
vt 0.536612 0.367731
vt 0.016023 0.402427
vt 0.277949 0.362565
vt 0.255728 0.364394
vt 0.448363 0.360445
vt 0.677406 0.390308
vt 0.653262 0.385566
vt 0.140444 0.379164
vt 0.384900 0.358674
vt 0.582581 0.373665
vt 0.559468 0.370492
vt 0.042650 0.397339
vt 0.299845 0.361097
vt 0.469947 0.361721
vt 0.702058 0.395423
vt 0.163956 0.375457
vt 0.605910 0.377238
vt 0.068014 0.392353
vt 0.321432 0.359981
vt 0.491842 0.363354
vt 0.727512 0.400885
vt 0.233187 0.366590
vt 0.210345 0.369159
vt 0.187256 0.372118
vt 0.405927 0.358927
vt 0.629459 0.381207
vt 0.092597 0.387628
vt 0.514064 0.365355
vt 0.754290 0.406591
vt 0.427047 0.359516
vt 0.116686 0.383226
vt 0.011406 0.368583
vt 0.973369 0.269930
vt 0.959937 0.278625
vt 0.960139 0.268988
vt 0.345766 0.894840
vt 0.336534 0.895746
vt 0.467128 0.900836
vt 0.458220 0.899375
vt 0.282746 0.904202
vt 0.327436 0.896810
vt 0.449292 0.898030
vt 0.273706 0.906144
vt 0.318446 0.898018
vt 0.440296 0.896821
vt 0.264590 0.908271
vt 0.309526 0.899363
vt 0.431191 0.895756
vt 0.255412 0.910587
vt 0.421955 0.894848
vt 0.246203 0.913090
vt 0.412582 0.894114
vt 0.237003 0.915768
vt 0.403085 0.893570
vt 0.530860 0.915768
vt 0.521641 0.913092
vt 0.393495 0.893232
vt 0.512413 0.910592
vt 0.383857 0.893108
vt 0.503218 0.908278
vt 0.374219 0.893230
vt 0.494086 0.906153
vt 0.364631 0.893566
vt 0.485033 0.904212
vt 0.355136 0.894108
vt 0.476054 0.902445
vt 0.300627 0.900824
vt 0.958594 0.120437
vt 0.875485 0.135534
vt 0.874970 0.126858
vt 0.972915 0.138811
vt 0.960517 0.148737
vt 0.959937 0.139288
vt 0.973856 0.260667
vt 0.960420 0.259553
vt 0.972514 0.129417
vt 0.959309 0.129833
vt 0.974374 0.251381
vt 0.960712 0.250279
vt 0.971989 0.119997
vt 0.974890 0.242082
vt 0.960978 0.241128
vt 0.968223 0.073239
vt 0.952769 0.065991
vt 0.966764 0.063882
vt 0.971354 0.110609
vt 0.957793 0.111148
vt 0.975398 0.232730
vt 0.961187 0.232043
vt 0.951655 0.057022
vt 0.965317 0.054685
vt 0.970635 0.101275
vt 0.956912 0.101987
vt 0.975900 0.223227
vt 0.961294 0.222954
vt 0.950480 0.047990
vt 0.963876 0.045543
vt 0.969861 0.091983
vt 0.955958 0.092940
vt 0.961521 0.213874
vt 0.975764 0.213713
vt 0.949284 0.038854
vt 0.962439 0.036426
vt 0.969056 0.082674
vt 0.954929 0.083958
vt 0.961635 0.204803
vt 0.975610 0.204335
vt 0.948093 0.029569
vt 0.961039 0.027339
vt 0.953788 0.074983
vt 0.961665 0.195677
vt 0.975427 0.194984
vt 0.946957 0.020077
vt 0.959777 0.018307
vt 0.961612 0.186452
vt 0.975186 0.185604
vt 0.946013 0.010296
vt 0.958851 0.009367
vt 0.961467 0.177113
vt 0.974857 0.176184
vt 0.945425 0.000131
vt 0.958622 0.000651
vt 0.961223 0.167679
vt 0.974417 0.166749
vt 0.972982 0.288222
vt 0.960330 0.298951
vt 0.959937 0.288545
vt 0.960892 0.158199
vt 0.973861 0.157356
vt 0.973012 0.279133
vt 0.973204 0.148092
vt 0.866754 0.060420
vt 0.849262 0.071724
vt 0.847808 0.063794
vt 0.876621 0.237869
vt 0.871250 0.085081
vt 0.869925 0.076914
vt 0.874430 0.118303
vt 0.877312 0.229550
vt 0.868458 0.068699
vt 0.873817 0.109867
vt 0.877831 0.221266
vt 0.873074 0.101544
vt 0.878017 0.212971
vt 0.864831 0.051925
vt 0.872249 0.093302
vt 0.878059 0.204672
vt 0.862599 0.043167
vt 0.877975 0.196305
vt 0.859997 0.034124
vt 0.877785 0.187834
vt 0.856966 0.024608
vt 0.877507 0.179248
vt 0.853326 0.014319
vt 0.877158 0.170561
vt 0.869389 0.282837
vt 0.876747 0.161809
vt 0.871506 0.273079
vt 0.876276 0.153047
vt 0.873221 0.263818
vt 0.875910 0.144282
vt 0.874611 0.254925
vt 0.875730 0.246302
vt 0.815944 0.297426
vt 0.809384 0.298860
vt 0.775366 0.274965
vt 0.853610 0.104039
vt 0.857952 0.220478
vt 0.858226 0.212286
vt 0.846065 0.055903
vt 0.852643 0.095895
vt 0.858401 0.204069
vt 0.843948 0.048047
vt 0.851578 0.087785
vt 0.858465 0.195810
vt 0.841350 0.040232
vt 0.858431 0.187494
vt 0.838101 0.032466
vt 0.858322 0.179122
vt 0.833971 0.024793
vt 0.858153 0.170716
vt 0.866815 0.293233
vt 0.849955 0.276842
vt 0.857928 0.162311
vt 0.852414 0.268817
vt 0.857622 0.153940
vt 0.854227 0.260797
vt 0.857132 0.145581
vt 0.855561 0.252781
vt 0.856558 0.137200
vt 0.856528 0.244759
vt 0.855923 0.128828
vt 0.857205 0.236716
vt 0.850493 0.079719
vt 0.855232 0.120500
vt 0.857655 0.228628
vt 0.854469 0.112236
vt 0.839180 0.089366
vt 0.838518 0.081366
vt 0.837689 0.073606
vt 0.836623 0.066001
vt 0.835262 0.058517
vt 0.833537 0.051175
vt 0.831352 0.044042
vt 0.828571 0.037228
vt 0.840031 0.273071
vt 0.846639 0.284845
vt 0.837134 0.279667
vt 0.842109 0.266026
vt 0.843568 0.258717
vt 0.844555 0.251242
vt 0.845172 0.243657
vt 0.845487 0.235973
vt 0.845553 0.228155
vt 0.845430 0.220109
vt 0.845902 0.212022
vt 0.846236 0.203976
vt 0.846441 0.195876
vt 0.846547 0.187675
vt 0.846591 0.179374
vt 0.846602 0.171017
vt 0.846587 0.162681
vt 0.845816 0.146285
vt 0.846512 0.154466
vt 0.845046 0.137996
vt 0.844245 0.129694
vt 0.843412 0.121456
vt 0.842522 0.113324
vt 0.841541 0.105304
vt 0.840432 0.097349
vt 0.668402 0.594228
vt 0.610296 0.667356
vt 0.651468 0.585400
vt 0.438197 0.531060
vt 0.415196 0.620538
vt 0.420208 0.529923
vt 0.098493 0.592607
vt 0.156776 0.667030
vt 0.143005 0.673855
vt 0.456181 0.532656
vt 0.430782 0.621545
vt 0.133129 0.575998
vt 0.115692 0.583899
vt 0.461839 0.624825
vt 0.446334 0.622979
vt 0.185189 0.654843
vt 0.170847 0.660695
vt 0.492129 0.537259
vt 0.474160 0.534719
vt 0.258202 0.539621
vt 0.259840 0.632673
vt 0.240209 0.543068
vt 0.168512 0.562503
vt 0.150759 0.568914
vt 0.492653 0.629775
vt 0.477283 0.627088
vt 0.276202 0.536677
vt 0.275157 0.629574
vt 0.186367 0.556729
vt 0.199765 0.649467
vt 0.510084 0.540288
vt 0.507931 0.632891
vt 0.294207 0.534217
vt 0.290558 0.626907
vt 0.204275 0.551609
vt 0.214560 0.644589
vt 0.545921 0.547899
vt 0.528018 0.543828
vt 0.312214 0.532225
vt 0.306029 0.624665
vt 0.222223 0.547080
vt 0.229509 0.640148
vt 0.563782 0.552527
vt 0.523098 0.636444
vt 0.330223 0.530691
vt 0.321555 0.622842
vt 0.244603 0.636159
vt 0.553012 0.644894
vt 0.538134 0.640443
vt 0.348231 0.529604
vt 0.337123 0.621415
vt 0.599268 0.563674
vt 0.581558 0.557834
vt 0.366235 0.529099
vt 0.352724 0.620415
vt 0.582155 0.655199
vt 0.567708 0.649803
vt 0.384228 0.528902
vt 0.368343 0.619821
vt 0.634274 0.577409
vt 0.616849 0.570171
vt 0.402225 0.529101
vt 0.383970 0.619629
vt 0.596388 0.661040
vt 0.399589 0.619920
vt 0.623873 0.674126
vt 0.193284 0.003835
vt 0.169018 0.005051
vt 0.144819 0.006322
vt 0.120691 0.007640
vt 0.096679 0.008971
vt 0.072872 0.010211
vt 0.049394 0.011121
vt 0.026403 0.011190
vt 0.004157 0.009342
vt 0.770525 0.011799
vt 0.747668 0.013596
vt 0.724096 0.013159
vt 0.700153 0.012697
vt 0.676326 0.011808
vt 0.652666 0.010640
vt 0.628445 0.008291
vt 0.603851 0.007203
vt 0.579522 0.006143
vt 0.555312 0.005114
vt 0.531156 0.004147
vt 0.507026 0.003278
vt 0.482917 0.002535
vt 0.458833 0.001938
vt 0.434788 0.001503
vt 0.410811 0.001238
vt 0.386955 0.001131
vt 0.363313 0.001115
vt 0.339106 0.000131
vt 0.314628 0.000654
vt 0.290527 0.001291
vt 0.266728 0.001941
vt 0.242338 0.001578
vt 0.217674 0.002669
vt 0.999869 0.423081
vt 0.995535 0.444866
vt 0.987035 0.465387
vt 0.974695 0.483856
vt 0.958989 0.499562
vt 0.940520 0.511903
vt 0.919999 0.520403
vt 0.898214 0.524736
vt 0.876002 0.524736
vt 0.854217 0.520403
vt 0.833695 0.511903
vt 0.815227 0.499562
vt 0.799521 0.483856
vt 0.787180 0.465387
vt 0.778680 0.444866
vt 0.774347 0.400869
vt 0.778680 0.379084
vt 0.787180 0.358563
vt 0.799521 0.340094
vt 0.815227 0.324388
vt 0.833695 0.312048
vt 0.854217 0.303547
vt 0.898214 0.299214
vt 0.919999 0.303547
vt 0.940520 0.312048
vt 0.958989 0.324388
vt 0.974695 0.340094
vt 0.987035 0.358563
vt 0.995535 0.379084
vt 0.745174 0.441423
vt 0.553373 0.840667
vt 0.973642 0.297073
vt 0.802827 0.298951
vt 0.796510 0.297726
vt 0.785431 0.291593
vt 0.790647 0.295243
vt 0.781038 0.286891
vt 0.777635 0.281286
vt 0.774347 0.268160
vt 0.774644 0.261134
vt 0.822252 0.294677
vt 0.776268 0.254177
vt 0.833081 0.285625
vt 0.779165 0.247580
vt 0.783218 0.241622
vt 0.788251 0.236552
vt 0.841655 0.266113
vt 0.794047 0.232570
vt 0.800356 0.229821
vt 0.841952 0.259087
vt 0.806916 0.228388
vt 0.840933 0.252282
vt 0.813473 0.228296
vt 0.838664 0.245962
vt 0.819789 0.229522
vt 0.835261 0.240357
vt 0.825652 0.232004
vt 0.830869 0.235655
vt 0.828048 0.290695
vt 0.825005 0.030933
s 1
usemtl マテリアル.004
f 2/1/1 450/2/2 449/3/3
f 4/4/4 451/5/5 450/2/2
f 6/6/6 452/7/7 451/5/5
f 8/8/8 453/9/9 452/7/7
f 10/10/10 454/11/11 453/9/9
f 12/12/12 455/13/13 454/11/11
f 14/14/14 456/15/15 455/13/13
f 16/16/16 457/17/17 456/15/15
f 18/18/18 458/19/19 457/20/17
f 20/21/20 459/22/21 458/19/19
f 22/23/22 460/24/23 459/22/21
f 24/25/24 461/26/25 460/24/23
f 26/27/26 462/28/27 461/26/25
f 28/29/28 463/30/29 462/28/27
f 30/31/30 464/32/31 463/30/29
f 32/33/32 465/34/33 464/32/31
f 34/35/34 466/36/35 465/34/33
f 36/37/36 467/38/37 466/36/35
f 38/39/38 468/40/39 467/38/37
f 40/41/40 469/42/41 468/40/39
f 42/43/42 470/44/43 469/42/41
f 44/45/44 471/46/45 470/44/43
f 46/47/46 472/48/47 471/46/45
f 48/49/48 473/50/49 472/48/47
f 50/51/50 474/52/51 473/50/49
f 52/53/52 475/54/53 474/52/51
f 54/55/54 476/56/55 475/54/53
f 56/57/56 477/58/57 476/56/55
f 58/59/58 478/60/59 477/58/57
f 60/61/60 479/62/61 478/60/59
f 129/63/62 69/64/63 130/65/64
f 62/66/65 480/67/66 479/62/61
f 64/68/67 449/3/3 480/67/66
f 31/69/68 47/70/69 63/71/70
f 417/72/71 120/73/72 420/74/73
f 132/75/74 77/76/75 78/77/76
f 133/78/77 87/79/78 134/80/79
f 136/81/80 95/82/81 96/83/82
f 138/84/83 73/85/84 74/86/85
f 139/87/86 83/88/87 140/89/88
f 142/90/89 91/91/90 92/92/91
f 130/65/64 70/93/92 143/94/93
f 144/95/94 78/77/76 79/96/95
f 134/80/79 88/97/96 145/98/97
f 146/99/98 65/100/99 147/101/100
f 146/99/98 96/83/82 66/102/101
f 148/103/102 74/86/85 75/104/103
f 140/89/88 84/105/104 149/106/105
f 150/107/106 92/92/91 93/108/107
f 143/94/93 71/109/108 151/110/109
f 152/111/110 79/96/95 80/112/111
f 145/98/97 89/113/112 153/114/113
f 147/101/100 67/115/114 154/116/115
f 155/117/116 75/104/103 76/118/117
f 149/106/105 85/119/118 156/120/119
f 157/121/120 93/108/107 94/122/121
f 151/110/109 72/123/122 158/124/123
f 159/125/124 80/112/111 81/126/125
f 160/127/126 89/113/112 90/128/127
f 154/116/115 68/129/128 129/63/62
f 131/130/129 76/118/117 77/76/75
f 156/120/119 86/131/130 133/78/77
f 135/132/131 94/122/121 95/82/81
f 158/124/123 73/133/84 137/134/132
f 159/125/124 82/135/133 139/87/86
f 141/136/134 90/128/127 91/91/90
f 97/137/135 195/138/136 99/139/137
f 418/140/138 107/141/139 421/142/140
f 420/74/73 121/143/141 422/144/142
f 421/142/140 108/145/143 423/146/144
f 422/144/142 122/147/145 424/148/146
f 423/146/144 109/149/147 425/150/148
f 424/148/146 123/151/149 426/152/150
f 425/150/148 110/153/151 427/154/152
f 426/152/150 124/155/153 428/156/154
f 427/154/152 111/157/155 429/158/156
f 419/159/157 97/137/135 430/160/158
f 428/156/154 125/161/159 431/162/160
f 429/158/156 112/163/161 432/164/162
f 430/160/158 99/139/137 433/165/163
f 431/162/160 126/166/164 434/167/165
f 432/164/162 113/168/166 435/169/167
f 433/165/163 100/170/168 436/171/169
f 434/167/165 127/172/170 437/173/171
f 435/169/167 114/174/172 438/175/173
f 436/171/169 101/176/174 439/177/175
f 437/173/171 128/178/176 440/179/177
f 438/175/173 115/180/178 441/181/179
f 439/177/175 102/182/180 442/183/181
f 440/179/177 98/184/182 419/159/157
f 441/181/179 116/185/183 443/186/184
f 442/183/181 103/187/185 444/188/186
f 443/186/184 117/189/187 445/190/188
f 444/188/186 104/191/189 446/192/190
f 445/190/188 118/193/191 447/194/192
f 446/192/190 105/195/193 448/196/194
f 447/194/192 119/197/195 417/72/71
f 448/198/194 106/199/196 418/140/138
f 184/200/197 141/136/134 191/201/198
f 190/202/199 159/125/124 139/87/86
f 189/203/200 158/124/123 137/134/132
f 181/204/201 135/132/131 188/205/202
f 187/206/203 156/120/119 133/78/77
f 179/207/204 131/130/129 186/208/205
f 185/209/206 154/116/115 129/63/62
f 177/210/207 160/127/126 184/200/197
f 176/211/208 159/125/124 183/212/209
f 182/213/210 151/110/109 158/124/123
f 174/214/211 157/121/120 181/204/201
f 180/215/212 149/106/105 156/120/119
f 172/216/213 155/117/116 179/207/204
f 178/217/214 147/101/100 154/116/115
f 177/210/207 145/98/97 153/114/113
f 169/218/215 152/111/110 176/211/208
f 175/219/216 143/94/93 151/110/109
f 167/220/217 150/107/106 174/214/211
f 173/221/218 140/89/88 149/106/105
f 165/222/219 148/103/102 172/216/213
f 164/223/220 146/99/98 192/224/221
f 171/225/222 146/99/98 147/101/100
f 170/226/223 134/80/79 145/98/97
f 162/227/224 144/95/94 169/218/215
f 168/228/225 130/65/64 143/94/93
f 191/201/198 142/90/89 167/220/217
f 166/229/226 139/87/86 140/89/88
f 189/230/200 138/84/83 165/222/219
f 188/205/202 136/81/80 164/223/220
f 163/231/227 133/78/77 134/80/79
f 186/208/205 132/75/74 162/227/224
f 161/232/228 129/63/62 130/65/64
f 10/10/10 185/209/206 161/232/228
f 26/27/26 162/227/224 28/29/28
f 46/47/46 187/206/203 163/231/227
f 62/66/65 164/223/220 64/68/67
f 18/18/18 165/222/219 20/21/20
f 38/39/38 190/202/199 166/229/226
f 54/55/54 167/220/217 56/57/56
f 12/12/12 161/232/228 168/228/225
f 28/29/28 169/218/215 30/31/30
f 48/49/48 163/231/227 170/226/223
f 4/4/4 192/224/221 171/225/222
f 64/68/67 192/224/221 2/1/1
f 20/21/20 172/216/213 22/23/22
f 40/41/40 166/229/226 173/221/218
f 56/57/56 174/214/211 58/59/58
f 14/14/14 168/228/225 175/219/216
f 30/31/30 176/211/208 32/33/32
f 50/51/50 170/226/223 177/210/207
f 6/6/6 171/225/222 178/217/214
f 22/23/22 179/207/204 24/25/24
f 42/43/42 173/221/218 180/215/212
f 58/59/58 181/204/201 60/61/60
f 16/16/16 175/219/216 182/213/210
f 32/33/32 183/212/209 34/35/34
f 50/51/50 184/200/197 52/53/52
f 8/8/8 178/217/214 185/209/206
f 24/25/24 186/208/205 26/27/26
f 44/45/44 180/215/212 187/206/203
f 60/61/60 188/205/202 62/66/65
f 18/233/18 182/213/210 189/203/200
f 36/37/36 183/212/209 190/202/199
f 52/53/52 191/201/198 54/55/54
f 204/234/229 235/235/230 236/236/231
f 126/166/164 221/237/232 222/238/233
f 113/168/166 208/239/234 209/240/235
f 99/139/137 196/241/236 100/170/168
f 127/172/170 222/238/233 223/242/237
f 113/168/166 210/243/238 114/174/172
f 100/170/168 197/244/239 101/176/174
f 128/178/176 223/242/237 224/245/240
f 114/174/172 211/246/241 115/180/178
f 101/176/174 198/247/242 102/182/180
f 98/184/182 224/245/240 194/248/243
f 115/180/178 212/249/244 116/185/183
f 102/182/180 199/250/245 103/187/185
f 116/185/183 213/251/246 117/189/187
f 103/187/185 200/252/247 104/191/189
f 117/189/187 214/253/248 118/193/191
f 104/191/189 201/254/249 105/195/193
f 118/193/191 215/255/250 119/197/195
f 106/199/196 201/256/249 202/257/251
f 119/197/195 216/258/252 120/73/72
f 107/141/139 202/257/251 203/259/253
f 120/73/72 217/260/254 121/143/141
f 108/145/143 203/259/253 204/261/255
f 122/147/145 217/260/254 218/262/256
f 109/149/147 204/261/255 205/263/257
f 123/151/149 218/262/256 219/264/258
f 110/153/151 205/263/257 206/265/259
f 124/155/153 219/264/258 220/266/260
f 111/157/155 206/265/259 207/267/261
f 98/184/182 193/268/262 97/137/135
f 125/161/159 220/266/260 221/237/232
f 112/163/161 207/267/261 208/239/234
f 252/269/263 283/270/264 284/271/265
f 218/272/266 249/273/267 250/274/268
f 205/275/269 236/236/231 237/276/270
f 219/277/271 250/274/268 251/278/272
f 206/279/273 237/276/270 238/280/274
f 220/281/275 251/278/272 252/269/263
f 207/282/276 238/280/274 239/283/277
f 194/284/278 225/285/279 193/286/280
f 221/287/281 252/269/263 253/288/282
f 208/289/283 239/283/277 240/290/284
f 193/286/280 227/291/285 195/292/286
f 222/293/287 253/288/282 254/294/288
f 209/295/289 240/290/284 241/296/290
f 195/292/286 228/297/291 196/298/292
f 223/299/293 254/294/288 255/300/294
f 209/295/289 242/301/295 210/302/296
f 196/298/292 229/303/297 197/304/298
f 224/305/299 255/300/294 256/306/300
f 210/302/296 243/307/301 211/308/302
f 197/304/298 230/309/303 198/310/304
f 194/284/278 256/306/300 226/311/305
f 211/308/302 244/312/306 212/313/307
f 198/310/304 231/314/308 199/315/309
f 212/313/307 245/316/310 213/317/311
f 199/315/309 232/318/312 200/319/313
f 213/317/311 246/320/314 214/321/315
f 200/319/313 233/322/316 201/323/317
f 214/321/315 247/324/318 215/325/319
f 202/326/320 233/327/316 234/328/321
f 215/325/319 248/329/322 216/330/323
f 203/331/324 234/328/321 235/235/230
f 216/330/323 249/273/267 217/332/325
f 260/333/326 323/334/327 324/335/328
f 238/280/274 271/336/329 239/283/277
f 225/285/279 258/337/330 257/338/331
f 253/288/282 284/271/265 285/339/332
f 239/283/277 272/340/333 240/290/284
f 227/291/285 257/338/331 259/341/334
f 254/294/288 285/339/332 286/342/335
f 240/290/284 273/343/336 241/296/290
f 228/297/291 259/341/334 260/333/326
f 255/300/294 286/342/335 287/344/337
f 241/296/290 274/345/338 242/301/295
f 229/303/297 260/333/326 261/346/339
f 256/306/300 287/344/337 288/347/340
f 242/301/295 275/348/341 243/307/301
f 230/309/303 261/346/339 262/349/342
f 226/311/305 288/347/340 258/337/330
f 243/307/301 276/350/343 244/312/306
f 231/314/308 262/349/342 263/351/344
f 244/312/306 277/352/345 245/316/310
f 232/318/312 263/351/344 264/353/346
f 245/316/310 278/354/347 246/320/314
f 232/318/312 265/355/348 233/322/316
f 246/320/314 279/356/349 247/324/318
f 233/327/316 266/357/350 234/328/321
f 247/324/318 280/358/351 248/329/322
f 234/328/321 267/359/352 235/235/230
f 248/329/322 281/360/353 249/273/267
f 235/235/230 268/361/354 236/236/231
f 250/274/268 281/360/353 282/362/355
f 236/236/231 269/363/356 237/276/270
f 251/278/272 282/362/355 283/270/264
f 237/276/270 270/364/357 238/280/274
f 293/365/358 292/366/359 317/367/360
f 286/342/335 351/368/361 287/344/337
f 274/345/338 337/369/362 338/370/363
f 261/346/339 324/335/328 325/371/364
f 287/344/337 352/372/365 288/347/340
f 275/348/341 338/370/363 339/373/366
f 262/349/342 325/371/364 326/374/367
f 288/347/340 322/375/368 258/337/330
f 276/350/343 339/373/366 340/376/369
f 263/351/344 326/374/367 327/377/370
f 277/352/345 340/376/369 341/378/371
f 264/353/346 327/377/370 328/379/372
f 278/354/347 341/378/371 342/380/373
f 265/355/348 328/379/372 329/381/374
f 279/356/349 342/380/373 343/382/375
f 265/383/348 330/384/376 266/357/350
f 280/358/351 343/382/375 344/385/377
f 266/357/350 331/386/378 267/359/352
f 281/360/353 344/385/377 345/387/379
f 267/359/352 332/388/380 268/361/354
f 281/360/353 346/389/381 282/362/355
f 268/361/354 333/390/382 269/363/356
f 282/362/355 347/391/383 283/270/264
f 269/363/356 334/392/384 270/364/357
f 283/270/264 348/393/385 284/271/265
f 270/364/357 335/394/386 271/336/329
f 257/338/331 322/375/368 321/395/387
f 284/271/265 349/396/388 285/339/332
f 271/336/329 336/397/389 272/340/333
f 259/341/334 321/395/387 323/334/327
f 285/339/332 350/398/390 286/342/335
f 272/340/333 337/369/362 273/343/336
f 290/399/391 321/395/387 322/375/368
f 289/400/392 323/334/327 321/395/387
f 291/401/393 324/335/328 323/334/327
f 292/402/359 325/371/364 324/335/328
f 293/403/358 326/374/367 325/371/364
f 294/404/394 327/377/370 326/374/367
f 295/405/395 328/379/372 327/377/370
f 296/406/396 329/381/374 328/379/372
f 298/407/397 329/408/374 297/409/398
f 299/410/399 330/384/376 298/407/397
f 300/411/400 331/386/378 299/410/399
f 301/412/401 332/388/380 300/411/400
f 302/413/402 333/390/382 301/412/401
f 303/414/403 334/392/384 302/413/402
f 304/415/404 335/394/386 303/414/403
f 305/416/405 336/397/389 304/415/404
f 305/416/405 338/370/363 337/369/362
f 306/417/406 339/373/366 338/370/363
f 307/418/407 340/376/369 339/373/366
f 308/419/408 341/378/371 340/376/369
f 309/420/409 342/380/373 341/378/371
f 310/421/410 343/382/375 342/380/373
f 311/422/411 344/385/377 343/382/375
f 312/423/412 345/387/379 344/385/377
f 314/424/413 345/387/379 313/425/414
f 315/426/415 346/389/381 314/424/413
f 316/427/416 347/391/383 315/426/415
f 317/428/360 348/393/385 316/427/416
f 318/429/417 349/396/388 317/428/360
f 319/430/418 350/398/390 318/429/417
f 320/431/419 351/368/361 319/430/418
f 290/399/391 352/372/365 320/431/419
f 413/432/420 355/433/421 415/434/422
f 412/435/423 353/436/424 414/437/425
f 413/438/420 382/439/426 384/440/427
f 410/441/428 383/442/429 412/435/423
f 409/443/430 382/439/426 411/444/431
f 410/441/428 379/445/432 381/446/433
f 409/443/430 378/447/434 380/448/435
f 406/449/436 379/445/432 408/450/437
f 405/451/438 365/452/439 416/453/440
f 404/454/441 378/447/434 407/455/442
f 406/449/436 374/456/443 377/457/444
f 402/458/445 376/459/446 405/451/438
f 401/460/447 375/461/448 404/454/441
f 403/462/449 371/463/450 374/456/443
f 399/464/451 373/465/452 402/458/445
f 398/466/453 372/467/454 401/460/447
f 397/468/455 371/463/450 400/469/456
f 396/470/457 370/471/458 399/464/451
f 395/472/459 369/473/460 398/466/453
f 394/474/461 368/475/462 397/468/455
f 393/476/463 367/477/464 396/470/457
f 416/453/440 366/478/465 395/472/459
f 394/474/461 362/479/466 364/480/467
f 391/481/468 363/482/469 393/476/463
f 390/483/470 362/479/466 392/484/471
f 389/485/472 361/486/473 391/481/468
f 390/483/470 358/487/474 360/488/475
f 387/489/476 359/490/477 389/485/472
f 386/491/478 358/487/474 388/492/479
f 385/493/480 357/494/481 387/489/476
f 386/491/478 355/433/421 356/495/482
f 385/493/480 353/436/424 354/496/483
f 87/79/78 385/493/480 88/97/96
f 75/104/103 415/434/422 386/491/478
f 88/97/96 387/489/476 89/113/112
f 75/104/103 388/492/479 76/118/117
f 89/113/112 389/485/472 90/128/127
f 77/76/75 388/492/479 390/483/470
f 90/128/127 391/481/468 91/91/90
f 77/76/75 392/484/471 78/77/76
f 91/91/90 393/476/463 92/92/91
f 79/96/95 392/484/471 394/474/461
f 66/102/101 395/472/459 65/100/99
f 92/92/91 396/470/457 93/108/107
f 80/112/111 394/474/461 397/468/455
f 65/100/99 398/466/453 67/115/114
f 93/108/107 399/464/451 94/122/121
f 80/112/111 400/469/456 81/126/125
f 67/115/114 401/460/447 68/129/128
f 94/122/121 402/458/445 95/82/81
f 82/135/133 400/469/456 403/462/449
f 69/64/63 401/460/447 404/454/441
f 95/82/81 405/451/438 96/83/82
f 82/135/133 406/449/436 83/88/87
f 69/64/63 407/455/442 70/93/92
f 96/83/82 416/453/440 66/102/101
f 83/88/87 408/450/437 84/105/104
f 70/93/92 409/443/430 71/109/108
f 85/119/118 408/450/437 410/441/428
f 71/109/108 411/444/431 72/123/122
f 85/119/118 412/435/423 86/131/130
f 73/133/84 411/444/431 413/438/420
f 86/131/130 414/437/425 87/79/78
f 73/85/84 415/434/422 74/86/85
f 384/497/427 418/140/138 355/433/421
f 383/442/429 417/72/71 353/436/424
f 384/440/427 446/192/190 448/196/194
f 381/446/433 447/194/192 383/442/429
f 380/448/435 446/192/190 382/439/426
f 379/445/432 445/190/188 381/446/433
f 380/448/435 442/183/181 444/188/186
f 377/457/444 443/186/184 379/445/432
f 376/459/446 419/159/157 365/452/439
f 375/461/448 442/183/181 378/447/434
f 374/456/443 441/181/179 377/457/444
f 373/465/452 440/179/177 376/459/446
f 372/467/454 439/177/175 375/461/448
f 374/456/443 435/169/167 438/175/173
f 370/471/458 437/173/171 373/465/452
f 372/467/454 433/165/163 436/171/169
f 368/475/462 435/169/167 371/463/450
f 367/477/464 434/167/165 370/471/458
f 366/478/465 433/165/163 369/473/460
f 364/480/467 432/164/162 368/475/462
f 363/482/469 431/162/160 367/477/464
f 365/452/439 430/160/158 366/478/465
f 364/480/467 427/154/152 429/158/156
f 361/486/473 428/156/154 363/482/469
f 360/488/475 427/154/152 362/479/466
f 359/490/477 426/152/150 361/486/473
f 360/488/475 423/146/144 425/150/148
f 357/494/481 424/148/146 359/490/477
f 356/495/482 423/146/144 358/487/474
f 354/496/483 422/144/142 357/494/481
f 356/495/482 418/140/138 421/142/140
f 354/496/483 417/72/71 420/74/73
f 1/498/484 450/2/2 3/499/485
f 5/500/486 450/2/2 451/5/5
f 5/500/486 452/7/7 7/501/487
f 7/501/487 453/9/9 9/502/488
f 9/502/488 454/11/11 11/503/489
f 13/504/490 454/11/11 455/13/13
f 13/504/490 456/15/15 15/505/491
f 17/506/492 456/15/15 457/17/17
f 17/507/492 458/19/19 19/508/493
f 21/509/494 458/19/19 459/22/21
f 21/509/494 460/24/23 23/510/495
f 23/510/495 461/26/25 25/511/496
f 25/511/496 462/28/27 27/512/497
f 29/513/498 462/28/27 463/30/29
f 29/513/498 464/32/31 31/514/68
f 33/515/499 464/32/31 465/34/33
f 33/515/499 466/36/35 35/516/500
f 37/517/501 466/36/35 467/38/37
f 37/517/501 468/40/39 39/518/502
f 39/518/502 469/42/41 41/519/503
f 41/519/503 470/44/43 43/520/504
f 45/521/505 470/44/43 471/46/45
f 45/521/505 472/48/47 47/522/69
f 49/523/506 472/48/47 473/50/49
f 49/523/506 474/52/51 51/524/507
f 53/525/508 474/52/51 475/54/53
f 53/525/508 476/56/55 55/526/509
f 55/526/509 477/58/57 57/527/510
f 57/527/510 478/60/59 59/528/511
f 61/529/512 478/60/59 479/62/61
f 61/529/512 480/67/66 63/530/70
f 1/498/484 480/67/66 449/3/3
f 2/1/1 4/4/4 450/2/2
f 4/4/4 6/6/6 451/5/5
f 6/6/6 8/8/8 452/7/7
f 8/8/8 10/10/10 453/9/9
f 10/10/10 12/12/12 454/11/11
f 12/12/12 14/14/14 455/13/13
f 14/14/14 16/16/16 456/15/15
f 16/16/16 18/233/18 457/17/17
f 18/18/18 20/21/20 458/19/19
f 20/21/20 22/23/22 459/22/21
f 22/23/22 24/25/24 460/24/23
f 24/25/24 26/27/26 461/26/25
f 26/27/26 28/29/28 462/28/27
f 28/29/28 30/31/30 463/30/29
f 30/31/30 32/33/32 464/32/31
f 32/33/32 34/35/34 465/34/33
f 34/35/34 36/37/36 466/36/35
f 36/37/36 38/39/38 467/38/37
f 38/39/38 40/41/40 468/40/39
f 40/41/40 42/43/42 469/42/41
f 42/43/42 44/45/44 470/44/43
f 44/45/44 46/47/46 471/46/45
f 46/47/46 48/49/48 472/48/47
f 48/49/48 50/51/50 473/50/49
f 50/51/50 52/53/52 474/52/51
f 52/53/52 54/55/54 475/54/53
f 54/55/54 56/57/56 476/56/55
f 56/57/56 58/59/58 477/58/57
f 58/59/58 60/61/60 478/60/59
f 60/61/60 62/66/65 479/62/61
f 129/63/62 68/129/128 69/64/63
f 62/66/65 64/68/67 480/67/66
f 64/68/67 2/1/1 449/3/3
f 63/71/70 1/531/484 3/532/485
f 3/532/485 5/533/486 7/534/487
f 7/534/487 9/535/488 11/536/489
f 11/536/489 13/537/490 15/538/491
f 15/538/491 17/539/492 19/540/493
f 19/540/493 21/541/494 23/542/495
f 23/542/495 25/543/496 27/544/497
f 27/544/497 29/545/498 31/69/68
f 31/69/68 33/546/499 35/547/500
f 35/547/500 37/548/501 39/549/502
f 39/549/502 41/550/503 43/551/504
f 43/551/504 45/552/505 47/70/69
f 47/70/69 49/553/506 51/554/507
f 51/554/507 53/555/508 55/556/509
f 55/556/509 57/557/510 59/558/511
f 59/558/511 61/559/512 63/71/70
f 63/71/70 3/532/485 7/534/487
f 7/534/487 11/536/489 15/538/491
f 15/538/491 19/540/493 23/542/495
f 23/542/495 27/544/497 31/69/68
f 31/69/68 35/547/500 39/549/502
f 39/549/502 43/551/504 47/70/69
f 47/70/69 51/554/507 55/556/509
f 55/556/509 59/558/511 63/71/70
f 63/71/70 7/534/487 15/538/491
f 15/538/491 23/542/495 31/69/68
f 31/69/68 39/549/502 47/70/69
f 47/70/69 55/556/509 63/71/70
f 63/71/70 15/538/491 31/69/68
f 417/72/71 119/197/195 120/73/72
f 132/75/74 131/130/129 77/76/75
f 133/78/77 86/131/130 87/79/78
f 136/81/80 135/132/131 95/82/81
f 138/84/83 137/560/132 73/85/84
f 139/87/86 82/135/133 83/88/87
f 142/90/89 141/136/134 91/91/90
f 130/65/64 69/64/63 70/93/92
f 144/95/94 132/75/74 78/77/76
f 134/80/79 87/79/78 88/97/96
f 146/99/98 66/102/101 65/100/99
f 146/99/98 136/81/80 96/83/82
f 148/103/102 138/84/83 74/86/85
f 140/89/88 83/88/87 84/105/104
f 150/107/106 142/90/89 92/92/91
f 143/94/93 70/93/92 71/109/108
f 152/111/110 144/95/94 79/96/95
f 145/98/97 88/97/96 89/113/112
f 147/101/100 65/100/99 67/115/114
f 155/117/116 148/103/102 75/104/103
f 149/106/105 84/105/104 85/119/118
f 157/121/120 150/107/106 93/108/107
f 151/110/109 71/109/108 72/123/122
f 159/125/124 152/111/110 80/112/111
f 160/127/126 153/114/113 89/113/112
f 154/116/115 67/115/114 68/129/128
f 131/130/129 155/117/116 76/118/117
f 156/120/119 85/119/118 86/131/130
f 135/132/131 157/121/120 94/122/121
f 158/124/123 72/123/122 73/133/84
f 159/125/124 81/126/125 82/135/133
f 141/136/134 160/127/126 90/128/127
f 97/137/135 193/268/262 195/138/136
f 418/140/138 106/199/196 107/141/139
f 420/74/73 120/73/72 121/143/141
f 421/142/140 107/141/139 108/145/143
f 422/144/142 121/143/141 122/147/145
f 423/146/144 108/145/143 109/149/147
f 424/148/146 122/147/145 123/151/149
f 425/150/148 109/149/147 110/153/151
f 426/152/150 123/151/149 124/155/153
f 427/154/152 110/153/151 111/157/155
f 419/159/157 98/184/182 97/137/135
f 428/156/154 124/155/153 125/161/159
f 429/158/156 111/157/155 112/163/161
f 430/160/158 97/137/135 99/139/137
f 431/162/160 125/161/159 126/166/164
f 432/164/162 112/163/161 113/168/166
f 433/165/163 99/139/137 100/170/168
f 434/167/165 126/166/164 127/172/170
f 435/169/167 113/168/166 114/174/172
f 436/171/169 100/170/168 101/176/174
f 437/173/171 127/172/170 128/178/176
f 438/175/173 114/174/172 115/180/178
f 439/177/175 101/176/174 102/182/180
f 440/179/177 128/178/176 98/184/182
f 441/181/179 115/180/178 116/185/183
f 442/183/181 102/182/180 103/187/185
f 443/186/184 116/185/183 117/189/187
f 444/188/186 103/187/185 104/191/189
f 445/190/188 117/189/187 118/193/191
f 446/192/190 104/191/189 105/195/193
f 447/194/192 118/193/191 119/197/195
f 448/198/194 105/561/193 106/199/196
f 184/200/197 160/127/126 141/136/134
f 190/202/199 183/212/209 159/125/124
f 189/203/200 182/213/210 158/124/123
f 181/204/201 157/121/120 135/132/131
f 187/206/203 180/215/212 156/120/119
f 179/207/204 155/117/116 131/130/129
f 185/209/206 178/217/214 154/116/115
f 177/210/207 153/114/113 160/127/126
f 176/211/208 152/111/110 159/125/124
f 182/213/210 175/219/216 151/110/109
f 174/214/211 150/107/106 157/121/120
f 180/215/212 173/221/218 149/106/105
f 172/216/213 148/103/102 155/117/116
f 178/217/214 171/225/222 147/101/100
f 177/210/207 170/226/223 145/98/97
f 169/218/215 144/95/94 152/111/110
f 175/219/216 168/228/225 143/94/93
f 167/220/217 142/90/89 150/107/106
f 173/221/218 166/229/226 140/89/88
f 165/222/219 138/84/83 148/103/102
f 164/223/220 136/81/80 146/99/98
f 171/225/222 192/224/221 146/99/98
f 170/226/223 163/231/227 134/80/79
f 162/227/224 132/75/74 144/95/94
f 168/228/225 161/232/228 130/65/64
f 191/201/198 141/136/134 142/90/89
f 166/229/226 190/202/199 139/87/86
f 189/230/200 137/560/132 138/84/83
f 188/205/202 135/132/131 136/81/80
f 163/231/227 187/206/203 133/78/77
f 186/208/205 131/130/129 132/75/74
f 161/232/228 185/209/206 129/63/62
f 10/10/10 8/8/8 185/209/206
f 26/27/26 186/208/205 162/227/224
f 46/47/46 44/45/44 187/206/203
f 62/66/65 188/205/202 164/223/220
f 18/18/18 189/230/200 165/222/219
f 38/39/38 36/37/36 190/202/199
f 54/55/54 191/201/198 167/220/217
f 12/12/12 10/10/10 161/232/228
f 28/29/28 162/227/224 169/218/215
f 48/49/48 46/47/46 163/231/227
f 4/4/4 2/1/1 192/224/221
f 64/68/67 164/223/220 192/224/221
f 20/21/20 165/222/219 172/216/213
f 40/41/40 38/39/38 166/229/226
f 56/57/56 167/220/217 174/214/211
f 14/14/14 12/12/12 168/228/225
f 30/31/30 169/218/215 176/211/208
f 50/51/50 48/49/48 170/226/223
f 6/6/6 4/4/4 171/225/222
f 22/23/22 172/216/213 179/207/204
f 42/43/42 40/41/40 173/221/218
f 58/59/58 174/214/211 181/204/201
f 16/16/16 14/14/14 175/219/216
f 32/33/32 176/211/208 183/212/209
f 50/51/50 177/210/207 184/200/197
f 8/8/8 6/6/6 178/217/214
f 24/25/24 179/207/204 186/208/205
f 44/45/44 42/43/42 180/215/212
f 60/61/60 181/204/201 188/205/202
f 18/233/18 16/16/16 182/213/210
f 36/37/36 34/35/34 183/212/209
f 52/53/52 184/200/197 191/201/198
f 204/234/229 203/331/324 235/235/230
f 126/166/164 125/161/159 221/237/232
f 113/168/166 112/163/161 208/239/234
f 99/139/137 195/138/136 196/241/236
f 127/172/170 126/166/164 222/238/233
f 113/168/166 209/240/235 210/243/238
f 100/170/168 196/241/236 197/244/239
f 128/178/176 127/172/170 223/242/237
f 114/174/172 210/243/238 211/246/241
f 101/176/174 197/244/239 198/247/242
f 98/184/182 128/178/176 224/245/240
f 115/180/178 211/246/241 212/249/244
f 102/182/180 198/247/242 199/250/245
f 116/185/183 212/249/244 213/251/246
f 103/187/185 199/250/245 200/252/247
f 117/189/187 213/251/246 214/253/248
f 104/191/189 200/252/247 201/254/249
f 118/193/191 214/253/248 215/255/250
f 106/199/196 105/561/193 201/256/249
f 119/197/195 215/255/250 216/258/252
f 107/141/139 106/199/196 202/257/251
f 120/73/72 216/258/252 217/260/254
f 108/145/143 107/141/139 203/259/253
f 122/147/145 121/143/141 217/260/254
f 109/149/147 108/145/143 204/261/255
f 123/151/149 122/147/145 218/262/256
f 110/153/151 109/149/147 205/263/257
f 124/155/153 123/151/149 219/264/258
f 111/157/155 110/153/151 206/265/259
f 98/184/182 194/248/243 193/268/262
f 125/161/159 124/155/153 220/266/260
f 112/163/161 111/157/155 207/267/261
f 252/269/263 251/278/272 283/270/264
f 218/272/266 217/332/325 249/273/267
f 205/275/269 204/234/229 236/236/231
f 219/277/271 218/272/266 250/274/268
f 206/279/273 205/275/269 237/276/270
f 220/281/275 219/277/271 251/278/272
f 207/282/276 206/279/273 238/280/274
f 194/284/278 226/311/305 225/285/279
f 221/287/281 220/281/275 252/269/263
f 208/289/283 207/282/276 239/283/277
f 193/286/280 225/285/279 227/291/285
f 222/293/287 221/287/281 253/288/282
f 209/295/289 208/289/283 240/290/284
f 195/292/286 227/291/285 228/297/291
f 223/299/293 222/293/287 254/294/288
f 209/295/289 241/296/290 242/301/295
f 196/298/292 228/297/291 229/303/297
f 224/305/299 223/299/293 255/300/294
f 210/302/296 242/301/295 243/307/301
f 197/304/298 229/303/297 230/309/303
f 194/284/278 224/305/299 256/306/300
f 211/308/302 243/307/301 244/312/306
f 198/310/304 230/309/303 231/314/308
f 212/313/307 244/312/306 245/316/310
f 199/315/309 231/314/308 232/318/312
f 213/317/311 245/316/310 246/320/314
f 200/319/313 232/318/312 233/322/316
f 214/321/315 246/320/314 247/324/318
f 202/326/320 201/562/317 233/327/316
f 215/325/319 247/324/318 248/329/322
f 203/331/324 202/326/320 234/328/321
f 216/330/323 248/329/322 249/273/267
f 260/333/326 259/341/334 323/334/327
f 238/280/274 270/364/357 271/336/329
f 225/285/279 226/311/305 258/337/330
f 253/288/282 252/269/263 284/271/265
f 239/283/277 271/336/329 272/340/333
f 227/291/285 225/285/279 257/338/331
f 254/294/288 253/288/282 285/339/332
f 240/290/284 272/340/333 273/343/336
f 228/297/291 227/291/285 259/341/334
f 255/300/294 254/294/288 286/342/335
f 241/296/290 273/343/336 274/345/338
f 229/303/297 228/297/291 260/333/326
f 256/306/300 255/300/294 287/344/337
f 242/301/295 274/345/338 275/348/341
f 230/309/303 229/303/297 261/346/339
f 226/311/305 256/306/300 288/347/340
f 243/307/301 275/348/341 276/350/343
f 231/314/308 230/309/303 262/349/342
f 244/312/306 276/350/343 277/352/345
f 232/318/312 231/314/308 263/351/344
f 245/316/310 277/352/345 278/354/347
f 232/318/312 264/353/346 265/355/348
f 246/320/314 278/354/347 279/356/349
f 233/327/316 265/383/348 266/357/350
f 247/324/318 279/356/349 280/358/351
f 234/328/321 266/357/350 267/359/352
f 248/329/322 280/358/351 281/360/353
f 235/235/230 267/359/352 268/361/354
f 250/274/268 249/273/267 281/360/353
f 236/236/231 268/361/354 269/363/356
f 251/278/272 250/274/268 282/362/355
f 237/276/270 269/363/356 270/364/357
f 291/563/393 289/564/392 320/565/419
f 289/564/392 290/566/391 320/565/419
f 320/565/419 319/567/418 291/563/393
f 319/567/418 318/568/417 291/563/393
f 318/568/417 317/367/360 292/366/359
f 291/563/393 318/568/417 292/366/359
f 317/367/360 316/569/416 293/365/358
f 316/569/416 315/570/415 294/571/394
f 293/365/358 316/569/416 294/571/394
f 315/570/415 314/572/413 296/573/396
f 314/572/413 313/574/414 297/409/398
f 313/574/414 312/575/412 298/407/397
f 312/575/412 311/576/411 299/577/399
f 311/576/411 310/578/410 299/577/399
f 310/578/410 309/579/409 300/580/400
f 299/577/399 310/578/410 300/580/400
f 309/579/409 308/581/408 301/582/401
f 308/581/408 307/583/407 302/584/402
f 301/582/401 308/581/408 302/584/402
f 307/583/407 306/585/406 303/586/403
f 306/585/406 305/587/405 304/588/404
f 303/586/403 306/585/406 304/588/404
f 303/586/403 302/584/402 307/583/407
f 301/582/401 300/580/400 309/579/409
f 299/577/399 298/407/397 312/575/412
f 298/407/397 297/409/398 313/574/414
f 297/409/398 296/573/396 314/572/413
f 296/573/396 295/589/395 315/570/415
f 295/589/395 294/571/394 315/570/415
f 286/342/335 350/398/390 351/368/361
f 274/345/338 273/343/336 337/369/362
f 261/346/339 260/333/326 324/335/328
f 287/344/337 351/368/361 352/372/365
f 275/348/341 274/345/338 338/370/363
f 262/349/342 261/346/339 325/371/364
f 288/347/340 352/372/365 322/375/368
f 276/350/343 275/348/341 339/373/366
f 263/351/344 262/349/342 326/374/367
f 277/352/345 276/350/343 340/376/369
f 264/353/346 263/351/344 327/377/370
f 278/354/347 277/352/345 341/378/371
f 265/355/348 264/353/346 328/379/372
f 279/356/349 278/354/347 342/380/373
f 265/383/348 329/408/374 330/384/376
f 280/358/351 279/356/349 343/382/375
f 266/357/350 330/384/376 331/386/378
f 281/360/353 280/358/351 344/385/377
f 267/359/352 331/386/378 332/388/380
f 281/360/353 345/387/379 346/389/381
f 268/361/354 332/388/380 333/390/382
f 282/362/355 346/389/381 347/391/383
f 269/363/356 333/390/382 334/392/384
f 283/270/264 347/391/383 348/393/385
f 270/364/357 334/392/384 335/394/386
f 257/338/331 258/337/330 322/375/368
f 284/271/265 348/393/385 349/396/388
f 271/336/329 335/394/386 336/397/389
f 259/341/334 257/338/331 321/395/387
f 285/339/332 349/396/388 350/398/390
f 272/340/333 336/397/389 337/369/362
f 290/399/391 289/400/392 321/395/387
f 289/400/392 291/401/393 323/334/327
f 291/401/393 292/402/359 324/335/328
f 292/402/359 293/403/358 325/371/364
f 293/403/358 294/404/394 326/374/367
f 294/404/394 295/405/395 327/377/370
f 295/405/395 296/406/396 328/379/372
f 296/406/396 297/590/398 329/381/374
f 298/407/397 330/384/376 329/408/374
f 299/410/399 331/386/378 330/384/376
f 300/411/400 332/388/380 331/386/378
f 301/412/401 333/390/382 332/388/380
f 302/413/402 334/392/384 333/390/382
f 303/414/403 335/394/386 334/392/384
f 304/415/404 336/397/389 335/394/386
f 305/416/405 337/369/362 336/397/389
f 305/416/405 306/417/406 338/370/363
f 306/417/406 307/418/407 339/373/366
f 307/418/407 308/419/408 340/376/369
f 308/419/408 309/420/409 341/378/371
f 309/420/409 310/421/410 342/380/373
f 310/421/410 311/422/411 343/382/375
f 311/422/411 312/423/412 344/385/377
f 312/423/412 313/425/414 345/387/379
f 314/424/413 346/389/381 345/387/379
f 315/426/415 347/391/383 346/389/381
f 316/427/416 348/393/385 347/391/383
f 317/428/360 349/396/388 348/393/385
f 318/429/417 350/398/390 349/396/388
f 319/430/418 351/368/361 350/398/390
f 320/431/419 352/372/365 351/368/361
f 290/399/391 322/375/368 352/372/365
f 413/432/420 384/497/427 355/433/421
f 412/435/423 383/442/429 353/436/424
f 413/438/420 411/444/431 382/439/426
f 410/441/428 381/446/433 383/442/429
f 409/443/430 380/448/435 382/439/426
f 410/441/428 408/450/437 379/445/432
f 409/443/430 407/455/442 378/447/434
f 406/449/436 377/457/444 379/445/432
f 405/451/438 376/459/446 365/452/439
f 404/454/441 375/461/448 378/447/434
f 406/449/436 403/462/449 374/456/443
f 402/458/445 373/465/452 376/459/446
f 401/460/447 372/467/454 375/461/448
f 403/462/449 400/469/456 371/463/450
f 399/464/451 370/471/458 373/465/452
f 398/466/453 369/473/460 372/467/454
f 397/468/455 368/475/462 371/463/450
f 396/470/457 367/477/464 370/471/458
f 395/472/459 366/478/465 369/473/460
f 394/474/461 364/480/467 368/475/462
f 393/476/463 363/482/469 367/477/464
f 416/453/440 365/452/439 366/478/465
f 394/474/461 392/484/471 362/479/466
f 391/481/468 361/486/473 363/482/469
f 390/483/470 360/488/475 362/479/466
f 389/485/472 359/490/477 361/486/473
f 390/483/470 388/492/479 358/487/474
f 387/489/476 357/494/481 359/490/477
f 386/491/478 356/495/482 358/487/474
f 385/493/480 354/496/483 357/494/481
f 386/491/478 415/434/422 355/433/421
f 385/493/480 414/437/425 353/436/424
f 87/79/78 414/437/425 385/493/480
f 75/104/103 74/86/85 415/434/422
f 88/97/96 385/493/480 387/489/476
f 75/104/103 386/491/478 388/492/479
f 89/113/112 387/489/476 389/485/472
f 77/76/75 76/118/117 388/492/479
f 90/128/127 389/485/472 391/481/468
f 77/76/75 390/483/470 392/484/471
f 91/91/90 391/481/468 393/476/463
f 79/96/95 78/77/76 392/484/471
f 66/102/101 416/453/440 395/472/459
f 92/92/91 393/476/463 396/470/457
f 80/112/111 79/96/95 394/474/461
f 65/100/99 395/472/459 398/466/453
f 93/108/107 396/470/457 399/464/451
f 80/112/111 397/468/455 400/469/456
f 67/115/114 398/466/453 401/460/447
f 94/122/121 399/464/451 402/458/445
f 82/135/133 81/126/125 400/469/456
f 69/64/63 68/129/128 401/460/447
f 95/82/81 402/458/445 405/451/438
f 82/135/133 403/462/449 406/449/436
f 69/64/63 404/454/441 407/455/442
f 96/83/82 405/451/438 416/453/440
f 83/88/87 406/449/436 408/450/437
f 70/93/92 407/455/442 409/443/430
f 85/119/118 84/105/104 408/450/437
f 71/109/108 409/443/430 411/444/431
f 85/119/118 410/441/428 412/435/423
f 73/133/84 72/123/122 411/444/431
f 86/131/130 412/435/423 414/437/425
f 73/85/84 413/432/420 415/434/422
f 384/497/427 448/198/194 418/140/138
f 383/442/429 447/194/192 417/72/71
f 384/440/427 382/439/426 446/192/190
f 381/446/433 445/190/188 447/194/192
f 380/448/435 444/188/186 446/192/190
f 379/445/432 443/186/184 445/190/188
f 380/448/435 378/447/434 442/183/181
f 377/457/444 441/181/179 443/186/184
f 376/459/446 440/179/177 419/159/157
f 375/461/448 439/177/175 442/183/181
f 374/456/443 438/175/173 441/181/179
f 373/465/452 437/173/171 440/179/177
f 372/467/454 436/171/169 439/177/175
f 374/456/443 371/463/450 435/169/167
f 370/471/458 434/167/165 437/173/171
f 372/467/454 369/473/460 433/165/163
f 368/475/462 432/164/162 435/169/167
f 367/477/464 431/162/160 434/167/165
f 366/478/465 430/160/158 433/165/163
f 364/480/467 429/158/156 432/164/162
f 363/482/469 428/156/154 431/162/160
f 365/452/439 419/159/157 430/160/158
f 364/480/467 362/479/466 427/154/152
f 361/486/473 426/152/150 428/156/154
f 360/488/475 425/150/148 427/154/152
f 359/490/477 424/148/146 426/152/150
f 360/488/475 358/487/474 423/146/144
f 357/494/481 422/144/142 424/148/146
f 356/495/482 421/142/140 423/146/144
f 354/496/483 420/74/73 422/144/142
f 356/495/482 355/433/421 418/140/138
f 354/496/483 353/436/424 417/72/71
f 1/498/484 449/3/3 450/2/2
f 5/500/486 3/499/485 450/2/2
f 5/500/486 451/5/5 452/7/7
f 7/501/487 452/7/7 453/9/9
f 9/502/488 453/9/9 454/11/11
f 13/504/490 11/503/489 454/11/11
f 13/504/490 455/13/13 456/15/15
f 17/506/492 15/505/491 456/15/15
f 17/507/492 457/20/17 458/19/19
f 21/509/494 19/508/493 458/19/19
f 21/509/494 459/22/21 460/24/23
f 23/510/495 460/24/23 461/26/25
f 25/511/496 461/26/25 462/28/27
f 29/513/498 27/512/497 462/28/27
f 29/513/498 463/30/29 464/32/31
f 33/515/499 31/514/68 464/32/31
f 33/515/499 465/34/33 466/36/35
f 37/517/501 35/516/500 466/36/35
f 37/517/501 467/38/37 468/40/39
f 39/518/502 468/40/39 469/42/41
f 41/519/503 469/42/41 470/44/43
f 45/521/505 43/520/504 470/44/43
f 45/521/505 471/46/45 472/48/47
f 49/523/506 47/522/69 472/48/47
f 49/523/506 473/50/49 474/52/51
f 53/525/508 51/524/507 474/52/51
f 53/525/508 475/54/53 476/56/55
f 55/526/509 476/56/55 477/58/57
f 57/527/510 477/58/57 478/60/59
f 61/529/512 59/528/511 478/60/59
f 61/529/512 479/62/61 480/67/66
f 1/498/484 63/530/70 480/67/66
