# Blender 4.4.1
# www.blender.org
mtllib 1.mtl
o 1
v -0.164663 -0.222908 0.050000
v -0.164663 -0.205924 0.050000
v -0.062761 -0.205924 0.050000
v 0.018082 -0.205924 0.050000
v 0.113190 -0.205924 0.050000
v 0.113190 -0.222908 0.050000
v 0.089514 0.263506 0.050000
v 0.008672 0.246522 0.050000
v -0.093230 0.246522 0.050000
v -0.093230 0.263506 0.050000
v -0.164663 -0.222908 -0.050000
v -0.164663 -0.205924 -0.050000
v -0.062761 -0.205924 -0.050000
v 0.018082 -0.205924 -0.050000
v 0.113190 -0.205924 -0.050000
v 0.113190 -0.222908 -0.050000
v 0.089514 0.263506 -0.050000
v 0.008672 0.246522 -0.050000
v -0.093230 0.246522 -0.050000
v -0.093230 0.263506 -0.050000
vn -0.0000 -0.0000 1.0000
vn -0.0000 -0.0000 -1.0000
vn -1.0000 -0.0000 -0.0000
vn -0.0000 -1.0000 -0.0000
vn 1.0000 -0.0000 -0.0000
vn -0.0000 1.0000 -0.0000
vn 0.9886 -0.1504 -0.0000
vn -0.9878 0.1559 -0.0000
vt 0.000000 0.000000
vt 0.222222 0.000000
vt 0.111111 0.000000
vt 0.777778 0.000000
vt 0.888889 0.000000
vt 1.000000 0.000000
vt 0.333333 0.000000
vt 0.666667 0.000000
vt 0.444444 0.000000
vt 0.555556 0.000000
s 0
f 1/1/1 3/2/1 2/3/1
f 1/1/1 4/4/1 3/2/1
f 1/1/1 5/5/1 4/4/1
f 1/1/1 6/6/1 5/5/1
f 8/7/1 4/4/1 7/8/1
f 3/2/1 4/4/1 8/7/1
f 9/9/1 8/7/1 7/8/1
f 9/9/1 7/8/1 10/10/1
f 11/1/2 12/3/2 13/2/2
f 11/1/2 13/2/2 14/4/2
f 11/1/2 14/4/2 15/5/2
f 11/1/2 15/5/2 16/6/2
f 18/7/2 17/8/2 14/4/2
f 13/2/2 18/7/2 14/4/2
f 19/9/2 17/8/2 18/7/2
f 19/9/2 20/10/2 17/8/2
f 1/1/3 12/3/3 11/1/3
f 1/1/4 16/6/4 6/6/4
f 6/6/5 15/5/5 5/5/5
f 5/5/6 14/4/6 4/4/6
f 4/4/7 17/8/7 7/8/7
f 8/7/8 13/2/8 3/2/8
f 9/9/4 18/7/4 8/7/4
f 10/10/3 19/9/3 9/9/3
f 7/8/6 20/10/6 10/10/6
f 3/2/6 12/3/6 2/3/6
f 1/1/3 2/3/3 12/3/3
f 1/1/4 11/1/4 16/6/4
f 6/6/5 16/6/5 15/5/5
f 5/5/6 15/5/6 14/4/6
f 4/4/7 14/4/7 17/8/7
f 8/7/8 18/7/8 13/2/8
f 9/9/4 19/9/4 18/7/4
f 10/10/3 20/10/3 19/9/3
f 7/8/6 17/8/6 20/10/6
f 3/2/6 13/2/6 12/3/6
