# Blender 4.4.1
# www.blender.org
mtllib 2.mtl
o 2
v -0.202143 -0.221524 0.050000
v -0.193775 -0.181078 0.050000
v 0.094928 -0.221524 0.050000
v -0.202143 -0.221524 -0.050000
v -0.193775 -0.181078 -0.050000
v 0.094928 -0.221524 -0.050000
v 0.108180 -0.095313 -0.050000
v 0.097216 -0.126772 -0.050000
v 0.086199 -0.145561 -0.050000
v 0.073736 -0.155358 -0.050000
v 0.057620 -0.159155 -0.050000
v 0.098570 -0.123585 -0.050000
v 0.087644 -0.143731 -0.050000
v 0.075402 -0.154578 -0.050000
v 0.059905 -0.158917 -0.050000
v 0.127006 -0.090422 -0.050000
v 0.099928 -0.120185 -0.050000
v 0.089066 -0.141765 -0.050000
v 0.077017 -0.153697 -0.050000
v 0.062114 -0.158612 -0.050000
v 0.101291 -0.116573 -0.050000
v 0.090463 -0.139663 -0.050000
v 0.078608 -0.152680 -0.050000
v 0.064245 -0.158239 -0.050000
v 0.102659 -0.112747 -0.050000
v 0.091836 -0.137425 -0.050000
v 0.080174 -0.151527 -0.050000
v 0.066298 -0.157799 -0.050000
v 0.104032 -0.108708 -0.050000
v 0.093184 -0.135053 -0.050000
v 0.081717 -0.150239 -0.050000
v 0.068274 -0.157290 -0.050000
v 0.050297 -0.159460 -0.050000
v 0.105410 -0.104456 -0.050000
v 0.094523 -0.132505 -0.050000
v 0.083235 -0.148816 -0.050000
v 0.070172 -0.156714 -0.050000
v 0.052816 -0.159426 -0.050000
v 0.106792 -0.099991 -0.050000
v 0.095867 -0.129745 -0.050000
v 0.084729 -0.147256 -0.050000
v 0.071993 -0.156070 -0.050000
v 0.055256 -0.159324 -0.050000
v 0.055256 -0.159324 0.050000
v 0.052816 -0.159426 0.050000
v 0.057620 -0.159155 0.050000
v 0.059905 -0.158917 0.050000
v 0.062114 -0.158612 0.050000
v 0.064245 -0.158239 0.050000
v 0.066298 -0.157799 0.050000
v 0.068274 -0.157290 0.050000
v 0.070172 -0.156714 0.050000
v 0.071993 -0.156070 0.050000
v 0.073736 -0.155358 0.050000
v 0.075402 -0.154578 0.050000
v 0.077017 -0.153697 0.050000
v 0.078608 -0.152680 0.050000
v 0.080174 -0.151527 0.050000
v 0.081717 -0.150239 0.050000
v 0.083235 -0.148816 0.050000
v 0.084729 -0.147256 0.050000
v 0.086199 -0.145561 0.050000
v 0.087644 -0.143731 0.050000
v 0.089066 -0.141765 0.050000
v 0.090463 -0.139663 0.050000
v 0.091836 -0.137425 0.050000
v 0.093184 -0.135053 0.050000
v 0.094523 -0.132505 0.050000
v 0.095867 -0.129745 0.050000
v 0.097216 -0.126772 0.050000
v 0.098570 -0.123585 0.050000
v 0.099928 -0.120185 0.050000
v 0.101291 -0.116573 0.050000
v 0.102659 -0.112747 0.050000
v 0.104032 -0.108708 0.050000
v 0.105410 -0.104456 0.050000
v 0.106792 -0.099991 0.050000
v 0.108180 -0.095313 0.050000
v 0.127006 -0.090422 0.050000
v 0.109572 -0.090422 0.050000
v 0.109572 -0.090422 -0.050000
v 0.050297 -0.159460 0.050000
v -0.135895 -0.159460 0.050000
v -0.135895 -0.156670 0.050000
v -0.135895 -0.159460 -0.050000
v -0.135895 -0.156670 -0.050000
v -0.014643 -0.026256 -0.050000
v -0.008999 -0.021014 -0.050000
v 0.067034 0.010694 -0.050000
v -0.003515 -0.015767 -0.050000
v 0.001810 -0.010515 -0.050000
v 0.006975 -0.005258 -0.050000
v 0.011979 0.000003 -0.050000
v -0.026411 -0.036726 -0.050000
v -0.020447 -0.031494 -0.050000
v -0.020447 -0.031494 0.050000
v -0.026411 -0.036726 0.050000
v -0.014643 -0.026256 0.050000
v -0.008999 -0.021014 0.050000
v -0.003515 -0.015767 0.050000
v 0.001810 -0.010515 0.050000
v 0.006975 -0.005258 0.050000
v 0.011979 0.000003 0.050000
v 0.016825 0.005270 0.050000
v 0.067034 0.010694 0.050000
v 0.021510 0.010541 0.050000
v 0.026035 0.015817 0.050000
v 0.075780 0.017948 0.050000
v 0.084119 0.025067 0.050000
v 0.030401 0.021098 0.050000
v 0.075780 0.017948 -0.050000
v 0.026035 0.015817 -0.050000
v 0.084119 0.025067 -0.050000
v 0.030401 0.021098 -0.050000
v 0.034607 0.026384 -0.050000
v 0.038653 0.031687 -0.050000
v 0.034607 0.026384 0.050000
v 0.038653 0.031687 0.050000
v 0.092051 0.032050 0.050000
v 0.042539 0.037019 0.050000
v 0.099577 0.038898 0.050000
v 0.046266 0.042379 0.050000
v 0.042539 0.037019 -0.050000
v 0.092051 0.032050 -0.050000
v 0.099577 0.038898 -0.050000
v 0.046266 0.042379 -0.050000
v 0.106696 0.045610 -0.050000
v 0.049833 0.047769 -0.050000
v 0.053239 0.053188 -0.050000
v 0.113408 0.052186 -0.050000
v 0.049833 0.047769 0.050000
v 0.106696 0.045610 0.050000
v 0.053239 0.053188 0.050000
v 0.113408 0.052186 0.050000
v 0.119713 0.058627 0.050000
v 0.056486 0.058636 0.050000
v 0.059574 0.064113 0.050000
v 0.125611 0.064932 0.050000
v 0.119713 0.058627 -0.050000
v 0.056486 0.058636 -0.050000
v 0.059574 0.064113 -0.050000
v 0.125611 0.064932 -0.050000
v 0.131103 0.071102 -0.050000
v 0.062501 0.069620 -0.050000
v 0.065269 0.075155 -0.050000
v 0.062501 0.069620 0.050000
v 0.065269 0.075155 0.050000
v 0.131103 0.071102 0.050000
v 0.136188 0.077136 0.050000
v 0.067876 0.080719 0.050000
v 0.140866 0.083034 0.050000
v 0.136188 0.077136 -0.050000
v 0.067876 0.080719 -0.050000
v 0.140866 0.083034 -0.050000
v 0.070324 0.086312 -0.050000
v 0.145137 0.088797 -0.050000
v 0.149035 0.094511 -0.050000
v 0.072613 0.091935 -0.050000
v 0.145137 0.088797 0.050000
v 0.149035 0.094511 0.050000
v 0.070324 0.086312 0.050000
v 0.072613 0.091935 0.050000
v 0.074729 0.097589 0.050000
v 0.076661 0.103277 0.050000
v 0.152595 0.100264 0.050000
v 0.074729 0.097589 -0.050000
v 0.076661 0.103277 -0.050000
v 0.152595 0.100264 -0.050000
v 0.155815 0.106056 -0.050000
v 0.078409 0.108998 -0.050000
v 0.158697 0.111887 -0.050000
v 0.155815 0.106056 0.050000
v 0.078409 0.108998 0.050000
v 0.158697 0.111887 0.050000
v 0.161239 0.117756 0.050000
v 0.079973 0.114754 0.050000
v 0.081354 0.120543 0.050000
v 0.079973 0.114754 -0.050000
v 0.081354 0.120543 -0.050000
v 0.161239 0.117756 -0.050000
v 0.163442 0.123664 -0.050000
v 0.082550 0.126367 -0.050000
v 0.165307 0.129611 -0.050000
v 0.163442 0.123664 0.050000
v 0.082550 0.126367 0.050000
v 0.165307 0.129611 0.050000
v 0.083562 0.132224 0.050000
v 0.166832 0.135597 0.050000
v 0.168019 0.141621 0.050000
v 0.084390 0.138115 0.050000
v 0.166832 0.135597 -0.050000
v 0.168019 0.141621 -0.050000
v 0.083562 0.132224 -0.050000
v 0.084390 0.138115 -0.050000
v 0.085034 0.144040 -0.050000
v 0.085494 0.149999 -0.050000
v 0.168866 0.147684 -0.050000
v 0.085034 0.144040 0.050000
v 0.085494 0.149999 0.050000
v 0.168866 0.147684 0.050000
v 0.169375 0.153786 0.050000
v 0.085770 0.155992 0.050000
v 0.169544 0.159927 0.050000
v 0.169375 0.153786 -0.050000
v 0.085770 0.155992 -0.050000
v 0.169544 0.159927 -0.050000
v 0.169421 0.165556 -0.050000
v 0.085862 0.162019 -0.050000
v 0.085734 0.169091 -0.050000
v 0.085862 0.162019 0.050000
v 0.085734 0.169091 0.050000
v 0.169421 0.165556 0.050000
v 0.169050 0.171055 0.050000
v 0.085349 0.175898 0.050000
v 0.168433 0.176423 0.050000
v 0.169050 0.171055 -0.050000
v 0.085349 0.175898 -0.050000
v 0.168433 0.176423 -0.050000
v 0.167568 0.181661 -0.050000
v 0.084707 0.182438 -0.050000
v 0.166457 0.186767 -0.050000
v 0.167568 0.181661 0.050000
v 0.084707 0.182438 0.050000
v 0.166457 0.186767 0.050000
v 0.165099 0.191743 0.050000
v 0.083809 0.188712 0.050000
v 0.082654 0.194719 0.050000
v 0.083809 0.188712 -0.050000
v 0.082654 0.194719 -0.050000
v 0.165099 0.191743 -0.050000
v 0.163493 0.196588 -0.050000
v 0.081242 0.200460 -0.050000
v 0.161641 0.201303 -0.050000
v 0.163493 0.196588 0.050000
v 0.081242 0.200460 0.050000
v 0.161641 0.201303 0.050000
v 0.159542 0.205886 0.050000
v 0.157195 0.210339 0.050000
v 0.079574 0.205935 0.050000
v 0.159542 0.205886 -0.050000
v 0.157195 0.210339 -0.050000
v 0.079574 0.205935 -0.050000
v 0.077649 0.211143 -0.050000
v 0.075467 0.216085 -0.050000
v 0.154602 0.214661 -0.050000
v 0.077649 0.211143 0.050000
v 0.075467 0.216085 0.050000
v 0.154602 0.214661 0.050000
v 0.151762 0.218853 0.050000
v 0.073029 0.220761 0.050000
v 0.148704 0.222901 0.050000
v 0.151762 0.218853 -0.050000
v 0.073029 0.220761 -0.050000
v 0.148704 0.222901 -0.050000
v 0.145457 0.226795 -0.050000
v 0.070334 0.225170 -0.050000
v 0.067382 0.229313 -0.050000
v 0.070334 0.225170 0.050000
v 0.067382 0.229313 0.050000
v 0.145457 0.226795 0.050000
v 0.142021 0.230533 0.050000
v 0.138396 0.234117 0.050000
v 0.064189 0.233156 0.050000
v 0.142021 0.230533 -0.050000
v 0.138396 0.234117 -0.050000
v 0.064189 0.233156 -0.050000
v 0.060767 0.236664 -0.050000
v 0.134582 0.237545 -0.050000
v 0.057118 0.239838 -0.050000
v 0.060767 0.236664 0.050000
v 0.134582 0.237545 0.050000
v 0.057118 0.239838 0.050000
v 0.053242 0.242679 0.050000
v 0.130580 0.240819 0.050000
v 0.126388 0.243938 0.050000
v 0.130580 0.240819 -0.050000
v 0.053242 0.242679 -0.050000
v 0.126388 0.243938 -0.050000
v 0.049138 0.245185 -0.050000
v 0.122008 0.246902 -0.050000
v 0.044806 0.247357 -0.050000
v 0.040246 0.249195 -0.050000
v 0.117439 0.249710 -0.050000
v 0.122008 0.246902 0.050000
v 0.049138 0.245185 0.050000
v 0.044806 0.247357 0.050000
v 0.040246 0.249195 0.050000
v 0.117439 0.249710 0.050000
v 0.112681 0.252364 0.050000
v 0.035459 0.250698 0.050000
v 0.030445 0.251868 0.050000
v 0.025202 0.252703 0.050000
v 0.030445 0.251868 -0.050000
v 0.035459 0.250698 -0.050000
v 0.025202 0.252703 -0.050000
v 0.112681 0.252364 -0.050000
v 0.019733 0.253204 -0.050000
v 0.014035 0.253371 -0.050000
v -0.048378 0.254069 -0.050000
v 0.107734 0.254863 -0.050000
v 0.102599 0.257207 -0.050000
v -0.042767 0.256742 -0.050000
v 0.107734 0.254863 0.050000
v -0.048378 0.254069 0.050000
v 0.102599 0.257207 0.050000
v -0.042767 0.256742 0.050000
v -0.036978 0.259183 0.050000
v -0.031009 0.261391 0.050000
v 0.091887 0.261362 0.050000
v 0.097305 0.259379 0.050000
v -0.036978 0.259183 -0.050000
v -0.031009 0.261391 -0.050000
v 0.091887 0.261362 -0.050000
v 0.097305 0.259379 -0.050000
v 0.086342 0.263156 -0.050000
v -0.024861 0.263367 -0.050000
v 0.080671 0.264761 -0.050000
v 0.086342 0.263156 0.050000
v -0.024861 0.263367 0.050000
v 0.080671 0.264761 0.050000
v 0.074874 0.266178 0.050000
v -0.018534 0.265110 0.050000
v -0.012028 0.266621 0.050000
v -0.018534 0.265110 -0.050000
v -0.012028 0.266621 -0.050000
v 0.074874 0.266178 -0.050000
v 0.068951 0.267406 -0.050000
v -0.005343 0.267900 -0.050000
v 0.062903 0.268444 -0.050000
v 0.068951 0.267406 0.050000
v -0.005343 0.267900 0.050000
v 0.062903 0.268444 0.050000
v 0.001522 0.268946 0.050000
v 0.056728 0.269294 0.050000
v 0.050428 0.269955 0.050000
v 0.008565 0.269759 0.050000
v 0.056728 0.269294 -0.050000
v 0.050428 0.269955 -0.050000
v 0.001522 0.268946 -0.050000
v 0.008565 0.269759 -0.050000
v 0.015788 0.270340 -0.050000
v 0.023190 0.270689 -0.050000
v 0.044002 0.270427 -0.050000
v 0.015788 0.270340 0.050000
v 0.023190 0.270689 0.050000
v 0.044002 0.270427 0.050000
v 0.037450 0.270711 0.050000
v 0.030772 0.270805 0.050000
v 0.037450 0.270711 -0.050000
v 0.030772 0.270805 -0.050000
v 0.014035 0.253371 0.050000
v -0.053794 0.251207 0.050000
v 0.009527 0.253284 0.050000
v 0.005066 0.253023 0.050000
v 0.009527 0.253284 -0.050000
v -0.053794 0.251207 -0.050000
v 0.005066 0.253023 -0.050000
v 0.000655 0.252587 -0.050000
v -0.003709 0.251977 -0.050000
v 0.000655 0.252587 0.050000
v -0.003709 0.251977 0.050000
v -0.008023 0.251192 0.050000
v -0.059003 0.248199 0.050000
v -0.012290 0.250233 0.050000
v -0.008023 0.251192 -0.050000
v -0.059003 0.248199 -0.050000
v -0.012290 0.250233 -0.050000
v -0.016508 0.249100 -0.050000
v -0.020677 0.247793 -0.050000
v -0.016508 0.249100 0.050000
v -0.020677 0.247793 0.050000
v -0.064003 0.245047 0.050000
v -0.024799 0.246311 0.050000
v -0.028871 0.244655 0.050000
v -0.024799 0.246311 -0.050000
v -0.064003 0.245047 -0.050000
v -0.028871 0.244655 -0.050000
v -0.068795 0.241749 -0.050000
v -0.032896 0.242824 -0.050000
v -0.036871 0.240819 -0.050000
v -0.032896 0.242824 0.050000
v -0.068795 0.241749 0.050000
v -0.036871 0.240819 0.050000
v -0.073378 0.238306 0.050000
v -0.040758 0.238696 0.050000
v -0.044513 0.236509 0.050000
v -0.040758 0.238696 -0.050000
v -0.073378 0.238306 -0.050000
v -0.044513 0.236509 -0.050000
v -0.077754 0.234717 -0.050000
v -0.048138 0.234260 -0.050000
v -0.081921 0.230984 -0.050000
v -0.051632 0.231947 -0.050000
v -0.048138 0.234260 0.050000
v -0.077754 0.234717 0.050000
v -0.081921 0.230984 0.050000
v -0.051632 0.231947 0.050000
v -0.054995 0.229572 0.050000
v -0.085880 0.227105 0.050000
v -0.058228 0.227134 0.050000
v -0.054995 0.229572 -0.050000
v -0.085880 0.227105 -0.050000
v -0.058228 0.227134 -0.050000
v -0.061329 0.224632 -0.050000
v -0.089630 0.223080 -0.050000
v -0.064300 0.222068 -0.050000
v -0.061329 0.224632 0.050000
v -0.089630 0.223080 0.050000
v -0.064300 0.222068 0.050000
v -0.093173 0.218911 0.050000
v -0.067141 0.219441 0.050000
v -0.069850 0.216751 0.050000
v -0.067141 0.219441 -0.050000
v -0.093173 0.218911 -0.050000
v -0.069850 0.216751 -0.050000
v -0.096507 0.214596 -0.050000
v -0.072429 0.213998 -0.050000
v -0.099633 0.210136 -0.050000
v -0.074877 0.211182 -0.050000
v -0.072429 0.213998 0.050000
v -0.096507 0.214596 0.050000
v -0.099633 0.210136 0.050000
v -0.074877 0.211182 0.050000
v -0.077160 0.208361 0.050000
v -0.102529 0.205569 0.050000
v -0.079245 0.205593 0.050000
v -0.077160 0.208361 -0.050000
v -0.102529 0.205569 -0.050000
v -0.079245 0.205593 -0.050000
v -0.081131 0.202879 -0.050000
v -0.105173 0.200935 -0.050000
v -0.082819 0.200218 -0.050000
v -0.081131 0.202879 0.050000
v -0.105173 0.200935 0.050000
v -0.082819 0.200218 0.050000
v -0.107565 0.196232 0.050000
v -0.084308 0.197610 0.050000
v -0.085599 0.195056 0.050000
v -0.084308 0.197610 -0.050000
v -0.107565 0.196232 -0.050000
v -0.085599 0.195056 -0.050000
v -0.109706 0.191462 -0.050000
v -0.086691 0.192554 -0.050000
v -0.087584 0.190106 -0.050000
v -0.086691 0.192554 0.050000
v -0.109706 0.191462 0.050000
v -0.087584 0.190106 0.050000
v -0.111594 0.186624 0.050000
v -0.088279 0.187712 0.050000
v -0.088776 0.185370 0.050000
v -0.088279 0.187712 -0.050000
v -0.111594 0.186624 -0.050000
v -0.088776 0.185370 -0.050000
v -0.113231 0.181719 -0.050000
v -0.089073 0.183082 -0.050000
v -0.089173 0.180847 -0.050000
v -0.089073 0.183082 0.050000
v -0.113231 0.181719 0.050000
v -0.089173 0.180847 0.050000
v -0.114616 0.176745 0.050000
v -0.089110 0.179038 0.050000
v -0.088921 0.177331 0.050000
v -0.089110 0.179038 -0.050000
v -0.114616 0.176745 -0.050000
v -0.088921 0.177331 -0.050000
v -0.088606 0.175726 -0.050000
v -0.115749 0.171704 -0.050000
v -0.088165 0.174222 -0.050000
v -0.088606 0.175726 0.050000
v -0.115749 0.171704 0.050000
v -0.088165 0.174222 0.050000
v -0.087599 0.172820 0.050000
v -0.086906 0.171520 0.050000
v -0.087599 0.172820 -0.050000
v -0.086906 0.171520 -0.050000
v -0.116631 0.166595 -0.050000
v -0.086088 0.170321 -0.050000
v -0.085144 0.169225 -0.050000
v -0.086088 0.170321 0.050000
v -0.116631 0.166595 0.050000
v -0.085144 0.169225 0.050000
v -0.084073 0.168229 0.050000
v -0.082877 0.167336 0.050000
v -0.084073 0.168229 -0.050000
v -0.082877 0.167336 -0.050000
v -0.081555 0.166544 -0.050000
v -0.117260 0.161418 -0.050000
v -0.080107 0.165854 -0.050000
v -0.081555 0.166544 0.050000
v -0.117260 0.161418 0.050000
v -0.080107 0.165854 0.050000
v -0.078579 0.165227 0.050000
v -0.077017 0.164624 0.050000
v -0.078579 0.165227 -0.050000
v -0.077017 0.164624 -0.050000
v -0.075422 0.164045 -0.050000
v -0.073792 0.163491 -0.050000
v -0.075422 0.164045 0.050000
v -0.073792 0.163491 0.050000
v -0.072129 0.162960 0.050000
v -0.070431 0.162454 0.050000
v -0.072129 0.162960 -0.050000
v -0.070431 0.162454 -0.050000
v -0.068700 0.161973 -0.050000
v -0.066935 0.161515 -0.050000
v -0.068700 0.161973 0.050000
v -0.066935 0.161515 0.050000
v -0.065136 0.161081 0.050000
v -0.117638 0.156173 0.050000
v -0.063303 0.160672 0.050000
v -0.065136 0.161081 -0.050000
v -0.117638 0.156173 -0.050000
v -0.063303 0.160672 -0.050000
v -0.061436 0.160287 -0.050000
v -0.059535 0.159927 -0.050000
v -0.061436 0.160287 0.050000
v -0.059535 0.159927 0.050000
v -0.057635 0.159546 0.050000
v -0.055768 0.159103 0.050000
v -0.057635 0.159546 -0.050000
v -0.055768 0.159103 -0.050000
v -0.053935 0.158597 -0.050000
v -0.052136 0.158028 -0.050000
v -0.053935 0.158597 0.050000
v -0.052136 0.158028 0.050000
v -0.050370 0.157396 0.050000
v -0.048639 0.156701 0.050000
v -0.050370 0.157396 -0.050000
v -0.048639 0.156701 -0.050000
v -0.046942 0.155943 -0.050000
v -0.117764 0.150861 -0.050000
v -0.045278 0.155123 -0.050000
v -0.046942 0.155943 0.050000
v -0.117764 0.150861 0.050000
v -0.045278 0.155123 0.050000
v -0.043649 0.154239 0.050000
v -0.042053 0.153292 0.050000
v -0.043649 0.154239 -0.050000
v -0.042053 0.153292 -0.050000
v -0.040491 0.152282 -0.050000
v -0.038963 0.151210 -0.050000
v -0.040491 0.152282 0.050000
v -0.038963 0.151210 0.050000
v -0.037515 0.150040 0.050000
v -0.117708 0.147205 0.050000
v -0.036193 0.148740 0.050000
v -0.037515 0.150040 -0.050000
v -0.117708 0.147205 -0.050000
v -0.036193 0.148740 -0.050000
v -0.034997 0.147309 -0.050000
v -0.033927 0.145747 -0.050000
v -0.034997 0.147309 0.050000
v -0.033927 0.145747 0.050000
v -0.117541 0.143674 0.050000
v -0.032983 0.144055 0.050000
v -0.032164 0.142231 0.050000
v -0.032983 0.144055 -0.050000
v -0.117541 0.143674 -0.050000
v -0.032164 0.142231 -0.050000
v -0.117263 0.140270 -0.050000
v -0.031472 0.140277 -0.050000
v -0.030905 0.138192 -0.050000
v -0.031472 0.140277 0.050000
v -0.117263 0.140270 0.050000
v -0.030905 0.138192 0.050000
v -0.116873 0.136991 0.050000
v -0.030464 0.135977 0.050000
v -0.116372 0.133839 0.050000
v -0.030150 0.133631 0.050000
v -0.030464 0.135977 -0.050000
v -0.116873 0.136991 -0.050000
v -0.116372 0.133839 -0.050000
v -0.030150 0.133631 -0.050000
v -0.115759 0.130812 -0.050000
v -0.029961 0.131154 -0.050000
v -0.029898 0.128546 -0.050000
v -0.029961 0.131154 0.050000
v -0.115759 0.130812 0.050000
v -0.029898 0.128546 0.050000
v -0.115035 0.127911 0.050000
v -0.029975 0.125691 0.050000
v -0.114200 0.125137 0.050000
v -0.030208 0.122938 0.050000
v -0.029975 0.125691 -0.050000
v -0.115035 0.127911 -0.050000
v -0.114200 0.125137 -0.050000
v -0.030208 0.122938 -0.050000
v -0.113253 0.122488 -0.050000
v -0.030595 0.120287 -0.050000
v -0.112195 0.119965 -0.050000
v -0.031138 0.117737 -0.050000
v -0.030595 0.120287 0.050000
v -0.113253 0.122488 0.050000
v -0.112195 0.119965 0.050000
v -0.031138 0.117737 0.050000
v -0.111025 0.117567 0.050000
v -0.031835 0.115289 0.050000
v -0.109744 0.115296 0.050000
v -0.108384 0.113141 0.050000
v -0.032687 0.112943 0.050000
v -0.031835 0.115289 -0.050000
v -0.111025 0.117567 -0.050000
v -0.109744 0.115296 -0.050000
v -0.108384 0.113141 -0.050000
v -0.032687 0.112943 -0.050000
v -0.106974 0.111093 -0.050000
v -0.033695 0.110698 -0.050000
v -0.105517 0.109151 -0.050000
v -0.034857 0.108555 -0.050000
v -0.033695 0.110698 0.050000
v -0.106974 0.111093 0.050000
v -0.105517 0.109151 0.050000
v -0.034857 0.108555 0.050000
v -0.104011 0.107315 0.050000
v -0.036174 0.106514 0.050000
v -0.102456 0.105586 0.050000
v -0.037646 0.104574 0.050000
v -0.036174 0.106514 -0.050000
v -0.104011 0.107315 -0.050000
v -0.102456 0.105586 -0.050000
v -0.037646 0.104574 -0.050000
v -0.100853 0.103964 -0.050000
v -0.039273 0.102737 -0.050000
v -0.099202 0.102448 -0.050000
v -0.041056 0.101000 -0.050000
v -0.039273 0.102737 0.050000
v -0.100853 0.103964 0.050000
v -0.099202 0.102448 0.050000
v -0.041056 0.101000 0.050000
v -0.097502 0.101039 0.050000
v -0.095754 0.099736 0.050000
v -0.042949 0.099385 0.050000
v -0.093957 0.098540 0.050000
v -0.044910 0.097911 0.050000
v -0.042949 0.099385 -0.050000
v -0.095754 0.099736 -0.050000
v -0.093957 0.098540 -0.050000
v -0.044910 0.097911 -0.050000
v -0.092112 0.097451 -0.050000
v -0.046939 0.096577 -0.050000
v -0.090219 0.096468 -0.050000
v -0.049036 0.095383 -0.050000
v -0.046939 0.096577 0.050000
v -0.092112 0.097451 0.050000
v -0.090219 0.096468 0.050000
v -0.049036 0.095383 0.050000
v -0.088308 0.095577 0.050000
v -0.086412 0.094763 0.050000
v -0.051201 0.094330 0.050000
v -0.084531 0.094027 0.050000
v -0.053433 0.093417 0.050000
v -0.051201 0.094330 -0.050000
v -0.086412 0.094763 -0.050000
v -0.084531 0.094027 -0.050000
v -0.053433 0.093417 -0.050000
v -0.082664 0.093368 -0.050000
v -0.055734 0.092644 -0.050000
v -0.080812 0.092787 -0.050000
v -0.078974 0.092284 -0.050000
v -0.058102 0.092012 -0.050000
v -0.055734 0.092644 0.050000
v -0.082664 0.093368 0.050000
v -0.080812 0.092787 0.050000
v -0.078974 0.092284 0.050000
v -0.058102 0.092012 0.050000
v -0.077151 0.091857 0.050000
v -0.060538 0.091521 0.050000
v -0.075342 0.091509 0.050000
v -0.063041 0.091170 0.050000
v -0.060538 0.091521 -0.050000
v -0.077151 0.091857 -0.050000
v -0.075342 0.091509 -0.050000
v -0.063041 0.091170 -0.050000
v -0.073548 0.091238 -0.050000
v -0.071768 0.091044 -0.050000
v -0.065613 0.090959 -0.050000
v -0.070003 0.090928 -0.050000
v -0.068252 0.090889 -0.050000
v -0.065613 0.090959 0.050000
v -0.071768 0.091044 0.050000
v -0.070003 0.090928 0.050000
v -0.068252 0.090889 0.050000
v -0.073548 0.091238 0.050000
v -0.088308 0.095577 -0.050000
v -0.097502 0.101039 -0.050000
v 0.019733 0.253204 0.050000
v 0.021510 0.010541 -0.050000
v 0.016825 0.005270 -0.050000
vn -0.9793 0.2026 -0.0000
vn -0.0000 -0.0000 1.0000
vn -0.0000 -1.0000 -0.0000
vn -0.0000 -0.0000 -1.0000
vn 0.9713 -0.2377 -0.0000
vn -0.0416 0.9991 -0.0000
vn -0.0715 0.9974 -0.0000
vn -0.1033 0.9947 -0.0000
vn -0.1369 0.9906 -0.0000
vn -0.1724 0.9850 -0.0000
vn -0.2098 0.9777 -0.0000
vn -0.2492 0.9684 -0.0000
vn -0.2905 0.9569 -0.0000
vn -0.3335 0.9428 -0.0000
vn -0.3780 0.9258 -0.0000
vn -0.4239 0.9057 -0.0000
vn -0.4790 0.8778 -0.0000
vn -0.5386 0.8426 -0.0000
vn -0.5926 0.8055 -0.0000
vn -0.6410 0.7675 -0.0000
vn -0.6841 0.7294 -0.0000
vn -0.7221 0.6918 -0.0000
vn -0.7555 0.6551 -0.0000
vn -0.7848 0.6197 -0.0000
vn -0.8104 0.5859 -0.0000
vn -0.8328 0.5536 -0.0000
vn -0.8523 0.5230 -0.0000
vn -0.8694 0.4941 -0.0000
vn -0.8852 0.4653 -0.0000
vn -0.8991 0.4377 -0.0000
vn -0.9107 0.4131 -0.0000
vn -0.9204 0.3910 -0.0000
vn -0.9286 0.3711 -0.0000
vn -0.9356 0.3530 -0.0000
vn -0.9416 0.3367 -0.0000
vn -0.9468 0.3218 -0.0000
vn -0.9513 0.3083 -0.0000
vn -0.9553 0.2958 -0.0000
vn -0.9587 0.2843 -0.0000
vn -0.9618 0.2738 -0.0000
vn -0.0000 1.0000 -0.0000
vn -0.0135 0.9999 -0.0000
vn 1.0000 -0.0000 -0.0000
vn 0.6363 -0.7715 -0.0000
vn -0.6595 0.7517 -0.0000
vn -0.6699 0.7424 -0.0000
vn -0.6805 0.7327 -0.0000
vn -0.6913 0.7226 -0.0000
vn -0.7022 0.7119 -0.0000
vn -0.7133 0.7008 -0.0000
vn -0.0000 0.0002 1.0000
vn -0.7246 0.6892 -0.0000
vn -0.7359 0.6771 -0.0000
vn 0.6384 -0.7697 -0.0000
vn 0.6493 -0.7606 -0.0000
vn -0.7707 0.6372 -0.0000
vn -0.7825 0.6226 -0.0000
vn -0.7950 0.6066 -0.0000
vn -0.8081 0.5890 -0.0000
vn -0.8211 0.5708 -0.0000
vn -0.8339 0.5518 -0.0000
vn -0.8466 0.5322 -0.0000
vn 0.6999 -0.7143 -0.0000
vn 0.7146 -0.6995 -0.0000
vn 0.7303 -0.6832 -0.0000
vn 0.7470 -0.6649 -0.0000
vn -0.8830 0.4694 -0.0000
vn -0.8944 0.4472 -0.0000
vn 0.7647 -0.6444 -0.0000
vn 0.7835 -0.6214 -0.0000
vn 0.8034 -0.5955 -0.0000
vn 0.8261 -0.5636 -0.0000
vn -0.9262 0.3769 -0.0000
vn -0.9365 0.3506 -0.0000
vn -0.9469 0.3217 -0.0000
vn 0.8740 -0.4860 -0.0000
vn 0.8504 -0.5261 -0.0000
vn 0.8965 -0.4430 -0.0000
vn 0.9176 -0.3975 -0.0000
vn -0.9650 0.2623 -0.0000
vn -0.9727 0.2319 -0.0000
vn 0.9370 -0.3494 -0.0000
vn 0.9542 -0.2992 -0.0000
vn 0.9690 -0.2470 -0.0000
vn 0.9812 -0.1932 -0.0000
vn -0.9903 0.1392 -0.0000
vn -0.9941 0.1081 -0.0000
vn -0.9970 0.0770 -0.0000
vn 0.9965 -0.0830 -0.0000
vn 0.9904 -0.1384 -0.0000
vn 0.9996 -0.0276 -0.0000
vn 0.9998 0.0219 -0.0000
vn -0.9999 0.0153 -0.0000
vn -0.9998 -0.0181 -0.0000
vn 0.9977 0.0672 -0.0000
vn 0.9935 0.1143 -0.0000
vn 0.9867 0.1628 -0.0000
vn 0.9771 0.2127 -0.0000
vn 0.9647 0.2634 -0.0000
vn -0.9899 -0.1417 -0.0000
vn -0.9820 -0.1888 -0.0000
vn 0.9493 0.3145 -0.0000
vn 0.9307 0.3657 -0.0000
vn 0.9092 0.4164 -0.0000
vn 0.8847 0.4662 -0.0000
vn -0.9566 -0.2915 -0.0000
vn -0.9380 -0.3467 -0.0000
vn -0.9148 -0.4039 -0.0000
vn 0.8278 0.5610 -0.0000
vn 0.8575 0.5145 -0.0000
vn 0.7979 0.6027 -0.0000
vn 0.7680 0.6405 -0.0000
vn -0.8532 -0.5215 -0.0000
vn -0.8144 -0.5802 -0.0000
vn 0.7363 0.6767 -0.0000
vn 0.7031 0.7111 -0.0000
vn -0.7691 -0.6392 -0.0000
vn -0.7159 -0.6982 -0.0000
vn -0.6563 -0.7545 -0.0000
vn -0.5910 -0.8067 -0.0000
vn 0.6331 0.7741 -0.0000
vn 0.5970 0.8023 -0.0000
vn 0.5604 0.8282 -0.0000
vn 0.5237 0.8519 -0.0000
vn 0.4871 0.8733 -0.0000
vn -0.2271 -0.9739 -0.0000
vn -0.1574 -0.9875 -0.0000
vn 0.4509 0.8926 -0.0000
vn 0.4152 0.9097 -0.0000
vn -0.4301 0.9028 -0.0000
vn -0.3885 0.9215 -0.0000
vn -0.3470 0.9379 -0.0000
vn 0.3796 0.9251 -0.0000
vn 0.3437 0.9391 -0.0000
vn 0.3079 0.9514 -0.0000
vn 0.2724 0.9622 -0.0000
vn 0.2374 0.9714 -0.0000
vn -0.2656 0.9641 -0.0000
vn -0.2262 0.9741 -0.0000
vn 0.2030 0.9792 -0.0000
vn 0.1693 0.9856 -0.0000
vn 0.1364 0.9907 -0.0000
vn 0.1043 0.9945 -0.0000
vn -0.1147 0.9934 -0.0000
vn -0.0802 0.9968 -0.0000
vn -0.0471 0.9989 -0.0000
vn 0.0733 0.9973 -0.0000
vn 0.0432 0.9991 -0.0000
vn 0.0141 0.9999 -0.0000
vn -0.0153 0.9999 -0.0000
vn -0.1506 0.9886 -0.0000
vn -0.1878 0.9822 -0.0000
vn -0.3060 0.9520 -0.0000
vn -0.4672 0.8842 -0.0000
vn 0.0193 -0.9998 -0.0000
vn 0.0585 -0.9983 -0.0000
vn 0.0983 -0.9952 -0.0000
vn 0.1385 -0.9904 -0.0000
vn 0.1789 -0.9839 -0.0000
vn 0.2193 -0.9757 -0.0000
vn 0.2595 -0.9658 -0.0000
vn 0.2992 -0.9542 -0.0000
vn 0.3384 -0.9410 -0.0000
vn 0.3767 -0.9263 -0.0000
vn 0.4140 -0.9103 -0.0000
vn 0.4503 -0.8929 -0.0000
vn 0.4795 -0.8775 -0.0000
vn 0.5031 -0.8642 -0.0000
vn 0.5273 -0.8497 -0.0000
vn 0.5519 -0.8339 -0.0000
vn 0.5769 -0.8168 -0.0000
vn 0.6022 -0.7983 -0.0000
vn 0.6277 -0.7784 -0.0000
vn 0.6534 -0.7570 -0.0000
vn 0.6790 -0.7341 -0.0000
vn 0.7046 -0.7096 -0.0000
vn 0.7298 -0.6836 -0.0000
vn 0.7547 -0.6561 -0.0000
vn 0.7773 -0.6292 -0.0000
vn 0.7987 -0.6017 -0.0000
vn 0.8212 -0.5707 -0.0000
vn 0.8445 -0.5356 -0.0000
vn 0.8684 -0.4959 -0.0000
vn 0.8926 -0.4509 -0.0000
vn 0.9165 -0.4001 -0.0000
vn 0.9394 -0.3429 -0.0000
vn 0.9604 -0.2787 -0.0000
vn 0.9783 -0.2074 -0.0000
vn 0.9916 -0.1291 -0.0000
vn 0.9990 -0.0444 -0.0000
vn 0.9994 0.0348 -0.0000
vn 0.9939 0.1100 -0.0000
vn 0.9813 0.1924 -0.0000
vn 0.9596 0.2812 -0.0000
vn 0.9271 0.3747 -0.0000
vn 0.8826 0.4701 -0.0000
vn 0.8258 0.5639 -0.0000
vn 0.7578 0.6524 -0.0000
vn 0.6810 0.7323 -0.0000
vn 0.5984 0.8012 -0.0000
vn 0.5138 0.8579 -0.0000
vn 0.4302 0.9027 -0.0000
vn 0.3797 0.9251 -0.0000
vn 0.3602 0.9329 -0.0000
vn 0.3409 0.9401 -0.0000
vn 0.3221 0.9467 -0.0000
vn 0.3037 0.9528 -0.0000
vn 0.2857 0.9583 -0.0000
vn 0.2681 0.9634 -0.0000
vn 0.2510 0.9680 -0.0000
vn 0.2342 0.9722 -0.0000
vn 0.2179 0.9760 -0.0000
vn 0.2020 0.9794 -0.0000
vn 0.1865 0.9825 -0.0000
vn 0.1961 0.9806 -0.0000
vn 0.2309 0.9730 -0.0000
vn 0.2661 0.9639 -0.0000
vn 0.3016 0.9534 -0.0000
vn 0.3371 0.9415 -0.0000
vn 0.3725 0.9280 -0.0000
vn 0.4077 0.9131 -0.0000
vn 0.4425 0.8968 -0.0000
vn 0.4767 0.8790 -0.0000
vn 0.5103 0.8600 -0.0000
vn 0.5429 0.8398 -0.0000
vn 0.5746 0.8184 -0.0000
vn 0.6283 0.7779 -0.0000
vn 0.7012 0.7130 -0.0000
vn 0.7673 0.6413 -0.0000
vn 0.8249 0.5653 -0.0000
vn 0.8733 0.4872 -0.0000
vn 0.9123 0.4095 -0.0000
vn 0.9426 0.3340 -0.0000
vn 0.9650 0.2623 -0.0000
vn 0.9808 0.1951 -0.0000
vn 0.9911 0.1330 -0.0000
vn 0.9971 0.0760 -0.0000
vn 0.9997 0.0241 -0.0000
vn 0.9996 -0.0271 -0.0000
vn 0.9965 -0.0841 -0.0000
vn 0.9895 -0.1446 -0.0000
vn 0.9781 -0.2081 -0.0000
vn 0.9617 -0.2740 -0.0000
vn 0.9399 -0.3414 -0.0000
vn 0.9123 -0.4094 -0.0000
vn 0.8790 -0.4768 -0.0000
vn 0.8402 -0.5422 -0.0000
vn 0.7965 -0.6046 -0.0000
vn 0.7487 -0.6629 -0.0000
vn 0.6978 -0.7163 -0.0000
vn 0.6490 -0.7608 -0.0000
vn 0.6009 -0.7993 -0.0000
vn 0.5494 -0.8356 -0.0000
vn 0.4947 -0.8690 -0.0000
vn 0.4375 -0.8992 -0.0000
vn 0.3785 -0.9256 -0.0000
vn 0.3183 -0.9480 -0.0000
vn 0.2579 -0.9662 -0.0000
vn 0.1978 -0.9802 -0.0000
vn 0.1389 -0.9903 -0.0000
vn 0.0817 -0.9967 -0.0000
vn -0.0000 0.0001 -1.0000
vn 0.0266 -0.9996 -0.0000
vn -0.0000 -0.0001 1.0000
vn -0.0221 -0.9998 -0.0000
vn -0.0657 -0.9978 -0.0000
vn -0.1082 -0.9941 -0.0000
vn -0.1495 -0.9888 -0.0000
vn -0.1893 -0.9819 -0.0000
vn -0.2276 -0.9738 -0.0000
vn -0.2643 -0.9644 -0.0000
vn -0.2993 -0.9541 -0.0000
vn -0.3327 -0.9430 -0.0000
vn -0.3644 -0.9313 -0.0000
vn -0.3943 -0.9190 -0.0000
vn -0.4227 -0.9063 -0.0000
vn -0.4608 -0.8875 -0.0000
vn -0.5085 -0.8611 -0.0000
vn -0.5542 -0.8324 -0.0000
vn -0.5975 -0.8019 -0.0000
vn -0.6382 -0.7698 -0.0000
vn -0.6762 -0.7367 -0.0000
vn -0.7113 -0.7028 -0.0000
vn -0.7436 -0.6686 -0.0000
vn -0.7730 -0.6344 -0.0000
vn -0.7998 -0.6003 -0.0000
vn -0.8239 -0.5668 -0.0000
vn -0.8455 -0.5339 -0.0000
vn -0.8710 -0.4912 -0.0000
vn -0.8987 -0.4385 -0.0000
vn -0.9222 -0.3867 -0.0000
vn -0.9417 -0.3366 -0.0000
vn -0.9576 -0.2883 -0.0000
vn -0.9702 -0.2422 -0.0000
vn -0.9801 -0.1984 -0.0000
vn -0.9876 -0.1570 -0.0000
vn -0.9930 -0.1181 -0.0000
vn -0.9967 -0.0815 -0.0000
vn -0.9989 -0.0473 -0.0000
vn -0.9999 -0.0152 -0.0000
vn -0.9997 0.0237 -0.0000
vn -0.9974 0.0718 -0.0000
vn -0.9927 0.1207 -0.0000
vn -0.9854 0.1700 -0.0000
vn -0.9757 0.2193 -0.0000
vn -0.9633 0.2683 -0.0000
vn -0.9486 0.3165 -0.0000
vn -0.9315 0.3637 -0.0000
vn -0.9124 0.4094 -0.0000
vn -0.8913 0.4534 -0.0000
vn -0.8686 0.4956 -0.0000
vn -0.8445 0.5355 -0.0000
vn -0.8189 0.5739 -0.0000
vn -0.7913 0.6114 -0.0000
vn -0.7621 0.6475 -0.0000
vn -0.7315 0.6818 -0.0000
vn -0.6999 0.7143 -0.0000
vn -0.6673 0.7448 -0.0000
vn -0.6341 0.7732 -0.0000
vn -0.6006 0.7995 -0.0000
vn -0.5669 0.8238 -0.0000
vn -0.5333 0.8459 -0.0000
vn -0.5000 0.8660 -0.0000
vn -0.0293 -0.9996 -0.0000
vn -0.0000 0.0001 1.0000
vn -0.0912 -0.9958 -0.0000
vn -0.2997 -0.9540 -0.0000
vn -0.3739 -0.9275 -0.0000
vn -0.4482 -0.8939 -0.0000
vn -0.5211 -0.8535 -0.0000
vn 0.6686 0.7436 -0.0000
vn -0.8867 -0.4624 -0.0000
vn -0.9711 -0.2388 -0.0000
vn -0.9952 -0.0976 -0.0000
vn -0.9984 -0.0565 -0.0000
vn -0.9989 0.0460 -0.0000
vn -0.9854 0.1703 -0.0000
vn -0.9795 0.2012 -0.0000
vn -0.9564 0.2922 -0.0000
vn -0.9161 0.4009 -0.0000
vn -0.9055 0.4244 -0.0000
vn -0.8711 0.4910 -0.0000
vn -0.8590 0.5120 -0.0000
vn 0.6860 -0.7276 -0.0000
vn 0.6730 -0.7396 -0.0000
vn 0.6608 -0.7506 -0.0000
vn -0.7590 0.6510 -0.0000
vn -0.7474 0.6643 -0.0000
vn -0.6531 0.7572 -0.0000
vn -0.1032 0.9947 -0.0000
vn -0.9262 0.3770 -0.0000
vn 0.7979 0.6028 -0.0000
vn -0.4302 0.9028 -0.0000
vn 0.4141 -0.9103 -0.0000
vn 0.3410 0.9401 -0.0000
vn 0.6489 -0.7608 -0.0000
vn 0.2578 -0.9662 -0.0000
vn 0.0816 -0.9967 -0.0000
vn -0.3643 -0.9313 -0.0000
vt 0.000000 0.000000
vt 0.002915 0.000000
vt 1.000000 0.000000
vt 0.991254 0.000000
vt 0.997085 0.000000
vt 0.988338 0.000000
vt 0.967930 0.000000
vt 0.970845 0.000000
vt 0.965015 0.000000
vt 0.944606 0.000000
vt 0.947522 0.000000
vt 0.941691 0.000000
vt 0.921283 0.000000
vt 0.924198 0.000000
vt 0.918367 0.000000
vt 0.897959 0.000000
vt 0.900875 0.000000
vt 0.895044 0.000000
vt 0.973761 0.000000
vt 0.950437 0.000000
vt 0.927114 0.000000
vt 0.903790 0.000000
vt 0.976676 0.000000
vt 0.953353 0.000000
vt 0.930029 0.000000
vt 0.906706 0.000000
vt 0.979592 0.000000
vt 0.956268 0.000000
vt 0.932945 0.000000
vt 0.909621 0.000000
vt 0.982507 0.000000
vt 0.959184 0.000000
vt 0.935860 0.000000
vt 0.912536 0.000000
vt 0.985423 0.000000
vt 0.962099 0.000000
vt 0.938776 0.000000
vt 0.915452 0.000000
vt 0.889213 0.000000
vt 0.892128 0.000000
vt 0.994169 0.000000
vt 0.886297 0.000000
vt 0.883382 0.000000
vt 0.011662 0.000000
vt 0.014577 0.000000
vt 0.008746 0.000000
vt 0.017493 0.000000
vt 0.880466 0.000000
vt 0.026239 0.000000
vt 0.020408 0.000000
vt 0.023324 0.000000
vt 0.005831 0.000000
vt 0.029155 0.000000
vt 0.032070 0.000000
vt 0.034985 0.000000
vt 0.877551 0.000000
vt 0.037901 0.000000
vt 0.874636 0.000000
vt 0.040816 0.000000
vt 0.043732 0.000000
vt 0.871720 0.000000
vt 0.046647 0.000000
vt 0.868805 0.000000
vt 0.049563 0.000000
vt 0.865889 0.000000
vt 0.052478 0.000000
vt 0.862974 0.000000
vt 0.055394 0.000000
vt 0.860058 0.000000
vt 0.058309 0.000000
vt 0.061224 0.000000
vt 0.857143 0.000000
vt 0.854227 0.000000
vt 0.064140 0.000000
vt 0.067055 0.000000
vt 0.851312 0.000000
vt 0.069971 0.000000
vt 0.848396 0.000000
vt 0.072886 0.000000
vt 0.845481 0.000000
vt 0.842566 0.000000
vt 0.075802 0.000000
vt 0.078717 0.000000
vt 0.081633 0.000000
vt 0.839650 0.000000
vt 0.836735 0.000000
vt 0.084548 0.000000
vt 0.833819 0.000000
vt 0.830904 0.000000
vt 0.087464 0.000000
vt 0.090379 0.000000
vt 0.827988 0.000000
vt 0.093294 0.000000
vt 0.825073 0.000000
vt 0.096210 0.000000
vt 0.822157 0.000000
vt 0.819242 0.000000
vt 0.099125 0.000000
vt 0.102041 0.000000
vt 0.104956 0.000000
vt 0.816327 0.000000
vt 0.813411 0.000000
vt 0.107872 0.000000
vt 0.810496 0.000000
vt 0.807580 0.000000
vt 0.110787 0.000000
vt 0.113703 0.000000
vt 0.804665 0.000000
vt 0.116618 0.000000
vt 0.801749 0.000000
vt 0.798834 0.000000
vt 0.119534 0.000000
vt 0.795918 0.000000
vt 0.793003 0.000000
vt 0.122449 0.000000
vt 0.125364 0.000000
vt 0.790087 0.000000
vt 0.128280 0.000000
vt 0.787172 0.000000
vt 0.784257 0.000000
vt 0.781341 0.000000
vt 0.131195 0.000000
vt 0.134111 0.000000
vt 0.137026 0.000000
vt 0.778426 0.000000
vt 0.775510 0.000000
vt 0.139942 0.000000
vt 0.772595 0.000000
vt 0.769679 0.000000
vt 0.142857 0.000000
vt 0.145773 0.000000
vt 0.766764 0.000000
vt 0.148688 0.000000
vt 0.763848 0.000000
vt 0.151604 0.000000
vt 0.760933 0.000000
vt 0.154519 0.000000
vt 0.758017 0.000000
vt 0.157434 0.000000
vt 0.755102 0.000000
vt 0.160350 0.000000
vt 0.752187 0.000000
vt 0.163265 0.000000
vt 0.166181 0.000000
vt 0.749271 0.000000
vt 0.746356 0.000000
vt 0.172012 0.000000
vt 0.169096 0.000000
vt 0.174927 0.000000
vt 0.177843 0.000000
vt 0.180758 0.000000
vt 0.670554 0.000000
vt 0.743440 0.000000
vt 0.673469 0.000000
vt 0.740525 0.000000
vt 0.676385 0.000000
vt 0.737609 0.000000
vt 0.679300 0.000000
vt 0.734694 0.000000
vt 0.731778 0.000000
vt 0.682216 0.000000
vt 0.728863 0.000000
vt 0.725947 0.000000
vt 0.685131 0.000000
vt 0.688047 0.000000
vt 0.723032 0.000000
vt 0.690962 0.000000
vt 0.720117 0.000000
vt 0.693878 0.000000
vt 0.717201 0.000000
vt 0.714286 0.000000
vt 0.696793 0.000000
vt 0.699708 0.000000
vt 0.702624 0.000000
vt 0.711370 0.000000
vt 0.708455 0.000000
vt 0.705539 0.000000
vt 0.183673 0.000000
vt 0.667638 0.000000
vt 0.186589 0.000000
vt 0.189504 0.000000
vt 0.192420 0.000000
vt 0.195335 0.000000
vt 0.664723 0.000000
vt 0.198251 0.000000
vt 0.201166 0.000000
vt 0.204082 0.000000
vt 0.661808 0.000000
vt 0.206997 0.000000
vt 0.209913 0.000000
vt 0.658892 0.000000
vt 0.212828 0.000000
vt 0.215743 0.000000
vt 0.655977 0.000000
vt 0.218659 0.000000
vt 0.221574 0.000000
vt 0.653061 0.000000
vt 0.224490 0.000000
vt 0.650146 0.000000
vt 0.227405 0.000000
vt 0.230321 0.000000
vt 0.647230 0.000000
vt 0.233236 0.000000
vt 0.236152 0.000000
vt 0.644315 0.000000
vt 0.239067 0.000000
vt 0.641399 0.000000
vt 0.241983 0.000000
vt 0.244898 0.000000
vt 0.638484 0.000000
vt 0.247813 0.000000
vt 0.635568 0.000000
vt 0.250729 0.000000
vt 0.253644 0.000000
vt 0.632653 0.000000
vt 0.256560 0.000000
vt 0.259475 0.000000
vt 0.629738 0.000000
vt 0.262391 0.000000
vt 0.626822 0.000000
vt 0.265306 0.000000
vt 0.268222 0.000000
vt 0.623907 0.000000
vt 0.271137 0.000000
vt 0.274052 0.000000
vt 0.620991 0.000000
vt 0.276968 0.000000
vt 0.279883 0.000000
vt 0.618076 0.000000
vt 0.282799 0.000000
vt 0.285714 0.000000
vt 0.615160 0.000000
vt 0.288630 0.000000
vt 0.291545 0.000000
vt 0.294461 0.000000
vt 0.612245 0.000000
vt 0.297376 0.000000
vt 0.300292 0.000000
vt 0.303207 0.000000
vt 0.609329 0.000000
vt 0.306122 0.000000
vt 0.309038 0.000000
vt 0.311953 0.000000
vt 0.314869 0.000000
vt 0.317784 0.000000
vt 0.606414 0.000000
vt 0.320700 0.000000
vt 0.323615 0.000000
vt 0.326531 0.000000
vt 0.329446 0.000000
vt 0.332362 0.000000
vt 0.335277 0.000000
vt 0.338192 0.000000
vt 0.341108 0.000000
vt 0.344023 0.000000
vt 0.346939 0.000000
vt 0.603499 0.000000
vt 0.349854 0.000000
vt 0.352770 0.000000
vt 0.355685 0.000000
vt 0.358601 0.000000
vt 0.361516 0.000000
vt 0.364432 0.000000
vt 0.367347 0.000000
vt 0.370262 0.000000
vt 0.373178 0.000000
vt 0.376093 0.000000
vt 0.600583 0.000000
vt 0.379009 0.000000
vt 0.381924 0.000000
vt 0.384840 0.000000
vt 0.387755 0.000000
vt 0.390671 0.000000
vt 0.393586 0.000000
vt 0.597668 0.000000
vt 0.396501 0.000000
vt 0.399417 0.000000
vt 0.402332 0.000000
vt 0.594752 0.000000
vt 0.405248 0.000000
vt 0.408163 0.000000
vt 0.591837 0.000000
vt 0.411079 0.000000
vt 0.413994 0.000000
vt 0.588921 0.000000
vt 0.416910 0.000000
vt 0.586006 0.000000
vt 0.419825 0.000000
vt 0.583090 0.000000
vt 0.422741 0.000000
vt 0.425656 0.000000
vt 0.580175 0.000000
vt 0.428571 0.000000
vt 0.577259 0.000000
vt 0.431487 0.000000
vt 0.574344 0.000000
vt 0.434402 0.000000
vt 0.571429 0.000000
vt 0.437318 0.000000
vt 0.568513 0.000000
vt 0.440233 0.000000
vt 0.565598 0.000000
vt 0.562682 0.000000
vt 0.443149 0.000000
vt 0.559767 0.000000
vt 0.446064 0.000000
vt 0.556851 0.000000
vt 0.448980 0.000000
vt 0.553936 0.000000
vt 0.451895 0.000000
vt 0.551020 0.000000
vt 0.454811 0.000000
vt 0.548105 0.000000
vt 0.457726 0.000000
vt 0.545189 0.000000
vt 0.460641 0.000000
vt 0.542274 0.000000
vt 0.539359 0.000000
vt 0.463557 0.000000
vt 0.536443 0.000000
vt 0.466472 0.000000
vt 0.533528 0.000000
vt 0.469388 0.000000
vt 0.530612 0.000000
vt 0.472303 0.000000
vt 0.527697 0.000000
vt 0.524781 0.000000
vt 0.475219 0.000000
vt 0.521866 0.000000
vt 0.478134 0.000000
vt 0.518950 0.000000
vt 0.481050 0.000000
vt 0.516035 0.000000
vt 0.513120 0.000000
vt 0.483965 0.000000
vt 0.510204 0.000000
vt 0.486880 0.000000
vt 0.507289 0.000000
vt 0.489796 0.000000
vt 0.504373 0.000000
vt 0.501458 0.000000
vt 0.492711 0.000000
vt 0.498542 0.000000
vt 0.495627 0.000000
s 0
f 1/1/1 5/2/1 4/1/1
f 1/1/2 3/3/2 2/2/2
f 1/1/3 6/3/3 3/3/3
f 4/1/4 5/2/4 6/3/4
f 7/4/4 16/5/4 6/3/4
f 39/6/4 7/4/4 6/3/4
f 8/7/4 12/8/4 6/3/4
f 40/9/4 8/7/4 6/3/4
f 9/10/4 13/11/4 6/3/4
f 41/12/4 9/10/4 6/3/4
f 10/13/4 14/14/4 6/3/4
f 42/15/4 10/13/4 6/3/4
f 11/16/4 15/17/4 6/3/4
f 43/18/4 11/16/4 6/3/4
f 12/8/4 17/19/4 6/3/4
f 13/11/4 18/20/4 6/3/4
f 14/14/4 19/21/4 6/3/4
f 15/17/4 20/22/4 6/3/4
f 3/3/5 16/5/5 79/5/5
f 17/19/4 21/23/4 6/3/4
f 18/20/4 22/24/4 6/3/4
f 19/21/4 23/25/4 6/3/4
f 20/22/4 24/26/4 6/3/4
f 21/23/4 25/27/4 6/3/4
f 22/24/4 26/28/4 6/3/4
f 23/25/4 27/29/4 6/3/4
f 24/26/4 28/30/4 6/3/4
f 25/27/4 29/31/4 6/3/4
f 26/28/4 30/32/4 6/3/4
f 27/29/4 31/33/4 6/3/4
f 28/30/4 32/34/4 6/3/4
f 29/31/4 34/35/4 6/3/4
f 30/32/4 35/36/4 6/3/4
f 31/33/4 36/37/4 6/3/4
f 32/34/4 37/38/4 6/3/4
f 33/39/4 38/40/4 6/3/4
f 5/2/4 33/39/4 6/3/4
f 34/35/4 39/6/4 6/3/4
f 35/36/4 40/9/4 6/3/4
f 36/37/4 41/12/4 6/3/4
f 37/38/4 42/15/4 6/3/4
f 38/40/4 43/18/4 6/3/4
f 44/18/6 38/40/6 45/40/6
f 46/16/7 43/18/7 44/18/7
f 45/40/2 3/3/2 44/18/2
f 44/18/2 3/3/2 46/16/2
f 46/16/2 3/3/2 47/17/2
f 47/17/8 11/16/8 46/16/8
f 47/17/2 3/3/2 48/22/2
f 48/22/9 15/17/9 47/17/9
f 48/22/2 3/3/2 49/26/2
f 49/26/10 20/22/10 48/22/10
f 49/26/2 3/3/2 50/30/2
f 50/30/11 24/26/11 49/26/11
f 50/30/2 3/3/2 51/34/2
f 51/34/12 28/30/12 50/30/12
f 51/34/2 3/3/2 52/38/2
f 52/38/13 32/34/13 51/34/13
f 52/38/2 3/3/2 53/15/2
f 53/15/14 37/38/14 52/38/14
f 53/15/2 3/3/2 54/13/2
f 54/13/15 42/15/15 53/15/15
f 54/13/2 3/3/2 55/14/2
f 55/14/16 10/13/16 54/13/16
f 55/14/2 3/3/2 56/21/2
f 56/21/17 14/14/17 55/14/17
f 56/21/2 3/3/2 57/25/2
f 57/25/18 19/21/18 56/21/18
f 57/25/2 3/3/2 58/29/2
f 58/29/19 23/25/19 57/25/19
f 58/29/2 3/3/2 59/33/2
f 59/33/20 27/29/20 58/29/20
f 59/33/2 3/3/2 60/37/2
f 60/37/21 31/33/21 59/33/21
f 60/37/2 3/3/2 61/12/2
f 61/12/22 36/37/22 60/37/22
f 61/12/2 3/3/2 62/10/2
f 62/10/23 41/12/23 61/12/23
f 62/10/2 3/3/2 63/11/2
f 63/11/24 9/10/24 62/10/24
f 63/11/2 3/3/2 64/20/2
f 64/20/25 13/11/25 63/11/25
f 64/20/2 3/3/2 65/24/2
f 65/24/26 18/20/26 64/20/26
f 65/24/2 3/3/2 66/28/2
f 66/28/27 22/24/27 65/24/27
f 66/28/2 3/3/2 67/32/2
f 67/32/28 26/28/28 66/28/28
f 67/32/2 3/3/2 68/36/2
f 68/36/29 30/32/29 67/32/29
f 68/36/2 3/3/2 69/9/2
f 69/9/30 35/36/30 68/36/30
f 69/9/2 3/3/2 70/7/2
f 70/7/31 40/9/31 69/9/31
f 70/7/2 3/3/2 71/8/2
f 71/8/32 8/7/32 70/7/32
f 71/8/2 3/3/2 72/19/2
f 72/19/33 12/8/33 71/8/33
f 72/19/2 3/3/2 73/23/2
f 73/23/34 17/19/34 72/19/34
f 73/23/2 3/3/2 74/27/2
f 74/27/35 21/23/35 73/23/35
f 74/27/2 3/3/2 75/31/2
f 75/31/36 25/27/36 74/27/36
f 75/31/2 3/3/2 76/35/2
f 76/35/37 29/31/37 75/31/37
f 76/35/2 3/3/2 77/6/2
f 77/6/38 34/35/38 76/35/38
f 77/6/2 3/3/2 78/4/2
f 78/4/39 39/6/39 77/6/39
f 78/4/2 3/3/2 79/5/2
f 78/4/2 79/5/2 80/41/2
f 80/41/40 7/4/40 78/4/40
f 79/5/41 81/41/41 80/41/41
f 7/4/4 81/41/4 16/5/4
f 82/39/2 3/3/2 45/40/2
f 45/40/42 33/39/42 82/39/42
f 2/2/2 3/3/2 82/39/2
f 82/39/41 85/42/41 83/42/41
f 2/2/2 82/39/2 83/42/2
f 83/42/43 86/43/43 84/43/43
f 2/2/2 83/42/2 84/43/2
f 5/2/4 85/42/4 33/39/4
f 5/2/4 86/43/4 85/42/4
f 87/44/4 88/45/4 86/43/4
f 95/46/4 87/44/4 86/43/4
f 88/45/4 90/47/4 86/43/4
f 84/43/44 89/48/44 105/48/44
f 93/49/4 89/48/4 86/43/4
f 90/47/4 91/50/4 86/43/4
f 91/50/4 92/51/4 86/43/4
f 92/51/4 93/49/4 86/43/4
f 5/2/4 94/52/4 86/43/4
f 94/52/4 95/46/4 86/43/4
f 97/52/45 95/46/45 94/52/45
f 98/44/46 95/46/46 96/46/46
f 97/52/2 84/43/2 96/46/2
f 96/46/2 84/43/2 98/44/2
f 98/44/2 84/43/2 99/45/2
f 99/45/47 87/44/47 98/44/47
f 99/45/2 84/43/2 100/47/2
f 100/47/48 88/45/48 99/45/48
f 100/47/2 84/43/2 101/50/2
f 101/50/49 90/47/49 100/47/49
f 101/50/2 84/43/2 102/51/2
f 102/51/50 91/50/50 101/50/50
f 102/51/51 84/43/51 103/49/51
f 102/51/52 93/49/52 92/51/52
f 103/49/2 84/43/2 105/48/2
f 104/53/53 93/49/53 103/49/53
f 104/53/2 103/49/2 105/48/2
f 106/54/2 104/53/2 105/48/2
f 106/54/2 105/48/2 107/55/2
f 107/55/2 105/48/2 108/56/2
f 105/48/54 111/56/54 108/56/54
f 107/55/2 108/56/2 110/57/2
f 108/56/55 113/58/55 109/58/55
f 110/57/2 108/56/2 109/58/2
f 112/55/4 111/56/4 89/48/4
f 112/55/4 114/57/4 111/56/4
f 114/57/4 113/58/4 111/56/4
f 110/57/56 112/55/56 107/55/56
f 114/57/4 115/59/4 113/58/4
f 117/59/57 114/57/57 110/57/57
f 115/59/4 116/60/4 113/58/4
f 118/60/58 115/59/58 117/59/58
f 117/59/2 109/58/2 118/60/2
f 110/57/2 109/58/2 117/59/2
f 118/60/2 109/58/2 119/61/2
f 118/60/2 119/61/2 120/62/2
f 120/62/59 116/60/59 118/60/59
f 120/62/2 119/61/2 121/63/2
f 120/62/2 121/63/2 122/64/2
f 122/64/60 123/62/60 120/62/60
f 123/62/4 125/63/4 124/61/4
f 116/60/4 123/62/4 124/61/4
f 123/62/4 126/64/4 125/63/4
f 126/64/4 127/65/4 125/63/4
f 126/64/4 128/66/4 127/65/4
f 122/64/61 128/66/61 126/64/61
f 128/66/4 130/67/4 127/65/4
f 133/68/62 128/66/62 131/66/62
f 128/66/4 129/68/4 130/67/4
f 122/64/2 132/65/2 131/66/2
f 131/66/2 132/65/2 134/67/2
f 131/66/2 134/67/2 133/68/2
f 132/65/63 130/67/63 134/67/63
f 133/68/2 134/67/2 135/69/2
f 134/67/64 139/69/64 135/69/64
f 133/68/2 135/69/2 136/70/2
f 136/70/2 135/69/2 137/71/2
f 137/71/2 135/69/2 138/72/2
f 135/69/65 142/72/65 138/72/65
f 129/68/4 139/69/4 130/67/4
f 129/68/4 140/70/4 139/69/4
f 140/70/4 141/71/4 139/69/4
f 141/71/4 142/72/4 139/69/4
f 138/72/66 143/73/66 148/73/66
f 144/74/4 143/73/4 142/72/4
f 141/71/4 144/74/4 142/72/4
f 146/74/67 141/71/67 137/71/67
f 147/75/68 144/74/68 146/74/68
f 144/74/4 145/75/4 143/73/4
f 137/71/2 138/72/2 146/74/2
f 146/74/2 138/72/2 148/73/2
f 146/74/2 148/73/2 147/75/2
f 147/75/2 148/73/2 149/76/2
f 148/73/69 152/76/69 149/76/69
f 147/75/2 149/76/2 150/77/2
f 150/77/2 149/76/2 151/78/2
f 149/76/70 154/78/70 151/78/70
f 145/75/4 152/76/4 143/73/4
f 145/75/4 153/77/4 152/76/4
f 153/77/4 154/78/4 152/76/4
f 153/77/4 155/79/4 154/78/4
f 155/79/4 156/80/4 154/78/4
f 151/78/71 156/80/71 159/80/71
f 159/80/72 157/81/72 160/81/72
f 158/82/4 157/81/4 156/80/4
f 155/79/4 158/82/4 156/80/4
f 161/79/2 151/78/2 159/80/2
f 162/82/2 159/80/2 160/81/2
f 161/79/2 159/80/2 162/82/2
f 162/82/73 155/79/73 161/79/73
f 163/83/74 158/82/74 162/82/74
f 162/82/2 160/81/2 163/83/2
f 164/84/75 166/83/75 163/83/75
f 163/83/2 165/85/2 164/84/2
f 163/83/2 160/81/2 165/85/2
f 158/82/4 166/83/4 157/81/4
f 166/83/4 167/84/4 168/85/4
f 166/83/4 168/85/4 157/81/4
f 167/84/4 169/86/4 168/85/4
f 165/85/76 169/86/76 172/86/76
f 160/81/77 168/85/77 165/85/77
f 167/84/4 170/87/4 169/86/4
f 170/87/4 171/88/4 169/86/4
f 172/86/78 171/88/78 174/88/78
f 164/84/2 165/85/2 172/86/2
f 164/84/2 172/86/2 173/87/2
f 173/87/2 172/86/2 174/88/2
f 174/88/79 180/89/79 175/89/79
f 176/90/2 174/88/2 175/89/2
f 173/87/2 174/88/2 176/90/2
f 176/90/80 170/87/80 173/87/80
f 177/91/81 178/90/81 176/90/81
f 176/90/2 175/89/2 177/91/2
f 170/87/4 178/90/4 171/88/4
f 178/90/4 180/89/4 171/88/4
f 178/90/4 179/91/4 180/89/4
f 179/91/4 181/92/4 180/89/4
f 175/89/82 181/92/82 184/92/82
f 179/91/4 182/93/4 181/92/4
f 182/93/4 183/94/4 181/92/4
f 184/92/83 183/94/83 186/94/83
f 177/91/2 175/89/2 184/92/2
f 177/91/2 184/92/2 185/93/2
f 185/93/2 184/92/2 186/94/2
f 185/93/2 186/94/2 187/95/2
f 187/95/2 186/94/2 188/96/2
f 186/94/84 191/96/84 188/96/84
f 188/96/85 192/97/85 189/97/85
f 190/98/2 188/96/2 189/97/2
f 187/95/2 188/96/2 190/98/2
f 193/95/4 191/96/4 183/94/4
f 194/98/4 192/97/4 191/96/4
f 193/95/4 194/98/4 191/96/4
f 190/98/86 193/95/86 187/95/86
f 198/99/87 194/98/87 190/98/87
f 194/98/4 195/99/4 192/97/4
f 199/100/88 195/99/88 198/99/88
f 195/99/4 196/100/4 197/101/4
f 195/99/4 197/101/4 192/97/4
f 190/98/2 189/97/2 198/99/2
f 198/99/2 200/101/2 199/100/2
f 198/99/2 189/97/2 200/101/2
f 199/100/2 200/101/2 201/102/2
f 200/101/89 204/102/89 201/102/89
f 189/97/90 197/101/90 200/101/90
f 199/100/2 201/102/2 202/103/2
f 202/103/2 201/102/2 203/104/2
f 201/102/91 206/104/91 203/104/91
f 196/100/4 204/102/4 197/101/4
f 196/100/4 205/103/4 204/102/4
f 205/103/4 206/104/4 204/102/4
f 203/104/92 207/105/92 212/105/92
f 208/106/4 207/105/4 206/104/4
f 205/103/4 208/106/4 206/104/4
f 210/106/93 205/103/93 202/103/93
f 211/107/94 208/106/94 210/106/94
f 208/106/4 209/107/4 207/105/4
f 202/103/2 203/104/2 210/106/2
f 210/106/2 203/104/2 212/105/2
f 210/106/2 212/105/2 211/107/2
f 211/107/2 212/105/2 213/108/2
f 212/105/95 216/108/95 213/108/95
f 211/107/2 213/108/2 214/109/2
f 214/109/2 213/108/2 215/110/2
f 213/108/96 218/110/96 215/110/96
f 209/107/4 216/108/4 207/105/4
f 209/107/4 217/109/4 216/108/4
f 217/109/4 218/110/4 216/108/4
f 217/109/4 219/111/4 218/110/4
f 215/110/97 219/111/97 222/111/97
f 217/109/4 220/112/4 219/111/4
f 220/112/4 221/113/4 219/111/4
f 222/111/98 221/113/98 224/113/98
f 214/109/2 215/110/2 222/111/2
f 214/109/2 222/111/2 223/112/2
f 223/112/2 222/111/2 224/113/2
f 224/113/99 230/114/99 225/114/99
f 226/115/2 224/113/2 225/114/2
f 223/112/2 224/113/2 226/115/2
f 226/115/100 220/112/100 223/112/100
f 227/116/101 228/115/101 226/115/101
f 226/115/2 225/114/2 227/116/2
f 220/112/4 228/115/4 221/113/4
f 228/115/4 230/114/4 221/113/4
f 228/115/4 229/116/4 230/114/4
f 229/116/4 231/117/4 230/114/4
f 225/114/102 231/117/102 234/117/102
f 229/116/4 232/118/4 231/117/4
f 232/118/4 233/119/4 231/117/4
f 234/117/103 233/119/103 236/119/103
f 227/116/2 225/114/2 234/117/2
f 227/116/2 234/117/2 235/118/2
f 235/118/2 234/117/2 236/119/2
f 235/118/2 236/119/2 237/120/2
f 236/119/104 240/120/104 237/120/104
f 237/120/105 241/121/105 238/121/105
f 239/122/2 237/120/2 238/121/2
f 235/118/2 237/120/2 239/122/2
f 232/118/4 240/120/4 233/119/4
f 242/122/4 241/121/4 240/120/4
f 232/118/4 242/122/4 240/120/4
f 239/122/106 232/118/106 235/118/106
f 246/123/107 242/122/107 239/122/107
f 242/122/4 243/123/4 241/121/4
f 247/124/108 243/123/108 246/123/108
f 243/123/4 244/124/4 245/125/4
f 243/123/4 245/125/4 241/121/4
f 239/122/2 238/121/2 246/123/2
f 246/123/2 248/125/2 247/124/2
f 246/123/2 238/121/2 248/125/2
f 247/124/2 248/125/2 249/126/2
f 248/125/109 252/126/109 249/126/109
f 238/121/110 245/125/110 248/125/110
f 247/124/2 249/126/2 250/127/2
f 250/127/2 249/126/2 251/128/2
f 249/126/111 254/128/111 251/128/111
f 244/124/4 252/126/4 245/125/4
f 244/124/4 253/127/4 252/126/4
f 253/127/4 254/128/4 252/126/4
f 251/128/112 255/129/112 260/129/112
f 256/130/4 255/129/4 254/128/4
f 253/127/4 256/130/4 254/128/4
f 258/130/113 253/127/113 250/127/113
f 259/131/114 256/130/114 258/130/114
f 256/130/4 257/131/4 255/129/4
f 250/127/2 251/128/2 258/130/2
f 258/130/2 251/128/2 260/129/2
f 258/130/2 260/129/2 259/131/2
f 259/131/2 260/129/2 261/132/2
f 260/129/115 264/132/115 261/132/115
f 259/131/2 261/132/2 263/133/2
f 261/132/116 265/134/116 262/134/116
f 263/133/2 261/132/2 262/134/2
f 257/131/4 264/132/4 255/129/4
f 257/131/4 266/133/4 264/132/4
f 266/133/4 265/134/4 264/132/4
f 263/133/117 257/131/117 259/131/117
f 266/133/4 267/135/4 265/134/4
f 270/135/118 266/133/118 263/133/118
f 267/135/4 268/136/4 265/134/4
f 267/135/4 269/137/4 268/136/4
f 272/137/119 267/135/119 270/135/119
f 270/135/2 262/134/2 271/136/2
f 263/133/2 262/134/2 270/135/2
f 270/135/2 271/136/2 272/137/2
f 272/137/2 271/136/2 274/138/2
f 273/139/120 269/137/120 272/137/120
f 272/137/2 274/138/2 273/139/2
f 271/136/121 276/138/121 274/138/121
f 273/139/2 274/138/2 275/140/2
f 274/138/122 278/140/122 275/140/122
f 269/137/4 276/138/4 268/136/4
f 269/137/4 277/139/4 276/138/4
f 277/139/4 278/140/4 276/138/4
f 277/139/4 279/141/4 278/140/4
f 279/141/4 280/142/4 278/140/4
f 275/140/123 280/142/123 284/142/123
f 279/141/4 281/143/4 280/142/4
f 281/143/4 282/144/4 280/142/4
f 282/144/4 283/145/4 280/142/4
f 284/142/124 283/145/124 288/145/124
f 285/141/2 275/140/2 284/142/2
f 285/141/2 284/142/2 286/143/2
f 286/143/2 284/142/2 287/144/2
f 287/144/2 284/142/2 288/145/2
f 288/145/125 296/146/125 289/146/125
f 291/147/2 288/145/2 289/146/2
f 287/144/2 288/145/2 290/148/2
f 290/148/2 288/145/2 291/147/2
f 291/147/126 294/148/126 290/148/126
f 292/149/127 293/147/127 291/147/127
f 291/147/2 289/146/2 292/149/2
f 294/148/4 293/147/4 283/145/4
f 293/147/4 296/146/4 283/145/4
f 293/147/4 295/149/4 296/146/4
f 295/149/4 297/150/4 296/146/4
f 297/150/4 298/151/4 296/146/4
f 298/151/4 299/152/4 296/146/4
f 299/152/4 300/153/4 296/146/4
f 289/146/128 300/153/128 303/153/128
f 299/152/4 302/154/4 300/153/4
f 303/153/129 301/155/129 305/155/129
f 302/154/4 301/155/4 300/153/4
f 304/152/2 289/146/2 303/153/2
f 304/152/2 303/153/2 306/154/2
f 306/154/2 303/153/2 305/155/2
f 306/154/130 299/152/130 304/152/130
f 306/154/2 305/155/2 307/156/2
f 307/156/131 302/154/131 306/154/131
f 307/156/2 305/155/2 310/157/2
f 308/158/132 311/156/132 307/156/132
f 307/156/2 309/159/2 308/158/2
f 307/156/2 310/157/2 309/159/2
f 302/154/4 311/156/4 301/155/4
f 311/156/4 314/157/4 301/155/4
f 311/156/4 312/158/4 313/159/4
f 311/156/4 313/159/4 314/157/4
f 305/155/133 314/157/133 310/157/133
f 310/157/134 313/159/134 309/159/134
f 312/158/4 315/160/4 313/159/4
f 309/159/135 315/160/135 318/160/135
f 312/158/4 316/161/4 315/160/4
f 316/161/4 317/162/4 315/160/4
f 318/160/136 317/162/136 320/162/136
f 308/158/2 309/159/2 318/160/2
f 308/158/2 318/160/2 319/161/2
f 319/161/2 318/160/2 320/162/2
f 320/162/137 326/163/137 321/163/137
f 322/164/2 320/162/2 321/163/2
f 319/161/2 320/162/2 322/164/2
f 322/164/138 316/161/138 319/161/138
f 323/165/139 324/164/139 322/164/139
f 322/164/2 321/163/2 323/165/2
f 316/161/4 324/164/4 317/162/4
f 324/164/4 326/163/4 317/162/4
f 324/164/4 325/165/4 326/163/4
f 325/165/4 327/166/4 326/163/4
f 321/163/140 327/166/140 330/166/140
f 325/165/4 328/167/4 327/166/4
f 328/167/4 329/168/4 327/166/4
f 330/166/141 329/168/141 332/168/141
f 323/165/2 321/163/2 330/166/2
f 323/165/2 330/166/2 331/167/2
f 331/167/2 330/166/2 332/168/2
f 331/167/2 332/168/2 333/169/2
f 333/169/2 332/168/2 334/170/2
f 332/168/142 337/170/142 334/170/142
f 334/170/143 338/171/143 335/171/143
f 336/172/2 334/170/2 335/171/2
f 333/169/2 334/170/2 336/172/2
f 339/169/4 337/170/4 329/168/4
f 340/172/4 338/171/4 337/170/4
f 339/169/4 340/172/4 337/170/4
f 336/172/144 339/169/144 333/169/144
f 344/173/145 340/172/145 336/172/145
f 340/172/4 341/173/4 338/171/4
f 345/174/146 341/173/146 344/173/146
f 341/173/4 342/174/4 343/175/4
f 341/173/4 343/175/4 338/171/4
f 336/172/2 335/171/2 344/173/2
f 344/173/2 346/175/2 345/174/2
f 344/173/2 335/171/2 346/175/2
f 335/171/147 343/175/147 346/175/147
f 345/174/2 346/175/2 347/176/2
f 346/175/148 349/176/148 347/176/148
f 345/174/2 347/176/2 348/177/2
f 347/176/149 350/177/149 348/177/149
f 342/174/4 349/176/4 343/175/4
f 342/174/4 350/177/4 349/176/4
f 348/177/150 342/174/150 345/174/150
f 328/167/4 339/169/4 329/168/4
f 333/169/151 328/167/151 331/167/151
f 331/167/152 325/165/152 323/165/152
f 319/161/153 312/158/153 308/158/153
f 351/151/2 289/146/2 304/152/2
f 353/178/2 351/151/2 304/152/2
f 304/152/154 356/179/154 352/179/154
f 352/179/2 353/178/2 304/152/2
f 353/178/155 298/151/155 351/151/155
f 352/179/2 354/180/2 353/178/2
f 354/180/156 355/178/156 353/178/156
f 355/178/4 299/152/4 298/151/4
f 356/179/4 299/152/4 355/178/4
f 356/179/4 355/178/4 357/180/4
f 356/179/4 357/180/4 358/181/4
f 360/181/157 357/180/157 354/180/157
f 356/179/4 358/181/4 359/182/4
f 361/182/158 358/181/158 360/181/158
f 352/179/2 361/182/2 360/181/2
f 352/179/2 360/181/2 354/180/2
f 352/179/2 362/183/2 361/182/2
f 362/183/159 359/182/159 361/182/159
f 363/184/2 362/183/2 352/179/2
f 363/184/2 364/185/2 362/183/2
f 364/185/160 365/183/160 362/183/160
f 356/179/4 359/182/4 365/183/4
f 366/184/4 356/179/4 365/183/4
f 366/184/4 365/183/4 367/185/4
f 366/184/4 367/185/4 368/186/4
f 370/186/161 367/185/161 364/185/161
f 366/184/4 368/186/4 369/187/4
f 371/187/162 368/186/162 370/186/162
f 363/184/2 370/186/2 364/185/2
f 363/184/2 371/187/2 370/186/2
f 372/188/2 371/187/2 363/184/2
f 372/188/2 373/189/2 371/187/2
f 373/189/163 369/187/163 371/187/163
f 372/188/2 374/190/2 373/189/2
f 374/190/164 375/189/164 373/189/164
f 376/188/4 369/187/4 375/189/4
f 376/188/4 375/189/4 377/190/4
f 378/191/4 376/188/4 377/190/4
f 378/191/4 377/190/4 379/192/4
f 381/192/165 377/190/165 374/190/165
f 378/191/4 379/192/4 380/193/4
f 383/193/166 379/192/166 381/192/166
f 382/191/2 381/192/2 374/190/2
f 382/191/2 383/193/2 381/192/2
f 384/194/2 383/193/2 382/191/2
f 384/194/2 385/195/2 383/193/2
f 385/195/167 380/193/167 383/193/167
f 384/194/2 386/196/2 385/195/2
f 386/196/168 387/195/168 385/195/168
f 388/194/4 380/193/4 387/195/4
f 388/194/4 387/195/4 389/196/4
f 390/197/4 388/194/4 389/196/4
f 390/197/4 389/196/4 391/198/4
f 394/198/169 389/196/169 386/196/169
f 392/199/4 390/197/4 391/198/4
f 392/199/4 391/198/4 393/200/4
f 397/200/170 391/198/170 394/198/170
f 395/197/2 394/198/2 386/196/2
f 396/199/2 394/198/2 395/197/2
f 396/199/2 397/200/2 394/198/2
f 396/199/2 398/201/2 397/200/2
f 398/201/171 393/200/171 397/200/171
f 399/202/2 398/201/2 396/199/2
f 399/202/2 400/203/2 398/201/2
f 400/203/172 401/201/172 398/201/172
f 392/199/4 393/200/4 401/201/4
f 402/202/4 392/199/4 401/201/4
f 402/202/4 401/201/4 403/203/4
f 402/202/4 403/203/4 404/204/4
f 407/204/173 403/203/173 400/203/173
f 405/205/4 402/202/4 404/204/4
f 405/205/4 404/204/4 406/206/4
f 409/206/174 404/204/174 407/204/174
f 399/202/2 407/204/2 400/203/2
f 408/205/2 407/204/2 399/202/2
f 408/205/2 409/206/2 407/204/2
f 410/207/2 409/206/2 408/205/2
f 410/207/2 411/208/2 409/206/2
f 411/208/175 406/206/175 409/206/175
f 410/207/2 412/209/2 411/208/2
f 412/209/176 413/208/176 411/208/176
f 414/207/4 406/206/4 413/208/4
f 414/207/4 413/208/4 415/209/4
f 416/210/4 414/207/4 415/209/4
f 416/210/4 415/209/4 417/211/4
f 420/211/177 415/209/177 412/209/177
f 418/212/4 416/210/4 417/211/4
f 418/212/4 417/211/4 419/213/4
f 423/213/178 417/211/178 420/211/178
f 421/210/2 420/211/2 412/209/2
f 422/212/2 420/211/2 421/210/2
f 422/212/2 423/213/2 420/211/2
f 422/212/2 424/214/2 423/213/2
f 424/214/179 419/213/179 423/213/179
f 425/215/2 424/214/2 422/212/2
f 425/215/2 426/216/2 424/214/2
f 426/216/180 427/214/180 424/214/180
f 418/212/4 419/213/4 427/214/4
f 428/215/4 418/212/4 427/214/4
f 428/215/4 427/214/4 429/216/4
f 428/215/4 429/216/4 430/217/4
f 433/217/181 429/216/181 426/216/181
f 431/218/4 428/215/4 430/217/4
f 431/218/4 430/217/4 432/219/4
f 435/219/182 430/217/182 433/217/182
f 425/215/2 433/217/2 426/216/2
f 434/218/2 433/217/2 425/215/2
f 434/218/2 435/219/2 433/217/2
f 436/220/2 435/219/2 434/218/2
f 436/220/2 437/221/2 435/219/2
f 437/221/183 432/219/183 435/219/183
f 436/220/2 438/222/2 437/221/2
f 438/222/184 439/221/184 437/221/184
f 440/220/4 432/219/4 439/221/4
f 440/220/4 439/221/4 441/222/4
f 442/223/4 440/220/4 441/222/4
f 442/223/4 441/222/4 443/224/4
f 445/224/185 441/222/185 438/222/185
f 442/223/4 443/224/4 444/225/4
f 447/225/186 443/224/186 445/224/186
f 446/223/2 445/224/2 438/222/2
f 446/223/2 447/225/2 445/224/2
f 448/226/2 447/225/2 446/223/2
f 448/226/2 449/227/2 447/225/2
f 449/227/187 444/225/187 447/225/187
f 448/226/2 450/228/2 449/227/2
f 450/228/188 451/227/188 449/227/188
f 452/226/4 444/225/4 451/227/4
f 452/226/4 451/227/4 453/228/4
f 454/229/4 452/226/4 453/228/4
f 454/229/4 453/228/4 455/230/4
f 457/230/189 453/228/189 450/228/189
f 454/229/4 455/230/4 456/231/4
f 459/231/190 455/230/190 457/230/190
f 458/229/2 457/230/2 450/228/2
f 458/229/2 459/231/2 457/230/2
f 460/232/2 459/231/2 458/229/2
f 460/232/2 461/233/2 459/231/2
f 461/233/191 456/231/191 459/231/191
f 460/232/2 462/234/2 461/233/2
f 462/234/192 463/233/192 461/233/192
f 464/232/4 456/231/4 463/233/4
f 464/232/4 463/233/4 465/234/4
f 464/232/4 465/234/4 466/235/4
f 469/235/193 465/234/193 462/234/193
f 467/236/4 464/232/4 466/235/4
f 467/236/4 466/235/4 468/237/4
f 471/237/194 466/235/194 469/235/194
f 460/232/2 469/235/2 462/234/2
f 470/236/2 469/235/2 460/232/2
f 470/236/2 471/237/2 469/235/2
f 470/236/2 472/238/2 471/237/2
f 472/238/195 468/237/195 471/237/195
f 470/236/2 473/239/2 472/238/2
f 473/239/196 474/238/196 472/238/196
f 467/236/4 468/237/4 474/238/4
f 467/236/4 474/238/4 475/239/4
f 476/240/4 467/236/4 475/239/4
f 476/240/4 475/239/4 477/241/4
f 479/241/197 475/239/197 473/239/197
f 476/240/4 477/241/4 478/242/4
f 481/242/198 477/241/198 479/241/198
f 480/240/2 479/241/2 473/239/2
f 480/240/2 481/242/2 479/241/2
f 480/240/2 482/243/2 481/242/2
f 482/243/199 478/242/199 481/242/199
f 480/240/2 483/244/2 482/243/2
f 483/244/200 484/243/200 482/243/200
f 476/240/4 478/242/4 484/243/4
f 476/240/4 484/243/4 485/244/4
f 476/240/4 485/244/4 486/245/4
f 489/245/201 485/244/201 483/244/201
f 487/246/4 476/240/4 486/245/4
f 487/246/4 486/245/4 488/247/4
f 491/247/202 486/245/202 489/245/202
f 480/240/2 489/245/2 483/244/2
f 490/246/2 489/245/2 480/240/2
f 490/246/2 491/247/2 489/245/2
f 490/246/2 492/248/2 491/247/2
f 492/248/203 488/247/203 491/247/203
f 490/246/2 493/249/2 492/248/2
f 493/249/204 494/248/204 492/248/204
f 487/246/4 488/247/4 494/248/4
f 487/246/4 494/248/4 495/249/4
f 487/246/4 495/249/4 496/250/4
f 498/250/205 495/249/205 493/249/205
f 487/246/4 496/250/4 497/251/4
f 499/251/206 496/250/206 498/250/206
f 490/246/2 498/250/2 493/249/2
f 490/246/2 499/251/2 498/250/2
f 490/246/2 500/252/2 499/251/2
f 500/252/207 497/251/207 499/251/207
f 490/246/2 501/253/2 500/252/2
f 501/253/208 502/252/208 500/252/208
f 487/246/4 497/251/4 502/252/4
f 487/246/4 502/252/4 503/253/4
f 487/246/4 503/253/4 504/254/4
f 506/254/209 503/253/209 501/253/209
f 487/246/4 504/254/4 505/255/4
f 507/255/210 504/254/210 506/254/210
f 490/246/2 506/254/2 501/253/2
f 490/246/2 507/255/2 506/254/2
f 490/246/2 508/256/2 507/255/2
f 508/256/211 505/255/211 507/255/211
f 509/257/2 508/256/2 490/246/2
f 509/257/2 510/258/2 508/256/2
f 510/258/212 511/256/212 508/256/212
f 487/246/4 505/255/4 511/256/4
f 512/257/4 487/246/4 511/256/4
f 512/257/4 511/256/4 513/258/4
f 512/257/4 513/258/4 514/259/4
f 516/259/213 513/258/213 510/258/213
f 512/257/4 514/259/4 515/260/4
f 517/260/214 514/259/214 516/259/214
f 509/257/2 516/259/2 510/258/2
f 509/257/2 517/260/2 516/259/2
f 509/257/2 518/261/2 517/260/2
f 518/261/215 515/260/215 517/260/215
f 509/257/2 519/262/2 518/261/2
f 519/262/216 520/261/216 518/261/216
f 512/257/4 515/260/4 520/261/4
f 512/257/4 520/261/4 521/262/4
f 512/257/4 521/262/4 522/263/4
f 524/263/217 521/262/217 519/262/217
f 512/257/4 522/263/4 523/264/4
f 525/264/218 522/263/218 524/263/218
f 509/257/2 524/263/2 519/262/2
f 509/257/2 525/264/2 524/263/2
f 509/257/2 526/265/2 525/264/2
f 526/265/219 523/264/219 525/264/219
f 509/257/2 527/266/2 526/265/2
f 527/266/220 528/265/220 526/265/220
f 512/257/4 523/264/4 528/265/4
f 512/257/4 528/265/4 529/266/4
f 512/257/4 529/266/4 530/267/4
f 533/267/221 529/266/221 527/266/221
f 531/268/4 512/257/4 530/267/4
f 531/268/4 530/267/4 532/269/4
f 535/269/222 530/267/222 533/267/222
f 509/257/2 533/267/2 527/266/2
f 534/268/2 533/267/2 509/257/2
f 534/268/2 535/269/2 533/267/2
f 534/268/2 536/270/2 535/269/2
f 536/270/223 532/269/223 535/269/223
f 534/268/2 537/271/2 536/270/2
f 537/271/224 538/270/224 536/270/224
f 531/268/4 532/269/4 538/270/4
f 531/268/4 538/270/4 539/271/4
f 531/268/4 539/271/4 540/272/4
f 542/272/225 539/271/225 537/271/225
f 531/268/4 540/272/4 541/273/4
f 543/273/226 540/272/226 542/272/226
f 534/268/2 542/272/2 537/271/2
f 534/268/2 543/273/2 542/272/2
f 534/268/2 544/274/2 543/273/2
f 544/274/227 541/273/227 543/273/227
f 545/275/2 544/274/2 534/268/2
f 545/275/2 546/276/2 544/274/2
f 546/276/228 547/274/228 544/274/228
f 531/268/4 541/273/4 547/274/4
f 548/275/4 531/268/4 547/274/4
f 548/275/4 547/274/4 549/276/4
f 548/275/4 549/276/4 550/277/4
f 552/277/229 549/276/229 546/276/229
f 548/275/4 550/277/4 551/278/4
f 553/278/230 550/277/230 552/277/230
f 545/275/2 552/277/2 546/276/2
f 545/275/2 553/278/2 552/277/2
f 554/279/2 553/278/2 545/275/2
f 554/279/2 555/280/2 553/278/2
f 555/280/231 551/278/231 553/278/231
f 554/279/2 556/281/2 555/280/2
f 556/281/232 557/280/232 555/280/232
f 558/279/4 551/278/4 557/280/4
f 558/279/4 557/280/4 559/281/4
f 560/282/4 558/279/4 559/281/4
f 560/282/4 559/281/4 561/283/4
f 563/283/233 559/281/233 556/281/233
f 560/282/4 561/283/4 562/284/4
f 565/284/234 561/283/234 563/283/234
f 564/282/2 563/283/2 556/281/2
f 564/282/2 565/284/2 563/283/2
f 566/285/2 565/284/2 564/282/2
f 566/285/2 567/286/2 565/284/2
f 567/286/235 562/284/235 565/284/235
f 568/287/2 567/286/2 566/285/2
f 568/287/2 569/288/2 567/286/2
f 569/288/236 570/286/236 567/286/236
f 571/285/4 562/284/4 570/286/4
f 572/287/4 571/285/4 570/286/4
f 572/287/4 570/286/4 573/288/4
f 574/289/4 572/287/4 573/288/4
f 574/289/4 573/288/4 575/290/4
f 577/290/237 573/288/237 569/288/237
f 574/289/4 575/290/4 576/291/4
f 579/291/238 575/290/238 577/290/238
f 578/289/2 577/290/2 569/288/2
f 578/289/2 579/291/2 577/290/2
f 580/292/2 579/291/2 578/289/2
f 580/292/2 581/293/2 579/291/2
f 581/293/239 576/291/239 579/291/239
f 582/294/2 581/293/2 580/292/2
f 582/294/2 583/295/2 581/293/2
f 583/295/240 584/293/240 581/293/240
f 585/292/4 576/291/4 584/293/4
f 586/294/4 585/292/4 584/293/4
f 586/294/4 584/293/4 587/295/4
f 588/296/4 586/294/4 587/295/4
f 588/296/4 587/295/4 589/297/4
f 592/297/241 587/295/241 583/295/241
f 590/298/4 588/296/4 589/297/4
f 590/298/4 589/297/4 591/299/4
f 595/299/242 589/297/242 592/297/242
f 593/296/2 592/297/2 583/295/2
f 594/298/2 592/297/2 593/296/2
f 594/298/2 595/299/2 592/297/2
f 596/300/2 595/299/2 594/298/2
f 596/300/2 597/301/2 595/299/2
f 597/301/243 591/299/243 595/299/243
f 598/302/2 597/301/2 596/300/2
f 599/303/2 597/301/2 598/302/2
f 599/303/2 600/304/2 597/301/2
f 600/304/244 601/301/244 597/301/244
f 602/300/4 591/299/4 601/301/4
f 603/302/4 602/300/4 601/301/4
f 604/303/4 603/302/4 601/301/4
f 604/303/4 601/301/4 605/304/4
f 606/305/4 604/303/4 605/304/4
f 606/305/4 605/304/4 607/306/4
f 610/306/245 605/304/245 600/304/245
f 608/307/4 606/305/4 607/306/4
f 608/307/4 607/306/4 609/308/4
f 613/308/246 607/306/246 610/306/246
f 611/305/2 610/306/2 600/304/2
f 612/307/2 610/306/2 611/305/2
f 612/307/2 613/308/2 610/306/2
f 614/309/2 613/308/2 612/307/2
f 614/309/2 615/310/2 613/308/2
f 615/310/247 609/308/247 613/308/247
f 616/311/2 615/310/2 614/309/2
f 616/311/2 617/312/2 615/310/2
f 617/312/248 618/310/248 615/310/248
f 619/309/4 609/308/4 618/310/4
f 620/311/4 619/309/4 618/310/4
f 620/311/4 618/310/4 621/312/4
f 622/313/4 620/311/4 621/312/4
f 622/313/4 621/312/4 623/314/4
f 626/314/249 621/312/249 617/312/249
f 624/315/4 622/313/4 623/314/4
f 624/315/4 623/314/4 625/316/4
f 629/316/250 623/314/250 626/314/250
f 627/313/2 626/314/2 617/312/2
f 628/315/2 626/314/2 627/313/2
f 628/315/2 629/316/2 626/314/2
f 630/317/2 629/316/2 628/315/2
f 631/318/2 629/316/2 630/317/2
f 631/318/2 632/319/2 629/316/2
f 632/319/251 625/316/251 629/316/251
f 633/320/2 632/319/2 631/318/2
f 633/320/2 634/321/2 632/319/2
f 634/321/252 635/319/252 632/319/252
f 636/318/4 625/316/4 635/319/4
f 637/320/4 636/318/4 635/319/4
f 637/320/4 635/319/4 638/321/4
f 639/322/4 637/320/4 638/321/4
f 639/322/4 638/321/4 640/323/4
f 643/323/253 638/321/253 634/321/253
f 641/324/4 639/322/4 640/323/4
f 641/324/4 640/323/4 642/325/4
f 646/325/254 640/323/254 643/323/254
f 644/322/2 643/323/2 634/321/2
f 645/324/2 643/323/2 644/322/2
f 645/324/2 646/325/2 643/323/2
f 647/326/2 646/325/2 645/324/2
f 648/327/2 646/325/2 647/326/2
f 648/327/2 649/328/2 646/325/2
f 649/328/255 642/325/255 646/325/255
f 650/329/2 649/328/2 648/327/2
f 650/329/2 651/330/2 649/328/2
f 651/330/256 652/328/256 649/328/256
f 653/327/4 642/325/4 652/328/4
f 654/329/4 653/327/4 652/328/4
f 654/329/4 652/328/4 655/330/4
f 656/331/4 654/329/4 655/330/4
f 656/331/4 655/330/4 657/332/4
f 661/332/257 655/330/257 651/330/257
f 658/333/4 656/331/4 657/332/4
f 659/334/4 658/333/4 657/332/4
f 659/334/4 657/332/4 660/335/4
f 665/335/258 657/332/258 661/332/258
f 662/331/2 661/332/2 651/330/2
f 663/333/2 661/332/2 662/331/2
f 664/334/2 661/332/2 663/333/2
f 664/334/2 665/335/2 661/332/2
f 666/336/2 665/335/2 664/334/2
f 666/336/2 667/337/2 665/335/2
f 667/337/259 660/335/259 665/335/259
f 668/338/2 667/337/2 666/336/2
f 668/338/2 669/339/2 667/337/2
f 669/339/260 670/337/260 667/337/260
f 671/336/4 660/335/4 670/337/4
f 672/338/4 671/336/4 670/337/4
f 672/338/4 670/337/4 673/339/4
f 674/340/4 672/338/4 673/339/4
f 675/341/4 674/340/4 673/339/4
f 675/341/4 673/339/4 676/342/4
f 679/342/261 673/339/261 669/339/261
f 677/343/4 675/341/4 676/342/4
f 677/343/262 676/342/262 678/344/262
f 682/344/263 676/342/263 679/342/263
f 680/341/2 679/342/2 669/339/2
f 681/343/264 679/342/264 680/341/264
f 681/343/2 682/344/2 679/342/2
f 681/343/265 678/344/265 682/344/265
f 680/341/266 677/343/266 681/343/266
f 680/341/2 669/339/2 683/340/2
f 683/340/267 675/341/267 680/341/267
f 683/340/2 669/339/2 668/338/2
f 668/338/268 674/340/268 683/340/268
f 666/336/269 672/338/269 668/338/269
f 671/336/4 659/334/4 660/335/4
f 664/334/270 671/336/270 666/336/270
f 663/333/271 659/334/271 664/334/271
f 662/331/272 658/333/272 663/333/272
f 662/331/2 651/330/2 650/329/2
f 650/329/273 656/331/273 662/331/273
f 648/327/274 654/329/274 650/329/274
f 653/327/4 684/326/4 642/325/4
f 647/326/275 653/327/275 648/327/275
f 684/326/4 641/324/4 642/325/4
f 645/324/276 684/326/276 647/326/276
f 644/322/277 641/324/277 645/324/277
f 644/322/2 634/321/2 633/320/2
f 633/320/278 639/322/278 644/322/278
f 631/318/279 637/320/279 633/320/279
f 636/318/4 685/317/4 625/316/4
f 630/317/280 636/318/280 631/318/280
f 685/317/4 624/315/4 625/316/4
f 628/315/281 685/317/281 630/317/281
f 627/313/282 624/315/282 628/315/282
f 627/313/2 617/312/2 616/311/2
f 616/311/283 622/313/283 627/313/283
f 614/309/284 620/311/284 616/311/284
f 619/309/4 608/307/4 609/308/4
f 612/307/285 619/309/285 614/309/285
f 611/305/286 608/307/286 612/307/286
f 611/305/2 600/304/2 599/303/2
f 599/303/287 606/305/287 611/305/287
f 598/302/288 604/303/288 599/303/288
f 596/300/289 603/302/289 598/302/289
f 602/300/4 590/298/4 591/299/4
f 594/298/290 602/300/290 596/300/290
f 593/296/291 590/298/291 594/298/291
f 593/296/2 583/295/2 582/294/2
f 582/294/292 588/296/292 593/296/292
f 582/294/293 585/292/293 586/294/293
f 585/292/4 574/289/4 576/291/4
f 578/289/294 585/292/294 580/292/294
f 578/289/2 569/288/2 568/287/2
f 568/287/295 574/289/295 578/289/295
f 566/285/296 572/287/296 568/287/296
f 571/285/4 560/282/4 562/284/4
f 564/282/297 571/285/297 566/285/297
f 564/282/2 556/281/2 554/279/2
f 554/279/298 560/282/298 564/282/298
f 558/279/4 548/275/4 551/278/4
f 545/275/299 558/279/299 554/279/299
f 534/268/300 548/275/300 545/275/300
f 509/257/301 531/268/301 534/268/301
f 490/246/302 512/257/302 509/257/302
f 480/240/303 487/246/303 490/246/303
f 480/240/2 473/239/2 470/236/2
f 470/236/304 476/240/304 480/240/304
f 460/232/305 467/236/305 470/236/305
f 464/232/4 454/229/4 456/231/4
f 458/229/306 464/232/306 460/232/306
f 458/229/2 450/228/2 448/226/2
f 448/226/307 454/229/307 458/229/307
f 452/226/4 442/223/4 444/225/4
f 446/223/308 452/226/308 448/226/308
f 446/223/2 438/222/2 436/220/2
f 436/220/309 442/223/309 446/223/309
f 440/220/4 431/218/4 432/219/4
f 434/218/310 440/220/310 436/220/310
f 425/215/311 431/218/311 434/218/311
f 422/212/312 428/215/312 425/215/312
f 421/210/313 418/212/313 422/212/313
f 421/210/2 412/209/2 410/207/2
f 410/207/314 416/210/314 421/210/314
f 414/207/4 405/205/4 406/206/4
f 408/205/315 414/207/315 410/207/315
f 399/202/316 405/205/316 408/205/316
f 396/199/317 402/202/317 399/202/317
f 395/197/318 392/199/318 396/199/318
f 395/197/2 386/196/2 384/194/2
f 384/194/319 390/197/319 395/197/319
f 388/194/4 378/191/4 380/193/4
f 382/191/320 388/194/320 384/194/320
f 382/191/2 374/190/2 372/188/2
f 372/188/321 378/191/321 382/191/321
f 376/188/4 366/184/4 369/187/4
f 363/184/322 376/188/322 372/188/322
f 352/179/323 366/184/323 363/184/323
f 351/151/324 297/150/324 686/150/324
f 686/150/325 289/146/325 351/151/325
f 686/150/326 295/149/326 292/149/326
f 292/149/2 289/146/2 686/150/2
f 282/144/4 294/148/4 283/145/4
f 290/148/327 282/144/327 287/144/327
f 287/144/328 281/143/328 286/143/328
f 286/143/329 279/141/329 285/141/329
f 285/141/330 277/139/330 273/139/330
f 273/139/2 275/140/2 285/141/2
f 262/134/331 268/136/331 271/136/331
f 250/127/332 244/124/332 247/124/332
f 235/118/333 229/116/333 227/116/333
f 223/112/334 217/109/334 214/109/334
f 214/109/335 209/107/335 211/107/335
f 202/103/336 196/100/336 199/100/336
f 182/93/4 193/95/4 183/94/4
f 187/95/337 182/93/337 185/93/337
f 185/93/338 179/91/338 177/91/338
f 173/87/339 167/84/339 164/84/339
f 150/77/2 151/78/2 161/79/2
f 161/79/340 153/77/340 150/77/340
f 150/77/341 145/75/341 147/75/341
f 137/71/342 140/70/342 136/70/342
f 136/70/343 129/68/343 133/68/343
f 121/63/344 127/65/344 132/65/344
f 122/64/2 121/63/2 132/65/2
f 119/61/345 125/63/345 121/63/345
f 109/58/346 124/61/346 119/61/346
f 116/60/4 124/61/4 113/58/4
f 107/55/347 687/54/347 106/54/347
f 687/54/4 112/55/4 89/48/4
f 106/54/348 688/53/348 104/53/348
f 687/54/4 89/48/4 688/53/4
f 688/53/4 89/48/4 93/49/4
f 2/2/2 84/43/2 97/52/2
f 97/52/349 5/2/349 2/2/349
f 1/1/1 2/2/1 5/2/1
f 1/1/3 4/1/3 6/3/3
f 3/3/5 6/3/5 16/5/5
f 44/18/6 43/18/6 38/40/6
f 46/16/7 11/16/7 43/18/7
f 47/17/350 15/17/350 11/16/350
f 48/22/9 20/22/9 15/17/9
f 49/26/10 24/26/10 20/22/10
f 50/30/11 28/30/11 24/26/11
f 51/34/12 32/34/12 28/30/12
f 52/38/13 37/38/13 32/34/13
f 53/15/14 42/15/14 37/38/14
f 54/13/15 10/13/15 42/15/15
f 55/14/16 14/14/16 10/13/16
f 56/21/17 19/21/17 14/14/17
f 57/25/18 23/25/18 19/21/18
f 58/29/19 27/29/19 23/25/19
f 59/33/20 31/33/20 27/29/20
f 60/37/21 36/37/21 31/33/21
f 61/12/22 41/12/22 36/37/22
f 62/10/23 9/10/23 41/12/23
f 63/11/24 13/11/24 9/10/24
f 64/20/25 18/20/25 13/11/25
f 65/24/26 22/24/26 18/20/26
f 66/28/27 26/28/27 22/24/27
f 67/32/28 30/32/28 26/28/28
f 68/36/29 35/36/29 30/32/29
f 69/9/30 40/9/30 35/36/30
f 70/7/31 8/7/31 40/9/31
f 71/8/32 12/8/32 8/7/32
f 72/19/33 17/19/33 12/8/33
f 73/23/34 21/23/34 17/19/34
f 74/27/35 25/27/35 21/23/35
f 75/31/36 29/31/36 25/27/36
f 76/35/37 34/35/37 29/31/37
f 77/6/38 39/6/38 34/35/38
f 78/4/39 7/4/39 39/6/39
f 80/41/40 81/41/40 7/4/40
f 79/5/41 16/5/41 81/41/41
f 45/40/42 38/40/42 33/39/42
f 82/39/41 33/39/41 85/42/41
f 83/42/43 85/42/43 86/43/43
f 84/43/44 86/43/44 89/48/44
f 97/52/45 96/46/45 95/46/45
f 98/44/46 87/44/46 95/46/46
f 99/45/47 88/45/47 87/44/47
f 100/47/48 90/47/48 88/45/48
f 101/50/49 91/50/49 90/47/49
f 102/51/50 92/51/50 91/50/50
f 102/51/52 103/49/52 93/49/52
f 104/53/53 688/53/53 93/49/53
f 105/48/54 89/48/54 111/56/54
f 108/56/55 111/56/55 113/58/55
f 110/57/56 114/57/56 112/55/56
f 117/59/57 115/59/57 114/57/57
f 118/60/58 116/60/58 115/59/58
f 120/62/59 123/62/59 116/60/59
f 122/64/60 126/64/60 123/62/60
f 122/64/61 131/66/61 128/66/61
f 133/68/62 129/68/62 128/66/62
f 132/65/63 127/65/63 130/67/63
f 134/67/64 130/67/64 139/69/64
f 135/69/65 139/69/65 142/72/65
f 138/72/66 142/72/66 143/73/66
f 146/74/67 144/74/67 141/71/67
f 147/75/68 145/75/68 144/74/68
f 148/73/69 143/73/69 152/76/69
f 149/76/70 152/76/70 154/78/70
f 151/78/71 154/78/71 156/80/71
f 159/80/72 156/80/72 157/81/72
f 162/82/351 158/82/351 155/79/351
f 163/83/74 166/83/74 158/82/74
f 164/84/75 167/84/75 166/83/75
f 165/85/76 168/85/76 169/86/76
f 160/81/77 157/81/77 168/85/77
f 172/86/78 169/86/78 171/88/78
f 174/88/79 171/88/79 180/89/79
f 176/90/80 178/90/80 170/87/80
f 177/91/81 179/91/81 178/90/81
f 175/89/82 180/89/82 181/92/82
f 184/92/83 181/92/83 183/94/83
f 186/94/84 183/94/84 191/96/84
f 188/96/85 191/96/85 192/97/85
f 190/98/86 194/98/86 193/95/86
f 198/99/87 195/99/87 194/98/87
f 199/100/88 196/100/88 195/99/88
f 200/101/89 197/101/89 204/102/89
f 189/97/90 192/97/90 197/101/90
f 201/102/91 204/102/91 206/104/91
f 203/104/92 206/104/92 207/105/92
f 210/106/93 208/106/93 205/103/93
f 211/107/94 209/107/94 208/106/94
f 212/105/95 207/105/95 216/108/95
f 213/108/96 216/108/96 218/110/96
f 215/110/97 218/110/97 219/111/97
f 222/111/98 219/111/98 221/113/98
f 224/113/99 221/113/99 230/114/99
f 226/115/100 228/115/100 220/112/100
f 227/116/101 229/116/101 228/115/101
f 225/114/102 230/114/102 231/117/102
f 234/117/103 231/117/103 233/119/103
f 236/119/104 233/119/104 240/120/104
f 237/120/105 240/120/105 241/121/105
f 239/122/106 242/122/106 232/118/106
f 246/123/107 243/123/107 242/122/107
f 247/124/108 244/124/108 243/123/108
f 248/125/109 245/125/109 252/126/109
f 238/121/110 241/121/110 245/125/110
f 249/126/352 252/126/352 254/128/352
f 251/128/112 254/128/112 255/129/112
f 258/130/113 256/130/113 253/127/113
f 259/131/114 257/131/114 256/130/114
f 260/129/115 255/129/115 264/132/115
f 261/132/116 264/132/116 265/134/116
f 263/133/117 266/133/117 257/131/117
f 270/135/118 267/135/118 266/133/118
f 272/137/119 269/137/119 267/135/119
f 273/139/120 277/139/120 269/137/120
f 271/136/121 268/136/121 276/138/121
f 274/138/122 276/138/122 278/140/122
f 275/140/123 278/140/123 280/142/123
f 284/142/124 280/142/124 283/145/124
f 288/145/125 283/145/125 296/146/125
f 291/147/126 293/147/126 294/148/126
f 292/149/127 295/149/127 293/147/127
f 289/146/128 296/146/128 300/153/128
f 303/153/129 300/153/129 301/155/129
f 306/154/353 302/154/353 299/152/353
f 307/156/131 311/156/131 302/154/131
f 308/158/132 312/158/132 311/156/132
f 305/155/133 301/155/133 314/157/133
f 310/157/134 314/157/134 313/159/134
f 309/159/135 313/159/135 315/160/135
f 318/160/136 315/160/136 317/162/136
f 320/162/137 317/162/137 326/163/137
f 322/164/138 324/164/138 316/161/138
f 323/165/139 325/165/139 324/164/139
f 321/163/140 326/163/140 327/166/140
f 330/166/141 327/166/141 329/168/141
f 332/168/142 329/168/142 337/170/142
f 334/170/143 337/170/143 338/171/143
f 336/172/144 340/172/144 339/169/144
f 344/173/145 341/173/145 340/172/145
f 345/174/146 342/174/146 341/173/146
f 335/171/147 338/171/147 343/175/147
f 346/175/148 343/175/148 349/176/148
f 347/176/149 349/176/149 350/177/149
f 348/177/150 350/177/150 342/174/150
f 333/169/151 339/169/151 328/167/151
f 331/167/152 328/167/152 325/165/152
f 319/161/153 316/161/153 312/158/153
f 304/152/154 299/152/154 356/179/154
f 353/178/155 355/178/155 298/151/155
f 354/180/156 357/180/156 355/178/156
f 360/181/157 358/181/157 357/180/157
f 361/182/158 359/182/158 358/181/158
f 362/183/159 365/183/159 359/182/159
f 364/185/160 367/185/160 365/183/160
f 370/186/161 368/186/161 367/185/161
f 371/187/162 369/187/162 368/186/162
f 373/189/163 375/189/163 369/187/163
f 374/190/164 377/190/164 375/189/164
f 381/192/354 379/192/354 377/190/354
f 383/193/166 380/193/166 379/192/166
f 385/195/167 387/195/167 380/193/167
f 386/196/168 389/196/168 387/195/168
f 394/198/169 391/198/169 389/196/169
f 397/200/170 393/200/170 391/198/170
f 398/201/171 401/201/171 393/200/171
f 400/203/172 403/203/172 401/201/172
f 407/204/173 404/204/173 403/203/173
f 409/206/174 406/206/174 404/204/174
f 411/208/175 413/208/175 406/206/175
f 412/209/176 415/209/176 413/208/176
f 420/211/177 417/211/177 415/209/177
f 423/213/178 419/213/178 417/211/178
f 424/214/179 427/214/179 419/213/179
f 426/216/180 429/216/180 427/214/180
f 433/217/181 430/217/181 429/216/181
f 435/219/182 432/219/182 430/217/182
f 437/221/183 439/221/183 432/219/183
f 438/222/184 441/222/184 439/221/184
f 445/224/185 443/224/185 441/222/185
f 447/225/186 444/225/186 443/224/186
f 449/227/187 451/227/187 444/225/187
f 450/228/188 453/228/188 451/227/188
f 457/230/189 455/230/189 453/228/189
f 459/231/190 456/231/190 455/230/190
f 461/233/191 463/233/191 456/231/191
f 462/234/192 465/234/192 463/233/192
f 469/235/193 466/235/193 465/234/193
f 471/237/194 468/237/194 466/235/194
f 472/238/195 474/238/195 468/237/195
f 473/239/196 475/239/196 474/238/196
f 479/241/197 477/241/197 475/239/197
f 481/242/198 478/242/198 477/241/198
f 482/243/199 484/243/199 478/242/199
f 483/244/200 485/244/200 484/243/200
f 489/245/201 486/245/201 485/244/201
f 491/247/202 488/247/202 486/245/202
f 492/248/203 494/248/203 488/247/203
f 493/249/204 495/249/204 494/248/204
f 498/250/355 496/250/355 495/249/355
f 499/251/206 497/251/206 496/250/206
f 500/252/207 502/252/207 497/251/207
f 501/253/208 503/253/208 502/252/208
f 506/254/209 504/254/209 503/253/209
f 507/255/210 505/255/210 504/254/210
f 508/256/211 511/256/211 505/255/211
f 510/258/212 513/258/212 511/256/212
f 516/259/213 514/259/213 513/258/213
f 517/260/214 515/260/214 514/259/214
f 518/261/215 520/261/215 515/260/215
f 519/262/216 521/262/216 520/261/216
f 524/263/217 522/263/217 521/262/217
f 525/264/218 523/264/218 522/263/218
f 526/265/219 528/265/219 523/264/219
f 527/266/220 529/266/220 528/265/220
f 533/267/221 530/267/221 529/266/221
f 535/269/222 532/269/222 530/267/222
f 536/270/223 538/270/223 532/269/223
f 537/271/224 539/271/224 538/270/224
f 542/272/225 540/272/225 539/271/225
f 543/273/226 541/273/226 540/272/226
f 544/274/227 547/274/227 541/273/227
f 546/276/228 549/276/228 547/274/228
f 552/277/229 550/277/229 549/276/229
f 553/278/230 551/278/230 550/277/230
f 555/280/231 557/280/231 551/278/231
f 556/281/232 559/281/232 557/280/232
f 563/283/233 561/283/233 559/281/233
f 565/284/234 562/284/234 561/283/234
f 567/286/235 570/286/235 562/284/235
f 569/288/236 573/288/236 570/286/236
f 577/290/237 575/290/237 573/288/237
f 579/291/238 576/291/238 575/290/238
f 581/293/239 584/293/239 576/291/239
f 583/295/240 587/295/240 584/293/240
f 592/297/241 589/297/241 587/295/241
f 595/299/242 591/299/242 589/297/242
f 597/301/243 601/301/243 591/299/243
f 600/304/244 605/304/244 601/301/244
f 610/306/245 607/306/245 605/304/245
f 613/308/246 609/308/246 607/306/246
f 615/310/247 618/310/247 609/308/247
f 617/312/248 621/312/248 618/310/248
f 626/314/249 623/314/249 621/312/249
f 629/316/250 625/316/250 623/314/250
f 632/319/356 635/319/356 625/316/356
f 634/321/252 638/321/252 635/319/252
f 643/323/253 640/323/253 638/321/253
f 646/325/254 642/325/254 640/323/254
f 649/328/255 652/328/255 642/325/255
f 651/330/256 655/330/256 652/328/256
f 661/332/257 657/332/257 655/330/257
f 665/335/357 660/335/357 657/332/357
f 667/337/259 670/337/259 660/335/259
f 669/339/260 673/339/260 670/337/260
f 679/342/358 676/342/358 673/339/358
f 682/344/263 678/344/263 676/342/263
f 681/343/265 677/343/265 678/344/265
f 680/341/266 675/341/266 677/343/266
f 683/340/267 674/340/267 675/341/267
f 668/338/268 672/338/268 674/340/268
f 666/336/269 671/336/269 672/338/269
f 664/334/270 659/334/270 671/336/270
f 663/333/271 658/333/271 659/334/271
f 662/331/272 656/331/272 658/333/272
f 650/329/273 654/329/273 656/331/273
f 648/327/359 653/327/359 654/329/359
f 647/326/275 684/326/275 653/327/275
f 645/324/276 641/324/276 684/326/276
f 644/322/277 639/322/277 641/324/277
f 633/320/278 637/320/278 639/322/278
f 631/318/279 636/318/279 637/320/279
f 630/317/280 685/317/280 636/318/280
f 628/315/281 624/315/281 685/317/281
f 627/313/282 622/313/282 624/315/282
f 616/311/283 620/311/283 622/313/283
f 614/309/284 619/309/284 620/311/284
f 612/307/285 608/307/285 619/309/285
f 611/305/286 606/305/286 608/307/286
f 599/303/287 604/303/287 606/305/287
f 598/302/288 603/302/288 604/303/288
f 596/300/289 602/300/289 603/302/289
f 594/298/290 590/298/290 602/300/290
f 593/296/291 588/296/291 590/298/291
f 582/294/292 586/294/292 588/296/292
f 582/294/293 580/292/293 585/292/293
f 578/289/294 574/289/294 585/292/294
f 568/287/295 572/287/295 574/289/295
f 566/285/296 571/285/296 572/287/296
f 564/282/297 560/282/297 571/285/297
f 554/279/298 558/279/298 560/282/298
f 545/275/299 548/275/299 558/279/299
f 534/268/300 531/268/300 548/275/300
f 509/257/301 512/257/301 531/268/301
f 490/246/302 487/246/302 512/257/302
f 480/240/303 476/240/303 487/246/303
f 470/236/304 467/236/304 476/240/304
f 460/232/305 464/232/305 467/236/305
f 458/229/306 454/229/306 464/232/306
f 448/226/307 452/226/307 454/229/307
f 446/223/308 442/223/308 452/226/308
f 436/220/309 440/220/309 442/223/309
f 434/218/310 431/218/310 440/220/310
f 425/215/311 428/215/311 431/218/311
f 422/212/312 418/212/312 428/215/312
f 421/210/313 416/210/313 418/212/313
f 410/207/314 414/207/314 416/210/314
f 408/205/315 405/205/315 414/207/315
f 399/202/316 402/202/316 405/205/316
f 396/199/317 392/199/317 402/202/317
f 395/197/318 390/197/318 392/199/318
f 384/194/319 388/194/319 390/197/319
f 382/191/320 378/191/320 388/194/320
f 372/188/321 376/188/321 378/191/321
f 363/184/322 366/184/322 376/188/322
f 352/179/323 356/179/323 366/184/323
f 351/151/324 298/151/324 297/150/324
f 686/150/326 297/150/326 295/149/326
f 290/148/327 294/148/327 282/144/327
f 287/144/328 282/144/328 281/143/328
f 286/143/329 281/143/329 279/141/329
f 285/141/330 279/141/330 277/139/330
f 262/134/331 265/134/331 268/136/331
f 250/127/332 253/127/332 244/124/332
f 235/118/333 232/118/333 229/116/333
f 223/112/334 220/112/334 217/109/334
f 214/109/335 217/109/335 209/107/335
f 202/103/336 205/103/336 196/100/336
f 187/95/337 193/95/337 182/93/337
f 185/93/338 182/93/338 179/91/338
f 173/87/339 170/87/339 167/84/339
f 161/79/340 155/79/340 153/77/340
f 150/77/341 153/77/341 145/75/341
f 137/71/342 141/71/342 140/70/342
f 136/70/343 140/70/343 129/68/343
f 121/63/344 125/63/344 127/65/344
f 119/61/345 124/61/345 125/63/345
f 109/58/346 113/58/346 124/61/346
f 107/55/347 112/55/347 687/54/347
f 106/54/348 687/54/348 688/53/348
f 97/52/349 94/52/349 5/2/349
