# Blender 4.4.1
# www.blender.org
mtllib 4.mtl
o 4
v -0.122909 -0.212040 0.050000
v -0.122909 -0.195056 0.050000
v -0.055653 -0.195056 0.050000
v 0.025189 -0.195056 0.050000
v 0.082934 -0.195056 0.050000
v 0.082934 -0.212040 0.050000
v -0.122909 -0.212040 -0.050000
v -0.122909 -0.195056 -0.050000
v -0.055653 -0.195056 -0.050000
v 0.025189 -0.195056 -0.050000
v 0.082934 -0.195056 -0.050000
v 0.082934 -0.212040 -0.050000
v 0.052663 -0.076170 -0.050000
v 0.125353 -0.057828 -0.050000
v -0.028179 -0.076170 -0.050000
v 0.125353 -0.076170 -0.050000
v 0.052663 -0.076170 0.050000
v 0.125353 -0.057828 0.050000
v -0.028179 -0.076170 0.050000
v 0.125353 -0.076170 0.050000
v 0.143016 -0.131877 0.050000
v 0.125353 -0.131877 0.050000
v 0.125353 -0.131877 -0.050000
v 0.143016 -0.131877 -0.050000
v 0.214449 -0.004159 -0.050000
v 0.196786 -0.004159 -0.050000
v 0.214449 -0.004159 0.050000
v 0.196786 -0.004159 0.050000
v -0.228587 -0.076170 0.050000
v -0.228587 -0.057148 0.050000
v -0.188975 -0.057828 0.050000
v -0.028859 -0.057828 0.050000
v 0.051984 -0.057828 0.050000
v -0.228587 -0.076170 -0.050000
v -0.228587 -0.057148 -0.050000
v -0.188975 -0.057828 -0.050000
v -0.028859 -0.057828 -0.050000
v 0.051984 -0.057828 -0.050000
v 0.123416 0.285243 -0.050000
v 0.042574 0.194890 -0.050000
v 0.038893 0.194890 -0.050000
v 0.042574 0.194890 0.050000
v 0.038893 0.194890 0.050000
v 0.123416 0.285243 0.050000
v 0.073824 0.285243 0.050000
v 0.073824 0.285243 -0.050000
v -0.188786 -0.055110 0.050000
v -0.188786 -0.055110 -0.050000
vn -1.0000 -0.0000 -0.0000
vn -0.0000 -0.0000 1.0000
vn -0.0000 -1.0000 -0.0000
vn -0.0000 -0.0000 -1.0000
vn 1.0000 -0.0000 -0.0000
vn -0.0000 1.0000 -0.0000
vn 0.9743 -0.2252 -0.0000
vn 0.8728 -0.4881 -0.0000
vn -0.6007 0.7995 -0.0000
vn -0.9743 0.2252 -0.0000
vn 0.9790 -0.2038 -0.0000
vn -0.9623 0.2720 -0.0000
vn -0.7495 0.6620 -0.0000
vn 0.7393 -0.6733 -0.0000
vn 0.9976 -0.0693 -0.0000
vt 0.043478 0.000000
vt 0.000000 0.000000
vt 0.086957 0.000000
vt 0.695652 0.000000
vt 0.739130 0.000000
vt 0.782609 0.000000
vt 0.652174 0.000000
vt 0.391304 0.000000
vt 0.608696 0.000000
vt 0.130435 0.000000
vt 0.521739 0.000000
vt 0.565217 0.000000
vt 0.478261 0.000000
vt 0.434783 0.000000
vt 0.173913 0.000000
vt 0.217391 0.000000
vt 0.826087 0.000000
vt 0.869565 0.000000
vt 0.347826 0.000000
vt 0.304348 0.000000
vt 0.913043 0.000000
vt 0.956522 0.000000
vt 0.260870 0.000000
vt 1.000000 0.000000
s 0
f 2/1/1 7/2/1 1/2/1
f 1/2/2 3/3/2 2/1/2
f 1/2/2 4/4/2 3/3/2
f 1/2/2 5/5/2 4/4/2
f 1/2/2 6/6/2 5/5/2
f 1/2/3 12/6/3 6/6/3
f 7/2/4 8/1/4 9/3/4
f 7/2/4 9/3/4 10/4/4
f 7/2/4 10/4/4 11/5/4
f 7/2/4 11/5/4 12/6/4
f 6/6/5 11/5/5 5/5/5
f 5/5/6 10/4/6 4/4/6
f 9/3/4 13/7/4 10/4/4
f 4/4/7 13/7/7 17/7/7
f 13/7/4 14/8/4 16/9/4
f 15/10/4 14/8/4 13/7/4
f 9/3/4 15/10/4 13/7/4
f 17/7/3 16/9/3 20/9/3
f 17/7/2 20/9/2 18/8/2
f 19/10/2 17/7/2 18/8/2
f 3/3/2 4/4/2 17/7/2
f 3/3/2 17/7/2 19/10/2
f 20/9/2 21/11/2 18/8/2
f 22/12/2 21/11/2 20/9/2
f 20/9/1 23/12/1 22/12/1
f 22/12/3 24/11/3 21/11/3
f 23/12/4 16/9/4 24/11/4
f 16/9/4 14/8/4 24/11/4
f 14/8/4 25/13/4 24/11/4
f 21/11/8 25/13/8 27/13/8
f 14/8/4 26/14/4 25/13/4
f 27/13/6 26/14/6 28/14/6
f 18/8/2 21/11/2 27/13/2
f 18/8/2 27/13/2 28/14/2
f 28/14/9 14/8/9 18/8/9
f 3/3/10 15/10/10 9/3/10
f 29/15/3 15/10/3 19/10/3
f 29/15/2 19/10/2 18/8/2
f 30/16/1 34/15/1 29/15/1
f 29/15/2 31/17/2 30/16/2
f 29/15/2 32/18/2 31/17/2
f 29/15/2 33/19/2 32/18/2
f 29/15/2 18/8/2 33/19/2
f 34/15/4 14/8/4 15/10/4
f 34/15/4 35/16/4 36/17/4
f 34/15/4 36/17/4 37/18/4
f 34/15/4 37/18/4 38/19/4
f 34/15/4 38/19/4 14/8/4
f 33/19/11 39/20/11 44/20/11
f 40/21/4 39/20/4 38/19/4
f 37/18/4 40/21/4 38/19/4
f 18/8/6 38/19/6 33/19/6
f 32/18/12 40/21/12 37/18/12
f 43/22/3 40/21/3 42/21/3
f 41/22/4 39/20/4 40/21/4
f 32/18/2 33/19/2 42/21/2
f 43/22/2 42/21/2 44/20/2
f 42/21/2 33/19/2 44/20/2
f 44/20/6 46/23/6 45/23/6
f 43/22/2 44/20/2 45/23/2
f 30/16/13 46/23/13 35/16/13
f 30/16/2 43/22/2 45/23/2
f 35/16/4 46/23/4 41/22/4
f 41/22/4 46/23/4 39/20/4
f 30/16/2 47/24/2 43/22/2
f 47/24/14 41/22/14 43/22/14
f 31/17/15 48/24/15 47/24/15
f 30/16/2 31/17/2 47/24/2
f 35/16/4 48/24/4 36/17/4
f 35/16/4 41/22/4 48/24/4
f 32/18/6 36/17/6 31/17/6
f 3/3/6 8/1/6 2/1/6
f 2/1/1 8/1/1 7/2/1
f 1/2/3 7/2/3 12/6/3
f 6/6/5 12/6/5 11/5/5
f 5/5/6 11/5/6 10/4/6
f 4/4/7 10/4/7 13/7/7
f 17/7/3 13/7/3 16/9/3
f 20/9/1 16/9/1 23/12/1
f 22/12/3 23/12/3 24/11/3
f 21/11/8 24/11/8 25/13/8
f 27/13/6 25/13/6 26/14/6
f 28/14/9 26/14/9 14/8/9
f 3/3/10 19/10/10 15/10/10
f 29/15/3 34/15/3 15/10/3
f 30/16/1 35/16/1 34/15/1
f 33/19/11 38/19/11 39/20/11
f 18/8/6 14/8/6 38/19/6
f 32/18/12 42/21/12 40/21/12
f 43/22/3 41/22/3 40/21/3
f 44/20/6 39/20/6 46/23/6
f 30/16/13 45/23/13 46/23/13
f 47/24/14 48/24/14 41/22/14
f 31/17/15 36/17/15 48/24/15
f 32/18/6 37/18/6 36/17/6
f 3/3/6 9/3/6 8/1/6
