# Blender 4.4.1
# www.blender.org
mtllib 7.mtl
o 7
v -0.071573 -0.222109 0.050000
v -0.074442 -0.222032 0.050000
v -0.067580 -0.221993 0.050000
v -0.071573 -0.222109 -0.050000
v -0.074442 -0.222032 -0.050000
v -0.067580 -0.221993 -0.050000
v -0.063737 -0.221644 -0.050000
v -0.077239 -0.221799 -0.050000
v -0.079963 -0.221412 -0.050000
v -0.077239 -0.221799 0.050000
v -0.079963 -0.221412 0.050000
v -0.063737 -0.221644 0.050000
v -0.060045 -0.221063 0.050000
v -0.082614 -0.220869 0.050000
v -0.056502 -0.220249 0.050000
v -0.060045 -0.221063 -0.050000
v -0.082614 -0.220869 -0.050000
v -0.056502 -0.220249 -0.050000
v -0.053110 -0.219203 -0.050000
v -0.085193 -0.220172 -0.050000
v -0.087699 -0.219320 -0.050000
v -0.090133 -0.218312 -0.050000
v -0.087699 -0.219320 0.050000
v -0.085193 -0.220172 0.050000
v -0.090133 -0.218312 0.050000
v -0.053110 -0.219203 0.050000
v -0.049868 -0.217925 0.050000
v -0.092494 -0.217150 0.050000
v -0.046776 -0.216414 0.050000
v -0.049868 -0.217925 -0.050000
v -0.092494 -0.217150 -0.050000
v -0.046776 -0.216414 -0.050000
v -0.043834 -0.214671 -0.050000
v -0.094782 -0.215833 -0.050000
v -0.096997 -0.214361 -0.050000
v -0.094782 -0.215833 0.050000
v -0.096997 -0.214361 0.050000
v -0.043834 -0.214671 0.050000
v -0.099140 -0.212734 0.050000
v -0.041042 -0.212695 0.050000
v -0.101210 -0.210951 0.050000
v -0.038400 -0.210486 0.050000
v -0.041042 -0.212695 -0.050000
v -0.099140 -0.212734 -0.050000
v -0.101210 -0.210951 -0.050000
v -0.038400 -0.210486 -0.050000
v -0.103160 -0.208985 -0.050000
v -0.035909 -0.208046 -0.050000
v -0.033567 -0.205373 -0.050000
v -0.104939 -0.206806 -0.050000
v -0.035909 -0.208046 0.050000
v -0.033567 -0.205373 0.050000
v -0.103160 -0.208985 0.050000
v -0.104939 -0.206806 0.050000
v -0.106550 -0.204414 0.050000
v -0.107991 -0.201808 0.050000
v -0.031395 -0.202506 0.050000
v -0.106550 -0.204414 -0.050000
v -0.107991 -0.201808 -0.050000
v -0.031395 -0.202506 -0.050000
v -0.029412 -0.199484 -0.050000
v -0.109262 -0.198990 -0.050000
v -0.027618 -0.196307 -0.050000
v -0.029412 -0.199484 0.050000
v -0.109262 -0.198990 0.050000
v -0.027618 -0.196307 0.050000
v -0.026013 -0.192975 0.050000
v -0.110363 -0.195958 0.050000
v -0.111296 -0.192714 0.050000
v -0.110363 -0.195958 -0.050000
v -0.111296 -0.192714 -0.050000
v -0.026013 -0.192975 -0.050000
v -0.024596 -0.189489 -0.050000
v -0.112058 -0.189256 -0.050000
v -0.023369 -0.185847 -0.050000
v -0.024596 -0.189489 0.050000
v -0.112058 -0.189256 0.050000
v -0.023369 -0.185847 0.050000
v -0.112652 -0.185585 0.050000
v -0.022330 -0.182050 0.050000
v -0.021480 -0.178098 0.050000
v -0.113075 -0.181701 0.050000
v -0.022330 -0.182050 -0.050000
v -0.021480 -0.178098 -0.050000
v -0.112652 -0.185585 -0.050000
v -0.113075 -0.181701 -0.050000
v -0.113329 -0.177604 -0.050000
v -0.113414 -0.173294 -0.050000
v -0.020819 -0.173992 -0.050000
v -0.113329 -0.177604 0.050000
v -0.113414 -0.173294 0.050000
v -0.020819 -0.173992 0.050000
v -0.113390 -0.171423 0.050000
v -0.020347 -0.169730 0.050000
v -0.113196 -0.167607 0.050000
v -0.113026 -0.165662 0.050000
v -0.020064 -0.165314 0.050000
v -0.113317 -0.169527 0.050000
v -0.020347 -0.169730 -0.050000
v -0.113196 -0.167607 -0.050000
v -0.113026 -0.165662 -0.050000
v -0.020064 -0.165314 -0.050000
v -0.113390 -0.171423 -0.050000
v -0.113317 -0.169527 -0.050000
v -0.112808 -0.163694 -0.050000
v -0.112542 -0.161701 -0.050000
v -0.019969 -0.160742 -0.050000
v -0.112227 -0.159684 -0.050000
v -0.019984 -0.158619 -0.050000
v -0.019969 -0.160742 0.050000
v -0.112542 -0.161701 0.050000
v -0.112227 -0.159684 0.050000
v -0.019984 -0.158619 0.050000
v -0.020027 -0.156432 0.050000
v -0.111864 -0.157643 0.050000
v -0.111453 -0.155577 0.050000
v -0.111864 -0.157643 -0.050000
v -0.111453 -0.155577 -0.050000
v -0.020027 -0.156432 -0.050000
v -0.020100 -0.154183 -0.050000
v -0.020202 -0.151870 -0.050000
v -0.110993 -0.153488 -0.050000
v -0.020100 -0.154183 0.050000
v -0.020202 -0.151870 0.050000
v -0.110993 -0.153488 0.050000
v -0.110484 -0.151374 0.050000
v -0.020332 -0.149495 0.050000
v -0.109927 -0.149236 0.050000
v -0.110484 -0.151374 -0.050000
v -0.020332 -0.149495 -0.050000
v -0.109927 -0.149236 -0.050000
v -0.020492 -0.147057 -0.050000
v -0.109298 -0.147035 -0.050000
v -0.108571 -0.144732 -0.050000
v -0.109298 -0.147035 0.050000
v -0.020492 -0.147057 0.050000
v -0.108571 -0.144732 0.050000
v -0.020681 -0.144555 0.050000
v -0.107748 -0.142328 0.050000
v -0.020899 -0.141991 0.050000
v -0.106828 -0.139822 0.050000
v -0.107748 -0.142328 -0.050000
v -0.020681 -0.144555 -0.050000
v -0.020899 -0.141991 -0.050000
v -0.106828 -0.139822 -0.050000
v -0.105811 -0.137214 -0.050000
v -0.021146 -0.139364 -0.050000
v -0.021422 -0.136674 -0.050000
v -0.021146 -0.139364 0.050000
v -0.105811 -0.137214 0.050000
v -0.021422 -0.136674 0.050000
v -0.021727 -0.133921 0.050000
v -0.104697 -0.134504 0.050000
v -0.103487 -0.131693 0.050000
v -0.104697 -0.134504 -0.050000
v -0.021727 -0.133921 -0.050000
v -0.103487 -0.131693 -0.050000
v -0.022061 -0.131105 -0.050000
v -0.102179 -0.128780 -0.050000
v -0.100775 -0.125766 -0.050000
v -0.022395 -0.128279 -0.050000
v -0.102179 -0.128780 0.050000
v -0.022061 -0.131105 0.050000
v -0.100775 -0.125766 0.050000
v -0.022395 -0.128279 0.050000
v -0.022700 -0.125497 0.050000
v -0.022976 -0.122758 0.050000
v -0.022700 -0.125497 -0.050000
v -0.022976 -0.122758 -0.050000
v -0.099273 -0.122649 -0.050000
v -0.023223 -0.120063 -0.050000
v -0.097675 -0.119431 -0.050000
v -0.023441 -0.117412 -0.050000
v -0.023223 -0.120063 0.050000
v -0.099273 -0.122649 0.050000
v -0.097675 -0.119431 0.050000
v -0.023441 -0.117412 0.050000
v -0.023630 -0.114804 0.050000
v -0.095980 -0.116112 0.050000
v -0.094162 -0.112657 0.050000
v -0.095980 -0.116112 -0.050000
v -0.094162 -0.112657 -0.050000
v -0.023630 -0.114804 -0.050000
v -0.023790 -0.112240 -0.050000
v -0.023921 -0.109719 -0.050000
v -0.023790 -0.112240 0.050000
v -0.023921 -0.109719 0.050000
v -0.024022 -0.107242 0.050000
v -0.092193 -0.109032 0.050000
v -0.090075 -0.105237 0.050000
v -0.092193 -0.109032 -0.050000
v -0.024022 -0.107242 -0.050000
v -0.090075 -0.105237 -0.050000
v -0.024095 -0.104809 -0.050000
v -0.024139 -0.102419 -0.050000
v -0.087806 -0.101274 -0.050000
v -0.024153 -0.100073 -0.050000
v -0.024113 -0.097252 -0.050000
v -0.085387 -0.097140 -0.050000
v -0.087806 -0.101274 0.050000
v -0.024139 -0.102419 0.050000
v -0.024153 -0.100073 0.050000
v -0.024113 -0.097252 0.050000
v -0.085387 -0.097140 0.050000
v -0.023997 -0.094368 0.050000
v -0.082818 -0.092838 0.050000
v -0.080099 -0.088365 0.050000
v -0.023533 -0.088411 0.050000
v -0.023804 -0.091421 0.050000
v -0.082818 -0.092838 -0.050000
v -0.023997 -0.094368 -0.050000
v -0.080099 -0.088365 -0.050000
v -0.023533 -0.088411 -0.050000
v -0.023804 -0.091421 -0.050000
v -0.023184 -0.085339 -0.050000
v -0.077229 -0.083724 -0.050000
v -0.022758 -0.082203 -0.050000
v -0.023184 -0.085339 0.050000
v -0.077229 -0.083724 0.050000
v -0.022758 -0.082203 0.050000
v -0.022254 -0.079005 0.050000
v -0.021673 -0.075743 0.050000
v -0.074210 -0.078912 0.050000
v -0.022254 -0.079005 -0.050000
v -0.021673 -0.075743 -0.050000
v -0.074210 -0.078912 -0.050000
v -0.071041 -0.073932 -0.050000
v -0.067721 -0.068782 -0.050000
v -0.020279 -0.069031 -0.050000
v -0.021015 -0.072418 -0.050000
v -0.071041 -0.073932 0.050000
v -0.067721 -0.068782 0.050000
v -0.020279 -0.069031 0.050000
v -0.021015 -0.072418 0.050000
v -0.019465 -0.065581 0.050000
v -0.064251 -0.063462 0.050000
v -0.018574 -0.062067 0.050000
v -0.019465 -0.065581 -0.050000
v -0.064251 -0.063462 -0.050000
v -0.018574 -0.062067 -0.050000
v -0.017589 -0.058479 -0.050000
v -0.060612 -0.057944 -0.050000
v -0.016492 -0.054803 -0.050000
v -0.017589 -0.058479 0.050000
v -0.060612 -0.057944 0.050000
v -0.016492 -0.054803 0.050000
v -0.056784 -0.052198 0.050000
v -0.015284 -0.051040 0.050000
v -0.013964 -0.047190 0.050000
v -0.015284 -0.051040 -0.050000
v -0.056784 -0.052198 -0.050000
v -0.013964 -0.047190 -0.050000
v -0.052767 -0.046224 -0.050000
v -0.012533 -0.043253 -0.050000
v -0.010991 -0.039229 -0.050000
v -0.048561 -0.040023 -0.050000
v -0.012533 -0.043253 0.050000
v -0.010991 -0.039229 0.050000
v -0.052767 -0.046224 0.050000
v -0.048561 -0.040023 0.050000
v -0.044166 -0.033594 0.050000
v -0.009337 -0.035117 0.050000
v -0.007572 -0.030919 0.050000
v -0.009337 -0.035117 -0.050000
v -0.007572 -0.030919 -0.050000
v -0.044166 -0.033594 -0.050000
v -0.039582 -0.026938 -0.050000
v -0.034810 -0.020054 -0.050000
v -0.003707 -0.022260 -0.050000
v -0.005695 -0.026633 -0.050000
v -0.039582 -0.026938 0.050000
v -0.034810 -0.020054 0.050000
v -0.003707 -0.022260 0.050000
v -0.005695 -0.026633 0.050000
v -0.001608 -0.017800 0.050000
v 0.000603 -0.013253 0.050000
v -0.001608 -0.017800 -0.050000
v 0.000603 -0.013253 -0.050000
v -0.029849 -0.012943 -0.050000
v 0.002944 -0.008616 -0.050000
v -0.024698 -0.005604 -0.050000
v 0.005436 -0.003887 -0.050000
v 0.002944 -0.008616 0.050000
v -0.029849 -0.012943 0.050000
v -0.024698 -0.005604 0.050000
v 0.005436 -0.003887 0.050000
v 0.008078 0.000934 0.050000
v 0.010870 0.005847 0.050000
v -0.019359 0.001963 0.050000
v 0.008078 0.000934 -0.050000
v 0.010870 0.005847 -0.050000
v -0.019359 0.001963 -0.050000
v -0.013831 0.009757 -0.050000
v -0.008114 0.017779 -0.050000
v 0.016903 0.015949 -0.050000
v 0.013811 0.010852 -0.050000
v -0.013831 0.009757 0.050000
v -0.008114 0.017779 0.050000
v 0.016903 0.015949 0.050000
v 0.013811 0.010852 0.050000
v 0.020146 0.021138 0.050000
v 0.023538 0.026419 0.050000
v 0.020146 0.021138 -0.050000
v 0.023538 0.026419 -0.050000
v 0.027080 0.031792 -0.050000
v 0.030773 0.037257 -0.050000
v 0.027080 0.031792 0.050000
v 0.030773 0.037257 0.050000
v 0.034616 0.042814 0.050000
v 0.038608 0.048463 0.050000
v 0.034616 0.042814 -0.050000
v 0.038608 0.048463 -0.050000
v 0.187144 0.259760 -0.050000
v 0.129961 0.212340 -0.050000
v 0.129961 0.215129 -0.050000
v 0.129961 0.212340 0.050000
v 0.129961 0.215129 0.050000
v 0.187144 0.259760 0.050000
v -0.056231 0.215129 0.050000
v -0.060125 0.215096 0.050000
v -0.063902 0.214994 0.050000
v -0.067564 0.214824 0.050000
v -0.071108 0.214587 0.050000
v -0.074537 0.214282 0.050000
v -0.077849 0.213909 0.050000
v -0.081046 0.213468 0.050000
v -0.084126 0.212960 0.050000
v 0.189236 0.277194 0.050000
v -0.087089 0.212384 0.050000
v -0.089937 0.211740 0.050000
v -0.104349 0.277194 0.050000
v 0.189236 0.277194 -0.050000
v -0.084126 0.212960 -0.050000
v -0.087089 0.212384 -0.050000
v -0.089937 0.211740 -0.050000
v -0.104349 0.277194 -0.050000
v -0.105124 0.205909 -0.050000
v -0.107463 0.204485 -0.050000
v -0.109753 0.202926 -0.050000
v -0.111995 0.201231 -0.050000
v -0.092668 0.211028 -0.050000
v -0.114189 0.199400 -0.050000
v -0.095283 0.210248 -0.050000
v -0.167807 0.146092 -0.050000
v -0.116334 0.197434 -0.050000
v -0.097816 0.209367 -0.050000
v -0.100300 0.208350 -0.050000
v -0.102736 0.207197 -0.050000
v -0.102736 0.207197 0.050000
v -0.100300 0.208350 0.050000
v -0.105124 0.205909 0.050000
v -0.107463 0.204485 0.050000
v -0.109753 0.202926 0.050000
v -0.111995 0.201231 0.050000
v -0.114189 0.199400 0.050000
v -0.116334 0.197434 0.050000
v -0.167807 0.146092 0.050000
v -0.118431 0.195332 0.050000
v -0.120480 0.193095 0.050000
v -0.118431 0.195332 -0.050000
v -0.120480 0.193095 -0.050000
v -0.122480 0.190722 -0.050000
v -0.124460 0.188175 -0.050000
v -0.122480 0.190722 0.050000
v -0.124460 0.188175 0.050000
v -0.126451 0.185415 0.050000
v -0.128451 0.182441 0.050000
v -0.126451 0.185415 -0.050000
v -0.128451 0.182441 -0.050000
v -0.130461 0.179255 -0.050000
v -0.132480 0.175855 -0.050000
v -0.130461 0.179255 0.050000
v -0.132480 0.175855 0.050000
v -0.134509 0.172242 0.050000
v -0.136548 0.168417 0.050000
v -0.134509 0.172242 -0.050000
v -0.136548 0.168417 -0.050000
v -0.138596 0.164378 -0.050000
v -0.140654 0.160126 -0.050000
v -0.138596 0.164378 0.050000
v -0.140654 0.160126 0.050000
v -0.142722 0.155661 0.050000
v -0.144800 0.150983 0.050000
v -0.142722 0.155661 -0.050000
v -0.144800 0.150983 -0.050000
v -0.146887 0.146092 -0.050000
v -0.146887 0.146092 0.050000
v -0.097816 0.209367 0.050000
v -0.095283 0.210248 0.050000
v -0.092668 0.211028 0.050000
v -0.081046 0.213468 -0.050000
v -0.077849 0.213909 -0.050000
v -0.074537 0.214282 -0.050000
v -0.071108 0.214587 -0.050000
v -0.067564 0.214824 -0.050000
v -0.063902 0.214994 -0.050000
v -0.060125 0.215096 -0.050000
v -0.056231 0.215129 -0.050000
v -0.024095 -0.104809 0.050000
v -0.112808 -0.163694 0.050000
vn -0.0270 -0.9996 -0.0000
vn -0.0000 -0.0000 1.0000
vn 0.0291 -0.9996 -0.0000
vn -0.0000 -0.0000 -1.0000
vn 0.0904 -0.9959 -0.0000
vn -0.0828 -0.9966 -0.0000
vn -0.1408 -0.9900 -0.0000
vn 0.1555 -0.9878 -0.0000
vn 0.2238 -0.9746 -0.0000
vn 0.2947 -0.9556 -0.0000
vn -0.3220 -0.9467 -0.0000
vn -0.3825 -0.9240 -0.0000
vn 0.3668 -0.9303 -0.0000
vn 0.4390 -0.8985 -0.0000
vn 0.5098 -0.8603 -0.0000
vn -0.4989 -0.8666 -0.0000
vn -0.5534 -0.8329 -0.0000
vn 0.5777 -0.8163 -0.0000
vn 0.6414 -0.7672 -0.0000
vn 0.6998 -0.7143 -0.0000
vn 0.7522 -0.6589 -0.0000
vn -0.7745 -0.6326 -0.0000
vn -0.8296 -0.5584 -0.0000
vn -0.8751 -0.4839 -0.0000
vn 0.7971 -0.6039 -0.0000
vn 0.8360 -0.5487 -0.0000
vn 0.8707 -0.4917 -0.0000
vn 0.9009 -0.4341 -0.0000
vn -0.9399 -0.3416 -0.0000
vn -0.9611 -0.2761 -0.0000
vn 0.9265 -0.3764 -0.0000
vn 0.9476 -0.3194 -0.0000
vn 0.9645 -0.2639 -0.0000
vn 0.9776 -0.2103 -0.0000
vn -0.9941 -0.1084 -0.0000
vn -0.9981 -0.0619 -0.0000
vn -0.9998 -0.0196 -0.0000
vn 0.9873 -0.1589 -0.0000
vn 0.9939 -0.1101 -0.0000
vn 0.9979 -0.0640 -0.0000
vn -0.9993 0.0383 -0.0000
vn -0.9980 0.0630 -0.0000
vn -0.9999 0.0130 -0.0000
vn 0.9998 -0.0206 -0.0000
vn 1.0000 0.0067 -0.0000
vn 0.9998 0.0200 -0.0000
vn -0.9845 0.1751 -0.0000
vn -0.9807 0.1954 -0.0000
vn 0.9995 0.0323 -0.0000
vn 0.9990 0.0440 -0.0000
vn -0.9766 0.2151 -0.0000
vn -0.9723 0.2339 -0.0000
vn -0.9677 0.2520 -0.0000
vn -0.9614 0.2750 -0.0000
vn -0.9537 0.3009 -0.0000
vn -0.9461 0.3239 -0.0000
vn -0.9387 0.3446 -0.0000
vn -0.9317 0.3633 -0.0000
vn 0.9956 0.0936 -0.0000
vn 0.9948 0.1021 -0.0000
vn 0.9939 0.1102 -0.0000
vn -0.9249 0.3802 -0.0000
vn -0.9184 0.3955 -0.0000
vn -0.9123 0.4095 -0.0000
vn -0.9065 0.4223 -0.0000
vn 0.9931 0.1174 -0.0000
vn 0.9940 0.1090 -0.0000
vn 0.9950 0.1003 -0.0000
vn 0.9958 0.0913 -0.0000
vn 0.9966 0.0819 -0.0000
vn 0.9974 0.0722 -0.0000
vn -0.8906 0.4547 -0.0000
vn -0.8849 0.4657 -0.0000
vn 0.9981 0.0622 -0.0000
vn 0.9987 0.0518 -0.0000
vn 0.9992 0.0411 -0.0000
vn -0.8788 0.4773 -0.0000
vn -0.8731 0.4875 -0.0000
vn -0.8679 0.4968 -0.0000
vn -0.8631 0.5051 -0.0000
vn -0.8586 0.5126 -0.0000
vn -0.8545 0.5195 -0.0000
vn 0.9978 -0.0656 -0.0000
vn 0.9960 -0.0897 -0.0000
vn 0.9936 -0.1127 -0.0000
vn 0.9909 -0.1346 -0.0000
vn 0.9878 -0.1555 -0.0000
vn 0.9845 -0.1754 -0.0000
vn -0.8470 0.5316 -0.0000
vn -0.8437 0.5369 -0.0000
vn -0.8405 0.5418 -0.0000
vn 0.9772 -0.2123 -0.0000
vn 0.9809 -0.1943 -0.0000
vn 0.9733 -0.2295 -0.0000
vn 0.9693 -0.2458 -0.0000
vn 0.9643 -0.2648 -0.0000
vn 0.9582 -0.2860 -0.0000
vn 0.9521 -0.3057 -0.0000
vn 0.9460 -0.3242 -0.0000
vn 0.9398 -0.3416 -0.0000
vn 0.9338 -0.3579 -0.0000
vn -0.8276 0.5613 -0.0000
vn -0.8255 0.5644 -0.0000
vn 0.9218 -0.3876 -0.0000
vn 0.9277 -0.3732 -0.0000
vn -0.8236 0.5671 -0.0000
vn -0.8218 0.5697 -0.0000
vn 0.9160 -0.4011 -0.0000
vn 0.9103 -0.4138 -0.0000
vn 0.9048 -0.4259 -0.0000
vn 0.8994 -0.4372 -0.0000
vn 0.8926 -0.4508 -0.0000
vn 0.8847 -0.4661 -0.0000
vn 0.8770 -0.4805 -0.0000
vn 0.8694 -0.4941 -0.0000
vn -0.8171 0.5765 -0.0000
vn -0.8157 0.5785 -0.0000
vn -0.8144 0.5804 -0.0000
vn 0.8621 -0.5067 -0.0000
vn 0.8550 -0.5187 -0.0000
vn 0.8481 -0.5299 -0.0000
vn 0.8414 -0.5405 -0.0000
vn 0.8349 -0.5504 -0.0000
vn 0.8286 -0.5599 -0.0000
vn 0.8225 -0.5688 -0.0000
vn 0.8166 -0.5772 -0.0000
vn 0.8181 -0.5751 -0.0000
vn -0.8155 0.5787 -0.0000
vn -1.0000 -0.0000 -0.0000
vn -0.0000 0.0003 1.0000
vn 0.9929 -0.1191 -0.0000
vn -0.0000 1.0000 -0.0000
vn -0.0000 0.0001 -1.0000
vn -0.9001 0.4357 -0.0000
vn 0.4277 -0.9039 -0.0000
vn 0.4748 -0.8801 -0.0000
vn 0.5199 -0.8542 -0.0000
vn 0.5628 -0.8266 -0.0000
vn 0.6030 -0.7977 -0.0000
vn 0.6407 -0.7678 -0.0000
vn 0.6757 -0.7372 -0.0000
vn -0.0000 0.0004 1.0000
vn 0.7079 -0.7063 -0.0000
vn 0.7375 -0.6753 -0.0000
vn -0.0000 0.0005 -1.0000
vn 0.7646 -0.6445 -0.0000
vn 0.7894 -0.6139 -0.0000
vn 0.8111 -0.5849 -0.0000
vn 0.8298 -0.5581 -0.0000
vn 0.8458 -0.5334 -0.0000
vn 0.8598 -0.5107 -0.0000
vn 0.8719 -0.4897 -0.0000
vn 0.8825 -0.4703 -0.0000
vn 0.8918 -0.4523 -0.0000
vn 0.9001 -0.4357 -0.0000
vn 0.9074 -0.4202 -0.0000
vn 0.9139 -0.4059 -0.0000
vn 0.9198 -0.3925 -0.0000
vn -0.0000 -1.0000 -0.0000
vn 0.3788 -0.9255 -0.0000
vn 0.3287 -0.9444 -0.0000
vn 0.2857 -0.9583 -0.0000
vn 0.2522 -0.9677 -0.0000
vn 0.2206 -0.9754 -0.0000
vn 0.1909 -0.9816 -0.0000
vn 0.1629 -0.9866 -0.0000
vn 0.1366 -0.9906 -0.0000
vn 0.1119 -0.9937 -0.0000
vn 0.0886 -0.9961 -0.0000
vn 0.0668 -0.9978 -0.0000
vn 0.0462 -0.9989 -0.0000
vn 0.0269 -0.9996 -0.0000
vn 0.0087 -1.0000 -0.0000
vn -0.8186 0.5744 -0.0000
vn -0.8201 0.5722 -0.0000
vn -0.8298 0.5580 -0.0000
vn -0.8322 0.5544 -0.0000
vn -0.8348 0.5505 -0.0000
vn -0.8376 0.5463 -0.0000
vn -0.8506 0.5258 -0.0000
vn 0.9992 -0.0402 -0.0000
vn 0.9999 -0.0141 -0.0000
vn 1.0000 0.0062 -0.0000
vn 0.9998 0.0183 -0.0000
vn 0.9996 0.0299 -0.0000
vn -0.8956 0.4448 -0.0000
vn -0.9009 0.4340 -0.0000
vn 0.9930 0.1179 -0.0000
vn 0.9964 0.0847 -0.0000
vn 0.9972 0.0753 -0.0000
vn 0.9979 0.0654 -0.0000
vn 0.9985 0.0549 -0.0000
vn -0.9880 0.1542 -0.0000
vn -0.9912 0.1325 -0.0000
vn -0.9939 0.1100 -0.0000
vn -0.9962 0.0869 -0.0000
vn -0.9872 -0.1595 -0.0000
vn -0.9765 -0.2154 -0.0000
vn -0.9116 -0.4112 -0.0000
vn -0.7101 -0.7041 -0.0000
vn -0.6524 -0.7579 -0.0000
vn -0.6047 -0.7964 -0.0000
vn -0.4417 -0.8972 -0.0000
vn -0.2610 -0.9653 -0.0000
vn -0.2004 -0.9797 -0.0000
vn -0.3824 -0.9240 -0.0000
vn 0.8707 -0.4918 -0.0000
vn 0.8297 -0.5581 -0.0000
vt 0.005025 0.000000
vt 0.000000 0.000000
vt 1.000000 0.000000
vt 0.994975 0.000000
vt 0.010050 0.000000
vt 0.015075 0.000000
vt 0.989950 0.000000
vt 0.020101 0.000000
vt 0.984925 0.000000
vt 0.979900 0.000000
vt 0.030151 0.000000
vt 0.025126 0.000000
vt 0.035176 0.000000
vt 0.974874 0.000000
vt 0.040201 0.000000
vt 0.969849 0.000000
vt 0.964824 0.000000
vt 0.045226 0.000000
vt 0.050251 0.000000
vt 0.055276 0.000000
vt 0.959799 0.000000
vt 0.060302 0.000000
vt 0.954774 0.000000
vt 0.065327 0.000000
vt 0.949749 0.000000
vt 0.944724 0.000000
vt 0.070352 0.000000
vt 0.075377 0.000000
vt 0.080402 0.000000
vt 0.939699 0.000000
vt 0.934673 0.000000
vt 0.085427 0.000000
vt 0.929648 0.000000
vt 0.924623 0.000000
vt 0.090452 0.000000
vt 0.095477 0.000000
vt 0.919598 0.000000
vt 0.100503 0.000000
vt 0.914573 0.000000
vt 0.105528 0.000000
vt 0.909548 0.000000
vt 0.904523 0.000000
vt 0.110553 0.000000
vt 0.115578 0.000000
vt 0.120603 0.000000
vt 0.899498 0.000000
vt 0.125628 0.000000
vt 0.894472 0.000000
vt 0.135678 0.000000
vt 0.140704 0.000000
vt 0.130653 0.000000
vt 0.889447 0.000000
vt 0.145729 0.000000
vt 0.150754 0.000000
vt 0.884422 0.000000
vt 0.155779 0.000000
vt 0.879397 0.000000
vt 0.874372 0.000000
vt 0.160804 0.000000
vt 0.165829 0.000000
vt 0.869347 0.000000
vt 0.170854 0.000000
vt 0.864322 0.000000
vt 0.175879 0.000000
vt 0.859297 0.000000
vt 0.180905 0.000000
vt 0.854271 0.000000
vt 0.185930 0.000000
vt 0.190955 0.000000
vt 0.849246 0.000000
vt 0.195980 0.000000
vt 0.844221 0.000000
vt 0.201005 0.000000
vt 0.839196 0.000000
vt 0.206030 0.000000
vt 0.834171 0.000000
vt 0.211055 0.000000
vt 0.829146 0.000000
vt 0.216080 0.000000
vt 0.824121 0.000000
vt 0.221106 0.000000
vt 0.819095 0.000000
vt 0.226131 0.000000
vt 0.814070 0.000000
vt 0.809045 0.000000
vt 0.231156 0.000000
vt 0.804020 0.000000
vt 0.236181 0.000000
vt 0.798995 0.000000
vt 0.793970 0.000000
vt 0.241206 0.000000
vt 0.246231 0.000000
vt 0.788945 0.000000
vt 0.783920 0.000000
vt 0.251256 0.000000
vt 0.778894 0.000000
vt 0.256281 0.000000
vt 0.773869 0.000000
vt 0.768844 0.000000
vt 0.261307 0.000000
vt 0.763819 0.000000
vt 0.758794 0.000000
vt 0.266332 0.000000
vt 0.753769 0.000000
vt 0.271357 0.000000
vt 0.748744 0.000000
vt 0.276382 0.000000
vt 0.743719 0.000000
vt 0.738693 0.000000
vt 0.281407 0.000000
vt 0.733668 0.000000
vt 0.728643 0.000000
vt 0.723618 0.000000
vt 0.286432 0.000000
vt 0.291457 0.000000
vt 0.296482 0.000000
vt 0.713568 0.000000
vt 0.718593 0.000000
vt 0.708543 0.000000
vt 0.301508 0.000000
vt 0.703518 0.000000
vt 0.698492 0.000000
vt 0.306533 0.000000
vt 0.693467 0.000000
vt 0.311558 0.000000
vt 0.688442 0.000000
vt 0.683417 0.000000
vt 0.316583 0.000000
vt 0.678392 0.000000
vt 0.673367 0.000000
vt 0.321608 0.000000
vt 0.326633 0.000000
vt 0.668342 0.000000
vt 0.663317 0.000000
vt 0.331658 0.000000
vt 0.658291 0.000000
vt 0.336683 0.000000
vt 0.653266 0.000000
vt 0.648241 0.000000
vt 0.643216 0.000000
vt 0.341709 0.000000
vt 0.638191 0.000000
vt 0.346734 0.000000
vt 0.633166 0.000000
vt 0.628141 0.000000
vt 0.623116 0.000000
vt 0.351759 0.000000
vt 0.356784 0.000000
vt 0.361809 0.000000
vt 0.613065 0.000000
vt 0.618090 0.000000
vt 0.608040 0.000000
vt 0.603015 0.000000
vt 0.597990 0.000000
vt 0.592965 0.000000
vt 0.587940 0.000000
vt 0.582915 0.000000
vt 0.577889 0.000000
vt 0.366834 0.000000
vt 0.371859 0.000000
vt 0.376884 0.000000
vt 0.381910 0.000000
vt 0.386935 0.000000
vt 0.391960 0.000000
vt 0.396985 0.000000
vt 0.402010 0.000000
vt 0.407035 0.000000
vt 0.412060 0.000000
vt 0.417085 0.000000
vt 0.572864 0.000000
vt 0.422111 0.000000
vt 0.427136 0.000000
vt 0.567839 0.000000
vt 0.462312 0.000000
vt 0.457286 0.000000
vt 0.452261 0.000000
vt 0.467337 0.000000
vt 0.472362 0.000000
vt 0.432161 0.000000
vt 0.477387 0.000000
vt 0.437186 0.000000
vt 0.482412 0.000000
vt 0.442211 0.000000
vt 0.562814 0.000000
vt 0.447236 0.000000
vt 0.487437 0.000000
vt 0.492462 0.000000
vt 0.497487 0.000000
vt 0.502513 0.000000
vt 0.507538 0.000000
vt 0.512563 0.000000
vt 0.517588 0.000000
vt 0.522613 0.000000
vt 0.527638 0.000000
vt 0.532663 0.000000
vt 0.537688 0.000000
vt 0.542714 0.000000
vt 0.547739 0.000000
vt 0.552764 0.000000
vt 0.557789 0.000000
s 0
f 2/1/1 4/2/1 1/2/1
f 2/1/2 1/2/2 3/3/2
f 1/2/3 6/3/3 3/3/3
f 5/1/4 6/3/4 4/2/4
f 3/3/5 7/4/5 12/4/5
f 8/5/4 7/4/4 6/3/4
f 5/1/4 8/5/4 6/3/4
f 10/5/6 5/1/6 2/1/6
f 11/6/7 8/5/7 10/5/7
f 8/5/4 9/6/4 7/4/4
f 2/1/2 3/3/2 10/5/2
f 10/5/2 3/3/2 12/4/2
f 10/5/2 12/4/2 11/6/2
f 11/6/2 12/4/2 13/7/2
f 12/4/8 16/7/8 13/7/8
f 11/6/2 13/7/2 14/8/2
f 14/8/2 13/7/2 15/9/2
f 13/7/9 18/9/9 15/9/9
f 9/6/4 16/7/4 7/4/4
f 9/6/4 17/8/4 16/7/4
f 17/8/4 18/9/4 16/7/4
f 15/9/10 19/10/10 26/10/10
f 21/11/4 19/10/4 18/9/4
f 17/8/4 20/12/4 18/9/4
f 20/12/4 21/11/4 18/9/4
f 23/11/11 20/12/11 24/12/11
f 25/13/12 21/11/12 23/11/12
f 21/11/4 22/13/4 19/10/4
f 24/12/2 15/9/2 23/11/2
f 23/11/2 15/9/2 26/10/2
f 23/11/2 26/10/2 25/13/2
f 25/13/2 26/10/2 27/14/2
f 26/10/13 30/14/13 27/14/13
f 25/13/2 27/14/2 28/15/2
f 28/15/2 27/14/2 29/16/2
f 27/14/14 32/16/14 29/16/14
f 22/13/4 30/14/4 19/10/4
f 22/13/4 31/15/4 30/14/4
f 31/15/4 32/16/4 30/14/4
f 29/16/15 33/17/15 38/17/15
f 34/18/4 33/17/4 32/16/4
f 31/15/4 34/18/4 32/16/4
f 36/18/16 31/15/16 28/15/16
f 37/19/17 34/18/17 36/18/17
f 34/18/4 35/19/4 33/17/4
f 28/15/2 29/16/2 36/18/2
f 36/18/2 29/16/2 38/17/2
f 36/18/2 38/17/2 37/19/2
f 37/19/2 38/17/2 39/20/2
f 39/20/2 38/17/2 40/21/2
f 40/21/18 33/17/18 43/21/18
f 39/20/2 40/21/2 41/22/2
f 41/22/2 40/21/2 42/23/2
f 40/21/19 46/23/19 42/23/19
f 44/20/4 43/21/4 33/17/4
f 44/20/4 45/22/4 43/21/4
f 45/22/4 46/23/4 43/21/4
f 45/22/4 47/24/4 46/23/4
f 47/24/4 48/25/4 46/23/4
f 42/23/20 48/25/20 51/25/20
f 51/25/21 49/26/21 52/26/21
f 50/27/4 49/26/4 48/25/4
f 47/24/4 50/27/4 48/25/4
f 53/24/2 42/23/2 51/25/2
f 54/27/2 51/25/2 52/26/2
f 53/24/2 51/25/2 54/27/2
f 54/27/22 47/24/22 53/24/22
f 55/28/23 50/27/23 54/27/23
f 54/27/2 52/26/2 55/28/2
f 56/29/24 58/28/24 55/28/24
f 55/28/2 57/30/2 56/29/2
f 55/28/2 52/26/2 57/30/2
f 50/27/4 58/28/4 49/26/4
f 58/28/4 59/29/4 60/30/4
f 58/28/4 60/30/4 49/26/4
f 52/26/25 60/30/25 57/30/25
f 59/29/4 61/31/4 60/30/4
f 57/30/26 61/31/26 64/31/26
f 59/29/4 62/32/4 61/31/4
f 62/32/4 63/33/4 61/31/4
f 64/31/27 63/33/27 66/33/27
f 56/29/2 57/30/2 64/31/2
f 56/29/2 64/31/2 65/32/2
f 65/32/2 64/31/2 66/33/2
f 66/33/28 72/34/28 67/34/28
f 68/35/2 66/33/2 67/34/2
f 65/32/2 66/33/2 68/35/2
f 68/35/29 62/32/29 65/32/29
f 69/36/30 70/35/30 68/35/30
f 68/35/2 67/34/2 69/36/2
f 62/32/4 70/35/4 63/33/4
f 70/35/4 72/34/4 63/33/4
f 70/35/4 71/36/4 72/34/4
f 71/36/4 73/37/4 72/34/4
f 67/34/31 73/37/31 76/37/31
f 71/36/4 74/38/4 73/37/4
f 74/38/4 75/39/4 73/37/4
f 76/37/32 75/39/32 78/39/32
f 69/36/2 67/34/2 76/37/2
f 69/36/2 76/37/2 77/38/2
f 77/38/2 76/37/2 78/39/2
f 77/38/2 78/39/2 79/40/2
f 79/40/2 78/39/2 80/41/2
f 78/39/33 83/41/33 80/41/33
f 80/41/34 84/42/34 81/42/34
f 82/43/2 80/41/2 81/42/2
f 79/40/2 80/41/2 82/43/2
f 85/40/4 83/41/4 75/39/4
f 86/43/4 84/42/4 83/41/4
f 85/40/4 86/43/4 83/41/4
f 82/43/35 85/40/35 79/40/35
f 90/44/36 86/43/36 82/43/36
f 86/43/4 87/44/4 84/42/4
f 91/45/37 87/44/37 90/44/37
f 87/44/4 88/45/4 89/46/4
f 87/44/4 89/46/4 84/42/4
f 82/43/2 81/42/2 90/44/2
f 90/44/2 92/46/2 91/45/2
f 90/44/2 81/42/2 92/46/2
f 81/42/38 89/46/38 92/46/38
f 91/45/2 92/46/2 93/47/2
f 93/47/2 92/46/2 94/48/2
f 92/46/39 99/48/39 94/48/39
f 95/49/2 94/48/2 96/50/2
f 98/51/2 94/48/2 95/49/2
f 96/50/2 94/48/2 97/52/2
f 94/48/40 102/52/40 97/52/40
f 93/47/2 94/48/2 98/51/2
f 103/47/4 99/48/4 89/46/4
f 100/49/4 101/50/4 99/48/4
f 104/51/4 100/49/4 99/48/4
f 101/50/4 102/52/4 99/48/4
f 103/47/4 104/51/4 99/48/4
f 98/51/41 103/47/41 93/47/41
f 95/49/42 104/51/42 98/51/42
f 88/45/4 103/47/4 89/46/4
f 93/47/43 88/45/43 91/45/43
f 101/50/4 105/53/4 102/52/4
f 105/53/4 106/54/4 102/52/4
f 106/54/4 107/55/4 102/52/4
f 97/52/44 107/55/44 110/55/44
f 106/54/4 108/56/4 107/55/4
f 108/56/4 109/57/4 107/55/4
f 110/55/45 109/57/45 113/57/45
f 111/54/2 97/52/2 110/55/2
f 111/54/2 110/55/2 112/56/2
f 112/56/2 110/55/2 113/57/2
f 113/57/46 119/58/46 114/58/46
f 115/59/2 113/57/2 114/58/2
f 112/56/2 113/57/2 115/59/2
f 115/59/47 108/56/47 112/56/47
f 116/60/48 117/59/48 115/59/48
f 115/59/2 114/58/2 116/60/2
f 108/56/4 117/59/4 109/57/4
f 117/59/4 119/58/4 109/57/4
f 117/59/4 118/60/4 119/58/4
f 118/60/4 120/61/4 119/58/4
f 114/58/49 120/61/49 123/61/49
f 118/60/4 122/62/4 120/61/4
f 123/61/50 121/63/50 124/63/50
f 122/62/4 121/63/4 120/61/4
f 116/60/2 114/58/2 123/61/2
f 116/60/2 123/61/2 125/62/2
f 125/62/2 123/61/2 124/63/2
f 125/62/51 118/60/51 116/60/51
f 125/62/2 124/63/2 126/64/2
f 126/64/52 122/62/52 125/62/52
f 126/64/2 124/63/2 127/65/2
f 126/64/2 127/65/2 128/66/2
f 128/66/53 129/64/53 126/64/53
f 129/64/4 130/65/4 121/63/4
f 122/62/4 129/64/4 121/63/4
f 129/64/4 131/66/4 130/65/4
f 131/66/4 132/67/4 130/65/4
f 131/66/4 133/68/4 132/67/4
f 135/68/54 131/66/54 128/66/54
f 133/68/4 134/69/4 132/67/4
f 137/69/55 133/68/55 135/68/55
f 135/68/2 136/67/2 137/69/2
f 128/66/2 136/67/2 135/68/2
f 137/69/2 136/67/2 138/70/2
f 137/69/2 138/70/2 139/71/2
f 139/71/56 134/69/56 137/69/56
f 139/71/2 138/70/2 140/72/2
f 139/71/2 140/72/2 141/73/2
f 141/73/57 142/71/57 139/71/57
f 142/71/4 144/72/4 143/70/4
f 134/69/4 142/71/4 143/70/4
f 142/71/4 145/73/4 144/72/4
f 145/73/4 147/74/4 144/72/4
f 150/75/58 145/73/58 141/73/58
f 145/73/4 146/75/4 147/74/4
f 140/72/59 147/74/59 149/74/59
f 146/75/4 148/76/4 147/74/4
f 149/74/60 148/76/60 151/76/60
f 141/73/2 140/72/2 149/74/2
f 141/73/2 149/74/2 150/75/2
f 150/75/2 149/74/2 151/76/2
f 150/75/2 151/76/2 153/77/2
f 151/76/61 156/78/61 152/78/61
f 153/77/2 151/76/2 152/78/2
f 153/77/62 146/75/62 150/75/62
f 153/77/2 152/78/2 154/79/2
f 154/79/63 155/77/63 153/77/63
f 146/75/4 155/77/4 148/76/4
f 155/77/4 156/78/4 148/76/4
f 155/77/4 157/79/4 156/78/4
f 157/79/4 158/80/4 156/78/4
f 157/79/4 159/81/4 158/80/4
f 162/81/64 157/79/64 154/79/64
f 159/81/4 161/82/4 158/80/4
f 164/83/65 159/81/65 162/81/65
f 159/81/4 160/83/4 161/82/4
f 154/79/2 163/80/2 162/81/2
f 162/81/2 163/80/2 165/82/2
f 162/81/2 165/82/2 164/83/2
f 163/80/66 161/82/66 165/82/66
f 164/83/2 165/82/2 166/84/2
f 165/82/67 168/84/67 166/84/67
f 164/83/2 166/84/2 167/85/2
f 166/84/68 169/85/68 167/85/68
f 160/83/4 168/84/4 161/82/4
f 160/83/4 169/85/4 168/84/4
f 160/83/4 170/86/4 169/85/4
f 170/86/4 171/87/4 169/85/4
f 167/85/69 171/87/69 174/87/69
f 170/86/4 172/88/4 171/87/4
f 172/88/4 173/89/4 171/87/4
f 174/87/70 173/89/70 177/89/70
f 175/86/2 167/85/2 174/87/2
f 175/86/2 174/87/2 176/88/2
f 176/88/2 174/87/2 177/89/2
f 177/89/71 183/90/71 178/90/71
f 179/91/2 177/89/2 178/90/2
f 176/88/2 177/89/2 179/91/2
f 179/91/72 172/88/72 176/88/72
f 180/92/73 181/91/73 179/91/73
f 179/91/2 178/90/2 180/92/2
f 172/88/4 181/91/4 173/89/4
f 181/91/4 183/90/4 173/89/4
f 181/91/4 182/92/4 183/90/4
f 182/92/4 184/93/4 183/90/4
f 178/90/74 184/93/74 186/93/74
f 182/92/4 185/94/4 184/93/4
f 186/93/75 185/94/75 187/94/75
f 180/92/2 178/90/2 186/93/2
f 180/92/2 186/93/2 187/94/2
f 180/92/2 187/94/2 189/95/2
f 187/94/76 192/96/76 188/96/76
f 189/95/2 187/94/2 188/96/2
f 189/95/77 182/92/77 180/92/77
f 189/95/2 188/96/2 190/97/2
f 190/97/78 191/95/78 189/95/78
f 182/92/4 191/95/4 185/94/4
f 191/95/4 192/96/4 185/94/4
f 191/95/4 193/97/4 192/96/4
f 193/97/4 194/98/4 192/96/4
f 193/97/4 195/99/4 194/98/4
f 193/97/4 196/100/4 195/99/4
f 200/100/79 193/97/79 190/97/79
f 196/100/4 197/101/4 195/99/4
f 196/100/4 198/102/4 197/101/4
f 196/100/4 199/103/4 198/102/4
f 204/103/80 196/100/80 200/100/80
f 200/100/2 201/99/2 202/101/2
f 190/97/2 201/99/2 200/100/2
f 200/100/2 202/101/2 203/102/2
f 200/100/2 203/102/2 204/103/2
f 204/103/2 203/102/2 205/104/2
f 204/103/2 205/104/2 206/105/2
f 206/105/81 199/103/81 204/103/81
f 206/105/2 205/104/2 209/106/2
f 207/107/82 210/105/82 206/105/82
f 206/105/2 208/108/2 207/107/2
f 206/105/2 209/106/2 208/108/2
f 199/103/4 210/105/4 211/104/4
f 210/105/4 214/106/4 211/104/4
f 210/105/4 212/107/4 213/108/4
f 210/105/4 213/108/4 214/106/4
f 205/104/83 214/106/83 209/106/83
f 209/106/84 213/108/84 208/108/84
f 208/108/85 215/109/85 218/109/85
f 212/107/4 215/109/4 213/108/4
f 212/107/4 216/110/4 215/109/4
f 216/110/4 217/111/4 215/109/4
f 218/109/86 217/111/86 220/111/86
f 207/107/2 208/108/2 218/109/2
f 207/107/2 218/109/2 219/110/2
f 219/110/2 218/109/2 220/111/2
f 219/110/2 220/111/2 221/112/2
f 220/111/87 224/112/87 221/112/87
f 221/112/88 225/113/88 222/113/88
f 223/114/2 221/112/2 222/113/2
f 219/110/2 221/112/2 223/114/2
f 216/110/4 224/112/4 217/111/4
f 226/114/4 225/113/4 224/112/4
f 216/110/4 226/114/4 224/112/4
f 223/114/89 216/110/89 219/110/89
f 231/115/90 226/114/90 223/114/90
f 226/114/4 227/115/4 225/113/4
f 232/116/91 227/115/91 231/115/91
f 227/115/4 228/116/4 229/117/4
f 227/115/4 229/117/4 230/118/4
f 227/115/4 230/118/4 225/113/4
f 223/114/2 222/113/2 231/115/2
f 231/115/2 233/117/2 232/116/2
f 231/115/2 234/118/2 233/117/2
f 231/115/2 222/113/2 234/118/2
f 234/118/92 229/117/92 233/117/92
f 222/113/93 230/118/93 234/118/93
f 232/116/2 233/117/2 235/119/2
f 233/117/94 238/119/94 235/119/94
f 232/116/2 235/119/2 236/120/2
f 236/120/2 235/119/2 237/121/2
f 235/119/95 240/121/95 237/121/95
f 228/116/4 238/119/4 229/117/4
f 228/116/4 239/120/4 238/119/4
f 239/120/4 240/121/4 238/119/4
f 237/121/96 241/122/96 244/122/96
f 239/120/4 241/122/4 240/121/4
f 239/120/4 242/123/4 241/122/4
f 242/123/4 243/124/4 241/122/4
f 246/124/97 241/122/97 243/124/97
f 236/120/2 237/121/2 244/122/2
f 236/120/2 244/122/2 245/123/2
f 245/123/2 244/122/2 246/124/2
f 245/123/2 246/124/2 247/125/2
f 247/125/2 246/124/2 248/126/2
f 246/124/98 250/126/98 248/126/98
f 247/125/2 248/126/2 249/127/2
f 248/126/99 252/127/99 249/127/99
f 251/125/4 250/126/4 243/124/4
f 251/125/4 252/127/4 250/126/4
f 251/125/4 253/128/4 252/127/4
f 253/128/4 254/129/4 252/127/4
f 257/129/100 252/127/100 254/129/100
f 257/129/101 255/130/101 258/130/101
f 256/131/4 255/130/4 254/129/4
f 253/128/4 256/131/4 254/129/4
f 259/128/2 249/127/2 257/129/2
f 260/131/2 257/129/2 258/130/2
f 259/128/2 257/129/2 260/131/2
f 260/131/102 253/128/102 259/128/102
f 261/132/103 256/131/103 260/131/103
f 260/131/2 262/133/2 261/132/2
f 260/131/2 258/130/2 262/133/2
f 262/133/104 265/134/104 263/134/104
f 261/132/2 262/133/2 263/134/2
f 258/130/105 264/133/105 262/133/105
f 256/131/4 264/133/4 255/130/4
f 256/131/4 266/132/4 264/133/4
f 266/132/4 265/134/4 264/133/4
f 266/132/4 267/135/4 265/134/4
f 271/135/106 266/132/106 261/132/106
f 267/135/4 270/136/4 265/134/4
f 272/137/107 267/135/107 271/135/107
f 267/135/4 268/137/4 269/138/4
f 267/135/4 269/138/4 270/136/4
f 261/132/2 263/134/2 271/135/2
f 271/135/2 263/134/2 274/136/2
f 271/135/2 273/138/2 272/137/2
f 271/135/2 274/136/2 273/138/2
f 263/134/108 270/136/108 274/136/108
f 274/136/109 269/138/109 273/138/109
f 272/137/2 273/138/2 275/139/2
f 273/138/110 277/139/110 275/139/110
f 272/137/2 275/139/2 276/140/2
f 275/139/111 278/140/111 276/140/111
f 268/137/4 277/139/4 269/138/4
f 268/137/4 278/140/4 277/139/4
f 268/137/4 279/141/4 278/140/4
f 279/141/4 280/142/4 278/140/4
f 276/140/112 280/142/112 283/142/112
f 279/141/4 281/143/4 280/142/4
f 281/143/4 282/144/4 280/142/4
f 283/142/113 282/144/113 286/144/113
f 284/141/2 276/140/2 283/142/2
f 284/141/2 283/142/2 285/143/2
f 285/143/2 283/142/2 286/144/2
f 285/143/2 286/144/2 287/145/2
f 287/145/114 282/144/114 290/145/114
f 287/145/115 291/146/115 288/146/115
f 289/147/2 287/145/2 288/146/2
f 285/143/2 287/145/2 289/147/2
f 281/143/4 290/145/4 282/144/4
f 292/147/4 291/146/4 290/145/4
f 281/143/4 292/147/4 290/145/4
f 289/147/116 281/143/116 285/143/116
f 297/148/117 292/147/117 289/147/117
f 292/147/4 293/148/4 291/146/4
f 298/149/118 293/148/118 297/148/118
f 293/148/4 294/149/4 295/150/4
f 293/148/4 295/150/4 296/151/4
f 293/148/4 296/151/4 291/146/4
f 289/147/2 288/146/2 297/148/2
f 297/148/2 299/150/2 298/149/2
f 297/148/2 300/151/2 299/150/2
f 297/148/2 288/146/2 300/151/2
f 300/151/119 291/146/119 296/151/119
f 299/150/120 296/151/120 295/150/120
f 298/149/2 299/150/2 301/152/2
f 301/152/121 295/150/121 303/152/121
f 298/149/2 301/152/2 302/153/2
f 301/152/122 304/153/122 302/153/122
f 294/149/4 303/152/4 295/150/4
f 294/149/4 304/153/4 303/152/4
f 302/153/123 305/154/123 307/154/123
f 294/149/4 305/154/4 304/153/4
f 307/154/124 306/155/124 308/155/124
f 294/149/4 306/155/4 305/154/4
f 298/149/2 302/153/2 307/154/2
f 298/149/2 307/154/2 308/155/2
f 308/155/125 311/156/125 309/156/125
f 298/149/2 308/155/2 309/156/2
f 309/156/126 312/157/126 310/157/126
f 298/149/2 309/156/2 310/157/2
f 294/149/4 311/156/4 306/155/4
f 294/149/4 312/157/4 311/156/4
f 310/157/127 313/158/127 318/158/127
f 314/159/4 313/158/4 312/157/4
f 294/149/4 314/159/4 312/157/4
f 298/149/128 314/159/128 294/149/128
f 316/159/129 315/160/129 314/159/129
f 315/160/4 313/158/4 314/159/4
f 298/149/2 310/157/2 316/159/2
f 316/159/2 310/157/2 318/158/2
f 317/160/2 316/159/2 318/158/2
f 319/161/2 317/160/2 318/158/2
f 320/162/2 319/161/2 318/158/2
f 321/163/2 320/162/2 318/158/2
f 322/164/2 321/163/2 318/158/2
f 323/165/2 322/164/2 318/158/2
f 324/166/2 323/165/2 318/158/2
f 325/167/2 324/166/2 318/158/2
f 326/168/2 325/167/2 318/158/2
f 327/169/130 326/168/130 318/158/130
f 327/169/2 318/158/2 328/170/2
f 318/158/131 332/170/131 328/170/131
f 329/171/2 327/169/2 328/170/2
f 330/172/2 329/171/2 328/170/2
f 330/172/2 328/170/2 331/173/2
f 328/170/132 336/173/132 331/173/132
f 333/169/4 332/170/4 313/158/4
f 334/171/133 332/170/133 333/169/133
f 335/172/4 332/170/4 334/171/4
f 335/172/4 336/173/4 332/170/4
f 338/174/4 336/173/4 337/175/4
f 337/175/4 336/173/4 348/176/4
f 339/177/4 336/173/4 338/174/4
f 340/178/4 336/173/4 339/177/4
f 341/179/4 336/173/4 335/172/4
f 342/180/4 336/173/4 340/178/4
f 343/181/4 336/173/4 341/179/4
f 345/182/4 336/173/4 342/180/4
f 346/183/4 336/173/4 343/181/4
f 331/173/134 344/184/134 357/184/134
f 344/184/4 336/173/4 345/182/4
f 347/185/4 336/173/4 346/183/4
f 348/176/4 336/173/4 347/185/4
f 349/176/135 347/185/135 350/185/135
f 351/175/136 348/176/136 349/176/136
f 349/176/2 350/185/2 331/173/2
f 351/175/2 349/176/2 331/173/2
f 352/174/2 351/175/2 331/173/2
f 352/174/137 337/175/137 351/175/137
f 353/177/2 352/174/2 331/173/2
f 353/177/138 338/174/138 352/174/138
f 354/178/2 353/177/2 331/173/2
f 354/178/139 339/177/139 353/177/139
f 355/180/2 354/178/2 331/173/2
f 355/180/140 340/178/140 354/178/140
f 356/182/2 355/180/2 331/173/2
f 356/182/141 342/180/141 355/180/141
f 357/184/2 356/182/2 331/173/2
f 357/184/142 358/186/142 356/182/142
f 358/186/143 345/182/143 356/182/143
f 357/184/2 359/187/2 358/186/2
f 359/187/144 360/186/144 358/186/144
f 344/184/145 345/182/145 360/186/145
f 344/184/4 360/186/4 361/187/4
f 344/184/4 361/187/4 362/188/4
f 364/188/146 361/187/146 359/187/146
f 344/184/4 362/188/4 363/189/4
f 365/189/147 362/188/147 364/188/147
f 357/184/2 364/188/2 359/187/2
f 357/184/2 365/189/2 364/188/2
f 357/184/2 366/190/2 365/189/2
f 366/190/148 363/189/148 365/189/148
f 357/184/2 367/191/2 366/190/2
f 367/191/149 368/190/149 366/190/149
f 344/184/4 363/189/4 368/190/4
f 344/184/4 368/190/4 369/191/4
f 344/184/4 369/191/4 370/192/4
f 372/192/150 369/191/150 367/191/150
f 344/184/4 370/192/4 371/193/4
f 373/193/151 370/192/151 372/192/151
f 357/184/2 372/192/2 367/191/2
f 357/184/2 373/193/2 372/192/2
f 357/184/2 374/194/2 373/193/2
f 374/194/152 371/193/152 373/193/152
f 357/184/2 375/195/2 374/194/2
f 375/195/153 376/194/153 374/194/153
f 344/184/4 371/193/4 376/194/4
f 344/184/4 376/194/4 377/195/4
f 344/184/4 377/195/4 378/196/4
f 380/196/154 377/195/154 375/195/154
f 344/184/4 378/196/4 379/197/4
f 381/197/155 378/196/155 380/196/155
f 357/184/2 380/196/2 375/195/2
f 357/184/2 381/197/2 380/196/2
f 357/184/2 382/198/2 381/197/2
f 382/198/156 379/197/156 381/197/156
f 357/184/2 383/199/2 382/198/2
f 383/199/157 384/198/157 382/198/157
f 344/184/4 379/197/4 384/198/4
f 344/184/4 384/198/4 385/199/4
f 344/184/4 385/199/4 386/200/4
f 387/200/158 385/199/158 383/199/158
f 357/184/159 386/200/159 387/200/159
f 357/184/2 387/200/2 383/199/2
f 350/185/2 388/183/2 331/173/2
f 350/185/160 346/183/160 388/183/160
f 388/183/2 389/181/2 331/173/2
f 388/183/161 343/181/161 389/181/161
f 389/181/2 390/179/2 331/173/2
f 389/181/162 341/179/162 390/179/162
f 390/179/2 330/172/2 331/173/2
f 390/179/163 335/172/163 330/172/163
f 330/172/164 334/171/164 329/171/164
f 329/171/165 333/169/165 327/169/165
f 327/169/166 391/168/166 326/168/166
f 333/169/4 313/158/4 391/168/4
f 326/168/167 392/167/167 325/167/167
f 391/168/4 313/158/4 392/167/4
f 325/167/168 393/166/168 324/166/168
f 392/167/4 313/158/4 393/166/4
f 324/166/169 394/165/169 323/165/169
f 393/166/4 313/158/4 394/165/4
f 323/165/170 395/164/170 322/164/170
f 394/165/4 313/158/4 395/164/4
f 322/164/171 396/163/171 321/163/171
f 395/164/4 313/158/4 396/163/4
f 321/163/172 397/162/172 320/162/172
f 396/163/4 313/158/4 397/162/4
f 320/162/173 398/161/173 319/161/173
f 397/162/4 313/158/4 398/161/4
f 319/161/159 315/160/159 317/160/159
f 398/161/4 313/158/4 315/160/4
f 285/143/174 279/141/174 284/141/174
f 272/137/2 276/140/2 284/141/2
f 284/141/175 268/137/175 272/137/175
f 247/125/2 249/127/2 259/128/2
f 259/128/176 251/125/176 247/125/176
f 242/123/4 251/125/4 243/124/4
f 247/125/177 242/123/177 245/123/177
f 245/123/178 239/120/178 236/120/178
f 236/120/179 228/116/179 232/116/179
f 219/110/180 212/107/180 207/107/180
f 203/102/181 211/104/181 205/104/181
f 199/103/4 211/104/4 198/102/4
f 202/101/182 198/102/182 203/102/182
f 201/99/183 197/101/183 202/101/183
f 399/98/184 195/99/184 201/99/184
f 190/97/2 399/98/2 201/99/2
f 188/96/185 194/98/185 399/98/185
f 190/97/2 188/96/2 399/98/2
f 176/88/186 170/86/186 175/86/186
f 175/86/187 160/83/187 164/83/187
f 164/83/2 167/85/2 175/86/2
f 152/78/188 158/80/188 163/80/188
f 154/79/2 152/78/2 163/80/2
f 138/70/189 144/72/189 140/72/189
f 136/67/190 143/70/190 138/70/190
f 134/69/4 143/70/4 132/67/4
f 127/65/191 132/67/191 136/67/191
f 128/66/2 127/65/2 136/67/2
f 124/63/192 130/65/192 127/65/192
f 112/56/193 106/54/193 111/54/193
f 400/53/2 97/52/2 111/54/2
f 111/54/194 105/53/194 400/53/194
f 96/50/2 97/52/2 400/53/2
f 400/53/195 101/50/195 96/50/195
f 96/50/196 100/49/196 95/49/196
f 74/38/4 85/40/4 75/39/4
f 79/40/197 74/38/197 77/38/197
f 77/38/198 71/36/198 69/36/198
f 65/32/199 59/29/199 56/29/199
f 41/22/2 42/23/2 53/24/2
f 53/24/200 45/22/200 41/22/200
f 41/22/201 44/20/201 39/20/201
f 39/20/202 35/19/202 37/19/202
f 35/19/4 44/20/4 33/17/4
f 28/15/203 22/13/203 25/13/203
f 14/8/2 15/9/2 24/12/2
f 24/12/204 17/8/204 14/8/204
f 14/8/205 9/6/205 11/6/205
f 2/1/1 5/1/1 4/2/1
f 1/2/3 4/2/3 6/3/3
f 3/3/5 6/3/5 7/4/5
f 10/5/6 8/5/6 5/1/6
f 11/6/7 9/6/7 8/5/7
f 12/4/8 7/4/8 16/7/8
f 13/7/9 16/7/9 18/9/9
f 15/9/10 18/9/10 19/10/10
f 23/11/11 21/11/11 20/12/11
f 25/13/206 22/13/206 21/11/206
f 26/10/13 19/10/13 30/14/13
f 27/14/14 30/14/14 32/16/14
f 29/16/15 32/16/15 33/17/15
f 36/18/16 34/18/16 31/15/16
f 37/19/17 35/19/17 34/18/17
f 40/21/18 38/17/18 33/17/18
f 40/21/19 43/21/19 46/23/19
f 42/23/20 46/23/20 48/25/20
f 51/25/21 48/25/21 49/26/21
f 54/27/22 50/27/22 47/24/22
f 55/28/23 58/28/23 50/27/23
f 56/29/24 59/29/24 58/28/24
f 52/26/25 49/26/25 60/30/25
f 57/30/26 60/30/26 61/31/26
f 64/31/207 61/31/207 63/33/207
f 66/33/28 63/33/28 72/34/28
f 68/35/29 70/35/29 62/32/29
f 69/36/30 71/36/30 70/35/30
f 67/34/31 72/34/31 73/37/31
f 76/37/32 73/37/32 75/39/32
f 78/39/33 75/39/33 83/41/33
f 80/41/34 83/41/34 84/42/34
f 82/43/35 86/43/35 85/40/35
f 90/44/36 87/44/36 86/43/36
f 91/45/37 88/45/37 87/44/37
f 81/42/38 84/42/38 89/46/38
f 92/46/39 89/46/39 99/48/39
f 94/48/40 99/48/40 102/52/40
f 98/51/41 104/51/41 103/47/41
f 95/49/42 100/49/42 104/51/42
f 93/47/43 103/47/43 88/45/43
f 97/52/44 102/52/44 107/55/44
f 110/55/45 107/55/45 109/57/45
f 113/57/46 109/57/46 119/58/46
f 115/59/47 117/59/47 108/56/47
f 116/60/48 118/60/48 117/59/48
f 114/58/49 119/58/49 120/61/49
f 123/61/50 120/61/50 121/63/50
f 125/62/51 122/62/51 118/60/51
f 126/64/52 129/64/52 122/62/52
f 128/66/53 131/66/53 129/64/53
f 135/68/54 133/68/54 131/66/54
f 137/69/55 134/69/55 133/68/55
f 139/71/56 142/71/56 134/69/56
f 141/73/57 145/73/57 142/71/57
f 150/75/58 146/75/58 145/73/58
f 140/72/59 144/72/59 147/74/59
f 149/74/60 147/74/60 148/76/60
f 151/76/61 148/76/61 156/78/61
f 153/77/62 155/77/62 146/75/62
f 154/79/63 157/79/63 155/77/63
f 162/81/64 159/81/64 157/79/64
f 164/83/65 160/83/65 159/81/65
f 163/80/66 158/80/66 161/82/66
f 165/82/67 161/82/67 168/84/67
f 166/84/68 168/84/68 169/85/68
f 167/85/69 169/85/69 171/87/69
f 174/87/70 171/87/70 173/89/70
f 177/89/71 173/89/71 183/90/71
f 179/91/72 181/91/72 172/88/72
f 180/92/73 182/92/73 181/91/73
f 178/90/74 183/90/74 184/93/74
f 186/93/75 184/93/75 185/94/75
f 187/94/76 185/94/76 192/96/76
f 189/95/77 191/95/77 182/92/77
f 190/97/78 193/97/78 191/95/78
f 200/100/79 196/100/79 193/97/79
f 204/103/80 199/103/80 196/100/80
f 206/105/81 210/105/81 199/103/81
f 207/107/82 212/107/82 210/105/82
f 205/104/83 211/104/83 214/106/83
f 209/106/84 214/106/84 213/108/84
f 208/108/85 213/108/85 215/109/85
f 218/109/86 215/109/86 217/111/86
f 220/111/87 217/111/87 224/112/87
f 221/112/88 224/112/88 225/113/88
f 223/114/89 226/114/89 216/110/89
f 231/115/90 227/115/90 226/114/90
f 232/116/91 228/116/91 227/115/91
f 234/118/92 230/118/92 229/117/92
f 222/113/93 225/113/93 230/118/93
f 233/117/94 229/117/94 238/119/94
f 235/119/95 238/119/95 240/121/95
f 237/121/96 240/121/96 241/122/96
f 246/124/97 244/122/97 241/122/97
f 246/124/98 243/124/98 250/126/98
f 248/126/99 250/126/99 252/127/99
f 257/129/100 249/127/100 252/127/100
f 257/129/101 254/129/101 255/130/101
f 260/131/102 256/131/102 253/128/102
f 261/132/103 266/132/103 256/131/103
f 262/133/104 264/133/104 265/134/104
f 258/130/105 255/130/105 264/133/105
f 271/135/106 267/135/106 266/132/106
f 272/137/107 268/137/107 267/135/107
f 263/134/108 265/134/108 270/136/108
f 274/136/109 270/136/109 269/138/109
f 273/138/110 269/138/110 277/139/110
f 275/139/111 277/139/111 278/140/111
f 276/140/112 278/140/112 280/142/112
f 283/142/113 280/142/113 282/144/113
f 287/145/114 286/144/114 282/144/114
f 287/145/115 290/145/115 291/146/115
f 289/147/116 292/147/116 281/143/116
f 297/148/117 293/148/117 292/147/117
f 298/149/118 294/149/118 293/148/118
f 300/151/119 288/146/119 291/146/119
f 299/150/120 300/151/120 296/151/120
f 301/152/121 299/150/121 295/150/121
f 301/152/122 303/152/122 304/153/122
f 302/153/123 304/153/123 305/154/123
f 307/154/124 305/154/124 306/155/124
f 308/155/125 306/155/125 311/156/125
f 309/156/126 311/156/126 312/157/126
f 310/157/127 312/157/127 313/158/127
f 298/149/128 316/159/128 314/159/128
f 316/159/129 317/160/129 315/160/129
f 318/158/131 313/158/131 332/170/131
f 328/170/132 332/170/132 336/173/132
f 331/173/134 336/173/134 344/184/134
f 349/176/135 348/176/135 347/185/135
f 351/175/136 337/175/136 348/176/136
f 352/174/137 338/174/137 337/175/137
f 353/177/138 339/177/138 338/174/138
f 354/178/139 340/178/139 339/177/139
f 355/180/140 342/180/140 340/178/140
f 356/182/141 345/182/141 342/180/141
f 358/186/143 360/186/143 345/182/143
f 359/187/144 361/187/144 360/186/144
f 364/188/146 362/188/146 361/187/146
f 365/189/147 363/189/147 362/188/147
f 366/190/148 368/190/148 363/189/148
f 367/191/208 369/191/208 368/190/208
f 372/192/150 370/192/150 369/191/150
f 373/193/151 371/193/151 370/192/151
f 374/194/152 376/194/152 371/193/152
f 375/195/153 377/195/153 376/194/153
f 380/196/154 378/196/154 377/195/154
f 381/197/155 379/197/155 378/196/155
f 382/198/156 384/198/156 379/197/156
f 383/199/157 385/199/157 384/198/157
f 387/200/158 386/200/158 385/199/158
f 357/184/159 344/184/159 386/200/159
f 350/185/160 347/185/160 346/183/160
f 388/183/161 346/183/161 343/181/161
f 389/181/162 343/181/162 341/179/162
f 390/179/163 341/179/163 335/172/163
f 330/172/164 335/172/164 334/171/164
f 329/171/165 334/171/165 333/169/165
f 327/169/166 333/169/166 391/168/166
f 326/168/167 391/168/167 392/167/167
f 325/167/168 392/167/168 393/166/168
f 324/166/169 393/166/169 394/165/169
f 323/165/170 394/165/170 395/164/170
f 322/164/171 395/164/171 396/163/171
f 321/163/172 396/163/172 397/162/172
f 320/162/173 397/162/173 398/161/173
f 319/161/159 398/161/159 315/160/159
f 285/143/174 281/143/174 279/141/174
f 284/141/175 279/141/175 268/137/175
f 259/128/176 253/128/176 251/125/176
f 247/125/177 251/125/177 242/123/177
f 245/123/178 242/123/178 239/120/178
f 236/120/179 239/120/179 228/116/179
f 219/110/180 216/110/180 212/107/180
f 203/102/181 198/102/181 211/104/181
f 202/101/182 197/101/182 198/102/182
f 201/99/183 195/99/183 197/101/183
f 399/98/184 194/98/184 195/99/184
f 188/96/185 192/96/185 194/98/185
f 176/88/186 172/88/186 170/86/186
f 175/86/187 170/86/187 160/83/187
f 152/78/188 156/78/188 158/80/188
f 138/70/189 143/70/189 144/72/189
f 136/67/190 132/67/190 143/70/190
f 127/65/191 130/65/191 132/67/191
f 124/63/192 121/63/192 130/65/192
f 112/56/193 108/56/193 106/54/193
f 111/54/194 106/54/194 105/53/194
f 400/53/195 105/53/195 101/50/195
f 96/50/196 101/50/196 100/49/196
f 79/40/197 85/40/197 74/38/197
f 77/38/198 74/38/198 71/36/198
f 65/32/199 62/32/199 59/29/199
f 53/24/200 47/24/200 45/22/200
f 41/22/201 45/22/201 44/20/201
f 39/20/202 44/20/202 35/19/202
f 28/15/203 31/15/203 22/13/203
f 24/12/204 20/12/204 17/8/204
f 14/8/205 17/8/205 9/6/205
