# Blender 4.4.1
# www.blender.org
mtllib Cocktail.mtl
o 立方体.001
v -0.042811 -0.259315 0.042811
v -0.094545 0.045361 0.094545
v -0.042811 -0.259315 -0.042811
v -0.094545 0.045361 -0.094545
v 0.042811 -0.259315 0.042811
v 0.094545 0.045361 0.094545
v 0.042811 -0.259315 -0.042811
v 0.094545 0.045361 -0.094545
v -0.010472 -0.249365 0.010472
v -0.012074 -0.101018 0.012074
v -0.012074 -0.101018 -0.012074
v -0.010472 -0.249365 -0.010472
v 0.012074 -0.101018 -0.012074
v 0.010472 -0.249365 -0.010472
v 0.012074 -0.101018 0.012074
v 0.010472 -0.249365 0.010472
v -0.042811 -0.263524 0.042811
v -0.042811 -0.263524 -0.042811
v 0.042811 -0.263524 0.042811
v 0.042811 -0.263524 -0.042811
v -0.101749 0.045452 0.101749
v -0.101749 0.045452 -0.101749
v 0.101749 0.045452 -0.101749
v 0.101749 0.045452 0.101749
v -0.013953 -0.092794 0.013953
v -0.013953 -0.092794 -0.013953
v 0.013953 -0.092794 -0.013953
v 0.013953 -0.092794 0.013953
v -0.058409 -0.259315 -0.000000
v -0.138820 0.045452 -0.000000
v 0.058409 -0.259315 -0.000000
v 0.138820 0.045452 -0.000000
v 0.014287 -0.249365 -0.000000
v 0.016574 -0.101018 -0.000000
v -0.014287 -0.249365 -0.000000
v -0.016574 -0.101018 -0.000000
v -0.058409 -0.263524 -0.000000
v 0.058409 -0.263524 -0.000000
v -0.130852 0.045361 -0.000000
v 0.130852 0.045361 -0.000000
v -0.019037 -0.092794 -0.000000
v 0.019037 -0.092794 -0.000000
v -0.000000 -0.259315 -0.058409
v -0.000000 0.045452 -0.138820
v -0.000000 -0.259315 0.058409
v -0.000000 0.045452 0.138820
v -0.000000 -0.249365 0.014287
v -0.000000 -0.101018 0.016574
v -0.000000 -0.249365 -0.014287
v -0.000000 -0.101018 -0.016574
v -0.000000 -0.263524 -0.058409
v -0.000000 -0.263524 0.058409
v -0.000000 0.045361 -0.130852
v -0.000000 0.045361 0.130852
v -0.000000 -0.092794 -0.019037
v -0.000000 -0.092794 0.019037
v -0.000000 -0.100099 -0.000000
v -0.000000 -0.263524 -0.000000
v 0.055019 0.045452 -0.127856
v 0.023149 -0.259315 0.053795
v 0.005662 -0.249365 -0.013158
v 0.006549 -0.101018 -0.015220
v 0.023149 -0.263524 0.053795
v 0.051503 0.045361 -0.119686
v 0.007545 -0.092794 -0.017533
v 0.010294 -0.097800 -0.000000
v 0.023149 -0.259315 -0.053795
v 0.055019 0.045452 0.127856
v 0.005662 -0.249365 0.013158
v 0.006549 -0.101018 0.015220
v 0.023149 -0.263524 -0.053795
v 0.051503 0.045361 0.119686
v 0.007545 -0.092794 0.017533
v 0.031583 -0.263524 -0.000000
v -0.023149 -0.259315 -0.053795
v -0.055019 0.045452 0.127856
v -0.005662 -0.249365 0.013158
v -0.006549 -0.101018 0.015220
v -0.023149 -0.263524 -0.053795
v -0.051503 0.045361 0.119686
v -0.007545 -0.092794 0.017533
v -0.031583 -0.263524 -0.000000
v -0.055019 0.045452 -0.127856
v -0.023149 -0.259315 0.053795
v -0.005662 -0.249365 -0.013158
v -0.006549 -0.101018 -0.015220
v -0.023149 -0.263524 0.053795
v -0.051503 0.045361 -0.119686
v -0.007545 -0.092794 -0.017533
v -0.010294 -0.097800 -0.000000
v -0.053795 -0.259315 0.023149
v 0.127856 0.045452 0.055019
v 0.013158 -0.249365 0.005662
v 0.015220 -0.101018 0.006549
v -0.053795 -0.263524 0.023149
v 0.119686 0.045361 0.051503
v 0.017533 -0.092794 0.007545
v -0.127856 0.045452 0.055019
v 0.053795 -0.259315 0.023149
v -0.013158 -0.249365 0.005662
v -0.015220 -0.101018 0.006549
v 0.053795 -0.263524 0.023149
v -0.119686 0.045361 0.051503
v -0.017533 -0.092794 0.007545
v -0.000000 -0.097800 0.010294
v -0.000000 -0.263524 0.031583
v 0.008767 -0.097800 0.008767
v 0.026898 -0.263524 0.026898
v -0.026898 -0.263524 0.026898
v -0.008767 -0.097800 0.008767
v -0.127856 0.045452 -0.055019
v 0.053795 -0.259315 -0.023149
v -0.013158 -0.249365 -0.005662
v -0.015220 -0.101018 -0.006549
v 0.053795 -0.263524 -0.023149
v -0.119686 0.045361 -0.051503
v -0.017533 -0.092794 -0.007545
v -0.053795 -0.259315 -0.023149
v 0.127856 0.045452 -0.055019
v 0.013158 -0.249365 -0.005662
v 0.015220 -0.101018 -0.006549
v -0.053795 -0.263524 -0.023149
v 0.119686 0.045361 -0.051503
v 0.017533 -0.092794 -0.007545
v -0.000000 -0.263524 -0.031583
v -0.000000 -0.097800 -0.010294
v 0.008767 -0.097800 -0.008767
v 0.026898 -0.263524 -0.026898
v -0.026898 -0.263524 -0.026898
v -0.008767 -0.097800 -0.008767
v -0.007625 -0.155795 0.007625
v -0.007625 -0.155795 -0.007625
v 0.007625 -0.155795 -0.007625
v 0.007625 -0.155795 0.007625
v -0.010437 -0.155795 -0.000000
v 0.010437 -0.155795 -0.000000
v -0.000000 -0.155795 -0.010437
v -0.000000 -0.155795 0.010437
v 0.004130 -0.155795 0.009597
v 0.004130 -0.155795 -0.009597
v -0.004130 -0.155795 -0.009597
v -0.004130 -0.155795 0.009597
v -0.009597 -0.155795 0.004130
v 0.009597 -0.155795 0.004130
v 0.009597 -0.155795 -0.004130
v -0.009597 -0.155795 -0.004130
v -0.033623 -0.259315 -0.049245
v -0.079912 0.045452 0.117041
v -0.008224 -0.249365 0.012045
v -0.009493 -0.101018 0.013913
v -0.033623 -0.263524 -0.049245
v -0.074448 0.045361 0.109204
v -0.010958 -0.092794 0.016050
v -0.045873 -0.263524 -0.000000
v -0.079912 0.045452 -0.117041
v -0.033623 -0.259315 0.049245
v -0.008224 -0.249365 -0.012045
v -0.009493 -0.101018 -0.013913
v -0.033623 -0.263524 0.049245
v -0.074448 0.045361 -0.109204
v -0.010958 -0.092794 -0.016050
v -0.014951 -0.095627 -0.000000
v -0.041133 -0.263524 0.025511
v -0.013406 -0.095627 0.008315
v -0.041133 -0.263524 -0.025511
v -0.013406 -0.095627 -0.008315
v -0.005992 -0.155795 -0.008779
v -0.005992 -0.155795 0.008779
v -0.117041 0.045452 -0.079912
v 0.049245 -0.259315 -0.033623
v -0.012045 -0.249365 -0.008224
v -0.013913 -0.101018 -0.009493
v 0.049245 -0.263524 -0.033623
v -0.109204 0.045361 -0.074448
v -0.016050 -0.092794 -0.010958
v -0.049245 -0.259315 -0.033623
v 0.117041 0.045452 -0.079912
v 0.012045 -0.249365 -0.008224
v 0.013913 -0.101018 -0.009493
v -0.049245 -0.263524 -0.033623
v 0.109204 0.045361 -0.074448
v 0.016050 -0.092794 -0.010958
v -0.000000 -0.263524 -0.045873
v -0.000000 -0.095627 -0.014951
v 0.008315 -0.095627 -0.013406
v 0.025511 -0.263524 -0.041133
v -0.025511 -0.263524 -0.041133
v -0.008315 -0.095627 -0.013406
v 0.008779 -0.155795 -0.005992
v -0.008779 -0.155795 -0.005992
v -0.012182 -0.095627 -0.012182
v -0.037378 -0.263524 -0.037378
v -0.057297 -0.259315 -0.012007
v 0.136179 0.045452 -0.028536
v 0.014015 -0.249365 -0.002937
v 0.016235 -0.101018 -0.003397
v -0.057297 -0.263524 -0.012007
v 0.127932 0.045361 -0.026713
v 0.018674 -0.092794 -0.003913
v -0.000000 -0.263524 -0.016381
v -0.000000 -0.098808 -0.005339
v 0.009727 -0.097800 -0.004547
v 0.029846 -0.263524 -0.013951
v -0.029846 -0.263524 -0.013951
v -0.009727 -0.097800 -0.004547
v -0.136179 0.045452 -0.028536
v 0.057297 -0.259315 -0.012007
v -0.014015 -0.249365 -0.002937
v -0.016235 -0.101018 -0.003397
v 0.057297 -0.263524 -0.012007
v -0.127932 0.045361 -0.026713
v -0.018674 -0.092794 -0.003913
v -0.010231 -0.155795 -0.002142
v 0.010231 -0.155795 -0.002142
v -0.043572 -0.263524 -0.012979
v -0.014201 -0.095627 -0.004230
v -0.136179 0.045452 0.028536
v 0.057297 -0.259315 0.012007
v -0.014015 -0.249365 0.002937
v -0.016235 -0.101018 0.003397
v 0.057297 -0.263524 0.012007
v -0.127932 0.045361 0.026713
v -0.018674 -0.092794 0.003913
v -0.057297 -0.259315 0.012007
v 0.136179 0.045452 0.028536
v 0.014015 -0.249365 0.002937
v 0.016235 -0.101018 0.003397
v -0.057297 -0.263524 0.012007
v 0.127932 0.045361 0.026713
v 0.018674 -0.092794 0.003913
v -0.000000 -0.098808 0.005339
v -0.000000 -0.263524 0.016381
v 0.009727 -0.097800 0.004547
v 0.029846 -0.263524 0.013951
v -0.029846 -0.263524 0.013951
v -0.009727 -0.097800 0.004547
v 0.010231 -0.155795 0.002142
v -0.010231 -0.155795 0.002142
v -0.014201 -0.095627 0.004230
v -0.043572 -0.263524 0.012979
v -0.049245 -0.259315 0.033623
v 0.117041 0.045452 0.079912
v 0.012045 -0.249365 0.008224
v 0.013913 -0.101018 0.009493
v -0.049245 -0.263524 0.033623
v 0.109204 0.045361 0.074448
v 0.016050 -0.092794 0.010958
v -0.000000 -0.095627 0.014951
v -0.000000 -0.263524 0.045873
v 0.008315 -0.095627 0.013406
v 0.025511 -0.263524 0.041133
v -0.025511 -0.263524 0.041133
v -0.008315 -0.095627 0.013406
v -0.117041 0.045452 0.079912
v 0.049245 -0.259315 0.033623
v -0.012045 -0.249365 0.008224
v -0.013913 -0.101018 0.009493
v 0.049245 -0.263524 0.033623
v -0.109204 0.045361 0.074448
v -0.016050 -0.092794 0.010958
v -0.008779 -0.155795 0.005992
v 0.008779 -0.155795 0.005992
v -0.037378 -0.263524 0.037378
v -0.012182 -0.095627 0.012182
v -0.028536 0.045452 -0.136179
v -0.012007 -0.259315 0.057297
v -0.002937 -0.249365 -0.014015
v -0.003397 -0.101018 -0.016235
v -0.012007 -0.263524 0.057297
v -0.026713 0.045361 -0.127932
v -0.003913 -0.092794 -0.018674
v -0.005339 -0.098808 -0.000000
v -0.012007 -0.259315 -0.057297
v -0.028536 0.045452 0.136179
v -0.002937 -0.249365 0.014015
v -0.003397 -0.101018 0.016235
v -0.012007 -0.263524 -0.057297
v -0.026713 0.045361 0.127932
v -0.003913 -0.092794 0.018674
v -0.016381 -0.263524 -0.000000
v -0.004547 -0.097800 0.009727
v -0.013951 -0.263524 0.029846
v -0.004547 -0.097800 -0.009727
v -0.013951 -0.263524 -0.029846
v -0.002142 -0.155795 0.010231
v -0.002142 -0.155795 -0.010231
v -0.012979 -0.263524 -0.043572
v -0.004230 -0.095627 -0.014201
v -0.004864 -0.098808 -0.004864
v -0.014923 -0.263524 -0.014923
v -0.014923 -0.263524 0.014923
v -0.004864 -0.098808 0.004864
v -0.004230 -0.095627 0.014201
v -0.012979 -0.263524 0.043572
v 0.012007 -0.259315 -0.057297
v 0.028536 0.045452 0.136179
v 0.002937 -0.249365 0.014015
v 0.003397 -0.101018 0.016235
v 0.012007 -0.263524 -0.057297
v 0.026713 0.045361 0.127932
v 0.003913 -0.092794 0.018674
v 0.016381 -0.263524 -0.000000
v 0.028536 0.045452 -0.136179
v 0.012007 -0.259315 0.057297
v 0.002937 -0.249365 -0.014015
v 0.003397 -0.101018 -0.016235
v 0.012007 -0.263524 0.057297
v 0.026713 0.045361 -0.127932
v 0.003913 -0.092794 -0.018674
v 0.005339 -0.098808 -0.000000
v 0.013951 -0.263524 0.029846
v 0.004547 -0.097800 0.009727
v 0.013951 -0.263524 -0.029846
v 0.004547 -0.097800 -0.009727
v 0.002142 -0.155795 -0.010231
v 0.002142 -0.155795 0.010231
v 0.004230 -0.095627 -0.014201
v 0.012979 -0.263524 -0.043572
v 0.014923 -0.263524 -0.014923
v 0.004864 -0.098808 -0.004864
v 0.004864 -0.098808 0.004864
v 0.014923 -0.263524 0.014923
v 0.012979 -0.263524 0.043572
v 0.004230 -0.095627 0.014201
v 0.079912 0.045452 -0.117041
v 0.033623 -0.259315 0.049245
v 0.008224 -0.249365 -0.012045
v 0.009493 -0.101018 -0.013913
v 0.033623 -0.263524 0.049245
v 0.074448 0.045361 -0.109204
v 0.010958 -0.092794 -0.016050
v 0.014951 -0.095627 -0.000000
v 0.033623 -0.259315 -0.049245
v 0.079912 0.045452 0.117041
v 0.008224 -0.249365 0.012045
v 0.009493 -0.101018 0.013913
v 0.033623 -0.263524 -0.049245
v 0.074448 0.045361 0.109204
v 0.010958 -0.092794 0.016050
v 0.045873 -0.263524 -0.000000
v 0.013406 -0.095627 0.008315
v 0.041133 -0.263524 0.025511
v 0.013406 -0.095627 -0.008315
v 0.041133 -0.263524 -0.025511
v 0.005992 -0.155795 0.008779
v 0.005992 -0.155795 -0.008779
v 0.037378 -0.263524 -0.037378
v 0.012182 -0.095627 -0.012182
v 0.014201 -0.095627 -0.004230
v 0.043572 -0.263524 -0.012979
v 0.043572 -0.263524 0.012979
v 0.014201 -0.095627 0.004230
v 0.012182 -0.095627 0.012182
v 0.037378 -0.263524 0.037378
v -0.009048 -0.236985 -0.009048
v 0.009048 -0.236985 -0.009048
v 0.009048 -0.236985 0.009048
v -0.012362 -0.236985 -0.000000
v 0.012362 -0.236985 -0.000000
v -0.000000 -0.236985 -0.012362
v -0.000000 -0.236985 0.012362
v 0.004896 -0.236985 0.011378
v 0.004896 -0.236985 -0.011378
v -0.004896 -0.236985 -0.011378
v -0.004896 -0.236985 0.011378
v -0.011378 -0.236985 0.004896
v 0.011378 -0.236985 0.004896
v 0.011378 -0.236985 -0.004896
v -0.011378 -0.236985 -0.004896
v -0.009048 -0.236985 0.009048
v -0.007108 -0.236985 0.010412
v -0.007108 -0.236985 -0.010412
v -0.010412 -0.236985 -0.007108
v 0.010412 -0.236985 -0.007108
v 0.012123 -0.236985 -0.002539
v -0.012123 -0.236985 -0.002539
v -0.012123 -0.236985 0.002539
v 0.012123 -0.236985 0.002539
v 0.010412 -0.236985 0.007108
v -0.010412 -0.236985 0.007108
v -0.002539 -0.236985 -0.012123
v -0.002539 -0.236985 0.012123
v 0.002539 -0.236985 0.012123
v 0.002539 -0.236985 -0.012123
v 0.007108 -0.236985 -0.010412
v 0.007108 -0.236985 0.010412
vn -0.6637 -0.6475 -0.3746
vn -0.6437 -0.4138 -0.6437
vn -0.7953 -0.4039 -0.4521
vn 0.3746 -0.6475 -0.6637
vn 0.6437 -0.4138 -0.6437
vn 0.4521 -0.4039 -0.7953
vn 0.6637 -0.6475 0.3746
vn 0.6437 -0.4138 0.6437
vn 0.7953 -0.4039 0.4521
vn -0.3746 -0.6475 0.6637
vn -0.6437 -0.4138 0.6437
vn -0.4521 -0.4039 0.7953
vn -0.5680 0.5956 -0.5680
vn -0.6355 -0.6852 -0.3558
vn -0.6930 0.6071 -0.3888
vn -0.6684 0.6313 0.3933
vn -0.5378 0.6493 0.5378
vn -0.6452 0.6862 0.3360
vn -0.3888 0.6071 0.6930
vn -0.4902 0.7207 0.4902
vn -0.5680 0.5956 0.5680
vn -0.7064 -0.0453 0.7064
vn -0.4915 -0.0444 0.8698
vn 0.6930 0.6071 0.3888
vn 0.4902 0.7207 0.4902
vn 0.5680 0.5956 0.5680
vn 0.7064 -0.0453 0.7064
vn 0.8698 -0.0444 0.4915
vn 0.3888 0.6071 -0.6930
vn 0.4902 0.7207 -0.4902
vn 0.5680 0.5956 -0.5680
vn 0.7064 -0.0453 -0.7064
vn 0.4915 -0.0444 -0.8698
vn -0.4902 0.7207 -0.4902
vn -0.7064 -0.0453 -0.7064
vn -0.8698 -0.0444 -0.4915
vn -0.0000 -1.0000 -0.0000
vn 0.5249 -0.6701 0.5249
vn 0.3558 -0.6852 0.6355
vn 0.6355 -0.6852 0.3558
vn -0.3558 -0.6852 0.6355
vn 0.3558 -0.6852 -0.6355
vn 0.0064 1.0000 0.0064
vn 0.0082 1.0000 0.0047
vn 0.0084 1.0000 0.0047
vn -0.0064 1.0000 0.0064
vn -0.0047 1.0000 0.0082
vn -0.0047 1.0000 0.0084
vn -0.0064 1.0000 -0.0064
vn -0.0082 1.0000 -0.0047
vn -0.0084 1.0000 -0.0047
vn 0.0064 1.0000 -0.0064
vn 0.0047 1.0000 -0.0082
vn 0.0047 1.0000 -0.0084
vn 0.4099 0.8148 -0.4099
vn 0.5378 0.6493 -0.5378
vn 0.3360 0.6862 -0.6452
vn 0.6684 0.6313 -0.3933
vn 0.6452 0.6862 -0.3360
vn -0.3933 0.6313 -0.6684
vn -0.5378 0.6493 -0.5378
vn -0.3360 0.6862 -0.6452
vn 0.3933 0.6313 0.6684
vn 0.5378 0.6493 0.5378
vn 0.3360 0.6862 0.6452
vn 0.7600 0.6285 0.1656
vn 0.6855 0.7281 -0.0000
vn 0.6680 0.7316 0.1358
vn 0.4951 0.8688 -0.0000
vn 0.4941 0.8641 0.0963
vn -0.0106 0.9999 0.0022
vn -0.0113 0.9999 -0.0000
vn -0.0105 0.9999 0.0022
vn 0.0106 0.9999 -0.0022
vn 0.0113 0.9999 -0.0000
vn 0.0105 0.9999 -0.0022
vn 0.7945 0.6072 -0.0000
vn 0.7151 -0.6840 -0.1438
vn 0.7807 0.6049 -0.1570
vn -0.9787 -0.0440 0.2007
vn -0.9168 -0.3993 -0.0000
vn -0.9990 -0.0441 -0.0000
vn -0.6975 0.7028 0.1402
vn -0.7945 0.6072 -0.0000
vn -0.7807 0.6049 0.1570
vn 0.9787 -0.0440 -0.2007
vn 0.9168 -0.3993 -0.0000
vn 0.9990 -0.0441 -0.0000
vn 0.6975 0.7028 -0.1402
vn -0.7600 0.6285 -0.1656
vn -0.6855 0.7281 -0.0000
vn -0.6680 0.7316 -0.1358
vn -0.7151 -0.6840 0.1438
vn 0.8972 -0.4002 -0.1868
vn 0.7677 -0.6408 -0.0000
vn -0.8972 -0.4002 0.1868
vn -0.7677 -0.6408 -0.0000
vn -0.1217 0.9851 0.1217
vn -0.0000 1.0000 -0.0000
vn -0.2174 0.9761 -0.0000
vn -0.1656 0.6285 0.7600
vn -0.0000 0.7281 0.6855
vn -0.1358 0.7316 0.6680
vn 0.1656 0.6285 -0.7600
vn -0.0000 0.7281 -0.6855
vn 0.1358 0.7316 -0.6680
vn -0.0000 0.8688 -0.4951
vn -0.1358 0.7316 -0.6680
vn -0.0963 0.8641 -0.4941
vn -0.0022 0.9999 -0.0106
vn -0.0000 0.9999 -0.0113
vn -0.0022 0.9999 -0.0105
vn 0.0022 0.9999 0.0106
vn -0.0000 0.9999 0.0113
vn 0.0022 0.9999 0.0105
vn -0.0000 0.6072 -0.7945
vn -0.1438 -0.6840 -0.7151
vn -0.1570 0.6049 -0.7807
vn -0.0000 0.6072 0.7945
vn 0.1438 -0.6840 0.7151
vn 0.1570 0.6049 0.7807
vn -0.1438 -0.6840 0.7151
vn -0.2007 -0.0440 -0.9787
vn -0.0000 -0.3993 -0.9168
vn -0.0000 -0.0441 -0.9990
vn -0.1402 0.7028 -0.6975
vn 0.2007 -0.0440 0.9787
vn -0.0000 -0.3993 0.9168
vn -0.0000 -0.0441 0.9990
vn 0.1402 0.7028 0.6975
vn 0.1868 -0.4002 0.8972
vn -0.0000 -0.6408 0.7677
vn -0.1868 -0.4002 -0.8972
vn -0.0000 -0.6408 -0.7677
vn 0.4521 -0.4039 0.7953
vn 0.2690 -0.6415 0.7184
vn 0.3270 -0.3964 0.8579
vn 0.3468 0.7039 0.6199
vn 0.2760 0.6146 0.7390
vn 0.3888 0.6071 0.6930
vn 0.4915 -0.0444 0.8698
vn 0.3530 -0.0437 0.9346
vn -0.0047 1.0000 -0.0084
vn -0.0036 0.9999 -0.0095
vn -0.0047 1.0000 -0.0082
vn -0.1449 0.8423 -0.5192
vn -0.4099 0.8148 -0.4099
vn -0.2856 0.6269 0.7249
vn -0.3360 0.6862 0.6452
vn -0.3933 0.6313 0.6684
vn -0.4941 0.8641 0.0963
vn -0.3269 0.9451 -0.0000
vn -0.4951 0.8688 -0.0000
vn -0.2856 0.6269 -0.7249
vn -0.1656 0.6285 -0.7600
vn -0.0037 0.9999 0.0096
vn -0.0022 0.9999 0.0105
vn -0.0022 0.9999 0.0106
vn 0.2760 0.6146 -0.7390
vn 0.1438 -0.6840 -0.7151
vn 0.1570 0.6049 -0.7807
vn 0.2512 -0.6955 0.6732
vn 0.2007 -0.0440 -0.9787
vn 0.3270 -0.3964 -0.8579
vn 0.3530 -0.0437 -0.9346
vn 0.2521 0.6928 -0.6756
vn 0.1514 -0.6417 -0.7518
vn 0.1868 -0.4002 -0.8972
vn -0.4521 -0.4039 -0.7953
vn -0.2690 -0.6415 -0.7184
vn -0.3270 -0.3964 -0.8579
vn -0.3468 0.7039 -0.6199
vn -0.2760 0.6146 -0.7390
vn -0.3888 0.6071 -0.6930
vn -0.4915 -0.0444 -0.8698
vn -0.3530 -0.0437 -0.9346
vn -0.3558 -0.6852 -0.6355
vn 0.0047 1.0000 0.0084
vn 0.0036 0.9999 0.0095
vn 0.0047 1.0000 0.0082
vn 0.2856 0.6269 -0.7249
vn 0.3933 0.6313 -0.6684
vn 0.3260 0.9437 0.0556
vn 0.2174 0.9761 -0.0000
vn 0.1217 0.9851 0.1217
vn 0.2856 0.6269 0.7249
vn 0.1358 0.7316 0.6680
vn 0.1656 0.6285 0.7600
vn 0.0963 0.8641 -0.4941
vn 0.2307 0.7201 -0.6544
vn 0.0037 0.9999 -0.0096
vn 0.0022 0.9999 -0.0105
vn 0.0022 0.9999 -0.0106
vn -0.2760 0.6146 0.7390
vn -0.1570 0.6049 0.7807
vn -0.2007 -0.0440 0.9787
vn -0.3270 -0.3964 0.8579
vn -0.3530 -0.0437 0.9346
vn -0.2521 0.6928 0.6756
vn -0.1514 -0.6417 0.7518
vn -0.1868 -0.4002 0.8972
vn 0.1217 0.9851 -0.1217
vn 0.2294 0.9459 -0.2294
vn 0.0556 0.9437 -0.3260
vn -0.3260 0.9437 -0.0556
vn -0.5192 0.8423 -0.1449
vn -0.4941 0.8641 -0.0963
vn -0.0000 0.9761 -0.2174
vn -0.0556 0.9437 -0.3260
vn -0.1217 0.9851 -0.1217
vn -0.7953 -0.4039 0.4521
vn -0.7184 -0.6415 0.2690
vn -0.8579 -0.3964 0.3270
vn -0.7390 0.6146 0.2760
vn -0.6355 -0.6852 0.3558
vn -0.6930 0.6071 0.3888
vn -0.7249 0.6269 -0.2856
vn -0.6452 0.6862 -0.3360
vn -0.6684 0.6313 -0.3933
vn -0.6199 0.7039 0.3468
vn -0.8698 -0.0444 0.4915
vn -0.9346 -0.0437 0.3530
vn 0.0084 1.0000 -0.0047
vn 0.0095 0.9999 -0.0036
vn 0.0082 1.0000 -0.0047
vn 0.7249 0.6269 -0.2856
vn 0.6680 0.7316 -0.1358
vn 0.7600 0.6285 -0.1656
vn 0.4941 0.8641 -0.0963
vn 0.6544 0.7201 -0.2307
vn 0.5192 0.8423 -0.1449
vn -0.0096 0.9999 -0.0037
vn -0.0105 0.9999 -0.0022
vn -0.0106 0.9999 -0.0022
vn 0.7390 0.6146 0.2760
vn 0.7151 -0.6840 0.1438
vn 0.7807 0.6049 0.1570
vn 0.6732 -0.6955 0.2512
vn 0.9787 -0.0440 0.2007
vn 0.8579 -0.3964 0.3270
vn 0.9346 -0.0437 0.3530
vn 0.6756 0.6928 0.2521
vn 0.7518 -0.6417 0.1514
vn 0.8972 -0.4002 0.1868
vn 0.1449 0.8423 0.5192
vn 0.0556 0.9437 0.3260
vn 0.0963 0.8641 0.4941
vn -0.4099 0.8148 0.4099
vn -0.2294 0.9459 0.2294
vn -0.5192 0.8423 0.1449
vn -0.0963 0.8641 0.4941
vn -0.0000 0.9451 0.3269
vn -0.0556 0.9437 0.3260
vn 0.7953 -0.4039 -0.4521
vn 0.7184 -0.6415 -0.2690
vn 0.8579 -0.3964 -0.3270
vn 0.6199 0.7039 -0.3468
vn 0.7390 0.6146 -0.2760
vn 0.6930 0.6071 -0.3888
vn 0.8698 -0.0444 -0.4915
vn 0.9346 -0.0437 -0.3530
vn 0.6355 -0.6852 -0.3558
vn -0.0084 1.0000 0.0047
vn -0.0095 0.9999 0.0036
vn -0.0082 1.0000 0.0047
vn 0.6452 0.6862 0.3360
vn 0.5192 0.8423 0.1449
vn 0.4099 0.8148 0.4099
vn 0.7249 0.6269 0.2856
vn 0.6684 0.6313 0.3933
vn 0.0096 0.9999 0.0037
vn 0.0105 0.9999 0.0022
vn 0.0106 0.9999 0.0022
vn -0.9787 -0.0440 -0.2007
vn -0.8579 -0.3964 -0.3270
vn -0.9346 -0.0437 -0.3530
vn -0.7807 0.6049 -0.1570
vn -0.6756 0.6928 -0.2521
vn -0.7390 0.6146 -0.2760
vn -0.7249 0.6269 0.2856
vn -0.6680 0.7316 0.1358
vn -0.7600 0.6285 0.1656
vn -0.7151 -0.6840 -0.1438
vn -0.7518 -0.6417 -0.1514
vn -0.8972 -0.4002 -0.1868
vn -0.9326 0.0895 -0.3497
vn -0.9761 0.0896 -0.1978
vn 0.9326 0.0895 -0.3497
vn 0.8682 0.0912 -0.4877
vn 0.9326 0.0895 0.3497
vn 0.9761 0.0896 0.1978
vn -0.9326 0.0895 0.3497
vn -0.8682 0.0912 0.4877
vn -0.3497 0.0895 0.9326
vn -0.1978 0.0896 0.9761
vn -0.3497 0.0895 -0.9326
vn -0.4877 0.0912 -0.8682
vn 0.3497 0.0895 -0.9326
vn 0.1978 0.0896 -0.9761
vn 0.3497 0.0895 0.9326
vn 0.4877 0.0912 0.8682
vn -0.0000 0.0892 0.9960
vn 0.1978 0.0896 0.9761
vn -0.0000 0.0892 -0.9960
vn -0.1978 0.0896 -0.9761
vn 0.9960 0.0892 -0.0000
vn 0.9761 0.0896 -0.1978
vn -0.9960 0.0892 -0.0000
vn -0.9761 0.0896 0.1978
vn -0.8682 0.0912 -0.4877
vn -0.7040 0.0934 -0.7040
vn 0.4877 0.0912 -0.8682
vn 0.7040 0.0934 -0.7040
vn 0.8682 0.0912 0.4877
vn 0.7040 0.0934 0.7040
vn -0.4877 0.0912 0.8682
vn -0.7040 0.0934 0.7040
vn 0.2294 0.9459 0.2294
vn -0.6732 -0.6955 -0.2512
vn 0.3260 0.9437 -0.0556
vn -0.6732 -0.6955 0.2512
vn -0.7267 -0.6870 -0.0000
vn 0.5454 0.6364 -0.5454
vn 0.0063 1.0000 0.0063
vn -0.5249 -0.6701 -0.5249
vn -0.5249 -0.6701 0.5249
vn -0.3746 -0.6475 -0.6637
vn 0.3269 0.9451 -0.0000
vn 0.2307 0.7201 0.6544
vn 0.1449 0.8423 -0.5192
vn 0.0036 0.9999 -0.0095
vn -0.2512 -0.6955 0.6732
vn -0.3468 0.7039 0.6199
vn -0.2690 -0.6415 0.7184
vn 0.5454 0.6364 0.5454
vn -0.0063 1.0000 0.0063
vn 0.5249 -0.6701 -0.5249
vn 0.6637 -0.6475 -0.3746
vn -0.0000 0.8688 0.4951
vn -0.1449 0.8423 0.5192
vn 0.2512 -0.6955 -0.6732
vn 0.0095 0.9999 0.0036
vn -0.6199 0.7039 -0.3468
vn -0.6544 0.7201 0.2307
vn -0.7184 -0.6415 -0.2690
vn -0.7773 0.6291 -0.0000
vn -0.6975 0.7028 -0.1402
vn 0.0114 0.9999 -0.0000
vn -0.3260 0.9437 0.0556
vn -0.0000 0.9761 0.2174
vn 0.7518 -0.6417 -0.1514
vn 0.6756 0.6928 -0.2521
vn 0.6732 -0.6955 -0.2512
vn -0.0096 0.9999 0.0037
vn 0.6544 0.7201 0.2307
vn 0.6975 0.7028 0.1402
vn 0.7267 -0.6870 -0.0000
vn -0.0114 0.9999 -0.0000
vn 0.7773 0.6291 -0.0000
vn -0.7518 -0.6417 0.1514
vn -0.6544 0.7201 -0.2307
vn -0.6756 0.6928 0.2521
vn 0.0096 0.9999 -0.0037
vn 0.0063 1.0000 -0.0063
vn -0.5454 0.6364 -0.5454
vn -0.6637 -0.6475 0.3746
vn -0.2294 0.9459 -0.2294
vn -0.0000 0.9451 -0.3269
vn -0.0095 0.9999 -0.0036
vn 0.6199 0.7039 0.3468
vn 0.7184 -0.6415 0.2690
vn -0.2512 -0.6955 -0.6732
vn -0.1402 0.7028 0.6975
vn -0.0000 -0.6870 0.7267
vn -0.0000 0.9999 -0.0114
vn -0.0000 0.6291 0.7773
vn -0.1514 -0.6417 -0.7518
vn -0.2521 0.6928 -0.6756
vn 0.0037 0.9999 0.0096
vn -0.0000 -0.6870 -0.7267
vn -0.2307 0.7201 0.6544
vn 0.1402 0.7028 -0.6975
vn -0.0000 0.9999 0.0114
vn -0.0000 0.6291 -0.7773
vn 0.1514 -0.6417 0.7518
vn 0.2521 0.6928 0.6756
vn -0.0037 0.9999 -0.0096
vn -0.2307 0.7201 -0.6544
vn -0.5454 0.6364 0.5454
vn -0.0063 1.0000 -0.0063
vn 0.3746 -0.6475 0.6637
vn -0.0036 0.9999 0.0095
vn 0.3468 0.7039 -0.6199
vn 0.2690 -0.6415 -0.7184
vn -0.0000 0.6998 -0.7143
vn -0.0000 0.6998 0.7143
vn 0.7143 0.6998 -0.0000
vn -0.7143 0.6998 -0.0000
vn -0.5346 -0.6546 -0.5346
vn 0.5346 -0.6546 -0.5346
vn 0.5346 -0.6546 0.5346
vn -0.5346 -0.6546 0.5346
vt 0.625000 0.218750
vt 0.541667 0.250000
vt 0.541667 0.218750
vt 0.625000 0.468750
vt 0.541667 0.500000
vt 0.541667 0.468750
vt 0.625000 0.718750
vt 0.541667 0.750000
vt 0.541667 0.718750
vt 0.625000 0.968750
vt 0.541667 1.000000
vt 0.541667 0.968750
vt 0.375000 0.250000
vt 0.375000 0.218750
vt 0.375000 0.218750
vt 0.638746 0.541559
vt 0.638746 0.513746
vt 0.375000 0.968750
vt 0.458333 1.000000
vt 0.375000 1.000000
vt 0.500000 1.000000
vt 0.500000 0.968750
vt 0.375000 0.718750
vt 0.458333 0.750000
vt 0.375000 0.750000
vt 0.500000 0.750000
vt 0.500000 0.718750
vt 0.375000 0.468750
vt 0.458333 0.500000
vt 0.375000 0.500000
vt 0.500000 0.500000
vt 0.500000 0.468750
vt 0.458333 0.250000
vt 0.500000 0.250000
vt 0.500000 0.218750
vt 0.343750 0.718750
vt 0.343750 0.750000
vt 0.861254 0.513746
vt 0.875000 0.531250
vt 0.861254 0.541559
vt 0.656250 0.500000
vt 0.666559 0.513746
vt 0.638746 0.736254
vt 0.638746 0.708441
vt 0.861254 0.736254
vt 0.843750 0.750000
vt 0.833441 0.736254
vt 0.833441 0.708441
vt 0.833441 0.736254
vt 0.861254 0.708441
vt 0.666559 0.736254
vt 0.666559 0.736254
vt 0.833441 0.513746
vt 0.833441 0.513746
vt 0.861254 0.597186
vt 0.861254 0.625000
vt 0.861254 0.597187
vt 0.833441 0.625000
vt 0.833441 0.597186
vt 0.638746 0.597186
vt 0.625000 0.625000
vt 0.625000 0.593750
vt 0.861254 0.652813
vt 0.875000 0.625000
vt 0.875000 0.656250
vt 0.375000 0.625000
vt 0.375000 0.593750
vt 0.343750 0.625000
vt 0.343750 0.593750
vt 0.500000 0.093750
vt 0.541667 0.125000
vt 0.500000 0.125000
vt 0.458333 0.093750
vt 0.375000 0.125000
vt 0.375000 0.093750
vt 0.500000 0.593750
vt 0.541667 0.625000
vt 0.500000 0.625000
vt 0.458333 0.593750
vt 0.638746 0.652814
vt 0.638746 0.625000
vt 0.638746 0.652813
vt 0.375000 0.093750
vt 0.541667 0.593750
vt 0.541667 0.093750
vt 0.625000 0.125000
vt 0.218750 0.593750
vt 0.250000 0.625000
vt 0.218750 0.625000
vt 0.722186 0.597186
vt 0.750000 0.625000
vt 0.722186 0.625000
vt 0.722187 0.513746
vt 0.750000 0.513746
vt 0.722186 0.513746
vt 0.777814 0.736254
vt 0.750000 0.736254
vt 0.777813 0.736254
vt 0.750000 0.708441
vt 0.722186 0.736254
vt 0.722186 0.708441
vt 0.722186 0.736254
vt 0.750000 0.750000
vt 0.718750 0.750000
vt 0.777814 0.513746
vt 0.750000 0.500000
vt 0.781250 0.500000
vt 0.375000 0.375000
vt 0.375000 0.343750
vt 0.375000 0.875000
vt 0.375000 0.843750
vt 0.250000 0.718750
vt 0.218750 0.750000
vt 0.218750 0.718750
vt 0.500000 0.343750
vt 0.541667 0.375000
vt 0.500000 0.375000
vt 0.458333 0.343750
vt 0.500000 0.843750
vt 0.541667 0.875000
vt 0.500000 0.875000
vt 0.458333 0.843750
vt 0.541667 0.843750
vt 0.625000 0.875000
vt 0.541667 0.343750
vt 0.625000 0.375000
vt 0.541667 0.781250
vt 0.625000 0.812500
vt 0.541667 0.812500
vt 0.458333 0.781250
vt 0.375000 0.812500
vt 0.375000 0.781250
vt 0.500000 0.781250
vt 0.500000 0.812500
vt 0.687500 0.750000
vt 0.656250 0.750000
vt 0.694373 0.708441
vt 0.666559 0.708441
vt 0.694373 0.513746
vt 0.666559 0.597186
vt 0.694373 0.625000
vt 0.666559 0.625000
vt 0.312500 0.593750
vt 0.281250 0.625000
vt 0.281250 0.593750
vt 0.694373 0.736254
vt 0.718750 0.500000
vt 0.375000 0.437500
vt 0.375000 0.406250
vt 0.281250 0.718750
vt 0.312500 0.750000
vt 0.281250 0.750000
vt 0.500000 0.406250
vt 0.541667 0.437500
vt 0.500000 0.437500
vt 0.458333 0.437500
vt 0.625000 0.406250
vt 0.541667 0.406250
vt 0.541667 0.281250
vt 0.625000 0.312500
vt 0.541667 0.312500
vt 0.458333 0.281250
vt 0.375000 0.312500
vt 0.375000 0.281250
vt 0.500000 0.281250
vt 0.500000 0.312500
vt 0.187500 0.718750
vt 0.156250 0.750000
vt 0.156250 0.718750
vt 0.812500 0.500000
vt 0.843750 0.500000
vt 0.805627 0.736254
vt 0.156250 0.593750
vt 0.187500 0.625000
vt 0.156250 0.625000
vt 0.805627 0.597186
vt 0.777813 0.625000
vt 0.777813 0.597186
vt 0.805627 0.513746
vt 0.777814 0.513746
vt 0.777813 0.708441
vt 0.805627 0.736254
vt 0.781250 0.750000
vt 0.375000 0.937500
vt 0.375000 0.906250
vt 0.375000 0.906250
vt 0.500000 0.906250
vt 0.541667 0.937500
vt 0.500000 0.937500
vt 0.458333 0.937500
vt 0.625000 0.906250
vt 0.541667 0.906250
vt 0.777813 0.652814
vt 0.805627 0.680627
vt 0.777814 0.680627
vt 0.187500 0.656250
vt 0.156250 0.687500
vt 0.156250 0.656250
vt 0.281250 0.656250
vt 0.312500 0.687500
vt 0.281250 0.687500
vt 0.694373 0.652813
vt 0.666559 0.680627
vt 0.666559 0.652813
vt 0.250000 0.656250
vt 0.218750 0.687500
vt 0.218750 0.656250
vt 0.750000 0.652813
vt 0.722186 0.680627
vt 0.722186 0.652813
vt 0.541667 0.031250
vt 0.625000 0.062500
vt 0.541667 0.062500
vt 0.375000 0.062500
vt 0.375000 0.031250
vt 0.375000 0.031250
vt 0.638746 0.680627
vt 0.638746 0.708441
vt 0.458333 0.031250
vt 0.500000 0.031250
vt 0.500000 0.062500
vt 0.875000 0.687500
vt 0.875000 0.718750
vt 0.861254 0.680627
vt 0.861254 0.652814
vt 0.833441 0.652814
vt 0.861254 0.680627
vt 0.833441 0.680627
vt 0.625000 0.656250
vt 0.375000 0.687500
vt 0.375000 0.656250
vt 0.343750 0.656250
vt 0.375000 0.687500
vt 0.343750 0.687500
vt 0.500000 0.656250
vt 0.541667 0.687500
vt 0.500000 0.687500
vt 0.458333 0.687500
vt 0.541667 0.656250
vt 0.805627 0.541559
vt 0.777814 0.569373
vt 0.777813 0.541559
vt 0.156250 0.531250
vt 0.187500 0.562500
vt 0.156250 0.562500
vt 0.312500 0.531250
vt 0.281250 0.562500
vt 0.281250 0.531250
vt 0.666559 0.541559
vt 0.694373 0.569373
vt 0.666559 0.569373
vt 0.722186 0.541559
vt 0.750000 0.569373
vt 0.722186 0.569373
vt 0.218750 0.531250
vt 0.250000 0.562500
vt 0.218750 0.562500
vt 0.541667 0.531250
vt 0.625000 0.562500
vt 0.541667 0.562500
vt 0.458333 0.531250
vt 0.375000 0.562500
vt 0.375000 0.531250
vt 0.500000 0.531250
vt 0.500000 0.562500
vt 0.343750 0.562500
vt 0.343750 0.531250
vt 0.625000 0.531250
vt 0.861254 0.541560
vt 0.833441 0.569373
vt 0.833441 0.541559
vt 0.861254 0.569373
vt 0.875000 0.593750
vt 0.500000 0.156250
vt 0.541667 0.187500
vt 0.500000 0.187500
vt 0.375000 0.156250
vt 0.458333 0.187500
vt 0.375000 0.187500
vt 0.638746 0.569373
vt 0.638746 0.597186
vt 0.375000 0.156250
vt 0.625000 0.156250
vt 0.541667 0.156250
vt 0.479167 0.187500
vt 0.479167 0.156250
vt 0.479167 0.562500
vt 0.479167 0.531250
vt 0.479167 0.687500
vt 0.479167 0.656250
vt 0.479167 0.062500
vt 0.479167 0.031250
vt 0.479167 0.937500
vt 0.479167 0.906250
vt 0.479167 0.312500
vt 0.479167 0.281250
vt 0.479167 0.437500
vt 0.479167 0.406250
vt 0.479167 0.812500
vt 0.479167 0.781250
vt 0.479167 0.875000
vt 0.479167 0.843750
vt 0.479167 0.375000
vt 0.479167 0.343750
vt 0.479167 0.625000
vt 0.479167 0.593750
vt 0.479167 0.125000
vt 0.479167 0.093750
vt 0.479167 0.218750
vt 0.479167 0.250000
vt 0.479167 0.468750
vt 0.479167 0.500000
vt 0.479167 0.718750
vt 0.479167 0.750000
vt 0.479167 0.968750
vt 0.479167 1.000000
vt 0.805627 0.569373
vt 0.125000 0.531250
vt 0.125000 0.562500
vt 0.805627 0.652814
vt 0.125000 0.687500
vt 0.125000 0.656250
vt 0.125000 0.593750
vt 0.125000 0.625000
vt 0.875000 0.500000
vt 0.125000 0.750000
vt 0.125000 0.718750
vt 0.625000 0.281250
vt 0.805627 0.625000
vt 0.805627 0.513746
vt 0.805627 0.708441
vt 0.812500 0.750000
vt 0.375000 0.937500
vt 0.458333 0.968750
vt 0.625000 0.937500
vt 0.125000 0.500000
vt 0.625000 0.500000
vt 0.343750 0.500000
vt 0.218750 0.500000
vt 0.250000 0.531250
vt 0.750000 0.541559
vt 0.694373 0.541559
vt 0.312500 0.500000
vt 0.281250 0.500000
vt 0.156250 0.500000
vt 0.187500 0.531250
vt 0.875000 0.562500
vt 0.458333 0.218750
vt 0.638746 0.569373
vt 0.375000 0.187500
vt 0.625000 0.187500
vt 0.458333 0.156250
vt 0.861254 0.625000
vt 0.187500 0.593750
vt 0.312500 0.562500
vt 0.694373 0.597186
vt 0.750000 0.597186
vt 0.250000 0.593750
vt 0.458333 0.562500
vt 0.375000 0.562500
vt 0.861254 0.569373
vt 0.458333 0.656250
vt 0.312500 0.656250
vt 0.625000 0.093750
vt 0.375000 0.062500
vt 0.638746 0.680627
vt 0.458333 0.062500
vt 0.500000 0.000000
vt 0.479167 0.000000
vt 0.875000 0.750000
vt 0.458333 0.000000
vt 0.375000 0.000000
vt 0.541667 0.000000
vt 0.625000 0.031250
vt 0.187500 0.687500
vt 0.312500 0.718750
vt 0.694373 0.680627
vt 0.250000 0.687500
vt 0.750000 0.680627
vt 0.625000 0.687500
vt 0.458333 0.718750
vt 0.187500 0.500000
vt 0.458333 0.906250
vt 0.750000 0.736254
vt 0.750000 0.513746
vt 0.625000 0.343750
vt 0.458333 0.312500
vt 0.187500 0.750000
vt 0.375000 0.312500
vt 0.250000 0.500000
vt 0.694373 0.513746
vt 0.458333 0.406250
vt 0.250000 0.750000
vt 0.625000 0.843750
vt 0.458333 0.812500
vt 0.375000 0.812500
vt 0.694373 0.736254
vt 0.312500 0.625000
vt 0.625000 0.750000
vt 0.625000 0.781250
vt 0.687500 0.500000
vt 0.375000 0.437500
vt 0.458333 0.468750
vt 0.625000 0.437500
vt 0.458333 0.375000
vt 0.458333 0.875000
vt 0.458333 0.625000
vt 0.458333 0.125000
vt 0.625000 0.250000
vt 0.625000 1.000000
vt 0.625000 0.000000
s 1
usemtl マテリアル
f 169/1/1 11/2/2 172/3/3
f 325/4/4 13/5/5 328/6/6
f 242/7/7 15/8/8 244/9/9
f 148/10/10 10/11/11 150/12/12
f 3/13/13 180/14/14 176/15/15
f 181/16/16 27/17/17 182/16/18
f 156/18/19 9/19/20 1/20/21
f 150/12/12 131/21/22 168/22/23
f 255/23/24 16/24/25 5/25/26
f 244/9/9 134/26/27 262/27/28
f 333/28/29 14/29/30 7/30/31
f 328/6/6 133/31/32 346/32/33
f 176/15/15 12/33/34 3/13/13
f 172/3/3 132/34/35 190/35/36
f 354/36/37 19/25/38 329/37/39
f 5/25/26 258/23/40 255/23/24
f 1/20/21 159/18/41 156/18/19
f 7/30/31 337/28/42 333/28/29
f 4/38/43 169/39/44 174/40/45
f 8/17/46 325/41/47 330/42/48
f 6/43/49 242/7/50 246/44/51
f 2/45/52 148/46/53 152/47/54
f 264/48/55 25/45/56 153/49/57
f 259/50/58 25/45/56 260/50/59
f 338/51/60 28/43/61 339/52/62
f 160/53/63 26/38/64 161/54/65
f 211/55/66 41/56/67 212/57/68
f 212/57/68 162/58/69 216/59/70
f 198/60/71 32/61/72 194/62/73
f 222/63/74 30/64/75 217/65/76
f 31/66/77 210/67/78 207/67/79
f 210/67/78 340/68/37 350/69/37
f 238/70/80 36/71/81 135/72/82
f 219/73/83 29/74/84 224/75/85
f 214/76/86 34/77/87 136/78/88
f 195/79/89 31/66/77 207/67/79
f 229/80/90 42/81/91 230/82/92
f 29/74/84 228/83/93 224/75/85
f 196/84/94 32/61/95 34/77/87
f 220/85/96 30/86/97 36/71/81
f 290/87/37 58/88/37 280/89/37
f 320/90/98 57/91/99 310/92/100
f 308/93/101 55/94/102 309/95/103
f 278/96/104 56/97/105 279/98/106
f 248/99/107 301/100/108 324/101/109
f 300/102/110 46/103/111 296/104/112
f 270/105/113 44/106/114 265/107/115
f 43/108/116 277/109/117 273/109/118
f 45/110/119 307/111/120 304/111/121
f 249/112/37 269/113/122 294/114/37
f 286/115/123 50/116/124 137/117/125
f 267/118/126 43/108/116 273/109/118
f 316/119/127 48/120/128 138/121/129
f 297/122/130 45/110/119 304/111/121
f 298/123/131 46/124/132 48/120/128
f 268/125/133 44/126/134 50/116/124
f 336/127/135 68/128/136 70/129/137
f 335/130/138 60/131/139 326/132/140
f 345/133/141 70/129/137 139/134/142
f 60/131/139 329/132/39 326/132/140
f 338/51/143 68/135/144 334/136/145
f 250/137/146 339/52/62 353/138/147
f 64/139/148 331/42/149 330/42/150
f 349/140/151 66/141/152 332/142/153
f 203/143/37 302/144/37 319/145/37
f 72/146/154 301/100/108 300/102/155
f 64/139/156 303/147/157 308/93/158
f 67/148/159 299/149/160 295/149/161
f 323/150/37 63/151/162 307/152/120
f 315/153/163 62/154/164 140/155/165
f 295/149/161 61/156/166 67/148/159
f 303/157/167 62/154/164 306/158/168
f 158/159/169 83/160/170 86/161/171
f 157/162/172 75/163/173 147/164/174
f 167/165/175 86/161/171 141/166/176
f 252/167/37 159/168/41 263/169/37
f 75/163/173 151/164/177 147/164/174
f 160/53/178 83/170/179 155/171/180
f 80/172/181 153/49/57 152/47/182
f 215/173/37 82/174/37 154/175/37
f 205/176/183 272/177/184 289/178/185
f 88/179/186 271/180/187 270/105/188
f 293/181/189 81/182/190 279/98/106
f 80/172/191 274/183/192 278/96/193
f 84/184/194 269/185/122 266/186/195
f 285/187/196 78/188/197 142/189/198
f 266/186/195 77/190/199 84/184/194
f 274/191/200 78/188/197 276/192/201
f 292/193/202 110/194/203 281/195/204
f 235/196/37 163/197/37 240/198/37
f 322/199/37 108/200/37 311/201/37
f 233/202/205 341/203/206 352/204/207
f 232/205/37 282/206/37 291/207/37
f 231/208/208 312/209/209 321/210/210
f 257/211/211 98/212/212 101/213/213
f 91/214/214 245/215/215 241/216/216
f 96/217/217 247/218/218 246/44/219
f 256/219/220 91/214/214 241/216/216
f 261/220/221 101/213/213 143/221/222
f 259/50/223 98/222/224 254/223/225
f 103/224/226 223/225/227 222/63/228
f 239/226/229 104/227/230 164/228/231
f 96/217/232 225/229/233 229/80/234
f 99/230/235 221/231/236 218/231/237
f 351/232/37 102/233/238 342/234/37
f 237/235/239 94/236/240 144/237/241
f 218/231/237 93/238/242 99/230/235
f 225/229/243 94/236/240 227/239/244
f 188/240/245 283/241/246 288/242/247
f 192/243/37 129/244/37 165/245/37
f 186/246/37 313/247/37 318/248/37
f 348/249/248 127/250/249 343/251/250
f 317/252/251 126/253/252 314/254/253
f 287/255/37 125/256/37 284/257/37
f 179/258/254 119/259/255 121/260/256
f 178/261/257 112/262/258 170/263/259
f 189/264/260 121/260/256 145/265/261
f 173/263/262 344/266/37 347/267/37
f 112/262/258 173/263/262 170/263/259
f 181/16/263 119/259/264 177/268/265
f 175/269/266 166/270/267 191/271/268
f 116/272/269 175/269/266 174/40/270
f 116/272/271 206/273/272 211/55/273
f 213/274/274 114/275/275 146/276/276
f 193/277/277 113/278/278 118/279/279
f 123/280/280 199/281/281 198/60/282
f 118/279/279 197/282/283 193/277/277
f 206/283/284 114/275/275 209/284/285
f 213/274/274 369/285/286 376/286/287
f 189/264/260 368/287/288 374/288/289
f 237/235/239 367/289/290 378/290/291
f 261/220/221 366/291/292 380/292/293
f 285/187/196 365/293/294 382/294/295
f 167/165/175 364/295/296 372/296/297
f 315/153/163 363/297/298 384/298/299
f 345/133/141 362/299/300 386/300/301
f 316/119/127 361/301/302 383/302/303
f 286/115/123 360/303/304 381/304/305
f 214/76/86 359/305/306 375/306/307
f 238/70/80 358/307/308 377/308/309
f 373/309/310 132/34/35 355/310/311
f 385/311/312 133/31/32 356/312/313
f 379/313/314 134/26/27 357/314/315
f 371/315/316 131/21/22 370/316/317
f 365/293/294 168/22/23 371/315/316
f 132/34/35 372/296/297 355/310/311
f 191/271/268 130/317/318 188/240/245
f 180/318/14 165/245/37 122/319/319
f 236/320/320 164/228/231 110/194/203
f 240/198/37 95/321/321 228/322/93
f 197/323/283 154/175/37 37/324/322
f 152/47/182 25/45/56 2/45/323
f 4/38/43 155/171/180 22/325/324
f 147/164/174 18/13/325 3/13/13
f 263/169/37 17/326/326 245/327/215
f 132/34/35 158/159/169 167/165/175
f 12/33/34 147/164/174 3/13/13
f 11/2/2 155/328/327 158/159/169
f 216/59/70 90/329/328 205/176/183
f 88/179/186 161/54/65 89/330/329
f 253/331/330 153/49/57 81/182/190
f 152/47/54 76/332/331 80/172/191
f 156/18/19 87/333/332 84/184/194
f 78/188/197 168/22/23 142/189/198
f 84/184/194 149/334/333 156/18/19
f 76/335/334 150/12/12 78/188/197
f 18/336/325 192/243/37 180/318/14
f 161/54/65 188/240/245 89/330/329
f 369/285/286 190/35/36 373/309/310
f 133/31/32 374/288/289 356/312/313
f 174/40/270 26/38/64 4/38/335
f 26/38/64 191/271/268 161/54/65
f 8/17/46 177/268/265 23/337/336
f 170/263/259 20/30/337 7/30/31
f 20/30/337 347/267/37 337/338/42
f 133/31/32 179/258/254 189/264/260
f 14/29/30 170/263/259 7/30/31
f 13/5/5 177/268/338 179/258/254
f 277/339/117 183/340/37 287/255/37
f 309/95/103 184/341/339 317/252/251
f 331/42/149 185/342/340 348/249/248
f 71/343/341 318/248/37 299/344/160
f 151/345/177 187/346/37 192/243/37
f 89/330/329 288/242/247 271/180/187
f 174/40/45 111/347/342 116/272/271
f 114/275/275 190/35/36 146/276/276
f 118/279/279 171/348/343 176/15/15
f 123/280/280 182/16/18 124/349/344
f 176/15/15 122/350/319 118/279/279
f 111/351/345 172/3/3 114/275/275
f 166/270/267 205/176/183 130/317/318
f 122/319/319 215/173/37 197/323/283
f 368/287/288 214/76/86 375/306/307
f 358/307/308 213/274/274 376/286/287
f 30/86/97 209/284/285 36/71/81
f 193/277/277 37/74/322 29/74/84
f 198/60/282 42/81/91 40/81/346
f 29/74/84 208/352/347 193/277/277
f 36/71/81 213/274/274 135/72/82
f 211/55/273 30/64/75 39/353/348
f 130/317/318 289/178/185 283/241/246
f 165/245/37 204/354/37 215/173/37
f 128/355/37 319/145/37 313/247/37
f 343/251/250 202/356/349 349/140/151
f 314/254/253 201/357/350 320/90/98
f 284/257/37 200/358/37 290/87/37
f 121/260/256 194/62/351 196/84/94
f 120/359/352 207/67/79 112/262/258
f 121/260/256 214/76/86 145/265/261
f 115/360/353 350/69/37 344/266/37
f 207/67/79 115/360/353 112/262/258
f 123/280/354 194/62/73 119/259/264
f 117/361/355 216/59/70 166/270/267
f 116/272/269 212/57/68 117/361/355
f 154/175/37 228/322/93 37/324/322
f 90/329/328 239/226/229 236/320/320
f 366/291/292 238/70/80 377/308/309
f 359/305/306 237/235/239 378/290/291
f 32/61/95 227/239/244 34/77/87
f 31/66/77 226/362/356 218/231/237
f 34/77/87 237/235/239 136/78/88
f 340/68/37 221/231/236 351/232/37
f 218/231/237 38/66/357 31/66/77
f 229/80/234 32/61/72 40/81/358
f 162/58/69 223/225/227 239/226/229
f 222/63/228 41/56/67 39/353/359
f 57/91/99 321/210/210 310/92/100
f 58/88/37 291/207/37 280/89/37
f 66/141/152 352/204/207 332/142/153
f 302/144/37 234/363/37 322/199/37
f 82/174/37 240/198/37 154/175/37
f 272/177/184 236/320/320 292/193/202
f 101/213/213 217/364/360 220/85/96
f 224/75/85 95/365/321 91/214/214
f 96/217/217 230/82/92 97/366/361
f 100/367/362 224/75/85 91/214/214
f 101/213/213 238/70/80 143/221/222
f 103/224/363 217/65/76 98/222/224
f 110/194/203 264/48/55 253/331/330
f 163/197/37 245/327/215 95/321/321
f 367/289/290 262/27/28 379/313/314
f 131/368/22 380/292/293 370/369/317
f 2/45/52 254/223/225 21/370/364
f 131/368/22 257/211/211 261/220/221
f 9/371/20 241/216/216 1/372/21
f 246/44/219 28/43/61 6/43/365
f 241/216/216 17/372/326 1/372/21
f 10/373/11 254/374/366 257/211/211
f 281/195/204 253/331/330 293/181/189
f 109/375/37 263/169/37 163/197/37
f 311/201/37 251/376/37 323/150/37
f 107/377/367 353/138/147 341/203/206
f 106/378/37 294/114/37 282/206/37
f 105/379/368 324/101/109 312/209/209
f 103/224/226 260/50/59 104/227/230
f 164/228/231 260/50/59 264/48/55
f 246/44/51 92/380/369 96/217/232
f 255/23/24 102/233/238 99/230/235
f 342/234/37 258/23/40 354/36/37
f 94/236/240 262/27/28 144/237/241
f 99/230/235 243/381/370 255/23/24
f 92/380/371 244/9/9 94/236/240
f 282/206/37 252/167/37 109/375/37
f 105/379/368 293/181/189 248/99/107
f 57/91/99 292/193/202 231/208/208
f 280/89/37 235/196/37 82/174/37
f 129/244/37 290/87/37 204/354/37
f 283/241/246 201/357/350 126/253/252
f 271/180/187 184/341/339 55/94/102
f 79/382/372 287/255/37 187/346/37
f 364/295/296 286/115/123 381/304/305
f 361/301/302 285/187/196 382/294/295
f 187/346/37 284/257/37 129/244/37
f 288/242/247 126/253/252 184/341/339
f 291/207/37 109/375/37 235/196/37
f 231/208/208 281/195/204 105/379/368
f 46/124/132 276/192/201 48/120/128
f 45/110/119 275/383/373 266/186/195
f 48/120/128 285/187/196 138/121/129
f 266/186/195 52/110/374 45/110/119
f 278/96/193 46/103/111 54/384/375
f 248/99/107 279/98/106 56/97/105
f 270/105/188 55/94/102 53/385/376
f 289/178/185 57/91/99 201/357/350
f 86/161/171 265/386/377 268/125/133
f 85/387/378 273/109/118 75/163/173
f 86/161/171 286/115/123 141/166/176
f 294/114/37 87/388/332 252/167/37
f 273/109/118 79/389/372 75/163/173
f 88/179/379 265/107/115 83/170/179
f 80/172/181 279/98/106 81/182/190
f 204/354/37 280/89/37 82/174/37
f 312/209/209 250/137/146 107/377/367
f 106/378/37 323/150/37 249/112/37
f 58/88/37 322/199/37 232/205/37
f 310/92/100 233/202/205 66/141/152
f 127/250/249 320/90/98 202/356/349
f 313/247/37 200/358/37 125/256/37
f 299/344/160 183/340/37 51/390/380
f 65/391/381 317/252/251 185/342/340
f 362/299/300 316/119/127 383/302/303
f 360/303/304 315/153/163 384/298/299
f 185/342/340 314/254/253 127/250/249
f 318/248/37 125/256/37 183/340/37
f 321/210/210 107/377/367 233/202/205
f 232/205/37 311/201/37 106/378/37
f 44/126/134 306/158/168 50/116/124
f 43/108/116 305/392/382 295/149/161
f 50/116/124 315/153/163 137/117/125
f 249/112/37 307/152/120 52/393/374
f 295/149/161 51/108/380 43/108/116
f 308/93/158 44/106/114 53/385/383
f 300/102/155 56/97/105 54/384/384
f 319/145/37 58/88/37 200/358/37
f 70/129/137 296/394/385 298/123/131
f 69/395/386 304/111/121 60/131/139
f 70/129/137 316/119/127 139/134/142
f 304/111/121 63/396/162 60/131/139
f 72/146/387 296/104/112 68/135/144
f 324/101/109 73/397/388 250/137/146
f 64/139/148 309/95/103 65/391/381
f 202/356/349 310/92/100 66/141/152
f 108/200/37 354/36/37 251/376/37
f 341/203/206 247/218/218 97/366/361
f 332/142/153 230/82/92 42/81/91
f 74/398/37 351/232/37 234/363/37
f 344/266/37 203/143/37 128/355/37
f 124/349/344 349/140/151 199/281/281
f 27/17/17 348/249/248 182/16/18
f 337/338/42 186/246/37 71/343/341
f 363/297/298 346/32/33 385/311/312
f 134/26/27 386/300/301 357/314/315
f 347/267/37 128/355/37 186/246/37
f 182/16/18 343/251/250 124/349/344
f 234/363/37 342/234/37 108/200/37
f 352/204/207 97/366/361 230/82/92
f 199/281/281 332/142/153 42/81/91
f 330/42/150 27/17/17 8/17/389
f 353/138/147 28/43/61 247/218/218
f 6/43/49 334/136/145 24/399/390
f 326/132/140 19/25/38 5/25/26
f 134/26/27 336/127/135 345/133/141
f 16/24/25 326/132/140 5/25/26
f 15/8/8 334/400/391 336/127/135
f 350/69/37 74/398/37 203/143/37
f 72/146/154 339/52/62 73/397/388
f 330/42/48 59/401/392 64/139/156
f 333/28/29 71/402/341 67/148/159
f 251/376/37 329/37/39 63/151/162
f 62/154/164 346/32/33 140/155/165
f 67/148/159 327/403/393 333/28/29
f 59/404/394 328/6/6 62/154/164
f 357/314/315 335/130/138 16/24/25
f 61/156/166 385/311/312 327/403/393
f 49/405/395 384/298/299 305/392/382
f 362/299/300 297/122/130 69/395/386
f 47/406/396 382/294/295 275/383/373
f 364/295/296 267/118/126 85/387/378
f 370/369/317 256/219/220 9/371/20
f 93/238/242 379/313/314 243/381/370
f 33/407/397 378/290/291 226/362/356
f 366/291/292 219/73/83 100/367/362
f 35/408/398 376/286/287 208/352/347
f 368/287/288 195/79/89 120/359/352
f 356/312/313 178/261/257 14/29/30
f 113/278/278 373/309/310 171/348/343
f 355/310/311 157/162/172 12/33/34
f 77/190/199 371/315/316 149/334/333
f 149/334/333 370/316/317 9/19/20
f 243/381/370 357/314/315 16/24/25
f 327/403/393 356/312/313 14/29/30
f 171/348/343 355/310/311 12/33/34
f 377/308/309 35/408/398 219/73/83
f 375/306/307 33/407/397 195/79/89
f 381/304/305 49/405/395 267/118/126
f 383/302/303 47/406/396 297/122/130
f 386/300/301 69/395/386 335/130/138
f 305/392/382 363/297/298 61/156/166
f 372/296/297 85/387/378 157/162/172
f 275/383/373 365/293/294 77/190/199
f 380/292/293 100/367/362 256/219/220
f 226/362/356 367/289/290 93/238/242
f 374/288/289 120/359/352 178/261/257
f 208/352/347 369/285/286 113/278/278
f 169/1/1 22/409/399 11/2/2
f 325/4/4 23/337/400 13/5/5
f 242/7/7 24/399/401 15/8/8
f 148/10/10 21/410/402 10/11/11
f 3/13/13 18/13/325 180/14/14
f 181/16/16 8/17/389 27/17/17
f 156/18/19 149/334/333 9/19/20
f 150/12/12 10/11/11 131/21/22
f 255/23/24 243/381/370 16/24/25
f 244/9/9 15/8/8 134/26/27
f 333/28/29 327/403/393 14/29/30
f 328/6/6 13/5/5 133/31/32
f 176/15/15 171/348/343 12/33/34
f 172/3/3 11/2/2 132/34/35
f 354/36/37 258/23/40 19/25/38
f 5/25/26 19/25/38 258/23/40
f 1/20/21 17/20/326 159/18/41
f 7/30/31 20/30/337 337/28/42
f 4/38/43 22/325/324 169/39/44
f 8/17/46 23/337/336 325/41/47
f 6/43/49 24/399/390 242/7/50
f 2/45/52 21/370/364 148/46/53
f 264/48/55 260/50/59 25/45/56
f 259/50/58 2/45/323 25/45/56
f 338/51/60 6/43/365 28/43/61
f 160/53/63 4/38/335 26/38/64
f 211/55/66 39/353/359 41/56/67
f 212/57/68 41/56/67 162/58/69
f 198/60/71 40/81/358 32/61/72
f 222/63/74 39/353/348 30/64/75
f 31/66/77 38/66/357 210/67/78
f 210/67/78 38/66/357 340/68/37
f 238/70/80 220/85/96 36/71/81
f 219/73/83 35/408/398 29/74/84
f 214/76/86 196/84/94 34/77/87
f 195/79/89 33/407/397 31/66/77
f 229/80/90 40/81/346 42/81/91
f 29/74/84 37/74/322 228/83/93
f 196/84/94 194/62/351 32/61/95
f 220/85/96 217/364/360 30/86/97
f 290/87/37 200/358/37 58/88/37
f 320/90/98 201/357/350 57/91/99
f 308/93/101 53/385/376 55/94/102
f 278/96/104 54/384/384 56/97/105
f 248/99/107 56/97/105 301/100/108
f 300/102/110 54/384/375 46/103/111
f 270/105/113 53/385/383 44/106/114
f 43/108/116 51/108/380 277/109/117
f 45/110/119 52/110/374 307/111/120
f 249/112/37 52/393/374 269/113/122
f 286/115/123 268/125/133 50/116/124
f 267/118/126 49/405/395 43/108/116
f 316/119/127 298/123/131 48/120/128
f 297/122/130 47/406/396 45/110/119
f 298/123/131 296/394/385 46/124/132
f 268/125/133 265/386/377 44/126/134
f 336/127/135 334/400/391 68/128/136
f 335/130/138 69/395/386 60/131/139
f 345/133/141 336/127/135 70/129/137
f 60/131/139 63/396/162 329/132/39
f 338/51/143 72/146/387 68/135/144
f 250/137/146 73/397/388 339/52/62
f 64/139/148 65/391/381 331/42/149
f 349/140/151 202/356/349 66/141/152
f 203/143/37 74/398/37 302/144/37
f 72/146/154 73/397/388 301/100/108
f 64/139/156 59/401/392 303/147/157
f 67/148/159 71/402/341 299/149/160
f 323/150/37 251/376/37 63/151/162
f 315/153/163 306/158/168 62/154/164
f 295/149/161 305/392/382 61/156/166
f 303/157/167 59/404/394 62/154/164
f 158/159/169 155/328/327 83/160/170
f 157/162/172 85/387/378 75/163/173
f 167/165/175 158/159/169 86/161/171
f 252/167/37 87/388/332 159/168/41
f 75/163/173 79/389/372 151/164/177
f 160/53/178 88/179/379 83/170/179
f 80/172/181 81/182/190 153/49/57
f 215/173/37 204/354/37 82/174/37
f 205/176/183 90/329/328 272/177/184
f 88/179/186 89/330/329 271/180/187
f 293/181/189 253/331/330 81/182/190
f 80/172/191 76/332/331 274/183/192
f 84/184/194 87/333/332 269/185/122
f 285/187/196 276/192/201 78/188/197
f 266/186/195 275/383/373 77/190/199
f 274/191/200 76/335/334 78/188/197
f 292/193/202 236/320/320 110/194/203
f 235/196/37 109/375/37 163/197/37
f 322/199/37 234/363/37 108/200/37
f 233/202/205 107/377/367 341/203/206
f 232/205/37 106/378/37 282/206/37
f 231/208/208 105/379/368 312/209/209
f 257/211/211 254/374/366 98/212/212
f 91/214/214 95/365/321 245/215/215
f 96/217/217 97/366/361 247/218/218
f 256/219/220 100/367/362 91/214/214
f 261/220/221 257/211/211 101/213/213
f 259/50/223 103/224/363 98/222/224
f 103/224/226 104/227/230 223/225/227
f 239/226/229 223/225/227 104/227/230
f 96/217/232 92/380/369 225/229/233
f 99/230/235 102/233/238 221/231/236
f 351/232/37 221/231/236 102/233/238
f 237/235/239 227/239/244 94/236/240
f 218/231/237 226/362/356 93/238/242
f 225/229/243 92/380/371 94/236/240
f 188/240/245 130/317/318 283/241/246
f 192/243/37 187/346/37 129/244/37
f 186/246/37 128/355/37 313/247/37
f 348/249/248 185/342/340 127/250/249
f 317/252/251 184/341/339 126/253/252
f 287/255/37 183/340/37 125/256/37
f 179/258/254 177/268/338 119/259/255
f 178/261/257 120/359/352 112/262/258
f 189/264/260 179/258/254 121/260/256
f 173/263/262 115/360/353 344/266/37
f 112/262/258 115/360/353 173/263/262
f 181/16/263 123/280/354 119/259/264
f 175/269/266 117/361/355 166/270/267
f 116/272/269 117/361/355 175/269/266
f 116/272/271 111/347/342 206/273/272
f 213/274/274 209/284/285 114/275/275
f 193/277/277 208/352/347 113/278/278
f 123/280/280 124/349/344 199/281/281
f 118/279/279 122/350/319 197/282/283
f 206/283/284 111/351/345 114/275/275
f 213/274/274 146/276/276 369/285/286
f 189/264/260 145/265/261 368/287/288
f 237/235/239 144/237/241 367/289/290
f 261/220/221 143/221/222 366/291/292
f 285/187/196 142/189/198 365/293/294
f 167/165/175 141/166/176 364/295/296
f 315/153/163 140/155/165 363/297/298
f 345/133/141 139/134/142 362/299/300
f 316/119/127 138/121/129 361/301/302
f 286/115/123 137/117/125 360/303/304
f 214/76/86 136/78/88 359/305/306
f 238/70/80 135/72/82 358/307/308
f 373/309/310 190/35/36 132/34/35
f 385/311/312 346/32/33 133/31/32
f 379/313/314 262/27/28 134/26/27
f 371/315/316 168/22/23 131/21/22
f 365/293/294 142/189/198 168/22/23
f 132/34/35 167/165/175 372/296/297
f 191/271/268 166/270/267 130/317/318
f 180/318/14 192/243/37 165/245/37
f 236/320/320 239/226/229 164/228/231
f 240/198/37 163/197/37 95/321/321
f 197/323/283 215/173/37 154/175/37
f 152/47/182 153/49/57 25/45/56
f 4/38/43 160/53/178 155/171/180
f 147/164/174 151/164/177 18/13/325
f 263/169/37 159/168/41 17/326/326
f 132/34/35 11/2/2 158/159/169
f 12/33/34 157/162/172 147/164/174
f 11/2/2 22/409/399 155/328/327
f 216/59/70 162/58/69 90/329/328
f 88/179/186 160/53/63 161/54/65
f 253/331/330 264/48/55 153/49/57
f 152/47/54 148/46/53 76/332/331
f 156/18/19 159/18/41 87/333/332
f 78/188/197 150/12/12 168/22/23
f 84/184/194 77/190/199 149/334/333
f 76/335/334 148/10/10 150/12/12
f 18/336/325 151/345/177 192/243/37
f 161/54/65 191/271/268 188/240/245
f 369/285/286 146/276/276 190/35/36
f 133/31/32 189/264/260 374/288/289
f 174/40/270 175/269/266 26/38/64
f 26/38/64 175/269/266 191/271/268
f 8/17/46 181/16/263 177/268/265
f 170/263/259 173/263/262 20/30/337
f 20/30/337 173/263/262 347/267/37
f 133/31/32 13/5/5 179/258/254
f 14/29/30 178/261/257 170/263/259
f 13/5/5 23/337/400 177/268/338
f 277/339/117 51/390/380 183/340/37
f 309/95/103 55/94/102 184/341/339
f 331/42/149 65/391/381 185/342/340
f 71/343/341 186/246/37 318/248/37
f 151/345/177 79/382/372 187/346/37
f 89/330/329 188/240/245 288/242/247
f 174/40/45 169/39/44 111/347/342
f 114/275/275 172/3/3 190/35/36
f 118/279/279 113/278/278 171/348/343
f 123/280/280 181/16/16 182/16/18
f 176/15/15 180/14/14 122/350/319
f 111/351/345 169/1/1 172/3/3
f 166/270/267 216/59/70 205/176/183
f 122/319/319 165/245/37 215/173/37
f 368/287/288 145/265/261 214/76/86
f 358/307/308 135/72/82 213/274/274
f 30/86/97 206/283/284 209/284/285
f 193/277/277 197/282/283 37/74/322
f 198/60/282 199/281/281 42/81/91
f 29/74/84 35/408/398 208/352/347
f 36/71/81 209/284/285 213/274/274
f 211/55/273 206/273/272 30/64/75
f 130/317/318 205/176/183 289/178/185
f 165/245/37 129/244/37 204/354/37
f 128/355/37 203/143/37 319/145/37
f 343/251/250 127/250/249 202/356/349
f 314/254/253 126/253/252 201/357/350
f 284/257/37 125/256/37 200/358/37
f 121/260/256 119/259/255 194/62/351
f 120/359/352 195/79/89 207/67/79
f 121/260/256 196/84/94 214/76/86
f 115/360/353 210/67/78 350/69/37
f 207/67/79 210/67/78 115/360/353
f 123/280/354 198/60/71 194/62/73
f 117/361/355 212/57/68 216/59/70
f 116/272/269 211/55/66 212/57/68
f 154/175/37 240/198/37 228/322/93
f 90/329/328 162/58/69 239/226/229
f 366/291/292 143/221/222 238/70/80
f 359/305/306 136/78/88 237/235/239
f 32/61/95 225/229/243 227/239/244
f 31/66/77 33/407/397 226/362/356
f 34/77/87 227/239/244 237/235/239
f 340/68/37 38/66/357 221/231/236
f 218/231/237 221/231/236 38/66/357
f 229/80/234 225/229/233 32/61/72
f 162/58/69 41/56/67 223/225/227
f 222/63/228 223/225/227 41/56/67
f 57/91/99 231/208/208 321/210/210
f 58/88/37 232/205/37 291/207/37
f 66/141/152 233/202/205 352/204/207
f 302/144/37 74/398/37 234/363/37
f 82/174/37 235/196/37 240/198/37
f 272/177/184 90/329/328 236/320/320
f 101/213/213 98/212/212 217/364/360
f 224/75/85 228/83/93 95/365/321
f 96/217/217 229/80/90 230/82/92
f 100/367/362 219/73/83 224/75/85
f 101/213/213 220/85/96 238/70/80
f 103/224/363 222/63/74 217/65/76
f 110/194/203 164/228/231 264/48/55
f 163/197/37 263/169/37 245/327/215
f 367/289/290 144/237/241 262/27/28
f 131/368/22 261/220/221 380/292/293
f 2/45/52 259/50/223 254/223/225
f 131/368/22 10/373/11 257/211/211
f 9/371/20 256/219/220 241/216/216
f 246/44/219 247/218/218 28/43/61
f 241/216/216 245/215/215 17/372/326
f 10/373/11 21/411/402 254/374/366
f 281/195/204 110/194/203 253/331/330
f 109/375/37 252/167/37 263/169/37
f 311/201/37 108/200/37 251/376/37
f 107/377/367 250/137/146 353/138/147
f 106/378/37 249/112/37 294/114/37
f 105/379/368 248/99/107 324/101/109
f 103/224/226 259/50/58 260/50/59
f 164/228/231 104/227/230 260/50/59
f 246/44/51 242/7/50 92/380/369
f 255/23/24 258/23/40 102/233/238
f 342/234/37 102/233/238 258/23/40
f 94/236/240 244/9/9 262/27/28
f 99/230/235 93/238/242 243/381/370
f 92/380/371 242/7/7 244/9/9
f 282/206/37 294/114/37 252/167/37
f 105/379/368 281/195/204 293/181/189
f 57/91/99 272/177/184 292/193/202
f 280/89/37 291/207/37 235/196/37
f 129/244/37 284/257/37 290/87/37
f 283/241/246 289/178/185 201/357/350
f 271/180/187 288/242/247 184/341/339
f 79/382/372 277/339/117 287/255/37
f 364/295/296 141/166/176 286/115/123
f 361/301/302 138/121/129 285/187/196
f 187/346/37 287/255/37 284/257/37
f 288/242/247 283/241/246 126/253/252
f 291/207/37 282/206/37 109/375/37
f 231/208/208 292/193/202 281/195/204
f 46/124/132 274/191/200 276/192/201
f 45/110/119 47/406/396 275/383/373
f 48/120/128 276/192/201 285/187/196
f 266/186/195 269/185/122 52/110/374
f 278/96/193 274/183/192 46/103/111
f 248/99/107 293/181/189 279/98/106
f 270/105/188 271/180/187 55/94/102
f 289/178/185 272/177/184 57/91/99
f 86/161/171 83/160/170 265/386/377
f 85/387/378 267/118/126 273/109/118
f 86/161/171 268/125/133 286/115/123
f 294/114/37 269/113/122 87/388/332
f 273/109/118 277/109/117 79/389/372
f 88/179/379 270/105/113 265/107/115
f 80/172/181 278/96/104 279/98/106
f 204/354/37 290/87/37 280/89/37
f 312/209/209 324/101/109 250/137/146
f 106/378/37 311/201/37 323/150/37
f 58/88/37 302/144/37 322/199/37
f 310/92/100 321/210/210 233/202/205
f 127/250/249 314/254/253 320/90/98
f 313/247/37 319/145/37 200/358/37
f 299/344/160 318/248/37 183/340/37
f 65/391/381 309/95/103 317/252/251
f 362/299/300 139/134/142 316/119/127
f 360/303/304 137/117/125 315/153/163
f 185/342/340 317/252/251 314/254/253
f 318/248/37 313/247/37 125/256/37
f 321/210/210 312/209/209 107/377/367
f 232/205/37 322/199/37 311/201/37
f 44/126/134 303/157/167 306/158/168
f 43/108/116 49/405/395 305/392/382
f 50/116/124 306/158/168 315/153/163
f 249/112/37 323/150/37 307/152/120
f 295/149/161 299/149/160 51/108/380
f 308/93/158 303/147/157 44/106/114
f 300/102/155 301/100/108 56/97/105
f 319/145/37 302/144/37 58/88/37
f 70/129/137 68/128/136 296/394/385
f 69/395/386 297/122/130 304/111/121
f 70/129/137 298/123/131 316/119/127
f 304/111/121 307/111/120 63/396/162
f 72/146/387 300/102/110 296/104/112
f 324/101/109 301/100/108 73/397/388
f 64/139/148 308/93/101 309/95/103
f 202/356/349 320/90/98 310/92/100
f 108/200/37 342/234/37 354/36/37
f 341/203/206 353/138/147 247/218/218
f 332/142/153 352/204/207 230/82/92
f 74/398/37 340/68/37 351/232/37
f 344/266/37 350/69/37 203/143/37
f 124/349/344 343/251/250 349/140/151
f 27/17/17 331/42/149 348/249/248
f 337/338/42 347/267/37 186/246/37
f 363/297/298 140/155/165 346/32/33
f 134/26/27 345/133/141 386/300/301
f 347/267/37 344/266/37 128/355/37
f 182/16/18 348/249/248 343/251/250
f 234/363/37 351/232/37 342/234/37
f 352/204/207 341/203/206 97/366/361
f 199/281/281 349/140/151 332/142/153
f 330/42/150 331/42/149 27/17/17
f 353/138/147 339/52/62 28/43/61
f 6/43/49 338/51/143 334/136/145
f 326/132/140 329/132/39 19/25/38
f 134/26/27 15/8/8 336/127/135
f 16/24/25 335/130/138 326/132/140
f 15/8/8 24/399/401 334/400/391
f 350/69/37 340/68/37 74/398/37
f 72/146/154 338/51/60 339/52/62
f 330/42/48 325/41/47 59/401/392
f 333/28/29 337/28/42 71/402/341
f 251/376/37 354/36/37 329/37/39
f 62/154/164 328/6/6 346/32/33
f 67/148/159 61/156/166 327/403/393
f 59/404/394 325/4/4 328/6/6
f 357/314/315 386/300/301 335/130/138
f 61/156/166 363/297/298 385/311/312
f 49/405/395 360/303/304 384/298/299
f 362/299/300 383/302/303 297/122/130
f 47/406/396 361/301/302 382/294/295
f 364/295/296 381/304/305 267/118/126
f 370/369/317 380/292/293 256/219/220
f 93/238/242 367/289/290 379/313/314
f 33/407/397 359/305/306 378/290/291
f 366/291/292 377/308/309 219/73/83
f 35/408/398 358/307/308 376/286/287
f 368/287/288 375/306/307 195/79/89
f 356/312/313 374/288/289 178/261/257
f 113/278/278 369/285/286 373/309/310
f 355/310/311 372/296/297 157/162/172
f 77/190/199 365/293/294 371/315/316
f 149/334/333 371/315/316 370/316/317
f 243/381/370 379/313/314 357/314/315
f 327/403/393 385/311/312 356/312/313
f 171/348/343 373/309/310 355/310/311
f 377/308/309 358/307/308 35/408/398
f 375/306/307 359/305/306 33/407/397
f 381/304/305 360/303/304 49/405/395
f 383/302/303 361/301/302 47/406/396
f 386/300/301 362/299/300 69/395/386
f 305/392/382 384/298/299 363/297/298
f 372/296/297 364/295/296 85/387/378
f 275/383/373 382/294/295 365/293/294
f 380/292/293 366/291/292 100/367/362
f 226/362/356 378/290/291 367/289/290
f 374/288/289 368/287/288 120/359/352
f 208/352/347 376/286/287 369/285/286
